G04*
G04 #@! TF.GenerationSoftware,Altium Limited,Altium Designer,26.9.1 (10)*
G04*
G04 Layer_Color=0*
G04 Board_Origin=38150000|32450000*
%FSLAX43Y43*%
%MOMM*%
G71*
G04*
G04 #@! TF.SameCoordinates,334263D8-6952-4501-A3C5-08E35A999B97*
G04*
G04*
G04 #@! TF.FilePolarity,Positive*
G04*
G01*
G75*
%ADD102C,0.025*%
G36*
X13312Y-10025D02*
X10920Y-12088D01*
X5735D01*
X3548Y-13812D01*
X2136Y-14970D01*
X2136Y-21574D01*
X2263Y-21701D01*
X2390Y-21574D01*
Y-15013D01*
X5803Y-12365D01*
X10973D01*
X13566Y-10104D01*
Y-3794D01*
X13312D01*
Y-10025D01*
D02*
G37*
G36*
X-10933Y34466D02*
X-11087Y34473D01*
X-11393Y34435D01*
X-11683Y34331D01*
X-11943Y34165D01*
X-12159Y33945D01*
X-12322Y33683D01*
X-12422Y33392D01*
X-12455Y33085D01*
X-12446Y32931D01*
X-12446Y32931D01*
Y22860D01*
X-12434Y22611D01*
X-12337Y22123D01*
X-12146Y21663D01*
X-11869Y21249D01*
X-11517Y20897D01*
X-11103Y20620D01*
X-10643Y20429D01*
X-10155Y20332D01*
X-9906Y20320D01*
D01*
X-8001D01*
X-7752Y20332D01*
X-7264Y20429D01*
X-6804Y20620D01*
X-6390Y20897D01*
X-6038Y21249D01*
X-5761Y21663D01*
X-5570Y22123D01*
X-5473Y22611D01*
X-5461Y22860D01*
D01*
X-5461Y26888D01*
X-5473Y27137D01*
X-5570Y27625D01*
X-5761Y28085D01*
X-6038Y28499D01*
X-6205Y28684D01*
X-6205Y28684D01*
X-6985Y29464D01*
X-7089Y29545D01*
X-7262Y29744D01*
X-7393Y29972D01*
X-7476Y30222D01*
X-7493Y30353D01*
X-7493Y30353D01*
X-7493Y30480D01*
X-7473Y30535D01*
X-7405Y30632D01*
X-7314Y30707D01*
X-7207Y30756D01*
X-7091Y30775D01*
X-6974Y30764D01*
X-6863Y30722D01*
X-6768Y30653D01*
X-6731Y30607D01*
X-6731Y30607D01*
X-6604Y30353D01*
X-6591Y30300D01*
X-6551Y30198D01*
X-6492Y30106D01*
X-6415Y30027D01*
X-6372Y29994D01*
X-6372D01*
X-5316Y28938D01*
X-5139Y28761D01*
X-4861Y28345D01*
X-4669Y27883D01*
X-4572Y27392D01*
X-4572Y27142D01*
X-4572Y27142D01*
X-4572Y22867D01*
X-4572Y22642D01*
X-4631Y22195D01*
X-4747Y21760D01*
X-4920Y21344D01*
X-5145Y20954D01*
X-5419Y20597D01*
X-5738Y20278D01*
X-6095Y20004D01*
X-6485Y19779D01*
X-6901Y19606D01*
X-7336Y19490D01*
X-7783Y19431D01*
X-8008Y19431D01*
X-8008D01*
X-10795Y19431D01*
X-11045Y19431D01*
X-11536Y19529D01*
X-11998Y19720D01*
X-12414Y19998D01*
X-12768Y20352D01*
X-13046Y20768D01*
X-13237Y21230D01*
X-13335Y21721D01*
X-13335Y21971D01*
Y21971D01*
X-13335Y33150D01*
X-13339Y33352D01*
X-13267Y33749D01*
X-13119Y34126D01*
X-12901Y34466D01*
X-12620Y34757D01*
X-12288Y34987D01*
X-11918Y35149D01*
X-11523Y35235D01*
X-11321Y35238D01*
X-11321Y35238D01*
X-11176Y34798D01*
X-10933Y34466D01*
D02*
G37*
G36*
X11275Y34470D02*
X11387Y34446D01*
X11599Y34365D01*
X11792Y34243D01*
X11958Y34087D01*
X12090Y33901D01*
X12183Y33693D01*
X12234Y33471D01*
X12240Y33244D01*
X12227Y33130D01*
X12227Y33130D01*
X12227Y22897D01*
X12215Y22648D01*
X12117Y22160D01*
X11927Y21700D01*
X11650Y21286D01*
X11298Y20934D01*
X10884Y20657D01*
X10424Y20467D01*
X9936Y20369D01*
X9687Y20357D01*
X9687D01*
X7782D01*
X7533Y20370D01*
X7044Y20467D01*
X6584Y20657D01*
X6170Y20934D01*
X5818Y21286D01*
X5542Y21700D01*
X5351Y22160D01*
X5254Y22648D01*
X5242Y22897D01*
Y22897D01*
Y26925D01*
X5254Y27174D01*
X5351Y27663D01*
X5542Y28123D01*
X5818Y28537D01*
X5986Y28721D01*
X5986Y28721D01*
X6766Y29501D01*
X6898Y29634D01*
X7107Y29945D01*
X7250Y30292D01*
X7323Y30659D01*
X7323Y30847D01*
X7323Y30847D01*
X7306Y31100D01*
X7237Y31100D01*
X7102Y31122D01*
X6975Y31175D01*
X6863Y31254D01*
X6814Y31303D01*
X6814Y31303D01*
X6512Y31605D01*
X6512Y30898D01*
X6506Y30778D01*
X6459Y30542D01*
X6367Y30320D01*
X6233Y30120D01*
X6153Y30031D01*
X6153Y30031D01*
X5097Y28975D01*
X4940Y28772D01*
X4710Y28313D01*
X4575Y27818D01*
X4540Y27306D01*
X4572Y27051D01*
X4572Y27051D01*
X4572Y23385D01*
X4542Y23158D01*
X4542Y22701D01*
X4602Y22247D01*
X4720Y21805D01*
X4895Y21382D01*
X5123Y20986D01*
X5402Y20623D01*
X5725Y20299D01*
X6088Y20021D01*
X6484Y19792D01*
X6907Y19617D01*
X7349Y19498D01*
X7576Y19468D01*
X7576D01*
X10576D01*
X10826D01*
X11317Y19566D01*
X11779Y19757D01*
X12195Y20035D01*
X12549Y20389D01*
X12827Y20805D01*
X13018Y21267D01*
X13116Y21758D01*
Y22008D01*
D01*
X13116Y32983D01*
X13116Y33167D01*
X13058Y33532D01*
X12944Y33882D01*
X12776Y34210D01*
X12559Y34508D01*
X12298Y34768D01*
X11999Y34984D01*
X11670Y35151D01*
X11495Y35207D01*
X11495Y35207D01*
X11405Y35152D01*
X11272Y34989D01*
X11201Y34791D01*
X11201Y34580D01*
X11236Y34481D01*
X11236Y34481D01*
X11396Y34436D01*
X11275Y34470D01*
D02*
G37*
G36*
X34636Y-36229D02*
Y-36114D01*
X34548Y-35902D01*
X34386Y-35740D01*
X34175Y-35653D01*
X34060D01*
X33946D01*
X33734Y-35740D01*
X33572Y-35902D01*
X33484Y-36114D01*
Y-36229D01*
Y-36343D01*
X33572Y-36555D01*
X33734Y-36717D01*
X33946Y-36805D01*
X34060D01*
X34175D01*
X34386Y-36717D01*
X34548Y-36555D01*
X34636Y-36343D01*
Y-36229D01*
D01*
D02*
G37*
G36*
X-33561Y32374D02*
Y32489D01*
X-33648Y32700D01*
X-33810Y32862D01*
X-34022Y32950D01*
X-34137D01*
X-34251D01*
X-34463Y32862D01*
X-34625Y32700D01*
X-34713Y32489D01*
Y32374D01*
Y32259D01*
X-34625Y32048D01*
X-34463Y31886D01*
X-34251Y31798D01*
X-34137D01*
X-34022D01*
X-33810Y31886D01*
X-33648Y32048D01*
X-33561Y32259D01*
Y32374D01*
D01*
D02*
G37*
G36*
X2134Y-22463D02*
Y-39168D01*
X2388D01*
Y-22463D01*
X2134D01*
D02*
G37*
G36*
X-2540D02*
Y-39162D01*
X-2286D01*
Y-22463D01*
X-2540D01*
D02*
G37*
G36*
X-13462Y-11584D02*
X-10584Y-14462D01*
X-3556D01*
X-2286Y-15732D01*
Y-21574D01*
X-2413Y-21701D01*
X-2540Y-21574D01*
Y-15859D01*
X-3683Y-14716D01*
X-6989D01*
X-6993Y-14711D01*
X-6998Y-14716D01*
X-10778D01*
X-13716Y-11778D01*
Y-3794D01*
X-13462D01*
Y-11584D01*
D02*
G37*
D102*
X-35871Y-36859D02*
Y39418D01*
D02*
G02*
X-32871Y42418I3000J0D01*
G01*
X32630D01*
D02*
G02*
X35630Y39418I0J-3000D01*
G01*
Y-36859D01*
D02*
G02*
X32630Y-39859I-3000J0D01*
G01*
X-32871D01*
D02*
G02*
X-35871Y-36859I0J3000D01*
G01*
M02*
