G04*
G04 #@! TF.GenerationSoftware,Altium Limited,Altium Designer,25.2.1 (25)*
G04*
G04 Layer_Physical_Order=1*
G04 Layer_Color=255*
%FSLAX44Y44*%
%MOMM*%
G71*
G04*
G04 #@! TF.SameCoordinates,75E2CF20-C0F6-4739-B50C-0B6B13628365*
G04*
G04*
G04 #@! TF.FilePolarity,Positive*
G04*
G01*
G75*
%ADD14R,0.7000X0.8500*%
%ADD15R,0.8500X0.7000*%
%ADD16R,0.7000X0.9000*%
%ADD17R,1.0000X0.8000*%
%ADD18R,0.6000X0.8000*%
%ADD19R,1.1000X0.6000*%
%ADD20R,2.5000X4.0000*%
%ADD21R,5.5000X6.8000*%
%ADD22R,0.9500X1.7000*%
%ADD23R,6.5000X6.2000*%
%ADD24R,2.4000X1.3000*%
%ADD25R,0.6587X0.8121*%
%ADD26R,2.5000X1.5000*%
%ADD27R,7.0000X7.0000*%
G04:AMPARAMS|DCode=28|XSize=0.881mm|YSize=0.2425mm|CornerRadius=0.1212mm|HoleSize=0mm|Usage=FLASHONLY|Rotation=90.000|XOffset=0mm|YOffset=0mm|HoleType=Round|Shape=RoundedRectangle|*
%AMROUNDEDRECTD28*
21,1,0.8810,0.0000,0,0,90.0*
21,1,0.6385,0.2425,0,0,90.0*
1,1,0.2425,0.0000,0.3193*
1,1,0.2425,0.0000,-0.3193*
1,1,0.2425,0.0000,-0.3193*
1,1,0.2425,0.0000,0.3193*
%
%ADD28ROUNDEDRECTD28*%
%ADD29R,0.2425X0.8810*%
%ADD30R,4.0000X2.1000*%
%ADD31R,0.9000X0.8000*%
%ADD32R,1.1311X0.9121*%
%ADD33R,0.8000X0.7500*%
%ADD34R,1.4000X1.5000*%
%ADD35R,0.8000X0.9000*%
%ADD36R,6.8000X5.5000*%
%ADD37R,1.7000X0.9500*%
%ADD38R,0.8000X1.0000*%
%ADD39R,0.9000X0.7000*%
%ADD49R,2.4800X1.6500*%
%ADD57C,1.6000*%
%ADD58R,1.6000X1.6000*%
%ADD59C,1.5500*%
%ADD60R,1.5500X1.5500*%
%ADD61C,1.0000*%
%ADD62R,1.0000X1.0000*%
%ADD71C,0.2540*%
%ADD72C,1.5000*%
%ADD73C,0.5000*%
%ADD74C,0.5400*%
%ADD75C,0.5080*%
%ADD76C,1.0000*%
%ADD77C,0.4000*%
%ADD78C,0.8000*%
%ADD79C,0.3540*%
%ADD80C,0.7400*%
%ADD81C,2.4000*%
G04:AMPARAMS|DCode=82|XSize=2.4mm|YSize=2.4mm|CornerRadius=0.6mm|HoleSize=0mm|Usage=FLASHONLY|Rotation=180.000|XOffset=0mm|YOffset=0mm|HoleType=Round|Shape=RoundedRectangle|*
%AMROUNDEDRECTD82*
21,1,2.4000,1.2000,0,0,180.0*
21,1,1.2000,2.4000,0,0,180.0*
1,1,1.2000,-0.6000,0.6000*
1,1,1.2000,0.6000,0.6000*
1,1,1.2000,0.6000,-0.6000*
1,1,1.2000,-0.6000,-0.6000*
%
%ADD82ROUNDEDRECTD82*%
%ADD83R,1.4000X1.4000*%
%ADD84C,1.4000*%
%ADD85C,2.9000*%
%ADD86C,0.5000*%
%ADD87C,0.8000*%
%ADD88C,1.2700*%
%ADD89C,0.6000*%
%ADD90C,0.7000*%
G36*
X699770Y1126490D02*
Y991870D01*
X688340Y980440D01*
X670560D01*
X661670Y989330D01*
Y1130300D01*
X668020Y1136650D01*
X689610D01*
X699770Y1126490D01*
D02*
G37*
G36*
X642620Y1127760D02*
Y990600D01*
X631190Y979170D01*
X617220D01*
X605790Y990600D01*
Y1130300D01*
X612140Y1136650D01*
X633730D01*
X642620Y1127760D01*
D02*
G37*
G36*
X601980Y905510D02*
Y877570D01*
X596900Y872490D01*
X576580D01*
X571500Y877570D01*
Y904240D01*
X574040Y908050D01*
X599440D01*
X601980Y905510D01*
D02*
G37*
G36*
X924052Y1150620D02*
X930910Y1139190D01*
Y1111250D01*
X976630Y1065530D01*
Y836930D01*
X904240D01*
Y887730D01*
X842010D01*
X829310Y875030D01*
Y844550D01*
X788670D01*
X774700Y858520D01*
X773430D01*
Y869950D01*
X763270Y880110D01*
Y919480D01*
X802640Y958850D01*
X930910D01*
Y1045210D01*
X894080Y1082040D01*
Y1140883D01*
X899922Y1150620D01*
X924052Y1150620D01*
D02*
G37*
G36*
X408940Y1154430D02*
X421640Y1141730D01*
X421640Y1088390D01*
X372110Y1038860D01*
Y967740D01*
X384810Y955040D01*
X510540D01*
X555625Y909955D01*
X554990Y909784D01*
Y839470D01*
X546100Y830580D01*
X433070D01*
X430530Y833120D01*
Y853440D01*
X431800Y855980D01*
X439420D01*
X486410Y902970D01*
X476250Y913130D01*
X391018D01*
X398780Y905368D01*
X398780Y845058D01*
X391795Y839470D01*
X335280D01*
X327660Y847090D01*
Y1065530D01*
X372110Y1109980D01*
X372110Y1143000D01*
X383540Y1154430D01*
X408940Y1154430D01*
D02*
G37*
G36*
X745490Y857250D02*
Y826770D01*
X741680Y822960D01*
X716280Y822960D01*
X712470Y826770D01*
Y858520D01*
X716280Y862330D01*
X740410D01*
X745490Y857250D01*
D02*
G37*
G36*
X875030Y859790D02*
Y816610D01*
X845820Y787400D01*
X777240D01*
X770890Y781050D01*
Y759460D01*
X767080Y755650D01*
X750570D01*
X746760Y759460D01*
Y791210D01*
X760730Y805180D01*
X828040D01*
X843280Y820420D01*
Y857250D01*
X845820Y863600D01*
X871220D01*
X875030Y859790D01*
D02*
G37*
G36*
X455930Y904240D02*
Y885190D01*
X434340D01*
X424180Y875030D01*
Y792480D01*
X429260Y787400D01*
Y760730D01*
X430530Y759460D01*
X424180Y753110D01*
X398780D01*
X393700Y758190D01*
Y810260D01*
X405130Y821690D01*
Y882650D01*
X429260Y906780D01*
X453390D01*
X455930Y904240D01*
D02*
G37*
G36*
X887730Y643890D02*
Y612140D01*
X880110Y604520D01*
X866140D01*
X858520Y612140D01*
Y636270D01*
X848360Y646430D01*
X793750D01*
X779780Y632460D01*
Y623570D01*
Y586740D01*
Y532130D01*
X773430Y525780D01*
X712470D01*
Y581660D01*
X740410Y609600D01*
Y614680D01*
Y624840D01*
X744220Y628650D01*
Y647700D01*
X765810Y669290D01*
X862330D01*
X887730Y643890D01*
D02*
G37*
G36*
X875030Y554990D02*
X871220Y551180D01*
X803910D01*
X800100Y554990D01*
Y576580D01*
X802640Y579120D01*
X875030D01*
Y554990D01*
D02*
G37*
G36*
X977900Y568960D02*
X944880Y535940D01*
X919480D01*
X918210Y537210D01*
Y581660D01*
X947420D01*
X956310Y590550D01*
Y646430D01*
X965200Y655320D01*
X977900D01*
Y568960D01*
D02*
G37*
G36*
X355600Y651510D02*
X355600Y600710D01*
X373380Y582930D01*
X398780Y582930D01*
X406400Y575310D01*
Y534670D01*
X400050Y528320D01*
X363220D01*
X351790Y539750D01*
Y549910D01*
X330200Y571500D01*
Y636270D01*
Y651510D01*
X335280Y656590D01*
X350520D01*
X355600Y651510D01*
D02*
G37*
G36*
X506405Y561665D02*
X505433Y559319D01*
X464820D01*
X464820Y559319D01*
X463649Y559086D01*
X462657Y558423D01*
X462657Y558423D01*
X446147Y541913D01*
X445484Y540920D01*
X445251Y539750D01*
X445251Y539750D01*
Y474980D01*
X445484Y473809D01*
X446147Y472817D01*
X446147Y472817D01*
X447020Y471944D01*
Y468140D01*
X450705D01*
X450850Y468111D01*
X524510D01*
X524510Y468111D01*
X525681Y468344D01*
X526673Y469007D01*
X526673Y469007D01*
X528964Y471298D01*
X528981Y471308D01*
X530722Y473049D01*
X530732Y473066D01*
X531753Y474087D01*
X532416Y475079D01*
X532649Y476250D01*
X532649Y476250D01*
Y532103D01*
X534995Y533075D01*
X541020Y527050D01*
Y506730D01*
X547042D01*
X547469Y506444D01*
X548640Y506211D01*
X548640Y506211D01*
X562280D01*
X563637Y503671D01*
X563498Y503464D01*
X556260D01*
X554594Y503132D01*
X553181Y502188D01*
X549371Y498378D01*
X548428Y496966D01*
X548096Y495300D01*
Y476250D01*
X548428Y474584D01*
X549371Y473172D01*
X553061Y469482D01*
X554474Y468538D01*
X556140Y468206D01*
X557150D01*
Y465560D01*
X573150D01*
Y471203D01*
X573476Y471268D01*
X574888Y472212D01*
X582193Y479516D01*
X590550D01*
X592216Y479848D01*
X593629Y480792D01*
X600159Y487322D01*
X614586D01*
X614682Y486839D01*
X615613Y485446D01*
X617006Y484515D01*
X618650Y484188D01*
X620294Y484515D01*
X621150Y485087D01*
X622006Y484515D01*
X623650Y484188D01*
X625294Y484515D01*
X625573Y484702D01*
X626834Y484102D01*
X626917Y482681D01*
X626701Y481353D01*
X625572Y480598D01*
X624628Y479186D01*
X624296Y477520D01*
X624628Y475854D01*
X625572Y474441D01*
X626701Y473687D01*
X626917Y472359D01*
X626834Y470938D01*
X625573Y470338D01*
X625294Y470525D01*
X623650Y470852D01*
X622862Y470770D01*
Y470770D01*
X614438D01*
Y464075D01*
X614296Y463364D01*
Y457086D01*
X613684Y456474D01*
X604283D01*
X603130Y457627D01*
Y465470D01*
X588130D01*
Y461078D01*
X586921Y460837D01*
X585509Y459893D01*
X584629Y459014D01*
X582021D01*
Y461721D01*
X571026D01*
X569434Y461721D01*
X566894Y461721D01*
X555899D01*
Y447599D01*
X557839D01*
Y442247D01*
X558171Y440581D01*
X559114Y439169D01*
X564620Y433663D01*
Y426320D01*
X578620D01*
Y439820D01*
X570777D01*
X567103Y443494D01*
Y446360D01*
X568343Y447599D01*
X571026Y447599D01*
X582021D01*
Y450306D01*
X586432D01*
X588098Y450638D01*
X589344Y451470D01*
X596973D01*
X599402Y449041D01*
X600814Y448098D01*
X602480Y447766D01*
X615488D01*
X616320Y447083D01*
Y436630D01*
Y424130D01*
X619216D01*
Y420370D01*
X619548Y418704D01*
X617421Y417653D01*
X615289Y416422D01*
X613548Y414681D01*
X612317Y412549D01*
X611680Y410171D01*
Y407709D01*
X612317Y405331D01*
X613548Y403199D01*
X615289Y401458D01*
X617421Y400227D01*
X619799Y399590D01*
X622261D01*
X624639Y400227D01*
X626771Y401458D01*
X628512Y403199D01*
X629743Y405331D01*
X630380Y407709D01*
Y410171D01*
X630967Y410936D01*
X725326D01*
X726006Y408396D01*
X724509Y407532D01*
X722768Y405791D01*
X721537Y403659D01*
X720900Y401281D01*
Y398819D01*
X721315Y397270D01*
X720184Y395251D01*
X719592Y394730D01*
X718613D01*
X715715Y394154D01*
X712985Y393023D01*
X710528Y391381D01*
X708439Y389292D01*
X706797Y386835D01*
X705667Y384105D01*
X705090Y381207D01*
Y378253D01*
X705667Y375355D01*
X706797Y372625D01*
X708439Y370168D01*
X710528Y368079D01*
X712985Y366437D01*
X715715Y365307D01*
X715736Y365302D01*
Y349783D01*
X709397Y343444D01*
X626959D01*
X625906Y345984D01*
X625972Y346049D01*
X627203Y348181D01*
X627840Y350559D01*
Y353021D01*
X627203Y355399D01*
X625972Y357531D01*
X624231Y359272D01*
X622099Y360503D01*
X619721Y361140D01*
X617259D01*
X614881Y360503D01*
X612749Y359272D01*
X611669Y358192D01*
X595800Y374061D01*
X596336Y375355D01*
X596912Y378253D01*
Y381207D01*
X596336Y384105D01*
X595205Y386835D01*
X593564Y389292D01*
X591474Y391381D01*
X589018Y393023D01*
X586288Y394154D01*
X583390Y394730D01*
X580435D01*
X577537Y394154D01*
X574807Y393023D01*
X572351Y391381D01*
X570261Y389292D01*
X568620Y386835D01*
X567489Y384105D01*
X566912Y381207D01*
Y378253D01*
X567489Y375355D01*
X568620Y372625D01*
X570261Y370168D01*
X572351Y368079D01*
X574807Y366437D01*
X577537Y365307D01*
X580435Y364730D01*
X583390D01*
X586288Y365307D01*
X587581Y365842D01*
X605244Y348180D01*
X605244Y348180D01*
X607130Y346920D01*
X608591Y346629D01*
X609082Y345984D01*
X607878Y343558D01*
X607710Y343444D01*
X551713D01*
X541564Y353593D01*
Y447040D01*
X541232Y448706D01*
X540289Y450118D01*
X527589Y462818D01*
X526176Y463762D01*
X524510Y464094D01*
X431371D01*
X430319Y466634D01*
X433963Y470277D01*
X434626Y471269D01*
X434859Y472440D01*
X434859Y472440D01*
Y500380D01*
X434626Y501550D01*
X433963Y502543D01*
X426343Y510163D01*
X425350Y510826D01*
X424180Y511059D01*
X424180Y511059D01*
X342900D01*
X341729Y510826D01*
X340737Y510163D01*
X340737Y510163D01*
X334387Y503813D01*
X333724Y502821D01*
X333491Y501650D01*
X333491Y501650D01*
Y474980D01*
X333491Y474980D01*
X333724Y473810D01*
X334387Y472817D01*
X334387Y472817D01*
X343277Y463927D01*
X344269Y463264D01*
X345440Y463031D01*
X345440Y463031D01*
X359210D01*
X363372Y457829D01*
X363502Y457719D01*
X363597Y457577D01*
X365971Y455204D01*
X365905Y454497D01*
X365117Y452664D01*
X356000D01*
X354334Y452332D01*
X352921Y451389D01*
X347563Y446030D01*
X336720D01*
Y442740D01*
X331706D01*
X330490Y442498D01*
X328820Y443376D01*
X327950Y444066D01*
Y565832D01*
X330490Y566885D01*
X348731Y548643D01*
Y539750D01*
X348964Y538579D01*
X349627Y537587D01*
X361057Y526157D01*
X362049Y525494D01*
X363220Y525261D01*
X363220Y525261D01*
X400050D01*
X401221Y525494D01*
X402213Y526157D01*
X402213Y526157D01*
X408563Y532507D01*
X409226Y533499D01*
X409459Y534670D01*
X409459Y534670D01*
Y575310D01*
X409226Y576481D01*
X408563Y577473D01*
X408563Y577473D01*
X407919Y578117D01*
X408252Y581376D01*
X408947Y582071D01*
X409828Y584200D01*
X483870D01*
X506405Y561665D01*
D02*
G37*
G36*
X977331Y507299D02*
Y502953D01*
X975360Y500899D01*
X907673D01*
X907607Y500999D01*
X906894Y503439D01*
X908057Y504601D01*
X908970Y506806D01*
Y509193D01*
X908057Y511399D01*
X906369Y513087D01*
X904164Y514000D01*
X901777D01*
X899571Y513087D01*
X897883Y511399D01*
X896970Y509193D01*
Y506806D01*
X897883Y504601D01*
X899046Y503439D01*
X898333Y500999D01*
X898267Y500899D01*
X896620D01*
X895449Y500666D01*
X894457Y500003D01*
X894457Y500003D01*
X891917Y497463D01*
X891254Y496470D01*
X891021Y495300D01*
X891021Y495300D01*
Y465740D01*
X889077D01*
X886871Y464827D01*
X886138Y464094D01*
X874696D01*
X874626Y464080D01*
X873683Y464470D01*
X871296D01*
X869091Y463557D01*
X867403Y461869D01*
X866490Y459664D01*
Y457276D01*
X867403Y455071D01*
X869091Y453383D01*
X871296Y452470D01*
X873683D01*
X875889Y453383D01*
X877577Y455071D01*
X877707Y455386D01*
X886138D01*
X886871Y454653D01*
X889077Y453740D01*
X890113D01*
X899892Y443961D01*
X900788Y443362D01*
X901383Y441284D01*
X901423Y440404D01*
X894657Y433638D01*
X885929D01*
X884492Y436179D01*
X885013Y437081D01*
X885650Y439459D01*
Y441921D01*
X885013Y444299D01*
X883782Y446431D01*
X882041Y448172D01*
X879909Y449403D01*
X877531Y450040D01*
X875069D01*
X872691Y449403D01*
X870559Y448172D01*
X868818Y446431D01*
X867587Y444299D01*
X866950Y441921D01*
Y439459D01*
X867587Y437081D01*
X868108Y436179D01*
X866671Y433638D01*
X850950D01*
Y435240D01*
X825450D01*
Y433614D01*
X797509D01*
X795621Y435656D01*
X795816Y437439D01*
X795816D01*
Y445404D01*
X803427Y453014D01*
X806798Y453235D01*
X808452Y451581D01*
X809864Y450638D01*
X811530Y450306D01*
X824967D01*
X832224Y443049D01*
X833636Y442105D01*
X834625Y441909D01*
Y438209D01*
X851935D01*
Y453331D01*
X844914D01*
X844448Y453995D01*
X843948Y455871D01*
X848287Y460210D01*
X857130D01*
Y473210D01*
X842130D01*
Y466367D01*
X838587Y462824D01*
X819512D01*
X819227Y463320D01*
X818276Y465507D01*
X819688Y466451D01*
X820632Y467863D01*
X820964Y469529D01*
Y476704D01*
X820632Y478371D01*
X819688Y479783D01*
X812709Y486763D01*
X811296Y487707D01*
X810564Y487852D01*
X810138Y490527D01*
X810294Y490614D01*
X811610Y490352D01*
X813254Y490679D01*
X814075Y491228D01*
X815734Y490119D01*
X817880Y489692D01*
X820026Y490119D01*
X821845Y491335D01*
X823061Y493154D01*
X823488Y495300D01*
Y496570D01*
X834390D01*
X834390Y510540D01*
X840740Y516890D01*
X847495D01*
X848136Y516248D01*
X850341Y515335D01*
X852729D01*
X854934Y516248D01*
X855575Y516890D01*
X914257D01*
X914944Y516605D01*
X916352Y516420D01*
X916722Y516346D01*
X950178D01*
X950548Y516420D01*
X951956Y516605D01*
X952643Y516890D01*
X967740D01*
X977331Y507299D01*
D02*
G37*
G36*
X642620Y520700D02*
X640592Y518672D01*
Y517070D01*
X640260D01*
X637540Y514350D01*
X629920Y513080D01*
Y521970D01*
X631190Y523240D01*
X640080D01*
X642620Y520700D01*
D02*
G37*
G36*
X819150Y513080D02*
X817880Y511810D01*
X805180D01*
X802640Y514350D01*
Y527050D01*
X803910Y528320D01*
X819150D01*
Y513080D01*
D02*
G37*
G36*
X537210Y637540D02*
X546100Y628650D01*
Y599440D01*
X566420Y579120D01*
X604520D01*
X614680Y568960D01*
Y514350D01*
X609600Y509270D01*
X548640D01*
X544830Y513080D01*
Y543560D01*
X509270Y579120D01*
Y609600D01*
Y631190D01*
D01*
X499110Y641350D01*
X431800D01*
X424180Y633730D01*
Y605790D01*
X417830Y599440D01*
X402590D01*
X396240Y605790D01*
Y636270D01*
X420370Y660400D01*
X514350D01*
X537210Y637540D01*
D02*
G37*
G36*
X675640Y567690D02*
Y520700D01*
X661670Y506730D01*
Y554990D01*
X637540D01*
X633730Y557530D01*
X633730Y593090D01*
X640080Y599440D01*
X675640D01*
Y567690D01*
D02*
G37*
G36*
X731077Y506312D02*
X731713Y504190D01*
X727171Y499649D01*
X726228Y498236D01*
X725896Y496570D01*
Y476468D01*
X726228Y474802D01*
X727171Y473389D01*
X728659Y471902D01*
X730072Y470958D01*
X731738Y470626D01*
X740410D01*
X742076Y470958D01*
X743488Y471902D01*
X746023Y474436D01*
X767080D01*
X767580Y474536D01*
X770120Y472864D01*
Y461130D01*
X772033D01*
Y455897D01*
X770237Y454101D01*
X767553Y454101D01*
X756559D01*
Y446136D01*
X750311Y439888D01*
X749969Y439820D01*
X740910D01*
Y426320D01*
X754910D01*
Y432272D01*
X755209Y432472D01*
X762716Y439979D01*
X769146Y439979D01*
X771686Y439979D01*
X782681D01*
X783229Y437667D01*
Y437439D01*
X785169D01*
Y434757D01*
X785501Y433091D01*
X786444Y431679D01*
X791942Y426181D01*
X793354Y425238D01*
X795020Y424906D01*
X825450D01*
Y420740D01*
X850950D01*
Y422341D01*
X896997D01*
X896997Y422341D01*
X899158Y422771D01*
X900991Y423996D01*
X912290Y435295D01*
X964184D01*
X964184Y435295D01*
X966346Y435725D01*
X968178Y436950D01*
X982070Y450841D01*
X984416Y449869D01*
Y354330D01*
X984455Y354134D01*
X984069Y350213D01*
X982868Y346254D01*
X980918Y342605D01*
X978293Y339407D01*
X975095Y336782D01*
X971446Y334832D01*
X967487Y333631D01*
X963566Y333245D01*
X963370Y333284D01*
X741539D01*
X740567Y335630D01*
X748568Y343632D01*
X749512Y345044D01*
X749844Y346710D01*
Y349671D01*
X752384Y350723D01*
X753277Y349831D01*
X755409Y348600D01*
X757787Y347962D01*
X760249D01*
X760397Y348002D01*
X765655Y342745D01*
X767474Y341529D01*
X769620Y341102D01*
X892810D01*
X894956Y341529D01*
X896775Y342745D01*
X923445Y369415D01*
X924661Y371234D01*
X925088Y373380D01*
Y397571D01*
X925221Y397648D01*
X926962Y399389D01*
X928193Y401521D01*
X928830Y403899D01*
Y406361D01*
X928193Y408739D01*
X926962Y410871D01*
X925221Y412612D01*
X923089Y413843D01*
X920711Y414480D01*
X918249D01*
X915871Y413843D01*
X913739Y412612D01*
X911998Y410871D01*
X910767Y408739D01*
X910130Y406361D01*
Y403899D01*
X910767Y401521D01*
X911998Y399389D01*
X913739Y397648D01*
X913872Y397571D01*
Y375703D01*
X890487Y352318D01*
X771943D01*
X768328Y355933D01*
X768368Y356081D01*
Y358543D01*
X767730Y360921D01*
X767043Y362112D01*
X768270Y364652D01*
X776890D01*
X779240Y364962D01*
X781429Y365868D01*
X783309Y367311D01*
X784752Y369191D01*
X785658Y371381D01*
X785968Y373730D01*
Y385730D01*
X785658Y388079D01*
X785400Y388702D01*
X787554Y390141D01*
X787811Y389883D01*
X790016Y388970D01*
X792403D01*
X794609Y389883D01*
X796297Y391571D01*
X797210Y393777D01*
Y396163D01*
X796297Y398369D01*
X795564Y399102D01*
Y408004D01*
X795232Y409670D01*
X794288Y411082D01*
X789876Y415495D01*
Y416900D01*
X789947Y416971D01*
X790860Y419176D01*
Y421563D01*
X789947Y423769D01*
X788259Y425457D01*
X786053Y426370D01*
X783667D01*
X781461Y425457D01*
X779773Y423769D01*
X778860Y421563D01*
Y419176D01*
X779773Y416971D01*
X781168Y415576D01*
Y413692D01*
X781500Y412026D01*
X782443Y410613D01*
X786856Y406200D01*
Y399102D01*
X786123Y398369D01*
X785210Y396163D01*
Y393777D01*
X783260Y392396D01*
X783054Y392345D01*
X781429Y393591D01*
X779240Y394498D01*
X776890Y394808D01*
X764890D01*
X762541Y394498D01*
X760351Y393591D01*
X758471Y392149D01*
X757029Y390269D01*
X756122Y388079D01*
X755812Y385730D01*
Y373730D01*
X756122Y371381D01*
X757029Y369191D01*
X757094Y369106D01*
X756112Y366213D01*
X755409Y366025D01*
X753277Y364794D01*
X752384Y363901D01*
X749844Y364953D01*
Y398780D01*
X749512Y400446D01*
X748568Y401858D01*
X732058Y418368D01*
X730646Y419312D01*
X728980Y419644D01*
X630453D01*
X628507Y421590D01*
X629332Y424130D01*
X630820D01*
Y427258D01*
X631428Y427833D01*
X633360Y428919D01*
X634380Y428716D01*
X646069D01*
Y426009D01*
X658656D01*
Y440131D01*
X646069D01*
Y437424D01*
X636183D01*
X631748Y441859D01*
X631933Y443300D01*
X632405Y443756D01*
X634509Y444955D01*
X635460Y444766D01*
X656250D01*
X657916Y445098D01*
X659329Y446041D01*
X662926Y449639D01*
X674080D01*
Y464761D01*
X659762D01*
X659693Y464940D01*
X661436Y467480D01*
X671980D01*
Y482480D01*
X658980D01*
Y479334D01*
X655320D01*
X653654Y479002D01*
X652242Y478059D01*
X649702Y475518D01*
X648758Y474106D01*
X648426Y472440D01*
Y460273D01*
X647167Y459014D01*
X643933D01*
X642576Y461554D01*
X642672Y461698D01*
X643004Y463364D01*
Y470540D01*
X642672Y472206D01*
X641729Y473619D01*
X634748Y480598D01*
X633336Y481542D01*
X632604Y481688D01*
X632178Y484362D01*
X632334Y484450D01*
X633650Y484188D01*
X635294Y484515D01*
X636150Y485087D01*
X637006Y484515D01*
X638650Y484188D01*
X640294Y484515D01*
X640592Y484714D01*
X642226Y485039D01*
X644045Y486255D01*
X645261Y488074D01*
X645688Y490220D01*
Y491707D01*
X647753Y493773D01*
X650956D01*
X653102Y494199D01*
X654921Y495415D01*
X662063Y502557D01*
X664410Y501585D01*
Y495920D01*
X676410D01*
Y502763D01*
X680066Y506419D01*
X680138Y506527D01*
X680205Y506572D01*
X680311Y506730D01*
X730767D01*
X731077Y506312D01*
D02*
G37*
G36*
X529590Y549910D02*
Y476250D01*
X524510Y471170D01*
X450850D01*
Y472440D01*
X448310Y474980D01*
Y539750D01*
X464820Y556260D01*
X523240D01*
X529590Y549910D01*
D02*
G37*
G36*
X431800Y500380D02*
Y472440D01*
X426720Y467360D01*
X408940D01*
X398780Y457200D01*
X368300D01*
X365760Y459740D01*
X360680Y466090D01*
X345440D01*
X336550Y474980D01*
Y501650D01*
X342900Y508000D01*
X424180D01*
X431800Y500380D01*
D02*
G37*
G36*
X975360Y459740D02*
X972820Y457200D01*
X969010Y453390D01*
X902970D01*
X894080Y462280D01*
Y495300D01*
X896620Y497840D01*
X975360D01*
Y459740D01*
D02*
G37*
G36*
X474114Y453040D02*
X471547Y450473D01*
X470884Y449481D01*
X470651Y448310D01*
X470651Y448310D01*
Y426720D01*
X470651Y426720D01*
X470884Y425550D01*
X471547Y424557D01*
X475357Y420747D01*
X476349Y420084D01*
X477520Y419851D01*
X477520Y419851D01*
X521970D01*
X521970Y419851D01*
X523140Y420084D01*
X524133Y420747D01*
X527943Y424557D01*
X528606Y425550D01*
X528839Y426720D01*
X528839Y426720D01*
Y445936D01*
X531185Y446908D01*
X532856Y445237D01*
Y351790D01*
X533188Y350124D01*
X534132Y348712D01*
X540863Y341980D01*
X539891Y339634D01*
X357426D01*
X356921Y342174D01*
X358526Y342839D01*
X361474Y344809D01*
X363982Y347316D01*
X365951Y350264D01*
X367308Y353540D01*
X368000Y357017D01*
Y360563D01*
X367308Y364040D01*
X365951Y367316D01*
X363982Y370264D01*
X361474Y372771D01*
X358526Y374741D01*
X355250Y376098D01*
X351773Y376790D01*
X348227D01*
X344750Y376098D01*
X341474Y374741D01*
X338526Y372771D01*
X336018Y370264D01*
X334049Y367316D01*
X332692Y364040D01*
X332000Y360563D01*
Y357199D01*
X331584Y356839D01*
X329614Y355993D01*
X327950Y357657D01*
Y380470D01*
X342010D01*
Y383116D01*
X357760D01*
Y380470D01*
X367603D01*
X371422Y376651D01*
X372834Y375708D01*
X374500Y375376D01*
X428802D01*
X428806Y375355D01*
X429937Y372625D01*
X431579Y370168D01*
X433668Y368079D01*
X436125Y366437D01*
X438855Y365307D01*
X441753Y364730D01*
X444707D01*
X447605Y365307D01*
X450335Y366437D01*
X452792Y368079D01*
X454881Y370168D01*
X456523Y372625D01*
X457654Y375355D01*
X458230Y378253D01*
Y381207D01*
X457654Y384105D01*
X456523Y386835D01*
X454881Y389292D01*
X452792Y391381D01*
X450335Y393023D01*
X447605Y394154D01*
X444707Y394730D01*
X441753D01*
X438855Y394154D01*
X436125Y393023D01*
X433668Y391381D01*
X431579Y389292D01*
X429937Y386835D01*
X428806Y384105D01*
X428802Y384084D01*
X376303D01*
X373760Y386627D01*
Y392930D01*
X373760Y394470D01*
X373760Y397010D01*
Y409470D01*
X370114D01*
Y424530D01*
X371720D01*
Y430373D01*
X376133Y434786D01*
X446870D01*
Y427640D01*
X462370D01*
Y450640D01*
X446870D01*
Y443494D01*
X411333D01*
X410281Y446034D01*
X419633Y455386D01*
X473142D01*
X474114Y453040D01*
D02*
G37*
G36*
X525780Y449580D02*
Y426720D01*
X521970Y422910D01*
X477520D01*
X473710Y426720D01*
Y448310D01*
X478790Y453390D01*
X521970D01*
X525780Y449580D01*
D02*
G37*
%LPC*%
G36*
X638713Y394808D02*
X626712D01*
X624363Y394498D01*
X622174Y393591D01*
X620294Y392149D01*
X618851Y390269D01*
X617944Y388079D01*
X617635Y385730D01*
Y373730D01*
X617944Y371381D01*
X618851Y369191D01*
X620294Y367311D01*
X622174Y365868D01*
X624363Y364962D01*
X626712Y364652D01*
X638713D01*
X641062Y364962D01*
X643251Y365868D01*
X645131Y367311D01*
X646574Y369191D01*
X647481Y371381D01*
X647790Y373730D01*
Y385730D01*
X647481Y388079D01*
X646574Y390269D01*
X645131Y392149D01*
X643251Y393591D01*
X641062Y394498D01*
X638713Y394808D01*
D02*
G37*
G36*
X974734Y404767D02*
X972891D01*
X971111Y404290D01*
X969515Y403369D01*
X968212Y402065D01*
X967290Y400469D01*
X966813Y398689D01*
Y396846D01*
X967290Y395065D01*
X968212Y393469D01*
X969515Y392166D01*
X971111Y391244D01*
X972891Y390767D01*
X974734D01*
X976515Y391244D01*
X978111Y392166D01*
X979414Y393469D01*
X980336Y395065D01*
X980813Y396846D01*
Y398689D01*
X980336Y400469D01*
X979414Y402065D01*
X978111Y403369D01*
X976515Y404290D01*
X974734Y404767D01*
D02*
G37*
G36*
X888230Y418170D02*
X868230D01*
Y397170D01*
X870466D01*
Y392816D01*
X870127Y392229D01*
X869490Y389851D01*
Y387389D01*
X870127Y385011D01*
X871358Y382879D01*
X873099Y381138D01*
X875231Y379907D01*
X877609Y379270D01*
X880071D01*
X882449Y379907D01*
X884581Y381138D01*
X886322Y382879D01*
X887553Y385011D01*
X888190Y387389D01*
Y389851D01*
X887553Y392229D01*
X886604Y393872D01*
Y397170D01*
X888230D01*
Y418170D01*
D02*
G37*
G36*
X846200Y401100D02*
X830200D01*
Y385100D01*
X830200Y385100D01*
X830443Y382560D01*
X830200Y381653D01*
Y379547D01*
X830745Y377512D01*
X831798Y375688D01*
X833136Y374350D01*
X831798Y373012D01*
X830745Y371188D01*
X830200Y369153D01*
Y367047D01*
X830745Y365012D01*
X831798Y363188D01*
X833288Y361698D01*
X835112Y360645D01*
X837147Y360100D01*
X839253D01*
X841288Y360645D01*
X843112Y361698D01*
X844602Y363188D01*
X845655Y365012D01*
X846200Y367047D01*
Y369153D01*
X845655Y371188D01*
X844602Y373012D01*
X843264Y374350D01*
X844602Y375688D01*
X845655Y377512D01*
X846200Y379547D01*
Y381653D01*
X845957Y382560D01*
X846200Y385100D01*
X846200D01*
Y401100D01*
D02*
G37*
G36*
X961773Y376790D02*
X958227D01*
X954750Y376098D01*
X951474Y374741D01*
X948526Y372771D01*
X946019Y370264D01*
X944049Y367316D01*
X942692Y364040D01*
X942000Y360563D01*
Y357017D01*
X942692Y353540D01*
X944049Y350264D01*
X946019Y347316D01*
X948526Y344809D01*
X951474Y342839D01*
X954750Y341482D01*
X958227Y340790D01*
X961773D01*
X965250Y341482D01*
X968526Y342839D01*
X971474Y344809D01*
X973981Y347316D01*
X975951Y350264D01*
X977308Y353540D01*
X978000Y357017D01*
Y360563D01*
X977308Y364040D01*
X975951Y367316D01*
X973981Y370264D01*
X971474Y372771D01*
X968526Y374741D01*
X965250Y376098D01*
X961773Y376790D01*
D02*
G37*
%LPD*%
D14*
X612740Y850900D02*
D03*
X624240D02*
D03*
X705520Y897890D02*
D03*
X694020D02*
D03*
X844450Y427990D02*
D03*
X831950D02*
D03*
D15*
X623570Y430630D02*
D03*
Y443130D02*
D03*
D16*
X665480Y474980D02*
D03*
X679480D02*
D03*
D17*
X365760Y387470D02*
D03*
Y402470D02*
D03*
X565150Y487560D02*
D03*
Y472560D02*
D03*
X334010Y402470D02*
D03*
Y387470D02*
D03*
D18*
X683410Y502920D02*
D03*
X670410D02*
D03*
X736750Y483870D02*
D03*
X723750D02*
D03*
D19*
X345220Y440030D02*
D03*
Y421030D02*
D03*
X363220Y430530D02*
D03*
D20*
X930910Y476890D02*
D03*
Y556890D02*
D03*
X381000D02*
D03*
Y476890D02*
D03*
D21*
X477520Y505140D02*
D03*
D22*
X500420Y439140D02*
D03*
X454620D02*
D03*
D23*
X363117Y873760D02*
D03*
X938020Y874800D02*
D03*
D24*
X442617Y897660D02*
D03*
Y849860D02*
D03*
X858520Y898700D02*
D03*
Y850900D02*
D03*
D25*
X575727Y454660D02*
D03*
X562193D02*
D03*
X789523Y444500D02*
D03*
X803057D02*
D03*
X762853Y447040D02*
D03*
X776387D02*
D03*
X665897Y433070D02*
D03*
X652363D02*
D03*
D26*
X586770Y850760D02*
D03*
Y896760D02*
D03*
X728980Y898170D02*
D03*
Y852170D02*
D03*
D27*
X517770Y873760D02*
D03*
X797980Y875170D02*
D03*
D28*
X618650Y491675D02*
D03*
X623650D02*
D03*
X628650D02*
D03*
X633650D02*
D03*
X638650D02*
D03*
Y463364D02*
D03*
X633650D02*
D03*
X628650D02*
D03*
X623650D02*
D03*
X796610Y497840D02*
D03*
X801610D02*
D03*
X806610D02*
D03*
X811610D02*
D03*
X816610D02*
D03*
Y469529D02*
D03*
X811610D02*
D03*
X806610D02*
D03*
X801610D02*
D03*
D29*
X618650Y463364D02*
D03*
X796610Y469529D02*
D03*
D30*
X655320Y653300D02*
D03*
Y591300D02*
D03*
X852170Y564400D02*
D03*
Y502400D02*
D03*
D31*
X595630Y458470D02*
D03*
Y473470D02*
D03*
D32*
X678235Y457200D02*
D03*
X665425D02*
D03*
X843280Y445770D02*
D03*
X856090D02*
D03*
D33*
X586620Y433070D02*
D03*
X571620D02*
D03*
X732910D02*
D03*
X747910D02*
D03*
D34*
X897230Y407670D02*
D03*
X878230D02*
D03*
D35*
X777120Y468630D02*
D03*
X762120D02*
D03*
D36*
X744540Y546100D02*
D03*
X578170Y541020D02*
D03*
D37*
X810540Y569000D02*
D03*
Y523200D02*
D03*
X644170Y518120D02*
D03*
Y563920D02*
D03*
D38*
X755770Y501650D02*
D03*
X770770D02*
D03*
D39*
X849630Y480710D02*
D03*
Y466710D02*
D03*
D49*
X628650Y477520D02*
D03*
X806610Y483685D02*
D03*
D57*
X626110Y994410D02*
D03*
X676910D02*
D03*
D58*
X351110D02*
D03*
X951910D02*
D03*
D59*
X546170Y1132840D02*
D03*
X761860D02*
D03*
D60*
X396170D02*
D03*
X911860D02*
D03*
D61*
X838200Y355600D02*
D03*
Y368100D02*
D03*
Y380600D02*
D03*
D62*
Y393100D02*
D03*
D71*
X621030Y640298D02*
G03*
X620289Y642091I-2540J0D01*
G01*
X914926Y521444D02*
G03*
X916722Y520700I1796J1796D01*
G01*
X950178D02*
G03*
X951974Y521444I-0J2540D01*
G01*
X911860Y525562D02*
G03*
X912599Y523771I2540J0D01*
G01*
X679361Y610959D02*
G03*
X677570Y611698I-1791J-1801D01*
G01*
X688340Y600928D02*
G03*
X687601Y602719I-2540J0D01*
G01*
X677396Y509945D02*
G03*
X677127Y509650I3014J-3025D01*
G01*
X687591Y520101D02*
G03*
X688340Y521902I-1791J1801D01*
G01*
X676988Y509498D02*
G03*
X677127Y509650I-1805J1787D01*
G01*
X615950Y646430D02*
X620289Y642091D01*
X621030Y600710D02*
Y640298D01*
X912599Y523771D02*
X914926Y521444D01*
X951974D02*
X960120Y529590D01*
X916722Y520700D02*
X950178D01*
X911860Y525562D02*
Y543560D01*
X960120Y529590D02*
Y541020D01*
X688340Y521902D02*
Y600928D01*
X668463Y611698D02*
X677570D01*
X679361Y610959D02*
X687601Y602719D01*
X668020Y612140D02*
X668463Y611698D01*
X670410Y502920D02*
X676988Y509498D01*
X677396Y509945D02*
X687591Y520101D01*
X777120Y468630D02*
X778019Y469529D01*
X796610D01*
X781050Y492760D02*
Y497840D01*
X744220Y478790D02*
X767080D01*
X781050Y492760D01*
X664330Y457200D02*
X665425D01*
X656250Y449120D02*
X664330Y457200D01*
X635460Y449120D02*
X656250D01*
X628650Y455930D02*
X635460Y449120D01*
X655320Y653300D02*
X658610Y656590D01*
X681932Y648226D02*
X681951Y648245D01*
X692053D02*
X692072Y648264D01*
X655320Y653300D02*
X660394Y648226D01*
X588587Y456815D02*
X597785D01*
X902970Y447040D02*
X937260D01*
X843280Y445770D02*
X844825Y444225D01*
X842923Y446128D02*
X843280Y445770D01*
X705800Y898170D02*
X707070Y899440D01*
X705520Y897890D02*
X705800Y898170D01*
X364030Y430530D02*
X365720D01*
X363220D02*
X364030D01*
X580390Y494030D02*
X585470Y499110D01*
X573920Y487560D02*
X580390Y494030D01*
X361618Y873760D02*
X363117D01*
X331888Y844030D02*
X361618Y873760D01*
X331888Y842530D02*
Y844030D01*
X323596Y797306D02*
X331430Y805140D01*
X840740Y524510D02*
X841200Y524970D01*
X847550D01*
X870910Y548330D01*
X916940Y586740D02*
X926944Y596744D01*
Y604364D01*
X890270Y459740D02*
X902970Y447040D01*
X870910Y548330D02*
X884214D01*
X888334Y552450D01*
X889000D01*
X879650Y543100D02*
X880110Y543560D01*
X873300Y543100D02*
X879650D01*
X851535Y521335D02*
X873300Y543100D01*
X785522Y413692D02*
Y419708D01*
X784860Y420370D02*
X785522Y419708D01*
Y413692D02*
X791210Y408004D01*
Y394970D02*
Y408004D01*
X872490Y458470D02*
X873426D01*
X874696Y459740D01*
X890270D01*
X613410Y595630D02*
Y635000D01*
Y595630D02*
X618490Y590550D01*
X338865Y424885D02*
X342720Y421030D01*
X338865Y424885D02*
Y426945D01*
X337820Y427990D02*
X338865Y426945D01*
X331430Y805140D02*
X340280D01*
X341590Y806450D01*
X342720Y421030D02*
X345220D01*
X323596Y355854D02*
X344170Y335280D01*
X327660Y408820D02*
X330280Y406200D01*
X323596Y355854D02*
Y797306D01*
X327660Y434340D02*
X331706Y438386D01*
X330280Y405200D02*
X333010Y402470D01*
X330280Y405200D02*
Y406200D01*
X327660Y408820D02*
Y434340D01*
X692150Y614680D02*
X702310Y624840D01*
X711200D01*
X735330Y501650D02*
X755770D01*
X730250Y496570D02*
X735330Y501650D01*
X730250Y476468D02*
Y496570D01*
Y476468D02*
X731738Y474980D01*
X740410D01*
X744220Y478790D01*
X763270Y483870D02*
X770770Y491370D01*
X736750Y483870D02*
X763270D01*
X770770Y491370D02*
Y501650D01*
X757258Y515620D02*
X789940D01*
X755770Y514132D02*
X757258Y515620D01*
X755770Y501650D02*
Y514132D01*
X830680Y429260D02*
X831950Y427990D01*
X795020Y429260D02*
X830680D01*
X789523Y434757D02*
X795020Y429260D01*
X789523Y434757D02*
Y444500D01*
X811530Y454660D02*
X826770D01*
X835303Y446128D02*
X842923D01*
X826770Y454660D02*
X835303Y446128D01*
X806610Y459580D02*
X811530Y454660D01*
X806610Y459580D02*
Y469529D01*
X789523Y445267D02*
X801610Y457354D01*
Y469529D01*
X848630Y466710D02*
X849630D01*
X840390Y458470D02*
X848630Y466710D01*
X815340Y458470D02*
X840390D01*
X811610Y462200D02*
X815340Y458470D01*
X811610Y462200D02*
Y469529D01*
X747910Y433070D02*
X750390Y435550D01*
X752130D01*
X762853Y446273D01*
Y447040D01*
X776387Y467897D02*
X777120Y468630D01*
X776387Y447040D02*
Y467897D01*
X789940Y515620D02*
X793750Y519430D01*
X586770Y850760D02*
X587580Y851570D01*
X728980Y898170D02*
X730250Y899440D01*
X793750Y519430D02*
Y537210D01*
Y519430D02*
X806610Y506570D01*
X775970Y501650D02*
X784860Y510540D01*
X772160Y501650D02*
X775970D01*
X637540Y454660D02*
X648970D01*
X652780Y458470D01*
Y472440D01*
X655320Y474980D01*
X665480D01*
X623570Y443130D02*
X624320D01*
X634380Y433070D01*
X652363D01*
X344170Y335280D02*
X734060D01*
X333010Y402470D02*
X334010D01*
X734060Y335280D02*
X745490Y346710D01*
Y398780D01*
X728980Y415290D02*
X745490Y398780D01*
X628650Y415290D02*
X728980D01*
X623570Y420370D02*
X628650Y415290D01*
X623570Y420370D02*
Y430630D01*
X711200Y339090D02*
X720090Y347980D01*
X537210Y351790D02*
X549910Y339090D01*
X711200D01*
X585470Y499110D02*
X622162D01*
X565150Y487560D02*
X573920D01*
X623650Y491675D02*
Y497622D01*
X622162Y499110D02*
X623650Y497622D01*
X571810Y475290D02*
X580390Y483870D01*
X590550D02*
X598355Y491675D01*
X580390Y483870D02*
X590550D01*
X598355Y491675D02*
X618650D01*
X623650Y460287D02*
Y463364D01*
X623570Y460207D02*
X623650Y460287D01*
X623570Y443130D02*
Y460207D01*
X633650Y458550D02*
X637540Y454660D01*
X633650Y458550D02*
Y463364D01*
X562193Y442247D02*
Y454660D01*
Y442247D02*
X571370Y433070D01*
X571620D01*
X586432Y454660D02*
X588587Y456815D01*
X575727Y454660D02*
X586432D01*
X597785Y456815D02*
X602480Y452120D01*
X615488D02*
X618650Y455282D01*
X602480Y452120D02*
X615488D01*
X618650Y455282D02*
Y463364D01*
X552450Y476250D02*
Y495300D01*
Y476250D02*
X556140Y472560D01*
X565150D01*
X552450Y495300D02*
X556260Y499110D01*
X571500D01*
X568880Y475290D02*
X571810D01*
X568055Y474465D02*
X568880Y475290D01*
X572385Y499110D02*
X577465Y504190D01*
X571500Y499110D02*
X572385D01*
X577465Y504190D02*
X624840D01*
X365760Y387470D02*
X366760D01*
X374500Y379730D01*
X443230D01*
X334010Y387470D02*
X365760D01*
X654050Y561340D02*
X661670Y553720D01*
X628650Y477520D02*
X631670D01*
X638650Y470540D01*
Y463364D02*
Y470540D01*
X628650Y455930D02*
Y463364D01*
X806610Y483685D02*
X809630D01*
X816610Y476704D01*
Y469529D02*
Y476704D01*
X781050Y497840D02*
X788670Y505460D01*
X795020D01*
X796552Y503928D01*
Y497898D02*
Y503928D01*
Y497898D02*
X796610Y497840D01*
X784860Y510540D02*
X796290D01*
X801610Y505220D01*
Y497840D02*
Y505220D01*
X806610Y497840D02*
Y506570D01*
X811450Y501730D02*
X811530Y501650D01*
Y497920D02*
Y501650D01*
X810540Y523200D02*
X811610Y522130D01*
X811530Y513080D02*
X811610Y513000D01*
X824230Y552450D02*
X825500Y553720D01*
X624840Y504190D02*
X628570Y500460D01*
Y494948D02*
Y500460D01*
X628592Y494811D02*
X628650Y494753D01*
X628592Y494811D02*
Y494926D01*
X628570Y494948D02*
X628592Y494926D01*
X628650Y491675D02*
Y494753D01*
X633650Y496971D02*
X633730Y497051D01*
X633650Y494811D02*
Y496971D01*
X417830Y459740D02*
X524510D01*
X406400Y448310D02*
X417830Y459740D01*
X356000Y448310D02*
X406400D01*
X347720Y440030D02*
X356000Y448310D01*
X524510Y459740D02*
X537210Y447040D01*
Y351790D02*
Y447040D01*
X331706Y438386D02*
X343576D01*
X345220Y440030D01*
X347720D01*
X374330Y439140D02*
X454620D01*
X365720Y430530D02*
X374330Y439140D01*
X364030Y430530D02*
X365760Y428800D01*
Y402470D02*
Y428800D01*
X720090Y347980D02*
Y379730D01*
X676910Y1114953D02*
Y1120760D01*
X988770Y1153530D02*
G03*
X963370Y1178930I-25400J0D01*
G01*
Y328930D02*
G03*
X988770Y354330I0J25400D01*
G01*
X344170Y1178930D02*
G03*
X318770Y1153530I0J-25400D01*
G01*
Y354330D02*
G03*
X344170Y328930I25400J0D01*
G01*
X963370D01*
X344170Y1178930D02*
X963370D01*
X988770Y354330D02*
Y1153530D01*
X318770Y354330D02*
Y1153530D01*
D72*
X658610Y656590D02*
X681990D01*
X692150D01*
X681951Y648245D02*
X692053D01*
X660394Y648226D02*
X681932D01*
D73*
X817880Y495300D02*
Y497840D01*
X640080Y490220D02*
Y494030D01*
X901700Y634159D02*
Y672060D01*
X759018Y357312D02*
X769620Y346710D01*
X892810D01*
X919480Y373380D01*
Y405130D01*
X899160Y627380D02*
X900633Y628853D01*
Y633092D01*
X901700Y634159D01*
X705800Y898170D02*
X728980D01*
X661670Y510094D02*
Y553720D01*
X650956Y499380D02*
X661670Y510094D01*
X825500Y509808D02*
Y553720D01*
X817880Y502188D02*
X825500Y509808D01*
X817880Y499745D02*
Y502188D01*
X640080Y494030D02*
X645430Y499380D01*
X650956D01*
D74*
X609354Y352289D02*
X617991D01*
X581912Y379730D02*
X609354Y352289D01*
X624240Y851650D02*
X625040Y852450D01*
X625790D02*
X629920Y856580D01*
Y881380D01*
X624240Y850900D02*
Y851650D01*
X625040Y852450D02*
X625790D01*
X677037Y903273D02*
X682420Y897890D01*
X675640Y909320D02*
X677037Y907923D01*
X682420Y897890D02*
X694020D01*
X677037Y903273D02*
Y907923D01*
X587580Y851570D02*
X612140D01*
X633730Y503226D02*
Y507680D01*
D75*
X964184Y440944D02*
X982980Y459740D01*
X969760Y846340D02*
X982980Y833120D01*
Y459740D02*
Y833120D01*
X909950Y440944D02*
X964184D01*
X896997Y427990D02*
X909950Y440944D01*
X844450Y427990D02*
X896997D01*
X938020Y874800D02*
X966480Y846340D01*
X969760D01*
D76*
X878535Y388925D02*
X878840Y388620D01*
X878230Y407670D02*
X878535Y407365D01*
Y388925D02*
Y407365D01*
D77*
X811530Y501650D02*
Y513080D01*
D78*
X811610Y513000D02*
Y522130D01*
D79*
X633730Y497051D02*
Y503226D01*
D80*
X638065Y517070D02*
X643120D01*
X633730Y512735D02*
X638065Y517070D01*
X633730Y507680D02*
Y512735D01*
X643120Y517070D02*
X644170Y518120D01*
D81*
X581912Y379730D02*
D03*
X720090D02*
D03*
X443230D02*
D03*
X676910Y1120760D02*
D03*
D82*
X632713Y379730D02*
D03*
X770890D02*
D03*
X494030D02*
D03*
X626110Y1120760D02*
D03*
D83*
X562610Y767080D02*
D03*
X911860Y768350D02*
D03*
D84*
X524510Y767080D02*
D03*
X448310D02*
D03*
X410210D02*
D03*
Y614680D02*
D03*
X448310D02*
D03*
X524510D02*
D03*
X562610D02*
D03*
X911860Y615950D02*
D03*
X873760D02*
D03*
X797560D02*
D03*
X759460D02*
D03*
Y768350D02*
D03*
X797560D02*
D03*
X873760D02*
D03*
D85*
X960000Y358790D02*
D03*
X350000D02*
D03*
Y1150000D02*
D03*
X960000D02*
D03*
D86*
X880110Y674370D02*
D03*
X749300Y673100D02*
D03*
X715010Y671830D02*
D03*
X607060Y673100D02*
D03*
X576580D02*
D03*
X547370D02*
D03*
X504190Y581660D02*
D03*
Y593090D02*
D03*
Y603250D02*
D03*
X557530Y627380D02*
D03*
X576580Y621030D02*
D03*
X581660Y627380D02*
D03*
X571500D02*
D03*
X695960Y528320D02*
D03*
X694690Y544830D02*
D03*
X670496Y404684D02*
D03*
X663814Y404726D02*
D03*
X657389Y404684D02*
D03*
X960120Y541020D02*
D03*
X911860Y543560D02*
D03*
X786876Y493870D02*
D03*
X776716Y478630D02*
D03*
X916940Y586740D02*
D03*
X926944Y604364D02*
D03*
X889000Y552450D02*
D03*
D87*
X934720Y466090D02*
D03*
X923290Y529590D02*
D03*
X419100Y414020D02*
D03*
X389890Y421640D02*
D03*
X788670Y599440D02*
D03*
Y586740D02*
D03*
X801370D02*
D03*
X829310Y613410D02*
D03*
X973813Y397767D02*
D03*
X659130Y374650D02*
D03*
Y383540D02*
D03*
X662940Y431800D02*
D03*
X800100Y359410D02*
D03*
Y370840D02*
D03*
Y382270D02*
D03*
X826770Y415290D02*
D03*
X838200D02*
D03*
X853440Y477520D02*
D03*
Y487680D02*
D03*
Y497840D02*
D03*
X929197Y511157D02*
D03*
X405130Y356870D02*
D03*
X372110Y345440D02*
D03*
X692072Y648264D02*
D03*
X681932Y648226D02*
D03*
X692150Y656590D02*
D03*
X681990D02*
D03*
X693420Y631190D02*
D03*
X604520Y595630D02*
D03*
X709930Y603250D02*
D03*
X575310Y655320D02*
D03*
X561340D02*
D03*
X548640D02*
D03*
X905510Y389890D02*
D03*
Y401320D02*
D03*
X904240Y466572D02*
D03*
Y487680D02*
D03*
X968240Y468630D02*
D03*
Y486410D02*
D03*
X668020Y612140D02*
D03*
X337820Y427990D02*
D03*
X687070Y836930D02*
D03*
X793750Y537210D02*
D03*
X580390Y494030D02*
D03*
X571500Y499110D02*
D03*
D88*
X593090Y880110D02*
D03*
X579120D02*
D03*
X901700Y672060D02*
D03*
X621030Y408940D02*
D03*
X730250Y400050D02*
D03*
X722630Y614680D02*
D03*
X814070Y541020D02*
D03*
X759018Y357312D02*
D03*
X919480Y405130D02*
D03*
X618490Y351790D02*
D03*
X899160Y627380D02*
D03*
X969010Y607060D02*
D03*
Y626110D02*
D03*
X419100Y474980D02*
D03*
X347709Y496299D02*
D03*
X342900Y599440D02*
D03*
X482600Y431800D02*
D03*
Y445770D02*
D03*
X347980Y478790D02*
D03*
X419100Y495300D02*
D03*
X341590Y806450D02*
D03*
X469900Y843280D02*
D03*
Y862330D02*
D03*
X342900Y640080D02*
D03*
Y621030D02*
D03*
X876300Y440690D02*
D03*
X485140Y549910D02*
D03*
X878840Y388620D02*
D03*
X660810Y849819D02*
D03*
X657560Y889970D02*
D03*
X675640Y909320D02*
D03*
X629920Y881380D02*
D03*
X523240Y478790D02*
D03*
Y494030D02*
D03*
Y510540D02*
D03*
X518160Y549910D02*
D03*
X500380D02*
D03*
X468630D02*
D03*
X518160Y445770D02*
D03*
Y431800D02*
D03*
X341630Y929640D02*
D03*
X736600Y830580D02*
D03*
X721360D02*
D03*
X358140Y929640D02*
D03*
X969010Y645160D02*
D03*
D89*
X403860Y585470D02*
D03*
X840740Y524510D02*
D03*
X930910Y631190D02*
D03*
Y622300D02*
D03*
X937260Y448310D02*
D03*
X833120Y524510D02*
D03*
X851535Y521335D02*
D03*
X880110Y543560D02*
D03*
X857250Y547680D02*
D03*
X784860Y420370D02*
D03*
X852170Y608330D02*
D03*
X872490Y458470D02*
D03*
X890270Y459740D02*
D03*
X880462Y587068D02*
D03*
X902970Y508000D02*
D03*
X791210Y394970D02*
D03*
X615950Y646430D02*
D03*
X613410Y635000D02*
D03*
X621030Y600710D02*
D03*
X618490Y590550D02*
D03*
X628650Y547370D02*
D03*
Y560070D02*
D03*
D90*
X711200Y624840D02*
D03*
X692150Y614680D02*
D03*
M02*
