G04*
G04 #@! TF.GenerationSoftware,Altium Limited,Altium Designer,25.2.1 (25)*
G04*
G04 Layer_Color=8388736*
%FSLAX44Y44*%
%MOMM*%
G71*
G04*
G04 #@! TF.SameCoordinates,75E2CF20-C0F6-4739-B50C-0B6B13628365*
G04*
G04*
G04 #@! TF.FilePolarity,Negative*
G04*
G01*
G75*
%ADD23R,6.5000X6.2000*%
%ADD24R,2.4000X1.3000*%
%ADD25R,0.6587X0.8121*%
%ADD26R,2.5000X1.5000*%
%ADD27R,7.0000X7.0000*%
G04:AMPARAMS|DCode=28|XSize=0.881mm|YSize=0.2425mm|CornerRadius=0.1212mm|HoleSize=0mm|Usage=FLASHONLY|Rotation=90.000|XOffset=0mm|YOffset=0mm|HoleType=Round|Shape=RoundedRectangle|*
%AMROUNDEDRECTD28*
21,1,0.8810,0.0000,0,0,90.0*
21,1,0.6385,0.2425,0,0,90.0*
1,1,0.2425,0.0000,0.3193*
1,1,0.2425,0.0000,-0.3193*
1,1,0.2425,0.0000,-0.3193*
1,1,0.2425,0.0000,0.3193*
%
%ADD28ROUNDEDRECTD28*%
%ADD29R,0.2425X0.8810*%
%ADD30R,4.0000X2.1000*%
%ADD31R,0.9000X0.8000*%
%ADD32R,1.1311X0.9121*%
%ADD33R,0.8000X0.7500*%
%ADD35R,0.8000X0.9000*%
%ADD40R,0.9032X1.0532*%
%ADD41R,1.0532X0.9032*%
%ADD42R,0.9032X1.1032*%
%ADD43R,1.2032X1.0032*%
%ADD44R,0.8032X1.0032*%
%ADD45R,1.3032X0.8032*%
%ADD46R,2.7032X4.2032*%
%ADD47R,5.7032X7.0032*%
%ADD48R,1.1532X1.9032*%
%ADD49R,2.4800X1.6500*%
%ADD50R,1.6032X1.7032*%
%ADD51R,7.0032X5.7032*%
%ADD52R,1.9032X1.1532*%
%ADD53R,1.0032X1.2032*%
%ADD54R,1.1032X0.9032*%
%ADD55C,2.6032*%
G04:AMPARAMS|DCode=56|XSize=2.6032mm|YSize=2.6032mm|CornerRadius=0.7016mm|HoleSize=0mm|Usage=FLASHONLY|Rotation=180.000|XOffset=0mm|YOffset=0mm|HoleType=Round|Shape=RoundedRectangle|*
%AMROUNDEDRECTD56*
21,1,2.6032,1.2000,0,0,180.0*
21,1,1.2000,2.6032,0,0,180.0*
1,1,1.4032,-0.6000,0.6000*
1,1,1.4032,0.6000,0.6000*
1,1,1.4032,0.6000,-0.6000*
1,1,1.4032,-0.6000,-0.6000*
%
%ADD56ROUNDEDRECTD56*%
%ADD57C,1.6000*%
%ADD58R,1.6000X1.6000*%
%ADD59C,1.5500*%
%ADD60R,1.5500X1.5500*%
%ADD61C,1.0000*%
%ADD62R,1.0000X1.0000*%
%ADD63R,1.6032X1.6032*%
%ADD64C,1.6032*%
%ADD65C,3.1032*%
%ADD66C,0.7032*%
%ADD67C,1.0032*%
%ADD68C,1.4732*%
%ADD69C,0.8032*%
%ADD70C,0.9032*%
D23*
X363117Y873760D02*
D03*
X938020Y874800D02*
D03*
D24*
X442617Y897660D02*
D03*
Y849860D02*
D03*
X858520Y898700D02*
D03*
Y850900D02*
D03*
D25*
X575727Y454660D02*
D03*
X562193D02*
D03*
X789523Y444500D02*
D03*
X803057D02*
D03*
X762853Y447040D02*
D03*
X776387D02*
D03*
X665897Y433070D02*
D03*
X652363D02*
D03*
D26*
X586770Y850760D02*
D03*
Y896760D02*
D03*
X728980Y898170D02*
D03*
Y852170D02*
D03*
D27*
X517770Y873760D02*
D03*
X797980Y875170D02*
D03*
D28*
X618650Y491675D02*
D03*
X623650D02*
D03*
X628650D02*
D03*
X633650D02*
D03*
X638650D02*
D03*
Y463364D02*
D03*
X633650D02*
D03*
X628650D02*
D03*
X623650D02*
D03*
X796610Y497840D02*
D03*
X801610D02*
D03*
X806610D02*
D03*
X811610D02*
D03*
X816610D02*
D03*
Y469529D02*
D03*
X811610D02*
D03*
X806610D02*
D03*
X801610D02*
D03*
D29*
X618650Y463364D02*
D03*
X796610Y469529D02*
D03*
D30*
X655320Y653300D02*
D03*
Y591300D02*
D03*
X852170Y564400D02*
D03*
Y502400D02*
D03*
D31*
X595630Y458470D02*
D03*
Y473470D02*
D03*
D32*
X678235Y457200D02*
D03*
X665425D02*
D03*
X843280Y445770D02*
D03*
X856090D02*
D03*
D33*
X586620Y433070D02*
D03*
X571620D02*
D03*
X732910D02*
D03*
X747910D02*
D03*
D35*
X777120Y468630D02*
D03*
X762120D02*
D03*
D40*
X612740Y850900D02*
D03*
X624240D02*
D03*
X705520Y897890D02*
D03*
X694020D02*
D03*
X844450Y427990D02*
D03*
X831950D02*
D03*
D41*
X623570Y430630D02*
D03*
Y443130D02*
D03*
D42*
X665480Y474980D02*
D03*
X679480D02*
D03*
D43*
X365760Y387470D02*
D03*
Y402470D02*
D03*
X565150Y487560D02*
D03*
Y472560D02*
D03*
X334010Y402470D02*
D03*
Y387470D02*
D03*
D44*
X683410Y502920D02*
D03*
X670410D02*
D03*
X736750Y483870D02*
D03*
X723750D02*
D03*
D45*
X345220Y440030D02*
D03*
Y421030D02*
D03*
X363220Y430530D02*
D03*
D46*
X930910Y476890D02*
D03*
Y556890D02*
D03*
X381000D02*
D03*
Y476890D02*
D03*
D47*
X477520Y505140D02*
D03*
D48*
X500420Y439140D02*
D03*
X454620D02*
D03*
D49*
X628650Y477520D02*
D03*
X806610Y483685D02*
D03*
D50*
X897230Y407670D02*
D03*
X878230D02*
D03*
D51*
X744540Y546100D02*
D03*
X578170Y541020D02*
D03*
D52*
X810540Y569000D02*
D03*
Y523200D02*
D03*
X644170Y518120D02*
D03*
Y563920D02*
D03*
D53*
X755770Y501650D02*
D03*
X770770D02*
D03*
D54*
X849630Y480710D02*
D03*
Y466710D02*
D03*
D55*
X581912Y379730D02*
D03*
X720090D02*
D03*
X443230D02*
D03*
X676910Y1120760D02*
D03*
D56*
X632713Y379730D02*
D03*
X770890D02*
D03*
X494030D02*
D03*
X626110Y1120760D02*
D03*
D57*
Y994410D02*
D03*
X676910D02*
D03*
D58*
X351110D02*
D03*
X951910D02*
D03*
D59*
X546170Y1132840D02*
D03*
X761860D02*
D03*
D60*
X396170D02*
D03*
X911860D02*
D03*
D61*
X838200Y355600D02*
D03*
Y368100D02*
D03*
Y380600D02*
D03*
D62*
Y393100D02*
D03*
D63*
X562610Y767080D02*
D03*
X911860Y768350D02*
D03*
D64*
X524510Y767080D02*
D03*
X448310D02*
D03*
X410210D02*
D03*
Y614680D02*
D03*
X448310D02*
D03*
X524510D02*
D03*
X562610D02*
D03*
X911860Y615950D02*
D03*
X873760D02*
D03*
X797560D02*
D03*
X759460D02*
D03*
Y768350D02*
D03*
X797560D02*
D03*
X873760D02*
D03*
D65*
X960000Y358790D02*
D03*
X350000D02*
D03*
Y1150000D02*
D03*
X960000D02*
D03*
D66*
X880110Y674370D02*
D03*
X749300Y673100D02*
D03*
X715010Y671830D02*
D03*
X607060Y673100D02*
D03*
X576580D02*
D03*
X547370D02*
D03*
X504190Y581660D02*
D03*
Y593090D02*
D03*
Y603250D02*
D03*
X557530Y627380D02*
D03*
X576580Y621030D02*
D03*
X581660Y627380D02*
D03*
X571500D02*
D03*
X695960Y528320D02*
D03*
X694690Y544830D02*
D03*
X670496Y404684D02*
D03*
X663814Y404726D02*
D03*
X657389Y404684D02*
D03*
X960120Y541020D02*
D03*
X911860Y543560D02*
D03*
X786876Y493870D02*
D03*
X776716Y478630D02*
D03*
X916940Y586740D02*
D03*
X926944Y604364D02*
D03*
X889000Y552450D02*
D03*
D67*
X934720Y466090D02*
D03*
X923290Y529590D02*
D03*
X419100Y414020D02*
D03*
X389890Y421640D02*
D03*
X788670Y599440D02*
D03*
Y586740D02*
D03*
X801370D02*
D03*
X829310Y613410D02*
D03*
X973813Y397767D02*
D03*
X659130Y374650D02*
D03*
Y383540D02*
D03*
X662940Y431800D02*
D03*
X800100Y359410D02*
D03*
Y370840D02*
D03*
Y382270D02*
D03*
X826770Y415290D02*
D03*
X838200D02*
D03*
X853440Y477520D02*
D03*
Y487680D02*
D03*
Y497840D02*
D03*
X929197Y511157D02*
D03*
X405130Y356870D02*
D03*
X372110Y345440D02*
D03*
X692072Y648264D02*
D03*
X681932Y648226D02*
D03*
X692150Y656590D02*
D03*
X681990D02*
D03*
X693420Y631190D02*
D03*
X604520Y595630D02*
D03*
X709930Y603250D02*
D03*
X575310Y655320D02*
D03*
X561340D02*
D03*
X548640D02*
D03*
X905510Y389890D02*
D03*
Y401320D02*
D03*
X904240Y466572D02*
D03*
Y487680D02*
D03*
X968240Y468630D02*
D03*
Y486410D02*
D03*
X668020Y612140D02*
D03*
X337820Y427990D02*
D03*
X687070Y836930D02*
D03*
X793750Y537210D02*
D03*
X580390Y494030D02*
D03*
X571500Y499110D02*
D03*
D68*
X593090Y880110D02*
D03*
X579120D02*
D03*
X901700Y672060D02*
D03*
X621030Y408940D02*
D03*
X730250Y400050D02*
D03*
X722630Y614680D02*
D03*
X814070Y541020D02*
D03*
X759018Y357312D02*
D03*
X919480Y405130D02*
D03*
X618490Y351790D02*
D03*
X899160Y627380D02*
D03*
X969010Y607060D02*
D03*
Y626110D02*
D03*
X419100Y474980D02*
D03*
X347709Y496299D02*
D03*
X342900Y599440D02*
D03*
X482600Y431800D02*
D03*
Y445770D02*
D03*
X347980Y478790D02*
D03*
X419100Y495300D02*
D03*
X341590Y806450D02*
D03*
X469900Y843280D02*
D03*
Y862330D02*
D03*
X342900Y640080D02*
D03*
Y621030D02*
D03*
X876300Y440690D02*
D03*
X485140Y549910D02*
D03*
X878840Y388620D02*
D03*
X660810Y849819D02*
D03*
X657560Y889970D02*
D03*
X675640Y909320D02*
D03*
X629920Y881380D02*
D03*
X523240Y478790D02*
D03*
Y494030D02*
D03*
Y510540D02*
D03*
X518160Y549910D02*
D03*
X500380D02*
D03*
X468630D02*
D03*
X518160Y445770D02*
D03*
Y431800D02*
D03*
X341630Y929640D02*
D03*
X736600Y830580D02*
D03*
X721360D02*
D03*
X358140Y929640D02*
D03*
X969010Y645160D02*
D03*
D69*
X403860Y585470D02*
D03*
X840740Y524510D02*
D03*
X930910Y631190D02*
D03*
Y622300D02*
D03*
X937260Y448310D02*
D03*
X833120Y524510D02*
D03*
X851535Y521335D02*
D03*
X880110Y543560D02*
D03*
X857250Y547680D02*
D03*
X784860Y420370D02*
D03*
X852170Y608330D02*
D03*
X872490Y458470D02*
D03*
X890270Y459740D02*
D03*
X880462Y587068D02*
D03*
X902970Y508000D02*
D03*
X791210Y394970D02*
D03*
X615950Y646430D02*
D03*
X613410Y635000D02*
D03*
X621030Y600710D02*
D03*
X618490Y590550D02*
D03*
X628650Y547370D02*
D03*
Y560070D02*
D03*
D70*
X711200Y624840D02*
D03*
X692150Y614680D02*
D03*
M02*
