G04*
G04 #@! TF.GenerationSoftware,Altium Limited,Altium Designer,25.2.1 (25)*
G04*
G04 Layer_Color=16711935*
%FSLAX44Y44*%
%MOMM*%
G71*
G04*
G04 #@! TF.SameCoordinates,75E2CF20-C0F6-4739-B50C-0B6B13628365*
G04*
G04*
G04 #@! TF.FilePolarity,Negative*
G04*
G01*
G75*
%ADD50R,1.6032X1.7032*%
%ADD55C,2.6032*%
G04:AMPARAMS|DCode=56|XSize=2.6032mm|YSize=2.6032mm|CornerRadius=0.7016mm|HoleSize=0mm|Usage=FLASHONLY|Rotation=180.000|XOffset=0mm|YOffset=0mm|HoleType=Round|Shape=RoundedRectangle|*
%AMROUNDEDRECTD56*
21,1,2.6032,1.2000,0,0,180.0*
21,1,1.2000,2.6032,0,0,180.0*
1,1,1.4032,-0.6000,0.6000*
1,1,1.4032,0.6000,0.6000*
1,1,1.4032,0.6000,-0.6000*
1,1,1.4032,-0.6000,-0.6000*
%
%ADD56ROUNDEDRECTD56*%
%ADD57C,1.6000*%
%ADD58R,1.6000X1.6000*%
%ADD59C,1.5500*%
%ADD60R,1.5500X1.5500*%
%ADD61C,1.0000*%
%ADD62R,1.0000X1.0000*%
%ADD63R,1.6032X1.6032*%
%ADD64C,1.6032*%
%ADD65C,3.1032*%
%ADD66C,0.7032*%
%ADD67C,1.0032*%
%ADD68C,1.4732*%
%ADD69C,0.8032*%
%ADD70C,0.9032*%
%ADD95R,2.2600X1.8300*%
G04:AMPARAMS|DCode=96|XSize=1.2565mm|YSize=0.4358mm|CornerRadius=0.2179mm|HoleSize=0mm|Usage=FLASHONLY|Rotation=90.000|XOffset=0mm|YOffset=0mm|HoleType=Round|Shape=RoundedRectangle|*
%AMROUNDEDRECTD96*
21,1,1.2565,0.0000,0,0,90.0*
21,1,0.8207,0.4358,0,0,90.0*
1,1,0.4358,0.0000,0.4103*
1,1,0.4358,0.0000,-0.4103*
1,1,0.4358,0.0000,-0.4103*
1,1,0.4358,0.0000,0.4103*
%
%ADD96ROUNDEDRECTD96*%
%ADD97R,0.4358X1.2565*%
%ADD98R,0.6000X0.5000*%
%ADD99R,0.3000X1.2000*%
%ADD100R,1.2000X0.3000*%
%ADD101R,0.4000X0.5000*%
%ADD102R,0.5500X0.5000*%
%ADD103R,0.5725X0.6153*%
%ADD104R,0.7400X2.7900*%
%ADD105R,0.6750X0.4500*%
%ADD106R,0.5200X0.5200*%
%ADD107R,1.0043X0.8721*%
G04:AMPARAMS|DCode=108|XSize=1.0043mm|YSize=0.8721mm|CornerRadius=0.4361mm|HoleSize=0mm|Usage=FLASHONLY|Rotation=0.000|XOffset=0mm|YOffset=0mm|HoleType=Round|Shape=RoundedRectangle|*
%AMROUNDEDRECTD108*
21,1,1.0043,0.0000,0,0,0.0*
21,1,0.1322,0.8721,0,0,0.0*
1,1,0.8721,0.0661,0.0000*
1,1,0.8721,-0.0661,0.0000*
1,1,0.8721,-0.0661,0.0000*
1,1,0.8721,0.0661,0.0000*
%
%ADD108ROUNDEDRECTD108*%
G04:AMPARAMS|DCode=109|XSize=1.0043mm|YSize=3.1821mm|CornerRadius=0.4369mm|HoleSize=0mm|Usage=FLASHONLY|Rotation=0.000|XOffset=0mm|YOffset=0mm|HoleType=Round|Shape=RoundedRectangle|*
%AMROUNDEDRECTD109*
21,1,1.0043,2.3084,0,0,0.0*
21,1,0.1306,3.1821,0,0,0.0*
1,1,0.8737,0.0653,-1.1542*
1,1,0.8737,-0.0653,-1.1542*
1,1,0.8737,-0.0653,1.1542*
1,1,0.8737,0.0653,1.1542*
%
%ADD109ROUNDEDRECTD109*%
%ADD115R,0.6153X0.5725*%
%ADD117R,0.4500X0.6750*%
%ADD118R,0.5200X0.5200*%
%ADD122R,1.5032X1.3032*%
%ADD123R,0.7532X0.8032*%
%ADD124R,0.8532X0.9032*%
%ADD125R,0.6532X0.7032*%
%ADD126R,1.0532X1.1032*%
%ADD127R,1.1032X1.2032*%
%ADD128R,0.9232X0.9632*%
%ADD129O,2.3032X0.6532*%
%ADD130R,0.8032X1.1032*%
%ADD131R,0.9632X0.9232*%
%ADD132R,0.7032X0.6532*%
%ADD133R,0.8032X0.7532*%
D50*
X512470Y584200D02*
D03*
X531470D02*
D03*
D55*
X581912Y379730D02*
D03*
X720090D02*
D03*
X443230D02*
D03*
X676910Y1120760D02*
D03*
D56*
X632713Y379730D02*
D03*
X770890D02*
D03*
X494030D02*
D03*
X626110Y1120760D02*
D03*
D57*
Y994410D02*
D03*
X676910D02*
D03*
D58*
X351110D02*
D03*
X951910D02*
D03*
D59*
X546170Y1132840D02*
D03*
X761860D02*
D03*
D60*
X396170D02*
D03*
X911860D02*
D03*
D61*
X838200Y355600D02*
D03*
Y368100D02*
D03*
Y380600D02*
D03*
D62*
Y393100D02*
D03*
D63*
X562610Y767080D02*
D03*
X911860Y768350D02*
D03*
D64*
X524510Y767080D02*
D03*
X448310D02*
D03*
X410210D02*
D03*
Y614680D02*
D03*
X448310D02*
D03*
X524510D02*
D03*
X562610D02*
D03*
X911860Y615950D02*
D03*
X873760D02*
D03*
X797560D02*
D03*
X759460D02*
D03*
Y768350D02*
D03*
X797560D02*
D03*
X873760D02*
D03*
D65*
X960000Y358790D02*
D03*
X350000D02*
D03*
Y1150000D02*
D03*
X960000D02*
D03*
D66*
X880110Y674370D02*
D03*
X749300Y673100D02*
D03*
X715010Y671830D02*
D03*
X607060Y673100D02*
D03*
X576580D02*
D03*
X547370D02*
D03*
X504190Y581660D02*
D03*
Y593090D02*
D03*
Y603250D02*
D03*
X557530Y627380D02*
D03*
X576580Y621030D02*
D03*
X581660Y627380D02*
D03*
X571500D02*
D03*
X695960Y528320D02*
D03*
X694690Y544830D02*
D03*
X670496Y404684D02*
D03*
X663814Y404726D02*
D03*
X657389Y404684D02*
D03*
X960120Y541020D02*
D03*
X911860Y543560D02*
D03*
X786876Y493870D02*
D03*
X776716Y478630D02*
D03*
X916940Y586740D02*
D03*
X926944Y604364D02*
D03*
X889000Y552450D02*
D03*
D67*
X934720Y466090D02*
D03*
X923290Y529590D02*
D03*
X419100Y414020D02*
D03*
X389890Y421640D02*
D03*
X788670Y599440D02*
D03*
Y586740D02*
D03*
X801370D02*
D03*
X829310Y613410D02*
D03*
X973813Y397767D02*
D03*
X659130Y374650D02*
D03*
Y383540D02*
D03*
X662940Y431800D02*
D03*
X800100Y359410D02*
D03*
Y370840D02*
D03*
Y382270D02*
D03*
X826770Y415290D02*
D03*
X838200D02*
D03*
X853440Y477520D02*
D03*
Y487680D02*
D03*
Y497840D02*
D03*
X929197Y511157D02*
D03*
X405130Y356870D02*
D03*
X372110Y345440D02*
D03*
X692072Y648264D02*
D03*
X681932Y648226D02*
D03*
X692150Y656590D02*
D03*
X681990D02*
D03*
X693420Y631190D02*
D03*
X604520Y595630D02*
D03*
X709930Y603250D02*
D03*
X575310Y655320D02*
D03*
X561340D02*
D03*
X548640D02*
D03*
X905510Y389890D02*
D03*
Y401320D02*
D03*
X904240Y466572D02*
D03*
Y487680D02*
D03*
X968240Y468630D02*
D03*
Y486410D02*
D03*
X668020Y612140D02*
D03*
X337820Y427990D02*
D03*
X687070Y836930D02*
D03*
X793750Y537210D02*
D03*
X580390Y494030D02*
D03*
X571500Y499110D02*
D03*
D68*
X593090Y880110D02*
D03*
X579120D02*
D03*
X901700Y672060D02*
D03*
X621030Y408940D02*
D03*
X730250Y400050D02*
D03*
X722630Y614680D02*
D03*
X814070Y541020D02*
D03*
X759018Y357312D02*
D03*
X919480Y405130D02*
D03*
X618490Y351790D02*
D03*
X899160Y627380D02*
D03*
X969010Y607060D02*
D03*
Y626110D02*
D03*
X419100Y474980D02*
D03*
X347709Y496299D02*
D03*
X342900Y599440D02*
D03*
X482600Y431800D02*
D03*
Y445770D02*
D03*
X347980Y478790D02*
D03*
X419100Y495300D02*
D03*
X341590Y806450D02*
D03*
X469900Y843280D02*
D03*
Y862330D02*
D03*
X342900Y640080D02*
D03*
Y621030D02*
D03*
X876300Y440690D02*
D03*
X485140Y549910D02*
D03*
X878840Y388620D02*
D03*
X660810Y849819D02*
D03*
X657560Y889970D02*
D03*
X675640Y909320D02*
D03*
X629920Y881380D02*
D03*
X523240Y478790D02*
D03*
Y494030D02*
D03*
Y510540D02*
D03*
X518160Y549910D02*
D03*
X500380D02*
D03*
X468630D02*
D03*
X518160Y445770D02*
D03*
Y431800D02*
D03*
X341630Y929640D02*
D03*
X736600Y830580D02*
D03*
X721360D02*
D03*
X358140Y929640D02*
D03*
X969010Y645160D02*
D03*
D69*
X403860Y585470D02*
D03*
X840740Y524510D02*
D03*
X930910Y631190D02*
D03*
Y622300D02*
D03*
X937260Y448310D02*
D03*
X833120Y524510D02*
D03*
X851535Y521335D02*
D03*
X880110Y543560D02*
D03*
X857250Y547680D02*
D03*
X784860Y420370D02*
D03*
X852170Y608330D02*
D03*
X872490Y458470D02*
D03*
X890270Y459740D02*
D03*
X880462Y587068D02*
D03*
X902970Y508000D02*
D03*
X791210Y394970D02*
D03*
X615950Y646430D02*
D03*
X613410Y635000D02*
D03*
X621030Y600710D02*
D03*
X618490Y590550D02*
D03*
X628650Y547370D02*
D03*
Y560070D02*
D03*
D70*
X711200Y624840D02*
D03*
X692150Y614680D02*
D03*
D95*
X660810Y849819D02*
D03*
D96*
X670560Y870327D02*
D03*
X664060D02*
D03*
X657560D02*
D03*
X651060D02*
D03*
Y829310D02*
D03*
X657560D02*
D03*
X664060D02*
D03*
D97*
X670560D02*
D03*
D98*
X811530Y381080D02*
D03*
Y391080D02*
D03*
X821690Y381080D02*
D03*
Y391080D02*
D03*
D99*
X747070Y574070D02*
D03*
X742070D02*
D03*
X737070D02*
D03*
X732070D02*
D03*
X727070D02*
D03*
X722070D02*
D03*
X717070D02*
D03*
X712070D02*
D03*
X707070D02*
D03*
X702070D02*
D03*
X697070D02*
D03*
X692070D02*
D03*
X687070D02*
D03*
X682070D02*
D03*
X677070D02*
D03*
X672070D02*
D03*
X667070D02*
D03*
X662070D02*
D03*
X657070D02*
D03*
X652070D02*
D03*
X647070D02*
D03*
X642070D02*
D03*
X637070D02*
D03*
X632070D02*
D03*
X627070D02*
D03*
Y419070D02*
D03*
X632070D02*
D03*
X637070D02*
D03*
X642070D02*
D03*
X647070D02*
D03*
X652070D02*
D03*
X657070D02*
D03*
X662070D02*
D03*
X667070D02*
D03*
X672070D02*
D03*
X677070D02*
D03*
X682070D02*
D03*
X687070D02*
D03*
X692070D02*
D03*
X697070D02*
D03*
X702070D02*
D03*
X707070D02*
D03*
X712070D02*
D03*
X717070D02*
D03*
X722070D02*
D03*
X727070D02*
D03*
X732070D02*
D03*
X737070D02*
D03*
X742070D02*
D03*
X747070D02*
D03*
D100*
X609570Y556570D02*
D03*
Y551570D02*
D03*
Y546570D02*
D03*
Y541570D02*
D03*
Y536570D02*
D03*
Y531570D02*
D03*
Y526570D02*
D03*
Y521570D02*
D03*
Y516570D02*
D03*
Y511570D02*
D03*
Y506570D02*
D03*
Y501570D02*
D03*
Y496570D02*
D03*
Y491570D02*
D03*
Y486570D02*
D03*
Y481570D02*
D03*
Y476570D02*
D03*
Y471570D02*
D03*
Y466570D02*
D03*
Y461570D02*
D03*
Y456570D02*
D03*
Y451570D02*
D03*
Y446570D02*
D03*
Y441570D02*
D03*
Y436570D02*
D03*
X764570D02*
D03*
Y441570D02*
D03*
Y446570D02*
D03*
Y451570D02*
D03*
Y456570D02*
D03*
Y461570D02*
D03*
Y466570D02*
D03*
Y471570D02*
D03*
Y476570D02*
D03*
Y481570D02*
D03*
Y486570D02*
D03*
Y491570D02*
D03*
Y496570D02*
D03*
Y501570D02*
D03*
Y506570D02*
D03*
Y511570D02*
D03*
Y516570D02*
D03*
Y521570D02*
D03*
Y526570D02*
D03*
Y531570D02*
D03*
Y536570D02*
D03*
Y541570D02*
D03*
Y546570D02*
D03*
Y551570D02*
D03*
Y556570D02*
D03*
D101*
X840740Y532130D02*
D03*
X832740D02*
D03*
X881570Y502920D02*
D03*
X873570D02*
D03*
D102*
X637870Y408940D02*
D03*
X647370D02*
D03*
X597840Y546100D02*
D03*
X588340D02*
D03*
D103*
X872490Y581184D02*
D03*
Y589756D02*
D03*
D104*
X435610Y527050D02*
D03*
Y567750D02*
D03*
X422910Y527050D02*
D03*
Y567750D02*
D03*
X410210Y527050D02*
D03*
Y567750D02*
D03*
X397510Y527050D02*
D03*
Y567750D02*
D03*
X384810Y527050D02*
D03*
Y567750D02*
D03*
X372110Y527050D02*
D03*
Y567750D02*
D03*
X359410Y527050D02*
D03*
Y567750D02*
D03*
D105*
X896620Y401965D02*
D03*
Y411215D02*
D03*
D106*
X605980Y563880D02*
D03*
X597980D02*
D03*
X824420Y607060D02*
D03*
X816420D02*
D03*
X844930D02*
D03*
X836930D02*
D03*
X927796Y457490D02*
D03*
X919796D02*
D03*
D107*
X908120Y396200D02*
D03*
D108*
Y419100D02*
D03*
Y442000D02*
D03*
D109*
X974020Y419100D02*
D03*
D115*
X881357Y526357D02*
D03*
X872786D02*
D03*
D117*
X825500Y599440D02*
D03*
X816250D02*
D03*
X845365D02*
D03*
X836115D02*
D03*
X927915Y466090D02*
D03*
X918665D02*
D03*
D118*
X887730Y402590D02*
D03*
Y410590D02*
D03*
X741680Y398970D02*
D03*
Y390970D02*
D03*
X779780Y501840D02*
D03*
Y493840D02*
D03*
D122*
X414020Y416220D02*
D03*
Y437220D02*
D03*
X394970D02*
D03*
Y416220D02*
D03*
D123*
X778510Y460180D02*
D03*
Y451680D02*
D03*
X934720Y604080D02*
D03*
Y612580D02*
D03*
X777240Y530030D02*
D03*
Y521530D02*
D03*
D124*
X942766Y603802D02*
D03*
Y613302D02*
D03*
X938530Y481000D02*
D03*
Y471500D02*
D03*
D125*
X717550Y594420D02*
D03*
Y601920D02*
D03*
X857250Y595630D02*
D03*
Y603130D02*
D03*
Y580390D02*
D03*
Y587890D02*
D03*
X394970Y448370D02*
D03*
Y455870D02*
D03*
X414020Y448370D02*
D03*
Y455870D02*
D03*
X447040Y548520D02*
D03*
Y541020D02*
D03*
D126*
X699920Y872595D02*
D03*
X686920D02*
D03*
D127*
X686270Y858520D02*
D03*
X699770D02*
D03*
D128*
X948690Y555170D02*
D03*
Y564970D02*
D03*
X919480Y494210D02*
D03*
Y504010D02*
D03*
X957580Y564970D02*
D03*
Y555170D02*
D03*
D129*
X898230Y517300D02*
D03*
Y523800D02*
D03*
Y530300D02*
D03*
Y536800D02*
D03*
X940730Y517300D02*
D03*
Y523800D02*
D03*
Y530300D02*
D03*
Y536800D02*
D03*
X888070Y559210D02*
D03*
Y565710D02*
D03*
Y572210D02*
D03*
Y578710D02*
D03*
X930570Y559210D02*
D03*
Y565710D02*
D03*
Y572210D02*
D03*
Y578710D02*
D03*
D130*
X826160Y564580D02*
D03*
X845160D02*
D03*
Y588580D02*
D03*
X835660D02*
D03*
X826160D02*
D03*
D131*
X938350Y488950D02*
D03*
X928550D02*
D03*
D132*
X946210Y506730D02*
D03*
X953710D02*
D03*
X895290Y589280D02*
D03*
X887790D02*
D03*
X845880Y554990D02*
D03*
X853380D02*
D03*
D133*
X950400Y499110D02*
D03*
X941900D02*
D03*
X890710Y510540D02*
D03*
X882210D02*
D03*
X890710Y488950D02*
D03*
X882210D02*
D03*
X905950Y499110D02*
D03*
X897450D02*
D03*
X908440Y595630D02*
D03*
X916940D02*
D03*
X881380Y551180D02*
D03*
X872880D02*
D03*
X933890Y595630D02*
D03*
X925390D02*
D03*
M02*
