G04*
G04 #@! TF.GenerationSoftware,Altium Limited,Altium Designer,25.2.1 (25)*
G04*
G04 Layer_Physical_Order=4*
G04 Layer_Color=16711680*
%FSLAX44Y44*%
%MOMM*%
G71*
G04*
G04 #@! TF.SameCoordinates,75E2CF20-C0F6-4739-B50C-0B6B13628365*
G04*
G04*
G04 #@! TF.FilePolarity,Positive*
G04*
G01*
G75*
%ADD34R,1.4000X1.5000*%
%ADD57C,1.6000*%
%ADD58R,1.6000X1.6000*%
%ADD59C,1.5500*%
%ADD60R,1.5500X1.5500*%
%ADD61C,1.0000*%
%ADD62R,1.0000X1.0000*%
%ADD71C,0.2540*%
%ADD73C,0.5000*%
%ADD74C,0.5400*%
%ADD76C,1.0000*%
%ADD77C,0.4000*%
%ADD81C,2.4000*%
G04:AMPARAMS|DCode=82|XSize=2.4mm|YSize=2.4mm|CornerRadius=0.6mm|HoleSize=0mm|Usage=FLASHONLY|Rotation=180.000|XOffset=0mm|YOffset=0mm|HoleType=Round|Shape=RoundedRectangle|*
%AMROUNDEDRECTD82*
21,1,2.4000,1.2000,0,0,180.0*
21,1,1.2000,2.4000,0,0,180.0*
1,1,1.2000,-0.6000,0.6000*
1,1,1.2000,0.6000,0.6000*
1,1,1.2000,0.6000,-0.6000*
1,1,1.2000,-0.6000,-0.6000*
%
%ADD82ROUNDEDRECTD82*%
%ADD83R,1.4000X1.4000*%
%ADD84C,1.4000*%
%ADD85C,2.9000*%
%ADD86C,0.5000*%
%ADD87C,0.8000*%
%ADD88C,1.2700*%
%ADD89C,0.6000*%
%ADD90C,0.7000*%
%ADD91R,1.3000X1.1000*%
%ADD92R,0.5500X0.6000*%
%ADD93R,0.6500X0.7000*%
%ADD94R,0.4500X0.5000*%
%ADD95R,2.2600X1.8300*%
G04:AMPARAMS|DCode=96|XSize=1.2565mm|YSize=0.4358mm|CornerRadius=0.2179mm|HoleSize=0mm|Usage=FLASHONLY|Rotation=90.000|XOffset=0mm|YOffset=0mm|HoleType=Round|Shape=RoundedRectangle|*
%AMROUNDEDRECTD96*
21,1,1.2565,0.0000,0,0,90.0*
21,1,0.8207,0.4358,0,0,90.0*
1,1,0.4358,0.0000,0.4103*
1,1,0.4358,0.0000,-0.4103*
1,1,0.4358,0.0000,-0.4103*
1,1,0.4358,0.0000,0.4103*
%
%ADD96ROUNDEDRECTD96*%
%ADD97R,0.4358X1.2565*%
%ADD98R,0.6000X0.5000*%
%ADD99R,0.3000X1.2000*%
%ADD100R,1.2000X0.3000*%
%ADD101R,0.4000X0.5000*%
%ADD102R,0.5500X0.5000*%
%ADD103R,0.5725X0.6153*%
%ADD104R,0.7400X2.7900*%
%ADD105R,0.6750X0.4500*%
%ADD106R,0.5200X0.5200*%
%ADD107R,1.0043X0.8721*%
G04:AMPARAMS|DCode=108|XSize=1.0043mm|YSize=0.8721mm|CornerRadius=0.4361mm|HoleSize=0mm|Usage=FLASHONLY|Rotation=0.000|XOffset=0mm|YOffset=0mm|HoleType=Round|Shape=RoundedRectangle|*
%AMROUNDEDRECTD108*
21,1,1.0043,0.0000,0,0,0.0*
21,1,0.1322,0.8721,0,0,0.0*
1,1,0.8721,0.0661,0.0000*
1,1,0.8721,-0.0661,0.0000*
1,1,0.8721,-0.0661,0.0000*
1,1,0.8721,0.0661,0.0000*
%
%ADD108ROUNDEDRECTD108*%
G04:AMPARAMS|DCode=109|XSize=1.0043mm|YSize=3.1821mm|CornerRadius=0.4369mm|HoleSize=0mm|Usage=FLASHONLY|Rotation=0.000|XOffset=0mm|YOffset=0mm|HoleType=Round|Shape=RoundedRectangle|*
%AMROUNDEDRECTD109*
21,1,1.0043,2.3084,0,0,0.0*
21,1,0.1306,3.1821,0,0,0.0*
1,1,0.8737,0.0653,-1.1542*
1,1,0.8737,-0.0653,-1.1542*
1,1,0.8737,-0.0653,1.1542*
1,1,0.8737,0.0653,1.1542*
%
%ADD109ROUNDEDRECTD109*%
%ADD110R,0.8500X0.9000*%
%ADD111R,0.9000X1.0000*%
%ADD112R,0.7200X0.7600*%
%ADD113O,2.1000X0.4500*%
%ADD114R,0.6000X0.9000*%
%ADD115R,0.6153X0.5725*%
%ADD116R,0.7600X0.7200*%
%ADD117R,0.4500X0.6750*%
%ADD118R,0.5200X0.5200*%
%ADD119R,0.5000X0.4500*%
%ADD120R,0.6000X0.5500*%
%ADD121C,0.3500*%
G36*
X328132Y676971D02*
X325470Y674310D01*
X323124Y675282D01*
Y679318D01*
X327160D01*
X328132Y676971D01*
D02*
G37*
G36*
X984416Y663863D02*
X982070Y662891D01*
X969165Y675795D01*
X967695Y676778D01*
X967740Y678189D01*
X968117Y679318D01*
X984416D01*
Y663863D01*
D02*
G37*
G36*
X972589Y656510D02*
X971274Y654233D01*
X970241Y654510D01*
X967779D01*
X965401Y653873D01*
X963269Y652642D01*
X961528Y650901D01*
X960297Y648769D01*
X959660Y646391D01*
Y643929D01*
X960297Y641551D01*
X961528Y639419D01*
X959653Y637814D01*
X933785Y663682D01*
X934837Y666222D01*
X962877D01*
X972589Y656510D01*
D02*
G37*
G36*
X606996Y639536D02*
X606861Y639354D01*
X524719D01*
X523391Y641894D01*
X523518Y642076D01*
X605715D01*
X606996Y639536D01*
D02*
G37*
G36*
X977704Y638682D02*
X978642Y638111D01*
Y633159D01*
X977704Y632588D01*
X976102Y632241D01*
X974751Y633592D01*
X973666Y634218D01*
Y637052D01*
X974751Y637678D01*
X976102Y639029D01*
X977704Y638682D01*
D02*
G37*
G36*
X737519Y638266D02*
X728447Y629194D01*
X716039D01*
X715191Y630041D01*
X713709Y630897D01*
X712056Y631340D01*
X710939D01*
X709998Y632856D01*
X709787Y633780D01*
X716813Y640806D01*
X736467D01*
X737519Y638266D01*
D02*
G37*
G36*
X934972Y629861D02*
X933533Y627708D01*
X932104Y628300D01*
X929716D01*
X927511Y627387D01*
X925823Y625699D01*
X924910Y623493D01*
Y621106D01*
X925823Y618901D01*
X927511Y617213D01*
X928970Y616609D01*
Y610487D01*
X928038Y609864D01*
X925850D01*
X923829Y609027D01*
X922357Y609653D01*
X921179Y612090D01*
X921860Y614633D01*
Y617267D01*
X921179Y619810D01*
X919862Y622090D01*
X918000Y623952D01*
X915720Y625269D01*
X913176Y625950D01*
X910903D01*
X910512Y625983D01*
X908510Y628035D01*
Y628611D01*
X907965Y630646D01*
X908522Y631846D01*
X909537Y633186D01*
X931647D01*
X934972Y629861D01*
D02*
G37*
G36*
X933099Y652054D02*
X932047Y649514D01*
X715010D01*
X713344Y649182D01*
X711932Y648239D01*
X697962Y634268D01*
X697018Y632856D01*
X696686Y631190D01*
Y622499D01*
X695716Y621656D01*
X694146Y620874D01*
X693006Y621180D01*
X691294D01*
X689641Y620737D01*
X688159Y619881D01*
X686949Y618671D01*
X684532Y619565D01*
X676179Y627919D01*
X674766Y628862D01*
X673100Y629194D01*
X619681D01*
X618497Y631601D01*
X619410Y633806D01*
Y636194D01*
X618497Y638399D01*
X619204Y641283D01*
X619349Y641343D01*
X621037Y643031D01*
X621950Y645237D01*
Y647624D01*
X621037Y649829D01*
X619349Y651517D01*
X617144Y652430D01*
X614757D01*
X612551Y651517D01*
X611818Y650784D01*
X520833D01*
X519781Y653324D01*
X525043Y658586D01*
X926567D01*
X933099Y652054D01*
D02*
G37*
G36*
X889798Y631846D02*
X890355Y630646D01*
X890050Y629507D01*
X887191Y626648D01*
X886248Y625236D01*
X885916Y623570D01*
Y619033D01*
X883376Y618698D01*
X883079Y619810D01*
X881762Y622090D01*
X879900Y623952D01*
X877620Y625269D01*
X875077Y625950D01*
X872443D01*
X869900Y625269D01*
X867620Y623952D01*
X865758Y622090D01*
X864442Y619810D01*
X864435Y619784D01*
X861602Y619025D01*
X857788Y622839D01*
X856376Y623782D01*
X854710Y624114D01*
X814070D01*
X812404Y623782D01*
X810992Y622839D01*
X809096Y620943D01*
X805961Y621400D01*
X805562Y622090D01*
X803700Y623952D01*
X801420Y625269D01*
X798876Y625950D01*
X796244D01*
X793700Y625269D01*
X791420Y623952D01*
X789558Y622090D01*
X788242Y619810D01*
X787560Y617267D01*
Y614633D01*
X788242Y612090D01*
X789558Y609810D01*
X791420Y607948D01*
X793700Y606632D01*
X796244Y605950D01*
X798876D01*
X800826Y606473D01*
X803366Y605167D01*
Y593090D01*
X803698Y591424D01*
X804641Y590011D01*
X809152Y585502D01*
X810564Y584558D01*
X812230Y584226D01*
X820160D01*
Y581080D01*
X832160D01*
Y596080D01*
X830750D01*
Y605815D01*
X830020D01*
Y612660D01*
X818820D01*
Y601460D01*
X820250D01*
Y596080D01*
X820160D01*
Y592934D01*
X814033D01*
X812074Y594893D01*
Y611607D01*
X815873Y615406D01*
X844500D01*
X845780Y612866D01*
X845628Y612660D01*
X839330D01*
Y601460D01*
X840115D01*
Y596080D01*
X839160D01*
Y581080D01*
X851160D01*
Y581080D01*
X852000Y582390D01*
X857976D01*
Y565743D01*
X853700Y561467D01*
X851160Y562519D01*
Y572080D01*
X839160D01*
Y557080D01*
X840380D01*
Y549740D01*
X848562D01*
X850512Y547200D01*
X850363Y546644D01*
X829169D01*
X828197Y548990D01*
X829239Y550032D01*
X830182Y551444D01*
X830514Y553110D01*
Y557080D01*
X832160D01*
Y572080D01*
X820160D01*
Y557080D01*
X820905D01*
X821433Y554540D01*
X816848Y549955D01*
X815301Y550370D01*
X812839D01*
X810461Y549733D01*
X808329Y548502D01*
X806588Y546761D01*
X805357Y544629D01*
X804960Y543147D01*
X802533Y540720D01*
X799490Y541269D01*
X799351Y541508D01*
X798048Y542811D01*
X796452Y543733D01*
X794672Y544210D01*
X792828D01*
X791048Y543733D01*
X789452Y542811D01*
X788149Y541508D01*
X787227Y539912D01*
X786750Y538132D01*
Y536288D01*
X787227Y534508D01*
X788149Y532912D01*
X789452Y531609D01*
X789691Y531470D01*
X790240Y528427D01*
X785309Y523496D01*
X782990Y524769D01*
Y536030D01*
X773570D01*
Y542070D01*
Y552070D01*
Y561070D01*
X755570D01*
Y552070D01*
Y542070D01*
Y532070D01*
Y522070D01*
Y512070D01*
X753505Y510924D01*
X753328D01*
X751662Y510592D01*
X750249Y509649D01*
X748762Y508161D01*
X747818Y506748D01*
X747486Y505082D01*
Y458058D01*
X747446Y457996D01*
X746949Y457362D01*
X745272Y456173D01*
X744064Y456413D01*
X742210Y456044D01*
X740639Y454995D01*
X731433Y445788D01*
X632460D01*
X630509Y445400D01*
X628855Y444295D01*
X620742Y436182D01*
X618570Y437602D01*
Y442070D01*
Y452070D01*
Y462070D01*
Y472070D01*
Y482070D01*
Y492070D01*
Y502070D01*
Y512070D01*
Y522070D01*
Y532070D01*
Y542070D01*
Y551070D01*
X620635Y552216D01*
X624214D01*
X625880Y552548D01*
X627292Y553492D01*
X627871Y554070D01*
X629843D01*
X632049Y554983D01*
X633737Y556671D01*
X634650Y558876D01*
Y561264D01*
X634125Y562530D01*
X635454Y565070D01*
X741570D01*
Y565070D01*
X742570D01*
Y565070D01*
X751570D01*
Y583070D01*
X751424D01*
Y596590D01*
X751092Y598256D01*
X750148Y599669D01*
X733328Y616488D01*
X731916Y617432D01*
X731715Y619929D01*
X731916Y620818D01*
X732364Y621117D01*
X733328Y621762D01*
X744753Y633186D01*
X888783D01*
X889798Y631846D01*
D02*
G37*
G36*
X977704Y619632D02*
X978642Y619061D01*
Y614109D01*
X977704Y613538D01*
X976102Y613191D01*
X974751Y614542D01*
X973666Y615168D01*
Y618002D01*
X974751Y618628D01*
X976102Y619979D01*
X977704Y619632D01*
D02*
G37*
G36*
X590293Y628106D02*
X590011Y627919D01*
X575033Y612940D01*
X574618Y613012D01*
X572610Y614109D01*
Y615997D01*
X571928Y618540D01*
X570612Y620820D01*
X568750Y622682D01*
X566470Y623998D01*
X563927Y624680D01*
X561293D01*
X558750Y623998D01*
X556470Y622682D01*
X554608Y620820D01*
X553292Y618540D01*
X552610Y615997D01*
Y613363D01*
X553292Y610820D01*
X553776Y609982D01*
Y609637D01*
X538908Y594769D01*
X533470D01*
X532946Y594700D01*
X521470D01*
Y575854D01*
X503453D01*
X500924Y578383D01*
Y607797D01*
X513067Y619940D01*
X515191Y618540D01*
X514510Y615997D01*
Y613363D01*
X515191Y610820D01*
X516508Y608540D01*
X518370Y606678D01*
X520650Y605362D01*
X523194Y604680D01*
X525826D01*
X528370Y605362D01*
X530650Y606678D01*
X532512Y608540D01*
X533829Y610820D01*
X534510Y613363D01*
Y615997D01*
X533829Y618540D01*
X532512Y620820D01*
X530650Y622682D01*
X528370Y623998D01*
X525826Y624680D01*
X523194D01*
X520650Y623998D01*
X519250Y626123D01*
X523773Y630646D01*
X589522D01*
X590293Y628106D01*
D02*
G37*
G36*
X945606Y619227D02*
Y610302D01*
X940470D01*
Y618580D01*
X939056D01*
X938742Y620156D01*
X937798Y621568D01*
X936910Y622457D01*
Y623493D01*
X936318Y624923D01*
X938471Y626362D01*
X945606Y619227D01*
D02*
G37*
G36*
X897929Y618030D02*
X899435D01*
X900640Y617650D01*
X901860Y615794D01*
Y614633D01*
X902542Y612090D01*
X902932Y611414D01*
X901466Y608874D01*
X897153D01*
X894624Y611403D01*
Y616421D01*
X897164Y618235D01*
X897929Y618030D01*
D02*
G37*
G36*
X885916Y612867D02*
Y609600D01*
X886248Y607934D01*
X887191Y606521D01*
X891189Y602524D01*
X890137Y599984D01*
X878364D01*
X876698Y599652D01*
X875286Y598708D01*
X872410Y595832D01*
X866684D01*
Y605556D01*
X869224Y607022D01*
X869900Y606632D01*
X872443Y605950D01*
X875077D01*
X877620Y606632D01*
X879900Y607948D01*
X881762Y609810D01*
X883079Y612090D01*
X883376Y613202D01*
X885916Y612867D01*
D02*
G37*
G36*
X355582Y678180D02*
Y605372D01*
X353726Y603711D01*
X350904Y604276D01*
X350382Y605181D01*
X348641Y606922D01*
X346509Y608153D01*
X344131Y608790D01*
X341669D01*
X339291Y608153D01*
X337159Y606922D01*
X335418Y605181D01*
X334187Y603049D01*
X333550Y600671D01*
Y598209D01*
X334187Y595831D01*
X335418Y593699D01*
X337159Y591958D01*
X338064Y591436D01*
X338663Y588443D01*
X332758Y582537D01*
X330218Y583590D01*
Y664638D01*
X344897Y679318D01*
X354648D01*
X355582Y678180D01*
D02*
G37*
G36*
X893627Y676778D02*
X892987Y675669D01*
X892350Y673291D01*
Y670829D01*
X892617Y669834D01*
X890917Y667294D01*
X523240D01*
X521574Y666962D01*
X520162Y666019D01*
X455392Y601249D01*
X454448Y599836D01*
X454116Y598170D01*
Y595489D01*
X451770Y594517D01*
X445038Y601249D01*
X443626Y602192D01*
X441960Y602524D01*
X413293D01*
X412958Y605064D01*
X414070Y605362D01*
X416350Y606678D01*
X418212Y608540D01*
X419529Y610820D01*
X420210Y613363D01*
Y615997D01*
X419529Y618540D01*
X418212Y620820D01*
X416350Y622682D01*
X414070Y623998D01*
X411526Y624680D01*
X408894D01*
X406350Y623998D01*
X404070Y622682D01*
X402208Y620820D01*
X400891Y618540D01*
X400210Y615997D01*
Y613363D01*
X400891Y610820D01*
X402208Y608540D01*
X404070Y606678D01*
X406350Y605362D01*
X407462Y605064D01*
X407127Y602524D01*
X366374D01*
X365778Y603250D01*
Y676068D01*
X369027Y679318D01*
X892340D01*
X893627Y676778D01*
D02*
G37*
G36*
X977704Y600582D02*
X978642Y600011D01*
Y589123D01*
X976296Y588151D01*
X969277Y595170D01*
X970241Y597710D01*
X972619Y598347D01*
X974751Y599578D01*
X976102Y600929D01*
X977704Y600582D01*
D02*
G37*
G36*
X429815Y586973D02*
X428830Y584700D01*
X411145D01*
X410507Y586502D01*
X412056Y588736D01*
X428401D01*
X429815Y586973D01*
D02*
G37*
G36*
X374343Y586390D02*
X372653Y584700D01*
X365682D01*
X364710Y587047D01*
X366400Y588736D01*
X373371D01*
X374343Y586390D01*
D02*
G37*
G36*
X708691Y618783D02*
X710344Y618340D01*
X711301D01*
X712874Y616853D01*
X713317Y616048D01*
X713280Y615911D01*
Y613449D01*
X713917Y611071D01*
X715148Y608939D01*
X716889Y607198D01*
X719021Y605967D01*
X721399Y605330D01*
X723861D01*
X726239Y605967D01*
X728371Y607198D01*
X729338Y608165D01*
X742716Y594787D01*
Y585135D01*
X741570Y583070D01*
X721654D01*
Y588920D01*
X722800D01*
Y599920D01*
X712300D01*
Y597656D01*
X709953Y596684D01*
X705394Y601243D01*
Y617862D01*
X705910Y618367D01*
X707934Y619220D01*
X708691Y618783D01*
D02*
G37*
G36*
X700016Y585417D02*
X699044Y583070D01*
X682663D01*
X681937Y585610D01*
X686339Y590011D01*
X687282Y591424D01*
X687614Y593090D01*
Y594227D01*
X690154Y595279D01*
X700016Y585417D01*
D02*
G37*
G36*
X663722Y606539D02*
X665318Y605617D01*
X667098Y605140D01*
X668942D01*
X670016Y605428D01*
X671890Y604424D01*
X672556Y603743D01*
Y596163D01*
X668752Y592359D01*
X667808Y590946D01*
X667476Y589280D01*
Y584045D01*
X665080Y583070D01*
X636424D01*
Y597290D01*
X636092Y598956D01*
X635149Y600368D01*
X631729Y603788D01*
X630316Y604732D01*
X628650Y605064D01*
X627579D01*
X627444Y605246D01*
X628725Y607786D01*
X662474D01*
X663722Y606539D01*
D02*
G37*
G36*
X492216Y606851D02*
Y576580D01*
X492548Y574914D01*
X493492Y573502D01*
X493873Y573120D01*
X492901Y570774D01*
X489494D01*
Y608052D01*
X489676Y608179D01*
X492216Y606851D01*
D02*
G37*
G36*
X601823Y611790D02*
X577312Y587279D01*
X576368Y585866D01*
X576036Y584200D01*
Y507507D01*
X575370Y506826D01*
X573496Y505822D01*
X572422Y506110D01*
X570578D01*
X568798Y505633D01*
X567202Y504711D01*
X565899Y503408D01*
X564977Y501812D01*
X564500Y500032D01*
Y498188D01*
X564977Y496408D01*
X565899Y494812D01*
X567202Y493509D01*
X568798Y492587D01*
X570578Y492110D01*
X572422D01*
X573575Y492419D01*
X573867Y491328D01*
X574789Y489732D01*
X576092Y488429D01*
X577688Y487507D01*
X579468Y487030D01*
X581312D01*
X583092Y487507D01*
X584688Y488429D01*
X585991Y489732D01*
X586913Y491328D01*
X587390Y493108D01*
Y494952D01*
X586913Y496732D01*
X585991Y498328D01*
X584744Y499576D01*
Y582397D01*
X610133Y607786D01*
X616302D01*
X616303Y607785D01*
X617081Y605246D01*
X615943Y604109D01*
X615030Y601903D01*
Y599516D01*
X615439Y598530D01*
X615091Y595636D01*
X613403Y593949D01*
X612490Y591744D01*
Y589356D01*
X613403Y587151D01*
X615091Y585463D01*
X617296Y584550D01*
X619683D01*
X620176Y584754D01*
X622594Y583151D01*
X622570Y583070D01*
X622570D01*
X622570Y583070D01*
Y565070D01*
X622570D01*
X623012Y563215D01*
X621440Y560924D01*
X618570D01*
Y561070D01*
X611580D01*
Y569480D01*
X600380D01*
Y558280D01*
X600570D01*
Y552070D01*
X598225Y551600D01*
X592090D01*
Y540600D01*
X600570D01*
Y527070D01*
Y517070D01*
Y507070D01*
Y497070D01*
Y487070D01*
Y477070D01*
Y467070D01*
Y455924D01*
X558250D01*
X556584Y455592D01*
X555172Y454649D01*
X552800Y452277D01*
X550454Y453249D01*
Y568427D01*
X596163Y614136D01*
X600851D01*
X601823Y611790D01*
D02*
G37*
G36*
X480786Y610737D02*
Y567908D01*
X481118Y566242D01*
X482062Y564829D01*
X483549Y563341D01*
X484962Y562398D01*
X486628Y562066D01*
X521069D01*
X522752Y560169D01*
X520489Y558966D01*
X519391Y559260D01*
X516929D01*
X514551Y558623D01*
X512419Y557392D01*
X510752Y555725D01*
X510672Y555651D01*
X507868D01*
X507788Y555725D01*
X506121Y557392D01*
X503989Y558623D01*
X501611Y559260D01*
X499149D01*
X496771Y558623D01*
X494639Y557392D01*
X494452Y557205D01*
X492760Y555768D01*
X491068Y557205D01*
X490881Y557392D01*
X488749Y558623D01*
X486371Y559260D01*
X483909D01*
X481531Y558623D01*
X479399Y557392D01*
X478537Y556530D01*
X476885Y555931D01*
X475233Y556530D01*
X474371Y557392D01*
X472239Y558623D01*
X469861Y559260D01*
X467399D01*
X465364Y558715D01*
X464164Y559272D01*
X462824Y560287D01*
Y596367D01*
X478246Y611789D01*
X480786Y610737D01*
D02*
G37*
G36*
X874676Y571163D02*
X874875Y570162D01*
X875677Y568960D01*
X874875Y567758D01*
X874467Y565710D01*
X874875Y563662D01*
X875677Y562460D01*
X874875Y561258D01*
X874503Y559391D01*
X872278Y558408D01*
X870494Y559849D01*
Y571712D01*
X872671Y572663D01*
X874676Y571163D01*
D02*
G37*
G36*
X449036Y584937D02*
Y554020D01*
X446480D01*
X446060Y554104D01*
X445377D01*
X444572Y554264D01*
X442310D01*
Y584700D01*
X439964D01*
Y588010D01*
X439632Y589676D01*
X440884Y592374D01*
X441480Y592493D01*
X449036Y584937D01*
D02*
G37*
G36*
X398773Y582071D02*
X400461Y580383D01*
X402667Y579470D01*
X403510D01*
Y550800D01*
X418675D01*
X418888Y549732D01*
X419832Y548319D01*
X421319Y546832D01*
X421756Y546540D01*
X420985Y544000D01*
X352710D01*
Y521743D01*
X350170Y520385D01*
X349794Y520637D01*
Y570186D01*
X350170Y570438D01*
X352710Y569080D01*
Y550800D01*
X378810D01*
Y578543D01*
X383923Y583656D01*
X398117D01*
X398773Y582071D01*
D02*
G37*
G36*
X920272Y560765D02*
X922320Y560357D01*
X938820D01*
X939550Y560502D01*
X942090Y559119D01*
Y548370D01*
X950980D01*
Y548370D01*
X953226D01*
Y546844D01*
X953558Y545178D01*
X954136Y544313D01*
X953774Y542732D01*
X952591Y542088D01*
X951028Y541745D01*
X948980Y542153D01*
X932480D01*
X930432Y541745D01*
X928695Y540585D01*
X927535Y538848D01*
X927127Y536800D01*
X927535Y534752D01*
X928337Y533550D01*
X927535Y532348D01*
X927127Y530300D01*
X925994Y527822D01*
X924582Y526879D01*
X921264Y523561D01*
X920320Y522148D01*
X919988Y520482D01*
Y520181D01*
X916402Y516594D01*
X915458Y515182D01*
X915126Y513516D01*
Y510810D01*
X912880D01*
Y509908D01*
X911317Y509140D01*
X910067Y509459D01*
X908679Y510325D01*
X908561Y511918D01*
X909826Y513222D01*
X910265Y513515D01*
X911425Y515252D01*
X911833Y517300D01*
X911425Y519348D01*
X910622Y520550D01*
X911425Y521752D01*
X911833Y523800D01*
X911425Y525848D01*
X910622Y527050D01*
X911425Y528251D01*
X911833Y530300D01*
X911425Y532348D01*
X910622Y533550D01*
X911425Y534752D01*
X911833Y536800D01*
X912867Y538060D01*
X912954D01*
X914976Y538897D01*
X916523Y540444D01*
X917360Y542466D01*
Y544654D01*
X916674Y546311D01*
Y553260D01*
X916342Y554926D01*
X915398Y556339D01*
X915002Y556735D01*
X915018Y559303D01*
X917158Y561356D01*
X919386D01*
X920272Y560765D01*
D02*
G37*
G36*
X866880Y551023D02*
Y545430D01*
X873658D01*
X874110Y544753D01*
Y542367D01*
X873299Y541154D01*
X867083D01*
X862868Y545368D01*
X862805Y545411D01*
X863250Y546487D01*
Y548873D01*
X862337Y551079D01*
X860832Y552583D01*
X860818Y552652D01*
X861215Y553167D01*
X864498Y553405D01*
X866880Y551023D01*
D02*
G37*
G36*
X510752Y544095D02*
X512419Y542428D01*
X514551Y541197D01*
X516929Y540560D01*
X519391D01*
X521769Y541197D01*
X522696Y541733D01*
X525236Y540314D01*
Y535203D01*
X513684Y523651D01*
X512684Y523452D01*
X511272Y522509D01*
X507462Y518699D01*
X506518Y517286D01*
X506186Y515620D01*
Y478053D01*
X498577Y470444D01*
X405663D01*
X387894Y488213D01*
Y510100D01*
X418556D01*
Y505460D01*
X418888Y503794D01*
X419832Y502382D01*
X426181Y496031D01*
X427594Y495088D01*
X429260Y494756D01*
X446162D01*
X447258Y494538D01*
X448924Y494870D01*
X450336Y495814D01*
X450336Y495814D01*
X461549Y507026D01*
X462492Y508438D01*
X462824Y510104D01*
Y539533D01*
X464164Y540548D01*
X465364Y541105D01*
X467399Y540560D01*
X469861D01*
X472239Y541197D01*
X474371Y542428D01*
X475233Y543290D01*
X476885Y543889D01*
X478537Y543290D01*
X479399Y542428D01*
X481531Y541197D01*
X483909Y540560D01*
X486371D01*
X488749Y541197D01*
X490881Y542428D01*
X491068Y542615D01*
X492760Y544052D01*
X494452Y542615D01*
X494639Y542428D01*
X496771Y541197D01*
X499149Y540560D01*
X501611D01*
X503989Y541197D01*
X506121Y542428D01*
X507788Y544095D01*
X507868Y544169D01*
X510672D01*
X510752Y544095D01*
D02*
G37*
G36*
X827740Y537630D02*
Y527200D01*
X827120Y525704D01*
Y523316D01*
X828033Y521111D01*
X829721Y519423D01*
X831926Y518510D01*
X834314D01*
X836519Y519423D01*
X836930Y519835D01*
X837341Y519423D01*
X839133Y518681D01*
X839804Y517106D01*
X840013Y515970D01*
X795751Y471708D01*
X794808Y470296D01*
X794476Y468630D01*
Y425983D01*
X792421Y423928D01*
X789308Y424407D01*
X789214Y424502D01*
Y483870D01*
X788882Y485536D01*
X787939Y486949D01*
X783338Y491549D01*
X781926Y492492D01*
X780260Y492824D01*
X779346D01*
X778724Y493700D01*
X780036Y496240D01*
X785380D01*
Y507440D01*
X785159D01*
X784107Y509980D01*
X807997Y533870D01*
X808329Y533538D01*
X810461Y532307D01*
X812839Y531670D01*
X815301D01*
X817679Y532307D01*
X819811Y533538D01*
X821552Y535279D01*
X822783Y537411D01*
X822924Y537936D01*
X825327D01*
X827740Y537630D01*
D02*
G37*
G36*
X449036Y526324D02*
X442310D01*
Y543020D01*
X449036D01*
Y526324D01*
D02*
G37*
G36*
X862202Y533722D02*
X862447Y530617D01*
X856593Y524763D01*
X854934Y526422D01*
X852729Y527335D01*
X850341D01*
X848136Y526422D01*
X845887Y527764D01*
X845827Y527909D01*
X845740Y527995D01*
Y537630D01*
X848153Y537936D01*
X857987D01*
X862202Y533722D01*
D02*
G37*
G36*
X530316Y524651D02*
Y520136D01*
X527840Y518753D01*
X527454Y518903D01*
X526849Y519253D01*
X525901Y519507D01*
X525525Y519653D01*
X524624Y522277D01*
X527970Y525623D01*
X530316Y524651D01*
D02*
G37*
G36*
X953981Y517772D02*
Y511980D01*
X940710D01*
Y511084D01*
X934720D01*
X933054Y510752D01*
X931641Y509809D01*
X928427Y506594D01*
X926080Y507566D01*
Y510810D01*
X926080D01*
X925471Y513350D01*
X927421Y515299D01*
X928364Y516712D01*
X928447Y517126D01*
X929027Y517631D01*
X930857Y518649D01*
X931229Y518696D01*
X932480Y518447D01*
X948980D01*
X951029Y518855D01*
X951441Y519130D01*
X953981Y517772D01*
D02*
G37*
G36*
X454116Y515492D02*
Y511908D01*
X445672Y503464D01*
X431063D01*
X427264Y507263D01*
Y510100D01*
X442310D01*
Y517616D01*
X451902D01*
X454116Y515492D01*
D02*
G37*
G36*
X367756Y504210D02*
X365216Y503271D01*
X360734Y507753D01*
X361706Y510100D01*
X367756D01*
Y504210D01*
D02*
G37*
G36*
X379186Y491940D02*
X376646Y490582D01*
X376464Y490704D01*
Y510100D01*
X379186D01*
Y491940D01*
D02*
G37*
G36*
X911950Y493360D02*
X912880Y491205D01*
Y487410D01*
X921389D01*
X921410Y487406D01*
X921632Y487258D01*
X921750Y487234D01*
Y483144D01*
X899227D01*
X896710Y483200D01*
Y491191D01*
X898878Y493360D01*
X911950D01*
D02*
G37*
G36*
X780506Y482067D02*
Y466180D01*
X775741D01*
X773570Y467070D01*
X773570Y468385D01*
Y472070D01*
Y482158D01*
X776033Y484116D01*
X778457D01*
X780506Y482067D01*
D02*
G37*
G36*
X516258Y472549D02*
X517499Y471308D01*
X519631Y470077D01*
X519936Y469995D01*
X520695Y467162D01*
X518897Y465364D01*
X509129D01*
X508157Y467710D01*
X513071Y472624D01*
X514789Y472896D01*
X516258Y472549D01*
D02*
G37*
G36*
X876210Y489546D02*
Y483200D01*
X876602D01*
Y466010D01*
X874062Y464313D01*
X873683Y464470D01*
X872647D01*
X871764Y465353D01*
Y489131D01*
X873768Y490512D01*
X876210Y489546D01*
D02*
G37*
G36*
X941796Y466968D02*
X941579Y465872D01*
Y463768D01*
X941796Y462672D01*
Y459003D01*
X937103Y454310D01*
X936067D01*
X933861Y453397D01*
X933166Y452702D01*
X929907Y452369D01*
X927993Y454283D01*
X927232Y454791D01*
X926723Y455553D01*
X926723Y455553D01*
X925396Y456879D01*
Y463090D01*
X925079D01*
Y468630D01*
X925079Y468630D01*
X924846Y469800D01*
X924183Y470793D01*
X924388Y473145D01*
X925288Y474436D01*
X933450D01*
X933770Y474500D01*
X941796D01*
Y466968D01*
D02*
G37*
G36*
X972276Y494171D02*
Y446053D01*
X966427D01*
X964474Y448254D01*
Y489687D01*
X969930Y495143D01*
X972276Y494171D01*
D02*
G37*
G36*
X425061Y447621D02*
X423371Y445720D01*
X419270D01*
Y449963D01*
X420337Y450581D01*
X421810Y450873D01*
X425061Y447621D01*
D02*
G37*
G36*
X390093Y462270D02*
X389720Y461370D01*
X389720D01*
Y450370D01*
Y445720D01*
X385470D01*
X384084Y447686D01*
Y464687D01*
X384383Y464957D01*
X386457Y465905D01*
X390093Y462270D01*
D02*
G37*
G36*
X891144Y474768D02*
X892810Y474436D01*
X911217D01*
X911933Y472771D01*
X912126Y471896D01*
X911574Y471071D01*
X911341Y469900D01*
Y462277D01*
X902077Y453013D01*
X901414Y452020D01*
X901181Y450850D01*
X901181Y450850D01*
Y446381D01*
X900257Y445747D01*
X900027Y445706D01*
X898274Y445697D01*
X892536Y451435D01*
X893132Y454431D01*
X893669Y454653D01*
X895357Y456341D01*
X896270Y458546D01*
Y460933D01*
X895357Y463139D01*
X893669Y464827D01*
X891463Y465740D01*
X889077D01*
X887818Y466581D01*
Y474352D01*
X890358Y475293D01*
X891144Y474768D01*
D02*
G37*
G36*
X755570Y441308D02*
X754992Y440765D01*
X753030Y439727D01*
X751840Y439964D01*
X742625D01*
X741653Y442310D01*
X746559Y447216D01*
X755570D01*
Y441308D01*
D02*
G37*
G36*
X922020Y468630D02*
Y455930D01*
X924560Y453390D01*
Y452120D01*
X925830D01*
X932180Y445770D01*
X935990Y443230D01*
Y439420D01*
X934720Y440690D01*
X905510D01*
X904240Y441960D01*
Y450850D01*
X914400Y461010D01*
Y469900D01*
X920750D01*
X922020Y468630D01*
D02*
G37*
G36*
X351746Y497588D02*
Y438215D01*
X349400Y437243D01*
X340378Y446264D01*
Y505637D01*
X342725Y506609D01*
X351746Y497588D01*
D02*
G37*
G36*
X948146Y449721D02*
Y435623D01*
X945612Y435610D01*
X945612Y435610D01*
X945169Y437834D01*
X943910Y439720D01*
X943909Y439720D01*
X940617Y443012D01*
X940659Y443223D01*
X942347Y444911D01*
X943260Y447117D01*
Y448153D01*
X945800Y450693D01*
X948146Y449721D01*
D02*
G37*
G36*
X428716Y443967D02*
Y433266D01*
X426720Y431074D01*
X423520D01*
Y445571D01*
X425421Y447262D01*
X428716Y443967D01*
D02*
G37*
G36*
X719188Y433245D02*
X718991Y433049D01*
X718048Y431636D01*
X717716Y429970D01*
Y428070D01*
X634110D01*
X632570Y428070D01*
Y428070D01*
X631570D01*
X631017Y428548D01*
X630779Y431800D01*
X634572Y435592D01*
X718216D01*
X719188Y433245D01*
D02*
G37*
G36*
X900658Y427452D02*
X899606Y424912D01*
X890137D01*
X882112Y432937D01*
Y433279D01*
X883782Y434949D01*
X885013Y437081D01*
X885525Y438992D01*
X886921Y439689D01*
X888190Y439920D01*
X900658Y427452D01*
D02*
G37*
G36*
X536666Y467501D02*
Y420903D01*
X530327Y414564D01*
X452653D01*
X437424Y429793D01*
Y445770D01*
X437092Y447436D01*
X436148Y448848D01*
X430687Y454310D01*
X431659Y456656D01*
X477676D01*
X478356Y454116D01*
X476859Y453252D01*
X475118Y451511D01*
X473887Y449379D01*
X473250Y447001D01*
Y444539D01*
X473887Y442161D01*
X475118Y440029D01*
X476362Y438785D01*
X475118Y437541D01*
X473887Y435409D01*
X473250Y433031D01*
Y430569D01*
X473887Y428191D01*
X475118Y426059D01*
X476859Y424318D01*
X478991Y423087D01*
X481369Y422450D01*
X483831D01*
X486209Y423087D01*
X488341Y424318D01*
X490082Y426059D01*
X491313Y428191D01*
X491950Y430569D01*
Y433031D01*
X491313Y435409D01*
X490082Y437541D01*
X488838Y438785D01*
X490082Y440029D01*
X491313Y442161D01*
X491950Y444539D01*
Y447001D01*
X491313Y449379D01*
X490082Y451511D01*
X488341Y453252D01*
X486844Y454116D01*
X487524Y456656D01*
X513236D01*
X513916Y454116D01*
X512419Y453252D01*
X510678Y451511D01*
X509447Y449379D01*
X508810Y447001D01*
Y444539D01*
X509447Y442161D01*
X510678Y440029D01*
X511922Y438785D01*
X510678Y437541D01*
X509447Y435409D01*
X508810Y433031D01*
Y430569D01*
X509447Y428191D01*
X510678Y426059D01*
X512419Y424318D01*
X514551Y423087D01*
X516929Y422450D01*
X519391D01*
X521769Y423087D01*
X523901Y424318D01*
X525642Y426059D01*
X526873Y428191D01*
X527510Y430569D01*
Y433031D01*
X526873Y435409D01*
X525642Y437541D01*
X524398Y438785D01*
X525642Y440029D01*
X526873Y442161D01*
X527510Y444539D01*
Y447001D01*
X526873Y449379D01*
X525642Y451511D01*
X523901Y453252D01*
X522031Y454331D01*
X521920Y455205D01*
X522290Y456973D01*
X522366Y456988D01*
X523778Y457932D01*
X534320Y468473D01*
X536666Y467501D01*
D02*
G37*
G36*
X375376Y463017D02*
Y422769D01*
X373030Y421797D01*
X360454Y434373D01*
Y474621D01*
X362800Y475593D01*
X375376Y463017D01*
D02*
G37*
G36*
X780506Y424502D02*
X779773Y423769D01*
X778860Y421563D01*
Y419177D01*
X778324Y418374D01*
X770153D01*
X766354Y422173D01*
Y425450D01*
X766022Y427116D01*
X765079Y428529D01*
X763884Y429723D01*
X764856Y432070D01*
X773570D01*
Y437070D01*
Y445680D01*
X780506D01*
Y424502D01*
D02*
G37*
G36*
X900430Y419100D02*
Y410210D01*
X897890Y407670D01*
X883920D01*
X882650Y408940D01*
Y419100D01*
X900430Y419100D01*
D02*
G37*
G36*
X868593Y518909D02*
X868764Y518048D01*
X869708Y516635D01*
X871253Y515090D01*
X871108Y513619D01*
X864332Y506842D01*
X863388Y505429D01*
X863056Y503763D01*
Y463550D01*
X863388Y461884D01*
X864332Y460471D01*
X866490Y458313D01*
Y457276D01*
X867403Y455071D01*
X869091Y453383D01*
X871296Y452470D01*
X872750D01*
X874047Y450961D01*
X873914Y449730D01*
X872691Y449403D01*
X870559Y448172D01*
X868818Y446431D01*
X867587Y444299D01*
X866950Y441921D01*
Y439459D01*
X867587Y437081D01*
X868818Y434949D01*
X870488Y433279D01*
Y430530D01*
X870488Y430530D01*
X870931Y428306D01*
X872190Y426421D01*
X879591Y419020D01*
Y408940D01*
X879591Y408940D01*
X879824Y407770D01*
X880487Y406777D01*
X880487Y406777D01*
X881757Y405507D01*
X882130Y405258D01*
Y404990D01*
X882717Y404866D01*
X882749Y404844D01*
X883914Y404612D01*
X883920Y404611D01*
X883920Y404611D01*
X884513Y404611D01*
X897890D01*
X899061Y404844D01*
X900053Y405507D01*
X900053Y405507D01*
X900511Y405965D01*
X902995D01*
Y408649D01*
X903256Y409039D01*
X903455Y410042D01*
X903556Y410266D01*
X904467Y411031D01*
X906029Y411864D01*
X907459Y411676D01*
X908781D01*
X909592Y411783D01*
X911215Y409515D01*
X910767Y408739D01*
X910130Y406361D01*
Y403899D01*
X910767Y401521D01*
X911998Y399389D01*
X913739Y397648D01*
X915871Y396417D01*
X918249Y395780D01*
X920711D01*
X923089Y396417D01*
X925221Y397648D01*
X926962Y399389D01*
X928193Y401521D01*
X928830Y403899D01*
Y406361D01*
X928574Y407315D01*
X928898Y408940D01*
Y421640D01*
X928471Y423786D01*
X927255Y425605D01*
X919635Y433225D01*
X919002Y433648D01*
X919773Y436188D01*
X931003D01*
X933988Y433203D01*
Y394837D01*
X918343Y379192D01*
X893947D01*
X887674Y385465D01*
X888190Y387389D01*
Y389851D01*
X887553Y392229D01*
X886322Y394361D01*
X884581Y396102D01*
X882449Y397333D01*
X880071Y397970D01*
X877609D01*
X875231Y397333D01*
X873099Y396102D01*
X871358Y394361D01*
X870127Y392229D01*
X869490Y389851D01*
Y387389D01*
X870127Y385011D01*
X871358Y382879D01*
X873099Y381138D01*
X875231Y379907D01*
X877366Y379335D01*
X881701Y375000D01*
X880729Y372654D01*
X852303D01*
X846033Y378924D01*
X846200Y379547D01*
Y381653D01*
X845957Y382560D01*
X846200Y385100D01*
X846200D01*
Y401100D01*
X830200D01*
Y396652D01*
X827690Y396580D01*
Y396580D01*
X805530D01*
Y385580D01*
Y375580D01*
X807176D01*
Y373380D01*
X807508Y371714D01*
X808452Y370302D01*
X813671Y365081D01*
X815084Y364138D01*
X816750Y363806D01*
X831441D01*
X831798Y363188D01*
X833288Y361698D01*
X835112Y360645D01*
X837147Y360100D01*
X839253D01*
X839876Y360267D01*
X843811Y356331D01*
X845224Y355388D01*
X846890Y355056D01*
X930910D01*
X932576Y355388D01*
X933988Y356331D01*
X939706Y362049D01*
X942047Y360798D01*
X942000Y360563D01*
Y357017D01*
X942692Y353540D01*
X943191Y352334D01*
X941494Y349794D01*
X798311D01*
X795564Y352541D01*
Y390838D01*
X796297Y391571D01*
X797210Y393777D01*
Y396163D01*
X796297Y398369D01*
X794609Y400057D01*
X792403Y400970D01*
X790016D01*
X787811Y400057D01*
X786123Y398369D01*
X785210Y396163D01*
Y393777D01*
X783260Y392396D01*
X783054Y392345D01*
X781429Y393591D01*
X779240Y394498D01*
X776890Y394808D01*
X764890D01*
X762541Y394498D01*
X760351Y393591D01*
X758471Y392149D01*
X757029Y390269D01*
X756122Y388079D01*
X755812Y385730D01*
Y373730D01*
X756122Y371381D01*
X757029Y369191D01*
X757094Y369106D01*
X756112Y366213D01*
X755409Y366025D01*
X753277Y364794D01*
X751536Y363053D01*
X751459Y362920D01*
X725118D01*
X724465Y365307D01*
X727195Y366437D01*
X729652Y368079D01*
X731741Y370168D01*
X733383Y372625D01*
X734513Y375355D01*
X735090Y378253D01*
Y381207D01*
X734513Y384105D01*
X733383Y386835D01*
X732394Y388315D01*
X733094Y390854D01*
X733409Y391217D01*
X733859Y391337D01*
X735991Y392568D01*
X736793Y393370D01*
X747280D01*
Y404570D01*
X746424D01*
Y410070D01*
X746570D01*
Y418342D01*
X749088Y418704D01*
X750032Y417291D01*
X760191Y407132D01*
X761604Y406188D01*
X763270Y405856D01*
X793750D01*
X795416Y406188D01*
X796829Y407132D01*
X806989Y417291D01*
X807932Y418704D01*
X808264Y420370D01*
Y464120D01*
X864307Y520163D01*
X866710Y520494D01*
X868593Y518909D01*
D02*
G37*
G36*
X399838Y427594D02*
X400782Y426181D01*
X403321Y423642D01*
X404734Y422698D01*
X406400Y422366D01*
X424917D01*
X441803Y405480D01*
X440831Y403134D01*
X399710D01*
X384084Y418760D01*
Y426754D01*
X385470Y428720D01*
X399614D01*
X399838Y427594D01*
D02*
G37*
G36*
X676977Y403133D02*
X646033D01*
X643620Y403440D01*
Y410070D01*
X676977D01*
Y403133D01*
D02*
G37*
G36*
X614806Y400462D02*
X615081Y397580D01*
X614504Y397068D01*
X612158Y398063D01*
Y399121D01*
X614698Y400530D01*
X614806Y400462D01*
D02*
G37*
G36*
X354271Y378883D02*
X353019Y376542D01*
X351773Y376790D01*
X348227D01*
X344750Y376098D01*
X341474Y374741D01*
X338526Y372771D01*
X336018Y370264D01*
X334049Y367316D01*
X332692Y364040D01*
X332000Y360563D01*
Y357017D01*
X332692Y353540D01*
X334049Y350264D01*
X336018Y347316D01*
X338526Y344809D01*
X341474Y342839D01*
X344750Y341482D01*
X348227Y340790D01*
X351773D01*
X355250Y341482D01*
X358526Y342839D01*
X361474Y344809D01*
X363982Y347316D01*
X365951Y350264D01*
X367308Y353540D01*
X368000Y357017D01*
Y360563D01*
X367752Y361809D01*
X370093Y363061D01*
X390048Y343105D01*
X391702Y342000D01*
X393653Y341612D01*
X590550D01*
X592501Y342000D01*
X594155Y343105D01*
X594881Y344192D01*
X607877Y357188D01*
X609910Y355629D01*
X609777Y355399D01*
X609140Y353021D01*
Y350559D01*
X609777Y348181D01*
X611008Y346049D01*
X612749Y344308D01*
X614881Y343077D01*
X617259Y342440D01*
X619721D01*
X619870Y342480D01*
X626719Y335630D01*
X625747Y333284D01*
X344170D01*
X343974Y333245D01*
X340053Y333631D01*
X336094Y334832D01*
X332445Y336782D01*
X329247Y339407D01*
X326622Y342605D01*
X324672Y346254D01*
X323471Y350213D01*
X323085Y354134D01*
X323124Y354330D01*
Y406711D01*
X325470Y407683D01*
X354271Y378883D01*
D02*
G37*
G36*
X600570Y432070D02*
X613312D01*
X614284Y429723D01*
X603455Y418895D01*
X602350Y417241D01*
X601962Y415290D01*
Y379302D01*
X599152Y376492D01*
X596811Y377743D01*
X596912Y378253D01*
Y381207D01*
X596336Y384105D01*
X595205Y386835D01*
X593564Y389292D01*
X591474Y391381D01*
X589018Y393023D01*
X586288Y394154D01*
X583390Y394730D01*
X580435D01*
X577537Y394154D01*
X574807Y393023D01*
X572351Y391381D01*
X570261Y389292D01*
X568620Y386835D01*
X567489Y384105D01*
X566912Y381207D01*
Y378253D01*
X567489Y375355D01*
X568620Y372625D01*
X570261Y370168D01*
X572351Y368079D01*
X574807Y366437D01*
X577537Y365307D01*
X580435Y364730D01*
X581244D01*
X582683Y362190D01*
X582550Y361968D01*
X424674D01*
X399843Y386800D01*
X400815Y389146D01*
X428787D01*
X429222Y388334D01*
X429842Y386606D01*
X428806Y384105D01*
X428230Y381207D01*
Y378253D01*
X428806Y375355D01*
X429937Y372625D01*
X431579Y370168D01*
X433668Y368079D01*
X436125Y366437D01*
X438855Y365307D01*
X441753Y364730D01*
X444707D01*
X447605Y365307D01*
X450335Y366437D01*
X452792Y368079D01*
X454881Y370168D01*
X456523Y372625D01*
X457654Y375355D01*
X458230Y378253D01*
Y381207D01*
X457654Y384105D01*
X456618Y386606D01*
X457238Y388334D01*
X457673Y389146D01*
X540820D01*
X542486Y389478D01*
X543899Y390421D01*
X561879Y408401D01*
X562822Y409814D01*
X563154Y411480D01*
Y441427D01*
X563943Y442216D01*
X600570D01*
Y432070D01*
D02*
G37*
G36*
X966512Y386276D02*
X972416Y380372D01*
Y375197D01*
X969876Y373839D01*
X968526Y374741D01*
X965250Y376098D01*
X961773Y376790D01*
X958227D01*
X957992Y376743D01*
X956741Y379084D01*
X963198Y385541D01*
X963381Y385815D01*
X966277Y386343D01*
X966512Y386276D01*
D02*
G37*
G36*
X831798Y375688D02*
X833085Y374402D01*
X832378Y373592D01*
X831798Y373012D01*
X831654Y372761D01*
X831438Y372514D01*
X820558D01*
X820207Y373040D01*
X821564Y375580D01*
X827690D01*
Y376486D01*
X831337D01*
X831798Y375688D01*
D02*
G37*
G36*
X724507Y407539D02*
X724507Y407530D01*
X722768Y405791D01*
X721537Y403659D01*
X720900Y401281D01*
Y398819D01*
X721315Y397270D01*
X720184Y395251D01*
X719592Y394730D01*
X718613D01*
X715715Y394154D01*
X712985Y393023D01*
X710528Y391381D01*
X708439Y389292D01*
X706797Y386835D01*
X705667Y384105D01*
X705090Y381207D01*
Y378253D01*
X705667Y375355D01*
X706797Y372625D01*
X708439Y370168D01*
X710528Y368079D01*
X712985Y366437D01*
X715715Y365307D01*
X715062Y362920D01*
X657453D01*
X647657Y372716D01*
X647790Y373730D01*
Y385730D01*
X647481Y388079D01*
X646574Y390269D01*
X646084Y390907D01*
X647337Y393447D01*
X679770D01*
X681623Y393816D01*
X683194Y394866D01*
X685245Y396916D01*
X686294Y398487D01*
X686663Y400340D01*
Y410070D01*
X723825D01*
X724507Y407539D01*
D02*
G37*
G36*
X417875Y354348D02*
X416823Y351808D01*
X395765D01*
X330218Y417355D01*
Y438413D01*
X332758Y439465D01*
X417875Y354348D01*
D02*
G37*
G36*
X786848Y367982D02*
X786856Y367977D01*
Y350738D01*
X787188Y349072D01*
X788131Y347659D01*
X792363Y343428D01*
X791311Y340888D01*
X637323D01*
X627800Y350410D01*
X627840Y350559D01*
Y353021D01*
X627203Y355399D01*
X625972Y357531D01*
X624231Y359272D01*
X622099Y360503D01*
X619721Y361140D01*
X617259D01*
X614881Y360503D01*
X614651Y360370D01*
X613092Y362403D01*
X617486Y366797D01*
X619469Y367160D01*
X620820Y366907D01*
X622174Y365868D01*
X624363Y364962D01*
X626712Y364652D01*
X638713D01*
X639726Y364786D01*
X651165Y353347D01*
X652984Y352132D01*
X655130Y351705D01*
X751459D01*
X751536Y351571D01*
X753277Y349831D01*
X755409Y348600D01*
X757787Y347962D01*
X760249D01*
X762627Y348600D01*
X764759Y349831D01*
X766499Y351571D01*
X767730Y353703D01*
X768368Y356081D01*
Y358543D01*
X767730Y360921D01*
X767043Y362112D01*
X768270Y364652D01*
X776890D01*
X779240Y364962D01*
X781429Y365868D01*
X783309Y367311D01*
X784316Y368624D01*
X786848Y367982D01*
D02*
G37*
G36*
X994410Y345644D02*
Y336550D01*
X979170Y321310D01*
X337820D01*
X335952Y323178D01*
X337242Y325480D01*
X339514Y324935D01*
X344170Y324568D01*
Y324576D01*
X963370D01*
Y324568D01*
X968026Y324935D01*
X972567Y326025D01*
X976882Y327812D01*
X980863Y330252D01*
X984415Y333285D01*
X987448Y336837D01*
X989888Y340818D01*
X991675Y345133D01*
X991870Y345945D01*
X994410Y345644D01*
D02*
G37*
%LPC*%
G36*
X760777Y625950D02*
X758143D01*
X755600Y625269D01*
X753320Y623952D01*
X751458Y622090D01*
X750142Y619810D01*
X749460Y617267D01*
Y614633D01*
X750142Y612090D01*
X751458Y609810D01*
X753320Y607948D01*
X755600Y606632D01*
X758143Y605950D01*
X760777D01*
X763320Y606632D01*
X765600Y607948D01*
X767462Y609810D01*
X768779Y612090D01*
X769460Y614633D01*
Y617267D01*
X768779Y619810D01*
X767462Y622090D01*
X765600Y623952D01*
X763320Y625269D01*
X760777Y625950D01*
D02*
G37*
G36*
X344131Y649430D02*
X341669D01*
X339291Y648793D01*
X337159Y647562D01*
X335418Y645821D01*
X334187Y643689D01*
X333550Y641311D01*
Y638849D01*
X334187Y636471D01*
X335418Y634339D01*
X337159Y632598D01*
X338244Y631972D01*
Y629138D01*
X337159Y628512D01*
X335418Y626771D01*
X334187Y624639D01*
X333550Y622261D01*
Y619799D01*
X334187Y617421D01*
X335418Y615289D01*
X337159Y613548D01*
X339291Y612317D01*
X341669Y611680D01*
X344131D01*
X346509Y612317D01*
X348641Y613548D01*
X350382Y615289D01*
X351613Y617421D01*
X352250Y619799D01*
Y622261D01*
X351613Y624639D01*
X350382Y626771D01*
X348641Y628512D01*
X347556Y629138D01*
Y631972D01*
X348641Y632598D01*
X350382Y634339D01*
X351613Y636471D01*
X352250Y638849D01*
Y641311D01*
X351613Y643689D01*
X350382Y645821D01*
X348641Y647562D01*
X346509Y648793D01*
X344131Y649430D01*
D02*
G37*
G36*
X449627Y624680D02*
X446993D01*
X444450Y623998D01*
X442170Y622682D01*
X440308Y620820D01*
X438992Y618540D01*
X438310Y615997D01*
Y613363D01*
X438992Y610820D01*
X440308Y608540D01*
X442170Y606678D01*
X444450Y605362D01*
X446993Y604680D01*
X449627D01*
X452170Y605362D01*
X454450Y606678D01*
X456312Y608540D01*
X457629Y610820D01*
X458310Y613363D01*
Y615997D01*
X457629Y618540D01*
X456312Y620820D01*
X454450Y622682D01*
X452170Y623998D01*
X449627Y624680D01*
D02*
G37*
%LPD*%
D34*
X512470Y584200D02*
D03*
X531470D02*
D03*
D57*
X626110Y994410D02*
D03*
X676910D02*
D03*
D58*
X351110D02*
D03*
X951910D02*
D03*
D59*
X546170Y1132840D02*
D03*
X761860D02*
D03*
D60*
X396170D02*
D03*
X911860D02*
D03*
D61*
X838200Y355600D02*
D03*
Y368100D02*
D03*
Y380600D02*
D03*
D62*
Y393100D02*
D03*
D71*
X976508Y349550D02*
G03*
X976770Y350673I-2278J1123D01*
G01*
X964341Y342020D02*
G03*
X976508Y349550I0J13596D01*
G01*
X778039Y471058D02*
G03*
X777999Y471509I-2540J0D01*
G01*
X945878Y345440D02*
X949298Y342020D01*
X930910Y359410D02*
X960120Y388620D01*
X929640Y368300D02*
X952500Y391160D01*
X949298Y342020D02*
X964329D01*
X964341Y342020D01*
X976770Y350673D02*
Y382175D01*
X796508Y345440D02*
X945878D01*
X964939Y394006D02*
X976770Y382175D01*
X752058Y511650D02*
X763300D01*
X742000Y574070D02*
Y585019D01*
X740410Y586139D02*
X741530Y585019D01*
X740410Y586139D02*
Y588010D01*
X632182Y429034D02*
X632460Y428756D01*
Y419070D02*
Y428756D01*
X952500Y491490D02*
X965200Y504190D01*
X970280Y501650D02*
Y580390D01*
X975142Y441699D02*
X976630Y443187D01*
Y581660D01*
X956310Y594360D02*
X970280Y580390D01*
X960890Y597400D02*
X976630Y581660D01*
X949960Y593090D02*
X965200Y577850D01*
X960120Y491490D02*
X970280Y501650D01*
X965200Y504190D02*
Y577850D01*
X960120Y541020D02*
Y544304D01*
X940730Y536800D02*
X946820D01*
X947725Y531205D02*
Y534670D01*
X946820Y530300D02*
X947725D01*
X956847Y534670D02*
X958335Y533182D01*
X957580Y546844D02*
X960120Y544304D01*
X947725Y530740D02*
Y531205D01*
Y534670D02*
X956847D01*
X957580Y546844D02*
Y555170D01*
X940730Y530300D02*
X946820D01*
X947725Y531205D01*
Y534670D02*
Y535895D01*
X946820Y536800D02*
X947725Y535895D01*
X958335Y509698D02*
Y533182D01*
X910590Y554990D02*
X912320Y553260D01*
X910590Y554990D02*
Y576580D01*
X912320Y544020D02*
Y553260D01*
X911860Y543560D02*
X912320Y544020D01*
X923290Y529590D02*
Y544830D01*
X930570Y552110D01*
Y559210D01*
X929197Y511157D02*
X930242Y512202D01*
Y514532D01*
X933010Y517300D01*
X940730D01*
X973916Y418997D02*
X974020Y419100D01*
X964939Y440211D02*
X966427Y441699D01*
X964939Y394006D02*
Y440211D01*
X960120Y388620D02*
Y491490D01*
X778039Y469429D02*
Y471058D01*
X776716Y478630D02*
X777999Y471509D01*
X798830Y468630D02*
X851535Y521335D01*
X788670Y414020D02*
X798830Y424180D01*
X775410Y466800D02*
X778039Y469429D01*
X803910Y420370D02*
Y465923D01*
X793750Y410210D02*
X803910Y420370D01*
X780260Y488470D02*
X784860Y483870D01*
X868976Y530989D02*
X876596D01*
X798830Y424180D02*
Y468630D01*
X784860Y420370D02*
Y483870D01*
X803910Y465923D02*
X868976Y530989D01*
X897337Y536800D02*
X898242Y537705D01*
X623180Y551570D02*
X628650Y546100D01*
X928530Y488770D02*
Y500540D01*
X926020Y491280D02*
X928530Y488770D01*
X845147Y599453D02*
X845263Y599338D01*
X446060Y549750D02*
X447699Y548111D01*
X890270Y623570D02*
X896620Y629920D01*
X485140Y567908D02*
Y612140D01*
X519430Y646430D01*
X486628Y566420D02*
X524510D01*
X485140Y567908D02*
X486628Y566420D01*
X496570Y609600D02*
X521970Y635000D01*
X496570Y576580D02*
Y609600D01*
X521970Y635000D02*
X613410D01*
X519430Y646430D02*
X615950D01*
X458470Y510104D02*
Y598170D01*
X523240Y662940D01*
X928370D01*
X764800Y466800D02*
X775410D01*
X764570Y466570D02*
X764800Y466800D01*
X764570Y491570D02*
X772933D01*
X776033Y488470D02*
X780260D01*
X772933Y491570D02*
X776033Y488470D01*
X744064Y451570D02*
X764570D01*
X621030Y408940D02*
X621440D01*
X627070Y414570D01*
Y419070D01*
X730250Y400050D02*
X731330Y398970D01*
X741680D01*
X888070Y578710D02*
X900840D01*
X881682D02*
X888070D01*
X897337Y536800D02*
X898230D01*
X865280D02*
X897337D01*
X401320Y588010D02*
X403860Y585470D01*
X382120Y588010D02*
X401320D01*
X372110Y578000D02*
X382120Y588010D01*
X372110Y567750D02*
Y578000D01*
X418933Y495467D02*
X419100Y495300D01*
X408940Y495467D02*
X418933D01*
X390832Y513575D02*
X408940Y495467D01*
X390832Y513575D02*
Y541181D01*
X384810Y547203D02*
X390832Y541181D01*
X384810Y547203D02*
Y567750D01*
X840740Y524510D02*
Y532130D01*
X722630Y614680D02*
X723900Y613410D01*
X730250D01*
X747070Y596590D01*
Y574070D02*
Y596590D01*
X930910Y631190D02*
X942766Y619334D01*
Y613302D02*
Y619334D01*
X940786Y601822D02*
X942766Y603802D01*
X937480Y595630D02*
X940786Y598936D01*
Y601822D01*
X937480Y595630D02*
X941070D01*
X930910Y622300D02*
X934720Y618490D01*
Y612580D02*
Y618490D01*
X934578Y604222D02*
X934720Y604080D01*
X927086Y604222D02*
X934578D01*
X926944Y604364D02*
X927086Y604222D01*
X895350Y604520D02*
X920750D01*
X924560Y596460D02*
X925390Y595630D01*
X920750Y604520D02*
X924560Y600710D01*
Y596460D02*
Y600710D01*
X915670Y585470D02*
X916940Y586740D01*
X915670Y567198D02*
Y585470D01*
Y567198D02*
X917158Y565710D01*
X930570D01*
X903180Y583990D02*
X910590Y576580D01*
X937260Y448310D02*
X946150Y457200D01*
Y463550D01*
X945932Y463768D02*
X946150Y463550D01*
X945932Y463768D02*
Y465872D01*
X946150Y466090D01*
Y491053D01*
X838200Y380600D02*
X850500Y368300D01*
X929640D01*
X890270Y488510D02*
X890710Y488950D01*
X890270Y481330D02*
Y488510D01*
X933450Y478790D02*
X936200Y481540D01*
Y486800D01*
X892810Y478790D02*
X933450D01*
X890270Y481330D02*
X892810Y478790D01*
X936200Y486800D02*
X938350Y488950D01*
X832930Y524700D02*
X833120Y524510D01*
X832930Y524700D02*
Y531940D01*
X832740Y532130D02*
X832930Y531940D01*
X887730Y551180D02*
X889000Y552450D01*
X881380Y551180D02*
X887730D01*
X871105Y588371D02*
X872490Y589756D01*
X867628Y588371D02*
X871105D01*
X866140Y557920D02*
X871150Y552910D01*
X866140Y586883D02*
X867628Y588371D01*
X866140Y557920D02*
Y586883D01*
X872630Y551180D02*
X872880D01*
X871150Y552660D02*
X872630Y551180D01*
X871150Y552660D02*
Y552910D01*
X854610Y556220D02*
X862330Y563940D01*
X854710Y619760D02*
X862330Y612140D01*
Y563940D02*
Y612140D01*
X880110Y543560D02*
X891540D01*
X901700Y553720D01*
Y563847D01*
X900212Y565335D02*
X901700Y563847D01*
X888445Y565335D02*
X900212D01*
X888070Y565710D02*
X888445Y565335D01*
X888070Y565710D02*
Y572210D01*
X879820D02*
X888070D01*
X879550D02*
X879820D01*
X853630Y554990D02*
X854610Y555970D01*
Y556220D01*
X853380Y554990D02*
X853630D01*
X856588Y548342D02*
X857250Y547680D01*
X853630Y554990D02*
X856588Y552032D01*
Y548342D02*
Y552032D01*
X768350Y414020D02*
X788670D01*
X762000Y420370D02*
X768350Y414020D01*
X762000Y420370D02*
Y425450D01*
X751840Y435610D02*
X762000Y425450D01*
X727710Y435610D02*
X751840D01*
X722070Y429970D02*
X727710Y435610D01*
X722070Y419070D02*
Y429970D01*
X815340Y542290D02*
X859790D01*
X865280Y536800D01*
X881143Y526357D02*
X881357D01*
X881572D01*
X808990Y541020D02*
X814070D01*
X779145Y511175D02*
X808990Y541020D01*
X815340Y542290D02*
X826160Y553110D01*
X727070Y419070D02*
Y428620D01*
X730250Y431800D01*
X748030D01*
X753110Y426720D01*
Y420370D02*
Y426720D01*
Y420370D02*
X763270Y410210D01*
X793750D01*
X876596Y530989D02*
X877755Y529831D01*
Y529745D02*
Y529831D01*
Y529745D02*
X881143Y526357D01*
X867410Y463550D02*
Y503763D01*
X874187Y510540D01*
X881960D01*
X857250Y603130D02*
Y603380D01*
X852300Y608330D02*
X857250Y603380D01*
X852170Y608330D02*
X852300D01*
X817908Y613410D02*
X834390D01*
X816420Y607060D02*
Y611922D01*
X836930Y607060D02*
Y610870D01*
X834390Y613410D02*
X836930Y610870D01*
X816420Y611922D02*
X817908Y613410D01*
X816335Y606975D02*
X816420Y607060D01*
X867410Y463550D02*
X872490Y458470D01*
X943630Y493573D02*
X946150Y491053D01*
X943630Y493573D02*
Y497630D01*
X942150Y499110D02*
X943630Y497630D01*
X941900Y499110D02*
X942150D01*
X897200D02*
X897450D01*
X893390Y495300D02*
X897200Y499110D01*
X877570Y495300D02*
X893390D01*
X877352Y495082D02*
X877570Y495300D01*
X875248Y495082D02*
X877352D01*
X873570Y496760D02*
X875248Y495082D01*
X873570Y496760D02*
Y502920D01*
X881570D02*
Y503420D01*
X882300Y504150D01*
X884073D01*
X886980Y507057D01*
Y507060D01*
X890460Y510540D01*
X890710D01*
X880776Y579615D02*
X881682Y578710D01*
X880776Y579615D02*
Y586754D01*
X880462Y587068D02*
X880776Y586754D01*
X872490Y589970D02*
X874082Y591562D01*
X874297D02*
X878364Y595630D01*
X874082Y591562D02*
X874297D01*
X878364Y595630D02*
X908440D01*
X928370Y662940D02*
X960890Y630420D01*
X919480Y494010D02*
Y494210D01*
X922898Y491680D02*
X923298Y491280D01*
X919480Y494010D02*
X921810Y491680D01*
X922898D01*
X923298Y491280D02*
X926020D01*
X928530Y500540D02*
X934720Y506730D01*
X899160Y508000D02*
X902970D01*
X897450Y506290D02*
X899160Y508000D01*
X897450Y499110D02*
Y506290D01*
X911100Y504010D02*
X919480D01*
X906200Y499110D02*
X911100Y504010D01*
X905950Y499110D02*
X906200D01*
X950400D02*
X950912Y499622D01*
Y504182D01*
X953460Y506730D01*
X953710D01*
X934720D02*
X946210D01*
X919480Y504010D02*
Y513516D01*
X924342Y518378D01*
Y520482D01*
X927660Y523800D01*
X872786Y519714D02*
Y526357D01*
Y519714D02*
X881960Y510540D01*
X881572Y526357D02*
X883164Y527949D01*
Y528164D01*
X885301Y530300D01*
X898230D01*
X927660Y523800D02*
X940730D01*
X955230Y506730D02*
X955730D01*
X957210Y508573D02*
X958335Y509698D01*
X955730Y506730D02*
X957210Y508210D01*
Y508573D01*
X890710Y510540D02*
X890980Y510810D01*
Y516395D01*
X891885Y517300D01*
X898230D01*
Y523800D02*
Y530300D01*
X890270Y609600D02*
X895350Y604520D01*
X890270Y609600D02*
Y623570D01*
X742950Y637540D02*
X933450D01*
X949960Y621030D01*
X730250Y624840D02*
X742950Y637540D01*
X791210Y350738D02*
X796508Y345440D01*
X791210Y350738D02*
Y394970D01*
X966427Y441699D02*
X975142D01*
X956310Y594360D02*
Y623570D01*
X952500Y391160D02*
Y491490D01*
X886520Y588010D02*
X886770D01*
X949960Y593090D02*
Y621030D01*
X916690Y595630D02*
X916940D01*
X915210Y593900D02*
Y594150D01*
X910590Y589280D02*
X915210Y593900D01*
X895290Y589280D02*
X910590D01*
X915210Y594150D02*
X916690Y595630D01*
X886770Y588010D02*
X889546Y585234D01*
Y585231D02*
Y585234D01*
Y585231D02*
X890787Y583990D01*
X903180D01*
X872490Y581184D02*
X874082Y579592D01*
Y577948D02*
Y579592D01*
Y577948D02*
X879820Y572210D01*
X898242Y541372D02*
X906780Y549910D01*
Y572770D01*
X898242Y537705D02*
Y541372D01*
X900840Y578710D02*
X906780Y572770D01*
X918828Y593992D02*
X920466Y592354D01*
X930570Y572210D02*
Y578710D01*
X882285Y559210D02*
X888070D01*
X881380Y551180D02*
Y558305D01*
X882285Y559210D01*
X940730Y530300D02*
Y536800D01*
X920466Y592301D02*
Y592354D01*
Y592301D02*
X922217Y590550D01*
X939800D01*
X845147Y599453D02*
Y606842D01*
X844930Y607060D02*
X845147Y606842D01*
X814070Y619760D02*
X854710D01*
X845160Y564580D02*
X845520Y564220D01*
Y555350D02*
Y564220D01*
Y555350D02*
X845880Y554990D01*
X857250Y587890D02*
Y595630D01*
X939800Y590550D02*
X949960Y580390D01*
Y574040D02*
Y580390D01*
X948130Y572210D02*
X949960Y574040D01*
X930570Y572210D02*
X948130D01*
X941070Y595630D02*
X957580Y579120D01*
Y564970D02*
Y579120D01*
X933890Y595630D02*
X937480D01*
X948690Y555170D02*
X949505Y554355D01*
X887730Y410590D02*
X888043Y410902D01*
X896308D01*
X896620Y411215D01*
X384810Y567750D02*
X397510D01*
X444732Y549750D02*
X446060D01*
X424398Y549910D02*
X444572D01*
X447699Y547862D02*
Y548111D01*
X444572Y549910D02*
X444732Y549750D01*
X397510Y548640D02*
Y567750D01*
Y548640D02*
X401320Y544830D01*
X437983D01*
X441793Y541020D01*
X447040D01*
X422910Y551398D02*
Y567750D01*
Y551398D02*
X424398Y549910D01*
X451902Y521970D02*
X453390Y523458D01*
X438040Y521970D02*
X451902D01*
X453390Y523458D02*
Y586740D01*
X435610Y524400D02*
Y527050D01*
Y524400D02*
X438040Y521970D01*
X441960Y598170D02*
X453390Y586740D01*
X846890Y359410D02*
X930910D01*
X934720Y645160D02*
X956310Y623570D01*
X960890Y597400D02*
Y630420D01*
X447258Y498892D02*
X458470Y510104D01*
X447040Y499110D02*
X447258Y498892D01*
X429260Y499110D02*
X447040D01*
X422910Y505460D02*
X429260Y499110D01*
X422910Y505460D02*
Y527050D01*
X383540Y525780D02*
X384810Y527050D01*
X383540Y486410D02*
Y525780D01*
Y486410D02*
X403860Y466090D01*
X500380D01*
X510540Y476250D01*
Y515620D01*
X514350Y519430D01*
X515620D01*
X529590Y533400D01*
Y561340D01*
X524510Y566420D02*
X529590Y561340D01*
X496570Y576580D02*
X501650Y571500D01*
X527486D01*
X361950Y598170D02*
X441960D01*
X341630Y577850D02*
X361950Y598170D01*
X341630Y513861D02*
Y577850D01*
X621030Y600710D02*
X628650D01*
X632070Y597290D01*
Y574070D02*
Y597290D01*
X618490Y590550D02*
X624840D01*
X627070Y588320D01*
Y574070D02*
Y588320D01*
X527486Y571500D02*
X534888Y564098D01*
X534670Y563880D02*
X534888Y564098D01*
X534670Y474980D02*
Y563880D01*
X520700Y461010D02*
X534670Y474980D01*
X397510Y461010D02*
X520700D01*
X372110Y486410D02*
X397510Y461010D01*
X372110Y486410D02*
Y527050D01*
X345440Y516890D02*
Y573933D01*
X353940Y582433D02*
Y582433D01*
X345440Y573933D02*
X353940Y582433D01*
Y582433D02*
X364597Y593090D01*
X430530D01*
X362802Y481748D02*
Y499528D01*
X345440Y516890D02*
X362802Y499528D01*
X341630Y513861D02*
X356100Y499391D01*
X395170Y393500D02*
X540820D01*
X558800Y411480D01*
X356100Y432570D02*
X395170Y393500D01*
X379730Y416957D02*
X397907Y398780D01*
X535940D01*
X356100Y432570D02*
Y499391D01*
X558800Y411480D02*
Y443230D01*
X535940Y398780D02*
X552450Y415290D01*
Y445770D01*
X558250Y451570D01*
X558800Y443230D02*
X562140Y446570D01*
X609570D01*
X379730Y416957D02*
Y464820D01*
X430530Y593090D02*
X435610Y588010D01*
Y567750D02*
Y588010D01*
X362802Y481748D02*
X379730Y464820D01*
X558250Y451570D02*
X609570D01*
X671995Y574145D02*
X672070Y574070D01*
X671995Y574145D02*
Y583880D01*
X671830Y584045D02*
X671995Y583880D01*
X671830Y584045D02*
Y589280D01*
X676910Y594360D01*
Y614680D01*
X673100Y618490D02*
X676910Y614680D01*
X594360Y618490D02*
X673100D01*
X546100Y570230D02*
X594360Y618490D01*
X683260Y593090D02*
Y614680D01*
X673100Y624840D02*
X683260Y614680D01*
X593090Y624840D02*
X673100D01*
X541020Y572770D02*
X593090Y624840D01*
X677070Y586900D02*
X683260Y593090D01*
X677070Y574070D02*
Y586900D01*
X546100Y416560D02*
Y570230D01*
X534670Y405130D02*
X546100Y416560D01*
X448310Y405130D02*
X534670D01*
X426720Y426720D02*
X448310Y405130D01*
X406400Y426720D02*
X426720D01*
X403860Y429260D02*
X406400Y426720D01*
X403860Y429260D02*
Y452120D01*
X400110Y455870D02*
X403860Y452120D01*
X394970Y455870D02*
X400110D01*
X608330Y612140D02*
X668020D01*
X450850Y410210D02*
X532130D01*
X541020Y419100D01*
X433070Y427990D02*
X450850Y410210D01*
X580390Y584200D02*
X608330Y612140D01*
X541020Y419100D02*
Y572770D01*
X422970Y455870D02*
X433070Y445770D01*
Y427990D02*
Y445770D01*
X414020Y455870D02*
X422970D01*
X342900Y817880D02*
X368300Y843280D01*
X341590Y806450D02*
X342900Y807760D01*
Y817880D01*
X368300Y843280D02*
X469900D01*
X394970Y437220D02*
Y448370D01*
X414020Y437220D02*
Y448370D01*
X845850Y587890D02*
X857250D01*
X845160Y588580D02*
X845850Y587890D01*
X811530Y391080D02*
X821690D01*
X811530Y373380D02*
Y381080D01*
Y373380D02*
X816750Y368160D01*
X838140D01*
X838200Y368100D01*
X597840Y546100D02*
X604600D01*
X605070Y546570D02*
X609570D01*
X604600Y546100D02*
X605070Y546570D01*
X637300Y409510D02*
X637870Y408940D01*
X637300Y409510D02*
Y418840D01*
X637070Y419070D02*
X637300Y418840D01*
X807720Y613410D02*
X814070Y619760D01*
X807720Y593090D02*
Y613410D01*
Y593090D02*
X812230Y588580D01*
X826160D01*
X816250Y599440D02*
X816335Y599525D01*
Y606975D01*
X824960Y599980D02*
X825500Y599440D01*
X824960Y599980D02*
Y606520D01*
X824420Y607060D02*
X824960Y606520D01*
X825830Y588910D02*
X826160Y588580D01*
X825830Y588910D02*
Y599110D01*
X825500Y599440D02*
X825830Y599110D01*
X835888Y599212D02*
X836115Y599440D01*
X835888Y588807D02*
Y599212D01*
X835660Y588580D02*
X835888Y588807D01*
X845263Y588683D02*
Y599338D01*
X845160Y588580D02*
X845263Y588683D01*
X837960Y380840D02*
X838200Y380600D01*
X821930Y380840D02*
X837960D01*
X821690Y381080D02*
X821930Y380840D01*
X836180Y391080D02*
X838200Y393100D01*
X821690Y391080D02*
X836180D01*
X777240Y513080D02*
X779145Y511175D01*
X777240Y513080D02*
Y521530D01*
Y530030D02*
Y530090D01*
X775760Y531570D02*
X777240Y530090D01*
X764570Y531570D02*
X775760D01*
X609570Y556570D02*
X624214D01*
X627714Y560070D02*
X628650D01*
X624214Y556570D02*
X627714Y560070D01*
X609570Y551570D02*
X623180D01*
X605980Y556800D02*
X606210Y556570D01*
X605980Y556800D02*
Y563880D01*
X741680Y398970D02*
X742070Y399360D01*
X773203Y456570D02*
X776363Y453410D01*
X764570Y456570D02*
X773203D01*
X778510Y451680D02*
Y451930D01*
X777030Y453410D02*
X778510Y451930D01*
X764570Y456570D02*
X764570Y456570D01*
X776363Y453410D02*
X777030D01*
X753328Y456570D02*
X764570D01*
X777350Y461340D02*
X778510Y460180D01*
X764800Y461340D02*
X777350D01*
X764570Y461570D02*
X764800Y461340D01*
X775050Y506570D02*
X779780Y501840D01*
X774540Y506570D02*
X775050D01*
X717300Y594170D02*
X717550Y594420D01*
X717300Y574300D02*
Y594170D01*
X717070Y574070D02*
X717300Y574300D01*
X692150Y599440D02*
Y614680D01*
Y599440D02*
X707070Y584520D01*
Y574070D02*
Y584520D01*
X712470Y624840D02*
X730250D01*
X701040Y599440D02*
Y631190D01*
X715010Y645160D02*
X934720D01*
X701040Y631190D02*
X715010Y645160D01*
X712070Y574070D02*
Y588410D01*
X701040Y599440D02*
X712070Y588410D01*
X838200Y368100D02*
X846890Y359410D01*
X814070Y541020D02*
X815340Y542290D01*
X826160Y553110D02*
Y564580D01*
X774540Y506570D02*
X779145Y511175D01*
X764570Y506570D02*
X774540D01*
X878840Y386080D02*
Y388620D01*
X742070Y399360D02*
Y419070D01*
X751840Y458058D02*
X753328Y456570D01*
X751840Y458058D02*
Y505082D01*
X580390Y494030D02*
Y584200D01*
X753328Y506570D02*
X764570D01*
X751840Y505082D02*
X753328Y506570D01*
X686270Y858520D02*
X687070Y857720D01*
X699770Y858520D02*
X699920Y858670D01*
X686270Y858520D02*
X686920Y859170D01*
X657560Y889970D02*
X657860Y890270D01*
X988770Y1153530D02*
G03*
X963370Y1178930I-25400J0D01*
G01*
Y328930D02*
G03*
X988770Y354330I0J25400D01*
G01*
X344170Y1178930D02*
G03*
X318770Y1153530I0J-25400D01*
G01*
Y354330D02*
G03*
X344170Y328930I25400J0D01*
G01*
X963370D01*
X344170Y1178930D02*
X963370D01*
X988770Y354330D02*
Y1153530D01*
X318770Y354330D02*
Y1153530D01*
D73*
X971550Y335280D02*
X984250Y347980D01*
Y652780D01*
X965200Y671830D02*
X984250Y652780D01*
X973916Y397871D02*
Y418997D01*
X901930Y671830D02*
X965200D01*
X901700Y672060D02*
X901930Y671830D01*
X882210Y453830D02*
X906780Y429260D01*
X882210Y453830D02*
Y488950D01*
X906780Y429260D02*
X915670D01*
X655130Y357312D02*
X759018D01*
X632713Y379730D02*
X655130Y357312D01*
X919480Y405130D02*
X923290Y408940D01*
Y421640D01*
X915670Y429260D02*
X923290Y421640D01*
X618490Y351790D02*
X635000Y335280D01*
X971550Y335280D01*
X687070Y836930D02*
Y857720D01*
X657560Y846569D02*
X660810Y849819D01*
X657560Y829310D02*
Y846569D01*
D74*
X908120Y442000D02*
X933410D01*
X939800Y435610D01*
X876300Y430530D02*
Y440690D01*
Y430530D02*
X887730Y419100D01*
X908120D01*
X878840Y386080D02*
X891540Y373380D01*
X920750D01*
X939800Y392430D01*
Y435610D01*
X705068Y830580D02*
X721360D01*
X699770Y835878D02*
X705068Y830580D01*
X699770Y835878D02*
Y858520D01*
X699920Y858670D02*
Y872595D01*
X686920Y859170D02*
Y872595D01*
D76*
X542250Y586700D02*
X561845Y606295D01*
X531470Y584700D02*
X533470Y586700D01*
X561845Y606295D02*
Y613915D01*
X533470Y586700D02*
X542250D01*
X531470Y584200D02*
Y584700D01*
X561845Y613915D02*
X562610Y614680D01*
D77*
X607060Y415290D02*
X632460Y440690D01*
X733184D01*
X393653Y346710D02*
X590550D01*
X586740Y356870D02*
X607060Y377190D01*
Y415290D01*
X949505Y554355D02*
X956765D01*
X930570Y565710D02*
X947950D01*
X948690Y564970D01*
X360680Y603250D02*
Y678180D01*
X335280Y444153D02*
Y577850D01*
X360680Y603250D01*
X335280Y444153D02*
X422563Y356870D01*
X586740D01*
X325120Y666750D02*
X375920Y717550D01*
X325120Y415243D02*
X393653Y346710D01*
X325120Y415243D02*
Y666750D01*
X360680Y678180D02*
X386080Y703580D01*
X576580Y703580D01*
X664060Y791060D02*
Y829310D01*
X576580Y703580D02*
X664060Y791060D01*
X571500Y717550D02*
X651060Y797110D01*
X375920Y717550D02*
X571500D01*
X651060Y797110D02*
Y829310D01*
X657560Y870327D02*
Y889970D01*
X664060Y870327D02*
Y881427D01*
X666403Y883770D01*
X686920D02*
X692150Y889000D01*
X666403Y883770D02*
X686920D01*
X651060Y870327D02*
Y880363D01*
X646430Y884993D02*
X651060Y880363D01*
X646430Y884993D02*
Y899160D01*
X656590Y909320D01*
X675640D01*
X692150Y889000D02*
Y911860D01*
X684530Y919480D02*
X692150Y911860D01*
X650240Y919480D02*
X684530D01*
X629920Y899160D02*
X650240Y919480D01*
X629920Y881380D02*
Y899160D01*
D81*
X581912Y379730D02*
D03*
X720090D02*
D03*
X443230D02*
D03*
X676910Y1120760D02*
D03*
D82*
X632713Y379730D02*
D03*
X770890D02*
D03*
X494030D02*
D03*
X626110Y1120760D02*
D03*
D83*
X562610Y767080D02*
D03*
X911860Y768350D02*
D03*
D84*
X524510Y767080D02*
D03*
X448310D02*
D03*
X410210D02*
D03*
Y614680D02*
D03*
X448310D02*
D03*
X524510D02*
D03*
X562610D02*
D03*
X911860Y615950D02*
D03*
X873760D02*
D03*
X797560D02*
D03*
X759460D02*
D03*
Y768350D02*
D03*
X797560D02*
D03*
X873760D02*
D03*
D85*
X960000Y358790D02*
D03*
X350000D02*
D03*
Y1150000D02*
D03*
X960000D02*
D03*
D86*
X880110Y674370D02*
D03*
X749300Y673100D02*
D03*
X715010Y671830D02*
D03*
X607060Y673100D02*
D03*
X576580D02*
D03*
X547370D02*
D03*
X504190Y581660D02*
D03*
Y593090D02*
D03*
Y603250D02*
D03*
X557530Y627380D02*
D03*
X576580Y621030D02*
D03*
X581660Y627380D02*
D03*
X571500D02*
D03*
X695960Y528320D02*
D03*
X694690Y544830D02*
D03*
X670496Y404684D02*
D03*
X663814Y404726D02*
D03*
X657389Y404684D02*
D03*
X960120Y541020D02*
D03*
X911860Y543560D02*
D03*
X786876Y493870D02*
D03*
X776716Y478630D02*
D03*
X916940Y586740D02*
D03*
X926944Y604364D02*
D03*
X889000Y552450D02*
D03*
D87*
X934720Y466090D02*
D03*
X923290Y529590D02*
D03*
X419100Y414020D02*
D03*
X389890Y421640D02*
D03*
X788670Y599440D02*
D03*
Y586740D02*
D03*
X801370D02*
D03*
X829310Y613410D02*
D03*
X973813Y397767D02*
D03*
X659130Y374650D02*
D03*
Y383540D02*
D03*
X662940Y431800D02*
D03*
X800100Y359410D02*
D03*
Y370840D02*
D03*
Y382270D02*
D03*
X826770Y415290D02*
D03*
X838200D02*
D03*
X853440Y477520D02*
D03*
Y487680D02*
D03*
Y497840D02*
D03*
X929197Y511157D02*
D03*
X405130Y356870D02*
D03*
X372110Y345440D02*
D03*
X692072Y648264D02*
D03*
X681932Y648226D02*
D03*
X692150Y656590D02*
D03*
X681990D02*
D03*
X693420Y631190D02*
D03*
X604520Y595630D02*
D03*
X709930Y603250D02*
D03*
X575310Y655320D02*
D03*
X561340D02*
D03*
X548640D02*
D03*
X905510Y389890D02*
D03*
Y401320D02*
D03*
X904240Y466572D02*
D03*
Y487680D02*
D03*
X968240Y468630D02*
D03*
Y486410D02*
D03*
X668020Y612140D02*
D03*
X337820Y427990D02*
D03*
X687070Y836930D02*
D03*
X793750Y537210D02*
D03*
X580390Y494030D02*
D03*
X571500Y499110D02*
D03*
D88*
X593090Y880110D02*
D03*
X579120D02*
D03*
X901700Y672060D02*
D03*
X621030Y408940D02*
D03*
X730250Y400050D02*
D03*
X722630Y614680D02*
D03*
X814070Y541020D02*
D03*
X759018Y357312D02*
D03*
X919480Y405130D02*
D03*
X618490Y351790D02*
D03*
X899160Y627380D02*
D03*
X969010Y607060D02*
D03*
Y626110D02*
D03*
X419100Y474980D02*
D03*
X347709Y496299D02*
D03*
X342900Y599440D02*
D03*
X482600Y431800D02*
D03*
Y445770D02*
D03*
X347980Y478790D02*
D03*
X419100Y495300D02*
D03*
X341590Y806450D02*
D03*
X469900Y843280D02*
D03*
Y862330D02*
D03*
X342900Y640080D02*
D03*
Y621030D02*
D03*
X876300Y440690D02*
D03*
X485140Y549910D02*
D03*
X878840Y388620D02*
D03*
X660810Y849819D02*
D03*
X657560Y889970D02*
D03*
X675640Y909320D02*
D03*
X629920Y881380D02*
D03*
X523240Y478790D02*
D03*
Y494030D02*
D03*
Y510540D02*
D03*
X518160Y549910D02*
D03*
X500380D02*
D03*
X468630D02*
D03*
X518160Y445770D02*
D03*
Y431800D02*
D03*
X341630Y929640D02*
D03*
X736600Y830580D02*
D03*
X721360D02*
D03*
X358140Y929640D02*
D03*
X969010Y645160D02*
D03*
D89*
X403860Y585470D02*
D03*
X840740Y524510D02*
D03*
X930910Y631190D02*
D03*
Y622300D02*
D03*
X937260Y448310D02*
D03*
X833120Y524510D02*
D03*
X851535Y521335D02*
D03*
X880110Y543560D02*
D03*
X857250Y547680D02*
D03*
X784860Y420370D02*
D03*
X852170Y608330D02*
D03*
X872490Y458470D02*
D03*
X890270Y459740D02*
D03*
X880462Y587068D02*
D03*
X902970Y508000D02*
D03*
X791210Y394970D02*
D03*
X615950Y646430D02*
D03*
X613410Y635000D02*
D03*
X621030Y600710D02*
D03*
X618490Y590550D02*
D03*
X628650Y547370D02*
D03*
Y560070D02*
D03*
D90*
X711200Y624840D02*
D03*
X692150Y614680D02*
D03*
D91*
X414020Y416220D02*
D03*
Y437220D02*
D03*
X394970D02*
D03*
Y416220D02*
D03*
D92*
X778510Y460180D02*
D03*
Y451680D02*
D03*
X934720Y604080D02*
D03*
Y612580D02*
D03*
X777240Y530030D02*
D03*
Y521530D02*
D03*
D93*
X942766Y603802D02*
D03*
Y613302D02*
D03*
X938530Y481000D02*
D03*
Y471500D02*
D03*
D94*
X717550Y594420D02*
D03*
Y601920D02*
D03*
X857250Y595630D02*
D03*
Y603130D02*
D03*
Y580390D02*
D03*
Y587890D02*
D03*
X394970Y448370D02*
D03*
Y455870D02*
D03*
X414020Y448370D02*
D03*
Y455870D02*
D03*
X447040Y548520D02*
D03*
Y541020D02*
D03*
D95*
X660810Y849819D02*
D03*
D96*
X670560Y870327D02*
D03*
X664060D02*
D03*
X657560D02*
D03*
X651060D02*
D03*
Y829310D02*
D03*
X657560D02*
D03*
X664060D02*
D03*
D97*
X670560D02*
D03*
D98*
X811530Y381080D02*
D03*
Y391080D02*
D03*
X821690Y381080D02*
D03*
Y391080D02*
D03*
D99*
X747070Y574070D02*
D03*
X742070D02*
D03*
X737070D02*
D03*
X732070D02*
D03*
X727070D02*
D03*
X722070D02*
D03*
X717070D02*
D03*
X712070D02*
D03*
X707070D02*
D03*
X702070D02*
D03*
X697070D02*
D03*
X692070D02*
D03*
X687070D02*
D03*
X682070D02*
D03*
X677070D02*
D03*
X672070D02*
D03*
X667070D02*
D03*
X662070D02*
D03*
X657070D02*
D03*
X652070D02*
D03*
X647070D02*
D03*
X642070D02*
D03*
X637070D02*
D03*
X632070D02*
D03*
X627070D02*
D03*
Y419070D02*
D03*
X632070D02*
D03*
X637070D02*
D03*
X642070D02*
D03*
X647070D02*
D03*
X652070D02*
D03*
X657070D02*
D03*
X662070D02*
D03*
X667070D02*
D03*
X672070D02*
D03*
X677070D02*
D03*
X682070D02*
D03*
X687070D02*
D03*
X692070D02*
D03*
X697070D02*
D03*
X702070D02*
D03*
X707070D02*
D03*
X712070D02*
D03*
X717070D02*
D03*
X722070D02*
D03*
X727070D02*
D03*
X732070D02*
D03*
X737070D02*
D03*
X742070D02*
D03*
X747070D02*
D03*
D100*
X609570Y556570D02*
D03*
Y551570D02*
D03*
Y546570D02*
D03*
Y541570D02*
D03*
Y536570D02*
D03*
Y531570D02*
D03*
Y526570D02*
D03*
Y521570D02*
D03*
Y516570D02*
D03*
Y511570D02*
D03*
Y506570D02*
D03*
Y501570D02*
D03*
Y496570D02*
D03*
Y491570D02*
D03*
Y486570D02*
D03*
Y481570D02*
D03*
Y476570D02*
D03*
Y471570D02*
D03*
Y466570D02*
D03*
Y461570D02*
D03*
Y456570D02*
D03*
Y451570D02*
D03*
Y446570D02*
D03*
Y441570D02*
D03*
Y436570D02*
D03*
X764570D02*
D03*
Y441570D02*
D03*
Y446570D02*
D03*
Y451570D02*
D03*
Y456570D02*
D03*
Y461570D02*
D03*
Y466570D02*
D03*
Y471570D02*
D03*
Y476570D02*
D03*
Y481570D02*
D03*
Y486570D02*
D03*
Y491570D02*
D03*
Y496570D02*
D03*
Y501570D02*
D03*
Y506570D02*
D03*
Y511570D02*
D03*
Y516570D02*
D03*
Y521570D02*
D03*
Y526570D02*
D03*
Y531570D02*
D03*
Y536570D02*
D03*
Y541570D02*
D03*
Y546570D02*
D03*
Y551570D02*
D03*
Y556570D02*
D03*
D101*
X840740Y532130D02*
D03*
X832740D02*
D03*
X881570Y502920D02*
D03*
X873570D02*
D03*
D102*
X637870Y408940D02*
D03*
X647370D02*
D03*
X597840Y546100D02*
D03*
X588340D02*
D03*
D103*
X872490Y581184D02*
D03*
Y589756D02*
D03*
D104*
X435610Y527050D02*
D03*
Y567750D02*
D03*
X422910Y527050D02*
D03*
Y567750D02*
D03*
X410210Y527050D02*
D03*
Y567750D02*
D03*
X397510Y527050D02*
D03*
Y567750D02*
D03*
X384810Y527050D02*
D03*
Y567750D02*
D03*
X372110Y527050D02*
D03*
Y567750D02*
D03*
X359410Y527050D02*
D03*
Y567750D02*
D03*
D105*
X896620Y401965D02*
D03*
Y411215D02*
D03*
D106*
X605980Y563880D02*
D03*
X597980D02*
D03*
X824420Y607060D02*
D03*
X816420D02*
D03*
X844930D02*
D03*
X836930D02*
D03*
X927796Y457490D02*
D03*
X919796D02*
D03*
D107*
X908120Y396200D02*
D03*
D108*
Y419100D02*
D03*
Y442000D02*
D03*
D109*
X974020Y419100D02*
D03*
D110*
X699920Y872595D02*
D03*
X686920D02*
D03*
D111*
X686270Y858520D02*
D03*
X699770D02*
D03*
D112*
X948690Y555170D02*
D03*
Y564970D02*
D03*
X919480Y494210D02*
D03*
Y504010D02*
D03*
X957580Y564970D02*
D03*
Y555170D02*
D03*
D113*
X898230Y517300D02*
D03*
Y523800D02*
D03*
Y530300D02*
D03*
Y536800D02*
D03*
X940730Y517300D02*
D03*
Y523800D02*
D03*
Y530300D02*
D03*
Y536800D02*
D03*
X888070Y559210D02*
D03*
Y565710D02*
D03*
Y572210D02*
D03*
Y578710D02*
D03*
X930570Y559210D02*
D03*
Y565710D02*
D03*
Y572210D02*
D03*
Y578710D02*
D03*
D114*
X826160Y564580D02*
D03*
X845160D02*
D03*
Y588580D02*
D03*
X835660D02*
D03*
X826160D02*
D03*
D115*
X881357Y526357D02*
D03*
X872786D02*
D03*
D116*
X938350Y488950D02*
D03*
X928550D02*
D03*
D117*
X825500Y599440D02*
D03*
X816250D02*
D03*
X845365D02*
D03*
X836115D02*
D03*
X927915Y466090D02*
D03*
X918665D02*
D03*
D118*
X887730Y402590D02*
D03*
Y410590D02*
D03*
X741680Y398970D02*
D03*
Y390970D02*
D03*
X779780Y501840D02*
D03*
Y493840D02*
D03*
D119*
X946210Y506730D02*
D03*
X953710D02*
D03*
X895290Y589280D02*
D03*
X887790D02*
D03*
X845880Y554990D02*
D03*
X853380D02*
D03*
D120*
X950400Y499110D02*
D03*
X941900D02*
D03*
X890710Y510540D02*
D03*
X882210D02*
D03*
X890710Y488950D02*
D03*
X882210D02*
D03*
X905950Y499110D02*
D03*
X897450D02*
D03*
X908440Y595630D02*
D03*
X916940D02*
D03*
X881380Y551180D02*
D03*
X872880D02*
D03*
X933890Y595630D02*
D03*
X925390D02*
D03*
D121*
X623080Y398290D02*
X679770D01*
X614680Y389890D02*
X623080Y398290D01*
X679770D02*
X681820Y400340D01*
X733184Y440690D02*
X744064Y451570D01*
X614680Y370840D02*
Y389890D01*
X590550Y346710D02*
X614680Y370840D01*
X681820Y400340D02*
Y418820D01*
X682070Y419070D01*
M02*
