G04*
G04 #@! TF.GenerationSoftware,Altium Limited,Altium Designer,25.2.1 (25)*
G04*
G04 Layer_Physical_Order=3*
G04 Layer_Color=16440176*
%FSLAX44Y44*%
%MOMM*%
G71*
G04*
G04 #@! TF.SameCoordinates,75E2CF20-C0F6-4739-B50C-0B6B13628365*
G04*
G04*
G04 #@! TF.FilePolarity,Positive*
G04*
G01*
G75*
%ADD57C,1.6000*%
%ADD58R,1.6000X1.6000*%
%ADD59C,1.5500*%
%ADD60R,1.5500X1.5500*%
%ADD61C,1.0000*%
%ADD62R,1.0000X1.0000*%
%ADD71C,0.2540*%
%ADD73C,0.5000*%
%ADD74C,0.5400*%
%ADD81C,2.4000*%
G04:AMPARAMS|DCode=82|XSize=2.4mm|YSize=2.4mm|CornerRadius=0.6mm|HoleSize=0mm|Usage=FLASHONLY|Rotation=180.000|XOffset=0mm|YOffset=0mm|HoleType=Round|Shape=RoundedRectangle|*
%AMROUNDEDRECTD82*
21,1,2.4000,1.2000,0,0,180.0*
21,1,1.2000,2.4000,0,0,180.0*
1,1,1.2000,-0.6000,0.6000*
1,1,1.2000,0.6000,0.6000*
1,1,1.2000,0.6000,-0.6000*
1,1,1.2000,-0.6000,-0.6000*
%
%ADD82ROUNDEDRECTD82*%
%ADD83R,1.4000X1.4000*%
%ADD84C,1.4000*%
%ADD85C,2.9000*%
%ADD86C,0.5000*%
%ADD87C,0.8000*%
%ADD88C,1.2700*%
%ADD89C,0.6000*%
%ADD90C,0.7000*%
G36*
X426720Y370840D02*
X434340Y363220D01*
X452120D01*
X466090Y377190D01*
Y464820D01*
X469900Y468630D01*
X525780D01*
X535940Y478790D01*
Y551180D01*
X521970Y565150D01*
X458470D01*
X436880Y543560D01*
Y406400D01*
X426720Y396240D01*
Y372110D01*
Y370840D01*
D02*
G37*
D57*
X626110Y994410D02*
D03*
X676910D02*
D03*
D58*
X351110D02*
D03*
X951910D02*
D03*
D59*
X546170Y1132840D02*
D03*
X761860D02*
D03*
D60*
X396170D02*
D03*
X911860D02*
D03*
D61*
X838200Y355600D02*
D03*
Y368100D02*
D03*
Y380600D02*
D03*
D62*
Y393100D02*
D03*
D71*
X823491Y441429D02*
G03*
X825282Y440690I1791J1801D01*
G01*
X621030Y408940D02*
X721360D01*
X730250Y400050D01*
X948670Y422910D02*
X973813Y397767D01*
X894080Y422910D02*
X948670D01*
X876300Y440690D02*
X894080Y422910D01*
X825282Y440690D02*
X876300D01*
X704850Y560070D02*
X823491Y441429D01*
X704850Y560070D02*
X722630Y577850D01*
X628650Y560070D02*
X704850D01*
X835660Y400050D02*
X876300Y440690D01*
X857250Y547680D02*
X857912Y547018D01*
X853750Y551180D02*
X857250Y547680D01*
X730250Y400050D02*
X835660D01*
X603250Y585470D02*
X628650Y560070D01*
X403860Y585470D02*
X603250D01*
X722630Y577850D02*
Y614680D01*
X802640Y533400D02*
Y547152D01*
X804654Y549166D01*
Y579864D01*
X864870Y640080D01*
X913130D01*
X930910Y622300D01*
X804654Y549166D02*
X806668Y551180D01*
X853750D01*
X802640Y533400D02*
X811530Y524510D01*
X833120D01*
X857912Y547018D02*
X863952D01*
X902970Y508000D01*
X859862Y607668D02*
X880462Y587068D01*
X852832Y607668D02*
X859862D01*
X852170Y608330D02*
X852832Y607668D01*
X988770Y1153530D02*
G03*
X963370Y1178930I-25400J0D01*
G01*
Y328930D02*
G03*
X988770Y354330I0J25400D01*
G01*
X344170Y1178930D02*
G03*
X318770Y1153530I0J-25400D01*
G01*
Y354330D02*
G03*
X344170Y328930I25400J0D01*
G01*
X963370D01*
X344170Y1178930D02*
X963370D01*
X988770Y354330D02*
Y1153530D01*
X318770Y354330D02*
Y1153530D01*
D73*
X835660Y395640D02*
X838200Y393100D01*
X835660Y395640D02*
Y400050D01*
D74*
X814070Y541020D02*
X847090D01*
X876300Y511810D01*
Y440690D02*
Y511810D01*
D81*
X581912Y379730D02*
D03*
X720090D02*
D03*
X443230D02*
D03*
X676910Y1120760D02*
D03*
D82*
X632713Y379730D02*
D03*
X770890D02*
D03*
X494030D02*
D03*
X626110Y1120760D02*
D03*
D83*
X562610Y767080D02*
D03*
X911860Y768350D02*
D03*
D84*
X524510Y767080D02*
D03*
X448310D02*
D03*
X410210D02*
D03*
Y614680D02*
D03*
X448310D02*
D03*
X524510D02*
D03*
X562610D02*
D03*
X911860Y615950D02*
D03*
X873760D02*
D03*
X797560D02*
D03*
X759460D02*
D03*
Y768350D02*
D03*
X797560D02*
D03*
X873760D02*
D03*
D85*
X960000Y358790D02*
D03*
X350000D02*
D03*
Y1150000D02*
D03*
X960000D02*
D03*
D86*
X880110Y674370D02*
D03*
X749300Y673100D02*
D03*
X715010Y671830D02*
D03*
X607060Y673100D02*
D03*
X576580D02*
D03*
X547370D02*
D03*
X504190Y581660D02*
D03*
Y593090D02*
D03*
Y603250D02*
D03*
X557530Y627380D02*
D03*
X576580Y621030D02*
D03*
X581660Y627380D02*
D03*
X571500D02*
D03*
X695960Y528320D02*
D03*
X694690Y544830D02*
D03*
X670496Y404684D02*
D03*
X663814Y404726D02*
D03*
X657389Y404684D02*
D03*
X960120Y541020D02*
D03*
X911860Y543560D02*
D03*
X786876Y493870D02*
D03*
X776716Y478630D02*
D03*
X916940Y586740D02*
D03*
X926944Y604364D02*
D03*
X889000Y552450D02*
D03*
D87*
X934720Y466090D02*
D03*
X923290Y529590D02*
D03*
X419100Y414020D02*
D03*
X389890Y421640D02*
D03*
X788670Y599440D02*
D03*
Y586740D02*
D03*
X801370D02*
D03*
X829310Y613410D02*
D03*
X973813Y397767D02*
D03*
X659130Y374650D02*
D03*
Y383540D02*
D03*
X662940Y431800D02*
D03*
X800100Y359410D02*
D03*
Y370840D02*
D03*
Y382270D02*
D03*
X826770Y415290D02*
D03*
X838200D02*
D03*
X853440Y477520D02*
D03*
Y487680D02*
D03*
Y497840D02*
D03*
X929197Y511157D02*
D03*
X405130Y356870D02*
D03*
X372110Y345440D02*
D03*
X692072Y648264D02*
D03*
X681932Y648226D02*
D03*
X692150Y656590D02*
D03*
X681990D02*
D03*
X693420Y631190D02*
D03*
X604520Y595630D02*
D03*
X709930Y603250D02*
D03*
X575310Y655320D02*
D03*
X561340D02*
D03*
X548640D02*
D03*
X905510Y389890D02*
D03*
Y401320D02*
D03*
X904240Y466572D02*
D03*
Y487680D02*
D03*
X968240Y468630D02*
D03*
Y486410D02*
D03*
X668020Y612140D02*
D03*
X337820Y427990D02*
D03*
X687070Y836930D02*
D03*
X793750Y537210D02*
D03*
X580390Y494030D02*
D03*
X571500Y499110D02*
D03*
D88*
X593090Y880110D02*
D03*
X579120D02*
D03*
X901700Y672060D02*
D03*
X621030Y408940D02*
D03*
X730250Y400050D02*
D03*
X722630Y614680D02*
D03*
X814070Y541020D02*
D03*
X759018Y357312D02*
D03*
X919480Y405130D02*
D03*
X618490Y351790D02*
D03*
X899160Y627380D02*
D03*
X969010Y607060D02*
D03*
Y626110D02*
D03*
X419100Y474980D02*
D03*
X347709Y496299D02*
D03*
X342900Y599440D02*
D03*
X482600Y431800D02*
D03*
Y445770D02*
D03*
X347980Y478790D02*
D03*
X419100Y495300D02*
D03*
X341590Y806450D02*
D03*
X469900Y843280D02*
D03*
Y862330D02*
D03*
X342900Y640080D02*
D03*
Y621030D02*
D03*
X876300Y440690D02*
D03*
X485140Y549910D02*
D03*
X878840Y388620D02*
D03*
X660810Y849819D02*
D03*
X657560Y889970D02*
D03*
X675640Y909320D02*
D03*
X629920Y881380D02*
D03*
X523240Y478790D02*
D03*
Y494030D02*
D03*
Y510540D02*
D03*
X518160Y549910D02*
D03*
X500380D02*
D03*
X468630D02*
D03*
X518160Y445770D02*
D03*
Y431800D02*
D03*
X341630Y929640D02*
D03*
X736600Y830580D02*
D03*
X721360D02*
D03*
X358140Y929640D02*
D03*
X969010Y645160D02*
D03*
D89*
X403860Y585470D02*
D03*
X840740Y524510D02*
D03*
X930910Y631190D02*
D03*
Y622300D02*
D03*
X937260Y448310D02*
D03*
X833120Y524510D02*
D03*
X851535Y521335D02*
D03*
X880110Y543560D02*
D03*
X857250Y547680D02*
D03*
X784860Y420370D02*
D03*
X852170Y608330D02*
D03*
X872490Y458470D02*
D03*
X890270Y459740D02*
D03*
X880462Y587068D02*
D03*
X902970Y508000D02*
D03*
X791210Y394970D02*
D03*
X615950Y646430D02*
D03*
X613410Y635000D02*
D03*
X621030Y600710D02*
D03*
X618490Y590550D02*
D03*
X628650Y547370D02*
D03*
Y560070D02*
D03*
D90*
X711200Y624840D02*
D03*
X692150Y614680D02*
D03*
M02*
