M48
;Layer_Color=9474304
;FILE_FORMAT=4:4
METRIC,LZ
;TYPE=PLATED
T01F00S00C0.3000
T02F00S00C0.3500
T03F00S00C0.4000
T04F00S00C0.5000
T05F00S00C0.7112
T06F00S00C0.9000
T07F00S00C1.0000
T08F00S00C1.0500
T09F00S00C1.6000
;TYPE=NON_PLATED
T10F00S00C3.0000
%
T01
X0079121Y0039497
X0087249Y0045847
X0089027Y0045974
X0093726Y0044831
X0090297Y00508
X0091186Y0054356
X00889Y0055245
X0088011Y0054356
X0085725Y0054768
X00851535Y00521335
X0084074Y0052451
X0083312
X0085217Y0060833
X00880462Y00587068
X0091694Y0058674
X00926944Y00604364
X0093091Y006223
Y0063119
X0088011Y0067437
X0096012Y0054102
X00786876Y0049387
X00776716Y0047863
X0078486Y0042037
X00670496Y00404684
X00663814Y00404726
X00657389Y00404684
X0069596Y0052832
X0069469Y0054483
X0062865Y0054737
Y0056007
X0061849Y0059055
X0062103Y0060071
X0061341Y00635
X0061595Y0064643
X0060706Y006731
X0057658
X0054737
X0055753Y0062738
X005715
X0058166
X0057658Y0062103
X0050419Y0060325
Y0059309
Y0058166
X0040386Y0058547
X0071501Y0067183
X007493Y006731
T02
X0069215Y0061468
X007112Y0062484
T03
X0037211Y0034544
X0040513Y0035687
X0065913Y0037465
Y0038354
X008001Y0038227
Y0037084
Y0035941
X0090551Y0038989
Y0040132
X00973813Y00397767
X0093472Y0046609
X00929197Y00511157
X0092329Y0052959
X0085344Y0049784
Y0048768
Y0047752
X008382Y0041529
X0082677
X0080137Y0058674
X0082931Y0061341
X0078867Y0059944
Y0058674
X0070993Y0060325
X0069342Y0063119
X00692072Y00648264
X0069215Y0065659
X0068199
X00681932Y00648226
X0057531Y0065532
X0056134
X0054864
X0060452Y0059563
X0058039Y0049403
X0066294Y004318
X004191Y0041402
X0038989Y0042164
T04
X008382Y003556
Y003681
Y003806
Y003931
X0090424Y00466572
Y0048768
X0096824Y0048641
Y0046863
X0079375Y0053721
X0066802Y0061214
X005715Y0049911
X0033782Y0042799
X0068707Y0083693
T05
X0061849Y0035179
X00759018Y00357312
X0087884Y0038862
X008763Y0044069
X0091948Y0040513
X0081407Y0054102
X0089916Y0062738
X009017Y0067206
X0096901Y0064516
Y0062611
Y0060706
X0072263Y0061468
X0073025Y0040005
X0062103Y0040894
X0051816Y004318
Y0044577
X004826
Y004318
X0052324Y0047879
Y0049403
Y0051054
X0051816Y0054991
X0050038
X0048514
X0046863
X004191Y004953
Y0047498
X0034798Y0047879
X00347709Y00496299
X003429Y0059944
Y0062103
Y0064008
X0034159Y0080645
X0034163Y0092964
X0035814
X004699Y0086233
Y0084328
X0057912Y0088011
X0059309
X0062992Y0088138
X0065756Y0088997
X0067564Y0090932
X0066081Y00849819
X0072136Y0083058
X007366
T06
X0079756Y0061595
X0087376
X0091186
Y0076835
X0087376
X0079756
X0075946
Y0061595
X0056261Y0061468
X0052451
X0044831
X0041021
Y0076708
X0044831
X0052451
X0056261
T07
X0039617Y0113284
X0054617
X0076186
X0091186
T08
X0035111Y0099441
X0062611
X0067691
X0095191
T09
X0044323Y0037973
X0049403
X00581912
X00632713
X0072009
X0077089
X0067691Y0112076
X0062611
T10
X0035Y0035879
X0096
X0035Y0115
X0096
M30
