G04*
G04 #@! TF.GenerationSoftware,Altium Limited,Altium Designer,25.2.1 (25)*
G04*
G04 Layer_Physical_Order=2*
G04 Layer_Color=36540*
%FSLAX44Y44*%
%MOMM*%
G71*
G04*
G04 #@! TF.SameCoordinates,75E2CF20-C0F6-4739-B50C-0B6B13628365*
G04*
G04*
G04 #@! TF.FilePolarity,Positive*
G04*
G01*
G75*
%ADD57C,1.6000*%
%ADD58R,1.6000X1.6000*%
%ADD59C,1.5500*%
%ADD60R,1.5500X1.5500*%
%ADD61C,1.0000*%
%ADD62R,1.0000X1.0000*%
%ADD71C,0.2540*%
%ADD81C,2.4000*%
G04:AMPARAMS|DCode=82|XSize=2.4mm|YSize=2.4mm|CornerRadius=0.6mm|HoleSize=0mm|Usage=FLASHONLY|Rotation=180.000|XOffset=0mm|YOffset=0mm|HoleType=Round|Shape=RoundedRectangle|*
%AMROUNDEDRECTD82*
21,1,2.4000,1.2000,0,0,180.0*
21,1,1.2000,2.4000,0,0,180.0*
1,1,1.2000,-0.6000,0.6000*
1,1,1.2000,0.6000,0.6000*
1,1,1.2000,0.6000,-0.6000*
1,1,1.2000,-0.6000,-0.6000*
%
%ADD82ROUNDEDRECTD82*%
%ADD83R,1.4000X1.4000*%
%ADD84C,1.4000*%
%ADD85C,2.9000*%
%ADD86C,0.5000*%
%ADD87C,0.8000*%
%ADD88C,1.2700*%
%ADD89C,0.6000*%
%ADD90C,0.7000*%
G36*
X318378Y1168226D02*
X317652Y1167042D01*
X315865Y1162727D01*
X314775Y1158186D01*
X314408Y1153530D01*
X314416D01*
Y354330D01*
X314408D01*
X314775Y349674D01*
X315865Y345133D01*
X317652Y340818D01*
X318963Y338679D01*
X316955Y337095D01*
X309880Y344170D01*
Y1163320D01*
X316369Y1169809D01*
X318378Y1168226D01*
D02*
G37*
G36*
X967487Y1174229D02*
X971446Y1173028D01*
X975095Y1171078D01*
X978293Y1168453D01*
X980918Y1165255D01*
X982868Y1161606D01*
X984069Y1157647D01*
X984455Y1153726D01*
X984416Y1153530D01*
Y354330D01*
X984455Y354134D01*
X984069Y350213D01*
X982868Y346254D01*
X980918Y342605D01*
X978293Y339407D01*
X975095Y336782D01*
X971446Y334832D01*
X967487Y333631D01*
X963566Y333245D01*
X963370Y333284D01*
X344170D01*
X343974Y333245D01*
X340053Y333631D01*
X336094Y334832D01*
X332445Y336782D01*
X329247Y339407D01*
X326622Y342605D01*
X324672Y346254D01*
X323471Y350213D01*
X323085Y354134D01*
X323124Y354330D01*
Y1153530D01*
X323085Y1153726D01*
X323471Y1157647D01*
X324672Y1161606D01*
X326622Y1165255D01*
X329247Y1168453D01*
X332445Y1171078D01*
X336094Y1173028D01*
X340053Y1174229D01*
X343974Y1174615D01*
X344170Y1174576D01*
X963370D01*
X963566Y1174615D01*
X967487Y1174229D01*
D02*
G37*
G36*
X975723Y1183277D02*
X974284Y1181124D01*
X972567Y1181835D01*
X968026Y1182925D01*
X963370Y1183292D01*
Y1183284D01*
X344170D01*
Y1183292D01*
X339514Y1182925D01*
X334973Y1181835D01*
X330658Y1180048D01*
X329474Y1179322D01*
X327891Y1181331D01*
X335280Y1188720D01*
X970280D01*
X975723Y1183277D01*
D02*
G37*
%LPC*%
G36*
X961773Y1168000D02*
X958227D01*
X954750Y1167308D01*
X951474Y1165951D01*
X948526Y1163981D01*
X946019Y1161474D01*
X944049Y1158526D01*
X942692Y1155250D01*
X942000Y1151773D01*
Y1148227D01*
X942692Y1144750D01*
X944049Y1141474D01*
X946019Y1138526D01*
X948526Y1136019D01*
X951474Y1134049D01*
X954750Y1132692D01*
X958227Y1132000D01*
X961773D01*
X965250Y1132692D01*
X968526Y1134049D01*
X971474Y1136019D01*
X973981Y1138526D01*
X975951Y1141474D01*
X977308Y1144750D01*
X978000Y1148227D01*
Y1151773D01*
X977308Y1155250D01*
X975951Y1158526D01*
X973981Y1161474D01*
X971474Y1163981D01*
X968526Y1165951D01*
X965250Y1167308D01*
X961773Y1168000D01*
D02*
G37*
G36*
X351773D02*
X348227D01*
X344750Y1167308D01*
X341474Y1165951D01*
X338526Y1163981D01*
X336018Y1161474D01*
X334049Y1158526D01*
X332692Y1155250D01*
X332000Y1151773D01*
Y1148227D01*
X332692Y1144750D01*
X334049Y1141474D01*
X336018Y1138526D01*
X338526Y1136019D01*
X341474Y1134049D01*
X344750Y1132692D01*
X348227Y1132000D01*
X351773D01*
X355250Y1132692D01*
X358526Y1134049D01*
X361474Y1136019D01*
X363982Y1138526D01*
X365951Y1141474D01*
X367308Y1144750D01*
X368000Y1148227D01*
Y1151773D01*
X367308Y1155250D01*
X365951Y1158526D01*
X363982Y1161474D01*
X361474Y1163981D01*
X358526Y1165951D01*
X355250Y1167308D01*
X351773Y1168000D01*
D02*
G37*
G36*
X922610Y1143590D02*
X901110D01*
Y1122090D01*
X922610D01*
Y1143590D01*
D02*
G37*
G36*
X406920D02*
X385420D01*
Y1122090D01*
X406920D01*
Y1143590D01*
D02*
G37*
G36*
X678387Y1135760D02*
X675433D01*
X672535Y1135184D01*
X669805Y1134053D01*
X667348Y1132411D01*
X665259Y1130322D01*
X663617Y1127865D01*
X662486Y1125135D01*
X661910Y1122237D01*
Y1119283D01*
X662486Y1116385D01*
X663617Y1113655D01*
X665259Y1111198D01*
X667348Y1109109D01*
X669805Y1107467D01*
X672535Y1106337D01*
X675433Y1105760D01*
X678387D01*
X681285Y1106337D01*
X684015Y1107467D01*
X686472Y1109109D01*
X688561Y1111198D01*
X690203Y1113655D01*
X691333Y1116385D01*
X691910Y1119283D01*
Y1122237D01*
X691333Y1125135D01*
X690203Y1127865D01*
X688561Y1130322D01*
X686472Y1132411D01*
X684015Y1134053D01*
X681285Y1135184D01*
X678387Y1135760D01*
D02*
G37*
G36*
X632110Y1135838D02*
X620110D01*
X617761Y1135528D01*
X615571Y1134622D01*
X613691Y1133179D01*
X612248Y1131299D01*
X611342Y1129109D01*
X611032Y1126760D01*
Y1114760D01*
X611342Y1112411D01*
X612248Y1110221D01*
X613691Y1108341D01*
X615571Y1106898D01*
X617761Y1105992D01*
X620110Y1105682D01*
X632110D01*
X634459Y1105992D01*
X636649Y1106898D01*
X638529Y1108341D01*
X639972Y1110221D01*
X640878Y1112411D01*
X641188Y1114760D01*
Y1126760D01*
X640878Y1129109D01*
X639972Y1131299D01*
X638529Y1133179D01*
X636649Y1134622D01*
X634459Y1135528D01*
X632110Y1135838D01*
D02*
G37*
G36*
X962910Y1005410D02*
X940910D01*
Y983410D01*
X962910D01*
Y1005410D01*
D02*
G37*
G36*
X678358D02*
X675462D01*
X672664Y1004660D01*
X670156Y1003212D01*
X668108Y1001164D01*
X666660Y998656D01*
X665910Y995858D01*
Y992962D01*
X666660Y990164D01*
X668108Y987656D01*
X670156Y985608D01*
X672664Y984160D01*
X675462Y983410D01*
X678358D01*
X681156Y984160D01*
X683664Y985608D01*
X685712Y987656D01*
X687160Y990164D01*
X687910Y992962D01*
Y995858D01*
X687160Y998656D01*
X685712Y1001164D01*
X683664Y1003212D01*
X681156Y1004660D01*
X678358Y1005410D01*
D02*
G37*
G36*
X627558D02*
X624662D01*
X621864Y1004660D01*
X619356Y1003212D01*
X617308Y1001164D01*
X615860Y998656D01*
X615110Y995858D01*
Y992962D01*
X615860Y990164D01*
X617308Y987656D01*
X619356Y985608D01*
X621864Y984160D01*
X624662Y983410D01*
X627558D01*
X630356Y984160D01*
X632864Y985608D01*
X634912Y987656D01*
X636360Y990164D01*
X637110Y992962D01*
Y995858D01*
X636360Y998656D01*
X634912Y1001164D01*
X632864Y1003212D01*
X630356Y1004660D01*
X627558Y1005410D01*
D02*
G37*
G36*
X362110D02*
X340110D01*
Y983410D01*
X362110D01*
Y1005410D01*
D02*
G37*
G36*
X359371Y938990D02*
X356909D01*
X354531Y938353D01*
X352399Y937122D01*
X351537Y936260D01*
X349885Y935661D01*
X348233Y936260D01*
X347371Y937122D01*
X345239Y938353D01*
X342861Y938990D01*
X340399D01*
X338021Y938353D01*
X335889Y937122D01*
X334148Y935381D01*
X332917Y933249D01*
X332280Y930871D01*
Y928409D01*
X332917Y926031D01*
X334148Y923899D01*
X335889Y922158D01*
X338021Y920927D01*
X340399Y920290D01*
X342861D01*
X345239Y920927D01*
X347371Y922158D01*
X348233Y923020D01*
X349885Y923619D01*
X351537Y923020D01*
X352399Y922158D01*
X354531Y920927D01*
X356909Y920290D01*
X359371D01*
X361749Y920927D01*
X363881Y922158D01*
X365622Y923899D01*
X366853Y926031D01*
X367490Y928409D01*
Y930871D01*
X366853Y933249D01*
X365622Y935381D01*
X363881Y937122D01*
X361749Y938353D01*
X359371Y938990D01*
D02*
G37*
G36*
X676871Y918670D02*
X674409D01*
X672031Y918033D01*
X669899Y916802D01*
X668158Y915061D01*
X666927Y912929D01*
X666290Y910551D01*
Y908089D01*
X666927Y905711D01*
X668158Y903579D01*
X669899Y901838D01*
X672031Y900607D01*
X674409Y899970D01*
X676871D01*
X679249Y900607D01*
X681381Y901838D01*
X683122Y903579D01*
X684353Y905711D01*
X684990Y908089D01*
Y910551D01*
X684353Y912929D01*
X683122Y915061D01*
X681381Y916802D01*
X679249Y918033D01*
X676871Y918670D01*
D02*
G37*
G36*
X658791Y899320D02*
X656329D01*
X653951Y898683D01*
X651819Y897452D01*
X650078Y895711D01*
X648847Y893579D01*
X648210Y891201D01*
Y888739D01*
X648847Y886361D01*
X650078Y884229D01*
X651819Y882488D01*
X653951Y881257D01*
X656329Y880620D01*
X658791D01*
X661169Y881257D01*
X663301Y882488D01*
X665042Y884229D01*
X666273Y886361D01*
X666910Y888739D01*
Y891201D01*
X666273Y893579D01*
X665042Y895711D01*
X663301Y897452D01*
X661169Y898683D01*
X658791Y899320D01*
D02*
G37*
G36*
X631151Y890730D02*
X628689D01*
X626311Y890093D01*
X624179Y888862D01*
X622438Y887121D01*
X621207Y884989D01*
X620570Y882611D01*
Y880149D01*
X621207Y877771D01*
X622438Y875639D01*
X624179Y873898D01*
X626311Y872667D01*
X628689Y872030D01*
X631151D01*
X633529Y872667D01*
X635661Y873898D01*
X637402Y875639D01*
X638633Y877771D01*
X639270Y880149D01*
Y882611D01*
X638633Y884989D01*
X637402Y887121D01*
X635661Y888862D01*
X633529Y890093D01*
X631151Y890730D01*
D02*
G37*
G36*
X471131Y871680D02*
X468669D01*
X466291Y871043D01*
X464159Y869812D01*
X462418Y868071D01*
X461187Y865939D01*
X460550Y863561D01*
Y861099D01*
X461187Y858721D01*
X462418Y856589D01*
X464159Y854848D01*
X465244Y854222D01*
Y851388D01*
X464159Y850762D01*
X462418Y849021D01*
X461187Y846889D01*
X460550Y844511D01*
Y842049D01*
X461187Y839671D01*
X462418Y837539D01*
X464159Y835798D01*
X466291Y834567D01*
X468669Y833930D01*
X471131D01*
X473509Y834567D01*
X475641Y835798D01*
X477382Y837539D01*
X478613Y839671D01*
X479250Y842049D01*
Y844511D01*
X478613Y846889D01*
X477382Y849021D01*
X475641Y850762D01*
X474556Y851388D01*
Y854222D01*
X475641Y854848D01*
X477382Y856589D01*
X478613Y858721D01*
X479250Y861099D01*
Y863561D01*
X478613Y865939D01*
X477382Y868071D01*
X475641Y869812D01*
X473509Y871043D01*
X471131Y871680D01*
D02*
G37*
G36*
X687992Y843930D02*
X686148D01*
X684368Y843453D01*
X682772Y842531D01*
X681469Y841228D01*
X680547Y839632D01*
X680070Y837852D01*
Y836008D01*
X680547Y834228D01*
X681469Y832632D01*
X682772Y831329D01*
X684368Y830407D01*
X686148Y829930D01*
X687992D01*
X689772Y830407D01*
X691368Y831329D01*
X692671Y832632D01*
X693593Y834228D01*
X694070Y836008D01*
Y837852D01*
X693593Y839632D01*
X692671Y841228D01*
X691368Y842531D01*
X689772Y843453D01*
X687992Y843930D01*
D02*
G37*
G36*
X342821Y815800D02*
X340359D01*
X337981Y815163D01*
X335849Y813932D01*
X334108Y812191D01*
X332877Y810059D01*
X332240Y807681D01*
Y805219D01*
X332877Y802841D01*
X334108Y800709D01*
X335849Y798968D01*
X337981Y797737D01*
X340359Y797100D01*
X342821D01*
X345199Y797737D01*
X347331Y798968D01*
X349072Y800709D01*
X350303Y802841D01*
X350940Y805219D01*
Y807681D01*
X350303Y810059D01*
X349072Y812191D01*
X347331Y813932D01*
X345199Y815163D01*
X342821Y815800D01*
D02*
G37*
G36*
X921860Y778350D02*
X901860D01*
Y758350D01*
X921860D01*
Y778350D01*
D02*
G37*
G36*
X875077D02*
X872443D01*
X869900Y777669D01*
X867620Y776352D01*
X865758Y774490D01*
X864442Y772210D01*
X863760Y769667D01*
Y767033D01*
X864442Y764490D01*
X865758Y762210D01*
X867620Y760348D01*
X869900Y759032D01*
X872443Y758350D01*
X875077D01*
X877620Y759032D01*
X879900Y760348D01*
X881762Y762210D01*
X883079Y764490D01*
X883760Y767033D01*
Y769667D01*
X883079Y772210D01*
X881762Y774490D01*
X879900Y776352D01*
X877620Y777669D01*
X875077Y778350D01*
D02*
G37*
G36*
X760777D02*
X758143D01*
X755600Y777669D01*
X753320Y776352D01*
X751458Y774490D01*
X750142Y772210D01*
X749460Y769667D01*
Y767033D01*
X750142Y764490D01*
X751458Y762210D01*
X753320Y760348D01*
X755600Y759032D01*
X758143Y758350D01*
X760777D01*
X763320Y759032D01*
X765600Y760348D01*
X767462Y762210D01*
X768779Y764490D01*
X769460Y767033D01*
Y769667D01*
X768779Y772210D01*
X767462Y774490D01*
X765600Y776352D01*
X763320Y777669D01*
X760777Y778350D01*
D02*
G37*
G36*
X572610Y777080D02*
X552610D01*
Y757080D01*
X572610D01*
Y777080D01*
D02*
G37*
G36*
X525826D02*
X523194D01*
X520650Y776398D01*
X518370Y775082D01*
X516508Y773220D01*
X515191Y770940D01*
X514510Y768397D01*
Y765763D01*
X515191Y763220D01*
X516508Y760940D01*
X518370Y759078D01*
X520650Y757762D01*
X523194Y757080D01*
X525826D01*
X528370Y757762D01*
X530650Y759078D01*
X532512Y760940D01*
X533829Y763220D01*
X534510Y765763D01*
Y768397D01*
X533829Y770940D01*
X532512Y773220D01*
X530650Y775082D01*
X528370Y776398D01*
X525826Y777080D01*
D02*
G37*
G36*
X411526D02*
X408894D01*
X406350Y776398D01*
X404070Y775082D01*
X402208Y773220D01*
X400891Y770940D01*
X400210Y768397D01*
Y765763D01*
X400891Y763220D01*
X402208Y760940D01*
X404070Y759078D01*
X406350Y757762D01*
X408894Y757080D01*
X411526D01*
X414070Y757762D01*
X416350Y759078D01*
X418212Y760940D01*
X419529Y763220D01*
X420210Y765763D01*
Y768397D01*
X419529Y770940D01*
X418212Y773220D01*
X416350Y775082D01*
X414070Y776398D01*
X411526Y777080D01*
D02*
G37*
G36*
X902931Y681410D02*
X900469D01*
X898091Y680773D01*
X895959Y679542D01*
X894218Y677801D01*
X892987Y675669D01*
X892350Y673291D01*
Y670829D01*
X892987Y668451D01*
X894218Y666319D01*
X895959Y664578D01*
X898091Y663347D01*
X900469Y662710D01*
X902931D01*
X905309Y663347D01*
X907441Y664578D01*
X909182Y666319D01*
X910413Y668451D01*
X911050Y670829D01*
Y673291D01*
X910413Y675669D01*
X909182Y677801D01*
X907441Y679542D01*
X905309Y680773D01*
X902931Y681410D01*
D02*
G37*
G36*
X617144Y652430D02*
X614757D01*
X612551Y651517D01*
X610863Y649829D01*
X609950Y647624D01*
Y645237D01*
X610863Y643031D01*
X610156Y640146D01*
X610011Y640087D01*
X608323Y638399D01*
X607410Y636194D01*
Y633806D01*
X608323Y631601D01*
X610011Y629913D01*
X612216Y629000D01*
X614604D01*
X616809Y629913D01*
X618497Y631601D01*
X619410Y633806D01*
Y636194D01*
X618497Y638399D01*
X619204Y641283D01*
X619349Y641343D01*
X621037Y643031D01*
X621950Y645237D01*
Y647624D01*
X621037Y649829D01*
X619349Y651517D01*
X617144Y652430D01*
D02*
G37*
G36*
X932104Y628300D02*
X929716D01*
X927511Y627387D01*
X925823Y625699D01*
X924910Y623493D01*
Y621106D01*
X925823Y618901D01*
X927511Y617213D01*
X929716Y616300D01*
X932104D01*
X934309Y617213D01*
X935997Y618901D01*
X936910Y621106D01*
Y623493D01*
X935997Y625699D01*
X934309Y627387D01*
X932104Y628300D01*
D02*
G37*
G36*
X344131Y649430D02*
X341669D01*
X339291Y648793D01*
X337159Y647562D01*
X335418Y645821D01*
X334187Y643689D01*
X333550Y641311D01*
Y638849D01*
X334187Y636471D01*
X335418Y634339D01*
X337159Y632598D01*
X338244Y631972D01*
Y629138D01*
X337159Y628512D01*
X335418Y626771D01*
X334187Y624639D01*
X333550Y622261D01*
Y619799D01*
X334187Y617421D01*
X335418Y615289D01*
X337159Y613548D01*
X339291Y612317D01*
X341669Y611680D01*
X344131D01*
X346509Y612317D01*
X348641Y613548D01*
X350382Y615289D01*
X351613Y617421D01*
X352250Y619799D01*
Y622261D01*
X351613Y624639D01*
X350382Y626771D01*
X348641Y628512D01*
X347556Y629138D01*
Y631972D01*
X348641Y632598D01*
X350382Y634339D01*
X351613Y636471D01*
X352250Y638849D01*
Y641311D01*
X351613Y643689D01*
X350382Y645821D01*
X348641Y647562D01*
X346509Y648793D01*
X344131Y649430D01*
D02*
G37*
G36*
X693006Y621180D02*
X691294D01*
X689641Y620737D01*
X688159Y619881D01*
X686949Y618671D01*
X686093Y617189D01*
X685650Y615536D01*
Y613824D01*
X686093Y612171D01*
X686949Y610689D01*
X688159Y609479D01*
X689641Y608623D01*
X691294Y608180D01*
X693006D01*
X694659Y608623D01*
X696141Y609479D01*
X697351Y610689D01*
X698207Y612171D01*
X698650Y613824D01*
Y615536D01*
X698207Y617189D01*
X697351Y618671D01*
X696141Y619881D01*
X694659Y620737D01*
X693006Y621180D01*
D02*
G37*
G36*
X900391Y636730D02*
X897929D01*
X895551Y636093D01*
X893419Y634862D01*
X891678Y633121D01*
X890447Y630989D01*
X889810Y628611D01*
Y626149D01*
X890447Y623771D01*
X891678Y621639D01*
X893419Y619898D01*
X895551Y618667D01*
X897929Y618030D01*
X899435D01*
X900640Y617650D01*
X901860Y615794D01*
Y614633D01*
X902542Y612090D01*
X903858Y609810D01*
X905720Y607948D01*
X908000Y606632D01*
X910544Y605950D01*
X913176D01*
X915720Y606632D01*
X918000Y607948D01*
X919862Y609810D01*
X921179Y612090D01*
X921860Y614633D01*
Y617267D01*
X921179Y619810D01*
X919862Y622090D01*
X918000Y623952D01*
X915720Y625269D01*
X913176Y625950D01*
X910903D01*
X910512Y625983D01*
X908510Y628035D01*
Y628611D01*
X907873Y630989D01*
X906642Y633121D01*
X904901Y634862D01*
X902769Y636093D01*
X900391Y636730D01*
D02*
G37*
G36*
X875077Y625950D02*
X872443D01*
X869900Y625269D01*
X867620Y623952D01*
X865758Y622090D01*
X864442Y619810D01*
X863760Y617267D01*
Y614633D01*
X864442Y612090D01*
X865758Y609810D01*
X867620Y607948D01*
X869900Y606632D01*
X872443Y605950D01*
X875077D01*
X877620Y606632D01*
X879900Y607948D01*
X881762Y609810D01*
X883079Y612090D01*
X883760Y614633D01*
Y617267D01*
X883079Y619810D01*
X881762Y622090D01*
X879900Y623952D01*
X877620Y625269D01*
X875077Y625950D01*
D02*
G37*
G36*
X798876D02*
X796244D01*
X793700Y625269D01*
X791420Y623952D01*
X789558Y622090D01*
X788242Y619810D01*
X787560Y617267D01*
Y614633D01*
X788242Y612090D01*
X789558Y609810D01*
X791420Y607948D01*
X793700Y606632D01*
X796244Y605950D01*
X798876D01*
X801420Y606632D01*
X803700Y607948D01*
X805562Y609810D01*
X806879Y612090D01*
X807560Y614633D01*
Y617267D01*
X806879Y619810D01*
X805562Y622090D01*
X803700Y623952D01*
X801420Y625269D01*
X798876Y625950D01*
D02*
G37*
G36*
X760777D02*
X758143D01*
X755600Y625269D01*
X753320Y623952D01*
X751458Y622090D01*
X750142Y619810D01*
X749460Y617267D01*
Y614633D01*
X750142Y612090D01*
X751458Y609810D01*
X753320Y607948D01*
X755600Y606632D01*
X758143Y605950D01*
X760777D01*
X763320Y606632D01*
X765600Y607948D01*
X767462Y609810D01*
X768779Y612090D01*
X769460Y614633D01*
Y617267D01*
X768779Y619810D01*
X767462Y622090D01*
X765600Y623952D01*
X763320Y625269D01*
X760777Y625950D01*
D02*
G37*
G36*
X712056Y631340D02*
X710344D01*
X708691Y630897D01*
X707209Y630041D01*
X705999Y628831D01*
X705143Y627349D01*
X704700Y625696D01*
Y623984D01*
X705143Y622331D01*
X705999Y620849D01*
X707209Y619639D01*
X708691Y618783D01*
X710344Y618340D01*
X711301D01*
X712874Y616853D01*
X713317Y616048D01*
X713280Y615911D01*
Y613449D01*
X713917Y611071D01*
X715148Y608939D01*
X716889Y607198D01*
X719021Y605967D01*
X721399Y605330D01*
X723861D01*
X726239Y605967D01*
X728371Y607198D01*
X730112Y608939D01*
X731343Y611071D01*
X731980Y613449D01*
Y615911D01*
X731343Y618289D01*
X730112Y620421D01*
X728371Y622162D01*
X726239Y623393D01*
X723861Y624030D01*
X721399D01*
X720117Y623686D01*
X717935Y625176D01*
X717700Y625563D01*
Y625696D01*
X717257Y627349D01*
X716401Y628831D01*
X715191Y630041D01*
X713709Y630897D01*
X712056Y631340D01*
D02*
G37*
G36*
X668942Y619140D02*
X667098D01*
X665318Y618663D01*
X663722Y617741D01*
X662419Y616438D01*
X661497Y614842D01*
X661020Y613062D01*
Y611218D01*
X661497Y609438D01*
X662419Y607842D01*
X663722Y606539D01*
X665318Y605617D01*
X667098Y605140D01*
X668942D01*
X670722Y605617D01*
X672318Y606539D01*
X673621Y607842D01*
X674543Y609438D01*
X675020Y611218D01*
Y613062D01*
X674543Y614842D01*
X673621Y616438D01*
X672318Y617741D01*
X670722Y618663D01*
X668942Y619140D01*
D02*
G37*
G36*
X563927Y624680D02*
X561293D01*
X558750Y623998D01*
X556470Y622682D01*
X554608Y620820D01*
X553292Y618540D01*
X552610Y615997D01*
Y613363D01*
X553292Y610820D01*
X554608Y608540D01*
X556470Y606678D01*
X558750Y605362D01*
X561293Y604680D01*
X563927D01*
X566470Y605362D01*
X568750Y606678D01*
X570612Y608540D01*
X571928Y610820D01*
X572610Y613363D01*
Y615997D01*
X571928Y618540D01*
X570612Y620820D01*
X568750Y622682D01*
X566470Y623998D01*
X563927Y624680D01*
D02*
G37*
G36*
X525826D02*
X523194D01*
X520650Y623998D01*
X518370Y622682D01*
X516508Y620820D01*
X515191Y618540D01*
X514510Y615997D01*
Y613363D01*
X515191Y610820D01*
X516508Y608540D01*
X518370Y606678D01*
X520650Y605362D01*
X523194Y604680D01*
X525826D01*
X528370Y605362D01*
X530650Y606678D01*
X532512Y608540D01*
X533829Y610820D01*
X534510Y613363D01*
Y615997D01*
X533829Y618540D01*
X532512Y620820D01*
X530650Y622682D01*
X528370Y623998D01*
X525826Y624680D01*
D02*
G37*
G36*
X449627D02*
X446993D01*
X444450Y623998D01*
X442170Y622682D01*
X440308Y620820D01*
X438992Y618540D01*
X438310Y615997D01*
Y613363D01*
X438992Y610820D01*
X440308Y608540D01*
X442170Y606678D01*
X444450Y605362D01*
X446993Y604680D01*
X449627D01*
X452170Y605362D01*
X454450Y606678D01*
X456312Y608540D01*
X457629Y610820D01*
X458310Y613363D01*
Y615997D01*
X457629Y618540D01*
X456312Y620820D01*
X454450Y622682D01*
X452170Y623998D01*
X449627Y624680D01*
D02*
G37*
G36*
X411526D02*
X408894D01*
X406350Y623998D01*
X404070Y622682D01*
X402208Y620820D01*
X400891Y618540D01*
X400210Y615997D01*
Y613363D01*
X400891Y610820D01*
X402208Y608540D01*
X404070Y606678D01*
X406350Y605362D01*
X408894Y604680D01*
X411526D01*
X414070Y605362D01*
X416350Y606678D01*
X418212Y608540D01*
X419529Y610820D01*
X420210Y613363D01*
Y615997D01*
X419529Y618540D01*
X418212Y620820D01*
X416350Y622682D01*
X414070Y623998D01*
X411526Y624680D01*
D02*
G37*
G36*
X853363Y614330D02*
X850976D01*
X848771Y613417D01*
X847083Y611729D01*
X846170Y609524D01*
Y607136D01*
X847083Y604931D01*
X848771Y603243D01*
X850976Y602330D01*
X853363D01*
X855569Y603243D01*
X857257Y604931D01*
X858170Y607136D01*
Y609524D01*
X857257Y611729D01*
X855569Y613417D01*
X853363Y614330D01*
D02*
G37*
G36*
X928038Y609864D02*
X925850D01*
X923829Y609027D01*
X922282Y607480D01*
X921444Y605458D01*
Y603270D01*
X922282Y601249D01*
X923829Y599702D01*
X925850Y598864D01*
X928038D01*
X930060Y599702D01*
X931607Y601249D01*
X932444Y603270D01*
Y605458D01*
X931607Y607480D01*
X930060Y609027D01*
X928038Y609864D01*
D02*
G37*
G36*
X970241Y654510D02*
X967779D01*
X965401Y653873D01*
X963269Y652642D01*
X961528Y650901D01*
X960297Y648769D01*
X959660Y646391D01*
Y643929D01*
X960297Y641551D01*
X961528Y639419D01*
X963269Y637678D01*
X964354Y637052D01*
Y634218D01*
X963269Y633592D01*
X961528Y631851D01*
X960297Y629719D01*
X959660Y627341D01*
Y624879D01*
X960297Y622501D01*
X961528Y620369D01*
X963269Y618628D01*
X964354Y618002D01*
Y615168D01*
X963269Y614542D01*
X961528Y612801D01*
X960297Y610669D01*
X959660Y608291D01*
Y605829D01*
X960297Y603451D01*
X961528Y601319D01*
X963269Y599578D01*
X965401Y598347D01*
X967779Y597710D01*
X970241D01*
X972619Y598347D01*
X974751Y599578D01*
X976492Y601319D01*
X977723Y603451D01*
X978360Y605829D01*
Y608291D01*
X977723Y610669D01*
X976492Y612801D01*
X974751Y614542D01*
X973666Y615168D01*
Y618002D01*
X974751Y618628D01*
X976492Y620369D01*
X977723Y622501D01*
X978360Y624879D01*
Y627341D01*
X977723Y629719D01*
X976492Y631851D01*
X974751Y633592D01*
X973666Y634218D01*
Y637052D01*
X974751Y637678D01*
X976492Y639419D01*
X977723Y641551D01*
X978360Y643929D01*
Y646391D01*
X977723Y648769D01*
X976492Y650901D01*
X974751Y652642D01*
X972619Y653873D01*
X970241Y654510D01*
D02*
G37*
G36*
X344131Y608790D02*
X341669D01*
X339291Y608153D01*
X337159Y606922D01*
X335418Y605181D01*
X334187Y603049D01*
X333550Y600671D01*
Y598209D01*
X334187Y595831D01*
X335418Y593699D01*
X337159Y591958D01*
X339291Y590727D01*
X341669Y590090D01*
X344131D01*
X346509Y590727D01*
X348641Y591958D01*
X350382Y593699D01*
X351613Y595831D01*
X352250Y598209D01*
Y600671D01*
X351613Y603049D01*
X350382Y605181D01*
X348641Y606922D01*
X346509Y608153D01*
X344131Y608790D01*
D02*
G37*
G36*
X622224Y606710D02*
X619837D01*
X617631Y605797D01*
X615943Y604109D01*
X615030Y601903D01*
Y599516D01*
X615439Y598530D01*
X615091Y595636D01*
X613403Y593949D01*
X612490Y591744D01*
Y589356D01*
X613403Y587151D01*
X615091Y585463D01*
X617296Y584550D01*
X619683D01*
X621889Y585463D01*
X623577Y587151D01*
X624490Y589356D01*
Y591744D01*
X624081Y592730D01*
X624429Y595624D01*
X626117Y597311D01*
X627030Y599516D01*
Y601903D01*
X626117Y604109D01*
X624429Y605797D01*
X622224Y606710D01*
D02*
G37*
G36*
X918034Y592240D02*
X915846D01*
X913824Y591403D01*
X912277Y589855D01*
X911440Y587834D01*
Y585646D01*
X912277Y583624D01*
X913824Y582077D01*
X915846Y581240D01*
X918034D01*
X920055Y582077D01*
X921603Y583624D01*
X922440Y585646D01*
Y587834D01*
X921603Y589855D01*
X920055Y591403D01*
X918034Y592240D01*
D02*
G37*
G36*
X881656Y593068D02*
X879269D01*
X877064Y592154D01*
X875376Y590466D01*
X874462Y588261D01*
Y585874D01*
X875376Y583669D01*
X877064Y581981D01*
X879269Y581068D01*
X881656D01*
X883861Y581981D01*
X885549Y583669D01*
X886462Y585874D01*
Y588261D01*
X885549Y590466D01*
X883861Y592154D01*
X881656Y593068D01*
D02*
G37*
G36*
X405053Y591470D02*
X402667D01*
X400461Y590557D01*
X398773Y588869D01*
X397860Y586664D01*
Y584277D01*
X398773Y582071D01*
X400461Y580383D01*
X402667Y579470D01*
X405053D01*
X407259Y580383D01*
X408947Y582071D01*
X409860Y584277D01*
Y586664D01*
X408947Y588869D01*
X407259Y590557D01*
X405053Y591470D01*
D02*
G37*
G36*
X519391Y559260D02*
X516929D01*
X514551Y558623D01*
X512419Y557392D01*
X510752Y555725D01*
X510672Y555651D01*
X507868D01*
X507788Y555725D01*
X506121Y557392D01*
X503989Y558623D01*
X501611Y559260D01*
X499149D01*
X496771Y558623D01*
X494639Y557392D01*
X494452Y557205D01*
X492760Y555768D01*
X491068Y557205D01*
X490881Y557392D01*
X488749Y558623D01*
X486371Y559260D01*
X483909D01*
X481531Y558623D01*
X479399Y557392D01*
X478537Y556530D01*
X476885Y555931D01*
X475233Y556530D01*
X474371Y557392D01*
X472239Y558623D01*
X469861Y559260D01*
X467399D01*
X465021Y558623D01*
X462889Y557392D01*
X461148Y555651D01*
X459917Y553519D01*
X459280Y551141D01*
Y548679D01*
X459917Y546301D01*
X461148Y544169D01*
X462889Y542428D01*
X465021Y541197D01*
X467399Y540560D01*
X469861D01*
X472239Y541197D01*
X474371Y542428D01*
X475233Y543290D01*
X476885Y543889D01*
X478537Y543290D01*
X479399Y542428D01*
X481531Y541197D01*
X483909Y540560D01*
X486371D01*
X488749Y541197D01*
X490881Y542428D01*
X491068Y542615D01*
X492760Y544052D01*
X494452Y542615D01*
X494639Y542428D01*
X496771Y541197D01*
X499149Y540560D01*
X501611D01*
X503989Y541197D01*
X506121Y542428D01*
X507788Y544095D01*
X507868Y544169D01*
X510672D01*
X510752Y544095D01*
X512419Y542428D01*
X514551Y541197D01*
X516929Y540560D01*
X519391D01*
X521769Y541197D01*
X523901Y542428D01*
X525642Y544169D01*
X526873Y546301D01*
X527510Y548679D01*
Y551141D01*
X526873Y553519D01*
X525642Y555651D01*
X523901Y557392D01*
X521769Y558623D01*
X519391Y559260D01*
D02*
G37*
G36*
X629843Y566070D02*
X627457D01*
X625251Y565157D01*
X623563Y563469D01*
X622650Y561264D01*
Y558876D01*
X623563Y556671D01*
X625251Y554983D01*
X627457Y554070D01*
X629843D01*
X632049Y554983D01*
X633737Y556671D01*
X634650Y558876D01*
Y561264D01*
X633737Y563469D01*
X632049Y565157D01*
X629843Y566070D01*
D02*
G37*
G36*
X890094Y557950D02*
X887906D01*
X885884Y557113D01*
X884337Y555565D01*
X883500Y553544D01*
Y551356D01*
X881534Y549464D01*
X881303Y549560D01*
X878916D01*
X876711Y548647D01*
X875023Y546959D01*
X874110Y544753D01*
Y542366D01*
X875023Y540161D01*
X876711Y538473D01*
X878916Y537560D01*
X881303D01*
X883509Y538473D01*
X885197Y540161D01*
X886110Y542366D01*
Y544753D01*
X886014Y544984D01*
X887906Y546950D01*
X890094D01*
X892115Y547787D01*
X893663Y549334D01*
X894500Y551356D01*
Y553544D01*
X893663Y555565D01*
X892115Y557113D01*
X890094Y557950D01*
D02*
G37*
G36*
X858444Y553680D02*
X856057D01*
X853851Y552767D01*
X852163Y551079D01*
X851250Y548873D01*
Y546487D01*
X852163Y544281D01*
X853851Y542593D01*
X856057Y541680D01*
X858444D01*
X860649Y542593D01*
X862337Y544281D01*
X863250Y546487D01*
Y548873D01*
X862337Y551079D01*
X860649Y552767D01*
X858444Y553680D01*
D02*
G37*
G36*
X912954Y549060D02*
X910766D01*
X908745Y548223D01*
X907197Y546675D01*
X906360Y544654D01*
Y542466D01*
X907197Y540444D01*
X908745Y538897D01*
X910766Y538060D01*
X912954D01*
X914976Y538897D01*
X916523Y540444D01*
X917360Y542466D01*
Y544654D01*
X916523Y546675D01*
X914976Y548223D01*
X912954Y549060D01*
D02*
G37*
G36*
X961214Y546520D02*
X959026D01*
X957004Y545683D01*
X955457Y544136D01*
X954620Y542114D01*
Y539926D01*
X955457Y537905D01*
X957004Y536357D01*
X959026Y535520D01*
X961214D01*
X963235Y536357D01*
X964783Y537905D01*
X965620Y539926D01*
Y542114D01*
X964783Y544136D01*
X963235Y545683D01*
X961214Y546520D01*
D02*
G37*
G36*
X815301Y550370D02*
X812839D01*
X810461Y549733D01*
X808329Y548502D01*
X806588Y546761D01*
X805357Y544629D01*
X804720Y542251D01*
Y539789D01*
X805357Y537411D01*
X806588Y535279D01*
X808329Y533538D01*
X810461Y532307D01*
X812839Y531670D01*
X815301D01*
X817679Y532307D01*
X819811Y533538D01*
X821552Y535279D01*
X822783Y537411D01*
X823420Y539789D01*
Y542251D01*
X822783Y544629D01*
X821552Y546761D01*
X819811Y548502D01*
X817679Y549733D01*
X815301Y550370D01*
D02*
G37*
G36*
X794672Y544210D02*
X792828D01*
X791048Y543733D01*
X789452Y542811D01*
X788149Y541508D01*
X787227Y539912D01*
X786750Y538132D01*
Y536288D01*
X787227Y534508D01*
X788149Y532912D01*
X789452Y531609D01*
X791048Y530687D01*
X792828Y530210D01*
X794672D01*
X796452Y530687D01*
X798048Y531609D01*
X799351Y532912D01*
X800273Y534508D01*
X800750Y536288D01*
Y538132D01*
X800273Y539912D01*
X799351Y541508D01*
X798048Y542811D01*
X796452Y543733D01*
X794672Y544210D01*
D02*
G37*
G36*
X841934Y530510D02*
X839547D01*
X837341Y529597D01*
X836930Y529185D01*
X836519Y529597D01*
X834314Y530510D01*
X831926D01*
X829721Y529597D01*
X828033Y527909D01*
X827120Y525704D01*
Y523316D01*
X828033Y521111D01*
X829721Y519423D01*
X831926Y518510D01*
X834314D01*
X836519Y519423D01*
X836930Y519835D01*
X837341Y519423D01*
X839547Y518510D01*
X841934D01*
X844139Y519423D01*
X846388Y518081D01*
X846448Y517936D01*
X848136Y516248D01*
X850341Y515335D01*
X852729D01*
X854934Y516248D01*
X856622Y517936D01*
X857535Y520141D01*
Y522528D01*
X856622Y524734D01*
X854934Y526422D01*
X852729Y527335D01*
X850341D01*
X848136Y526422D01*
X845887Y527764D01*
X845827Y527909D01*
X844139Y529597D01*
X841934Y530510D01*
D02*
G37*
G36*
X904164Y514000D02*
X901777D01*
X899571Y513087D01*
X897883Y511399D01*
X896970Y509193D01*
Y506806D01*
X897883Y504601D01*
X899571Y502913D01*
X901777Y502000D01*
X904164D01*
X906369Y502913D01*
X908057Y504601D01*
X908970Y506806D01*
Y509193D01*
X908057Y511399D01*
X906369Y513087D01*
X904164Y514000D01*
D02*
G37*
G36*
X572422Y506110D02*
X570578D01*
X568798Y505633D01*
X567202Y504711D01*
X565899Y503408D01*
X564977Y501812D01*
X564500Y500032D01*
Y498188D01*
X564977Y496408D01*
X565899Y494812D01*
X567202Y493509D01*
X568798Y492587D01*
X570578Y492110D01*
X572422D01*
X573575Y492419D01*
X573867Y491328D01*
X574789Y489732D01*
X576092Y488429D01*
X577688Y487507D01*
X579468Y487030D01*
X581312D01*
X583092Y487507D01*
X584688Y488429D01*
X585991Y489732D01*
X586913Y491328D01*
X587390Y493108D01*
Y494952D01*
X586913Y496732D01*
X585991Y498328D01*
X584688Y499631D01*
X583092Y500553D01*
X581312Y501030D01*
X579468D01*
X578315Y500721D01*
X578023Y501812D01*
X577101Y503408D01*
X575798Y504711D01*
X574202Y505633D01*
X572422Y506110D01*
D02*
G37*
G36*
X524471Y519890D02*
X522009D01*
X519631Y519253D01*
X517499Y518022D01*
X515758Y516281D01*
X514527Y514149D01*
X513890Y511771D01*
Y509309D01*
X514527Y506931D01*
X515758Y504799D01*
X516620Y503937D01*
X517219Y502285D01*
X516620Y500633D01*
X515758Y499771D01*
X514527Y497639D01*
X513890Y495261D01*
Y492799D01*
X514527Y490421D01*
X515758Y488289D01*
X515945Y488102D01*
X517382Y486410D01*
X515945Y484718D01*
X515758Y484531D01*
X514527Y482399D01*
X513890Y480021D01*
Y477559D01*
X514527Y475181D01*
X515758Y473049D01*
X517499Y471308D01*
X519631Y470077D01*
X522009Y469440D01*
X524471D01*
X526849Y470077D01*
X528981Y471308D01*
X530722Y473049D01*
X531953Y475181D01*
X532590Y477559D01*
Y480021D01*
X531953Y482399D01*
X530722Y484531D01*
X530535Y484718D01*
X529098Y486410D01*
X530535Y488102D01*
X530722Y488289D01*
X531953Y490421D01*
X532590Y492799D01*
Y495261D01*
X531953Y497639D01*
X530722Y499771D01*
X529860Y500633D01*
X529261Y502285D01*
X529860Y503937D01*
X530722Y504799D01*
X531953Y506931D01*
X532590Y509309D01*
Y511771D01*
X531953Y514149D01*
X530722Y516281D01*
X528981Y518022D01*
X526849Y519253D01*
X524471Y519890D01*
D02*
G37*
G36*
X891463Y465740D02*
X889077D01*
X886871Y464827D01*
X885183Y463139D01*
X884270Y460933D01*
Y458546D01*
X885183Y456341D01*
X886871Y454653D01*
X889077Y453740D01*
X891463D01*
X893669Y454653D01*
X895357Y456341D01*
X896270Y458546D01*
Y460933D01*
X895357Y463139D01*
X893669Y464827D01*
X891463Y465740D01*
D02*
G37*
G36*
X873683Y464470D02*
X871296D01*
X869091Y463557D01*
X867403Y461869D01*
X866490Y459664D01*
Y457276D01*
X867403Y455071D01*
X869091Y453383D01*
X871296Y452470D01*
X873683D01*
X875889Y453383D01*
X877577Y455071D01*
X878490Y457276D01*
Y459664D01*
X877577Y461869D01*
X875889Y463557D01*
X873683Y464470D01*
D02*
G37*
G36*
X938454Y454310D02*
X936067D01*
X933861Y453397D01*
X932173Y451709D01*
X931260Y449504D01*
Y447117D01*
X932173Y444911D01*
X933861Y443223D01*
X936067Y442310D01*
X938454D01*
X940659Y443223D01*
X942347Y444911D01*
X943260Y447117D01*
Y449504D01*
X942347Y451709D01*
X940659Y453397D01*
X938454Y454310D01*
D02*
G37*
G36*
X877531Y450040D02*
X875069D01*
X872691Y449403D01*
X870559Y448172D01*
X868818Y446431D01*
X867587Y444299D01*
X866950Y441921D01*
Y439459D01*
X867587Y437081D01*
X868818Y434949D01*
X870559Y433208D01*
X872691Y431977D01*
X875069Y431340D01*
X877531D01*
X879909Y431977D01*
X882041Y433208D01*
X883782Y434949D01*
X885013Y437081D01*
X885650Y439459D01*
Y441921D01*
X885013Y444299D01*
X883782Y446431D01*
X882041Y448172D01*
X879909Y449403D01*
X877531Y450040D01*
D02*
G37*
G36*
X519391Y455120D02*
X516929D01*
X514551Y454483D01*
X512419Y453252D01*
X510678Y451511D01*
X509447Y449379D01*
X508810Y447001D01*
Y444539D01*
X509447Y442161D01*
X510678Y440029D01*
X511922Y438785D01*
X510678Y437541D01*
X509447Y435409D01*
X508810Y433031D01*
Y430569D01*
X509447Y428191D01*
X510678Y426059D01*
X512419Y424318D01*
X514551Y423087D01*
X516929Y422450D01*
X519391D01*
X521769Y423087D01*
X523901Y424318D01*
X525642Y426059D01*
X526873Y428191D01*
X527510Y430569D01*
Y433031D01*
X526873Y435409D01*
X525642Y437541D01*
X524398Y438785D01*
X525642Y440029D01*
X526873Y442161D01*
X527510Y444539D01*
Y447001D01*
X526873Y449379D01*
X525642Y451511D01*
X523901Y453252D01*
X521769Y454483D01*
X519391Y455120D01*
D02*
G37*
G36*
X483831D02*
X481369D01*
X478991Y454483D01*
X476859Y453252D01*
X475118Y451511D01*
X473887Y449379D01*
X473250Y447001D01*
Y444539D01*
X473887Y442161D01*
X475118Y440029D01*
X476362Y438785D01*
X475118Y437541D01*
X473887Y435409D01*
X473250Y433031D01*
Y430569D01*
X473887Y428191D01*
X475118Y426059D01*
X476859Y424318D01*
X478991Y423087D01*
X481369Y422450D01*
X483831D01*
X486209Y423087D01*
X488341Y424318D01*
X490082Y426059D01*
X491313Y428191D01*
X491950Y430569D01*
Y433031D01*
X491313Y435409D01*
X490082Y437541D01*
X488838Y438785D01*
X490082Y440029D01*
X491313Y442161D01*
X491950Y444539D01*
Y447001D01*
X491313Y449379D01*
X490082Y451511D01*
X488341Y453252D01*
X486209Y454483D01*
X483831Y455120D01*
D02*
G37*
G36*
X786053Y426370D02*
X783667D01*
X781461Y425457D01*
X779773Y423769D01*
X778860Y421563D01*
Y419176D01*
X779773Y416971D01*
X781461Y415283D01*
X783667Y414370D01*
X786053D01*
X788259Y415283D01*
X789947Y416971D01*
X790860Y419176D01*
Y421563D01*
X789947Y423769D01*
X788259Y425457D01*
X786053Y426370D01*
D02*
G37*
G36*
X622261Y418290D02*
X619799D01*
X617421Y417653D01*
X615289Y416422D01*
X613548Y414681D01*
X612317Y412549D01*
X611680Y410171D01*
Y407709D01*
X612317Y405331D01*
X613548Y403199D01*
X615289Y401458D01*
X617421Y400227D01*
X619799Y399590D01*
X622261D01*
X624639Y400227D01*
X626771Y401458D01*
X628512Y403199D01*
X629743Y405331D01*
X630380Y407709D01*
Y410171D01*
X629743Y412549D01*
X628512Y414681D01*
X626771Y416422D01*
X624639Y417653D01*
X622261Y418290D01*
D02*
G37*
G36*
X920711Y414480D02*
X918249D01*
X915871Y413843D01*
X913739Y412612D01*
X911998Y410871D01*
X910767Y408739D01*
X910130Y406361D01*
Y403899D01*
X910767Y401521D01*
X911998Y399389D01*
X913739Y397648D01*
X915871Y396417D01*
X918249Y395780D01*
X920711D01*
X923089Y396417D01*
X925221Y397648D01*
X926962Y399389D01*
X928193Y401521D01*
X928830Y403899D01*
Y406361D01*
X928193Y408739D01*
X926962Y410871D01*
X925221Y412612D01*
X923089Y413843D01*
X920711Y414480D01*
D02*
G37*
G36*
X792403Y400970D02*
X790016D01*
X787811Y400057D01*
X786123Y398369D01*
X785210Y396163D01*
Y393777D01*
X783260Y392396D01*
X783054Y392345D01*
X781429Y393591D01*
X779240Y394498D01*
X776890Y394808D01*
X764890D01*
X762541Y394498D01*
X760351Y393591D01*
X758471Y392149D01*
X757029Y390269D01*
X756122Y388079D01*
X755812Y385730D01*
Y373730D01*
X756122Y371381D01*
X757029Y369191D01*
X757094Y369106D01*
X756112Y366213D01*
X755409Y366025D01*
X753277Y364794D01*
X751536Y363053D01*
X750305Y360921D01*
X749668Y358543D01*
Y356081D01*
X750305Y353703D01*
X751536Y351571D01*
X753277Y349831D01*
X755409Y348600D01*
X757787Y347962D01*
X760249D01*
X762627Y348600D01*
X764759Y349831D01*
X766499Y351571D01*
X767730Y353703D01*
X768368Y356081D01*
Y358543D01*
X767730Y360921D01*
X767043Y362112D01*
X768270Y364652D01*
X776890D01*
X779240Y364962D01*
X781429Y365868D01*
X783309Y367311D01*
X784752Y369191D01*
X785658Y371381D01*
X785968Y373730D01*
Y385730D01*
X785658Y388079D01*
X785400Y388702D01*
X787554Y390141D01*
X787811Y389883D01*
X790016Y388970D01*
X792403D01*
X794609Y389883D01*
X796297Y391571D01*
X797210Y393777D01*
Y396163D01*
X796297Y398369D01*
X794609Y400057D01*
X792403Y400970D01*
D02*
G37*
G36*
X974734Y404767D02*
X972891D01*
X971111Y404290D01*
X969515Y403369D01*
X968212Y402065D01*
X967290Y400469D01*
X966813Y398689D01*
Y396846D01*
X967290Y395065D01*
X968212Y393469D01*
X969515Y392166D01*
X971111Y391244D01*
X972891Y390767D01*
X974734D01*
X976515Y391244D01*
X978111Y392166D01*
X979414Y393469D01*
X980336Y395065D01*
X980813Y396846D01*
Y398689D01*
X980336Y400469D01*
X979414Y402065D01*
X978111Y403369D01*
X976515Y404290D01*
X974734Y404767D01*
D02*
G37*
G36*
X880071Y397970D02*
X877609D01*
X875231Y397333D01*
X873099Y396102D01*
X871358Y394361D01*
X870127Y392229D01*
X869490Y389851D01*
Y387389D01*
X870127Y385011D01*
X871358Y382879D01*
X873099Y381138D01*
X875231Y379907D01*
X877609Y379270D01*
X880071D01*
X882449Y379907D01*
X884581Y381138D01*
X886322Y382879D01*
X887553Y385011D01*
X888190Y387389D01*
Y389851D01*
X887553Y392229D01*
X886322Y394361D01*
X884581Y396102D01*
X882449Y397333D01*
X880071Y397970D01*
D02*
G37*
G36*
X731481Y409400D02*
X729019D01*
X726641Y408763D01*
X724509Y407532D01*
X722768Y405791D01*
X721537Y403659D01*
X720900Y401281D01*
Y398819D01*
X721315Y397270D01*
X720184Y395251D01*
X719592Y394730D01*
X718613D01*
X715715Y394154D01*
X712985Y393023D01*
X710528Y391381D01*
X708439Y389292D01*
X706797Y386835D01*
X705667Y384105D01*
X705090Y381207D01*
Y378253D01*
X705667Y375355D01*
X706797Y372625D01*
X708439Y370168D01*
X710528Y368079D01*
X712985Y366437D01*
X715715Y365307D01*
X718613Y364730D01*
X721567D01*
X724465Y365307D01*
X727195Y366437D01*
X729652Y368079D01*
X731741Y370168D01*
X733383Y372625D01*
X734513Y375355D01*
X735090Y378253D01*
Y381207D01*
X734513Y384105D01*
X733383Y386835D01*
X732394Y388315D01*
X733094Y390854D01*
X733409Y391217D01*
X733859Y391337D01*
X735991Y392568D01*
X737732Y394309D01*
X738963Y396441D01*
X739600Y398819D01*
Y401281D01*
X738963Y403659D01*
X737732Y405791D01*
X735991Y407532D01*
X733859Y408763D01*
X731481Y409400D01*
D02*
G37*
G36*
X583390Y394730D02*
X580435D01*
X577537Y394154D01*
X574807Y393023D01*
X572351Y391381D01*
X570261Y389292D01*
X568620Y386835D01*
X567489Y384105D01*
X566912Y381207D01*
Y378253D01*
X567489Y375355D01*
X568620Y372625D01*
X570261Y370168D01*
X572351Y368079D01*
X574807Y366437D01*
X577537Y365307D01*
X580435Y364730D01*
X583390D01*
X586288Y365307D01*
X589018Y366437D01*
X591474Y368079D01*
X593564Y370168D01*
X595205Y372625D01*
X596336Y375355D01*
X596912Y378253D01*
Y381207D01*
X596336Y384105D01*
X595205Y386835D01*
X593564Y389292D01*
X591474Y391381D01*
X589018Y393023D01*
X586288Y394154D01*
X583390Y394730D01*
D02*
G37*
G36*
X444707D02*
X441753D01*
X438855Y394154D01*
X436125Y393023D01*
X433668Y391381D01*
X431579Y389292D01*
X429937Y386835D01*
X428806Y384105D01*
X428230Y381207D01*
Y378253D01*
X428806Y375355D01*
X429937Y372625D01*
X431579Y370168D01*
X433668Y368079D01*
X436125Y366437D01*
X438855Y365307D01*
X441753Y364730D01*
X444707D01*
X447605Y365307D01*
X450335Y366437D01*
X452792Y368079D01*
X454881Y370168D01*
X456523Y372625D01*
X457654Y375355D01*
X458230Y378253D01*
Y381207D01*
X457654Y384105D01*
X456523Y386835D01*
X454881Y389292D01*
X452792Y391381D01*
X450335Y393023D01*
X447605Y394154D01*
X444707Y394730D01*
D02*
G37*
G36*
X638713Y394808D02*
X626712D01*
X624363Y394498D01*
X622174Y393591D01*
X620294Y392149D01*
X618851Y390269D01*
X617944Y388079D01*
X617635Y385730D01*
Y373730D01*
X617944Y371381D01*
X618851Y369191D01*
X620294Y367311D01*
X622174Y365868D01*
X624363Y364962D01*
X626712Y364652D01*
X638713D01*
X641062Y364962D01*
X643251Y365868D01*
X645131Y367311D01*
X646574Y369191D01*
X647481Y371381D01*
X647790Y373730D01*
Y385730D01*
X647481Y388079D01*
X646574Y390269D01*
X645131Y392149D01*
X643251Y393591D01*
X641062Y394498D01*
X638713Y394808D01*
D02*
G37*
G36*
X846200Y401100D02*
X830200D01*
Y385100D01*
X830200Y385100D01*
X830443Y382560D01*
X830200Y381653D01*
Y379547D01*
X830745Y377512D01*
X831798Y375688D01*
X833136Y374350D01*
X831798Y373012D01*
X830745Y371188D01*
X830200Y369153D01*
Y367047D01*
X830745Y365012D01*
X831798Y363188D01*
X833288Y361698D01*
X835112Y360645D01*
X837147Y360100D01*
X839253D01*
X841288Y360645D01*
X843112Y361698D01*
X844602Y363188D01*
X845655Y365012D01*
X846200Y367047D01*
Y369153D01*
X845655Y371188D01*
X844602Y373012D01*
X843264Y374350D01*
X844602Y375688D01*
X845655Y377512D01*
X846200Y379547D01*
Y381653D01*
X845957Y382560D01*
X846200Y385100D01*
X846200D01*
Y401100D01*
D02*
G37*
G36*
X619721Y361140D02*
X617259D01*
X614881Y360503D01*
X612749Y359272D01*
X611008Y357531D01*
X609777Y355399D01*
X609140Y353021D01*
Y350559D01*
X609777Y348181D01*
X611008Y346049D01*
X612749Y344308D01*
X614881Y343077D01*
X617259Y342440D01*
X619721D01*
X622099Y343077D01*
X624231Y344308D01*
X625972Y346049D01*
X627203Y348181D01*
X627840Y350559D01*
Y353021D01*
X627203Y355399D01*
X625972Y357531D01*
X624231Y359272D01*
X622099Y360503D01*
X619721Y361140D01*
D02*
G37*
G36*
X961773Y376790D02*
X958227D01*
X954750Y376098D01*
X951474Y374741D01*
X948526Y372771D01*
X946019Y370264D01*
X944049Y367316D01*
X942692Y364040D01*
X942000Y360563D01*
Y357017D01*
X942692Y353540D01*
X944049Y350264D01*
X946019Y347316D01*
X948526Y344809D01*
X951474Y342839D01*
X954750Y341482D01*
X958227Y340790D01*
X961773D01*
X965250Y341482D01*
X968526Y342839D01*
X971474Y344809D01*
X973981Y347316D01*
X975951Y350264D01*
X977308Y353540D01*
X978000Y357017D01*
Y360563D01*
X977308Y364040D01*
X975951Y367316D01*
X973981Y370264D01*
X971474Y372771D01*
X968526Y374741D01*
X965250Y376098D01*
X961773Y376790D01*
D02*
G37*
G36*
X351773D02*
X348227D01*
X344750Y376098D01*
X341474Y374741D01*
X338526Y372771D01*
X336018Y370264D01*
X334049Y367316D01*
X332692Y364040D01*
X332000Y360563D01*
Y357017D01*
X332692Y353540D01*
X334049Y350264D01*
X336018Y347316D01*
X338526Y344809D01*
X341474Y342839D01*
X344750Y341482D01*
X348227Y340790D01*
X351773D01*
X355250Y341482D01*
X358526Y342839D01*
X361474Y344809D01*
X363982Y347316D01*
X365951Y350264D01*
X367308Y353540D01*
X368000Y357017D01*
Y360563D01*
X367308Y364040D01*
X365951Y367316D01*
X363982Y370264D01*
X361474Y372771D01*
X358526Y374741D01*
X355250Y376098D01*
X351773Y376790D01*
D02*
G37*
%LPD*%
D57*
X626110Y994410D02*
D03*
X676910D02*
D03*
D58*
X351110D02*
D03*
X951910D02*
D03*
D59*
X546170Y1132840D02*
D03*
X761860D02*
D03*
D60*
X396170D02*
D03*
X911860D02*
D03*
D61*
X838200Y355600D02*
D03*
Y368100D02*
D03*
Y380600D02*
D03*
D62*
Y393100D02*
D03*
D71*
X988770Y1153530D02*
G03*
X963370Y1178930I-25400J0D01*
G01*
Y328930D02*
G03*
X988770Y354330I0J25400D01*
G01*
X344170Y1178930D02*
G03*
X318770Y1153530I0J-25400D01*
G01*
Y354330D02*
G03*
X344170Y328930I25400J0D01*
G01*
X963370D01*
X344170Y1178930D02*
X963370D01*
X988770Y354330D02*
Y1153530D01*
X318770Y354330D02*
Y1153530D01*
D81*
X581912Y379730D02*
D03*
X720090D02*
D03*
X443230D02*
D03*
X676910Y1120760D02*
D03*
D82*
X632713Y379730D02*
D03*
X770890D02*
D03*
X494030D02*
D03*
X626110Y1120760D02*
D03*
D83*
X562610Y767080D02*
D03*
X911860Y768350D02*
D03*
D84*
X524510Y767080D02*
D03*
X448310D02*
D03*
X410210D02*
D03*
Y614680D02*
D03*
X448310D02*
D03*
X524510D02*
D03*
X562610D02*
D03*
X911860Y615950D02*
D03*
X873760D02*
D03*
X797560D02*
D03*
X759460D02*
D03*
Y768350D02*
D03*
X797560D02*
D03*
X873760D02*
D03*
D85*
X960000Y358790D02*
D03*
X350000D02*
D03*
Y1150000D02*
D03*
X960000D02*
D03*
D86*
X880110Y674370D02*
D03*
X749300Y673100D02*
D03*
X715010Y671830D02*
D03*
X607060Y673100D02*
D03*
X576580D02*
D03*
X547370D02*
D03*
X504190Y581660D02*
D03*
Y593090D02*
D03*
Y603250D02*
D03*
X557530Y627380D02*
D03*
X576580Y621030D02*
D03*
X581660Y627380D02*
D03*
X571500D02*
D03*
X695960Y528320D02*
D03*
X694690Y544830D02*
D03*
X670496Y404684D02*
D03*
X663814Y404726D02*
D03*
X657389Y404684D02*
D03*
X960120Y541020D02*
D03*
X911860Y543560D02*
D03*
X786876Y493870D02*
D03*
X776716Y478630D02*
D03*
X916940Y586740D02*
D03*
X926944Y604364D02*
D03*
X889000Y552450D02*
D03*
D87*
X934720Y466090D02*
D03*
X923290Y529590D02*
D03*
X419100Y414020D02*
D03*
X389890Y421640D02*
D03*
X788670Y599440D02*
D03*
Y586740D02*
D03*
X801370D02*
D03*
X829310Y613410D02*
D03*
X973813Y397767D02*
D03*
X659130Y374650D02*
D03*
Y383540D02*
D03*
X662940Y431800D02*
D03*
X800100Y359410D02*
D03*
Y370840D02*
D03*
Y382270D02*
D03*
X826770Y415290D02*
D03*
X838200D02*
D03*
X853440Y477520D02*
D03*
Y487680D02*
D03*
Y497840D02*
D03*
X929197Y511157D02*
D03*
X405130Y356870D02*
D03*
X372110Y345440D02*
D03*
X692072Y648264D02*
D03*
X681932Y648226D02*
D03*
X692150Y656590D02*
D03*
X681990D02*
D03*
X693420Y631190D02*
D03*
X604520Y595630D02*
D03*
X709930Y603250D02*
D03*
X575310Y655320D02*
D03*
X561340D02*
D03*
X548640D02*
D03*
X905510Y389890D02*
D03*
Y401320D02*
D03*
X904240Y466572D02*
D03*
Y487680D02*
D03*
X968240Y468630D02*
D03*
Y486410D02*
D03*
X668020Y612140D02*
D03*
X337820Y427990D02*
D03*
X687070Y836930D02*
D03*
X793750Y537210D02*
D03*
X580390Y494030D02*
D03*
X571500Y499110D02*
D03*
D88*
X593090Y880110D02*
D03*
X579120D02*
D03*
X901700Y672060D02*
D03*
X621030Y408940D02*
D03*
X730250Y400050D02*
D03*
X722630Y614680D02*
D03*
X814070Y541020D02*
D03*
X759018Y357312D02*
D03*
X919480Y405130D02*
D03*
X618490Y351790D02*
D03*
X899160Y627380D02*
D03*
X969010Y607060D02*
D03*
Y626110D02*
D03*
X419100Y474980D02*
D03*
X347709Y496299D02*
D03*
X342900Y599440D02*
D03*
X482600Y431800D02*
D03*
Y445770D02*
D03*
X347980Y478790D02*
D03*
X419100Y495300D02*
D03*
X341590Y806450D02*
D03*
X469900Y843280D02*
D03*
Y862330D02*
D03*
X342900Y640080D02*
D03*
Y621030D02*
D03*
X876300Y440690D02*
D03*
X485140Y549910D02*
D03*
X878840Y388620D02*
D03*
X660810Y849819D02*
D03*
X657560Y889970D02*
D03*
X675640Y909320D02*
D03*
X629920Y881380D02*
D03*
X523240Y478790D02*
D03*
Y494030D02*
D03*
Y510540D02*
D03*
X518160Y549910D02*
D03*
X500380D02*
D03*
X468630D02*
D03*
X518160Y445770D02*
D03*
Y431800D02*
D03*
X341630Y929640D02*
D03*
X736600Y830580D02*
D03*
X721360D02*
D03*
X358140Y929640D02*
D03*
X969010Y645160D02*
D03*
D89*
X403860Y585470D02*
D03*
X840740Y524510D02*
D03*
X930910Y631190D02*
D03*
Y622300D02*
D03*
X937260Y448310D02*
D03*
X833120Y524510D02*
D03*
X851535Y521335D02*
D03*
X880110Y543560D02*
D03*
X857250Y547680D02*
D03*
X784860Y420370D02*
D03*
X852170Y608330D02*
D03*
X872490Y458470D02*
D03*
X890270Y459740D02*
D03*
X880462Y587068D02*
D03*
X902970Y508000D02*
D03*
X791210Y394970D02*
D03*
X615950Y646430D02*
D03*
X613410Y635000D02*
D03*
X621030Y600710D02*
D03*
X618490Y590550D02*
D03*
X628650Y547370D02*
D03*
Y560070D02*
D03*
D90*
X711200Y624840D02*
D03*
X692150Y614680D02*
D03*
M02*
