ISO-10303-21;
HEADER;
/* Generated by software containing ST-Developer
 * from STEP Tools, Inc. (www.steptools.com) 
 */

FILE_DESCRIPTION(
/* description */ ('Open CASCADE Model'),
/* implementation_level */ '2;1');

FILE_NAME(
/* name */ 'dc_cdi_cx500_housing_bottom.step',
/* time_stamp */ '2025-10-22T20:29:04+02:00',
/* author */ (''),
/* organization */ (''),
/* preprocessor_version */ 'ST-DEVELOPER v20.1',
/* originating_system */ 'Autodesk Translation Framework v14.17.0.0',
/* authorisation */ '');

FILE_SCHEMA (('AUTOMOTIVE_DESIGN { 1 0 10303 214 3 1 1 }'));
ENDSEC;

DATA;
#10=MECHANICAL_DESIGN_GEOMETRIC_PRESENTATION_REPRESENTATION('',(#16,#17,
#18,#19,#20,#21,#22),#727);
#11=SHAPE_REPRESENTATION_RELATIONSHIP('SRR','None',#733,#12);
#12=ADVANCED_BREP_SHAPE_REPRESENTATION('',(#23,#24,#25,#26,#27,#28,#29),
#726);
#13=FACE_BOUND('',#140,.T.);
#14=FACE_BOUND('',#149,.T.);
#15=FACE_BOUND('',#161,.T.);
#16=STYLED_ITEM('',(#742),#23);
#17=STYLED_ITEM('',(#742),#24);
#18=STYLED_ITEM('',(#742),#25);
#19=STYLED_ITEM('',(#742),#26);
#20=STYLED_ITEM('',(#742),#27);
#21=STYLED_ITEM('',(#742),#28);
#22=STYLED_ITEM('',(#742),#29);
#23=MANIFOLD_SOLID_BREP('piedino',#421);
#24=MANIFOLD_SOLID_BREP('piedino (3)',#422);
#25=MANIFOLD_SOLID_BREP('piedino (2)',#423);
#26=MANIFOLD_SOLID_BREP('piedino (1)',#424);
#27=MANIFOLD_SOLID_BREP('piedino (4)',#425);
#28=MANIFOLD_SOLID_BREP('bottom',#426);
#29=MANIFOLD_SOLID_BREP('piedino (4) (1)',#427);
#30=LINE('',#618,#62);
#31=LINE('',#630,#63);
#32=LINE('',#633,#64);
#33=LINE('',#639,#65);
#34=LINE('',#653,#66);
#35=LINE('',#656,#67);
#36=LINE('',#661,#68);
#37=LINE('',#668,#69);
#38=LINE('',#670,#70);
#39=LINE('',#672,#71);
#40=LINE('',#673,#72);
#41=LINE('',#677,#73);
#42=LINE('',#679,#74);
#43=LINE('',#681,#75);
#44=LINE('',#682,#76);
#45=LINE('',#686,#77);
#46=LINE('',#688,#78);
#47=LINE('',#690,#79);
#48=LINE('',#691,#80);
#49=LINE('',#695,#81);
#50=LINE('',#697,#82);
#51=LINE('',#699,#83);
#52=LINE('',#700,#84);
#53=LINE('',#702,#85);
#54=LINE('',#703,#86);
#55=LINE('',#704,#87);
#56=LINE('',#705,#88);
#57=LINE('',#707,#89);
#58=LINE('',#709,#90);
#59=LINE('',#712,#91);
#60=LINE('',#714,#92);
#61=LINE('',#720,#93);
#62=VECTOR('',#490,1.5);
#63=VECTOR('',#505,3.00000000000001);
#64=VECTOR('',#510,2.);
#65=VECTOR('',#517,1.99999999999999);
#66=VECTOR('',#536,3.00000000000001);
#67=VECTOR('',#541,1.99999999999999);
#68=VECTOR('',#546,3.00000000000001);
#69=VECTOR('',#555,10.);
#70=VECTOR('',#556,10.);
#71=VECTOR('',#557,10.);
#72=VECTOR('',#558,10.);
#73=VECTOR('',#561,10.);
#74=VECTOR('',#562,10.);
#75=VECTOR('',#563,10.);
#76=VECTOR('',#564,10.);
#77=VECTOR('',#567,10.);
#78=VECTOR('',#568,10.);
#79=VECTOR('',#569,10.);
#80=VECTOR('',#570,10.);
#81=VECTOR('',#573,10.);
#82=VECTOR('',#574,10.);
#83=VECTOR('',#575,10.);
#84=VECTOR('',#576,10.);
#85=VECTOR('',#579,10.);
#86=VECTOR('',#580,10.);
#87=VECTOR('',#581,10.);
#88=VECTOR('',#582,10.);
#89=VECTOR('',#585,10.);
#90=VECTOR('',#588,10.);
#91=VECTOR('',#593,10.);
#92=VECTOR('',#596,10.);
#93=VECTOR('',#603,3.00000000000001);
#94=CYLINDRICAL_SURFACE('',#433,1.5);
#95=CYLINDRICAL_SURFACE('',#439,3.00000000000001);
#96=CYLINDRICAL_SURFACE('',#442,2.);
#97=CYLINDRICAL_SURFACE('',#445,1.99999999999999);
#98=CYLINDRICAL_SURFACE('',#453,3.00000000000001);
#99=CYLINDRICAL_SURFACE('',#456,1.99999999999999);
#100=CYLINDRICAL_SURFACE('',#457,3.00000000000001);
#101=CYLINDRICAL_SURFACE('',#473,3.00000000000001);
#102=FACE_OUTER_BOUND('',#135,.T.);
#103=FACE_OUTER_BOUND('',#136,.T.);
#104=FACE_OUTER_BOUND('',#137,.T.);
#105=FACE_OUTER_BOUND('',#138,.T.);
#106=FACE_OUTER_BOUND('',#139,.T.);
#107=FACE_OUTER_BOUND('',#141,.T.);
#108=FACE_OUTER_BOUND('',#142,.T.);
#109=FACE_OUTER_BOUND('',#143,.T.);
#110=FACE_OUTER_BOUND('',#144,.T.);
#111=FACE_OUTER_BOUND('',#145,.T.);
#112=FACE_OUTER_BOUND('',#146,.T.);
#113=FACE_OUTER_BOUND('',#147,.T.);
#114=FACE_OUTER_BOUND('',#148,.T.);
#115=FACE_OUTER_BOUND('',#150,.T.);
#116=FACE_OUTER_BOUND('',#151,.T.);
#117=FACE_OUTER_BOUND('',#152,.T.);
#118=FACE_OUTER_BOUND('',#153,.T.);
#119=FACE_OUTER_BOUND('',#154,.T.);
#120=FACE_OUTER_BOUND('',#155,.T.);
#121=FACE_OUTER_BOUND('',#156,.T.);
#122=FACE_OUTER_BOUND('',#157,.T.);
#123=FACE_OUTER_BOUND('',#158,.T.);
#124=FACE_OUTER_BOUND('',#159,.T.);
#125=FACE_OUTER_BOUND('',#160,.T.);
#126=FACE_OUTER_BOUND('',#162,.T.);
#127=FACE_OUTER_BOUND('',#163,.T.);
#128=FACE_OUTER_BOUND('',#164,.T.);
#129=FACE_OUTER_BOUND('',#165,.T.);
#130=FACE_OUTER_BOUND('',#166,.T.);
#131=FACE_OUTER_BOUND('',#167,.T.);
#132=FACE_OUTER_BOUND('',#168,.T.);
#133=FACE_OUTER_BOUND('',#169,.T.);
#134=FACE_OUTER_BOUND('',#170,.T.);
#135=EDGE_LOOP('',(#267));
#136=EDGE_LOOP('',(#268));
#137=EDGE_LOOP('',(#269,#270,#271,#272));
#138=EDGE_LOOP('',(#273));
#139=EDGE_LOOP('',(#274));
#140=EDGE_LOOP('',(#275));
#141=EDGE_LOOP('',(#276,#277,#278,#279));
#142=EDGE_LOOP('',(#280));
#143=EDGE_LOOP('',(#281,#282,#283,#284));
#144=EDGE_LOOP('',(#285));
#145=EDGE_LOOP('',(#286,#287,#288,#289));
#146=EDGE_LOOP('',(#290));
#147=EDGE_LOOP('',(#291));
#148=EDGE_LOOP('',(#292));
#149=EDGE_LOOP('',(#293));
#150=EDGE_LOOP('',(#294,#295,#296,#297));
#151=EDGE_LOOP('',(#298));
#152=EDGE_LOOP('',(#299,#300,#301,#302));
#153=EDGE_LOOP('',(#303,#304,#305,#306));
#154=EDGE_LOOP('',(#307));
#155=EDGE_LOOP('',(#308));
#156=EDGE_LOOP('',(#309,#310,#311,#312));
#157=EDGE_LOOP('',(#313,#314,#315,#316));
#158=EDGE_LOOP('',(#317,#318,#319,#320));
#159=EDGE_LOOP('',(#321,#322,#323,#324));
#160=EDGE_LOOP('',(#325,#326,#327,#328));
#161=EDGE_LOOP('',(#329,#330,#331,#332));
#162=EDGE_LOOP('',(#333,#334,#335,#336));
#163=EDGE_LOOP('',(#337,#338,#339,#340));
#164=EDGE_LOOP('',(#341,#342,#343,#344));
#165=EDGE_LOOP('',(#345,#346,#347,#348));
#166=EDGE_LOOP('',(#349,#350,#351,#352));
#167=EDGE_LOOP('',(#353,#354,#355,#356));
#168=EDGE_LOOP('',(#357,#358,#359,#360));
#169=EDGE_LOOP('',(#361));
#170=EDGE_LOOP('',(#362));
#171=CIRCLE('',#430,1.5);
#172=CIRCLE('',#432,1.5);
#173=CIRCLE('',#435,2.);
#174=CIRCLE('',#437,3.00000000000001);
#175=CIRCLE('',#438,2.);
#176=CIRCLE('',#440,3.00000000000001);
#177=CIRCLE('',#444,1.99999999999999);
#178=CIRCLE('',#446,1.99999999999999);
#179=CIRCLE('',#449,1.99999999999999);
#180=CIRCLE('',#451,3.00000000000001);
#181=CIRCLE('',#452,1.99999999999999);
#182=CIRCLE('',#454,3.00000000000001);
#183=CIRCLE('',#458,3.00000000000001);
#184=CIRCLE('',#459,3.00000000000001);
#185=CIRCLE('',#474,3.00000000000001);
#186=CIRCLE('',#475,3.00000000000001);
#187=VERTEX_POINT('',#612);
#188=VERTEX_POINT('',#615);
#189=VERTEX_POINT('',#620);
#190=VERTEX_POINT('',#623);
#191=VERTEX_POINT('',#625);
#192=VERTEX_POINT('',#628);
#193=VERTEX_POINT('',#635);
#194=VERTEX_POINT('',#638);
#195=VERTEX_POINT('',#643);
#196=VERTEX_POINT('',#646);
#197=VERTEX_POINT('',#648);
#198=VERTEX_POINT('',#651);
#199=VERTEX_POINT('',#658);
#200=VERTEX_POINT('',#660);
#201=VERTEX_POINT('',#666);
#202=VERTEX_POINT('',#667);
#203=VERTEX_POINT('',#669);
#204=VERTEX_POINT('',#671);
#205=VERTEX_POINT('',#675);
#206=VERTEX_POINT('',#676);
#207=VERTEX_POINT('',#678);
#208=VERTEX_POINT('',#680);
#209=VERTEX_POINT('',#684);
#210=VERTEX_POINT('',#685);
#211=VERTEX_POINT('',#687);
#212=VERTEX_POINT('',#689);
#213=VERTEX_POINT('',#693);
#214=VERTEX_POINT('',#694);
#215=VERTEX_POINT('',#696);
#216=VERTEX_POINT('',#698);
#217=VERTEX_POINT('',#717);
#218=VERTEX_POINT('',#719);
#219=EDGE_CURVE('',#187,#187,#171,.T.);
#220=EDGE_CURVE('',#188,#188,#172,.T.);
#221=EDGE_CURVE('',#188,#187,#30,.T.);
#222=EDGE_CURVE('',#189,#189,#173,.T.);
#223=EDGE_CURVE('',#190,#190,#174,.T.);
#224=EDGE_CURVE('',#191,#191,#175,.T.);
#225=EDGE_CURVE('',#192,#192,#176,.T.);
#226=EDGE_CURVE('',#192,#190,#31,.T.);
#227=EDGE_CURVE('',#191,#189,#32,.T.);
#228=EDGE_CURVE('',#193,#193,#177,.T.);
#229=EDGE_CURVE('',#193,#194,#33,.T.);
#230=EDGE_CURVE('',#194,#194,#178,.T.);
#231=EDGE_CURVE('',#195,#195,#179,.T.);
#232=EDGE_CURVE('',#196,#196,#180,.T.);
#233=EDGE_CURVE('',#197,#197,#181,.T.);
#234=EDGE_CURVE('',#198,#198,#182,.T.);
#235=EDGE_CURVE('',#198,#196,#34,.T.);
#236=EDGE_CURVE('',#197,#195,#35,.T.);
#237=EDGE_CURVE('',#199,#199,#183,.T.);
#238=EDGE_CURVE('',#199,#200,#36,.T.);
#239=EDGE_CURVE('',#200,#200,#184,.T.);
#240=EDGE_CURVE('',#201,#202,#37,.T.);
#241=EDGE_CURVE('',#202,#203,#38,.T.);
#242=EDGE_CURVE('',#203,#204,#39,.T.);
#243=EDGE_CURVE('',#204,#201,#40,.T.);
#244=EDGE_CURVE('',#205,#206,#41,.T.);
#245=EDGE_CURVE('',#207,#206,#42,.T.);
#246=EDGE_CURVE('',#207,#208,#43,.T.);
#247=EDGE_CURVE('',#208,#205,#44,.T.);
#248=EDGE_CURVE('',#209,#210,#45,.T.);
#249=EDGE_CURVE('',#210,#211,#46,.T.);
#250=EDGE_CURVE('',#211,#212,#47,.T.);
#251=EDGE_CURVE('',#212,#209,#48,.T.);
#252=EDGE_CURVE('',#213,#214,#49,.T.);
#253=EDGE_CURVE('',#215,#214,#50,.T.);
#254=EDGE_CURVE('',#215,#216,#51,.T.);
#255=EDGE_CURVE('',#216,#213,#52,.T.);
#256=EDGE_CURVE('',#201,#212,#53,.T.);
#257=EDGE_CURVE('',#209,#204,#54,.T.);
#258=EDGE_CURVE('',#206,#215,#55,.T.);
#259=EDGE_CURVE('',#207,#214,#56,.T.);
#260=EDGE_CURVE('',#208,#213,#57,.T.);
#261=EDGE_CURVE('',#205,#216,#58,.T.);
#262=EDGE_CURVE('',#202,#211,#59,.T.);
#263=EDGE_CURVE('',#203,#210,#60,.T.);
#264=EDGE_CURVE('',#217,#217,#185,.T.);
#265=EDGE_CURVE('',#217,#218,#61,.T.);
#266=EDGE_CURVE('',#218,#218,#186,.T.);
#267=ORIENTED_EDGE('',*,*,#219,.T.);
#268=ORIENTED_EDGE('',*,*,#220,.T.);
#269=ORIENTED_EDGE('',*,*,#220,.F.);
#270=ORIENTED_EDGE('',*,*,#221,.T.);
#271=ORIENTED_EDGE('',*,*,#219,.F.);
#272=ORIENTED_EDGE('',*,*,#221,.F.);
#273=ORIENTED_EDGE('',*,*,#222,.T.);
#274=ORIENTED_EDGE('',*,*,#223,.F.);
#275=ORIENTED_EDGE('',*,*,#224,.T.);
#276=ORIENTED_EDGE('',*,*,#225,.F.);
#277=ORIENTED_EDGE('',*,*,#226,.T.);
#278=ORIENTED_EDGE('',*,*,#223,.T.);
#279=ORIENTED_EDGE('',*,*,#226,.F.);
#280=ORIENTED_EDGE('',*,*,#225,.T.);
#281=ORIENTED_EDGE('',*,*,#224,.F.);
#282=ORIENTED_EDGE('',*,*,#227,.T.);
#283=ORIENTED_EDGE('',*,*,#222,.F.);
#284=ORIENTED_EDGE('',*,*,#227,.F.);
#285=ORIENTED_EDGE('',*,*,#228,.T.);
#286=ORIENTED_EDGE('',*,*,#228,.F.);
#287=ORIENTED_EDGE('',*,*,#229,.T.);
#288=ORIENTED_EDGE('',*,*,#230,.T.);
#289=ORIENTED_EDGE('',*,*,#229,.F.);
#290=ORIENTED_EDGE('',*,*,#230,.F.);
#291=ORIENTED_EDGE('',*,*,#231,.T.);
#292=ORIENTED_EDGE('',*,*,#232,.F.);
#293=ORIENTED_EDGE('',*,*,#233,.T.);
#294=ORIENTED_EDGE('',*,*,#234,.F.);
#295=ORIENTED_EDGE('',*,*,#235,.T.);
#296=ORIENTED_EDGE('',*,*,#232,.T.);
#297=ORIENTED_EDGE('',*,*,#235,.F.);
#298=ORIENTED_EDGE('',*,*,#234,.T.);
#299=ORIENTED_EDGE('',*,*,#233,.F.);
#300=ORIENTED_EDGE('',*,*,#236,.T.);
#301=ORIENTED_EDGE('',*,*,#231,.F.);
#302=ORIENTED_EDGE('',*,*,#236,.F.);
#303=ORIENTED_EDGE('',*,*,#237,.F.);
#304=ORIENTED_EDGE('',*,*,#238,.T.);
#305=ORIENTED_EDGE('',*,*,#239,.T.);
#306=ORIENTED_EDGE('',*,*,#238,.F.);
#307=ORIENTED_EDGE('',*,*,#237,.T.);
#308=ORIENTED_EDGE('',*,*,#239,.F.);
#309=ORIENTED_EDGE('',*,*,#240,.T.);
#310=ORIENTED_EDGE('',*,*,#241,.T.);
#311=ORIENTED_EDGE('',*,*,#242,.T.);
#312=ORIENTED_EDGE('',*,*,#243,.T.);
#313=ORIENTED_EDGE('',*,*,#244,.T.);
#314=ORIENTED_EDGE('',*,*,#245,.F.);
#315=ORIENTED_EDGE('',*,*,#246,.T.);
#316=ORIENTED_EDGE('',*,*,#247,.T.);
#317=ORIENTED_EDGE('',*,*,#248,.T.);
#318=ORIENTED_EDGE('',*,*,#249,.T.);
#319=ORIENTED_EDGE('',*,*,#250,.T.);
#320=ORIENTED_EDGE('',*,*,#251,.T.);
#321=ORIENTED_EDGE('',*,*,#252,.T.);
#322=ORIENTED_EDGE('',*,*,#253,.F.);
#323=ORIENTED_EDGE('',*,*,#254,.T.);
#324=ORIENTED_EDGE('',*,*,#255,.T.);
#325=ORIENTED_EDGE('',*,*,#256,.F.);
#326=ORIENTED_EDGE('',*,*,#243,.F.);
#327=ORIENTED_EDGE('',*,*,#257,.F.);
#328=ORIENTED_EDGE('',*,*,#251,.F.);
#329=ORIENTED_EDGE('',*,*,#258,.T.);
#330=ORIENTED_EDGE('',*,*,#253,.T.);
#331=ORIENTED_EDGE('',*,*,#259,.F.);
#332=ORIENTED_EDGE('',*,*,#245,.T.);
#333=ORIENTED_EDGE('',*,*,#246,.F.);
#334=ORIENTED_EDGE('',*,*,#259,.T.);
#335=ORIENTED_EDGE('',*,*,#252,.F.);
#336=ORIENTED_EDGE('',*,*,#260,.F.);
#337=ORIENTED_EDGE('',*,*,#247,.F.);
#338=ORIENTED_EDGE('',*,*,#260,.T.);
#339=ORIENTED_EDGE('',*,*,#255,.F.);
#340=ORIENTED_EDGE('',*,*,#261,.F.);
#341=ORIENTED_EDGE('',*,*,#244,.F.);
#342=ORIENTED_EDGE('',*,*,#261,.T.);
#343=ORIENTED_EDGE('',*,*,#254,.F.);
#344=ORIENTED_EDGE('',*,*,#258,.F.);
#345=ORIENTED_EDGE('',*,*,#256,.T.);
#346=ORIENTED_EDGE('',*,*,#250,.F.);
#347=ORIENTED_EDGE('',*,*,#262,.F.);
#348=ORIENTED_EDGE('',*,*,#240,.F.);
#349=ORIENTED_EDGE('',*,*,#262,.T.);
#350=ORIENTED_EDGE('',*,*,#249,.F.);
#351=ORIENTED_EDGE('',*,*,#263,.F.);
#352=ORIENTED_EDGE('',*,*,#241,.F.);
#353=ORIENTED_EDGE('',*,*,#263,.T.);
#354=ORIENTED_EDGE('',*,*,#248,.F.);
#355=ORIENTED_EDGE('',*,*,#257,.T.);
#356=ORIENTED_EDGE('',*,*,#242,.F.);
#357=ORIENTED_EDGE('',*,*,#264,.F.);
#358=ORIENTED_EDGE('',*,*,#265,.T.);
#359=ORIENTED_EDGE('',*,*,#266,.T.);
#360=ORIENTED_EDGE('',*,*,#265,.F.);
#361=ORIENTED_EDGE('',*,*,#264,.T.);
#362=ORIENTED_EDGE('',*,*,#266,.F.);
#363=PLANE('',#429);
#364=PLANE('',#431);
#365=PLANE('',#434);
#366=PLANE('',#436);
#367=PLANE('',#441);
#368=PLANE('',#443);
#369=PLANE('',#447);
#370=PLANE('',#448);
#371=PLANE('',#450);
#372=PLANE('',#455);
#373=PLANE('',#460);
#374=PLANE('',#461);
#375=PLANE('',#462);
#376=PLANE('',#463);
#377=PLANE('',#464);
#378=PLANE('',#465);
#379=PLANE('',#466);
#380=PLANE('',#467);
#381=PLANE('',#468);
#382=PLANE('',#469);
#383=PLANE('',#470);
#384=PLANE('',#471);
#385=PLANE('',#472);
#386=PLANE('',#476);
#387=PLANE('',#477);
#388=ADVANCED_FACE('',(#102),#363,.F.);
#389=ADVANCED_FACE('',(#103),#364,.T.);
#390=ADVANCED_FACE('',(#104),#94,.T.);
#391=ADVANCED_FACE('',(#105),#365,.F.);
#392=ADVANCED_FACE('',(#106,#13),#366,.F.);
#393=ADVANCED_FACE('',(#107),#95,.T.);
#394=ADVANCED_FACE('',(#108),#367,.T.);
#395=ADVANCED_FACE('',(#109),#96,.T.);
#396=ADVANCED_FACE('',(#110),#368,.T.);
#397=ADVANCED_FACE('',(#111),#97,.T.);
#398=ADVANCED_FACE('',(#112),#369,.F.);
#399=ADVANCED_FACE('',(#113),#370,.F.);
#400=ADVANCED_FACE('',(#114,#14),#371,.F.);
#401=ADVANCED_FACE('',(#115),#98,.T.);
#402=ADVANCED_FACE('',(#116),#372,.T.);
#403=ADVANCED_FACE('',(#117),#99,.T.);
#404=ADVANCED_FACE('',(#118),#100,.T.);
#405=ADVANCED_FACE('',(#119),#373,.T.);
#406=ADVANCED_FACE('',(#120),#374,.F.);
#407=ADVANCED_FACE('',(#121),#375,.T.);
#408=ADVANCED_FACE('',(#122),#376,.F.);
#409=ADVANCED_FACE('',(#123),#377,.T.);
#410=ADVANCED_FACE('',(#124),#378,.F.);
#411=ADVANCED_FACE('',(#125,#15),#379,.T.);
#412=ADVANCED_FACE('',(#126),#380,.T.);
#413=ADVANCED_FACE('',(#127),#381,.T.);
#414=ADVANCED_FACE('',(#128),#382,.T.);
#415=ADVANCED_FACE('',(#129),#383,.T.);
#416=ADVANCED_FACE('',(#130),#384,.T.);
#417=ADVANCED_FACE('',(#131),#385,.T.);
#418=ADVANCED_FACE('',(#132),#101,.T.);
#419=ADVANCED_FACE('',(#133),#386,.T.);
#420=ADVANCED_FACE('',(#134),#387,.F.);
#421=CLOSED_SHELL('',(#388,#389,#390));
#422=CLOSED_SHELL('',(#391,#392,#393,#394,#395));
#423=CLOSED_SHELL('',(#396,#397,#398));
#424=CLOSED_SHELL('',(#399,#400,#401,#402,#403));
#425=CLOSED_SHELL('',(#404,#405,#406));
#426=CLOSED_SHELL('',(#407,#408,#409,#410,#411,#412,#413,#414,#415,#416,
#417));
#427=CLOSED_SHELL('',(#418,#419,#420));
#428=AXIS2_PLACEMENT_3D('',#610,#478,#479);
#429=AXIS2_PLACEMENT_3D('',#611,#480,#481);
#430=AXIS2_PLACEMENT_3D('',#613,#482,#483);
#431=AXIS2_PLACEMENT_3D('',#614,#484,#485);
#432=AXIS2_PLACEMENT_3D('',#616,#486,#487);
#433=AXIS2_PLACEMENT_3D('',#617,#488,#489);
#434=AXIS2_PLACEMENT_3D('',#619,#491,#492);
#435=AXIS2_PLACEMENT_3D('',#621,#493,#494);
#436=AXIS2_PLACEMENT_3D('',#622,#495,#496);
#437=AXIS2_PLACEMENT_3D('',#624,#497,#498);
#438=AXIS2_PLACEMENT_3D('',#626,#499,#500);
#439=AXIS2_PLACEMENT_3D('',#627,#501,#502);
#440=AXIS2_PLACEMENT_3D('',#629,#503,#504);
#441=AXIS2_PLACEMENT_3D('',#631,#506,#507);
#442=AXIS2_PLACEMENT_3D('',#632,#508,#509);
#443=AXIS2_PLACEMENT_3D('',#634,#511,#512);
#444=AXIS2_PLACEMENT_3D('',#636,#513,#514);
#445=AXIS2_PLACEMENT_3D('',#637,#515,#516);
#446=AXIS2_PLACEMENT_3D('',#640,#518,#519);
#447=AXIS2_PLACEMENT_3D('',#641,#520,#521);
#448=AXIS2_PLACEMENT_3D('',#642,#522,#523);
#449=AXIS2_PLACEMENT_3D('',#644,#524,#525);
#450=AXIS2_PLACEMENT_3D('',#645,#526,#527);
#451=AXIS2_PLACEMENT_3D('',#647,#528,#529);
#452=AXIS2_PLACEMENT_3D('',#649,#530,#531);
#453=AXIS2_PLACEMENT_3D('',#650,#532,#533);
#454=AXIS2_PLACEMENT_3D('',#652,#534,#535);
#455=AXIS2_PLACEMENT_3D('',#654,#537,#538);
#456=AXIS2_PLACEMENT_3D('',#655,#539,#540);
#457=AXIS2_PLACEMENT_3D('',#657,#542,#543);
#458=AXIS2_PLACEMENT_3D('',#659,#544,#545);
#459=AXIS2_PLACEMENT_3D('',#662,#547,#548);
#460=AXIS2_PLACEMENT_3D('',#663,#549,#550);
#461=AXIS2_PLACEMENT_3D('',#664,#551,#552);
#462=AXIS2_PLACEMENT_3D('',#665,#553,#554);
#463=AXIS2_PLACEMENT_3D('',#674,#559,#560);
#464=AXIS2_PLACEMENT_3D('',#683,#565,#566);
#465=AXIS2_PLACEMENT_3D('',#692,#571,#572);
#466=AXIS2_PLACEMENT_3D('',#701,#577,#578);
#467=AXIS2_PLACEMENT_3D('',#706,#583,#584);
#468=AXIS2_PLACEMENT_3D('',#708,#586,#587);
#469=AXIS2_PLACEMENT_3D('',#710,#589,#590);
#470=AXIS2_PLACEMENT_3D('',#711,#591,#592);
#471=AXIS2_PLACEMENT_3D('',#713,#594,#595);
#472=AXIS2_PLACEMENT_3D('',#715,#597,#598);
#473=AXIS2_PLACEMENT_3D('',#716,#599,#600);
#474=AXIS2_PLACEMENT_3D('',#718,#601,#602);
#475=AXIS2_PLACEMENT_3D('',#721,#604,#605);
#476=AXIS2_PLACEMENT_3D('',#722,#606,#607);
#477=AXIS2_PLACEMENT_3D('',#723,#608,#609);
#478=DIRECTION('axis',(0.,0.,1.));
#479=DIRECTION('refdir',(1.,0.,0.));
#480=DIRECTION('center_axis',(0.,-1.22464679914735E-16,-1.));
#481=DIRECTION('ref_axis',(-1.,0.,0.));
#482=DIRECTION('center_axis',(0.,1.22464679914735E-16,1.));
#483=DIRECTION('ref_axis',(-1.,0.,0.));
#484=DIRECTION('center_axis',(0.,-1.22464679914735E-16,-1.));
#485=DIRECTION('ref_axis',(-1.,0.,0.));
#486=DIRECTION('center_axis',(0.,-1.22464679914735E-16,-1.));
#487=DIRECTION('ref_axis',(-1.,0.,0.));
#488=DIRECTION('center_axis',(0.,-1.22464679914735E-16,-1.));
#489=DIRECTION('ref_axis',(-1.,0.,0.));
#490=DIRECTION('',(0.,1.22464679914735E-16,1.));
#491=DIRECTION('center_axis',(0.,1.22464679914735E-16,-1.));
#492=DIRECTION('ref_axis',(-1.,0.,0.));
#493=DIRECTION('center_axis',(0.,-1.22464679914735E-16,1.));
#494=DIRECTION('ref_axis',(-1.,0.,0.));
#495=DIRECTION('center_axis',(0.,1.22464679914735E-16,-1.));
#496=DIRECTION('ref_axis',(-1.,0.,0.));
#497=DIRECTION('center_axis',(0.,1.22464679914735E-16,-1.));
#498=DIRECTION('ref_axis',(-1.,0.,0.));
#499=DIRECTION('center_axis',(0.,1.22464679914735E-16,-1.));
#500=DIRECTION('ref_axis',(-1.,0.,0.));
#501=DIRECTION('center_axis',(0.,1.22464679914735E-16,-1.));
#502=DIRECTION('ref_axis',(-1.,0.,0.));
#503=DIRECTION('center_axis',(0.,1.22464679914735E-16,-1.));
#504=DIRECTION('ref_axis',(-1.,0.,0.));
#505=DIRECTION('',(0.,-1.22464679914735E-16,1.));
#506=DIRECTION('center_axis',(0.,1.22464679914735E-16,-1.));
#507=DIRECTION('ref_axis',(-1.,0.,0.));
#508=DIRECTION('center_axis',(0.,1.22464679914735E-16,-1.));
#509=DIRECTION('ref_axis',(-1.,0.,0.));
#510=DIRECTION('',(0.,-1.22464679914735E-16,1.));
#511=DIRECTION('center_axis',(0.,0.,1.));
#512=DIRECTION('ref_axis',(-1.,0.,0.));
#513=DIRECTION('center_axis',(0.,0.,1.));
#514=DIRECTION('ref_axis',(-1.,0.,0.));
#515=DIRECTION('center_axis',(0.,0.,1.));
#516=DIRECTION('ref_axis',(-1.,0.,0.));
#517=DIRECTION('',(0.,0.,-1.));
#518=DIRECTION('center_axis',(0.,0.,1.));
#519=DIRECTION('ref_axis',(-1.,0.,0.));
#520=DIRECTION('center_axis',(0.,0.,1.));
#521=DIRECTION('ref_axis',(-1.,0.,0.));
#522=DIRECTION('center_axis',(0.,-1.22464679914735E-16,-1.));
#523=DIRECTION('ref_axis',(-1.,0.,0.));
#524=DIRECTION('center_axis',(0.,1.22464679914735E-16,1.));
#525=DIRECTION('ref_axis',(-1.,0.,0.));
#526=DIRECTION('center_axis',(0.,-1.22464679914735E-16,-1.));
#527=DIRECTION('ref_axis',(-1.,0.,0.));
#528=DIRECTION('center_axis',(0.,-1.22464679914735E-16,-1.));
#529=DIRECTION('ref_axis',(-1.,0.,0.));
#530=DIRECTION('center_axis',(0.,-1.22464679914735E-16,-1.));
#531=DIRECTION('ref_axis',(-1.,0.,0.));
#532=DIRECTION('center_axis',(0.,-1.22464679914735E-16,-1.));
#533=DIRECTION('ref_axis',(-1.,0.,0.));
#534=DIRECTION('center_axis',(0.,-1.22464679914735E-16,-1.));
#535=DIRECTION('ref_axis',(-1.,0.,0.));
#536=DIRECTION('',(0.,1.22464679914735E-16,1.));
#537=DIRECTION('center_axis',(0.,-1.22464679914735E-16,-1.));
#538=DIRECTION('ref_axis',(-1.,0.,0.));
#539=DIRECTION('center_axis',(0.,-1.22464679914735E-16,-1.));
#540=DIRECTION('ref_axis',(-1.,0.,0.));
#541=DIRECTION('',(0.,1.22464679914735E-16,1.));
#542=DIRECTION('center_axis',(0.,0.,1.));
#543=DIRECTION('ref_axis',(-1.,0.,0.));
#544=DIRECTION('center_axis',(0.,0.,1.));
#545=DIRECTION('ref_axis',(-1.,0.,0.));
#546=DIRECTION('',(0.,0.,-1.));
#547=DIRECTION('center_axis',(0.,0.,1.));
#548=DIRECTION('ref_axis',(-1.,0.,0.));
#549=DIRECTION('center_axis',(0.,0.,1.));
#550=DIRECTION('ref_axis',(-1.,0.,0.));
#551=DIRECTION('center_axis',(0.,0.,1.));
#552=DIRECTION('ref_axis',(-1.,0.,0.));
#553=DIRECTION('center_axis',(1.,0.,0.));
#554=DIRECTION('ref_axis',(0.,0.,-1.));
#555=DIRECTION('',(0.,0.,-1.));
#556=DIRECTION('',(0.,1.,-2.12036544426821E-16));
#557=DIRECTION('',(0.,0.,1.));
#558=DIRECTION('',(0.,-1.,0.));
#559=DIRECTION('center_axis',(1.,0.,0.));
#560=DIRECTION('ref_axis',(0.,1.,0.));
#561=DIRECTION('',(0.,0.,1.));
#562=DIRECTION('',(0.,-1.,0.));
#563=DIRECTION('',(0.,0.,-1.));
#564=DIRECTION('',(0.,-1.,-1.89047380169893E-16));
#565=DIRECTION('center_axis',(-1.,0.,0.));
#566=DIRECTION('ref_axis',(0.,0.,1.));
#567=DIRECTION('',(0.,0.,-1.));
#568=DIRECTION('',(0.,-1.,2.12036544426821E-16));
#569=DIRECTION('',(0.,0.,1.));
#570=DIRECTION('',(0.,1.,0.));
#571=DIRECTION('center_axis',(-1.,0.,0.));
#572=DIRECTION('ref_axis',(0.,-1.,0.));
#573=DIRECTION('',(0.,0.,1.));
#574=DIRECTION('',(0.,1.,0.));
#575=DIRECTION('',(0.,0.,-1.));
#576=DIRECTION('',(0.,1.,1.89047380169893E-16));
#577=DIRECTION('center_axis',(0.,0.,1.));
#578=DIRECTION('ref_axis',(0.,1.,0.));
#579=DIRECTION('',(-1.,0.,0.));
#580=DIRECTION('',(1.,0.,0.));
#581=DIRECTION('',(-1.,0.,0.));
#582=DIRECTION('',(-1.,0.,0.));
#583=DIRECTION('center_axis',(0.,-1.,0.));
#584=DIRECTION('ref_axis',(0.,0.,1.));
#585=DIRECTION('',(-1.,0.,0.));
#586=DIRECTION('center_axis',(0.,-1.89047380169893E-16,1.));
#587=DIRECTION('ref_axis',(0.,1.,1.89047380169893E-16));
#588=DIRECTION('',(-1.,0.,0.));
#589=DIRECTION('center_axis',(0.,1.,0.));
#590=DIRECTION('ref_axis',(0.,0.,-1.));
#591=DIRECTION('center_axis',(0.,-1.,0.));
#592=DIRECTION('ref_axis',(0.,0.,1.));
#593=DIRECTION('',(-1.,0.,0.));
#594=DIRECTION('center_axis',(0.,-2.12036544426821E-16,-1.));
#595=DIRECTION('ref_axis',(0.,-1.,2.12036544426821E-16));
#596=DIRECTION('',(-1.,0.,0.));
#597=DIRECTION('center_axis',(0.,1.,0.));
#598=DIRECTION('ref_axis',(0.,0.,-1.));
#599=DIRECTION('center_axis',(0.,0.,1.));
#600=DIRECTION('ref_axis',(-1.,0.,0.));
#601=DIRECTION('center_axis',(0.,0.,1.));
#602=DIRECTION('ref_axis',(-1.,0.,0.));
#603=DIRECTION('',(0.,0.,-1.));
#604=DIRECTION('center_axis',(0.,0.,1.));
#605=DIRECTION('ref_axis',(-1.,0.,0.));
#606=DIRECTION('center_axis',(0.,0.,1.));
#607=DIRECTION('ref_axis',(-1.,0.,0.));
#608=DIRECTION('center_axis',(0.,0.,1.));
#609=DIRECTION('ref_axis',(-1.,0.,0.));
#610=CARTESIAN_POINT('',(0.,0.,0.));
#611=CARTESIAN_POINT('Origin',(164.44,52.5979976485967,18.99));
#612=CARTESIAN_POINT('',(165.94,52.5979976485967,18.99));
#613=CARTESIAN_POINT('Origin',(164.44,52.5979976485967,18.99));
#614=CARTESIAN_POINT('Origin',(164.399998560548,52.5999988242984,-4.65));
#615=CARTESIAN_POINT('',(165.94,52.5979976485967,-4.65));
#616=CARTESIAN_POINT('Origin',(164.44,52.5979976485967,-4.65));
#617=CARTESIAN_POINT('Origin',(164.44,52.5979976485967,1.35));
#618=CARTESIAN_POINT('',(165.94,52.5979976485967,1.35));
#619=CARTESIAN_POINT('Origin',(164.516,126.83424648209,11.47));
#620=CARTESIAN_POINT('',(166.516,126.83424648209,11.47));
#621=CARTESIAN_POINT('Origin',(164.516,126.83424648209,11.47));
#622=CARTESIAN_POINT('Origin',(164.498905653666,126.853623241045,-1.65));
#623=CARTESIAN_POINT('',(167.498905653666,126.853623241045,-1.65));
#624=CARTESIAN_POINT('Origin',(164.498905653666,126.853623241045,-1.65));
#625=CARTESIAN_POINT('',(166.516,126.83424648209,-1.65));
#626=CARTESIAN_POINT('Origin',(164.516,126.83424648209,-1.65));
#627=CARTESIAN_POINT('Origin',(164.498905653666,126.853623241045,-1.65));
#628=CARTESIAN_POINT('',(167.498905653666,126.853623241045,-4.65));
#629=CARTESIAN_POINT('Origin',(164.498905653666,126.853623241045,-4.65));
#630=CARTESIAN_POINT('',(167.498905653666,126.853623241045,-1.65));
#631=CARTESIAN_POINT('Origin',(164.498905653666,126.853623241045,-4.65));
#632=CARTESIAN_POINT('Origin',(164.516,126.83424648209,1.35));
#633=CARTESIAN_POINT('',(166.516,126.83424648209,1.35));
#634=CARTESIAN_POINT('Origin',(229.286,41.021,11.58));
#635=CARTESIAN_POINT('',(231.286,41.021,11.58));
#636=CARTESIAN_POINT('Origin',(229.286,41.021,11.58));
#637=CARTESIAN_POINT('Origin',(229.286,41.021,-1.65));
#638=CARTESIAN_POINT('',(231.286,41.021,-1.65));
#639=CARTESIAN_POINT('',(231.286,41.021,-1.65));
#640=CARTESIAN_POINT('Origin',(229.286,41.021,-1.65));
#641=CARTESIAN_POINT('Origin',(229.286,41.021,-1.65));
#642=CARTESIAN_POINT('Origin',(228.765,126.906244032182,11.47));
#643=CARTESIAN_POINT('',(230.765,126.906244032182,11.47));
#644=CARTESIAN_POINT('Origin',(228.765,126.906244032182,11.47));
#645=CARTESIAN_POINT('Origin',(228.761471426329,126.889622016091,-1.65));
#646=CARTESIAN_POINT('',(231.761471426329,126.889622016091,-1.65));
#647=CARTESIAN_POINT('Origin',(228.761471426329,126.889622016091,-1.65));
#648=CARTESIAN_POINT('',(230.765,126.906244032182,-1.65));
#649=CARTESIAN_POINT('Origin',(228.765,126.906244032182,-1.65));
#650=CARTESIAN_POINT('Origin',(228.761471426329,126.889622016091,-1.65));
#651=CARTESIAN_POINT('',(231.761471426329,126.889622016091,-4.65));
#652=CARTESIAN_POINT('Origin',(228.761471426329,126.889622016091,-4.65));
#653=CARTESIAN_POINT('',(231.761471426329,126.889622016091,-1.65));
#654=CARTESIAN_POINT('Origin',(228.761471426329,126.889622016091,-4.65));
#655=CARTESIAN_POINT('Origin',(228.765,126.906244032182,1.35));
#656=CARTESIAN_POINT('',(230.765,126.906244032182,1.35));
#657=CARTESIAN_POINT('Origin',(229.286,41.021,-4.65));
#658=CARTESIAN_POINT('',(232.286,41.021,-1.65));
#659=CARTESIAN_POINT('Origin',(229.286,41.021,-1.65));
#660=CARTESIAN_POINT('',(232.286,41.021,-4.65));
#661=CARTESIAN_POINT('',(232.286,41.021,-4.65));
#662=CARTESIAN_POINT('Origin',(229.286,41.021,-4.65));
#663=CARTESIAN_POINT('Origin',(229.286,41.021,-1.65));
#664=CARTESIAN_POINT('Origin',(229.286,41.021,-4.65));
#665=CARTESIAN_POINT('Origin',(233.81,77.9779843976751,-2.73516492026719));
#666=CARTESIAN_POINT('',(233.81,23.0000003427267,1.00000001490116));
#667=CARTESIAN_POINT('',(233.81,23.0000003427267,-6.47032985543552));
#668=CARTESIAN_POINT('',(233.81,23.0000003427267,1.00000001490116));
#669=CARTESIAN_POINT('',(233.81,132.955968452624,-6.47032985543555));
#670=CARTESIAN_POINT('',(233.81,23.0000003427267,-6.47032985543552));
#671=CARTESIAN_POINT('',(233.81,132.955968452624,1.00000001490116));
#672=CARTESIAN_POINT('',(233.81,132.955968452624,-6.47032985543555));
#673=CARTESIAN_POINT('',(233.81,132.955968452624,1.00000001490116));
#674=CARTESIAN_POINT('Origin',(233.21,77.9779843976751,-2.73516492026719));
#675=CARTESIAN_POINT('',(233.21,25.000000372529,-4.59312469753027));
#676=CARTESIAN_POINT('',(233.21,25.000000372529,1.00000001490116));
#677=CARTESIAN_POINT('',(233.21,25.000000372529,-4.59312469753027));
#678=CARTESIAN_POINT('',(233.21,130.709026465848,1.00000001490116));
#679=CARTESIAN_POINT('',(233.21,132.955968452624,1.00000001490116));
#680=CARTESIAN_POINT('',(233.21,130.709026465848,-4.59312469753025));
#681=CARTESIAN_POINT('',(233.21,130.709026465848,1.00000001490116));
#682=CARTESIAN_POINT('',(233.21,130.709026465848,-4.59312469753025));
#683=CARTESIAN_POINT('Origin',(159.61,77.9779843976751,-2.73516492026719));
#684=CARTESIAN_POINT('',(159.61,132.955968452624,1.00000001490116));
#685=CARTESIAN_POINT('',(159.61,132.955968452624,-6.47032985543555));
#686=CARTESIAN_POINT('',(159.61,132.955968452624,1.00000001490116));
#687=CARTESIAN_POINT('',(159.61,23.0000003427267,-6.47032985543552));
#688=CARTESIAN_POINT('',(159.61,132.955968452624,-6.47032985543555));
#689=CARTESIAN_POINT('',(159.61,23.0000003427267,1.00000001490116));
#690=CARTESIAN_POINT('',(159.61,23.0000003427267,-6.47032985543552));
#691=CARTESIAN_POINT('',(159.61,23.0000003427267,1.00000001490116));
#692=CARTESIAN_POINT('Origin',(160.21,77.9779843976751,-2.73516492026719));
#693=CARTESIAN_POINT('',(160.21,130.709026465848,-4.59312469753025));
#694=CARTESIAN_POINT('',(160.21,130.709026465848,1.00000001490116));
#695=CARTESIAN_POINT('',(160.21,130.709026465848,1.00000001490116));
#696=CARTESIAN_POINT('',(160.21,25.000000372529,1.00000001490116));
#697=CARTESIAN_POINT('',(160.21,23.0000003427267,1.00000001490116));
#698=CARTESIAN_POINT('',(160.21,25.000000372529,-4.59312469753027));
#699=CARTESIAN_POINT('',(160.21,25.000000372529,-4.59312469753027));
#700=CARTESIAN_POINT('',(160.21,130.709026465848,-4.59312469753025));
#701=CARTESIAN_POINT('Origin',(233.21,130.709026465848,1.00000001490116));
#702=CARTESIAN_POINT('',(233.21,23.0000003427267,1.00000001490116));
#703=CARTESIAN_POINT('',(233.21,132.955968452624,1.00000001490116));
#704=CARTESIAN_POINT('',(233.21,25.000000372529,1.00000001490116));
#705=CARTESIAN_POINT('',(233.21,130.709026465848,1.00000001490116));
#706=CARTESIAN_POINT('Origin',(233.21,130.709026465848,-4.59312469753025));
#707=CARTESIAN_POINT('',(233.21,130.709026465848,-4.59312469753025));
#708=CARTESIAN_POINT('Origin',(233.21,25.000000372529,-4.59312469753027));
#709=CARTESIAN_POINT('',(233.21,25.000000372529,-4.59312469753027));
#710=CARTESIAN_POINT('Origin',(233.21,25.000000372529,1.00000001490116));
#711=CARTESIAN_POINT('Origin',(233.21,23.0000003427267,-6.47032985543552));
#712=CARTESIAN_POINT('',(233.21,23.0000003427267,-6.47032985543552));
#713=CARTESIAN_POINT('Origin',(233.21,132.955968452624,-6.47032985543555));
#714=CARTESIAN_POINT('',(233.21,132.955968452624,-6.47032985543555));
#715=CARTESIAN_POINT('Origin',(233.21,132.955968452624,1.00000001490116));
#716=CARTESIAN_POINT('Origin',(164.466,52.621,-4.65));
#717=CARTESIAN_POINT('',(167.466,52.621,-1.65));
#718=CARTESIAN_POINT('Origin',(164.466,52.621,-1.65));
#719=CARTESIAN_POINT('',(167.466,52.621,-4.65));
#720=CARTESIAN_POINT('',(167.466,52.621,-4.65));
#721=CARTESIAN_POINT('Origin',(164.466,52.621,-4.65));
#722=CARTESIAN_POINT('Origin',(164.466,52.621,-1.65));
#723=CARTESIAN_POINT('Origin',(164.466,52.621,-4.65));
#724=UNCERTAINTY_MEASURE_WITH_UNIT(LENGTH_MEASURE(0.01),#728,
'DISTANCE_ACCURACY_VALUE',
'Maximum model space distance between geometric entities at asserted c
onnectivities');
#725=UNCERTAINTY_MEASURE_WITH_UNIT(LENGTH_MEASURE(0.01),#728,
'DISTANCE_ACCURACY_VALUE',
'Maximum model space distance between geometric entities at asserted c
onnectivities');
#726=(
GEOMETRIC_REPRESENTATION_CONTEXT(3)
GLOBAL_UNCERTAINTY_ASSIGNED_CONTEXT((#724))
GLOBAL_UNIT_ASSIGNED_CONTEXT((#728,#729,#730))
REPRESENTATION_CONTEXT('','3D')
);
#727=(
GEOMETRIC_REPRESENTATION_CONTEXT(3)
GLOBAL_UNCERTAINTY_ASSIGNED_CONTEXT((#725))
GLOBAL_UNIT_ASSIGNED_CONTEXT((#728,#729,#730))
REPRESENTATION_CONTEXT('','3D')
);
#728=(
LENGTH_UNIT()
NAMED_UNIT(*)
SI_UNIT(.MILLI.,.METRE.)
);
#729=(
NAMED_UNIT(*)
PLANE_ANGLE_UNIT()
SI_UNIT($,.RADIAN.)
);
#730=(
NAMED_UNIT(*)
SI_UNIT($,.STERADIAN.)
SOLID_ANGLE_UNIT()
);
#731=SHAPE_DEFINITION_REPRESENTATION(#732,#733);
#732=PRODUCT_DEFINITION_SHAPE('',$,#735);
#733=SHAPE_REPRESENTATION('',(#428),#726);
#734=PRODUCT_DEFINITION_CONTEXT('part definition',#739,'design');
#735=PRODUCT_DEFINITION('2025-10-22-16-13-47-561',
'dc_cdi_cx500_conn_top_housing',#736,#734);
#736=PRODUCT_DEFINITION_FORMATION('',$,#741);
#737=PRODUCT_RELATED_PRODUCT_CATEGORY('dc_cdi_cx500_conn_top_housing',
'dc_cdi_cx500_conn_top_housing',(#741));
#738=APPLICATION_PROTOCOL_DEFINITION('international standard',
'automotive_design',2009,#739);
#739=APPLICATION_CONTEXT(
'Core Data for Automotive Mechanical Design Process');
#740=PRODUCT_CONTEXT('part definition',#739,'mechanical');
#741=PRODUCT('2025-10-22-16-13-47-561','dc_cdi_cx500_conn_top_housing',
'Open CASCADE Model',(#740));
#742=PRESENTATION_STYLE_ASSIGNMENT((#743));
#743=SURFACE_STYLE_USAGE(.BOTH.,#744);
#744=SURFACE_SIDE_STYLE('',(#745));
#745=SURFACE_STYLE_FILL_AREA(#746);
#746=FILL_AREA_STYLE('Acciaio - Satinato',(#747));
#747=FILL_AREA_STYLE_COLOUR('Acciaio - Satinato',#748);
#748=COLOUR_RGB('Acciaio - Satinato',0.627450980392157,0.627450980392157,
0.627450980392157);
ENDSEC;
END-ISO-10303-21;
