G04*
G04 #@! TF.GenerationSoftware,Altium Limited,Altium Designer,25.2.1 (25)*
G04*
G04 Layer_Physical_Order=2*
G04 Layer_Color=36540*
%FSLAX44Y44*%
%MOMM*%
G71*
G04*
G04 #@! TF.SameCoordinates,245930A5-F2C7-430A-BF85-77EB81D10B19*
G04*
G04*
G04 #@! TF.FilePolarity,Positive*
G04*
G01*
G75*
%ADD11C,0.2540*%
%ADD67R,1.6000X1.6000*%
%ADD68C,1.6000*%
%ADD81C,2.4000*%
G04:AMPARAMS|DCode=82|XSize=2.4mm|YSize=2.4mm|CornerRadius=0.6mm|HoleSize=0mm|Usage=FLASHONLY|Rotation=180.000|XOffset=0mm|YOffset=0mm|HoleType=Round|Shape=RoundedRectangle|*
%AMROUNDEDRECTD82*
21,1,2.4000,1.2000,0,0,180.0*
21,1,1.2000,2.4000,0,0,180.0*
1,1,1.2000,-0.6000,0.6000*
1,1,1.2000,0.6000,0.6000*
1,1,1.2000,0.6000,-0.6000*
1,1,1.2000,-0.6000,-0.6000*
%
%ADD82ROUNDEDRECTD82*%
%ADD83C,3.0000*%
%ADD84C,1.2700*%
%ADD85C,0.6000*%
%ADD86C,0.8000*%
%ADD87C,0.7000*%
%ADD88C,0.5000*%
%ADD89C,1.5240*%
G36*
X1147641Y1250937D02*
X1146692Y1250544D01*
X1143819Y1248624D01*
X1141376Y1246181D01*
X1139456Y1243308D01*
X1138134Y1240116D01*
X1137460Y1236728D01*
Y1233272D01*
X1138134Y1229884D01*
X1139456Y1226692D01*
X1141376Y1223819D01*
X1143819Y1221376D01*
X1146692Y1219456D01*
X1149884Y1218134D01*
X1153272Y1217460D01*
X1156728D01*
X1160116Y1218134D01*
X1163308Y1219456D01*
X1166181Y1221376D01*
X1168624Y1223819D01*
X1170544Y1226692D01*
X1171866Y1229884D01*
X1174345Y1229371D01*
Y185629D01*
X1171866Y185116D01*
X1170544Y188308D01*
X1168624Y191181D01*
X1166181Y193624D01*
X1163308Y195544D01*
X1160116Y196866D01*
X1156728Y197540D01*
X1153272D01*
X1149884Y196866D01*
X1146692Y195544D01*
X1143819Y193624D01*
X1141376Y191181D01*
X1139456Y188308D01*
X1138134Y185116D01*
X1137460Y181728D01*
Y178272D01*
X1138134Y174884D01*
X1139456Y171692D01*
X1140466Y170180D01*
X1139109Y167640D01*
X515891D01*
X514534Y170180D01*
X515544Y171692D01*
X516866Y174884D01*
X517540Y178272D01*
Y181728D01*
X516866Y185116D01*
X515544Y188308D01*
X513624Y191181D01*
X511181Y193624D01*
X508308Y195544D01*
X505116Y196866D01*
X501727Y197540D01*
X498273D01*
X494884Y196866D01*
X491692Y195544D01*
X488819Y193624D01*
X486410Y191215D01*
X486263Y191218D01*
X483870Y192003D01*
Y1222997D01*
X486263Y1223782D01*
X486410Y1223785D01*
X488819Y1221376D01*
X491692Y1219456D01*
X494884Y1218134D01*
X498273Y1217460D01*
X501727D01*
X505116Y1218134D01*
X508308Y1219456D01*
X511181Y1221376D01*
X513624Y1223819D01*
X515544Y1226692D01*
X516866Y1229884D01*
X517540Y1233272D01*
Y1236728D01*
X516866Y1240116D01*
X515544Y1243308D01*
X513624Y1246181D01*
X511181Y1248624D01*
X509532Y1249726D01*
X510300Y1252268D01*
X1147134Y1253476D01*
X1147641Y1250937D01*
D02*
G37*
%LPC*%
G36*
X859164Y1213730D02*
X855336D01*
X851638Y1212739D01*
X848322Y1210825D01*
X845615Y1208118D01*
X843701Y1204802D01*
X842710Y1201104D01*
Y1197276D01*
X843701Y1193578D01*
X845615Y1190262D01*
X848322Y1187555D01*
X851638Y1185641D01*
X855336Y1184650D01*
X859164D01*
X862862Y1185641D01*
X866178Y1187555D01*
X868885Y1190262D01*
X870799Y1193578D01*
X871790Y1197276D01*
Y1201104D01*
X870799Y1204802D01*
X868885Y1208118D01*
X866178Y1210825D01*
X862862Y1212739D01*
X859164Y1213730D01*
D02*
G37*
G36*
X812450Y1213804D02*
X800450D01*
X798221Y1213510D01*
X796143Y1212650D01*
X794359Y1211281D01*
X792990Y1209497D01*
X792130Y1207419D01*
X791836Y1205190D01*
Y1193190D01*
X792130Y1190961D01*
X792990Y1188883D01*
X794359Y1187099D01*
X796143Y1185730D01*
X798221Y1184870D01*
X800450Y1184576D01*
X812450D01*
X814679Y1184870D01*
X816757Y1185730D01*
X818541Y1187099D01*
X819910Y1188883D01*
X820770Y1190961D01*
X821064Y1193190D01*
Y1205190D01*
X820770Y1207419D01*
X819910Y1209497D01*
X818541Y1211281D01*
X816757Y1212650D01*
X814679Y1213510D01*
X812450Y1213804D01*
D02*
G37*
G36*
X1150410Y1088770D02*
X1129330D01*
Y1067690D01*
X1150410D01*
Y1088770D01*
D02*
G37*
G36*
X866258D02*
X863482D01*
X860802Y1088052D01*
X858398Y1086664D01*
X856436Y1084702D01*
X855048Y1082298D01*
X854330Y1079618D01*
Y1076842D01*
X855048Y1074162D01*
X856436Y1071758D01*
X858398Y1069796D01*
X860802Y1068408D01*
X863482Y1067690D01*
X866258D01*
X868938Y1068408D01*
X871342Y1069796D01*
X873304Y1071758D01*
X874692Y1074162D01*
X875410Y1076842D01*
Y1079618D01*
X874692Y1082298D01*
X873304Y1084702D01*
X871342Y1086664D01*
X868938Y1088052D01*
X866258Y1088770D01*
D02*
G37*
G36*
X800558D02*
X797782D01*
X795102Y1088052D01*
X792698Y1086664D01*
X790736Y1084702D01*
X789348Y1082298D01*
X788630Y1079618D01*
Y1076842D01*
X789348Y1074162D01*
X790736Y1071758D01*
X792698Y1069796D01*
X795102Y1068408D01*
X797782Y1067690D01*
X800558D01*
X803238Y1068408D01*
X805642Y1069796D01*
X807604Y1071758D01*
X808992Y1074162D01*
X809710Y1076842D01*
Y1079618D01*
X808992Y1082298D01*
X807604Y1084702D01*
X805642Y1086664D01*
X803238Y1088052D01*
X800558Y1088770D01*
D02*
G37*
G36*
X534710D02*
X513630D01*
Y1067690D01*
X534710D01*
Y1088770D01*
D02*
G37*
G36*
X845720Y986790D02*
X843380D01*
X841119Y986184D01*
X839091Y985014D01*
X837436Y983359D01*
X836266Y981331D01*
X835660Y979070D01*
Y976730D01*
X836266Y974469D01*
X837436Y972441D01*
X839091Y970786D01*
X841119Y969616D01*
X843380Y969010D01*
X845720D01*
X847981Y969616D01*
X850009Y970786D01*
X851664Y972441D01*
X852834Y974469D01*
X853440Y976730D01*
Y979070D01*
X852834Y981331D01*
X851664Y983359D01*
X850009Y985014D01*
X847981Y986184D01*
X845720Y986790D01*
D02*
G37*
G36*
X1036220Y985520D02*
X1033880D01*
X1031619Y984914D01*
X1029591Y983744D01*
X1027936Y982089D01*
X1026766Y980061D01*
X1026160Y977800D01*
Y975460D01*
X1026766Y973199D01*
X1027936Y971171D01*
X1029591Y969516D01*
X1031619Y968346D01*
X1033880Y967740D01*
X1036220D01*
X1038481Y968346D01*
X1040509Y969516D01*
X1042164Y971171D01*
X1043334Y973199D01*
X1043940Y975460D01*
Y977800D01*
X1043334Y980061D01*
X1042164Y982089D01*
X1040509Y983744D01*
X1038481Y984914D01*
X1036220Y985520D01*
D02*
G37*
G36*
X642380Y942200D02*
X640040D01*
X637779Y941594D01*
X635751Y940424D01*
X634096Y938769D01*
X632926Y936741D01*
X632320Y934480D01*
Y932140D01*
X632926Y929879D01*
X634096Y927851D01*
X635751Y926196D01*
X637779Y925026D01*
X640040Y924420D01*
X642380D01*
X644641Y925026D01*
X646669Y926196D01*
X648324Y927851D01*
X649494Y929879D01*
X650100Y932140D01*
Y934480D01*
X649494Y936741D01*
X648324Y938769D01*
X646669Y940424D01*
X644641Y941594D01*
X642380Y942200D01*
D02*
G37*
G36*
X854610Y941070D02*
X852270D01*
X850009Y940464D01*
X847981Y939294D01*
X846326Y937639D01*
X845156Y935611D01*
X844550Y933350D01*
Y931010D01*
X845156Y928749D01*
X846326Y926721D01*
X847981Y925066D01*
X850009Y923896D01*
X852270Y923290D01*
X854610D01*
X856871Y923896D01*
X858899Y925066D01*
X860554Y926721D01*
X861724Y928749D01*
X862330Y931010D01*
Y933350D01*
X861724Y935611D01*
X860554Y937639D01*
X858899Y939294D01*
X856871Y940464D01*
X854610Y941070D01*
D02*
G37*
G36*
X743018Y853559D02*
X740342D01*
X737758Y852867D01*
X735442Y851530D01*
X733550Y849638D01*
X732212Y847321D01*
X731520Y844737D01*
Y842062D01*
X732212Y839478D01*
X733550Y837161D01*
X735442Y835269D01*
X737758Y833932D01*
X740342Y833240D01*
X743018D01*
X745602Y833932D01*
X747918Y835269D01*
X749810Y837161D01*
X751148Y839478D01*
X751840Y842062D01*
Y844737D01*
X751148Y847321D01*
X749810Y849638D01*
X747918Y851530D01*
X745602Y852867D01*
X743018Y853559D01*
D02*
G37*
G36*
X704918D02*
X702242D01*
X699658Y852867D01*
X697342Y851530D01*
X695450Y849638D01*
X694112Y847321D01*
X693420Y844737D01*
Y842062D01*
X694112Y839478D01*
X695450Y837161D01*
X697342Y835269D01*
X699658Y833932D01*
X702242Y833240D01*
X704918D01*
X707502Y833932D01*
X709818Y835269D01*
X711710Y837161D01*
X713048Y839478D01*
X713740Y842062D01*
Y844737D01*
X713048Y847321D01*
X711710Y849638D01*
X709818Y851530D01*
X707502Y852867D01*
X704918Y853559D01*
D02*
G37*
G36*
X590618D02*
X587942D01*
X585358Y852867D01*
X583042Y851530D01*
X581150Y849638D01*
X579812Y847321D01*
X579120Y844737D01*
Y842062D01*
X579812Y839478D01*
X581150Y837161D01*
X583042Y835269D01*
X585358Y833932D01*
X587942Y833240D01*
X590618D01*
X593202Y833932D01*
X595518Y835269D01*
X597410Y837161D01*
X598748Y839478D01*
X599440Y842062D01*
Y844737D01*
X598748Y847321D01*
X597410Y849638D01*
X595518Y851530D01*
X593202Y852867D01*
X590618Y853559D01*
D02*
G37*
G36*
X1069408Y850900D02*
X1066732D01*
X1064148Y850208D01*
X1061832Y848870D01*
X1059940Y846978D01*
X1058602Y844662D01*
X1057910Y842078D01*
Y839402D01*
X1058602Y836818D01*
X1059940Y834502D01*
X1061832Y832610D01*
X1064148Y831272D01*
X1066732Y830580D01*
X1069408D01*
X1071992Y831272D01*
X1074308Y832610D01*
X1076200Y834502D01*
X1077538Y836818D01*
X1078230Y839402D01*
Y842078D01*
X1077538Y844662D01*
X1076200Y846978D01*
X1074308Y848870D01*
X1071992Y850208D01*
X1069408Y850900D01*
D02*
G37*
G36*
X1031308D02*
X1028632D01*
X1026048Y850208D01*
X1023732Y848870D01*
X1021840Y846978D01*
X1020502Y844662D01*
X1019810Y842078D01*
Y839402D01*
X1020502Y836818D01*
X1021840Y834502D01*
X1023732Y832610D01*
X1026048Y831272D01*
X1028632Y830580D01*
X1031308D01*
X1033892Y831272D01*
X1036208Y832610D01*
X1038100Y834502D01*
X1039438Y836818D01*
X1040130Y839402D01*
Y842078D01*
X1039438Y844662D01*
X1038100Y846978D01*
X1036208Y848870D01*
X1033892Y850208D01*
X1031308Y850900D01*
D02*
G37*
G36*
X917008D02*
X914332D01*
X911748Y850208D01*
X909432Y848870D01*
X907540Y846978D01*
X906202Y844662D01*
X905510Y842078D01*
Y839402D01*
X906202Y836818D01*
X907540Y834502D01*
X909432Y832610D01*
X911748Y831272D01*
X914332Y830580D01*
X917008D01*
X919592Y831272D01*
X921908Y832610D01*
X923800Y834502D01*
X925138Y836818D01*
X925830Y839402D01*
Y842078D01*
X925138Y844662D01*
X923800Y846978D01*
X921908Y848870D01*
X919592Y850208D01*
X917008Y850900D01*
D02*
G37*
G36*
X1107340Y843280D02*
X1105000D01*
X1102739Y842674D01*
X1100711Y841504D01*
X1099056Y839849D01*
X1097886Y837821D01*
X1097280Y835560D01*
Y833220D01*
X1097886Y830959D01*
X1099056Y828931D01*
X1100711Y827276D01*
X1102739Y826106D01*
X1105000Y825500D01*
X1107340D01*
X1109601Y826106D01*
X1111629Y827276D01*
X1113284Y828931D01*
X1114454Y830959D01*
X1115060Y833220D01*
Y835560D01*
X1114454Y837821D01*
X1113284Y839849D01*
X1111629Y841504D01*
X1109601Y842674D01*
X1107340Y843280D01*
D02*
G37*
G36*
X1042570Y795020D02*
X1040230D01*
X1037969Y794414D01*
X1035941Y793244D01*
X1034286Y791589D01*
X1033116Y789561D01*
X1032510Y787300D01*
Y784960D01*
X1033116Y782699D01*
X1034286Y780671D01*
X1035941Y779016D01*
X1037969Y777846D01*
X1040230Y777240D01*
X1042570D01*
X1044831Y777846D01*
X1046859Y779016D01*
X1048514Y780671D01*
X1049684Y782699D01*
X1050290Y784960D01*
Y787300D01*
X1049684Y789561D01*
X1048514Y791589D01*
X1046859Y793244D01*
X1044831Y794414D01*
X1042570Y795020D01*
D02*
G37*
G36*
X1126390Y764540D02*
X1124050D01*
X1121789Y763934D01*
X1119761Y762764D01*
X1118106Y761109D01*
X1116936Y759081D01*
X1116330Y756820D01*
Y754480D01*
X1116936Y752219D01*
X1118106Y750191D01*
X1119761Y748536D01*
X1121789Y747366D01*
X1124050Y746760D01*
X1126390D01*
X1128651Y747366D01*
X1130679Y748536D01*
X1132334Y750191D01*
X1133504Y752219D01*
X1134110Y754480D01*
Y756820D01*
X1133504Y759081D01*
X1132334Y761109D01*
X1130679Y762764D01*
X1128651Y763934D01*
X1126390Y764540D01*
D02*
G37*
G36*
X909220Y734060D02*
X906880D01*
X904619Y733454D01*
X902591Y732284D01*
X900936Y730629D01*
X899766Y728601D01*
X899160Y726340D01*
Y724000D01*
X899766Y721739D01*
X900936Y719711D01*
X902591Y718056D01*
X904619Y716886D01*
X906880Y716280D01*
X909220D01*
X911481Y716886D01*
X913509Y718056D01*
X915164Y719711D01*
X916334Y721739D01*
X916940Y724000D01*
Y726340D01*
X916334Y728601D01*
X915164Y730629D01*
X913509Y732284D01*
X911481Y733454D01*
X909220Y734060D01*
D02*
G37*
G36*
X1050190Y725170D02*
X1047850D01*
X1045589Y724564D01*
X1043561Y723394D01*
X1041906Y721739D01*
X1040736Y719711D01*
X1040130Y717450D01*
Y715110D01*
X1040736Y712849D01*
X1041906Y710821D01*
X1043561Y709166D01*
X1045589Y707996D01*
X1047850Y707390D01*
X1050190D01*
X1052451Y707996D01*
X1054479Y709166D01*
X1056134Y710821D01*
X1057304Y712849D01*
X1057910Y715110D01*
Y717450D01*
X1057304Y719711D01*
X1056134Y721739D01*
X1054479Y723394D01*
X1052451Y724564D01*
X1050190Y725170D01*
D02*
G37*
G36*
X896520Y717550D02*
X894180D01*
X891919Y716944D01*
X889891Y715774D01*
X888236Y714119D01*
X887066Y712091D01*
X886460Y709830D01*
Y707490D01*
X887066Y705229D01*
X888236Y703201D01*
X889891Y701546D01*
X891919Y700376D01*
X894180Y699770D01*
X896520D01*
X898781Y700376D01*
X900809Y701546D01*
X902464Y703201D01*
X903634Y705229D01*
X904240Y707490D01*
Y709830D01*
X903634Y712091D01*
X902464Y714119D01*
X900809Y715774D01*
X898781Y716944D01*
X896520Y717550D01*
D02*
G37*
G36*
X782220Y706120D02*
X779880D01*
X777619Y705514D01*
X775591Y704344D01*
X773936Y702689D01*
X772766Y700661D01*
X772160Y698400D01*
Y696060D01*
X772766Y693799D01*
X773936Y691771D01*
X775591Y690116D01*
X777619Y688946D01*
X779880Y688340D01*
X782220D01*
X784481Y688946D01*
X786509Y690116D01*
X788164Y691771D01*
X789334Y693799D01*
X789940Y696060D01*
Y698400D01*
X789334Y700661D01*
X788164Y702689D01*
X786509Y704344D01*
X784481Y705514D01*
X782220Y706120D01*
D02*
G37*
G36*
X743018Y701160D02*
X740342D01*
X737758Y700467D01*
X735442Y699130D01*
X733550Y697238D01*
X732212Y694921D01*
X731520Y692337D01*
Y689662D01*
X732212Y687078D01*
X733550Y684761D01*
X735442Y682869D01*
X737758Y681532D01*
X740342Y680839D01*
X743018D01*
X745602Y681532D01*
X747918Y682869D01*
X749810Y684761D01*
X751148Y687078D01*
X751840Y689662D01*
Y692337D01*
X751148Y694921D01*
X749810Y697238D01*
X747918Y699130D01*
X745602Y700467D01*
X743018Y701160D01*
D02*
G37*
G36*
X704918D02*
X702242D01*
X699658Y700467D01*
X697342Y699130D01*
X695450Y697238D01*
X694112Y694921D01*
X693420Y692337D01*
Y689662D01*
X694112Y687078D01*
X695450Y684761D01*
X697342Y682869D01*
X699658Y681532D01*
X702242Y680839D01*
X704918D01*
X707502Y681532D01*
X709818Y682869D01*
X711710Y684761D01*
X713048Y687078D01*
X713740Y689662D01*
Y692337D01*
X713048Y694921D01*
X711710Y697238D01*
X709818Y699130D01*
X707502Y700467D01*
X704918Y701160D01*
D02*
G37*
G36*
X666818D02*
X664142D01*
X661558Y700467D01*
X659242Y699130D01*
X657350Y697238D01*
X656012Y694921D01*
X655320Y692337D01*
Y689662D01*
X656012Y687078D01*
X657350Y684761D01*
X659242Y682869D01*
X661558Y681532D01*
X664142Y680839D01*
X666818D01*
X669402Y681532D01*
X671718Y682869D01*
X673610Y684761D01*
X674948Y687078D01*
X675640Y689662D01*
Y692337D01*
X674948Y694921D01*
X673610Y697238D01*
X671718Y699130D01*
X669402Y700467D01*
X666818Y701160D01*
D02*
G37*
G36*
X628718D02*
X626042D01*
X623458Y700467D01*
X621142Y699130D01*
X619250Y697238D01*
X617912Y694921D01*
X617220Y692337D01*
Y689662D01*
X617912Y687078D01*
X619250Y684761D01*
X621142Y682869D01*
X623458Y681532D01*
X626042Y680839D01*
X628718D01*
X631302Y681532D01*
X633618Y682869D01*
X635510Y684761D01*
X636848Y687078D01*
X637540Y689662D01*
Y692337D01*
X636848Y694921D01*
X635510Y697238D01*
X633618Y699130D01*
X631302Y700467D01*
X628718Y701160D01*
D02*
G37*
G36*
X590618D02*
X587942D01*
X585358Y700467D01*
X583042Y699130D01*
X581150Y697238D01*
X579812Y694921D01*
X579120Y692337D01*
Y689662D01*
X579812Y687078D01*
X581150Y684761D01*
X583042Y682869D01*
X585358Y681532D01*
X587942Y680839D01*
X590618D01*
X593202Y681532D01*
X595518Y682869D01*
X597410Y684761D01*
X598748Y687078D01*
X599440Y689662D01*
Y692337D01*
X598748Y694921D01*
X597410Y697238D01*
X595518Y699130D01*
X593202Y700467D01*
X590618Y701160D01*
D02*
G37*
G36*
X1069408Y698500D02*
X1066732D01*
X1064148Y697808D01*
X1061832Y696470D01*
X1059940Y694578D01*
X1058602Y692262D01*
X1057910Y689678D01*
Y687002D01*
X1058602Y684418D01*
X1059940Y682102D01*
X1061832Y680210D01*
X1064148Y678872D01*
X1066732Y678180D01*
X1069408D01*
X1071992Y678872D01*
X1074308Y680210D01*
X1076200Y682102D01*
X1077538Y684418D01*
X1078230Y687002D01*
Y689678D01*
X1077538Y692262D01*
X1076200Y694578D01*
X1074308Y696470D01*
X1071992Y697808D01*
X1069408Y698500D01*
D02*
G37*
G36*
X1031308D02*
X1028632D01*
X1026048Y697808D01*
X1023732Y696470D01*
X1021840Y694578D01*
X1020502Y692262D01*
X1019810Y689678D01*
Y687002D01*
X1020502Y684418D01*
X1021840Y682102D01*
X1023732Y680210D01*
X1026048Y678872D01*
X1028632Y678180D01*
X1031308D01*
X1033892Y678872D01*
X1036208Y680210D01*
X1038100Y682102D01*
X1039438Y684418D01*
X1040130Y687002D01*
Y689678D01*
X1039438Y692262D01*
X1038100Y694578D01*
X1036208Y696470D01*
X1033892Y697808D01*
X1031308Y698500D01*
D02*
G37*
G36*
X993208D02*
X990532D01*
X987948Y697808D01*
X985632Y696470D01*
X983740Y694578D01*
X982402Y692262D01*
X981710Y689678D01*
Y687002D01*
X982402Y684418D01*
X983740Y682102D01*
X985632Y680210D01*
X987948Y678872D01*
X990532Y678180D01*
X993208D01*
X995792Y678872D01*
X998108Y680210D01*
X1000000Y682102D01*
X1001338Y684418D01*
X1002030Y687002D01*
Y689678D01*
X1001338Y692262D01*
X1000000Y694578D01*
X998108Y696470D01*
X995792Y697808D01*
X993208Y698500D01*
D02*
G37*
G36*
X955108D02*
X952432D01*
X949848Y697808D01*
X947532Y696470D01*
X945640Y694578D01*
X944302Y692262D01*
X943610Y689678D01*
Y687002D01*
X944302Y684418D01*
X945640Y682102D01*
X947532Y680210D01*
X949848Y678872D01*
X952432Y678180D01*
X955108D01*
X957692Y678872D01*
X960008Y680210D01*
X961900Y682102D01*
X963238Y684418D01*
X963930Y687002D01*
Y689678D01*
X963238Y692262D01*
X961900Y694578D01*
X960008Y696470D01*
X957692Y697808D01*
X955108Y698500D01*
D02*
G37*
G36*
X917008D02*
X914332D01*
X911748Y697808D01*
X909432Y696470D01*
X907540Y694578D01*
X906202Y692262D01*
X905510Y689678D01*
Y687002D01*
X906202Y684418D01*
X907540Y682102D01*
X909432Y680210D01*
X911748Y678872D01*
X914332Y678180D01*
X917008D01*
X919592Y678872D01*
X921908Y680210D01*
X923800Y682102D01*
X925138Y684418D01*
X925830Y687002D01*
Y689678D01*
X925138Y692262D01*
X923800Y694578D01*
X921908Y696470D01*
X919592Y697808D01*
X917008Y698500D01*
D02*
G37*
G36*
X862230Y669290D02*
X859890D01*
X857629Y668684D01*
X855601Y667514D01*
X853946Y665859D01*
X852776Y663831D01*
X852170Y661570D01*
Y659230D01*
X852776Y656969D01*
X853946Y654941D01*
X855601Y653286D01*
X857629Y652116D01*
X859890Y651510D01*
X862230D01*
X864491Y652116D01*
X866519Y653286D01*
X868174Y654941D01*
X869344Y656969D01*
X869950Y659230D01*
Y661570D01*
X869344Y663831D01*
X868174Y665859D01*
X866519Y667514D01*
X864491Y668684D01*
X862230Y669290D01*
D02*
G37*
G36*
X807620Y683260D02*
X805280D01*
X803019Y682654D01*
X800991Y681484D01*
X799336Y679829D01*
X798166Y677801D01*
X797560Y675540D01*
Y673200D01*
X798166Y670939D01*
X799336Y668911D01*
X800991Y667256D01*
X803019Y666086D01*
X805280Y665480D01*
X807620D01*
X808481Y665711D01*
X810155Y663530D01*
X809596Y662561D01*
X808990Y660300D01*
Y657960D01*
X809596Y655699D01*
X810766Y653671D01*
X812421Y652016D01*
X814449Y650846D01*
X816710Y650240D01*
X819050D01*
X821311Y650846D01*
X823339Y652016D01*
X824994Y653671D01*
X826164Y655699D01*
X826770Y657960D01*
Y660300D01*
X826164Y662561D01*
X824994Y664589D01*
X823339Y666244D01*
X821311Y667414D01*
X819050Y668020D01*
X816710D01*
X815849Y667789D01*
X814175Y669970D01*
X814734Y670939D01*
X815340Y673200D01*
Y675540D01*
X814734Y677801D01*
X813564Y679829D01*
X811909Y681484D01*
X809881Y682654D01*
X807620Y683260D01*
D02*
G37*
G36*
X764440Y655320D02*
X762100D01*
X759839Y654714D01*
X757811Y653544D01*
X756156Y651889D01*
X754986Y649861D01*
X754380Y647600D01*
Y645260D01*
X754986Y642999D01*
X756156Y640971D01*
X757811Y639316D01*
X759839Y638146D01*
X762100Y637540D01*
X764440D01*
X766701Y638146D01*
X768729Y639316D01*
X770384Y640971D01*
X771554Y642999D01*
X772160Y645260D01*
Y647600D01*
X771554Y649861D01*
X770384Y651889D01*
X768729Y653544D01*
X766701Y654714D01*
X764440Y655320D01*
D02*
G37*
G36*
X935890Y651510D02*
X933550D01*
X931289Y650904D01*
X929261Y649734D01*
X927606Y648079D01*
X926436Y646051D01*
X925830Y643790D01*
Y641450D01*
X926436Y639189D01*
X927606Y637161D01*
X929261Y635506D01*
X931289Y634336D01*
X933550Y633730D01*
X935890D01*
X938151Y634336D01*
X940179Y635506D01*
X941834Y637161D01*
X943004Y639189D01*
X943610Y641450D01*
Y643790D01*
X943004Y646051D01*
X941834Y648079D01*
X940179Y649734D01*
X938151Y650904D01*
X935890Y651510D01*
D02*
G37*
G36*
X1125921Y641700D02*
X1124199D01*
X1122536Y641254D01*
X1121045Y640393D01*
X1119827Y639175D01*
X1118966Y637684D01*
X1118520Y636021D01*
Y634299D01*
X1118966Y632635D01*
X1119827Y631144D01*
X1121045Y629926D01*
X1122536Y629065D01*
X1124199Y628620D01*
X1125921D01*
X1127585Y629065D01*
X1129076Y629926D01*
X1130294Y631144D01*
X1131155Y632635D01*
X1131600Y634299D01*
Y636021D01*
X1131155Y637684D01*
X1130294Y639175D01*
X1129076Y640393D01*
X1127585Y641254D01*
X1125921Y641700D01*
D02*
G37*
G36*
X959853Y617180D02*
X957848D01*
X955995Y616413D01*
X954577Y614995D01*
X953810Y613143D01*
Y611138D01*
X954577Y609285D01*
X955995Y607867D01*
X957848Y607100D01*
X959853D01*
X961705Y607867D01*
X963123Y609285D01*
X963890Y611138D01*
Y613143D01*
X963123Y614995D01*
X961705Y616413D01*
X959853Y617180D01*
D02*
G37*
G36*
X1146401Y607250D02*
X1144679D01*
X1143016Y606804D01*
X1141524Y605943D01*
X1140307Y604726D01*
X1139446Y603234D01*
X1139000Y601571D01*
Y599849D01*
X1139446Y598186D01*
X1140307Y596694D01*
X1141524Y595477D01*
X1143016Y594616D01*
X1144679Y594170D01*
X1146401D01*
X1148064Y594616D01*
X1149556Y595477D01*
X1150773Y596694D01*
X1151634Y598186D01*
X1152080Y599849D01*
Y601571D01*
X1151634Y603234D01*
X1150773Y604726D01*
X1149556Y605943D01*
X1148064Y606804D01*
X1146401Y607250D01*
D02*
G37*
G36*
X1095601Y611060D02*
X1093879D01*
X1092216Y610614D01*
X1090724Y609753D01*
X1089507Y608536D01*
X1088646Y607044D01*
X1088200Y605381D01*
Y603659D01*
X1088646Y601996D01*
X1089507Y600504D01*
X1090724Y599287D01*
X1092216Y598426D01*
X1093879Y597980D01*
X1095601D01*
X1097264Y598426D01*
X1097590Y598614D01*
X1100130Y597223D01*
Y596969D01*
X1101049Y594749D01*
X1102749Y593050D01*
X1104969Y592130D01*
X1107371D01*
X1109591Y593050D01*
X1111291Y594749D01*
X1112210Y596969D01*
Y599371D01*
X1111291Y601591D01*
X1109591Y603290D01*
X1107371Y604210D01*
X1104969D01*
X1103820Y603734D01*
X1101387Y605081D01*
X1101280Y605222D01*
Y605381D01*
X1100834Y607044D01*
X1099973Y608536D01*
X1098756Y609753D01*
X1097264Y610614D01*
X1095601Y611060D01*
D02*
G37*
G36*
X674202Y594820D02*
X671998D01*
X669962Y593977D01*
X668403Y592418D01*
X667560Y590382D01*
Y588178D01*
X668403Y586142D01*
X669962Y584583D01*
X671998Y583740D01*
X674202D01*
X676238Y584583D01*
X677797Y586142D01*
X678640Y588178D01*
Y590382D01*
X677797Y592418D01*
X676238Y593977D01*
X674202Y594820D01*
D02*
G37*
G36*
X610770Y579120D02*
X608430D01*
X606169Y578514D01*
X604141Y577344D01*
X602486Y575689D01*
X601316Y573661D01*
X600710Y571400D01*
Y569060D01*
X601316Y566799D01*
X602486Y564771D01*
X604141Y563116D01*
X606169Y561946D01*
X608430Y561340D01*
X610770D01*
X613031Y561946D01*
X615059Y563116D01*
X616714Y564771D01*
X617884Y566799D01*
X618490Y569060D01*
Y571400D01*
X617884Y573661D01*
X616714Y575689D01*
X615059Y577344D01*
X613031Y578514D01*
X610770Y579120D01*
D02*
G37*
G36*
X1047650Y574040D02*
X1045310D01*
X1043049Y573434D01*
X1041021Y572264D01*
X1039366Y570609D01*
X1038196Y568581D01*
X1037590Y566320D01*
Y563980D01*
X1038196Y561719D01*
X1039366Y559691D01*
X1041021Y558036D01*
X1043049Y556866D01*
X1045310Y556260D01*
X1047650D01*
X1049911Y556866D01*
X1051939Y558036D01*
X1053594Y559691D01*
X1054764Y561719D01*
X1055370Y563980D01*
Y566320D01*
X1054764Y568581D01*
X1053594Y570609D01*
X1051939Y572264D01*
X1049911Y573434D01*
X1047650Y574040D01*
D02*
G37*
G36*
X1027330Y571500D02*
X1024990D01*
X1022729Y570894D01*
X1020701Y569724D01*
X1019046Y568069D01*
X1017876Y566041D01*
X1017270Y563780D01*
Y561440D01*
X1017876Y559179D01*
X1019046Y557151D01*
X1020701Y555496D01*
X1022729Y554326D01*
X1024990Y553720D01*
X1027330D01*
X1029591Y554326D01*
X1031619Y555496D01*
X1033274Y557151D01*
X1034444Y559179D01*
X1035050Y561440D01*
Y563780D01*
X1034444Y566041D01*
X1033274Y568069D01*
X1031619Y569724D01*
X1029591Y570894D01*
X1027330Y571500D01*
D02*
G37*
G36*
X681890Y563880D02*
X679550D01*
X677289Y563274D01*
X675261Y562104D01*
X673606Y560449D01*
X672436Y558421D01*
X671830Y556160D01*
Y553820D01*
X672436Y551559D01*
X673606Y549531D01*
X675261Y547876D01*
X677289Y546706D01*
X679550Y546100D01*
X681890D01*
X684151Y546706D01*
X686179Y547876D01*
X687834Y549531D01*
X689004Y551559D01*
X689610Y553820D01*
Y556160D01*
X689004Y558421D01*
X687834Y560449D01*
X686179Y562104D01*
X684151Y563274D01*
X681890Y563880D01*
D02*
G37*
G36*
X1090830Y558800D02*
X1088490D01*
X1086229Y558194D01*
X1084201Y557024D01*
X1082546Y555369D01*
X1081376Y553341D01*
X1080770Y551080D01*
Y548740D01*
X1081376Y546479D01*
X1082546Y544451D01*
X1084201Y542796D01*
X1086229Y541626D01*
X1088490Y541020D01*
X1090830D01*
X1093091Y541626D01*
X1095119Y542796D01*
X1096774Y544451D01*
X1097944Y546479D01*
X1098550Y548740D01*
Y551080D01*
X1097944Y553341D01*
X1096774Y555369D01*
X1095119Y557024D01*
X1093091Y558194D01*
X1090830Y558800D01*
D02*
G37*
G36*
X1070510Y557530D02*
X1068170D01*
X1065909Y556924D01*
X1063881Y555754D01*
X1062226Y554099D01*
X1061056Y552071D01*
X1060450Y549810D01*
Y547470D01*
X1061056Y545209D01*
X1062226Y543181D01*
X1063881Y541526D01*
X1065909Y540356D01*
X1068170Y539750D01*
X1070510D01*
X1072771Y540356D01*
X1074799Y541526D01*
X1076454Y543181D01*
X1077624Y545209D01*
X1078230Y547470D01*
Y549810D01*
X1077624Y552071D01*
X1076454Y554099D01*
X1074799Y555754D01*
X1072771Y556924D01*
X1070510Y557530D01*
D02*
G37*
G36*
X1117531Y548330D02*
X1115129D01*
X1112909Y547411D01*
X1111209Y545711D01*
X1110290Y543491D01*
Y541089D01*
X1111209Y538869D01*
X1112909Y537169D01*
X1115129Y536250D01*
X1117531D01*
X1119751Y537169D01*
X1121451Y538869D01*
X1122370Y541089D01*
Y543491D01*
X1121451Y545711D01*
X1119751Y547411D01*
X1117531Y548330D01*
D02*
G37*
G36*
X603150Y543560D02*
X600810D01*
X598549Y542954D01*
X596521Y541784D01*
X594866Y540129D01*
X593696Y538101D01*
X593090Y535840D01*
Y533500D01*
X593696Y531239D01*
X594866Y529211D01*
X596521Y527556D01*
X598549Y526386D01*
X600810Y525780D01*
X603150D01*
X605411Y526386D01*
X607439Y527556D01*
X609094Y529211D01*
X610264Y531239D01*
X610870Y533500D01*
Y535840D01*
X610264Y538101D01*
X609094Y540129D01*
X607439Y541784D01*
X605411Y542954D01*
X603150Y543560D01*
D02*
G37*
G36*
X678080Y542290D02*
X675740D01*
X673479Y541684D01*
X671451Y540514D01*
X669796Y538859D01*
X668626Y536831D01*
X668020Y534570D01*
Y532230D01*
X668626Y529969D01*
X669796Y527941D01*
X671451Y526286D01*
X673479Y525116D01*
X675740Y524510D01*
X678080D01*
X680341Y525116D01*
X682369Y526286D01*
X684024Y527941D01*
X685194Y529969D01*
X685800Y532230D01*
Y534570D01*
X685194Y536831D01*
X684024Y538859D01*
X682369Y540514D01*
X680341Y541684D01*
X678080Y542290D01*
D02*
G37*
G36*
X603150Y516890D02*
X600810D01*
X598549Y516284D01*
X596521Y515114D01*
X594866Y513459D01*
X593696Y511431D01*
X593090Y509170D01*
Y506830D01*
X593696Y504569D01*
X594866Y502541D01*
X596521Y500886D01*
X598549Y499716D01*
X600810Y499110D01*
X603150D01*
X605411Y499716D01*
X607439Y500886D01*
X609094Y502541D01*
X610264Y504569D01*
X610870Y506830D01*
Y509170D01*
X610264Y511431D01*
X609094Y513459D01*
X607439Y515114D01*
X605411Y516284D01*
X603150Y516890D01*
D02*
G37*
G36*
X981301Y492950D02*
X979579D01*
X977916Y492504D01*
X976424Y491643D01*
X975207Y490426D01*
X974346Y488934D01*
X973900Y487271D01*
Y485549D01*
X974346Y483886D01*
X975207Y482394D01*
X976424Y481177D01*
X977916Y480316D01*
X979579Y479870D01*
X981301D01*
X982964Y480316D01*
X984456Y481177D01*
X985673Y482394D01*
X986534Y483886D01*
X986980Y485549D01*
Y487271D01*
X986534Y488934D01*
X985673Y490426D01*
X984456Y491643D01*
X982964Y492504D01*
X981301Y492950D01*
D02*
G37*
G36*
X984150Y475854D02*
X981810D01*
X979549Y475248D01*
X977521Y474077D01*
X975866Y472422D01*
X974696Y470395D01*
X974090Y468134D01*
Y465793D01*
X974696Y463532D01*
X975866Y461505D01*
X977521Y459850D01*
X979549Y458680D01*
X981810Y458074D01*
X984150D01*
X986411Y458680D01*
X988439Y459850D01*
X990094Y461505D01*
X991264Y463532D01*
X991870Y465793D01*
Y468134D01*
X991264Y470395D01*
X990094Y472422D01*
X988439Y474077D01*
X986411Y475248D01*
X984150Y475854D01*
D02*
G37*
G36*
X675540Y444500D02*
X673200D01*
X670939Y443894D01*
X668911Y442724D01*
X667385Y441197D01*
X665859Y442724D01*
X663831Y443894D01*
X661570Y444500D01*
X659230D01*
X656969Y443894D01*
X654941Y442724D01*
X653286Y441069D01*
X652116Y439041D01*
X651510Y436780D01*
Y434440D01*
X652116Y432179D01*
X653286Y430151D01*
X654941Y428496D01*
X656969Y427326D01*
X659230Y426720D01*
X661570D01*
X663831Y427326D01*
X665859Y428496D01*
X667385Y430023D01*
X668911Y428496D01*
X670939Y427326D01*
X673200Y426720D01*
X675540D01*
X677801Y427326D01*
X679829Y428496D01*
X681484Y430151D01*
X682654Y432179D01*
X683260Y434440D01*
Y436780D01*
X682654Y439041D01*
X681484Y441069D01*
X679829Y442724D01*
X677801Y443894D01*
X675540Y444500D01*
D02*
G37*
G36*
X1010820Y480060D02*
X1008480D01*
X1006219Y479454D01*
X1004191Y478284D01*
X1002536Y476629D01*
X1001366Y474601D01*
X1000760Y472340D01*
Y470000D01*
X1001366Y467739D01*
X1002536Y465711D01*
X1004191Y464056D01*
X1006219Y462886D01*
X1008480Y462280D01*
X1009677Y459740D01*
X1009650Y459640D01*
Y457300D01*
X1010256Y455039D01*
X1011426Y453011D01*
X1013081Y451356D01*
X1015109Y450186D01*
X1017370Y449580D01*
X1019710D01*
X1021971Y450186D01*
X1023845Y451268D01*
X1023999Y451356D01*
X1024083Y451398D01*
X1026431Y449731D01*
X1026430Y449682D01*
X1026416Y449564D01*
X1026310Y449171D01*
X1025970Y447901D01*
Y446179D01*
X1026416Y444516D01*
X1027277Y443024D01*
X1028494Y441807D01*
X1029986Y440946D01*
X1031649Y440500D01*
X1033371D01*
X1035034Y440946D01*
X1036526Y441807D01*
X1037743Y443024D01*
X1038604Y444516D01*
X1039050Y446179D01*
Y447901D01*
X1038604Y449564D01*
X1037743Y451056D01*
X1036526Y452273D01*
X1035034Y453134D01*
X1033371Y453580D01*
X1031649D01*
X1029986Y453134D01*
X1028494Y452273D01*
X1028332Y452266D01*
X1028332Y452266D01*
X1028494Y452273D01*
X1028866Y452488D01*
X1028291Y452267D01*
X1028144Y452272D01*
X1026649Y454736D01*
X1026824Y455039D01*
X1027430Y457300D01*
Y459640D01*
X1026824Y461901D01*
X1025654Y463929D01*
X1023999Y465584D01*
X1021971Y466754D01*
X1019710Y467360D01*
X1018513Y469900D01*
X1018540Y470000D01*
Y472340D01*
X1017934Y474601D01*
X1016764Y476629D01*
X1015109Y478284D01*
X1013081Y479454D01*
X1010820Y480060D01*
D02*
G37*
G36*
X546000Y455930D02*
X543660D01*
X541399Y455324D01*
X539371Y454154D01*
X537716Y452499D01*
X536546Y450471D01*
X535940Y448210D01*
Y445870D01*
X536546Y443609D01*
X537716Y441581D01*
X539371Y439926D01*
X541399Y438756D01*
X543660Y438150D01*
X546000D01*
X548261Y438756D01*
X550289Y439926D01*
X551944Y441581D01*
X553114Y443609D01*
X553720Y445870D01*
Y448210D01*
X553114Y450471D01*
X551944Y452499D01*
X550289Y454154D01*
X548261Y455324D01*
X546000Y455930D01*
D02*
G37*
G36*
X1152170Y444500D02*
X1149830D01*
X1147569Y443894D01*
X1145541Y442724D01*
X1143886Y441069D01*
X1142716Y439041D01*
X1142110Y436780D01*
Y434440D01*
X1142716Y432179D01*
X1143886Y430151D01*
X1145541Y428496D01*
X1147569Y427326D01*
X1149830Y426720D01*
X1152170D01*
X1154431Y427326D01*
X1156459Y428496D01*
X1158114Y430151D01*
X1159284Y432179D01*
X1159890Y434440D01*
Y436780D01*
X1159284Y439041D01*
X1158114Y441069D01*
X1156459Y442724D01*
X1154431Y443894D01*
X1152170Y444500D01*
D02*
G37*
G36*
X983755Y455534D02*
X981414D01*
X979153Y454928D01*
X977126Y453757D01*
X975471Y452102D01*
X974300Y450075D01*
X973694Y447814D01*
Y445473D01*
X974300Y443212D01*
X975471Y441185D01*
X976607Y440049D01*
X977033Y438927D01*
X976713Y436835D01*
X975866Y435989D01*
X974696Y433961D01*
X974090Y431700D01*
Y429360D01*
X974696Y427099D01*
X975866Y425071D01*
X977521Y423416D01*
X979549Y422246D01*
X981810Y421640D01*
X984150D01*
X986411Y422246D01*
X988439Y423416D01*
X990094Y425071D01*
X991264Y427099D01*
X991870Y429360D01*
Y431700D01*
X991264Y433961D01*
X990094Y435989D01*
X988958Y437125D01*
X988531Y438247D01*
X988851Y440338D01*
X989698Y441185D01*
X990869Y443212D01*
X991474Y445473D01*
Y447814D01*
X990869Y450075D01*
X989698Y452102D01*
X988043Y453757D01*
X986016Y454928D01*
X983755Y455534D01*
D02*
G37*
G36*
X1050190Y412750D02*
X1047850D01*
X1045589Y412144D01*
X1043561Y410974D01*
X1042319Y409731D01*
X1040765Y409493D01*
X1039211Y409731D01*
X1037969Y410974D01*
X1035941Y412144D01*
X1033680Y412750D01*
X1031340D01*
X1029079Y412144D01*
X1027051Y410974D01*
X1025396Y409319D01*
X1024226Y407291D01*
X1023620Y405030D01*
Y402690D01*
X1024226Y400429D01*
X1025396Y398401D01*
X1027051Y396746D01*
X1029079Y395576D01*
X1031340Y394970D01*
X1033680D01*
X1035941Y395576D01*
X1037969Y396746D01*
X1039211Y397989D01*
X1040765Y398227D01*
X1042319Y397989D01*
X1043561Y396746D01*
X1045589Y395576D01*
X1047850Y394970D01*
X1050190D01*
X1052451Y395576D01*
X1054479Y396746D01*
X1056134Y398401D01*
X1057304Y400429D01*
X1057910Y402690D01*
Y405030D01*
X1057304Y407291D01*
X1056134Y409319D01*
X1054479Y410974D01*
X1052451Y412144D01*
X1050190Y412750D01*
D02*
G37*
G36*
X940970Y425450D02*
X938630D01*
X936369Y424844D01*
X934341Y423674D01*
X932686Y422019D01*
X931516Y419991D01*
X930910Y417730D01*
Y415390D01*
X931516Y413129D01*
X932686Y411101D01*
X934341Y409446D01*
X936369Y408276D01*
X938630Y407670D01*
X940970D01*
X943231Y408276D01*
X945259Y409446D01*
X946914Y411101D01*
X948084Y413129D01*
X948690Y415390D01*
Y417730D01*
X948084Y419991D01*
X946914Y422019D01*
X945259Y423674D01*
X943231Y424844D01*
X940970Y425450D01*
D02*
G37*
G36*
X567590Y419100D02*
X565250D01*
X562989Y418494D01*
X560961Y417324D01*
X559306Y415669D01*
X558136Y413641D01*
X557530Y411380D01*
Y409040D01*
X558136Y406779D01*
X559306Y404751D01*
X560961Y403096D01*
X562989Y401926D01*
X565250Y401320D01*
X567590D01*
X569851Y401926D01*
X571879Y403096D01*
X573534Y404751D01*
X574704Y406779D01*
X575310Y409040D01*
Y411380D01*
X574704Y413641D01*
X573534Y415669D01*
X571879Y417324D01*
X569851Y418494D01*
X567590Y419100D01*
D02*
G37*
G36*
X665380Y392430D02*
X663040D01*
X660779Y391824D01*
X658751Y390654D01*
X657096Y388999D01*
X655926Y386971D01*
X655320Y384710D01*
Y382370D01*
X655926Y380109D01*
X657096Y378081D01*
X658751Y376426D01*
X660779Y375256D01*
X663040Y374650D01*
X665380D01*
X667641Y375256D01*
X669669Y376426D01*
X671324Y378081D01*
X672494Y380109D01*
X673100Y382370D01*
Y384710D01*
X672494Y386971D01*
X671324Y388999D01*
X669669Y390654D01*
X667641Y391824D01*
X665380Y392430D01*
D02*
G37*
G36*
X963830Y386080D02*
X961490D01*
X959229Y385474D01*
X957201Y384304D01*
X955546Y382649D01*
X954376Y380621D01*
X953770Y378360D01*
Y376020D01*
X954376Y373759D01*
X955546Y371731D01*
X957201Y370076D01*
X959229Y368906D01*
X961490Y368300D01*
X963830D01*
X966091Y368906D01*
X968119Y370076D01*
X969774Y371731D01*
X970944Y373759D01*
X971550Y376020D01*
Y378360D01*
X970944Y380621D01*
X969774Y382649D01*
X968119Y384304D01*
X966091Y385474D01*
X963830Y386080D01*
D02*
G37*
G36*
X698400Y374650D02*
X696060D01*
X693799Y374044D01*
X691771Y372874D01*
X690116Y371219D01*
X688946Y369191D01*
X688340Y366930D01*
Y366684D01*
X687183Y365918D01*
X685800Y365472D01*
X684151Y366424D01*
X681890Y367030D01*
X679550D01*
X677289Y366424D01*
X675261Y365254D01*
X673606Y363599D01*
X672436Y361571D01*
X671830Y359310D01*
Y356970D01*
X672436Y354709D01*
X673606Y352681D01*
X675261Y351026D01*
X677289Y349856D01*
X679550Y349250D01*
X681890D01*
X684151Y349856D01*
X684530Y350074D01*
X687070Y348608D01*
Y348080D01*
X687676Y345819D01*
X688846Y343791D01*
X690501Y342136D01*
X692529Y340966D01*
X694790Y340360D01*
X697130D01*
X699391Y340966D01*
X701419Y342136D01*
X703074Y343791D01*
X704244Y345819D01*
X704850Y348080D01*
Y350420D01*
X704244Y352681D01*
X703074Y354709D01*
X702296Y355486D01*
X702406Y358211D01*
X702617Y358605D01*
X702689Y358646D01*
X704344Y360301D01*
X705514Y362329D01*
X706120Y364590D01*
Y366930D01*
X705514Y369191D01*
X704344Y371219D01*
X702689Y372874D01*
X700661Y374044D01*
X698400Y374650D01*
D02*
G37*
G36*
X679350Y346710D02*
X677010D01*
X674749Y346104D01*
X672721Y344934D01*
X671479Y343691D01*
X669925Y343453D01*
X668371Y343691D01*
X667129Y344934D01*
X665101Y346104D01*
X662840Y346710D01*
X660500D01*
X658239Y346104D01*
X656211Y344934D01*
X654556Y343279D01*
X653386Y341251D01*
X652780Y338990D01*
Y336650D01*
X653386Y334389D01*
X654556Y332361D01*
X656211Y330706D01*
X658239Y329536D01*
X660500Y328930D01*
X662840D01*
X665101Y329536D01*
X667129Y330706D01*
X668371Y331949D01*
X669925Y332187D01*
X671479Y331949D01*
X672721Y330706D01*
X674749Y329536D01*
X677010Y328930D01*
X679350D01*
X681611Y329536D01*
X683639Y330706D01*
X685294Y332361D01*
X686464Y334389D01*
X687070Y336650D01*
Y338990D01*
X686464Y341251D01*
X685294Y343279D01*
X683639Y344934D01*
X681611Y346104D01*
X679350Y346710D01*
D02*
G37*
G36*
X794920Y342900D02*
X792580D01*
X790319Y342294D01*
X788291Y341124D01*
X786636Y339469D01*
X785466Y337441D01*
X784860Y335180D01*
Y332840D01*
X785466Y330579D01*
X786636Y328551D01*
X787879Y327309D01*
X788117Y325755D01*
X787879Y324201D01*
X786636Y322959D01*
X786327Y322422D01*
X783393D01*
X783084Y322959D01*
X781429Y324614D01*
X779401Y325784D01*
X777140Y326390D01*
X774800D01*
X772539Y325784D01*
X770511Y324614D01*
X768856Y322959D01*
X767686Y320931D01*
X767080Y318670D01*
Y316330D01*
X767686Y314069D01*
X768856Y312041D01*
X770511Y310386D01*
X772539Y309216D01*
X774800Y308610D01*
X777140D01*
X779401Y309216D01*
X781429Y310386D01*
X783084Y312041D01*
X783393Y312578D01*
X786327D01*
X786636Y312041D01*
X788291Y310386D01*
X790319Y309216D01*
X792580Y308610D01*
X794920D01*
X797181Y309216D01*
X799209Y310386D01*
X800864Y312041D01*
X802034Y314069D01*
X802640Y316330D01*
Y318670D01*
X802034Y320931D01*
X800864Y322959D01*
X799621Y324201D01*
X799383Y325755D01*
X799621Y327309D01*
X800864Y328551D01*
X802034Y330579D01*
X802640Y332840D01*
Y335180D01*
X802034Y337441D01*
X800864Y339469D01*
X799209Y341124D01*
X797181Y342294D01*
X794920Y342900D01*
D02*
G37*
G36*
X816510Y337820D02*
X814170D01*
X811909Y337214D01*
X809881Y336044D01*
X808226Y334389D01*
X807056Y332361D01*
X806450Y330100D01*
Y327760D01*
X807056Y325499D01*
X808226Y323471D01*
X809881Y321816D01*
X811909Y320646D01*
X814170Y320040D01*
X816510D01*
X818771Y320646D01*
X820799Y321816D01*
X822454Y323471D01*
X823624Y325499D01*
X824230Y327760D01*
Y330100D01*
X823624Y332361D01*
X822454Y334389D01*
X820799Y336044D01*
X818771Y337214D01*
X816510Y337820D01*
D02*
G37*
G36*
X976530Y334010D02*
X974190D01*
X971929Y333404D01*
X969901Y332234D01*
X968246Y330579D01*
X967076Y328551D01*
X966470Y326290D01*
Y323950D01*
X967076Y321689D01*
X968246Y319661D01*
X969901Y318006D01*
X971929Y316836D01*
X974190Y316230D01*
X976530D01*
X978791Y316836D01*
X980819Y318006D01*
X982474Y319661D01*
X983644Y321689D01*
X984250Y323950D01*
Y326290D01*
X983644Y328551D01*
X982474Y330579D01*
X980819Y332234D01*
X978791Y333404D01*
X976530Y334010D01*
D02*
G37*
G36*
X892710D02*
X890370D01*
X888109Y333404D01*
X886081Y332234D01*
X884426Y330579D01*
X883256Y328551D01*
X882650Y326290D01*
Y323950D01*
X883256Y321689D01*
X884426Y319661D01*
X886081Y318006D01*
X888109Y316836D01*
X890370Y316230D01*
X892710D01*
X894971Y316836D01*
X896999Y318006D01*
X898654Y319661D01*
X899824Y321689D01*
X900430Y323950D01*
Y326290D01*
X899824Y328551D01*
X898654Y330579D01*
X896999Y332234D01*
X894971Y333404D01*
X892710Y334010D01*
D02*
G37*
G36*
X919380Y332740D02*
X917040D01*
X914779Y332134D01*
X912751Y330964D01*
X911096Y329309D01*
X909926Y327281D01*
X909320Y325020D01*
Y322680D01*
X909926Y320419D01*
X911096Y318391D01*
X912751Y316736D01*
X914779Y315566D01*
X917040Y314960D01*
X919380D01*
X921641Y315566D01*
X923669Y316736D01*
X925324Y318391D01*
X926494Y320419D01*
X927100Y322680D01*
Y325020D01*
X926494Y327281D01*
X925324Y329309D01*
X923669Y330964D01*
X921641Y332134D01*
X919380Y332740D01*
D02*
G37*
G36*
X572670Y314960D02*
X570330D01*
X568069Y314354D01*
X566041Y313184D01*
X564799Y311941D01*
X563245Y311703D01*
X561691Y311941D01*
X560449Y313184D01*
X558421Y314354D01*
X556160Y314960D01*
X553820D01*
X551559Y314354D01*
X549531Y313184D01*
X547876Y311529D01*
X546706Y309501D01*
X546100Y307240D01*
Y304900D01*
X546706Y302639D01*
X547876Y300611D01*
X549531Y298956D01*
X551559Y297786D01*
X553820Y297180D01*
X556160D01*
X558421Y297786D01*
X560449Y298956D01*
X561691Y300199D01*
X563245Y300437D01*
X564799Y300199D01*
X566041Y298956D01*
X568069Y297786D01*
X570330Y297180D01*
X572670D01*
X574931Y297786D01*
X576959Y298956D01*
X578614Y300611D01*
X579784Y302639D01*
X580390Y304900D01*
Y307240D01*
X579784Y309501D01*
X578614Y311529D01*
X576959Y313184D01*
X574931Y314354D01*
X572670Y314960D01*
D02*
G37*
G36*
X1121310Y322580D02*
X1118970D01*
X1116709Y321974D01*
X1114681Y320804D01*
X1113026Y319149D01*
X1111856Y317121D01*
X1111250Y314860D01*
Y312520D01*
X1111856Y310259D01*
X1113026Y308231D01*
X1114681Y306576D01*
X1116709Y305406D01*
X1118970Y304800D01*
X1121310D01*
X1123571Y305406D01*
X1125599Y306576D01*
X1127254Y308231D01*
X1128424Y310259D01*
X1129030Y312520D01*
Y314860D01*
X1128424Y317121D01*
X1127254Y319149D01*
X1125599Y320804D01*
X1123571Y321974D01*
X1121310Y322580D01*
D02*
G37*
G36*
X991371Y317500D02*
X989031D01*
X986769Y316894D01*
X984742Y315724D01*
X983087Y314069D01*
X981917Y312041D01*
X981311Y309780D01*
Y307440D01*
X981917Y305179D01*
X983087Y303151D01*
X984742Y301496D01*
X986769Y300326D01*
X989031Y299720D01*
X991371D01*
X993632Y300326D01*
X995659Y301496D01*
X997315Y303151D01*
X998485Y305179D01*
X999091Y307440D01*
Y309780D01*
X998485Y312041D01*
X997315Y314069D01*
X995659Y315724D01*
X993632Y316894D01*
X991371Y317500D01*
D02*
G37*
G36*
X1028600Y312420D02*
X1026260D01*
X1023999Y311814D01*
X1021971Y310644D01*
X1020316Y308989D01*
X1019146Y306961D01*
X1018540Y304700D01*
Y302360D01*
X1019146Y300099D01*
X1020316Y298071D01*
X1021971Y296416D01*
X1023999Y295246D01*
X1026260Y294640D01*
X1028600D01*
X1030861Y295246D01*
X1032889Y296416D01*
X1034544Y298071D01*
X1035714Y300099D01*
X1036320Y302360D01*
Y304700D01*
X1035714Y306961D01*
X1034544Y308989D01*
X1032889Y310644D01*
X1030861Y311814D01*
X1028600Y312420D01*
D02*
G37*
G36*
X909220Y309880D02*
X906880D01*
X904619Y309274D01*
X902591Y308104D01*
X900936Y306449D01*
X899766Y304421D01*
X899160Y302160D01*
Y299820D01*
X899766Y297559D01*
X900936Y295531D01*
X902591Y293876D01*
X904619Y292706D01*
X906880Y292100D01*
X909220D01*
X911481Y292706D01*
X913509Y293876D01*
X915164Y295531D01*
X916334Y297559D01*
X916940Y299820D01*
Y302160D01*
X916334Y304421D01*
X915164Y306449D01*
X913509Y308104D01*
X911481Y309274D01*
X909220Y309880D01*
D02*
G37*
G36*
X651101Y294830D02*
X649379D01*
X647716Y294384D01*
X646224Y293523D01*
X645007Y292306D01*
X644146Y290814D01*
X643700Y289151D01*
Y287429D01*
X644146Y285766D01*
X645007Y284274D01*
X646224Y283057D01*
X647716Y282196D01*
X649379Y281750D01*
X651101D01*
X652764Y282196D01*
X654256Y283057D01*
X655473Y284274D01*
X656334Y285766D01*
X656780Y287429D01*
Y289151D01*
X656334Y290814D01*
X655473Y292306D01*
X654256Y293523D01*
X652764Y294384D01*
X651101Y294830D01*
D02*
G37*
G36*
X929540Y298450D02*
X927200D01*
X924939Y297844D01*
X922911Y296674D01*
X921256Y295019D01*
X920086Y292991D01*
X919480Y290730D01*
Y288390D01*
X920086Y286129D01*
X921256Y284101D01*
X922911Y282446D01*
X924939Y281276D01*
X927200Y280670D01*
X929540D01*
X931801Y281276D01*
X933829Y282446D01*
X935484Y284101D01*
X936654Y286129D01*
X937260Y288390D01*
Y290730D01*
X936654Y292991D01*
X935484Y295019D01*
X933829Y296674D01*
X931801Y297844D01*
X929540Y298450D01*
D02*
G37*
G36*
X612040Y295910D02*
X609700D01*
X607439Y295304D01*
X605411Y294134D01*
X603756Y292479D01*
X602586Y290451D01*
X601980Y288190D01*
Y285850D01*
X602586Y283589D01*
X603756Y281561D01*
X605411Y279906D01*
X607439Y278736D01*
X609700Y278130D01*
X612040D01*
X614301Y278736D01*
X616329Y279906D01*
X617984Y281561D01*
X619154Y283589D01*
X619760Y285850D01*
Y288190D01*
X619154Y290451D01*
X617984Y292479D01*
X616329Y294134D01*
X614301Y295304D01*
X612040Y295910D01*
D02*
G37*
G36*
X780950Y284480D02*
X778610D01*
X776349Y283874D01*
X774321Y282704D01*
X772666Y281049D01*
X771496Y279021D01*
X770890Y276760D01*
Y274420D01*
X771496Y272159D01*
X772666Y270131D01*
X774321Y268476D01*
X776349Y267306D01*
X778610Y266700D01*
X780950D01*
X783211Y267306D01*
X785239Y268476D01*
X786894Y270131D01*
X788064Y272159D01*
X788670Y274420D01*
Y276760D01*
X788064Y279021D01*
X786894Y281049D01*
X785239Y282704D01*
X783211Y283874D01*
X780950Y284480D01*
D02*
G37*
G36*
X858420Y271780D02*
X856080D01*
X853819Y271174D01*
X851791Y270004D01*
X850136Y268349D01*
X848966Y266321D01*
X848814Y265755D01*
X848149Y265393D01*
X846012Y265111D01*
X844929Y266194D01*
X842901Y267364D01*
X840640Y267970D01*
X838300D01*
X836039Y267364D01*
X834011Y266194D01*
X832356Y264539D01*
X831186Y262511D01*
X830580Y260250D01*
Y257910D01*
X831186Y255649D01*
X832356Y253621D01*
X834011Y251966D01*
X836039Y250796D01*
X838300Y250190D01*
X840640D01*
X842901Y250796D01*
X844929Y251966D01*
X846584Y253621D01*
X847754Y255649D01*
X847906Y256215D01*
X848571Y256577D01*
X850708Y256859D01*
X851791Y255776D01*
X853819Y254606D01*
X856080Y254000D01*
X858420D01*
X860681Y254606D01*
X862709Y255776D01*
X864364Y257431D01*
X865534Y259459D01*
X866140Y261720D01*
Y264060D01*
X865534Y266321D01*
X864364Y268349D01*
X862709Y270004D01*
X860681Y271174D01*
X858420Y271780D01*
D02*
G37*
G36*
X990301Y274519D02*
X987960D01*
X985699Y273913D01*
X983672Y272743D01*
X982017Y271088D01*
X980847Y269061D01*
X980241Y266800D01*
Y264459D01*
X980847Y262198D01*
X982017Y260171D01*
X983672Y258515D01*
X985699Y257345D01*
X987960Y256739D01*
X990301D01*
X992562Y257345D01*
X994589Y258515D01*
X996245Y260171D01*
X997415Y262198D01*
X998021Y264459D01*
Y266800D01*
X997415Y269061D01*
X996245Y271088D01*
X994589Y272743D01*
X992562Y273913D01*
X990301Y274519D01*
D02*
G37*
G36*
X613310Y269240D02*
X610970D01*
X608709Y268634D01*
X606681Y267464D01*
X605026Y265809D01*
X603856Y263781D01*
X603250Y261520D01*
Y259180D01*
X603856Y256919D01*
X605026Y254891D01*
X606681Y253236D01*
X608709Y252066D01*
X610970Y251460D01*
X613310D01*
X615571Y252066D01*
X617599Y253236D01*
X619254Y254891D01*
X620424Y256919D01*
X621030Y259180D01*
Y261520D01*
X620424Y263781D01*
X619254Y265809D01*
X617599Y267464D01*
X615571Y268634D01*
X613310Y269240D01*
D02*
G37*
G36*
X1150520Y281940D02*
X1148180D01*
X1145919Y281334D01*
X1143891Y280164D01*
X1142236Y278509D01*
X1141066Y276481D01*
X1140460Y274220D01*
Y271880D01*
X1141066Y269619D01*
X1139569Y267364D01*
X1137541Y266194D01*
X1135886Y264539D01*
X1134716Y262511D01*
X1134110Y260250D01*
Y257910D01*
X1134716Y255649D01*
X1135886Y253621D01*
X1137541Y251966D01*
X1139569Y250796D01*
X1141830Y250190D01*
X1144170D01*
X1146431Y250796D01*
X1148459Y251966D01*
X1150114Y253621D01*
X1151284Y255649D01*
X1151890Y257910D01*
Y260250D01*
X1151284Y262511D01*
X1152781Y264766D01*
X1154809Y265936D01*
X1156464Y267591D01*
X1157634Y269619D01*
X1158240Y271880D01*
Y274220D01*
X1157634Y276481D01*
X1156464Y278509D01*
X1154809Y280164D01*
X1152781Y281334D01*
X1150520Y281940D01*
D02*
G37*
G36*
X682541Y255876D02*
X680200D01*
X677939Y255270D01*
X675912Y254100D01*
X674257Y252445D01*
X673086Y250417D01*
X672481Y248157D01*
Y245816D01*
X673086Y243555D01*
X674257Y241528D01*
X675912Y239872D01*
X677939Y238702D01*
X680200Y238096D01*
X682541D01*
X684802Y238702D01*
X686829Y239872D01*
X688484Y241528D01*
X689655Y243555D01*
X690261Y245816D01*
Y248157D01*
X689655Y250417D01*
X688484Y252445D01*
X686829Y254100D01*
X684802Y255270D01*
X682541Y255876D01*
D02*
G37*
G36*
X521870Y247650D02*
X519530D01*
X517269Y247044D01*
X515241Y245874D01*
X513586Y244219D01*
X512416Y242191D01*
X511810Y239930D01*
Y237590D01*
X512416Y235329D01*
X513586Y233301D01*
X515241Y231646D01*
X517269Y230476D01*
X519530Y229870D01*
X521870D01*
X524131Y230476D01*
X526159Y231646D01*
X527814Y233301D01*
X528984Y235329D01*
X529590Y237590D01*
Y239930D01*
X528984Y242191D01*
X527814Y244219D01*
X526159Y245874D01*
X524131Y247044D01*
X521870Y247650D01*
D02*
G37*
G36*
X551080Y219710D02*
X548740D01*
X546479Y219104D01*
X544451Y217934D01*
X542796Y216279D01*
X541626Y214251D01*
X541020Y211990D01*
Y209650D01*
X541626Y207389D01*
X542796Y205361D01*
X544451Y203706D01*
X546479Y202536D01*
X548740Y201930D01*
X551080D01*
X553341Y202536D01*
X555369Y203706D01*
X557024Y205361D01*
X558194Y207389D01*
X558800Y209650D01*
Y211990D01*
X558194Y214251D01*
X557024Y216279D01*
X555369Y217934D01*
X553341Y219104D01*
X551080Y219710D01*
D02*
G37*
G36*
X804554Y226630D02*
X800726D01*
X797028Y225639D01*
X793712Y223725D01*
X791005Y221018D01*
X789091Y217702D01*
X788100Y214004D01*
Y210176D01*
X789091Y206478D01*
X791005Y203162D01*
X793712Y200455D01*
X797028Y198541D01*
X800726Y197550D01*
X804554D01*
X808252Y198541D01*
X811568Y200455D01*
X814275Y203162D01*
X816189Y206478D01*
X817180Y210176D01*
Y214004D01*
X816189Y217702D01*
X814275Y221018D01*
X811568Y223725D01*
X808252Y225639D01*
X804554Y226630D01*
D02*
G37*
G36*
X600084D02*
X596256D01*
X592558Y225639D01*
X589242Y223725D01*
X586535Y221018D01*
X584621Y217702D01*
X583630Y214004D01*
Y210176D01*
X584621Y206478D01*
X586535Y203162D01*
X589242Y200455D01*
X592558Y198541D01*
X596256Y197550D01*
X600084D01*
X603782Y198541D01*
X607098Y200455D01*
X609805Y203162D01*
X611719Y206478D01*
X612710Y210176D01*
Y214004D01*
X611719Y217702D01*
X609805Y221018D01*
X607098Y223725D01*
X603782Y225639D01*
X600084Y226630D01*
D02*
G37*
G36*
X859440Y226704D02*
X847440D01*
X845211Y226410D01*
X843133Y225550D01*
X841349Y224181D01*
X839980Y222397D01*
X839120Y220319D01*
X838826Y218090D01*
Y206090D01*
X839120Y203861D01*
X839980Y201783D01*
X841349Y199999D01*
X843133Y198630D01*
X845211Y197770D01*
X847440Y197476D01*
X859440D01*
X861669Y197770D01*
X863747Y198630D01*
X865531Y199999D01*
X866900Y201783D01*
X867760Y203861D01*
X868054Y206090D01*
Y218090D01*
X867760Y220319D01*
X866900Y222397D01*
X865531Y224181D01*
X863747Y225550D01*
X861669Y226410D01*
X859440Y226704D01*
D02*
G37*
G36*
X1006484Y225360D02*
X1002656D01*
X998958Y224369D01*
X995642Y222455D01*
X992935Y219748D01*
X991021Y216432D01*
X990030Y212734D01*
Y208906D01*
X991021Y205208D01*
X992935Y201892D01*
X995642Y199185D01*
X998958Y197271D01*
X1002656Y196280D01*
X1006484D01*
X1010182Y197271D01*
X1013498Y199185D01*
X1016205Y201892D01*
X1018119Y205208D01*
X1019110Y208906D01*
Y212734D01*
X1018119Y216432D01*
X1016205Y219748D01*
X1013498Y222455D01*
X1010182Y224369D01*
X1006484Y225360D01*
D02*
G37*
G36*
X1061370Y225434D02*
X1049370D01*
X1047141Y225140D01*
X1045063Y224280D01*
X1043279Y222911D01*
X1041910Y221127D01*
X1041050Y219049D01*
X1040756Y216820D01*
Y204820D01*
X1041050Y202591D01*
X1041910Y200513D01*
X1043279Y198729D01*
X1045063Y197360D01*
X1047141Y196500D01*
X1049370Y196206D01*
X1061370D01*
X1063599Y196500D01*
X1065677Y197360D01*
X1067461Y198729D01*
X1068830Y200513D01*
X1069690Y202591D01*
X1069984Y204820D01*
Y216820D01*
X1069690Y219049D01*
X1068830Y221127D01*
X1067461Y222911D01*
X1065677Y224280D01*
X1063599Y225140D01*
X1061370Y225434D01*
D02*
G37*
G36*
X918110Y205740D02*
X915770D01*
X913509Y205134D01*
X911481Y203964D01*
X909826Y202309D01*
X908656Y200281D01*
X908050Y198020D01*
Y195680D01*
X908656Y193419D01*
X909826Y191391D01*
X911481Y189736D01*
X913509Y188566D01*
X915770Y187960D01*
X918110D01*
X920371Y188566D01*
X922399Y189736D01*
X924054Y191391D01*
X925224Y193419D01*
X925830Y195680D01*
Y198020D01*
X925224Y200281D01*
X924054Y202309D01*
X922399Y203964D01*
X920371Y205134D01*
X918110Y205740D01*
D02*
G37*
G36*
X948590Y204470D02*
X946250D01*
X943989Y203864D01*
X941961Y202694D01*
X940306Y201039D01*
X939136Y199011D01*
X938530Y196750D01*
Y194410D01*
X939136Y192149D01*
X940306Y190121D01*
X941961Y188466D01*
X943989Y187296D01*
X946250Y186690D01*
X948590D01*
X950851Y187296D01*
X952879Y188466D01*
X954534Y190121D01*
X955704Y192149D01*
X956310Y194410D01*
Y196750D01*
X955704Y199011D01*
X954534Y201039D01*
X952879Y202694D01*
X950851Y203864D01*
X948590Y204470D01*
D02*
G37*
G36*
X714910D02*
X712570D01*
X710309Y203864D01*
X708281Y202694D01*
X706626Y201039D01*
X705456Y199011D01*
X704850Y196750D01*
Y194410D01*
X705456Y192149D01*
X706626Y190121D01*
X708281Y188466D01*
X710309Y187296D01*
X712570Y186690D01*
X714910D01*
X717171Y187296D01*
X719199Y188466D01*
X720854Y190121D01*
X722024Y192149D01*
X722630Y194410D01*
Y196750D01*
X722024Y199011D01*
X720854Y201039D01*
X719199Y202694D01*
X717171Y203864D01*
X714910Y204470D01*
D02*
G37*
G36*
X651410Y199390D02*
X649070D01*
X646809Y198784D01*
X644781Y197614D01*
X643126Y195959D01*
X641956Y193931D01*
X641350Y191670D01*
Y189330D01*
X641956Y187069D01*
X643126Y185041D01*
X644781Y183386D01*
X646809Y182216D01*
X649070Y181610D01*
X651410D01*
X653671Y182216D01*
X655699Y183386D01*
X657354Y185041D01*
X658524Y187069D01*
X659130Y189330D01*
Y191670D01*
X658524Y193931D01*
X657354Y195959D01*
X655699Y197614D01*
X653671Y198784D01*
X651410Y199390D01*
D02*
G37*
G36*
X825400Y193040D02*
X823060D01*
X820799Y192434D01*
X818771Y191264D01*
X817116Y189609D01*
X815946Y187581D01*
X815340Y185320D01*
Y182980D01*
X815946Y180719D01*
X817116Y178691D01*
X818771Y177036D01*
X820799Y175866D01*
X823060Y175260D01*
X825400D01*
X827661Y175866D01*
X829689Y177036D01*
X831344Y178691D01*
X832514Y180719D01*
X833120Y182980D01*
Y185320D01*
X832514Y187581D01*
X831344Y189609D01*
X829689Y191264D01*
X827661Y192434D01*
X825400Y193040D01*
D02*
G37*
G36*
X629820Y190500D02*
X627480D01*
X625219Y189894D01*
X623191Y188724D01*
X621536Y187069D01*
X620366Y185041D01*
X619760Y182780D01*
Y180440D01*
X620366Y178179D01*
X621536Y176151D01*
X623191Y174496D01*
X625219Y173326D01*
X627480Y172720D01*
X629820D01*
X632081Y173326D01*
X634109Y174496D01*
X635764Y176151D01*
X636934Y178179D01*
X637540Y180440D01*
Y182780D01*
X636934Y185041D01*
X635764Y187069D01*
X634109Y188724D01*
X632081Y189894D01*
X629820Y190500D01*
D02*
G37*
G36*
X584750Y189509D02*
X582409D01*
X580148Y188903D01*
X578121Y187733D01*
X576466Y186078D01*
X575295Y184050D01*
X574689Y181789D01*
Y179449D01*
X575295Y177188D01*
X576466Y175160D01*
X578121Y173505D01*
X580148Y172335D01*
X582409Y171729D01*
X584750D01*
X587011Y172335D01*
X589038Y173505D01*
X590693Y175160D01*
X591864Y177188D01*
X592469Y179449D01*
Y181789D01*
X591864Y184050D01*
X590693Y186078D01*
X589038Y187733D01*
X587011Y188903D01*
X584750Y189509D01*
D02*
G37*
%LPD*%
D11*
X1178230Y1237480D02*
G03*
X1158230Y1257480I-20000J0D01*
G01*
Y157480D02*
G03*
X1178230Y177480I0J20000D01*
G01*
X498230Y1257480D02*
G03*
X478230Y1237480I0J-20000D01*
G01*
Y177480D02*
G03*
X498230Y157480I20000J0D01*
G01*
X1158230D01*
X498230Y1257480D02*
X1158230D01*
X1178230Y177480D02*
Y1237480D01*
X478230Y177480D02*
Y1237480D01*
D67*
X1139870Y1078230D02*
D03*
X524170D02*
D03*
D68*
X864870D02*
D03*
X799170D02*
D03*
D81*
X598170Y212090D02*
D03*
X802640D02*
D03*
X857250Y1199190D02*
D03*
X1004570Y210820D02*
D03*
D82*
X648970Y212090D02*
D03*
X853440D02*
D03*
X806450Y1199190D02*
D03*
X1055370Y210820D02*
D03*
D83*
X500000Y1235000D02*
D03*
X1155000D02*
D03*
Y180000D02*
D03*
X500000D02*
D03*
D84*
X510540Y429260D02*
D03*
X928370Y289560D02*
D03*
X763270Y646430D02*
D03*
X1055370Y241300D02*
D03*
X566420Y410210D02*
D03*
X544830Y447040D02*
D03*
X554990Y306070D02*
D03*
X680720Y358140D02*
D03*
X839470Y259080D02*
D03*
X857250Y262890D02*
D03*
X947420Y195580D02*
D03*
X916940Y196850D02*
D03*
X815340Y328930D02*
D03*
X779780Y275590D02*
D03*
X758370Y327480D02*
D03*
X727710Y297180D02*
D03*
X1149350Y273050D02*
D03*
X1143000Y259080D02*
D03*
X918210Y323850D02*
D03*
X891540Y325120D02*
D03*
X1104900Y323850D02*
D03*
X1120140Y313690D02*
D03*
X695960Y349250D02*
D03*
X697230Y365760D02*
D03*
X681371Y246986D02*
D03*
X793750Y317500D02*
D03*
X775970D02*
D03*
X774700Y335280D02*
D03*
X793750Y334010D02*
D03*
X571500Y306070D02*
D03*
X939800Y416560D02*
D03*
X1146810Y715010D02*
D03*
X1149350Y642620D02*
D03*
X1084580Y708660D02*
D03*
Y728980D02*
D03*
X982980Y466964D02*
D03*
X601980Y508000D02*
D03*
Y534670D02*
D03*
X680720Y554990D02*
D03*
X791210Y191770D02*
D03*
X1046480Y565150D02*
D03*
X975360Y325120D02*
D03*
X1005840Y326390D02*
D03*
X1027430Y303530D02*
D03*
X676910Y533400D02*
D03*
X781050Y697230D02*
D03*
X1049020Y716280D02*
D03*
X1018540Y458470D02*
D03*
X1009650Y471170D02*
D03*
X982584Y446644D02*
D03*
X982980Y430530D02*
D03*
X824230Y184150D02*
D03*
X989131Y265629D02*
D03*
X990201Y308610D02*
D03*
X520700Y238760D02*
D03*
X612140Y260350D02*
D03*
X583579Y180619D02*
D03*
X628650Y181610D02*
D03*
X650240Y190500D02*
D03*
X549910Y210820D02*
D03*
X610870Y287020D02*
D03*
X713740Y195580D02*
D03*
X1129030Y579120D02*
D03*
X962660Y377190D02*
D03*
X509270Y285750D02*
D03*
X908050Y300990D02*
D03*
X934720Y642620D02*
D03*
X806450Y674370D02*
D03*
X908050Y725170D02*
D03*
X895350Y708660D02*
D03*
X1026160Y562610D02*
D03*
X817880Y659130D02*
D03*
X838200Y643890D02*
D03*
X861060Y660400D02*
D03*
X678180Y337820D02*
D03*
X877570Y699770D02*
D03*
X664210Y383540D02*
D03*
X1069340Y548640D02*
D03*
X1089660Y549910D02*
D03*
X687224Y456174D02*
D03*
X1151000Y435610D02*
D03*
X1132840Y480060D02*
D03*
X609600Y570230D02*
D03*
X803910Y581660D02*
D03*
X1106170Y834390D02*
D03*
X961390Y650240D02*
D03*
X617220Y469900D02*
D03*
X660400Y435610D02*
D03*
X674370D02*
D03*
X604520Y386080D02*
D03*
X631280Y284953D02*
D03*
X736083Y1173997D02*
D03*
X826770Y350520D02*
D03*
X981710Y539750D02*
D03*
X801370Y646430D02*
D03*
X735620Y644870D02*
D03*
X686000Y510340D02*
D03*
X684160Y395340D02*
D03*
X687070Y590550D02*
D03*
X982940Y500340D02*
D03*
X861060Y351790D02*
D03*
X1028790Y534580D02*
D03*
X1049020Y403860D02*
D03*
X1032510D02*
D03*
X1125220Y755650D02*
D03*
X1041400Y786130D02*
D03*
X853440Y932180D02*
D03*
X844550Y977900D02*
D03*
X1146810Y854710D02*
D03*
X661670Y337820D02*
D03*
X951230Y904240D02*
D03*
X1035050Y976630D02*
D03*
X718820Y1012190D02*
D03*
X641210Y933310D02*
D03*
X539750Y801370D02*
D03*
X1132840Y812800D02*
D03*
X1035050Y930910D02*
D03*
X1021080D02*
D03*
X523222Y892828D02*
D03*
X635000Y979170D02*
D03*
X650240Y979310D02*
D03*
X925830Y1177290D02*
D03*
D85*
X662940Y574040D02*
D03*
X673100Y589280D02*
D03*
D86*
X957580Y243840D02*
D03*
X1032510Y447040D02*
D03*
X980440Y486410D02*
D03*
X1125060Y635160D02*
D03*
X873760Y201930D02*
D03*
X650240Y288290D02*
D03*
X1145540Y600710D02*
D03*
X1094740Y604520D02*
D03*
D87*
X1106170Y598170D02*
D03*
X703580Y237490D02*
D03*
X1116330Y542290D02*
D03*
D88*
X958850Y612140D02*
D03*
D89*
X1068070Y840740D02*
D03*
X1029970D02*
D03*
X953770D02*
D03*
X915670D02*
D03*
Y688340D02*
D03*
X953770D02*
D03*
X991870D02*
D03*
X1029970D02*
D03*
X1068070D02*
D03*
X741680Y691000D02*
D03*
X703580D02*
D03*
X665480D02*
D03*
X627380D02*
D03*
X589280D02*
D03*
Y843400D02*
D03*
X627380D02*
D03*
X703580D02*
D03*
X741680D02*
D03*
M02*
