G04*
G04 #@! TF.GenerationSoftware,Altium Limited,Altium Designer,25.2.1 (25)*
G04*
G04 Layer_Color=8421504*
%FSLAX44Y44*%
%MOMM*%
G71*
G04*
G04 #@! TF.SameCoordinates,245930A5-F2C7-430A-BF85-77EB81D10B19*
G04*
G04*
G04 #@! TF.FilePolarity,Positive*
G04*
G01*
G75*
%ADD16R,0.9300X1.7600*%
%ADD17R,0.8000X0.6000*%
%ADD18R,3.4000X2.1000*%
%ADD19R,0.8000X1.0000*%
%ADD20R,1.4000X1.5000*%
%ADD21R,6.8000X5.5000*%
%ADD22R,1.7000X0.9500*%
G04:AMPARAMS|DCode=23|XSize=0.881mm|YSize=0.2425mm|CornerRadius=0.1212mm|HoleSize=0mm|Usage=FLASHONLY|Rotation=0.000|XOffset=0mm|YOffset=0mm|HoleType=Round|Shape=RoundedRectangle|*
%AMROUNDEDRECTD23*
21,1,0.8810,0.0000,0,0,0.0*
21,1,0.6385,0.2425,0,0,0.0*
1,1,0.2425,0.3193,0.0000*
1,1,0.2425,-0.3193,0.0000*
1,1,0.2425,-0.3193,0.0000*
1,1,0.2425,0.3193,0.0000*
%
%ADD23ROUNDEDRECTD23*%
%ADD24R,0.8810X0.2425*%
%ADD25R,0.8500X0.7000*%
%ADD26R,1.0000X0.8000*%
%ADD27R,1.4500X3.5000*%
%ADD28R,0.8121X0.6587*%
%ADD29R,1.1000X0.6000*%
%ADD30R,4.1000X2.2000*%
%ADD31R,1.2000X1.4500*%
%ADD32R,0.9562X1.2062*%
%ADD33R,0.9000X0.7000*%
%ADD34R,0.9000X0.8000*%
%ADD35R,0.9121X1.1311*%
%ADD36R,0.8000X0.7500*%
%ADD37R,1.3000X1.1000*%
%ADD38R,2.7900X0.7400*%
%ADD39R,0.9500X0.8000*%
%ADD40R,0.8000X0.9000*%
%ADD41R,0.6587X0.8121*%
%ADD42R,0.7000X0.9000*%
%ADD43R,2.4000X1.3000*%
%ADD44R,6.5000X6.2000*%
%ADD45R,0.9144X1.2192*%
%ADD46R,0.8121X0.7587*%
%ADD47R,2.5000X1.5000*%
%ADD48R,7.0000X7.0000*%
D16*
X908050Y609600D02*
D03*
X694690Y612140D02*
D03*
D17*
X666750Y550880D02*
D03*
Y563880D02*
D03*
X965200Y618340D02*
D03*
Y631340D02*
D03*
D18*
X640080Y634020D02*
D03*
Y575020D02*
D03*
X952500Y530570D02*
D03*
Y589570D02*
D03*
D19*
X692030Y576442D02*
D03*
X677030D02*
D03*
X1125100Y241300D02*
D03*
X1110100D02*
D03*
X1125100Y217170D02*
D03*
X1110100D02*
D03*
D20*
X897280Y642620D02*
D03*
X916280D02*
D03*
X739800Y623570D02*
D03*
X758800D02*
D03*
D21*
X1048809Y618490D02*
D03*
X779780Y377678D02*
D03*
X538800Y615950D02*
D03*
D22*
X982809Y595590D02*
D03*
Y641390D02*
D03*
X713780Y400578D02*
D03*
Y354779D02*
D03*
X604800Y593050D02*
D03*
Y638850D02*
D03*
D23*
X922206Y619600D02*
D03*
Y614600D02*
D03*
Y609600D02*
D03*
Y604600D02*
D03*
Y599600D02*
D03*
X893895D02*
D03*
Y604600D02*
D03*
Y609600D02*
D03*
Y614600D02*
D03*
X680535Y602140D02*
D03*
Y607140D02*
D03*
Y612140D02*
D03*
Y617140D02*
D03*
Y622140D02*
D03*
X708846D02*
D03*
Y617140D02*
D03*
Y612140D02*
D03*
Y607140D02*
D03*
D24*
X893895Y619600D02*
D03*
X708846Y602140D02*
D03*
D25*
X1116330Y840809D02*
D03*
Y853309D02*
D03*
X539750Y853340D02*
D03*
Y840840D02*
D03*
D26*
X951230Y632340D02*
D03*
Y617340D02*
D03*
D27*
X1009130Y892644D02*
D03*
X1071130D02*
D03*
X663460Y895350D02*
D03*
X601460D02*
D03*
D28*
X1116330Y827187D02*
D03*
Y813653D02*
D03*
X1135380Y380147D02*
D03*
Y366613D02*
D03*
X539750Y828457D02*
D03*
Y814923D02*
D03*
X753110Y583347D02*
D03*
Y569813D02*
D03*
D29*
X737980Y311810D02*
D03*
Y330810D02*
D03*
X719980Y321310D02*
D03*
D30*
X557590Y337820D02*
D03*
X628590D02*
D03*
X558860Y435610D02*
D03*
X629860D02*
D03*
D31*
X1008540Y433070D02*
D03*
X1028540D02*
D03*
D32*
X915580Y394970D02*
D03*
X936080D02*
D03*
D33*
X715010Y638160D02*
D03*
Y652160D02*
D03*
D34*
X730250Y569080D02*
D03*
Y584080D02*
D03*
D35*
X777240Y579065D02*
D03*
Y591875D02*
D03*
X868680Y589225D02*
D03*
Y602035D02*
D03*
D36*
X744100Y548640D02*
D03*
X729100D02*
D03*
X824110Y590550D02*
D03*
X809110D02*
D03*
D37*
X1150620Y458130D02*
D03*
Y479130D02*
D03*
Y522309D02*
D03*
Y501309D02*
D03*
D38*
X1099850Y447040D02*
D03*
X1059150D02*
D03*
X1099850Y459740D02*
D03*
X1059150D02*
D03*
X1099850Y472440D02*
D03*
X1059150D02*
D03*
X1099850Y485140D02*
D03*
X1059150D02*
D03*
X1099850Y497840D02*
D03*
X1059150D02*
D03*
X1099850Y510540D02*
D03*
X1059150D02*
D03*
X1099850Y523240D02*
D03*
X1059150D02*
D03*
D39*
X1132840Y522070D02*
D03*
Y534570D02*
D03*
X1133311Y457100D02*
D03*
Y444600D02*
D03*
D40*
X869830Y628650D02*
D03*
X854830D02*
D03*
D41*
X825083Y611343D02*
D03*
X838617D02*
D03*
D42*
X883300Y570230D02*
D03*
X869300D02*
D03*
D43*
X889613Y977670D02*
D03*
Y929870D02*
D03*
X776730Y933680D02*
D03*
Y981480D02*
D03*
D44*
X969112Y953770D02*
D03*
X697230Y957580D02*
D03*
D45*
X687197Y1174750D02*
D03*
X719963D02*
D03*
X632449D02*
D03*
X665216D02*
D03*
X576834D02*
D03*
X609600D02*
D03*
X520954D02*
D03*
X553720D02*
D03*
X1109250Y1177290D02*
D03*
X1142016D02*
D03*
X1054502D02*
D03*
X1087268D02*
D03*
X999754D02*
D03*
X1032521D02*
D03*
X945007D02*
D03*
X977773D02*
D03*
D46*
X506730Y907884D02*
D03*
Y895350D02*
D03*
X1164590Y868597D02*
D03*
Y856063D02*
D03*
D47*
X1056220Y976770D02*
D03*
Y930770D02*
D03*
X612170Y933310D02*
D03*
Y979310D02*
D03*
D48*
X1125220Y953770D02*
D03*
X543170Y956310D02*
D03*
M02*
