G04*
G04 #@! TF.GenerationSoftware,Altium Limited,Altium Designer,25.2.1 (25)*
G04*
G04 Layer_Physical_Order=4*
G04 Layer_Color=16711680*
%FSLAX44Y44*%
%MOMM*%
G71*
G04*
G04 #@! TF.SameCoordinates,245930A5-F2C7-430A-BF85-77EB81D10B19*
G04*
G04*
G04 #@! TF.FilePolarity,Positive*
G04*
G01*
G75*
%ADD11C,0.2540*%
%ADD14C,0.8000*%
%ADD17R,0.8000X0.6000*%
%ADD28R,0.8121X0.6587*%
%ADD32R,0.9562X1.2062*%
%ADD33R,0.9000X0.7000*%
%ADD41R,0.6587X0.8121*%
%ADD42R,0.7000X0.9000*%
%ADD63C,1.2192*%
%ADD67R,1.6000X1.6000*%
%ADD68C,1.6000*%
%ADD74C,1.0000*%
%ADD75C,0.6000*%
%ADD76C,0.7000*%
%ADD77C,1.5000*%
%ADD78C,2.0000*%
%ADD79C,0.5000*%
%ADD81C,2.4000*%
G04:AMPARAMS|DCode=82|XSize=2.4mm|YSize=2.4mm|CornerRadius=0.6mm|HoleSize=0mm|Usage=FLASHONLY|Rotation=180.000|XOffset=0mm|YOffset=0mm|HoleType=Round|Shape=RoundedRectangle|*
%AMROUNDEDRECTD82*
21,1,2.4000,1.2000,0,0,180.0*
21,1,1.2000,2.4000,0,0,180.0*
1,1,1.2000,-0.6000,0.6000*
1,1,1.2000,0.6000,0.6000*
1,1,1.2000,0.6000,-0.6000*
1,1,1.2000,-0.6000,-0.6000*
%
%ADD82ROUNDEDRECTD82*%
%ADD83C,3.0000*%
%ADD84C,1.2700*%
%ADD85C,0.6000*%
%ADD86C,0.8000*%
%ADD87C,0.7000*%
%ADD88C,0.5000*%
%ADD90R,2.5000X1.8000*%
%ADD91R,0.7000X0.7000*%
%ADD92O,0.3000X1.8000*%
%ADD93O,1.8000X0.3000*%
%ADD94R,2.8000X1.6000*%
%ADD95R,2.1500X3.2500*%
%ADD96R,2.1500X0.9500*%
%ADD97R,1.2062X0.9562*%
%ADD98R,0.9350X0.9621*%
%ADD99R,1.0500X1.0500*%
%ADD100R,1.6000X2.8000*%
%ADD101R,0.9500X1.0500*%
%ADD102R,0.9000X0.8000*%
%ADD103R,0.3000X0.4000*%
%ADD104R,0.4800X0.4000*%
%ADD105R,0.6000X0.8000*%
%ADD106R,0.9621X0.9350*%
%ADD107R,0.7000X0.7000*%
%ADD108R,1.4500X1.2000*%
%ADD109O,1.5000X0.4500*%
%ADD110R,0.9000X0.6000*%
G04:AMPARAMS|DCode=111|XSize=1.0043mm|YSize=3.1821mm|CornerRadius=0.4369mm|HoleSize=0mm|Usage=FLASHONLY|Rotation=180.000|XOffset=0mm|YOffset=0mm|HoleType=Round|Shape=RoundedRectangle|*
%AMROUNDEDRECTD111*
21,1,1.0043,2.3084,0,0,180.0*
21,1,0.1306,3.1821,0,0,180.0*
1,1,0.8737,-0.0653,1.1542*
1,1,0.8737,0.0653,1.1542*
1,1,0.8737,0.0653,-1.1542*
1,1,0.8737,-0.0653,-1.1542*
%
%ADD111ROUNDEDRECTD111*%
G04:AMPARAMS|DCode=112|XSize=1.0043mm|YSize=0.8721mm|CornerRadius=0.4361mm|HoleSize=0mm|Usage=FLASHONLY|Rotation=180.000|XOffset=0mm|YOffset=0mm|HoleType=Round|Shape=RoundedRectangle|*
%AMROUNDEDRECTD112*
21,1,1.0043,0.0000,0,0,180.0*
21,1,0.1322,0.8721,0,0,180.0*
1,1,0.8721,-0.0661,0.0000*
1,1,0.8721,0.0661,0.0000*
1,1,0.8721,0.0661,0.0000*
1,1,0.8721,-0.0661,0.0000*
%
%ADD112ROUNDEDRECTD112*%
%ADD113R,1.0043X0.8721*%
%ADD114R,0.9000X0.8500*%
%ADD115R,1.0000X0.9000*%
%ADD116R,1.2565X0.4358*%
G04:AMPARAMS|DCode=117|XSize=1.2565mm|YSize=0.4358mm|CornerRadius=0.2179mm|HoleSize=0mm|Usage=FLASHONLY|Rotation=180.000|XOffset=0mm|YOffset=0mm|HoleType=Round|Shape=RoundedRectangle|*
%AMROUNDEDRECTD117*
21,1,1.2565,0.0000,0,0,180.0*
21,1,0.8207,0.4358,0,0,180.0*
1,1,0.4358,-0.4103,0.0000*
1,1,0.4358,0.4103,0.0000*
1,1,0.4358,0.4103,0.0000*
1,1,0.4358,-0.4103,0.0000*
%
%ADD117ROUNDEDRECTD117*%
%ADD118R,1.8300X2.2600*%
%ADD119C,0.4000*%
%ADD120C,0.4500*%
G36*
X1013460Y972820D02*
X1012190Y971550D01*
X985520D01*
Y975360D01*
X990600Y980440D01*
X1013460D01*
Y972820D01*
D02*
G37*
G36*
X706120Y981710D02*
X702310D01*
X702310Y949960D01*
X701040Y948690D01*
X683260D01*
Y953770D01*
X680720Y955040D01*
X666750D01*
X665480Y956310D01*
X668020Y958850D01*
X680720D01*
X683260Y961390D01*
Y988060D01*
X685800Y990600D01*
X687070Y991870D01*
X706120D01*
Y981710D01*
D02*
G37*
G36*
X980440Y974090D02*
Y971550D01*
X981710Y970280D01*
X996950D01*
X998220Y969010D01*
Y965200D01*
X981710D01*
Y944880D01*
X982980D01*
Y933450D01*
X958850D01*
Y944880D01*
X961390D01*
Y975360D01*
X979170D01*
X980440Y974090D01*
D02*
G37*
G36*
X678180Y928370D02*
X665480D01*
X664210Y929640D01*
Y949960D01*
X665480Y952500D01*
X678180D01*
Y928370D01*
D02*
G37*
G36*
X800581Y613880D02*
X801735Y613497D01*
Y607849D01*
X800737Y606548D01*
X800078Y604957D01*
X799854Y603250D01*
X800078Y601543D01*
X800737Y599952D01*
X801786Y598586D01*
X803152Y597537D01*
X804743Y596878D01*
X806450Y596654D01*
X919288D01*
X928124Y587818D01*
Y535940D01*
Y495300D01*
Y433262D01*
X923128Y428267D01*
X922080Y426901D01*
X921421Y425310D01*
X921196Y423603D01*
Y402389D01*
X920374Y401566D01*
X757763D01*
X751115Y408215D01*
X749117Y409549D01*
X746760Y410018D01*
X735899D01*
Y458470D01*
Y515620D01*
X735678Y516728D01*
Y576742D01*
X735899Y577850D01*
Y592020D01*
X743534Y599656D01*
X744759Y601489D01*
X745189Y603650D01*
X744759Y605812D01*
X744505Y606192D01*
Y610806D01*
X745620Y611721D01*
X747196Y612034D01*
X748120Y612652D01*
X749044Y612034D01*
X750620Y611721D01*
X752196Y612034D01*
X753120Y612652D01*
X754044Y612034D01*
X755620Y611721D01*
X757196Y612034D01*
X758120Y612652D01*
X759044Y612034D01*
X760620Y611721D01*
X762196Y612034D01*
X763120Y612652D01*
X764044Y612034D01*
X765620Y611721D01*
X767196Y612034D01*
X768120Y612652D01*
X769044Y612034D01*
X770620Y611721D01*
X772196Y612034D01*
X773120Y612652D01*
X774044Y612034D01*
X775620Y611721D01*
X777196Y612034D01*
X778120Y612652D01*
X779044Y612034D01*
X780620Y611721D01*
X782196Y612034D01*
X783120Y612652D01*
X784044Y612034D01*
X785620Y611721D01*
X787196Y612034D01*
X788120Y612652D01*
X789044Y612034D01*
X790620Y611721D01*
X792196Y612034D01*
X793120Y612652D01*
X794044Y612034D01*
X795620Y611721D01*
X797196Y612034D01*
X798533Y612927D01*
X799195Y613919D01*
X800581Y613880D01*
D02*
G37*
G36*
X996875Y589758D02*
X996655Y587950D01*
X994419Y587340D01*
X977000D01*
Y584225D01*
X971154D01*
X970239Y585340D01*
X969926Y586916D01*
X969308Y587840D01*
X969926Y588764D01*
X970239Y590340D01*
X969926Y591916D01*
X969308Y592840D01*
X969926Y593764D01*
X970239Y595340D01*
X969926Y596916D01*
X969308Y597840D01*
X969926Y598764D01*
X970239Y600340D01*
X969926Y601916D01*
X969308Y602840D01*
X969926Y603764D01*
X970239Y605340D01*
X969926Y606916D01*
X969033Y608253D01*
X967696Y609146D01*
X966120Y609459D01*
X965011D01*
X963890Y611138D01*
Y613143D01*
X963123Y614995D01*
X961705Y616413D01*
X959853Y617180D01*
X957848D01*
X955995Y616413D01*
X954577Y614995D01*
X953810Y613143D01*
Y611138D01*
X952689Y609459D01*
X951120D01*
X949544Y609146D01*
X948207Y608253D01*
X947314Y606916D01*
X947001Y605340D01*
X947314Y603764D01*
X947932Y602840D01*
X947314Y601916D01*
X947001Y600340D01*
X947314Y598764D01*
X947932Y597840D01*
X947314Y596916D01*
X947001Y595340D01*
X947314Y593764D01*
X947932Y592840D01*
X947314Y591916D01*
X947001Y590340D01*
X947314Y588764D01*
X947932Y587840D01*
X947314Y586916D01*
X947001Y585340D01*
X947314Y583764D01*
X947932Y582840D01*
X947314Y581916D01*
X947001Y580340D01*
X947314Y578764D01*
X947932Y577840D01*
X947314Y576916D01*
X947001Y575340D01*
X947314Y573764D01*
X947932Y572840D01*
X947314Y571916D01*
X947001Y570340D01*
X947314Y568764D01*
X947932Y567840D01*
X947314Y566916D01*
X947001Y565340D01*
X947314Y563764D01*
X947932Y562840D01*
X947314Y561916D01*
X947001Y560340D01*
X947314Y558764D01*
X947932Y557840D01*
X947314Y556916D01*
X947001Y555340D01*
X947314Y553764D01*
X947932Y552840D01*
X947314Y551916D01*
X947001Y550340D01*
X947314Y548764D01*
X947932Y547840D01*
X947314Y546916D01*
X947001Y545340D01*
X947314Y543764D01*
X948207Y542427D01*
X949199Y541765D01*
X949160Y540379D01*
X948777Y539225D01*
X941316D01*
Y590550D01*
X941092Y592257D01*
X940433Y593848D01*
X939384Y595214D01*
X926684Y607914D01*
X925657Y608703D01*
X925415Y610292D01*
X925512Y611632D01*
X925620Y611721D01*
X927196Y612034D01*
X928120Y612652D01*
X929044Y612034D01*
X930620Y611721D01*
X932196Y612034D01*
X933120Y612652D01*
X934044Y612034D01*
X935620Y611721D01*
X937196Y612034D01*
X938120Y612652D01*
X939044Y612034D01*
X940620Y611721D01*
X942196Y612034D01*
X943533Y612927D01*
X944426Y614264D01*
X944739Y615840D01*
Y630840D01*
X947007Y632460D01*
X996875D01*
Y589758D01*
D02*
G37*
G36*
X721501Y630840D02*
Y615840D01*
X721814Y614264D01*
X722707Y612927D01*
X724044Y612034D01*
X725620Y611721D01*
X727196Y612034D01*
X728120Y612652D01*
X729044Y612034D01*
X730620Y611721D01*
X732196Y612034D01*
X733533Y612927D01*
X734195Y613919D01*
X735581Y613880D01*
X736735Y613497D01*
Y608439D01*
X735546Y607644D01*
X726256Y598354D01*
X725031Y596522D01*
X724601Y594360D01*
X724602Y594360D01*
Y584225D01*
X720154D01*
X719239Y585340D01*
X718926Y586916D01*
X718308Y587840D01*
X718926Y588764D01*
X719239Y590340D01*
X718926Y591916D01*
X718308Y592840D01*
X718926Y593764D01*
X719239Y595340D01*
X718926Y596916D01*
X718308Y597840D01*
X718926Y598764D01*
X719239Y600340D01*
X718926Y601916D01*
X718308Y602840D01*
X718926Y603764D01*
X719239Y605340D01*
X718926Y606916D01*
X718033Y608253D01*
X716696Y609146D01*
X715120Y609459D01*
X700120D01*
X698544Y609146D01*
X697207Y608253D01*
X696314Y606916D01*
X696001Y605340D01*
X696314Y603764D01*
X696932Y602840D01*
X696314Y601916D01*
X696001Y600340D01*
X696314Y598764D01*
X696932Y597840D01*
X696314Y596916D01*
X696001Y595340D01*
X696314Y593764D01*
X696932Y592840D01*
X696314Y591916D01*
X696001Y590340D01*
X696314Y588764D01*
X696932Y587840D01*
X696314Y586916D01*
X696001Y585340D01*
X693733Y583724D01*
X693101Y583663D01*
X690955Y585809D01*
Y590550D01*
X690659Y592037D01*
X689817Y593297D01*
X688557Y594139D01*
X687070Y594435D01*
X685583Y594139D01*
X684323Y593297D01*
X683481Y592037D01*
X683185Y590550D01*
Y584200D01*
X683481Y582713D01*
X684323Y581453D01*
X687160Y578617D01*
X686188Y576270D01*
X682950D01*
Y566226D01*
X681974Y564064D01*
X680538Y563880D01*
X679550D01*
X677289Y563274D01*
X675261Y562104D01*
X673606Y560449D01*
X672436Y558421D01*
X671830Y556160D01*
Y553820D01*
X672260Y552216D01*
X669982Y550901D01*
X649045Y571839D01*
Y625771D01*
X655734Y632460D01*
X719233D01*
X721501Y630840D01*
D02*
G37*
G36*
X1059479Y625159D02*
X1074121D01*
Y629845D01*
X1077891D01*
X1090855Y616881D01*
Y609829D01*
X1090724Y609753D01*
X1089507Y608536D01*
X1088646Y607044D01*
X1088200Y605381D01*
Y604526D01*
X1088183Y604509D01*
X1087341Y603249D01*
X1087045Y601762D01*
Y587911D01*
X1084329D01*
Y576244D01*
X1084329D01*
Y574376D01*
X1084329D01*
Y562709D01*
X1087045D01*
Y558413D01*
X1086229Y558194D01*
X1085656Y557863D01*
X1083446Y557763D01*
X1082385Y558800D01*
X1082247Y559007D01*
X1023695Y617559D01*
Y632460D01*
X1059479D01*
Y625159D01*
D02*
G37*
G36*
X641985Y631161D02*
X642275Y629920D01*
X641571Y628867D01*
X641275Y627380D01*
Y570230D01*
X641571Y568743D01*
X642413Y567483D01*
X667813Y542083D01*
X668782Y541436D01*
X669224Y540490D01*
X669614Y538544D01*
X668626Y536831D01*
X668020Y534570D01*
Y532230D01*
X668626Y529969D01*
X669796Y527941D01*
X671451Y526286D01*
X672136Y525891D01*
X672435Y525092D01*
X672484Y522880D01*
X669216Y519613D01*
X662630D01*
Y507533D01*
X674710D01*
Y514119D01*
X677406Y516815D01*
X688137D01*
X688171Y516765D01*
X686813Y514225D01*
X685602D01*
X684115Y513929D01*
X682855Y513087D01*
X682013Y511827D01*
X681717Y510340D01*
X682013Y508853D01*
X682855Y507593D01*
X684115Y506751D01*
X685602Y506455D01*
X695086D01*
X696001Y505340D01*
X696314Y503764D01*
X696932Y502840D01*
X696314Y501916D01*
X696001Y500340D01*
X696314Y498764D01*
X696932Y497840D01*
X696314Y496916D01*
X696001Y495340D01*
X696314Y493764D01*
X696932Y492840D01*
X696314Y491916D01*
X696001Y490340D01*
X696314Y488764D01*
X696932Y487840D01*
X696314Y486916D01*
X696001Y485340D01*
X696314Y483764D01*
X696932Y482840D01*
X696314Y481916D01*
X696001Y480340D01*
X696314Y478764D01*
X696932Y477840D01*
X696314Y476916D01*
X696093Y475805D01*
X695324Y475325D01*
X693495Y475817D01*
Y480060D01*
X693199Y481547D01*
X692357Y482807D01*
X678387Y496777D01*
X677127Y497619D01*
X675640Y497915D01*
X674710D01*
Y500070D01*
X662630D01*
Y487990D01*
X674710D01*
Y487990D01*
X675754Y488422D01*
X685725Y478451D01*
Y471170D01*
X686021Y469683D01*
X686863Y468423D01*
X690805Y464481D01*
Y463550D01*
X691101Y462063D01*
X689489Y460273D01*
X688711Y459763D01*
X687224Y460059D01*
X685738Y459763D01*
X684477Y458921D01*
X683635Y457661D01*
X683340Y456174D01*
X683635Y454688D01*
X684052Y454064D01*
X682079Y452444D01*
X651717Y482807D01*
X650457Y483649D01*
X648970Y483945D01*
X605072D01*
X603585Y483649D01*
X602325Y482807D01*
X557323Y437805D01*
X556481Y436545D01*
X556185Y435058D01*
Y422531D01*
X494212Y360558D01*
X491866Y361532D01*
X492448Y608018D01*
X516890Y632460D01*
X641447D01*
X641985Y631161D01*
D02*
G37*
G36*
X1104900Y501650D02*
X1109980D01*
Y461010D01*
X1111250Y459740D01*
X1096010Y444500D01*
X1062990D01*
X1057910Y449580D01*
Y504190D01*
X1059180Y505460D01*
X1103630Y549910D01*
X1104900Y501650D01*
D02*
G37*
G36*
X1127323Y572748D02*
X1129030Y572524D01*
X1133990D01*
Y564557D01*
X1139115D01*
Y558219D01*
X1138677Y557781D01*
X1133773D01*
Y544579D01*
X1145441D01*
Y553557D01*
X1145747Y553863D01*
X1146589Y555123D01*
X1146885Y556610D01*
Y564557D01*
X1148070D01*
Y565075D01*
X1154430D01*
X1155582Y565304D01*
X1156406Y565020D01*
X1158122Y563790D01*
Y444575D01*
X1157869Y444294D01*
X1155582Y443230D01*
X1154431Y443894D01*
X1152170Y444500D01*
X1149830D01*
X1147569Y443894D01*
X1145541Y442724D01*
X1143886Y441069D01*
X1142985Y439508D01*
X1141014Y439712D01*
X1140445Y439937D01*
Y480060D01*
Y492038D01*
X1140186Y494006D01*
X1139741Y495081D01*
X1139426Y495840D01*
X1138218Y497416D01*
X1133700Y501933D01*
X1133385Y502693D01*
X1132177Y504269D01*
X1131958Y504488D01*
X1130383Y505696D01*
X1128548Y506456D01*
X1126580Y506715D01*
X1124612Y506456D01*
X1122777Y505696D01*
X1121202Y504488D01*
X1119994Y502912D01*
X1119234Y501078D01*
X1118975Y499110D01*
X1119234Y497142D01*
X1119356Y496847D01*
X1119453Y496111D01*
X1120213Y494277D01*
X1121421Y492701D01*
X1125235Y488888D01*
Y480060D01*
Y439420D01*
X1125494Y437452D01*
X1125737Y436865D01*
X1124228Y434325D01*
X1073360D01*
X1071392Y434066D01*
X1069557Y433306D01*
X1067982Y432098D01*
X1066774Y430522D01*
X1066014Y428688D01*
X1065755Y426720D01*
X1066014Y424752D01*
X1066774Y422918D01*
X1067982Y421342D01*
X1069557Y420134D01*
X1071392Y419374D01*
X1073360Y419115D01*
X1131360D01*
X1133328Y419374D01*
X1135163Y420134D01*
X1136738Y421342D01*
X1137701Y422306D01*
X1138910Y423881D01*
X1139669Y425715D01*
X1139929Y427683D01*
X1139669Y429652D01*
X1138910Y431486D01*
X1138218Y434042D01*
X1139426Y435617D01*
X1139570Y435965D01*
X1142110Y435460D01*
Y434440D01*
X1142716Y432179D01*
X1143886Y430151D01*
X1145541Y428496D01*
X1147115Y427588D01*
Y290279D01*
X1123611Y266775D01*
X1097551D01*
X1096498Y269315D01*
X1097487Y270303D01*
X1098329Y271563D01*
X1098625Y273050D01*
Y284480D01*
X1098329Y285967D01*
X1097487Y287227D01*
X1096594Y288120D01*
X1097646Y290660D01*
X1124520D01*
Y305954D01*
X1125599Y306576D01*
X1127254Y308231D01*
X1128424Y310259D01*
X1129030Y312520D01*
Y314860D01*
X1128424Y317121D01*
X1127254Y319149D01*
X1125599Y320804D01*
X1123571Y321974D01*
X1121310Y322580D01*
X1118970D01*
X1116709Y321974D01*
X1115034Y321007D01*
X1113905Y321659D01*
X1113005Y322649D01*
X1113516Y323882D01*
X1113775Y325851D01*
Y345131D01*
X1113516Y347099D01*
X1112756Y348933D01*
X1111548Y350509D01*
X1109973Y351717D01*
X1108138Y352477D01*
X1106170Y352736D01*
X1104202Y352477D01*
X1102367Y351717D01*
X1100792Y350509D01*
X1099584Y348933D01*
X1098824Y347099D01*
X1098565Y345131D01*
Y331455D01*
X1068346D01*
X1068306Y331553D01*
X1067098Y333128D01*
X1065523Y334336D01*
X1063688Y335096D01*
X1061720Y335355D01*
X1059752Y335096D01*
X1057917Y334336D01*
X1056342Y333128D01*
X1055134Y331553D01*
X1054374Y329718D01*
X1054115Y327750D01*
Y326850D01*
X1054374Y324882D01*
X1055134Y323047D01*
X1056342Y321472D01*
X1059342Y318472D01*
X1060918Y317264D01*
X1062752Y316504D01*
X1064720Y316245D01*
X1104900D01*
X1106868Y316504D01*
X1108702Y317264D01*
X1109444Y317832D01*
X1111640Y316316D01*
X1111250Y314860D01*
Y312520D01*
X1111856Y310259D01*
X1112710Y308780D01*
X1112059Y307029D01*
X1111425Y306240D01*
X1095440D01*
Y304295D01*
X1070300D01*
X1068813Y303999D01*
X1067553Y303157D01*
X1063536Y299140D01*
X1056950D01*
Y299140D01*
X1056471Y298701D01*
X1044804D01*
Y298701D01*
X1042937D01*
Y298701D01*
X1037840D01*
X1037348Y299025D01*
X1035919Y300862D01*
X1036320Y302360D01*
Y304700D01*
X1035714Y306961D01*
X1034544Y308989D01*
X1032889Y310644D01*
X1030861Y311814D01*
X1028600Y312420D01*
X1026260D01*
X1023999Y311814D01*
X1023695Y311639D01*
X1021155Y313105D01*
Y398828D01*
X1022121Y399300D01*
X1023695Y399512D01*
X1024592Y398342D01*
X1026168Y397134D01*
X1027015Y396783D01*
X1027051Y396746D01*
X1029079Y395576D01*
X1031340Y394970D01*
X1033680D01*
X1035941Y395576D01*
X1036875Y396115D01*
X1044655D01*
X1045589Y395576D01*
X1047850Y394970D01*
X1050190D01*
X1052451Y395576D01*
X1053506Y396185D01*
X1059764D01*
X1060736Y393838D01*
X1054188Y387290D01*
X1051180D01*
Y384282D01*
X1050999Y384101D01*
X1050437Y383261D01*
X1050240Y382270D01*
Y360680D01*
X1050437Y359689D01*
X1050999Y358849D01*
X1051180Y358667D01*
Y354210D01*
X1055638D01*
X1056079Y353769D01*
X1056919Y353207D01*
X1057910Y353010D01*
X1083310D01*
X1084301Y353207D01*
X1085141Y353769D01*
X1085703Y354609D01*
X1085900Y355600D01*
Y358245D01*
X1099820D01*
X1101788Y358504D01*
X1101849Y358529D01*
X1114865D01*
Y373171D01*
X1101849D01*
X1101788Y373196D01*
X1099820Y373455D01*
X1085900D01*
Y397700D01*
X1089190D01*
Y412280D01*
X1062610D01*
Y411395D01*
X1053749D01*
X1052451Y412144D01*
X1050190Y412750D01*
X1047850D01*
X1045589Y412144D01*
X1044170Y411325D01*
X1037360D01*
X1035941Y412144D01*
X1033680Y412750D01*
X1031340D01*
X1029079Y412144D01*
X1027051Y410974D01*
X1026537Y410459D01*
X1026168Y410306D01*
X1024592Y409098D01*
X1023695Y407928D01*
X1022121Y408140D01*
X1021155Y408612D01*
Y410210D01*
X1020859Y411697D01*
X1020017Y412957D01*
X1000835Y432139D01*
Y463821D01*
X1003375Y464873D01*
X1004191Y464056D01*
X1006219Y462886D01*
X1008480Y462280D01*
X1009677Y459740D01*
X1009650Y459640D01*
Y457300D01*
X1010256Y455039D01*
X1011426Y453011D01*
X1013081Y451356D01*
X1015109Y450186D01*
X1017370Y449580D01*
X1019710D01*
X1021971Y450186D01*
X1023845Y451268D01*
X1023999Y451356D01*
X1024083Y451398D01*
X1026431Y449731D01*
X1026430Y449682D01*
X1026416Y449564D01*
X1026310Y449171D01*
X1025970Y447901D01*
Y446179D01*
X1026416Y444516D01*
X1027277Y443024D01*
X1028494Y441807D01*
X1029986Y440946D01*
X1031649Y440500D01*
X1033371D01*
X1035034Y440946D01*
X1036526Y441807D01*
X1037743Y443024D01*
X1038604Y444516D01*
X1039050Y446179D01*
Y447901D01*
X1038604Y449564D01*
X1037743Y451056D01*
X1036526Y452273D01*
X1035034Y453134D01*
X1033371Y453580D01*
X1031649D01*
X1029986Y453134D01*
X1028494Y452273D01*
X1028332Y452266D01*
X1028332Y452266D01*
X1028494Y452273D01*
X1028866Y452488D01*
X1028291Y452267D01*
X1028144Y452272D01*
X1026649Y454736D01*
X1026824Y455039D01*
X1027430Y457300D01*
Y459640D01*
X1026824Y461901D01*
X1025654Y463929D01*
X1023999Y465584D01*
X1021971Y466754D01*
X1019710Y467360D01*
X1018513Y469900D01*
X1018540Y470000D01*
Y472340D01*
X1018070Y474096D01*
X1020149Y476175D01*
X1042670D01*
X1044157Y476471D01*
X1045417Y477313D01*
X1050497Y482393D01*
X1051339Y483653D01*
X1051635Y485140D01*
Y485619D01*
X1052780Y486602D01*
X1055320Y485435D01*
Y449580D01*
X1055517Y448589D01*
X1056079Y447749D01*
X1061159Y442669D01*
X1061999Y442107D01*
X1062990Y441910D01*
X1096010D01*
X1097001Y442107D01*
X1097841Y442669D01*
X1098040Y442868D01*
X1098682Y443134D01*
X1100258Y444342D01*
X1111548Y455632D01*
X1112756Y457207D01*
X1113022Y457850D01*
X1113081Y457909D01*
X1113643Y458749D01*
X1113840Y459740D01*
X1113700Y460442D01*
X1113775Y461010D01*
Y535346D01*
X1115129Y536250D01*
X1117531D01*
X1119751Y537169D01*
X1121451Y538869D01*
X1122370Y541089D01*
Y543491D01*
X1121451Y545711D01*
X1120915Y546247D01*
Y564557D01*
X1124070D01*
Y571481D01*
X1124485Y571962D01*
X1126610Y573044D01*
X1127323Y572748D01*
D02*
G37*
G36*
X676724Y446813D02*
X675659Y444732D01*
X675444Y444500D01*
X673200D01*
X670939Y443894D01*
X668911Y442724D01*
X667385Y441197D01*
X665859Y442724D01*
X663831Y443894D01*
X661570Y444500D01*
X659230D01*
X656969Y443894D01*
X654941Y442724D01*
X653286Y441069D01*
X652116Y439041D01*
X651510Y436780D01*
Y434440D01*
X652116Y432179D01*
X653286Y430151D01*
X654941Y428496D01*
X656969Y427326D01*
X659230Y426720D01*
X661570D01*
X663831Y427326D01*
X665859Y428496D01*
X667385Y430023D01*
X668911Y428496D01*
X670939Y427326D01*
X673200Y426720D01*
X675540D01*
X677144Y427150D01*
X678459Y424872D01*
X661463Y407877D01*
X660621Y406617D01*
X660325Y405130D01*
Y391562D01*
X658751Y390654D01*
X657096Y388999D01*
X655926Y386971D01*
X655320Y384710D01*
Y382370D01*
X655926Y380109D01*
X657096Y378081D01*
X658751Y376426D01*
X660779Y375256D01*
X663040Y374650D01*
X664425D01*
X665545Y372178D01*
X663184Y369816D01*
X627730D01*
X626758Y372163D01*
X636568Y381972D01*
X637776Y383548D01*
X638536Y385382D01*
X638795Y387350D01*
Y416560D01*
X638536Y418528D01*
X638091Y419603D01*
X637776Y420363D01*
X636568Y421938D01*
X625138Y433368D01*
X624521Y433841D01*
Y435221D01*
X622006D01*
X621728Y435336D01*
X619760Y435595D01*
X599290D01*
Y438530D01*
X572354D01*
X571382Y440877D01*
X606681Y476175D01*
X609330D01*
X610634Y473703D01*
X610323Y472952D01*
X609364Y471702D01*
X608604Y469868D01*
X608345Y467899D01*
Y448400D01*
X608604Y446432D01*
X609364Y444598D01*
X610572Y443022D01*
X612147Y441814D01*
X613982Y441054D01*
X615950Y440795D01*
X617918Y441054D01*
X619753Y441814D01*
X621328Y443022D01*
X622536Y444598D01*
X623296Y446432D01*
X623555Y448400D01*
Y465040D01*
X623806Y465367D01*
X624566Y467201D01*
X624825Y469169D01*
Y469900D01*
X624566Y471868D01*
X623806Y473703D01*
X625110Y476175D01*
X647361D01*
X676724Y446813D01*
D02*
G37*
G36*
X623585Y413410D02*
Y390500D01*
X601682Y368598D01*
X600474Y367023D01*
X599724Y365213D01*
X597465Y362954D01*
X591978D01*
X591672Y363081D01*
X589871Y363318D01*
X588549D01*
X586748Y363081D01*
X585069Y362385D01*
X583628Y361279D01*
X582522Y359838D01*
X581826Y358159D01*
X581589Y356357D01*
X581819Y354612D01*
X581824Y354553D01*
X580106Y352071D01*
X567897D01*
X566410Y351776D01*
X565150Y350934D01*
X543221Y329005D01*
X509270D01*
X507783Y328709D01*
X506523Y327867D01*
X496451Y317795D01*
X494105Y318767D01*
Y349463D01*
X513216Y368574D01*
X514654Y368182D01*
X515689Y367455D01*
Y344815D01*
X515926Y343012D01*
X516623Y341331D01*
X517730Y339888D01*
X519173Y338781D01*
X520854Y338085D01*
X522657Y337847D01*
X523963D01*
X525766Y338085D01*
X527447Y338781D01*
X528890Y339888D01*
X529997Y341331D01*
X530694Y343012D01*
X530931Y344815D01*
Y367900D01*
X530694Y369703D01*
X529997Y371384D01*
X528890Y372827D01*
X527447Y373934D01*
X525766Y374630D01*
X523963Y374868D01*
X523102D01*
X522375Y375903D01*
X521983Y377341D01*
X554990Y410348D01*
X557530Y409296D01*
Y409040D01*
X558136Y406779D01*
X559306Y404751D01*
X560961Y403096D01*
X562989Y401926D01*
X565250Y401320D01*
X567590D01*
X569851Y401926D01*
X571879Y403096D01*
X573534Y404751D01*
X574704Y406779D01*
X575310Y409040D01*
Y411380D01*
X574704Y413641D01*
X573972Y414910D01*
X574867Y416987D01*
X575336Y417450D01*
X599290D01*
Y420385D01*
X616610D01*
X623585Y413410D01*
D02*
G37*
G36*
X1083310Y355600D02*
X1057910D01*
X1052830Y360680D01*
Y382270D01*
X1066800Y396240D01*
Y408940D01*
X1083310D01*
Y355600D01*
D02*
G37*
G36*
X994203Y427783D02*
X1013385Y408601D01*
Y281009D01*
X1006180Y273804D01*
X1003640Y274856D01*
Y287710D01*
X1006019Y288100D01*
X1007410D01*
Y301180D01*
X1004255D01*
Y305190D01*
X1003959Y306677D01*
X1003117Y307937D01*
X999697Y311357D01*
X998437Y312199D01*
X998389Y312208D01*
X997315Y314069D01*
X995659Y315724D01*
X993632Y316894D01*
X991371Y317500D01*
X989031D01*
X986769Y316894D01*
X984742Y315724D01*
X983087Y314069D01*
X982013Y312208D01*
X981965Y312199D01*
X980705Y311357D01*
X974897Y305549D01*
X972551Y306521D01*
Y314040D01*
X974190Y316230D01*
X974925Y316230D01*
X976530D01*
X978791Y316836D01*
X980819Y318006D01*
X982474Y319661D01*
X983644Y321689D01*
X984250Y323950D01*
Y326290D01*
X983644Y328551D01*
X982474Y330579D01*
X980819Y332234D01*
X978791Y333404D01*
X976530Y334010D01*
X974190D01*
X971929Y333404D01*
X969901Y332234D01*
X968246Y330579D01*
X967337Y329005D01*
X935990D01*
X934503Y328709D01*
X933243Y327867D01*
X929640Y324264D01*
X927826Y324804D01*
X927038Y325253D01*
X926494Y327281D01*
X925324Y329309D01*
X923669Y330964D01*
X921641Y332134D01*
X919380Y332740D01*
X917040D01*
X914779Y332134D01*
X912751Y330964D01*
X911096Y329309D01*
X909926Y327281D01*
X909320Y325020D01*
Y322680D01*
X909926Y320419D01*
X911096Y318391D01*
X912751Y316736D01*
X914779Y315566D01*
X916807Y315022D01*
X917256Y314234D01*
X917796Y312420D01*
X915463Y310087D01*
X915325Y309880D01*
X914264Y308843D01*
X912055Y308943D01*
X911481Y309274D01*
X909220Y309880D01*
X906880D01*
X904619Y309274D01*
X902591Y308104D01*
X900936Y306449D01*
X900027Y304875D01*
X891540D01*
X890053Y304579D01*
X888793Y303737D01*
X885373Y300317D01*
X883265Y300370D01*
X881778Y300666D01*
X877800D01*
Y301322D01*
X873607D01*
X872156Y303676D01*
X872182Y303862D01*
X873277Y304593D01*
X874024Y305340D01*
X877110D01*
Y308684D01*
X877777Y309351D01*
X878619Y310611D01*
X878915Y312098D01*
X878619Y313584D01*
X877777Y314845D01*
X876517Y315687D01*
X875030Y315983D01*
X873543Y315687D01*
X872283Y314845D01*
X871858Y314420D01*
X869030D01*
Y311880D01*
X859656D01*
Y311880D01*
X857115Y311365D01*
X856335Y311880D01*
Y311880D01*
X847552D01*
X846740Y312693D01*
Y314420D01*
X843500D01*
X843379Y314444D01*
X843259Y314420D01*
X838660D01*
Y305340D01*
X843105D01*
X843852Y304593D01*
X844947Y303862D01*
X844973Y303676D01*
X843630Y301321D01*
X843630D01*
Y292241D01*
X843630D01*
X843558Y289732D01*
X843385Y288880D01*
X841318Y288365D01*
X829310D01*
X827823Y288069D01*
X826563Y287227D01*
X823443Y284107D01*
X822601Y282847D01*
X822305Y281360D01*
X818810D01*
Y268459D01*
X817040Y266990D01*
X816432Y266890D01*
X805840D01*
Y265505D01*
X785172D01*
X784491Y268045D01*
X785239Y268476D01*
X786894Y270131D01*
X788064Y272159D01*
X788670Y274420D01*
Y276760D01*
X788064Y279021D01*
X786894Y281049D01*
X785239Y282704D01*
X783211Y283874D01*
X783166Y283886D01*
X782986Y283958D01*
X780983Y285242D01*
X780983D01*
Y291507D01*
X782860Y293083D01*
X783523Y293303D01*
X784883Y293124D01*
X803910D01*
X805617Y293348D01*
X807208Y294007D01*
X808574Y295056D01*
X809623Y296422D01*
X809836Y296937D01*
X819695Y306795D01*
X821030Y308793D01*
X821498Y311150D01*
Y322516D01*
X822454Y323471D01*
X823624Y325499D01*
X824230Y327760D01*
Y330100D01*
X823624Y332361D01*
X822454Y334389D01*
X820799Y336044D01*
X818771Y337214D01*
X816510Y337820D01*
X814170D01*
X811909Y337214D01*
X809881Y336044D01*
X808226Y334389D01*
X807056Y332361D01*
X806450Y330100D01*
Y327760D01*
X807056Y325499D01*
X808226Y323471D01*
X809182Y322516D01*
Y313701D01*
X801797Y306316D01*
X796174D01*
X795840Y308856D01*
X797181Y309216D01*
X799209Y310386D01*
X800864Y312041D01*
X802034Y314069D01*
X802640Y316330D01*
Y318670D01*
X802034Y320931D01*
X800864Y322959D01*
X799621Y324201D01*
X799383Y325755D01*
X799621Y327309D01*
X800864Y328551D01*
X802034Y330579D01*
X802640Y332840D01*
Y335180D01*
X802034Y337441D01*
X800864Y339469D01*
X799209Y341124D01*
X797181Y342294D01*
X794920Y342900D01*
X792580D01*
X790319Y342294D01*
X788291Y341124D01*
X786636Y339469D01*
X785466Y337441D01*
X784860Y335180D01*
Y332840D01*
X785466Y330579D01*
X786636Y328551D01*
X787879Y327309D01*
X788117Y325755D01*
X787879Y324201D01*
X786636Y322959D01*
X786327Y322422D01*
X783393D01*
X783084Y322959D01*
X781429Y324614D01*
X779401Y325784D01*
X777140Y326390D01*
X774800D01*
X772539Y325784D01*
X770511Y324614D01*
X768856Y322959D01*
X767686Y320931D01*
X767080Y318670D01*
Y316330D01*
X767686Y314069D01*
X768541Y312587D01*
X767895Y310841D01*
X767258Y310047D01*
X748302D01*
X741264Y317084D01*
X739898Y318133D01*
X738307Y318792D01*
X736600Y319016D01*
X734893Y318792D01*
X734378Y318578D01*
X713377D01*
X711062Y319039D01*
X703058D01*
X703058Y319039D01*
X700743Y318578D01*
X694690D01*
X694136Y318468D01*
X692357Y320247D01*
X691097Y321089D01*
X689610Y321385D01*
X688640D01*
Y324040D01*
X674560D01*
Y310960D01*
X675560D01*
X677446Y309380D01*
X677446Y308420D01*
Y300301D01*
X677601D01*
Y294744D01*
X675392Y292830D01*
X673810D01*
Y283750D01*
X681890D01*
X682130Y285020D01*
X692010D01*
Y294100D01*
X687624D01*
X685370Y296354D01*
Y298206D01*
X686445Y300301D01*
X688065Y300301D01*
X702100D01*
X703175Y298206D01*
Y297559D01*
X699716Y294100D01*
X695330D01*
Y285020D01*
X699976D01*
X700453Y284701D01*
X701940Y284405D01*
X705450D01*
Y283750D01*
X713530D01*
Y292830D01*
X712612D01*
X712140Y293223D01*
X710829Y295370D01*
X710945Y295950D01*
Y300301D01*
X711100D01*
Y305915D01*
X711522Y306262D01*
X711523Y306262D01*
X733430D01*
X740905Y298786D01*
X741467Y298355D01*
X741083Y295689D01*
X739823Y294847D01*
X727106Y282130D01*
X718520D01*
Y279475D01*
X717250D01*
X715763Y279179D01*
X714503Y278337D01*
X706388Y270222D01*
X705546Y268962D01*
X705481Y268634D01*
X698260D01*
X696391Y268262D01*
X695452Y267635D01*
X692200D01*
X690713Y267339D01*
X689453Y266497D01*
X687965Y265009D01*
X687123Y263749D01*
X686935Y262802D01*
X685472Y262225D01*
X684287Y262192D01*
X684118Y262446D01*
X679692Y266872D01*
X678432Y267714D01*
X676945Y268010D01*
X670507D01*
X670129Y268262D01*
X668260Y268634D01*
X657760D01*
X655891Y268262D01*
X654307Y267203D01*
X653350Y265772D01*
X653163Y265744D01*
X650810Y267056D01*
Y272845D01*
X650885Y273220D01*
Y281750D01*
X651101D01*
X652764Y282196D01*
X654256Y283057D01*
X655473Y284274D01*
X656334Y285766D01*
X656780Y287429D01*
Y289151D01*
X656741Y289297D01*
X667347Y299903D01*
X668189Y301163D01*
X668485Y302650D01*
Y310960D01*
X671640D01*
Y324040D01*
X657560D01*
Y310960D01*
X660715D01*
Y304259D01*
X651247Y294791D01*
X651101Y294830D01*
X649379D01*
X647716Y294384D01*
X646224Y293523D01*
X645007Y292306D01*
X644146Y290814D01*
X643700Y289151D01*
Y287429D01*
X643788Y287101D01*
X643411Y286537D01*
X643115Y285050D01*
Y277030D01*
X637512D01*
X636650Y279570D01*
X636658Y279576D01*
X637866Y281151D01*
X638626Y282985D01*
X638885Y284953D01*
Y307340D01*
X638626Y309308D01*
X637866Y311143D01*
X636658Y312718D01*
X635083Y313926D01*
X633248Y314686D01*
X631280Y314945D01*
X629312Y314686D01*
X627477Y313926D01*
X625902Y312718D01*
X624694Y311143D01*
X623934Y309308D01*
X623675Y307340D01*
Y284953D01*
X623794Y284052D01*
X621388Y282866D01*
X619473Y284780D01*
X619760Y285850D01*
Y288190D01*
X619154Y290451D01*
X617984Y292479D01*
X616329Y294134D01*
X614301Y295304D01*
X612040Y295910D01*
X609700D01*
X607439Y295304D01*
X605411Y294134D01*
X603756Y292479D01*
X602586Y290451D01*
X601980Y288190D01*
Y285850D01*
X602586Y283589D01*
X603756Y281561D01*
X605411Y279906D01*
X607439Y278736D01*
X609700Y278130D01*
X612040D01*
X614301Y278736D01*
X614447Y278820D01*
X621730Y271536D01*
Y266600D01*
X619486Y265883D01*
X619190Y265872D01*
X617599Y267464D01*
X615571Y268634D01*
X613310Y269240D01*
X610970D01*
X608709Y268634D01*
X606681Y267464D01*
X605026Y265809D01*
X603856Y263781D01*
X603250Y261520D01*
Y259180D01*
X603856Y256919D01*
X605026Y254891D01*
X606681Y253236D01*
X607237Y252916D01*
X607499Y252333D01*
X607575Y249848D01*
X604313Y246587D01*
X603471Y245327D01*
X603175Y243840D01*
Y232060D01*
X603471Y230573D01*
X604313Y229313D01*
X606792Y226835D01*
X605232Y224802D01*
X603782Y225639D01*
X600084Y226630D01*
X598173D01*
X596815Y227988D01*
Y276480D01*
X597496D01*
Y297560D01*
X597496D01*
X598378Y299735D01*
X603459D01*
Y298769D01*
X618101D01*
Y315911D01*
X603459D01*
Y314945D01*
X596815D01*
Y331430D01*
X596690Y332383D01*
X596831Y333457D01*
X596594Y335259D01*
X595899Y336938D01*
X594792Y338379D01*
X593351Y339485D01*
X591672Y340181D01*
X589871Y340418D01*
X588549D01*
X586748Y340181D01*
X585069Y339485D01*
X583628Y338379D01*
X582522Y336938D01*
X581826Y335259D01*
X581589Y333457D01*
X581730Y332383D01*
X581605Y331430D01*
Y314945D01*
X572770D01*
X572741Y314941D01*
X572670Y314960D01*
X570330D01*
X568069Y314354D01*
X566041Y313184D01*
X564799Y311941D01*
X563245Y311703D01*
X561691Y311941D01*
X560449Y313184D01*
X558421Y314354D01*
X556160Y314960D01*
X553820D01*
X551559Y314354D01*
X549531Y313184D01*
X547876Y311529D01*
X546706Y309501D01*
X546100Y307240D01*
Y304900D01*
X546706Y302639D01*
X547876Y300611D01*
X549531Y298956D01*
X551559Y297786D01*
X553820Y297180D01*
X556160D01*
X558421Y297786D01*
X560449Y298956D01*
X561691Y300199D01*
X562350Y300300D01*
X563813Y299136D01*
X564442Y297695D01*
X564416Y297560D01*
X564417Y297560D01*
Y276480D01*
X581605D01*
Y224838D01*
X581864Y222870D01*
X582624Y221036D01*
X583832Y219461D01*
X584976Y218317D01*
X584621Y217702D01*
X583630Y214004D01*
Y210176D01*
X584621Y206478D01*
X586535Y203162D01*
X589242Y200455D01*
X592558Y198541D01*
X596256Y197550D01*
X600084D01*
X603782Y198541D01*
X606060Y199856D01*
X607620Y197824D01*
X600813Y191017D01*
X600080Y189920D01*
X595290D01*
Y177189D01*
X594287Y176939D01*
X592370Y179078D01*
X592469Y179449D01*
Y181789D01*
X591864Y184050D01*
X590693Y186078D01*
X589038Y187733D01*
X587011Y188903D01*
X584750Y189509D01*
X582409D01*
X580148Y188903D01*
X579234Y188375D01*
X578247Y189362D01*
X576987Y190204D01*
X576069Y190387D01*
X574230Y192080D01*
Y194000D01*
X574230D01*
Y205080D01*
X566644D01*
X558458Y213265D01*
X558194Y214251D01*
X557024Y216279D01*
X555369Y217934D01*
X553341Y219104D01*
X551080Y219710D01*
X548740D01*
X546479Y219104D01*
X544451Y217934D01*
X542796Y216279D01*
X541888Y214705D01*
X539170D01*
Y220670D01*
X539170Y221290D01*
Y223210D01*
X539170Y223830D01*
Y235290D01*
X531298D01*
X529538Y237397D01*
X529590Y237590D01*
Y239930D01*
X528984Y242191D01*
X527814Y244219D01*
X526159Y245874D01*
X524131Y247044D01*
X521870Y247650D01*
X519530D01*
X517269Y247044D01*
X515241Y245874D01*
X513586Y244219D01*
X512416Y242191D01*
X511810Y239930D01*
Y237590D01*
X512416Y235329D01*
X513586Y233301D01*
X515241Y231646D01*
X517269Y230476D01*
X519530Y229870D01*
X521870D01*
X522669Y230084D01*
X525078Y228262D01*
X525090Y228235D01*
Y223830D01*
X525090Y223210D01*
Y221290D01*
X525090Y220670D01*
Y215242D01*
X522743Y214270D01*
X500455Y236559D01*
Y280858D01*
X501421Y281330D01*
X502995Y281542D01*
X503892Y280372D01*
X505467Y279164D01*
X507302Y278404D01*
X509270Y278145D01*
X510001D01*
X511969Y278404D01*
X513803Y279164D01*
X514130Y279415D01*
X538480D01*
X540448Y279674D01*
X542282Y280434D01*
X543858Y281642D01*
X545066Y283218D01*
X545826Y285052D01*
X546085Y287020D01*
X545826Y288988D01*
X545066Y290823D01*
X543858Y292398D01*
X542282Y293606D01*
X540448Y294366D01*
X538480Y294625D01*
X511271D01*
X509302Y294366D01*
X507468Y293606D01*
X506218Y292647D01*
X505467Y292336D01*
X503892Y291128D01*
X502995Y289958D01*
X501421Y290170D01*
X500455Y290642D01*
Y310811D01*
X510879Y321235D01*
X544830D01*
X546317Y321531D01*
X547577Y322373D01*
X569506Y344302D01*
X652214D01*
X653681Y341762D01*
X653386Y341251D01*
X652780Y338990D01*
Y336650D01*
X653386Y334389D01*
X654556Y332361D01*
X656211Y330706D01*
X658239Y329536D01*
X660500Y328930D01*
X662840D01*
X665101Y329536D01*
X667129Y330706D01*
X668371Y331949D01*
X669925Y332187D01*
X671479Y331949D01*
X672721Y330706D01*
X674749Y329536D01*
X677010Y328930D01*
X679350D01*
X681611Y329536D01*
X683639Y330706D01*
X685294Y332361D01*
X686464Y334389D01*
X687070Y336650D01*
Y338990D01*
X686464Y341251D01*
X685294Y343279D01*
X683639Y344934D01*
X681611Y346104D01*
X681596Y348738D01*
X681706Y348929D01*
X682256Y349348D01*
X684151Y349856D01*
X684530Y350074D01*
X687070Y348608D01*
Y348080D01*
X687676Y345819D01*
X688846Y343791D01*
X690501Y342136D01*
X692529Y340966D01*
X694790Y340360D01*
X697130D01*
X699391Y340966D01*
X701419Y342136D01*
X703074Y343791D01*
X704244Y345819D01*
X704850Y348080D01*
Y350420D01*
X704244Y352681D01*
X703074Y354709D01*
X702296Y355486D01*
X702406Y358211D01*
X702617Y358605D01*
X702689Y358646D01*
X704344Y360301D01*
X705514Y362329D01*
X705992Y364110D01*
X708531Y363776D01*
Y355391D01*
X707709D01*
Y340749D01*
X724851D01*
Y342841D01*
X732314D01*
Y340659D01*
X749455D01*
Y355301D01*
X732314D01*
Y353119D01*
X724851D01*
Y355391D01*
X721724D01*
Y359529D01*
X723905Y360945D01*
X724264Y360990D01*
X725620Y360721D01*
X727196Y361034D01*
X728120Y361652D01*
X729044Y361034D01*
X730620Y360721D01*
X732196Y361034D01*
X733120Y361652D01*
X734044Y361034D01*
X735620Y360721D01*
X737196Y361034D01*
X738120Y361652D01*
X739044Y361034D01*
X740620Y360721D01*
X742196Y361034D01*
X743120Y361652D01*
X744044Y361034D01*
X745620Y360721D01*
X747196Y361034D01*
X748120Y361652D01*
X749044Y361034D01*
X750620Y360721D01*
X752196Y361034D01*
X753120Y361652D01*
X754044Y361034D01*
X755620Y360721D01*
X756832Y359726D01*
Y356560D01*
X754040D01*
Y344480D01*
X766120D01*
Y356560D01*
X764601D01*
Y359884D01*
X765620Y360721D01*
X767196Y361034D01*
X768120Y361652D01*
X769044Y361034D01*
X770620Y360721D01*
X772196Y361034D01*
X773120Y361652D01*
X774044Y361034D01*
X775620Y360721D01*
X777196Y361034D01*
X778120Y361652D01*
X779044Y361034D01*
X780620Y360721D01*
X782196Y361034D01*
X783120Y361652D01*
X784044Y361034D01*
X785620Y360721D01*
X787196Y361034D01*
X788120Y361652D01*
X789044Y361034D01*
X790620Y360721D01*
X792196Y361034D01*
X793120Y361652D01*
X794044Y361034D01*
X795620Y360721D01*
X797196Y361034D01*
X798120Y361652D01*
X799044Y361034D01*
X800620Y360721D01*
X802196Y361034D01*
X803120Y361652D01*
X804044Y361034D01*
X805620Y360721D01*
X806984Y360992D01*
X807031Y360758D01*
X807873Y359498D01*
X819598Y347773D01*
X820858Y346931D01*
X822345Y346635D01*
X826770D01*
X828257Y346931D01*
X829517Y347773D01*
X830359Y349033D01*
X830655Y350520D01*
X830359Y352007D01*
X829517Y353267D01*
X828257Y354109D01*
X826770Y354405D01*
X823954D01*
X820128Y358230D01*
X820350Y359353D01*
X821006Y360591D01*
X823538Y361372D01*
X824044Y361034D01*
X825620Y360721D01*
X827196Y361034D01*
X828120Y361652D01*
X829044Y361034D01*
X830620Y360721D01*
X832196Y361034D01*
X833120Y361652D01*
X834044Y361034D01*
X835620Y360721D01*
X837196Y361034D01*
X838120Y361652D01*
X839044Y361034D01*
X840620Y360721D01*
X842196Y361034D01*
X843120Y361652D01*
X844044Y361034D01*
X845620Y360721D01*
X847196Y361034D01*
X848120Y361652D01*
X849044Y361034D01*
X850620Y360721D01*
X852196Y361034D01*
X853120Y361652D01*
X854044Y361034D01*
X855620Y360721D01*
X857175Y359444D01*
Y351790D01*
X857471Y350303D01*
X858313Y349043D01*
X859573Y348201D01*
X861060Y347905D01*
X862547Y348201D01*
X863807Y349043D01*
X864649Y350303D01*
X864945Y351790D01*
Y360167D01*
X865620Y360721D01*
X867196Y361034D01*
X868120Y361652D01*
X869044Y361034D01*
X870620Y360721D01*
X872196Y361034D01*
X873120Y361652D01*
X874044Y361034D01*
X875620Y360721D01*
X877196Y361034D01*
X878120Y361652D01*
X879044Y361034D01*
X880620Y360721D01*
X882196Y361034D01*
X883120Y361652D01*
X884044Y361034D01*
X885620Y360721D01*
X887196Y361034D01*
X888120Y361652D01*
X889044Y361034D01*
X890620Y360721D01*
X892196Y361034D01*
X893120Y361652D01*
X894044Y361034D01*
X895620Y360721D01*
X897196Y361034D01*
X898120Y361652D01*
X899044Y361034D01*
X900620Y360721D01*
X902196Y361034D01*
X903120Y361652D01*
X904044Y361034D01*
X905620Y360721D01*
X907196Y361034D01*
X908120Y361652D01*
X909044Y361034D01*
X910620Y360721D01*
X912196Y361034D01*
X913120Y361652D01*
X914044Y361034D01*
X915620Y360721D01*
X917196Y361034D01*
X918120Y361652D01*
X919044Y361034D01*
X920620Y360721D01*
X922196Y361034D01*
X923120Y361652D01*
X924044Y361034D01*
X925620Y360721D01*
X927196Y361034D01*
X928120Y361652D01*
X929044Y361034D01*
X930620Y360721D01*
X932196Y361034D01*
X933120Y361652D01*
X934044Y361034D01*
X935620Y360721D01*
X937196Y361034D01*
X938120Y361652D01*
X939044Y361034D01*
X940620Y360721D01*
X942196Y361034D01*
X943533Y361927D01*
X946630Y362317D01*
X947180Y361766D01*
X947180Y361766D01*
X949013Y360541D01*
X951175Y360111D01*
X951175Y360112D01*
X976065D01*
X976065Y360111D01*
X976453Y359846D01*
X976839Y357676D01*
Y340679D01*
X991481D01*
Y357821D01*
X989299D01*
Y365284D01*
X991481D01*
Y382425D01*
X989299D01*
Y389888D01*
X991481D01*
Y407030D01*
X978726D01*
X977674Y409570D01*
X985727Y417623D01*
X986569Y418883D01*
X986865Y420370D01*
Y422508D01*
X988439Y423416D01*
X990094Y425071D01*
X991264Y427099D01*
X991362Y427463D01*
X994113Y427918D01*
X994203Y427783D01*
D02*
G37*
G36*
X1158122Y265657D02*
Y227031D01*
X1116398Y185308D01*
X1018472D01*
X1010728Y193051D01*
Y197586D01*
X1013498Y199185D01*
X1016205Y201892D01*
X1018119Y205208D01*
X1019110Y208906D01*
Y212734D01*
X1018119Y216432D01*
X1016205Y219748D01*
X1013498Y222455D01*
X1010182Y224369D01*
X1006484Y225360D01*
X1002656D01*
X998958Y224369D01*
X996680Y223054D01*
X995120Y225086D01*
X1029039Y259005D01*
X1125220D01*
X1126707Y259301D01*
X1127967Y260143D01*
X1134042Y266218D01*
X1135886Y264539D01*
X1134716Y262511D01*
X1134110Y260250D01*
Y257910D01*
X1134716Y255649D01*
X1135886Y253621D01*
X1137541Y251966D01*
X1139569Y250796D01*
X1141830Y250190D01*
X1144170D01*
X1146431Y250796D01*
X1148459Y251966D01*
X1150114Y253621D01*
X1151284Y255649D01*
X1151890Y257910D01*
Y260250D01*
X1151284Y262511D01*
X1152781Y264766D01*
X1154809Y265936D01*
X1155582Y266709D01*
X1158122Y265657D01*
D02*
G37*
G36*
X968246Y319661D02*
X968738Y319169D01*
X967686Y316629D01*
X957849D01*
Y313299D01*
X952034D01*
X950547Y313003D01*
X949287Y312161D01*
X944673Y307547D01*
X943831Y306287D01*
X943535Y304800D01*
Y243309D01*
X942030Y241820D01*
X939490Y242408D01*
Y243560D01*
X927410D01*
Y240755D01*
X922360D01*
Y242260D01*
X910280D01*
Y242260D01*
X908360D01*
Y242260D01*
X901774D01*
X901107Y242927D01*
X899847Y243769D01*
X898360Y244065D01*
X890432D01*
Y245720D01*
X877352D01*
Y245319D01*
X874104D01*
Y246352D01*
X845366D01*
Y231651D01*
X848301D01*
Y226704D01*
X847440D01*
X845211Y226410D01*
X844055Y225931D01*
X841515Y227250D01*
Y249842D01*
X843872Y250865D01*
X844551Y250411D01*
X846038Y250115D01*
X875730D01*
Y250020D01*
X904810D01*
Y250474D01*
X904997Y250628D01*
X915302D01*
X916241Y250000D01*
X918110Y249629D01*
X928610D01*
X930479Y250000D01*
X932063Y251059D01*
X933122Y252644D01*
X933494Y254513D01*
X933122Y256381D01*
X932199Y257763D01*
X933122Y259144D01*
X933494Y261013D01*
X933122Y262882D01*
X932199Y264263D01*
X933122Y265644D01*
X933494Y267512D01*
X933122Y269382D01*
X932199Y270763D01*
X933122Y272144D01*
X933494Y274013D01*
X933122Y275882D01*
X932063Y277466D01*
X931740Y277682D01*
Y281259D01*
X931801Y281276D01*
X933829Y282446D01*
X935484Y284101D01*
X936654Y286129D01*
X937260Y288390D01*
Y290730D01*
X936654Y292991D01*
X935484Y295019D01*
X933829Y296674D01*
X931801Y297844D01*
X929540Y298450D01*
X927200D01*
X924939Y297844D01*
X924635Y297669D01*
X922095Y299135D01*
Y305731D01*
X937599Y321235D01*
X967337D01*
X968246Y319661D01*
D02*
G37*
G36*
X805840Y253810D02*
X807495D01*
Y251610D01*
X807791Y250123D01*
X808633Y248863D01*
X815133Y242363D01*
X816393Y241521D01*
X817880Y241225D01*
X827965D01*
Y208619D01*
X804841Y185495D01*
X719132D01*
X718451Y188035D01*
X719199Y188466D01*
X720854Y190121D01*
X722024Y192149D01*
X722630Y194410D01*
Y196750D01*
X722024Y199011D01*
X721253Y200348D01*
X721537Y200632D01*
X722379Y201893D01*
X722675Y203379D01*
Y204254D01*
X724471Y206050D01*
X726750Y206050D01*
X727370Y206050D01*
X738830D01*
Y208280D01*
X741490D01*
Y206700D01*
X754570D01*
X756548Y205345D01*
Y204739D01*
X785287D01*
Y208205D01*
X788628D01*
X789091Y206478D01*
X791005Y203162D01*
X793712Y200455D01*
X797028Y198541D01*
X800726Y197550D01*
X804554D01*
X808252Y198541D01*
X811568Y200455D01*
X814275Y203162D01*
X816189Y206478D01*
X817180Y210176D01*
Y214004D01*
X816189Y217702D01*
X814275Y221018D01*
X811568Y223725D01*
X808252Y225639D01*
X804554Y226630D01*
X800726D01*
X797028Y225639D01*
X793712Y223725D01*
X791005Y221018D01*
X789091Y217702D01*
X788628Y215975D01*
X785287D01*
Y219441D01*
X756548D01*
Y219135D01*
X754570Y217780D01*
X741490D01*
Y216050D01*
X738830D01*
Y218130D01*
X727370D01*
X726750Y218130D01*
X724830D01*
X722675Y220034D01*
Y222549D01*
X727725Y227599D01*
X750969D01*
Y231145D01*
X752057Y231361D01*
X753317Y232203D01*
X759667Y238553D01*
X760509Y239813D01*
X760805Y241300D01*
Y254580D01*
X763610D01*
Y257735D01*
X805840D01*
Y253810D01*
D02*
G37*
G36*
X992336Y218710D02*
X991021Y216432D01*
X990030Y212734D01*
Y208906D01*
X991021Y205208D01*
X992935Y201892D01*
X995642Y199185D01*
X998412Y197586D01*
Y190500D01*
X998880Y188143D01*
X1000215Y186145D01*
X1011566Y174795D01*
X1013564Y173460D01*
X1015921Y172991D01*
X1118949D01*
X1121306Y173460D01*
X1123304Y174795D01*
X1136629Y188120D01*
X1138782Y186681D01*
X1138134Y185116D01*
X1137460Y181728D01*
Y178272D01*
X1138134Y174884D01*
X1139456Y171692D01*
X1141376Y168819D01*
X1142555Y167640D01*
X1141503Y165100D01*
X938452D01*
X937480Y167447D01*
X990304Y220270D01*
X992336Y218710D01*
D02*
G37*
%LPC*%
G36*
X674202Y594820D02*
X671998D01*
X669962Y593977D01*
X668403Y592418D01*
X667560Y590382D01*
Y588178D01*
X668403Y586142D01*
X669962Y584583D01*
X671998Y583740D01*
X674202D01*
X676238Y584583D01*
X677797Y586142D01*
X678640Y588178D01*
Y590382D01*
X677797Y592418D01*
X676238Y593977D01*
X674202Y594820D01*
D02*
G37*
G36*
X610770Y579120D02*
X608430D01*
X606169Y578514D01*
X604141Y577344D01*
X602486Y575689D01*
X601316Y573661D01*
X600710Y571400D01*
Y569060D01*
X601316Y566799D01*
X602486Y564771D01*
X604141Y563116D01*
X606169Y561946D01*
X608430Y561340D01*
X610770D01*
X613031Y561946D01*
X615059Y563116D01*
X616714Y564771D01*
X617884Y566799D01*
X618490Y569060D01*
Y571400D01*
X617884Y573661D01*
X616714Y575689D01*
X615059Y577344D01*
X613031Y578514D01*
X610770Y579120D01*
D02*
G37*
G36*
X603150Y543560D02*
X600810D01*
X598549Y542954D01*
X596521Y541784D01*
X594866Y540129D01*
X593696Y538101D01*
X593090Y535840D01*
Y533500D01*
X593696Y531239D01*
X594866Y529211D01*
X596521Y527556D01*
X598095Y526647D01*
Y516022D01*
X596521Y515114D01*
X594866Y513459D01*
X593696Y511431D01*
X593090Y509170D01*
Y506830D01*
X593696Y504569D01*
X594866Y502541D01*
X596521Y500886D01*
X598549Y499716D01*
X600810Y499110D01*
X603150D01*
X605411Y499716D01*
X607439Y500886D01*
X609094Y502541D01*
X610264Y504569D01*
X610870Y506830D01*
Y509170D01*
X610264Y511431D01*
X609094Y513459D01*
X607439Y515114D01*
X605865Y516022D01*
Y526647D01*
X607439Y527556D01*
X609094Y529211D01*
X610264Y531239D01*
X610870Y533500D01*
Y535840D01*
X610264Y538101D01*
X609094Y540129D01*
X607439Y541784D01*
X605411Y542954D01*
X603150Y543560D01*
D02*
G37*
G36*
X654670Y517457D02*
X653183Y517161D01*
X651923Y516319D01*
X651081Y515059D01*
X650785Y513573D01*
Y494030D01*
X651081Y492543D01*
X651923Y491283D01*
X653183Y490441D01*
X654670Y490145D01*
X656157Y490441D01*
X657417Y491283D01*
X658259Y492543D01*
X658555Y494030D01*
Y513573D01*
X658259Y515059D01*
X657417Y516319D01*
X656157Y517161D01*
X654670Y517457D01*
D02*
G37*
G36*
X546000Y455930D02*
X543660D01*
X541399Y455324D01*
X539371Y454154D01*
X537716Y452499D01*
X536546Y450471D01*
X535940Y448210D01*
Y445870D01*
X536546Y443609D01*
X537716Y441581D01*
X539371Y439926D01*
X540480Y439286D01*
X540755Y439128D01*
X539922Y436675D01*
X539586Y436719D01*
X538480Y436865D01*
X510540D01*
X508572Y436606D01*
X506738Y435846D01*
X505162Y434638D01*
X503954Y433063D01*
X503194Y431228D01*
X502935Y429260D01*
X503194Y427292D01*
X503954Y425457D01*
X505162Y423882D01*
X506738Y422674D01*
X508572Y421914D01*
X510540Y421655D01*
X538480D01*
X540448Y421914D01*
X542282Y422674D01*
X543858Y423882D01*
X545066Y425457D01*
X545826Y427292D01*
X546085Y429260D01*
X545826Y431228D01*
X545066Y433063D01*
X543858Y434638D01*
X542282Y435846D01*
X541987Y435969D01*
X542805Y438379D01*
X543152Y438286D01*
X543660Y438150D01*
X546000D01*
X548261Y438756D01*
X550289Y439926D01*
X551944Y441581D01*
X553114Y443609D01*
X553720Y445870D01*
Y448210D01*
X553114Y450471D01*
X551944Y452499D01*
X550289Y454154D01*
X548261Y455324D01*
X546000Y455930D01*
D02*
G37*
G36*
X604520Y393685D02*
X598721D01*
X596753Y393426D01*
X594918Y392666D01*
X593343Y391458D01*
X584493Y382608D01*
X583285Y381032D01*
X582525Y379198D01*
X582266Y377230D01*
X582525Y375262D01*
X583285Y373428D01*
X584493Y371852D01*
X586068Y370644D01*
X587902Y369884D01*
X589871Y369625D01*
X591839Y369884D01*
X593673Y370644D01*
X595248Y371852D01*
X601871Y378475D01*
X604520D01*
X606488Y378734D01*
X608322Y379494D01*
X609898Y380702D01*
X611106Y382277D01*
X611866Y384112D01*
X612125Y386080D01*
X611866Y388048D01*
X611106Y389883D01*
X609898Y391458D01*
X608322Y392666D01*
X606488Y393426D01*
X604520Y393685D01*
D02*
G37*
G36*
X774080Y354405D02*
X772593Y354109D01*
X771333Y353267D01*
X770491Y352007D01*
X770195Y350520D01*
X770491Y349033D01*
X770505Y349012D01*
Y335590D01*
X770801Y334103D01*
X771643Y332843D01*
X771953Y332533D01*
X773213Y331691D01*
X774700Y331395D01*
X776187Y331691D01*
X777447Y332533D01*
X778289Y333793D01*
X778585Y335280D01*
X778289Y336767D01*
X778275Y336788D01*
Y350210D01*
X777979Y351697D01*
X777137Y352957D01*
X776827Y353267D01*
X775567Y354109D01*
X774080Y354405D01*
D02*
G37*
G36*
X1004622Y403560D02*
X1002655Y403168D01*
X1000988Y402055D01*
X999874Y400387D01*
X999483Y398421D01*
Y373893D01*
X999491Y373854D01*
X999483Y373816D01*
Y349288D01*
X999874Y347322D01*
X1000988Y345654D01*
X1001937Y345020D01*
Y326408D01*
X1002233Y324921D01*
X1003075Y323661D01*
X1004335Y322819D01*
X1005822Y322523D01*
X1007309Y322819D01*
X1008569Y323661D01*
X1009411Y324921D01*
X1009707Y326408D01*
Y348088D01*
X1009614Y348553D01*
X1009761Y349288D01*
Y373816D01*
X1009753Y373854D01*
X1009761Y373893D01*
Y398421D01*
X1009369Y400387D01*
X1008255Y402055D01*
X1006588Y403168D01*
X1004622Y403560D01*
D02*
G37*
G36*
X740795Y332709D02*
X716280D01*
X714314Y332318D01*
X712646Y331204D01*
X711532Y329537D01*
X711141Y327570D01*
X711532Y325603D01*
X712646Y323936D01*
X714314Y322822D01*
X716280Y322431D01*
X740432D01*
X740884Y322341D01*
X758370D01*
X760337Y322732D01*
X762004Y323846D01*
X763118Y325513D01*
X763509Y327480D01*
X763118Y329446D01*
X762004Y331114D01*
X760337Y332228D01*
X758370Y332619D01*
X741247D01*
X740795Y332709D01*
D02*
G37*
G36*
X892710Y334010D02*
X890370D01*
X888109Y333404D01*
X886081Y332234D01*
X884426Y330579D01*
X883256Y328551D01*
X882650Y326290D01*
Y323950D01*
X883256Y321689D01*
X884426Y319661D01*
X886081Y318006D01*
X888109Y316836D01*
X890370Y316230D01*
X892710D01*
X894971Y316836D01*
X896999Y318006D01*
X898654Y319661D01*
X899824Y321689D01*
X900430Y323950D01*
Y326290D01*
X899824Y328551D01*
X898654Y330579D01*
X896999Y332234D01*
X894971Y333404D01*
X892710Y334010D01*
D02*
G37*
G36*
X1061370Y225434D02*
X1049370D01*
X1047141Y225140D01*
X1045063Y224280D01*
X1043279Y222911D01*
X1041910Y221127D01*
X1041050Y219049D01*
X1040756Y216820D01*
Y204820D01*
X1041050Y202591D01*
X1041910Y200513D01*
X1043279Y198729D01*
X1045063Y197360D01*
X1047141Y196500D01*
X1049370Y196206D01*
X1061370D01*
X1063599Y196500D01*
X1065677Y197360D01*
X1067461Y198729D01*
X1068830Y200513D01*
X1069690Y202591D01*
X1069984Y204820D01*
Y216820D01*
X1069690Y219049D01*
X1068830Y221127D01*
X1067461Y222911D01*
X1065677Y224280D01*
X1063599Y225140D01*
X1061370Y225434D01*
D02*
G37*
%LPD*%
D11*
X1146810Y715010D02*
Y731520D01*
X1131480Y699680D02*
X1146810Y715010D01*
X1131480Y680720D02*
Y699680D01*
X1078230Y662940D02*
X1084580Y669290D01*
Y708660D01*
X1076000Y660710D02*
X1078230Y662940D01*
X1076000Y655630D02*
Y660710D01*
X1073150Y652780D02*
X1076000Y655630D01*
X1051560Y652780D02*
X1073150D01*
X1046300Y647520D02*
X1051560Y652780D01*
X1046300Y633730D02*
Y647520D01*
X927855Y274918D02*
Y289045D01*
X928370Y289560D01*
X645160Y570230D02*
X670560Y544830D01*
X645160Y570230D02*
Y627380D01*
X670560Y544830D02*
X682989D01*
X873760Y201930D02*
X883892Y212062D01*
Y227180D01*
X663516Y264125D02*
X676945D01*
X681371Y259699D01*
X703580Y237490D02*
Y244180D01*
X703510Y244250D02*
X703580Y244180D01*
X681371Y246986D02*
Y259699D01*
X957580Y243840D02*
X958625Y244885D01*
Y253607D01*
X959530Y254513D01*
X963860D01*
X673239Y348187D02*
X680720Y355668D01*
Y358140D01*
X837630Y254491D02*
X839470Y256331D01*
Y259080D01*
X840958D02*
X846038Y254000D01*
X879540D01*
X850250Y277510D02*
X896380D01*
X840740Y272430D02*
X901050D01*
X861710Y267350D02*
X891942D01*
X843280Y284480D02*
X850250Y277510D01*
X904519Y285649D02*
X905721D01*
X857250Y262890D02*
X861710Y267350D01*
X947420Y194310D02*
X1023620Y270510D01*
X930910Y166370D02*
X1027430Y262890D01*
X1023620Y270510D02*
X1092200D01*
X909320Y171450D02*
X1017270Y279400D01*
X904240Y184150D02*
X916940Y196850D01*
X947420Y241300D02*
Y304800D01*
X933420Y237490D02*
X943610D01*
X947420Y241300D01*
X773768Y282872D02*
Y292100D01*
Y282872D02*
X782320Y274320D01*
X1125220Y262890D02*
X1151000Y288670D01*
X1027430Y262890D02*
X1125220D01*
X1116730Y298450D02*
X1120140Y301860D01*
Y313690D01*
X567897Y348187D02*
X673239D01*
X690712Y252929D02*
X691531Y252111D01*
X682537Y233784D02*
X691531Y242778D01*
X690712Y262262D02*
X692200Y263750D01*
X691531Y242778D02*
Y252111D01*
X692200Y263750D02*
X708230D01*
X673100Y224790D02*
X682094Y233784D01*
X690712Y252929D02*
Y262262D01*
X682094Y233784D02*
X682537D01*
X774390Y335590D02*
X774700Y335280D01*
X774390Y335590D02*
Y350210D01*
X774080Y350520D02*
X774390Y350210D01*
X694273Y305571D02*
X697830D01*
X861060Y351790D02*
Y374650D01*
X810620Y362245D02*
X822345Y350520D01*
X826770D01*
X810620Y362245D02*
Y372340D01*
X896380Y277510D02*
X904519Y285649D01*
X826190Y275660D02*
Y281360D01*
X824850Y274320D02*
X826190Y275660D01*
Y281360D02*
X829310Y284480D01*
X843280D01*
X725560Y275590D02*
X726060D01*
X742570Y292100D02*
X759460D01*
X726060Y275590D02*
X742570Y292100D01*
X717250Y275590D02*
X725560D01*
X571500Y306070D02*
X572770Y307340D01*
X939800Y416560D02*
X943580Y420340D01*
X958620D01*
X971510Y495340D02*
X980440Y486410D01*
X958620Y495340D02*
X971510D01*
X1118870Y641350D02*
X1125060Y635160D01*
X1118870Y641350D02*
Y717580D01*
X1132810Y731520D01*
X1106170Y610870D02*
X1107440Y612140D01*
X1079500Y633730D02*
X1094740Y618490D01*
X1066800Y633730D02*
X1079500D01*
X1094740Y604520D02*
Y618490D01*
X837630Y254491D02*
Y257240D01*
X1151980Y680720D02*
Y681970D01*
X1156970Y686960D01*
Y738268D01*
X1129428Y765810D02*
X1156970Y738268D01*
X1107042Y765810D02*
X1129428D01*
X1069268Y728036D02*
X1107042Y765810D01*
X1069268Y722159D02*
Y728036D01*
X1058164Y711056D02*
X1069268Y722159D01*
X1058164Y681840D02*
Y711056D01*
Y681840D02*
X1064230Y675774D01*
Y662940D02*
Y675774D01*
X1065530Y736600D02*
X1101090Y772160D01*
X897890Y736600D02*
X1065530D01*
X1101090Y772160D02*
Y829310D01*
X1151980Y679470D02*
Y680720D01*
X1139190Y666680D02*
X1151980Y679470D01*
X1139190Y638412D02*
Y666680D01*
Y638412D02*
X1140877Y636725D01*
Y612140D02*
Y636725D01*
X601980Y508000D02*
Y534670D01*
X979163Y458208D02*
Y460398D01*
X982980Y464214D02*
Y466964D01*
X979163Y460398D02*
X982980Y464214D01*
X976295Y455340D02*
X979163Y458208D01*
X680720Y554990D02*
X687261D01*
X697315Y565045D01*
X705684D01*
X705980Y565340D01*
X707620D01*
X589210Y377230D02*
X589871D01*
X1045210Y565150D02*
X1046480D01*
X1012190Y598170D02*
X1045210Y565150D01*
X838850Y274320D02*
X840740Y272430D01*
X905202Y285832D02*
X911942D01*
X918210Y292100D02*
Y307340D01*
X905120Y285750D02*
X905202Y285832D01*
X911942D02*
X918210Y292100D01*
X926950Y274013D02*
X927855Y274918D01*
X923360Y274013D02*
X926950D01*
X935990Y325120D02*
X975360D01*
X918210Y307340D02*
X935990Y325120D01*
X1004660Y349250D02*
X1005822Y348088D01*
Y326408D02*
Y348088D01*
X1027430Y302610D02*
X1037173Y292867D01*
Y292100D02*
Y292867D01*
X1017270Y279400D02*
Y410210D01*
X1101270Y300410D02*
X1103230Y298450D01*
X1070300Y300410D02*
X1101270D01*
X1062990Y292100D02*
Y293100D01*
X1070300Y300410D01*
X916320Y215746D02*
Y236220D01*
X913934Y213360D02*
X916320Y215746D01*
X837630Y257240D02*
X839470Y259080D01*
X837630Y206440D02*
Y254491D01*
X836930Y205740D02*
X837630Y206440D01*
X836930Y202727D02*
Y205740D01*
Y202727D02*
X849157Y190500D01*
X876766D01*
X896085Y209819D01*
X896221D01*
X899626Y213225D01*
Y213360D01*
X668670Y513573D02*
X675798Y520700D01*
X692150D01*
X697510Y515340D01*
X707620D01*
X694810Y463141D02*
X697610Y460340D01*
X707620D01*
X694810Y463141D02*
Y463430D01*
X688058Y455340D02*
X707620D01*
X694690Y463550D02*
X694810Y463430D01*
X694690Y463550D02*
Y466090D01*
X689610Y471170D02*
X694690Y466090D01*
X689610Y471170D02*
Y480060D01*
X675640Y494030D02*
X689610Y480060D01*
X668670Y494030D02*
X675640D01*
X687479Y540340D02*
X707620D01*
X685602Y510340D02*
X686000D01*
X682989Y544830D02*
X687479Y540340D01*
X654670Y494030D02*
Y513573D01*
X745620Y678310D02*
X764540Y697230D01*
X781050D01*
X745620Y623340D02*
Y678310D01*
X1047750Y715010D02*
X1050290Y717550D01*
X1047750Y683260D02*
Y715010D01*
X1019810Y655320D02*
X1047750Y683260D01*
X1019810Y615950D02*
Y655320D01*
Y615950D02*
X1079500Y556260D01*
Y544432D02*
Y556260D01*
X1073548Y538480D02*
X1079500Y544432D01*
X1060014Y538480D02*
X1073548D01*
X1050072Y528538D02*
X1060014Y538480D01*
X1050072Y528538D02*
X1050410Y528200D01*
Y490802D02*
Y528200D01*
X1047750Y488142D02*
X1050410Y490802D01*
X1047750Y485140D02*
Y488142D01*
X1042670Y480060D02*
X1047750Y485140D01*
X1018540Y480060D02*
X1042670D01*
X1009650Y471170D02*
X1018540Y480060D01*
X976630Y725170D02*
X1012190Y689610D01*
Y598170D02*
Y689610D01*
X908050Y725170D02*
X976630D01*
X958620Y455340D02*
X976295D01*
X981362Y446644D02*
X982584D01*
X973891Y439173D02*
X981362Y446644D01*
X973891Y435809D02*
Y439173D01*
X972820Y434738D02*
X973891Y435809D01*
X972820Y426322D02*
Y434738D01*
Y426322D02*
X975360Y423782D01*
Y420370D02*
Y423782D01*
X970330Y415340D02*
X975360Y420370D01*
X958620Y415340D02*
X970330D01*
X824230Y184150D02*
X904240D01*
X976271Y267138D02*
X981493Y272360D01*
Y278563D01*
X964235Y267138D02*
X976271D01*
X983600Y280670D02*
Y294410D01*
X588779Y171450D02*
X909320D01*
X981493Y278563D02*
X983600Y280670D01*
X989131Y265629D02*
X990869D01*
X997600Y272360D02*
Y280670D01*
X990869Y265629D02*
X997600Y272360D01*
X839470Y259080D02*
X840958D01*
X879540Y254000D02*
X883020Y257480D01*
X834916Y251777D02*
X837630Y254491D01*
X834916Y248176D02*
Y251777D01*
X831850Y245110D02*
X834916Y248176D01*
X891942Y267350D02*
X895350Y263942D01*
Y259980D02*
Y263942D01*
Y259980D02*
X897520Y257810D01*
X883020Y257480D02*
Y257810D01*
X1092200Y270510D02*
X1094740Y273050D01*
Y284480D01*
X1087120Y292100D02*
X1094740Y284480D01*
X1076990Y292100D02*
X1087120D01*
X1050638D02*
X1062990D01*
X990201Y308610D02*
X996950D01*
Y430530D02*
X1017270Y410210D01*
X1151000Y288670D02*
Y435610D01*
X590883Y166370D02*
X930910D01*
X650240Y288290D02*
X664600Y302650D01*
X647000Y273220D02*
Y285050D01*
X664600Y302650D02*
Y317500D01*
X647000Y285050D02*
X650240Y288290D01*
X520700Y238760D02*
X521620D01*
X531130Y229250D01*
X532130D01*
X635170Y260180D02*
X644600Y250750D01*
X612310Y260180D02*
X635170D01*
X612140Y260350D02*
X612310Y260180D01*
X537560Y210820D02*
X549910D01*
X533130Y215250D02*
X537560Y210820D01*
X532130Y215250D02*
X533130D01*
X575500Y186615D02*
X581496Y180619D01*
X567915Y186615D02*
X575500D01*
X576276Y166370D02*
X577267Y165379D01*
X589892D01*
X590883Y166370D01*
X555581D02*
X576276D01*
X578380Y171450D02*
X579371Y170459D01*
X587788D02*
X588779Y171450D01*
X581496Y180619D02*
X583579D01*
X579371Y170459D02*
X587788D01*
X560070Y171450D02*
X578380D01*
X627380Y182880D02*
X628650Y181610D01*
X615330Y182880D02*
X627380D01*
X603560Y188270D02*
X613980Y198690D01*
X601330Y180310D02*
X603560Y182541D01*
Y188270D01*
X613980Y198690D02*
Y225140D01*
X496570Y234950D02*
X560070Y171450D01*
X631560Y193940D02*
X643890Y181610D01*
X806450D01*
X490220Y231731D02*
Y351072D01*
Y231731D02*
X555581Y166370D01*
X496570Y234950D02*
Y312420D01*
X660050Y191770D02*
X672333Y204053D01*
X806450Y181610D02*
X831850Y207010D01*
X652780Y191770D02*
X660050D01*
X672333Y204053D02*
X673100D01*
X549910Y210820D02*
X555410D01*
X566690Y199540D01*
X567690D01*
X610870Y287020D02*
X611740D01*
X629520Y269240D01*
X607060Y232060D02*
X613980Y225140D01*
X607060Y232060D02*
Y243840D01*
X611040Y247820D01*
X637888D01*
X640120Y245588D01*
Y245200D02*
Y245588D01*
Y245200D02*
X646060Y239260D01*
Y238760D02*
Y239260D01*
X643020Y269240D02*
X647000Y273220D01*
X689610Y317500D02*
X694690Y312420D01*
X681600Y317500D02*
X689610D01*
X713740Y198329D02*
X718790Y203379D01*
Y212090D01*
X713740Y195580D02*
Y198329D01*
X708230Y263750D02*
X709135Y264655D01*
X673100Y217587D02*
Y224790D01*
X743754Y234950D02*
X750570D01*
X756920Y241300D01*
Y260970D01*
X757570Y261620D01*
X729446Y234815D02*
Y234950D01*
X718790Y224158D02*
X729446Y234815D01*
X718790Y212090D02*
Y224158D01*
X810110Y261620D02*
X811380Y260350D01*
X757570Y261620D02*
X810110D01*
X743570D02*
Y274580D01*
X742560Y275590D02*
X743570Y274580D01*
X703510Y257250D02*
X723130D01*
X727500Y261620D01*
X743570D01*
X709135Y264655D02*
Y267475D01*
X717250Y275590D01*
X643020Y269240D02*
X645160Y267100D01*
Y261620D02*
Y267100D01*
Y261620D02*
X649530Y257250D01*
X663010D01*
X961390Y374650D02*
X975360Y388620D01*
Y402590D01*
X644600Y250750D02*
X663010D01*
X694273Y305571D02*
X694690Y305988D01*
X690715Y305571D02*
X694273D01*
X698060Y304841D02*
Y305340D01*
X697830Y305571D02*
X698060Y305340D01*
X690486Y304841D02*
Y305340D01*
X690715Y305571D01*
X972610Y405340D02*
X975360Y402590D01*
X958620Y405340D02*
X972610D01*
X920620Y372340D02*
Y393830D01*
X677850Y288290D02*
Y288790D01*
X678620Y289560D01*
X687070D01*
X700270D02*
X700670D01*
X701940Y288290D01*
X709490D01*
X700670Y289560D02*
X707060Y295950D01*
Y304800D01*
X686670Y289560D02*
X687070D01*
X681486Y294744D02*
X686670Y289560D01*
X681486Y294744D02*
Y304800D01*
X658272Y240248D02*
Y243345D01*
X659177Y244250D01*
X663010D01*
X646060Y238760D02*
X656784D01*
X658272Y240248D01*
X831850Y207010D02*
Y245110D01*
X631560Y193940D02*
Y238760D01*
X686018Y214320D02*
X688620D01*
X684530Y215808D02*
X686018Y214320D01*
X684530Y215808D02*
Y224790D01*
X688620Y214320D02*
X690850Y212090D01*
X689610Y229870D02*
X713740D01*
X718820Y234950D01*
Y246380D01*
X714450Y250750D02*
X718820Y246380D01*
X703510Y250750D02*
X714450D01*
X684530Y224790D02*
X689610Y229870D01*
X732790Y212090D02*
X732865Y212165D01*
X747955D01*
X748030Y212240D01*
X704850Y212090D02*
X718790D01*
X901050Y272430D02*
X912467Y261013D01*
X838850Y274010D02*
X839005Y273855D01*
X828230Y263080D02*
X838850Y273700D01*
X748030Y212240D02*
X763614D01*
X763764Y212090D01*
X898360Y240180D02*
X902320Y236220D01*
X885190Y240180D02*
X898360D01*
X778072Y212090D02*
X802640D01*
X496570Y312420D02*
X509270Y325120D01*
X544830D01*
X567897Y348187D01*
X490220Y351072D02*
X560070Y420922D01*
Y435058D01*
X605072Y480060D02*
X648970D01*
X560070Y435058D02*
X605072Y480060D01*
X838850Y274010D02*
Y274320D01*
X912467Y261013D02*
X923360D01*
X817880Y245110D02*
X831850D01*
X811380Y251610D02*
X817880Y245110D01*
X811380Y251610D02*
Y260350D01*
X850900Y285750D02*
X888120D01*
X847670Y288980D02*
X850900Y285750D01*
X824380Y260350D02*
Y261350D01*
X826110Y263080D01*
X828230D01*
X904997Y254513D02*
X923360D01*
X897890Y261620D02*
X904997Y254513D01*
X982980Y420370D02*
Y430530D01*
X972950Y410340D02*
X982980Y420370D01*
X958620Y410340D02*
X972950D01*
X891540Y300990D02*
X908050D01*
X888120Y297570D02*
X891540Y300990D01*
X888120Y285750D02*
Y297570D01*
X873070Y309380D02*
Y310380D01*
X872340Y309150D02*
X872840D01*
X873070Y310380D02*
X873300Y310610D01*
X873542D01*
X864760Y305545D02*
X866555Y307340D01*
X873542Y310610D02*
X875030Y312098D01*
X866555Y307340D02*
X870530D01*
X872840Y309150D02*
X873070Y309380D01*
X870530Y307340D02*
X872340Y309150D01*
X843379Y310559D02*
X846599Y307340D01*
X851395D01*
X886460Y287410D02*
X888120Y285750D01*
X886460Y287410D02*
Y292100D01*
X881778Y296782D02*
X886460Y292100D01*
X873760Y296782D02*
X881778D01*
X847670Y288980D02*
Y296782D01*
X864760D02*
Y305545D01*
X856670Y296782D02*
Y304426D01*
X853755Y307340D02*
X856670Y304426D01*
X852955Y307340D02*
X853755D01*
X908350Y275202D02*
Y283020D01*
Y275202D02*
X915600Y267953D01*
X917140D02*
X917580Y267512D01*
X923360D01*
X905721Y285649D02*
X908350Y283020D01*
X915600Y267953D02*
X917140D01*
X947420Y304800D02*
X952034Y309414D01*
X932800Y236870D02*
X933420Y237490D01*
X952034Y309414D02*
X965200D01*
X1000370Y294640D02*
Y305190D01*
X983452Y308610D02*
X990201D01*
X996950D02*
X1000370Y305190D01*
X965200Y295106D02*
X968605Y298511D01*
X973353D01*
X983452Y308610D01*
X963860Y267512D02*
X964235Y267138D01*
X983370Y294640D02*
X983600Y294410D01*
X963860Y274013D02*
X964295D01*
X965200Y274918D01*
Y295106D01*
X938530Y228600D02*
X957580D01*
X975170Y246190D02*
Y257023D01*
X957580Y228600D02*
X975170Y246190D01*
X963860Y261013D02*
X964235Y260637D01*
X971555D01*
X975170Y257023D01*
X933450Y223520D02*
X938530Y228600D01*
X916320Y236220D02*
X916970Y236870D01*
X932800D01*
X890270Y635000D02*
Y647700D01*
X890620Y623340D02*
Y635350D01*
X890270Y635000D02*
X890620Y635350D01*
X878840Y659130D02*
X890270Y647700D01*
X885620Y623340D02*
Y644730D01*
X882650Y647700D02*
X885620Y644730D01*
X858520Y647700D02*
X882650D01*
X855980Y642620D02*
X878840D01*
X880620Y623340D02*
Y640840D01*
X878840Y642620D02*
X880620Y640840D01*
X759460Y680720D02*
X787400D01*
X866140Y759460D02*
X1059180D01*
X787400Y680720D02*
X866140Y759460D01*
X806450Y674370D02*
X831850D01*
X858520Y647700D01*
X951230Y708660D02*
X1000760Y659130D01*
X895350Y708660D02*
X951230D01*
X1000760Y588010D02*
Y659130D01*
Y588010D02*
X1026160Y562610D01*
X817880Y659130D02*
X839470D01*
X838200Y643890D02*
X844550D01*
X850620Y637820D01*
Y623340D02*
Y637820D01*
X839470Y659130D02*
X855980Y642620D01*
X861060Y660400D02*
Y699770D01*
X897890Y736600D01*
X963250Y535260D02*
X969690D01*
X977900Y527050D01*
X988060D01*
X998220Y537210D01*
Y547370D01*
X992770Y552820D02*
X998220Y547370D01*
X992770Y552820D02*
Y554070D01*
X988040Y558800D02*
X992770Y554070D01*
X986790Y558800D02*
X988040D01*
X996950Y522270D02*
X1023320Y548640D01*
X996950Y430530D02*
Y522270D01*
X984300Y580340D02*
X990600Y574040D01*
X958620Y580340D02*
X984300D01*
X878840Y683677D02*
Y694690D01*
Y659130D02*
Y670143D01*
X853440Y239564D02*
X853906Y240030D01*
X868214D02*
X868364Y240180D01*
X664210Y383540D02*
Y405130D01*
X694340Y435260D01*
X707540D01*
X707620Y435340D01*
X1023320Y548640D02*
X1069340D01*
X1090930Y551180D02*
Y568543D01*
X1089660Y549910D02*
X1090930Y551180D01*
X1117030Y542990D02*
Y570098D01*
X1116330Y542290D02*
X1117030Y542990D01*
X1143000Y556610D02*
Y568368D01*
X1142168Y568960D02*
X1154430D01*
X1138337Y551180D02*
Y551947D01*
X1141270Y570098D02*
X1143000Y568368D01*
X1138337Y551947D02*
X1143000Y556610D01*
X1141030Y570098D02*
X1142168Y568960D01*
X688690Y440340D02*
X703580D01*
X648970Y480060D02*
X688690Y440340D01*
X687224Y456174D02*
X688058Y455340D01*
X1140553Y579120D02*
X1141030Y579597D01*
X1143218Y600710D02*
X1145540D01*
X1141730Y599222D02*
X1143218Y600710D01*
X1141730Y589797D02*
Y599222D01*
X1141030Y589098D02*
X1141730Y589797D01*
X1092418Y603250D02*
X1093470D01*
X1090930Y601762D02*
X1092418Y603250D01*
X1090930Y582077D02*
Y601762D01*
X1141030Y570098D02*
X1141270D01*
X1154430Y568960D02*
X1156970Y571500D01*
Y607060D01*
X1151890Y612140D02*
X1156970Y607060D01*
X1140877Y612140D02*
X1151890D01*
X1106170Y588010D02*
X1108050Y589890D01*
X609510Y307340D02*
X610780Y306070D01*
X1101090Y829310D02*
X1106170Y834390D01*
X1059180Y759460D02*
X1079500Y779780D01*
X538480Y429260D02*
X539750Y427990D01*
X981120Y540340D02*
X981710Y539750D01*
X958620Y540340D02*
X981120D01*
X800620Y645680D02*
X801370Y646430D01*
X800620Y623340D02*
Y645680D01*
X686000Y510340D02*
X707620D01*
X684160Y395340D02*
X707620D01*
X687070Y584200D02*
Y590550D01*
Y584200D02*
X695930Y575340D01*
X707620D01*
X735620Y623340D02*
Y644870D01*
X982940Y500340D02*
X982980Y500380D01*
X958620Y500340D02*
X982940D01*
X760716Y351156D02*
Y372340D01*
X760080Y350520D02*
X760716Y351156D01*
X689269Y570677D02*
X689821Y570125D01*
X703580D01*
X689048Y570677D02*
X689269D01*
X688990Y570619D02*
X689048Y570677D01*
X688990Y570230D02*
Y570619D01*
X739540Y603650D02*
X740620Y604730D01*
Y623340D01*
X730030Y515400D02*
X730250Y515620D01*
X729970Y515340D02*
X730030Y515400D01*
X707620Y580340D02*
X730030D01*
X805180Y394970D02*
X805620Y394530D01*
Y372340D02*
Y394530D01*
X854710Y394970D02*
X855620Y394060D01*
Y372340D02*
Y394060D01*
X934720Y430530D02*
X958430D01*
X958620Y430340D01*
X934720Y495300D02*
X934760Y495340D01*
X958620D01*
X934720Y535940D02*
X935320Y535340D01*
X958620D01*
X920620Y604650D02*
X922020Y603250D01*
X920620Y604650D02*
Y623340D01*
X855620Y603610D02*
X855980Y603250D01*
X855620Y603610D02*
Y623340D01*
X805180Y604520D02*
X805620Y604960D01*
Y623340D01*
X805180Y604520D02*
X806450Y603250D01*
X755620Y389225D02*
X755650Y389255D01*
X755620Y372340D02*
Y389225D01*
X755650Y389255D02*
Y394970D01*
X707620Y515340D02*
X729970D01*
X728380Y460340D02*
X730250Y458470D01*
X707620Y460340D02*
X728380D01*
X707620Y400340D02*
X726730D01*
X665480Y363220D02*
X665698Y363002D01*
X660400Y435610D02*
X661670Y434340D01*
X718820Y916940D02*
Y944209D01*
X715565Y950370D02*
X716405Y949530D01*
Y946623D02*
X718820Y944209D01*
X712659Y950370D02*
X715565D01*
X716405Y946623D02*
Y949530D01*
X718820Y916940D02*
X740410Y895350D01*
X645160Y627380D02*
X662940Y645160D01*
X708660D01*
X725170Y661670D01*
Y701040D01*
X742950Y718820D01*
X769620D01*
X800100Y749300D01*
Y859790D01*
X764540Y895350D02*
X800100Y859790D01*
X740410Y895350D02*
X764540D01*
X1079500Y779780D02*
Y972820D01*
X750570Y640080D02*
X750620Y640030D01*
Y623340D02*
Y640030D01*
X750570Y640080D02*
Y671830D01*
X759460Y680720D01*
X1061720Y990600D02*
X1079500Y972820D01*
X942340Y990600D02*
X1061720D01*
X935990Y984250D02*
X942340Y990600D01*
X935990Y976630D02*
Y984250D01*
Y976630D02*
X938530Y974090D01*
X950853D01*
X701044Y999790D02*
X701144Y999890D01*
X1178230Y1237480D02*
G03*
X1158230Y1257480I-20000J0D01*
G01*
Y157480D02*
G03*
X1178230Y177480I0J20000D01*
G01*
X498230Y1257480D02*
G03*
X478230Y1237480I0J-20000D01*
G01*
Y177480D02*
G03*
X498230Y157480I20000J0D01*
G01*
X1158230D01*
X498230Y1257480D02*
X1158230D01*
X1178230Y177480D02*
Y1237480D01*
X478230Y177480D02*
Y1237480D01*
D14*
X736600Y312420D02*
X745569Y303451D01*
X781152D02*
X784883Y299720D01*
X745569Y303451D02*
X781152D01*
X784883Y299720D02*
X803910D01*
X665698Y363002D02*
X681156Y378460D01*
X927793Y399656D02*
Y423603D01*
X923106Y394970D02*
X927793Y399656D01*
Y423603D02*
X934720Y430530D01*
X919480Y394970D02*
X923106D01*
X715128Y347980D02*
Y378460D01*
X1107440Y612140D02*
X1127343D01*
X1129030Y579120D02*
X1140553D01*
X855980Y603250D02*
X922020D01*
X1108050Y589890D02*
X1117030D01*
X589210Y356357D02*
X600197D01*
X607060Y363220D01*
X665480D01*
X681156Y378460D02*
X715128D01*
X730250Y393582D02*
Y400910D01*
X854710Y394970D02*
X919480D01*
X805180D02*
X854710D01*
X934720Y430530D02*
Y495300D01*
Y535940D01*
Y590550D01*
X806450Y603250D02*
X855980D01*
X922020D02*
X934720Y590550D01*
X755650Y394970D02*
X805180D01*
D17*
X567690Y199540D02*
D03*
Y186540D02*
D03*
X748030Y212240D02*
D03*
Y199240D02*
D03*
X883892Y240180D02*
D03*
Y227180D02*
D03*
D28*
X673100Y218857D02*
D03*
Y205323D02*
D03*
X878840Y683677D02*
D03*
Y670143D02*
D03*
X1090930Y568543D02*
D03*
Y582077D02*
D03*
D32*
X1131480Y680720D02*
D03*
X1151980D02*
D03*
X1046300Y633730D02*
D03*
X1066800D02*
D03*
X610780Y307340D02*
D03*
X631280D02*
D03*
X1126580Y499110D02*
D03*
X1106080D02*
D03*
X1004660Y349250D02*
D03*
X984160D02*
D03*
X1004660Y373854D02*
D03*
X984160D02*
D03*
X1004660Y398459D02*
D03*
X984160D02*
D03*
D33*
X532130Y215250D02*
D03*
Y229250D02*
D03*
D41*
X1037104Y292100D02*
D03*
X1050638D02*
D03*
X1140877Y612140D02*
D03*
X1127343D02*
D03*
X1126073Y551180D02*
D03*
X1139607D02*
D03*
D42*
X615330Y182880D02*
D03*
X601330D02*
D03*
X1076990Y292100D02*
D03*
X1062990D02*
D03*
X757570Y261620D02*
D03*
X743570D02*
D03*
X838850Y274320D02*
D03*
X824850D02*
D03*
X997600Y280670D02*
D03*
X983600D02*
D03*
D63*
X1068070Y840740D02*
D03*
X1029970D02*
D03*
X953770D02*
D03*
X915670D02*
D03*
Y688340D02*
D03*
X953770D02*
D03*
X991870D02*
D03*
X1029970D02*
D03*
X1068070D02*
D03*
X741680Y691000D02*
D03*
X703580D02*
D03*
X665480D02*
D03*
X627380D02*
D03*
X589280D02*
D03*
Y843400D02*
D03*
X627380D02*
D03*
X703580D02*
D03*
X741680D02*
D03*
D67*
X1139870Y1078230D02*
D03*
X524170D02*
D03*
D68*
X864870D02*
D03*
X799170D02*
D03*
D74*
X1061720Y326850D02*
Y327750D01*
X1104900Y323850D02*
Y324581D01*
X1061720Y326850D02*
X1064720Y323850D01*
X1104900D01*
X1106170Y325851D02*
Y345131D01*
X1104900Y324581D02*
X1106170Y325851D01*
X582750Y427990D02*
X619760D01*
X589210Y224838D02*
Y307340D01*
X572770D02*
X589210D01*
X1106170Y461010D02*
Y588010D01*
Y598170D01*
X1073360Y426720D02*
X1131360D01*
X589871Y377230D02*
X598721Y386080D01*
X509270Y285750D02*
X510001D01*
X537957Y287020D02*
X538480D01*
X510001Y285750D02*
X511271Y287020D01*
X537957D01*
X1106170Y598170D02*
Y610870D01*
X1132840Y480060D02*
Y492038D01*
Y439420D02*
Y480060D01*
X1106170Y610870D02*
Y736600D01*
X1029970Y403720D02*
X1049020D01*
X617220Y469169D02*
Y469900D01*
X615950Y448400D02*
Y467899D01*
X617220Y469169D01*
X607060Y363220D02*
X631190Y387350D01*
Y416560D01*
X619760Y427990D02*
X631190Y416560D01*
X510540Y429260D02*
X538480D01*
X598721Y386080D02*
X604520D01*
X631280Y284953D02*
Y307340D01*
X589210D02*
X609510D01*
X589210D02*
Y331430D01*
Y224838D02*
X598170Y215878D01*
Y212090D02*
Y215878D01*
X1126799Y498079D02*
Y498891D01*
X1126580Y499110D02*
X1126799Y498891D01*
Y498079D02*
X1132840Y492038D01*
X1131360Y426720D02*
X1132323Y427683D01*
X1068070Y365850D02*
X1099820D01*
X1049090Y403790D02*
X1073290D01*
X1073360Y403720D01*
X1049020Y403860D02*
X1049090Y403790D01*
X963930Y924560D02*
X978005D01*
X958850D02*
X963930D01*
X1106170Y736600D02*
X1125220Y755650D01*
X1094880Y449720D02*
X1106170Y461010D01*
X1073360Y449720D02*
X1094880D01*
X869950Y786130D02*
X1041400D01*
X853440Y802640D02*
X869950Y786130D01*
X853440Y802640D02*
Y932180D01*
X958850Y939800D02*
X961390Y942340D01*
X861060Y939800D02*
X958850D01*
X853440Y932180D02*
X861060Y939800D01*
X951230Y916940D02*
X958850Y924560D01*
X951230Y904240D02*
Y916940D01*
X836060Y986390D02*
X844550Y977900D01*
X701144Y986390D02*
X836060D01*
X706520Y999890D02*
X718820Y1012190D01*
X701144Y999890D02*
X706520D01*
X1025770Y976630D02*
X1037590D01*
X687070Y999790D02*
X701044D01*
D75*
X922020Y392430D02*
X927570Y386880D01*
X920620Y393830D02*
X922020Y392430D01*
X919480Y394970D02*
X920620Y393830D01*
X947660Y369275D02*
Y382756D01*
Y369275D02*
X951175Y365760D01*
X976066D01*
X943536Y386880D02*
X947660Y382756D01*
X927570Y386880D02*
X943536D01*
X981129Y370824D02*
X982379D01*
X976066Y365760D02*
X981129Y370824D01*
X982379D02*
X984160Y372605D01*
X730030Y515400D02*
Y580340D01*
X730250Y577850D02*
Y594360D01*
X739540Y603650D01*
X730250Y458470D02*
Y515620D01*
Y403860D02*
Y458470D01*
D76*
X694690Y312420D02*
X702598D01*
X703058Y312881D01*
X711062D01*
X711522Y312420D01*
X736600D01*
X803910Y299720D02*
X815340Y311150D01*
X1015921Y179149D02*
X1118949D01*
X1004570Y190500D02*
X1015921Y179149D01*
X1004570Y190500D02*
Y210820D01*
X815340Y311150D02*
Y328930D01*
X1160780Y944880D02*
X1164280Y941380D01*
Y224480D02*
Y941380D01*
X1118949Y179149D02*
X1164280Y224480D01*
X715128Y378460D02*
X730250Y393582D01*
X746760Y403860D02*
X755650Y394970D01*
X730250Y403860D02*
X746760D01*
D77*
X641210Y933310D02*
X651370D01*
D78*
X1028790Y497840D02*
Y534580D01*
D79*
X740884Y327480D02*
X758370D01*
X694690Y305988D02*
Y312420D01*
X716280Y347980D02*
X736600D01*
X984160Y372605D02*
Y373854D01*
Y349250D02*
Y372605D01*
X853440Y212090D02*
Y239564D01*
X868364Y240180D02*
X885190D01*
X984160Y373854D02*
Y398459D01*
X1004622Y349288D02*
Y373816D01*
Y373893D02*
Y398421D01*
X716280Y327570D02*
X740795D01*
D81*
X598170Y212090D02*
D03*
X802640D02*
D03*
X857250Y1199190D02*
D03*
X1004570Y210820D02*
D03*
D82*
X648970Y212090D02*
D03*
X853440D02*
D03*
X806450Y1199190D02*
D03*
X1055370Y210820D02*
D03*
D83*
X500000Y1235000D02*
D03*
X1155000D02*
D03*
Y180000D02*
D03*
X500000D02*
D03*
D84*
X510540Y429260D02*
D03*
X928370Y289560D02*
D03*
X763270Y646430D02*
D03*
X1055370Y241300D02*
D03*
X566420Y410210D02*
D03*
X544830Y447040D02*
D03*
X554990Y306070D02*
D03*
X680720Y358140D02*
D03*
X839470Y259080D02*
D03*
X857250Y262890D02*
D03*
X947420Y195580D02*
D03*
X916940Y196850D02*
D03*
X815340Y328930D02*
D03*
X779780Y275590D02*
D03*
X758370Y327480D02*
D03*
X727710Y297180D02*
D03*
X1149350Y273050D02*
D03*
X1143000Y259080D02*
D03*
X918210Y323850D02*
D03*
X891540Y325120D02*
D03*
X1104900Y323850D02*
D03*
X1120140Y313690D02*
D03*
X695960Y349250D02*
D03*
X697230Y365760D02*
D03*
X681371Y246986D02*
D03*
X793750Y317500D02*
D03*
X775970D02*
D03*
X774700Y335280D02*
D03*
X793750Y334010D02*
D03*
X571500Y306070D02*
D03*
X939800Y416560D02*
D03*
X1146810Y715010D02*
D03*
X1149350Y642620D02*
D03*
X1084580Y708660D02*
D03*
Y728980D02*
D03*
X982980Y466964D02*
D03*
X601980Y508000D02*
D03*
Y534670D02*
D03*
X680720Y554990D02*
D03*
X791210Y191770D02*
D03*
X1046480Y565150D02*
D03*
X975360Y325120D02*
D03*
X1005840Y326390D02*
D03*
X1027430Y303530D02*
D03*
X676910Y533400D02*
D03*
X781050Y697230D02*
D03*
X1049020Y716280D02*
D03*
X1018540Y458470D02*
D03*
X1009650Y471170D02*
D03*
X982584Y446644D02*
D03*
X982980Y430530D02*
D03*
X824230Y184150D02*
D03*
X989131Y265629D02*
D03*
X990201Y308610D02*
D03*
X520700Y238760D02*
D03*
X612140Y260350D02*
D03*
X583579Y180619D02*
D03*
X628650Y181610D02*
D03*
X650240Y190500D02*
D03*
X549910Y210820D02*
D03*
X610870Y287020D02*
D03*
X713740Y195580D02*
D03*
X1129030Y579120D02*
D03*
X962660Y377190D02*
D03*
X509270Y285750D02*
D03*
X908050Y300990D02*
D03*
X934720Y642620D02*
D03*
X806450Y674370D02*
D03*
X908050Y725170D02*
D03*
X895350Y708660D02*
D03*
X1026160Y562610D02*
D03*
X817880Y659130D02*
D03*
X838200Y643890D02*
D03*
X861060Y660400D02*
D03*
X678180Y337820D02*
D03*
X877570Y699770D02*
D03*
X664210Y383540D02*
D03*
X1069340Y548640D02*
D03*
X1089660Y549910D02*
D03*
X687224Y456174D02*
D03*
X1151000Y435610D02*
D03*
X1132840Y480060D02*
D03*
X609600Y570230D02*
D03*
X803910Y581660D02*
D03*
X1106170Y834390D02*
D03*
X961390Y650240D02*
D03*
X617220Y469900D02*
D03*
X660400Y435610D02*
D03*
X674370D02*
D03*
X604520Y386080D02*
D03*
X631280Y284953D02*
D03*
X736083Y1173997D02*
D03*
X826770Y350520D02*
D03*
X981710Y539750D02*
D03*
X801370Y646430D02*
D03*
X735620Y644870D02*
D03*
X686000Y510340D02*
D03*
X684160Y395340D02*
D03*
X687070Y590550D02*
D03*
X982940Y500340D02*
D03*
X861060Y351790D02*
D03*
X1028790Y534580D02*
D03*
X1049020Y403860D02*
D03*
X1032510D02*
D03*
X1125220Y755650D02*
D03*
X1041400Y786130D02*
D03*
X853440Y932180D02*
D03*
X844550Y977900D02*
D03*
X1146810Y854710D02*
D03*
X661670Y337820D02*
D03*
X951230Y904240D02*
D03*
X1035050Y976630D02*
D03*
X718820Y1012190D02*
D03*
X641210Y933310D02*
D03*
X539750Y801370D02*
D03*
X1132840Y812800D02*
D03*
X1035050Y930910D02*
D03*
X1021080D02*
D03*
X523222Y892828D02*
D03*
X635000Y979170D02*
D03*
X650240Y979310D02*
D03*
X925830Y1177290D02*
D03*
D85*
X662940Y574040D02*
D03*
X673100Y589280D02*
D03*
D86*
X957580Y243840D02*
D03*
X1032510Y447040D02*
D03*
X980440Y486410D02*
D03*
X1125060Y635160D02*
D03*
X873760Y201930D02*
D03*
X650240Y288290D02*
D03*
X1145540Y600710D02*
D03*
X1094740Y604520D02*
D03*
D87*
X1106170Y598170D02*
D03*
X703580Y237490D02*
D03*
X1116330Y542290D02*
D03*
D88*
X958850Y612140D02*
D03*
D90*
X1055370Y237490D02*
D03*
D91*
X674990Y570230D02*
D03*
X688990D02*
D03*
X1146810Y731520D02*
D03*
X1132810D02*
D03*
X1078230Y662940D02*
D03*
X1064230D02*
D03*
X654670Y494030D02*
D03*
X668670D02*
D03*
X654670Y513573D02*
D03*
X668670D02*
D03*
X718790Y212090D02*
D03*
X732790D02*
D03*
X690850D02*
D03*
X704850D02*
D03*
X916320Y236220D02*
D03*
X902320D02*
D03*
X774080Y350520D02*
D03*
X760080D02*
D03*
D92*
X940620Y623340D02*
D03*
X935620D02*
D03*
X930620D02*
D03*
X925620D02*
D03*
X920620D02*
D03*
X915620D02*
D03*
X910620D02*
D03*
X905620D02*
D03*
X900620D02*
D03*
X895620D02*
D03*
X890620D02*
D03*
X885620D02*
D03*
X880620D02*
D03*
X875620D02*
D03*
X870620D02*
D03*
X865620D02*
D03*
X860620D02*
D03*
X855620D02*
D03*
X850620D02*
D03*
X845620D02*
D03*
X840620D02*
D03*
X835620D02*
D03*
X830620D02*
D03*
X825620D02*
D03*
X820620D02*
D03*
X815620D02*
D03*
X810620D02*
D03*
X805620D02*
D03*
X800620D02*
D03*
X795620D02*
D03*
X790620D02*
D03*
X785620D02*
D03*
X780620D02*
D03*
X775620D02*
D03*
X770620D02*
D03*
X765620D02*
D03*
X760620D02*
D03*
X755620D02*
D03*
X750620D02*
D03*
X745620D02*
D03*
X740620D02*
D03*
X735620D02*
D03*
X730620D02*
D03*
X725620D02*
D03*
Y372340D02*
D03*
X730620D02*
D03*
X735620D02*
D03*
X740620D02*
D03*
X745620D02*
D03*
X750620D02*
D03*
X755620D02*
D03*
X760620D02*
D03*
X765620D02*
D03*
X770620D02*
D03*
X775620D02*
D03*
X780620D02*
D03*
X785620D02*
D03*
X790620D02*
D03*
X795620D02*
D03*
X800620D02*
D03*
X805620D02*
D03*
X810620D02*
D03*
X815620D02*
D03*
X820620D02*
D03*
X825620D02*
D03*
X830620D02*
D03*
X835620D02*
D03*
X840620D02*
D03*
X845620D02*
D03*
X850620D02*
D03*
X855620D02*
D03*
X860620D02*
D03*
X865620D02*
D03*
X870620D02*
D03*
X875620D02*
D03*
X880620D02*
D03*
X885620D02*
D03*
X890620D02*
D03*
X895620D02*
D03*
X900620D02*
D03*
X905620D02*
D03*
X910620D02*
D03*
X915620D02*
D03*
X920620D02*
D03*
X925620D02*
D03*
X930620D02*
D03*
X935620D02*
D03*
X940620D02*
D03*
D93*
X707620Y605340D02*
D03*
Y600340D02*
D03*
Y595340D02*
D03*
Y590340D02*
D03*
Y585340D02*
D03*
Y580340D02*
D03*
Y575340D02*
D03*
Y570340D02*
D03*
Y565340D02*
D03*
Y560340D02*
D03*
Y555340D02*
D03*
Y550340D02*
D03*
Y545340D02*
D03*
Y540340D02*
D03*
Y535340D02*
D03*
Y530340D02*
D03*
Y525340D02*
D03*
Y520340D02*
D03*
Y515340D02*
D03*
Y510340D02*
D03*
Y505340D02*
D03*
Y500340D02*
D03*
Y495340D02*
D03*
Y490340D02*
D03*
Y485340D02*
D03*
Y480340D02*
D03*
Y475340D02*
D03*
Y470340D02*
D03*
Y465340D02*
D03*
Y460340D02*
D03*
Y455340D02*
D03*
Y450340D02*
D03*
Y445340D02*
D03*
Y440340D02*
D03*
Y435340D02*
D03*
Y430340D02*
D03*
Y425340D02*
D03*
Y420340D02*
D03*
Y415340D02*
D03*
Y410340D02*
D03*
Y405340D02*
D03*
Y400340D02*
D03*
Y395340D02*
D03*
Y390340D02*
D03*
X958620D02*
D03*
Y395340D02*
D03*
Y400340D02*
D03*
Y405340D02*
D03*
Y410340D02*
D03*
Y415340D02*
D03*
Y420340D02*
D03*
Y425340D02*
D03*
Y430340D02*
D03*
Y435340D02*
D03*
Y440340D02*
D03*
Y445340D02*
D03*
Y450340D02*
D03*
Y455340D02*
D03*
Y460340D02*
D03*
Y465340D02*
D03*
Y470340D02*
D03*
Y475340D02*
D03*
Y480340D02*
D03*
Y485340D02*
D03*
Y490340D02*
D03*
Y495340D02*
D03*
Y500340D02*
D03*
Y505340D02*
D03*
Y510340D02*
D03*
Y515340D02*
D03*
Y520340D02*
D03*
Y525340D02*
D03*
Y530340D02*
D03*
Y535340D02*
D03*
Y540340D02*
D03*
Y545340D02*
D03*
Y550340D02*
D03*
Y555340D02*
D03*
Y560340D02*
D03*
Y565340D02*
D03*
Y570340D02*
D03*
Y575340D02*
D03*
Y580340D02*
D03*
Y585340D02*
D03*
Y590340D02*
D03*
Y595340D02*
D03*
Y600340D02*
D03*
Y605340D02*
D03*
D94*
X1075600Y500380D02*
D03*
X1032600D02*
D03*
X539750Y427990D02*
D03*
X582750D02*
D03*
X537957Y287020D02*
D03*
X580956D02*
D03*
D95*
X1133900Y427990D02*
D03*
D96*
X1075900Y450990D02*
D03*
Y427990D02*
D03*
Y404990D02*
D03*
D97*
X716280Y348070D02*
D03*
Y327570D02*
D03*
X615950Y427900D02*
D03*
Y448400D02*
D03*
X740884Y327480D02*
D03*
Y347980D02*
D03*
X1106293Y365850D02*
D03*
Y345350D02*
D03*
D98*
X773768Y292100D02*
D03*
X759460D02*
D03*
X913934Y213360D02*
D03*
X899626D02*
D03*
X729446Y234950D02*
D03*
X743754D02*
D03*
X763764Y212090D02*
D03*
X778072D02*
D03*
X866889Y239002D02*
D03*
X852581D02*
D03*
D99*
X1116730Y298450D02*
D03*
X1103230D02*
D03*
X643020Y269240D02*
D03*
X629520D02*
D03*
D100*
X1061720Y370750D02*
D03*
Y327750D02*
D03*
D101*
X897520Y257810D02*
D03*
X883020D02*
D03*
X646060Y238760D02*
D03*
X631560D02*
D03*
D102*
X664600Y317500D02*
D03*
X681600D02*
D03*
X725560Y275590D02*
D03*
X742560D02*
D03*
X905120Y285750D02*
D03*
X888120D02*
D03*
X1000370Y294640D02*
D03*
X983370D02*
D03*
X1008770Y976630D02*
D03*
X1025770D02*
D03*
X671050Y933398D02*
D03*
X654050D02*
D03*
D103*
X718490Y288290D02*
D03*
X709490D02*
D03*
X677850D02*
D03*
X668850D02*
D03*
X681486Y304841D02*
D03*
X690486D02*
D03*
X698060D02*
D03*
X707060D02*
D03*
X833700Y309880D02*
D03*
X842700D02*
D03*
X873070D02*
D03*
X882070D02*
D03*
X847670Y296782D02*
D03*
X856670D02*
D03*
X864760D02*
D03*
X873760D02*
D03*
D104*
X687070Y289560D02*
D03*
X700270D02*
D03*
X864595Y307340D02*
D03*
X851395D02*
D03*
D105*
X811380Y260350D02*
D03*
X824380D02*
D03*
D106*
X965200Y295106D02*
D03*
Y309414D02*
D03*
D107*
X933450Y223520D02*
D03*
Y237520D02*
D03*
D108*
X986790Y578800D02*
D03*
Y558800D02*
D03*
D109*
X663010Y244250D02*
D03*
Y250750D02*
D03*
Y257250D02*
D03*
Y263750D02*
D03*
X703510Y244250D02*
D03*
Y250750D02*
D03*
Y257250D02*
D03*
Y263750D02*
D03*
X923360Y254513D02*
D03*
Y261013D02*
D03*
Y267512D02*
D03*
Y274013D02*
D03*
X963860Y254513D02*
D03*
Y261013D02*
D03*
Y267512D02*
D03*
Y274013D02*
D03*
D110*
X1117030Y589098D02*
D03*
Y570098D02*
D03*
X1141030D02*
D03*
Y579597D02*
D03*
Y589098D02*
D03*
D111*
X523310Y356357D02*
D03*
D112*
X589210Y333457D02*
D03*
Y356357D02*
D03*
D113*
Y379258D02*
D03*
D114*
X963930Y937560D02*
D03*
Y924560D02*
D03*
X687070Y986790D02*
D03*
Y999790D02*
D03*
D115*
X978005Y924560D02*
D03*
Y938060D02*
D03*
X701144Y999890D02*
D03*
Y986390D02*
D03*
D116*
X712659Y969870D02*
D03*
X950853Y954590D02*
D03*
D117*
X712659Y963370D02*
D03*
Y956870D02*
D03*
Y950370D02*
D03*
X671641D02*
D03*
Y956870D02*
D03*
Y963370D02*
D03*
Y969870D02*
D03*
X950853Y961090D02*
D03*
Y967590D02*
D03*
Y974090D02*
D03*
X991870D02*
D03*
Y967590D02*
D03*
Y961090D02*
D03*
Y954590D02*
D03*
D118*
X692150Y960120D02*
D03*
X971361Y964340D02*
D03*
D119*
X726730Y400340D02*
X730250Y403860D01*
X861902Y966318D02*
Y981282D01*
X881380Y1000760D01*
X895350D01*
X712659Y956870D02*
X852454D01*
X861902Y966318D01*
X895350Y1000760D02*
X928520Y967590D01*
X950853D01*
X895350Y1000760D02*
X1104900D01*
D120*
X1160780Y944880D01*
M02*
