G04*
G04 #@! TF.GenerationSoftware,Altium Limited,Altium Designer,25.2.1 (25)*
G04*
G04 Layer_Color=128*
%FSLAX44Y44*%
%MOMM*%
G71*
G04*
G04 #@! TF.SameCoordinates,245930A5-F2C7-430A-BF85-77EB81D10B19*
G04*
G04*
G04 #@! TF.FilePolarity,Positive*
G04*
G01*
G75*
%ADD17R,0.8000X0.6000*%
%ADD28R,0.8121X0.6587*%
%ADD32R,0.9562X1.2062*%
%ADD33R,0.9000X0.7000*%
%ADD41R,0.6587X0.8121*%
%ADD42R,0.7000X0.9000*%
%ADD90R,2.5000X1.8000*%
%ADD91R,0.7000X0.7000*%
%ADD92O,0.3000X1.8000*%
%ADD93O,1.8000X0.3000*%
%ADD94R,2.8000X1.6000*%
%ADD95R,2.1500X3.2500*%
%ADD96R,2.1500X0.9500*%
%ADD97R,1.2062X0.9562*%
%ADD98R,0.9350X0.9621*%
%ADD99R,1.0500X1.0500*%
%ADD100R,1.6000X2.8000*%
%ADD101R,0.9500X1.0500*%
%ADD102R,0.9000X0.8000*%
%ADD103R,0.3000X0.4000*%
%ADD104R,0.4800X0.4000*%
%ADD105R,0.6000X0.8000*%
%ADD106R,0.9621X0.9350*%
%ADD107R,0.7000X0.7000*%
%ADD108R,1.4500X1.2000*%
%ADD109O,1.5000X0.4500*%
%ADD110R,0.9000X0.6000*%
G04:AMPARAMS|DCode=111|XSize=1.0043mm|YSize=3.1821mm|CornerRadius=0.4369mm|HoleSize=0mm|Usage=FLASHONLY|Rotation=180.000|XOffset=0mm|YOffset=0mm|HoleType=Round|Shape=RoundedRectangle|*
%AMROUNDEDRECTD111*
21,1,1.0043,2.3084,0,0,180.0*
21,1,0.1306,3.1821,0,0,180.0*
1,1,0.8737,-0.0653,1.1542*
1,1,0.8737,0.0653,1.1542*
1,1,0.8737,0.0653,-1.1542*
1,1,0.8737,-0.0653,-1.1542*
%
%ADD111ROUNDEDRECTD111*%
G04:AMPARAMS|DCode=112|XSize=1.0043mm|YSize=0.8721mm|CornerRadius=0.4361mm|HoleSize=0mm|Usage=FLASHONLY|Rotation=180.000|XOffset=0mm|YOffset=0mm|HoleType=Round|Shape=RoundedRectangle|*
%AMROUNDEDRECTD112*
21,1,1.0043,0.0000,0,0,180.0*
21,1,0.1322,0.8721,0,0,180.0*
1,1,0.8721,-0.0661,0.0000*
1,1,0.8721,0.0661,0.0000*
1,1,0.8721,0.0661,0.0000*
1,1,0.8721,-0.0661,0.0000*
%
%ADD112ROUNDEDRECTD112*%
%ADD113R,1.0043X0.8721*%
%ADD114R,0.9000X0.8500*%
%ADD115R,1.0000X0.9000*%
%ADD116R,1.2565X0.4358*%
G04:AMPARAMS|DCode=117|XSize=1.2565mm|YSize=0.4358mm|CornerRadius=0.2179mm|HoleSize=0mm|Usage=FLASHONLY|Rotation=180.000|XOffset=0mm|YOffset=0mm|HoleType=Round|Shape=RoundedRectangle|*
%AMROUNDEDRECTD117*
21,1,1.2565,0.0000,0,0,180.0*
21,1,0.8207,0.4358,0,0,180.0*
1,1,0.4358,-0.4103,0.0000*
1,1,0.4358,0.4103,0.0000*
1,1,0.4358,0.4103,0.0000*
1,1,0.4358,-0.4103,0.0000*
%
%ADD117ROUNDEDRECTD117*%
%ADD134R,1.0891X1.5191*%
D17*
X567690Y199540D02*
D03*
Y186540D02*
D03*
X748030Y212240D02*
D03*
Y199240D02*
D03*
X883892Y240180D02*
D03*
Y227180D02*
D03*
D28*
X673100Y218857D02*
D03*
Y205323D02*
D03*
X878840Y683677D02*
D03*
Y670143D02*
D03*
X1090930Y568543D02*
D03*
Y582077D02*
D03*
D32*
X1131480Y680720D02*
D03*
X1151980D02*
D03*
X1046300Y633730D02*
D03*
X1066800D02*
D03*
X610780Y307340D02*
D03*
X631280D02*
D03*
X1126580Y499110D02*
D03*
X1106080D02*
D03*
X1004660Y349250D02*
D03*
X984160D02*
D03*
X1004660Y373854D02*
D03*
X984160D02*
D03*
X1004660Y398459D02*
D03*
X984160D02*
D03*
D33*
X532130Y215250D02*
D03*
Y229250D02*
D03*
D41*
X1037104Y292100D02*
D03*
X1050638D02*
D03*
X1140877Y612140D02*
D03*
X1127343D02*
D03*
X1126073Y551180D02*
D03*
X1139607D02*
D03*
D42*
X615330Y182880D02*
D03*
X601330D02*
D03*
X1076990Y292100D02*
D03*
X1062990D02*
D03*
X757570Y261620D02*
D03*
X743570D02*
D03*
X838850Y274320D02*
D03*
X824850D02*
D03*
X997600Y280670D02*
D03*
X983600D02*
D03*
D90*
X1055370Y237490D02*
D03*
D91*
X674990Y570230D02*
D03*
X688990D02*
D03*
X1146810Y731520D02*
D03*
X1132810D02*
D03*
X1078230Y662940D02*
D03*
X1064230D02*
D03*
X654670Y494030D02*
D03*
X668670D02*
D03*
X654670Y513573D02*
D03*
X668670D02*
D03*
X718790Y212090D02*
D03*
X732790D02*
D03*
X690850D02*
D03*
X704850D02*
D03*
X916320Y236220D02*
D03*
X902320D02*
D03*
X774080Y350520D02*
D03*
X760080D02*
D03*
D92*
X940620Y623340D02*
D03*
X935620D02*
D03*
X930620D02*
D03*
X925620D02*
D03*
X920620D02*
D03*
X915620D02*
D03*
X910620D02*
D03*
X905620D02*
D03*
X900620D02*
D03*
X895620D02*
D03*
X890620D02*
D03*
X885620D02*
D03*
X880620D02*
D03*
X875620D02*
D03*
X870620D02*
D03*
X865620D02*
D03*
X860620D02*
D03*
X855620D02*
D03*
X850620D02*
D03*
X845620D02*
D03*
X840620D02*
D03*
X835620D02*
D03*
X830620D02*
D03*
X825620D02*
D03*
X820620D02*
D03*
X815620D02*
D03*
X810620D02*
D03*
X805620D02*
D03*
X800620D02*
D03*
X795620D02*
D03*
X790620D02*
D03*
X785620D02*
D03*
X780620D02*
D03*
X775620D02*
D03*
X770620D02*
D03*
X765620D02*
D03*
X760620D02*
D03*
X755620D02*
D03*
X750620D02*
D03*
X745620D02*
D03*
X740620D02*
D03*
X735620D02*
D03*
X730620D02*
D03*
X725620D02*
D03*
Y372340D02*
D03*
X730620D02*
D03*
X735620D02*
D03*
X740620D02*
D03*
X745620D02*
D03*
X750620D02*
D03*
X755620D02*
D03*
X760620D02*
D03*
X765620D02*
D03*
X770620D02*
D03*
X775620D02*
D03*
X780620D02*
D03*
X785620D02*
D03*
X790620D02*
D03*
X795620D02*
D03*
X800620D02*
D03*
X805620D02*
D03*
X810620D02*
D03*
X815620D02*
D03*
X820620D02*
D03*
X825620D02*
D03*
X830620D02*
D03*
X835620D02*
D03*
X840620D02*
D03*
X845620D02*
D03*
X850620D02*
D03*
X855620D02*
D03*
X860620D02*
D03*
X865620D02*
D03*
X870620D02*
D03*
X875620D02*
D03*
X880620D02*
D03*
X885620D02*
D03*
X890620D02*
D03*
X895620D02*
D03*
X900620D02*
D03*
X905620D02*
D03*
X910620D02*
D03*
X915620D02*
D03*
X920620D02*
D03*
X925620D02*
D03*
X930620D02*
D03*
X935620D02*
D03*
X940620D02*
D03*
D93*
X707620Y605340D02*
D03*
Y600340D02*
D03*
Y595340D02*
D03*
Y590340D02*
D03*
Y585340D02*
D03*
Y580340D02*
D03*
Y575340D02*
D03*
Y570340D02*
D03*
Y565340D02*
D03*
Y560340D02*
D03*
Y555340D02*
D03*
Y550340D02*
D03*
Y545340D02*
D03*
Y540340D02*
D03*
Y535340D02*
D03*
Y530340D02*
D03*
Y525340D02*
D03*
Y520340D02*
D03*
Y515340D02*
D03*
Y510340D02*
D03*
Y505340D02*
D03*
Y500340D02*
D03*
Y495340D02*
D03*
Y490340D02*
D03*
Y485340D02*
D03*
Y480340D02*
D03*
Y475340D02*
D03*
Y470340D02*
D03*
Y465340D02*
D03*
Y460340D02*
D03*
Y455340D02*
D03*
Y450340D02*
D03*
Y445340D02*
D03*
Y440340D02*
D03*
Y435340D02*
D03*
Y430340D02*
D03*
Y425340D02*
D03*
Y420340D02*
D03*
Y415340D02*
D03*
Y410340D02*
D03*
Y405340D02*
D03*
Y400340D02*
D03*
Y395340D02*
D03*
Y390340D02*
D03*
X958620D02*
D03*
Y395340D02*
D03*
Y400340D02*
D03*
Y405340D02*
D03*
Y410340D02*
D03*
Y415340D02*
D03*
Y420340D02*
D03*
Y425340D02*
D03*
Y430340D02*
D03*
Y435340D02*
D03*
Y440340D02*
D03*
Y445340D02*
D03*
Y450340D02*
D03*
Y455340D02*
D03*
Y460340D02*
D03*
Y465340D02*
D03*
Y470340D02*
D03*
Y475340D02*
D03*
Y480340D02*
D03*
Y485340D02*
D03*
Y490340D02*
D03*
Y495340D02*
D03*
Y500340D02*
D03*
Y505340D02*
D03*
Y510340D02*
D03*
Y515340D02*
D03*
Y520340D02*
D03*
Y525340D02*
D03*
Y530340D02*
D03*
Y535340D02*
D03*
Y540340D02*
D03*
Y545340D02*
D03*
Y550340D02*
D03*
Y555340D02*
D03*
Y560340D02*
D03*
Y565340D02*
D03*
Y570340D02*
D03*
Y575340D02*
D03*
Y580340D02*
D03*
Y585340D02*
D03*
Y590340D02*
D03*
Y595340D02*
D03*
Y600340D02*
D03*
Y605340D02*
D03*
D94*
X1075600Y500380D02*
D03*
X1032600D02*
D03*
X539750Y427990D02*
D03*
X582750D02*
D03*
X537957Y287020D02*
D03*
X580956D02*
D03*
D95*
X1133900Y427990D02*
D03*
D96*
X1075900Y450990D02*
D03*
Y427990D02*
D03*
Y404990D02*
D03*
D97*
X716280Y348070D02*
D03*
Y327570D02*
D03*
X615950Y427900D02*
D03*
Y448400D02*
D03*
X740884Y327480D02*
D03*
Y347980D02*
D03*
X1106293Y365850D02*
D03*
Y345350D02*
D03*
D98*
X773768Y292100D02*
D03*
X759460D02*
D03*
X913934Y213360D02*
D03*
X899626D02*
D03*
X729446Y234950D02*
D03*
X743754D02*
D03*
X763764Y212090D02*
D03*
X778072D02*
D03*
X866889Y239002D02*
D03*
X852581D02*
D03*
D99*
X1116730Y298450D02*
D03*
X1103230D02*
D03*
X643020Y269240D02*
D03*
X629520D02*
D03*
D100*
X1061720Y370750D02*
D03*
Y327750D02*
D03*
D101*
X897520Y257810D02*
D03*
X883020D02*
D03*
X646060Y238760D02*
D03*
X631560D02*
D03*
D102*
X664600Y317500D02*
D03*
X681600D02*
D03*
X725560Y275590D02*
D03*
X742560D02*
D03*
X905120Y285750D02*
D03*
X888120D02*
D03*
X1000370Y294640D02*
D03*
X983370D02*
D03*
X1008770Y976630D02*
D03*
X1025770D02*
D03*
X671050Y933398D02*
D03*
X654050D02*
D03*
D103*
X718490Y288290D02*
D03*
X709490D02*
D03*
X677850D02*
D03*
X668850D02*
D03*
X681486Y304841D02*
D03*
X690486D02*
D03*
X698060D02*
D03*
X707060D02*
D03*
X833700Y309880D02*
D03*
X842700D02*
D03*
X873070D02*
D03*
X882070D02*
D03*
X847670Y296782D02*
D03*
X856670D02*
D03*
X864760D02*
D03*
X873760D02*
D03*
D104*
X687070Y289560D02*
D03*
X700270D02*
D03*
X864595Y307340D02*
D03*
X851395D02*
D03*
D105*
X811380Y260350D02*
D03*
X824380D02*
D03*
D106*
X965200Y295106D02*
D03*
Y309414D02*
D03*
D107*
X933450Y223520D02*
D03*
Y237520D02*
D03*
D108*
X986790Y578800D02*
D03*
Y558800D02*
D03*
D109*
X663010Y244250D02*
D03*
Y250750D02*
D03*
Y257250D02*
D03*
Y263750D02*
D03*
X703510Y244250D02*
D03*
Y250750D02*
D03*
Y257250D02*
D03*
Y263750D02*
D03*
X923360Y254513D02*
D03*
Y261013D02*
D03*
Y267512D02*
D03*
Y274013D02*
D03*
X963860Y254513D02*
D03*
Y261013D02*
D03*
Y267512D02*
D03*
Y274013D02*
D03*
D110*
X1117030Y589098D02*
D03*
Y570098D02*
D03*
X1141030D02*
D03*
Y579597D02*
D03*
Y589098D02*
D03*
D111*
X523310Y356357D02*
D03*
D112*
X589210Y333457D02*
D03*
Y356357D02*
D03*
D113*
Y379258D02*
D03*
D114*
X963930Y937560D02*
D03*
Y924560D02*
D03*
X687070Y986790D02*
D03*
Y999790D02*
D03*
D115*
X978005Y924560D02*
D03*
Y938060D02*
D03*
X701144Y999890D02*
D03*
Y986390D02*
D03*
D116*
X712659Y969870D02*
D03*
X950853Y954590D02*
D03*
D117*
X712659Y963370D02*
D03*
Y956870D02*
D03*
Y950370D02*
D03*
X671641D02*
D03*
Y956870D02*
D03*
Y963370D02*
D03*
Y969870D02*
D03*
X950853Y961090D02*
D03*
Y967590D02*
D03*
Y974090D02*
D03*
X991870D02*
D03*
Y967590D02*
D03*
Y961090D02*
D03*
Y954590D02*
D03*
D134*
X692150Y960120D02*
D03*
X971361Y964340D02*
D03*
M02*
