G04*
G04 #@! TF.GenerationSoftware,Altium Limited,Altium Designer,25.2.1 (25)*
G04*
G04 Layer_Physical_Order=3*
G04 Layer_Color=16440176*
%FSLAX44Y44*%
%MOMM*%
G71*
G04*
G04 #@! TF.SameCoordinates,245930A5-F2C7-430A-BF85-77EB81D10B19*
G04*
G04*
G04 #@! TF.FilePolarity,Positive*
G04*
G01*
G75*
%ADD11C,0.2540*%
%ADD67R,1.6000X1.6000*%
%ADD68C,1.6000*%
%ADD78C,2.0000*%
%ADD81C,2.4000*%
G04:AMPARAMS|DCode=82|XSize=2.4mm|YSize=2.4mm|CornerRadius=0.6mm|HoleSize=0mm|Usage=FLASHONLY|Rotation=180.000|XOffset=0mm|YOffset=0mm|HoleType=Round|Shape=RoundedRectangle|*
%AMROUNDEDRECTD82*
21,1,2.4000,1.2000,0,0,180.0*
21,1,1.2000,2.4000,0,0,180.0*
1,1,1.2000,-0.6000,0.6000*
1,1,1.2000,0.6000,0.6000*
1,1,1.2000,0.6000,-0.6000*
1,1,1.2000,-0.6000,-0.6000*
%
%ADD82ROUNDEDRECTD82*%
%ADD83C,3.0000*%
%ADD84C,1.2700*%
%ADD85C,0.6000*%
%ADD86C,0.8000*%
%ADD87C,0.7000*%
%ADD88C,0.5000*%
%ADD89C,1.5240*%
G36*
X1142335Y1247140D02*
X1141376Y1246181D01*
X1139456Y1243308D01*
X1138134Y1240116D01*
X1137460Y1236728D01*
Y1233272D01*
X1138134Y1229884D01*
X1139456Y1226692D01*
X1141376Y1223819D01*
X1143819Y1221376D01*
X1146692Y1219456D01*
X1149884Y1218134D01*
X1153272Y1217460D01*
X1156728D01*
X1160116Y1218134D01*
X1160780Y1218409D01*
X1163320Y1216712D01*
Y198288D01*
X1160780Y196591D01*
X1160116Y196866D01*
X1156728Y197540D01*
X1153272D01*
X1149884Y196866D01*
X1146692Y195544D01*
X1143819Y193624D01*
X1141376Y191181D01*
X1139456Y188308D01*
X1138134Y185116D01*
X1137460Y181728D01*
Y178272D01*
X1138134Y174884D01*
X1139456Y171692D01*
X1140466Y170180D01*
X1139109Y167640D01*
X942934D01*
X941882Y170180D01*
X978637Y206935D01*
X990558D01*
X991021Y205208D01*
X992935Y201892D01*
X995642Y199185D01*
X998958Y197271D01*
X1002656Y196280D01*
X1006484D01*
X1010182Y197271D01*
X1013498Y199185D01*
X1016205Y201892D01*
X1018119Y205208D01*
X1019110Y208906D01*
Y212734D01*
X1018119Y216432D01*
X1016205Y219748D01*
X1013498Y222455D01*
X1010182Y224369D01*
X1006484Y225360D01*
X1002656D01*
X998958Y224369D01*
X995642Y222455D01*
X992935Y219748D01*
X991021Y216432D01*
X990558Y214705D01*
X977028D01*
X975542Y214409D01*
X974281Y213567D01*
X958628Y197913D01*
X955795Y198672D01*
X955704Y199011D01*
X954534Y201039D01*
X952879Y202694D01*
X950851Y203864D01*
X948590Y204470D01*
X946250D01*
X943989Y203864D01*
X941961Y202694D01*
X940306Y201039D01*
X939136Y199011D01*
X938530Y196750D01*
Y194410D01*
X939136Y192149D01*
X940306Y190121D01*
X941961Y188466D01*
X943989Y187296D01*
X944328Y187205D01*
X945087Y184372D01*
X935058Y174344D01*
X830105D01*
X829424Y176884D01*
X829689Y177036D01*
X831344Y178691D01*
X832514Y180719D01*
X833120Y182980D01*
Y185320D01*
X832514Y187581D01*
X831344Y189609D01*
X829689Y191264D01*
X827661Y192434D01*
X825400Y193040D01*
X823060D01*
X820799Y192434D01*
X818771Y191264D01*
X817116Y189609D01*
X815946Y187581D01*
X815340Y185320D01*
Y182980D01*
X815946Y180719D01*
X817116Y178691D01*
X818771Y177036D01*
X819036Y176884D01*
X818355Y174344D01*
X637548D01*
X637048Y174850D01*
X636187Y176884D01*
X636934Y178179D01*
X637540Y180440D01*
Y182780D01*
X636934Y185041D01*
X635764Y187069D01*
X634109Y188724D01*
X632081Y189894D01*
X629820Y190500D01*
X627480D01*
X625219Y189894D01*
X623191Y188724D01*
X621536Y187069D01*
X620366Y185041D01*
X619760Y182780D01*
Y180440D01*
X620366Y178179D01*
X621113Y176884D01*
X620252Y174850D01*
X619752Y174344D01*
X593155D01*
X591688Y176884D01*
X591864Y177188D01*
X592469Y179449D01*
Y181789D01*
X591864Y184050D01*
X590693Y186078D01*
X589038Y187733D01*
X587011Y188903D01*
X584750Y189509D01*
X582409D01*
X580148Y188903D01*
X578121Y187733D01*
X576466Y186078D01*
X575295Y184050D01*
X574689Y181789D01*
Y179449D01*
X575295Y177188D01*
X575471Y176884D01*
X574004Y174344D01*
X567750D01*
X502995Y239099D01*
Y276175D01*
X505535Y277641D01*
X505839Y277466D01*
X508100Y276860D01*
X510440D01*
X512701Y277466D01*
X514729Y278636D01*
X516384Y280291D01*
X517554Y282319D01*
X518160Y284580D01*
Y286920D01*
X517554Y289181D01*
X516384Y291209D01*
X514729Y292864D01*
X512701Y294034D01*
X510440Y294640D01*
X508100D01*
X507687Y294529D01*
X506372Y296807D01*
X593312Y383747D01*
X596145Y382988D01*
X596236Y382649D01*
X597406Y380621D01*
X599061Y378966D01*
X601089Y377796D01*
X603350Y377190D01*
X605690D01*
X607951Y377796D01*
X609979Y378966D01*
X611634Y380621D01*
X612804Y382649D01*
X613410Y384910D01*
Y387250D01*
X612804Y389511D01*
X612629Y389815D01*
X614095Y392355D01*
X626642D01*
X672878Y346120D01*
X672721Y344934D01*
X671479Y343691D01*
X669925Y343453D01*
X668371Y343691D01*
X667129Y344934D01*
X665101Y346104D01*
X662840Y346710D01*
X660500D01*
X658239Y346104D01*
X656211Y344934D01*
X654556Y343279D01*
X653386Y341251D01*
X652780Y338990D01*
Y336650D01*
X653386Y334389D01*
X654556Y332361D01*
X656211Y330706D01*
X658239Y329536D01*
X660500Y328930D01*
X662840D01*
X665101Y329536D01*
X667129Y330706D01*
X668371Y331949D01*
X669925Y332187D01*
X671479Y331949D01*
X672721Y330706D01*
X674749Y329536D01*
X677010Y328930D01*
X679350D01*
X681611Y329536D01*
X683639Y330706D01*
X685294Y332361D01*
X686464Y334389D01*
X686555Y334728D01*
X686975Y335071D01*
X689453Y335728D01*
X689792Y335501D01*
X691278Y335205D01*
X746760D01*
X748247Y335501D01*
X749507Y336343D01*
X757259Y344095D01*
X767351D01*
X768403Y341555D01*
X767586Y340739D01*
X766416Y338711D01*
X765810Y336450D01*
Y336204D01*
X765040Y335578D01*
X763270Y334916D01*
X761801Y335764D01*
X759540Y336370D01*
X757200D01*
X754939Y335764D01*
X752911Y334594D01*
X751256Y332939D01*
X750086Y330911D01*
X749480Y328650D01*
Y326310D01*
X750086Y324049D01*
X751256Y322021D01*
X752911Y320366D01*
X754939Y319196D01*
X755923Y318932D01*
X756746Y316163D01*
X739022Y298440D01*
X738622Y298509D01*
X736600Y299609D01*
Y301200D01*
X735994Y303461D01*
X734824Y305489D01*
X733169Y307144D01*
X731141Y308314D01*
X728880Y308920D01*
X726540D01*
X724279Y308314D01*
X722251Y307144D01*
X720596Y305489D01*
X719426Y303461D01*
X718820Y301200D01*
Y298860D01*
X719426Y296599D01*
X720596Y294571D01*
X722251Y292916D01*
X724279Y291746D01*
X726540Y291140D01*
X728131D01*
X729231Y289118D01*
X729301Y288718D01*
X719107Y278524D01*
X673546D01*
X670273Y278093D01*
X667222Y276830D01*
X664603Y274820D01*
X664602Y274820D01*
X639061Y249278D01*
X635291D01*
X635290Y249278D01*
X632017Y248847D01*
X628966Y247584D01*
X626347Y245574D01*
X606277Y225504D01*
X604017D01*
X603782Y225639D01*
X600084Y226630D01*
X596256D01*
X592558Y225639D01*
X589242Y223725D01*
X586535Y221018D01*
X584621Y217702D01*
X583630Y214004D01*
Y210176D01*
X584621Y206478D01*
X586535Y203162D01*
X589242Y200455D01*
X592558Y198541D01*
X596256Y197550D01*
X600084D01*
X603782Y198541D01*
X606668Y200207D01*
X611516D01*
X611516Y200207D01*
X614789Y200638D01*
X617840Y201902D01*
X620460Y203912D01*
X632010Y215462D01*
X634356Y214490D01*
Y206090D01*
X634650Y203861D01*
X635510Y201783D01*
X636879Y199999D01*
X638663Y198630D01*
X640741Y197770D01*
X641306Y197695D01*
X641601Y197413D01*
X642555Y194969D01*
X641956Y193931D01*
X641350Y191670D01*
Y189330D01*
X641956Y187069D01*
X643126Y185041D01*
X644781Y183386D01*
X646809Y182216D01*
X649070Y181610D01*
X651410D01*
X653671Y182216D01*
X655699Y183386D01*
X657354Y185041D01*
X658524Y187069D01*
X659130Y189330D01*
Y191670D01*
X658524Y193931D01*
X657704Y195352D01*
X657676Y195485D01*
X658096Y197412D01*
X658568Y198337D01*
X659277Y198630D01*
X661061Y199999D01*
X662430Y201783D01*
X663290Y203861D01*
X663584Y206090D01*
Y218090D01*
X663290Y220319D01*
X662430Y222397D01*
X661061Y224181D01*
X659277Y225550D01*
X657199Y226410D01*
X655750Y226601D01*
X654852Y228479D01*
X654801Y229244D01*
X670173Y244615D01*
X673006Y243856D01*
X673086Y243555D01*
X674257Y241528D01*
X675912Y239872D01*
X677939Y238702D01*
X680200Y238096D01*
X682541D01*
X684802Y238702D01*
X686829Y239872D01*
X688484Y241528D01*
X689655Y243555D01*
X690261Y245816D01*
Y248157D01*
X689655Y250417D01*
X689499Y250688D01*
X690965Y253228D01*
X724346D01*
X724346Y253228D01*
X727620Y253659D01*
X730670Y254922D01*
X733290Y256933D01*
X777298Y300940D01*
X796290D01*
X797281Y301137D01*
X798121Y301699D01*
X801089Y304667D01*
X829103Y276653D01*
X830363Y275811D01*
X831850Y275515D01*
X983394D01*
X984075Y272975D01*
X983672Y272743D01*
X982017Y271088D01*
X980847Y269061D01*
X980241Y266800D01*
Y264459D01*
X980847Y262198D01*
X982017Y260171D01*
X983672Y258515D01*
X985699Y257345D01*
X987960Y256739D01*
X990301D01*
X992562Y257345D01*
X994589Y258515D01*
X996245Y260171D01*
X997415Y262198D01*
X998021Y264459D01*
Y266800D01*
X997415Y269061D01*
X996245Y271088D01*
X994589Y272743D01*
X994187Y272975D01*
X994867Y275515D01*
X1121071D01*
X1134580Y262006D01*
X1134110Y260250D01*
Y257910D01*
X1134716Y255649D01*
X1135886Y253621D01*
X1137541Y251966D01*
X1139569Y250796D01*
X1141830Y250190D01*
X1144170D01*
X1146431Y250796D01*
X1148459Y251966D01*
X1150114Y253621D01*
X1151284Y255649D01*
X1151890Y257910D01*
Y260250D01*
X1151284Y262511D01*
X1152781Y264766D01*
X1154809Y265936D01*
X1156464Y267591D01*
X1157634Y269619D01*
X1158240Y271880D01*
Y274220D01*
X1157634Y276481D01*
X1156464Y278509D01*
X1154809Y280164D01*
X1152781Y281334D01*
X1150520Y281940D01*
X1148180D01*
X1145919Y281334D01*
X1143891Y280164D01*
X1142236Y278509D01*
X1141328Y276935D01*
X1137823D01*
X1101951Y312807D01*
X1103266Y315084D01*
X1103730Y314960D01*
X1106070D01*
X1108331Y315566D01*
X1108897Y315892D01*
X1109971Y315422D01*
X1111250Y314318D01*
Y312520D01*
X1111856Y310259D01*
X1113026Y308231D01*
X1114681Y306576D01*
X1116709Y305406D01*
X1118970Y304800D01*
X1121310D01*
X1123571Y305406D01*
X1125599Y306576D01*
X1127254Y308231D01*
X1128424Y310259D01*
X1129030Y312520D01*
Y314860D01*
X1128424Y317121D01*
X1127254Y319149D01*
X1125599Y320804D01*
X1123571Y321974D01*
X1121310Y322580D01*
X1118970D01*
X1116709Y321974D01*
X1116143Y321648D01*
X1115069Y322118D01*
X1113790Y323222D01*
Y325020D01*
X1113184Y327281D01*
X1112014Y329309D01*
X1110359Y330964D01*
X1108331Y332134D01*
X1106070Y332740D01*
X1103730D01*
X1101469Y332134D01*
X1099441Y330964D01*
X1097786Y329309D01*
X1096616Y327281D01*
X1096010Y325020D01*
Y322680D01*
X1096134Y322216D01*
X1093857Y320901D01*
X1075461Y339297D01*
X1074201Y340139D01*
X1072714Y340435D01*
X902970D01*
X901483Y340139D01*
X900223Y339297D01*
X894466Y333540D01*
X892710Y334010D01*
X890370D01*
X888109Y333404D01*
X886081Y332234D01*
X884426Y330579D01*
X883256Y328551D01*
X882650Y326290D01*
Y323950D01*
X883256Y321689D01*
X883431Y321385D01*
X881965Y318845D01*
X849969D01*
X834597Y334217D01*
X833337Y335059D01*
X831850Y335355D01*
X828777D01*
X824954Y339178D01*
X825283Y340426D01*
X826094Y341630D01*
X827940D01*
X830201Y342236D01*
X832229Y343406D01*
X833884Y345061D01*
X835054Y347089D01*
X835660Y349350D01*
Y351690D01*
X835054Y353951D01*
X833884Y355979D01*
X832229Y357634D01*
X830201Y358804D01*
X827940Y359410D01*
X825600D01*
X823339Y358804D01*
X821311Y357634D01*
X819656Y355979D01*
X818486Y353951D01*
X817880Y351690D01*
Y349844D01*
X816676Y349033D01*
X815428Y348704D01*
X813405Y350727D01*
X812145Y351569D01*
X810658Y351865D01*
X755650D01*
X754163Y351569D01*
X752903Y350727D01*
X745151Y342975D01*
X692887D01*
X687025Y348837D01*
X687303Y352151D01*
X687834Y352681D01*
X689004Y354709D01*
X689610Y356970D01*
Y359310D01*
X689004Y361571D01*
X687834Y363599D01*
X686179Y365254D01*
X684151Y366424D01*
X681890Y367030D01*
X679550D01*
X677289Y366424D01*
X675261Y365254D01*
X673606Y363599D01*
X672436Y361571D01*
X672345Y361232D01*
X669512Y360473D01*
X630998Y398987D01*
X629738Y399829D01*
X628252Y400125D01*
X600312D01*
X598825Y399829D01*
X597565Y398987D01*
X496363Y297785D01*
X495521Y296525D01*
X495225Y295038D01*
Y237490D01*
X495521Y236003D01*
X496363Y234743D01*
X560926Y170180D01*
X559874Y167640D01*
X515891D01*
X514534Y170180D01*
X515544Y171692D01*
X516866Y174884D01*
X517540Y178272D01*
Y181728D01*
X516866Y185116D01*
X515544Y188308D01*
X513624Y191181D01*
X511181Y193624D01*
X508308Y195544D01*
X505116Y196866D01*
X501727Y197540D01*
X498273D01*
X494884Y196866D01*
X491692Y195544D01*
X491190Y195209D01*
X488950Y196406D01*
Y1218594D01*
X491190Y1219791D01*
X491692Y1219456D01*
X494884Y1218134D01*
X498273Y1217460D01*
X501727D01*
X505116Y1218134D01*
X508308Y1219456D01*
X511181Y1221376D01*
X513624Y1223819D01*
X515544Y1226692D01*
X516866Y1229884D01*
X517540Y1233272D01*
Y1236728D01*
X516866Y1240116D01*
X515544Y1243308D01*
X513624Y1246181D01*
X512665Y1247140D01*
X513717Y1249680D01*
X1141283D01*
X1142335Y1247140D01*
D02*
G37*
G36*
X787400Y342900D02*
X803910D01*
Y311150D01*
X796290Y303530D01*
X770890D01*
X765810Y308610D01*
Y320040D01*
X773430Y327660D01*
Y326390D01*
X774700Y327660D01*
X784860D01*
Y342900D01*
X786130Y344170D01*
X787400Y342900D01*
D02*
G37*
G36*
X1118139Y285631D02*
X1117167Y283285D01*
X937945D01*
X936479Y285825D01*
X936654Y286129D01*
X937260Y288390D01*
Y290730D01*
X936654Y292991D01*
X935484Y295019D01*
X933829Y296674D01*
X931801Y297844D01*
X929540Y298450D01*
X927200D01*
X924939Y297844D01*
X922911Y296674D01*
X921256Y295019D01*
X920086Y292991D01*
X919480Y290730D01*
Y288390D01*
X920086Y286129D01*
X920261Y285825D01*
X918795Y283285D01*
X833459D01*
X806349Y310394D01*
X806500Y311150D01*
Y321606D01*
X809040Y322658D01*
X809881Y321816D01*
X811909Y320646D01*
X814170Y320040D01*
X816510D01*
X818771Y320646D01*
X820799Y321816D01*
X822454Y323471D01*
X823624Y325499D01*
X823784Y326094D01*
X825505Y327715D01*
X826734Y327672D01*
X827168Y327585D01*
X830241D01*
X845613Y312213D01*
X846873Y311371D01*
X848360Y311075D01*
X902658D01*
X903339Y308535D01*
X902591Y308104D01*
X900936Y306449D01*
X899766Y304421D01*
X899160Y302160D01*
Y299820D01*
X899766Y297559D01*
X900936Y295531D01*
X902591Y293876D01*
X904619Y292706D01*
X906880Y292100D01*
X909220D01*
X911481Y292706D01*
X913509Y293876D01*
X915164Y295531D01*
X916334Y297559D01*
X916940Y299820D01*
Y302160D01*
X916334Y304421D01*
X915164Y306449D01*
X913509Y308104D01*
X911702Y309147D01*
X911682Y309195D01*
X911512Y310183D01*
X911569Y311880D01*
X912067Y312213D01*
X915284Y315430D01*
X917040Y314960D01*
X919380D01*
X921641Y315566D01*
X923669Y316736D01*
X925324Y318391D01*
X926494Y320419D01*
X927100Y322680D01*
Y325020D01*
X926494Y327281D01*
X925324Y329309D01*
X924507Y330125D01*
X925559Y332665D01*
X966741D01*
X967448Y331685D01*
X967985Y330125D01*
X967076Y328551D01*
X966470Y326290D01*
Y323950D01*
X967076Y321689D01*
X968246Y319661D01*
X969901Y318006D01*
X971929Y316836D01*
X974190Y316230D01*
X976530D01*
X978791Y316836D01*
X980819Y318006D01*
X982474Y319661D01*
X983644Y321689D01*
X984250Y323950D01*
Y326290D01*
X983644Y328551D01*
X982735Y330125D01*
X983272Y331685D01*
X983979Y332665D01*
X996265D01*
X997731Y330125D01*
X997556Y329821D01*
X996950Y327560D01*
Y325220D01*
X997556Y322959D01*
X998726Y320931D01*
X1000381Y319276D01*
X1002409Y318106D01*
X1004670Y317500D01*
X1007010D01*
X1009271Y318106D01*
X1011299Y319276D01*
X1012954Y320931D01*
X1014124Y322959D01*
X1014730Y325220D01*
Y327560D01*
X1014124Y329821D01*
X1013949Y330125D01*
X1015415Y332665D01*
X1071105D01*
X1118139Y285631D01*
D02*
G37*
%LPC*%
G36*
X859164Y1213730D02*
X855336D01*
X851638Y1212739D01*
X848322Y1210825D01*
X845615Y1208118D01*
X843701Y1204802D01*
X842710Y1201104D01*
Y1197276D01*
X843701Y1193578D01*
X845615Y1190262D01*
X848322Y1187555D01*
X851638Y1185641D01*
X855336Y1184650D01*
X859164D01*
X862862Y1185641D01*
X866178Y1187555D01*
X868885Y1190262D01*
X870799Y1193578D01*
X871790Y1197276D01*
Y1201104D01*
X870799Y1204802D01*
X868885Y1208118D01*
X866178Y1210825D01*
X862862Y1212739D01*
X859164Y1213730D01*
D02*
G37*
G36*
X812450Y1213804D02*
X800450D01*
X798221Y1213510D01*
X796143Y1212650D01*
X794359Y1211281D01*
X792990Y1209497D01*
X792130Y1207419D01*
X791836Y1205190D01*
Y1193190D01*
X792130Y1190961D01*
X792990Y1188883D01*
X794359Y1187099D01*
X796143Y1185730D01*
X798221Y1184870D01*
X800450Y1184576D01*
X812450D01*
X814679Y1184870D01*
X816757Y1185730D01*
X818541Y1187099D01*
X819910Y1188883D01*
X820770Y1190961D01*
X821064Y1193190D01*
Y1205190D01*
X820770Y1207419D01*
X819910Y1209497D01*
X818541Y1211281D01*
X816757Y1212650D01*
X814679Y1213510D01*
X812450Y1213804D01*
D02*
G37*
G36*
X927000Y1186180D02*
X924660D01*
X922399Y1185574D01*
X920371Y1184404D01*
X918716Y1182749D01*
X917546Y1180721D01*
X916940Y1178460D01*
Y1176120D01*
X917546Y1173859D01*
X918716Y1171831D01*
X920371Y1170176D01*
X922399Y1169006D01*
X924660Y1168400D01*
X927000D01*
X929261Y1169006D01*
X931289Y1170176D01*
X932944Y1171831D01*
X934114Y1173859D01*
X934720Y1176120D01*
Y1178460D01*
X934114Y1180721D01*
X932944Y1182749D01*
X931289Y1184404D01*
X929261Y1185574D01*
X927000Y1186180D01*
D02*
G37*
G36*
X737254Y1182887D02*
X734913D01*
X732652Y1182281D01*
X730625Y1181110D01*
X728970Y1179455D01*
X727799Y1177428D01*
X727193Y1175167D01*
Y1172826D01*
X727799Y1170565D01*
X728970Y1168538D01*
X730625Y1166883D01*
X732652Y1165713D01*
X734913Y1165107D01*
X737254D01*
X739515Y1165713D01*
X741542Y1166883D01*
X743197Y1168538D01*
X744368Y1170565D01*
X744973Y1172826D01*
Y1175167D01*
X744368Y1177428D01*
X743197Y1179455D01*
X741542Y1181110D01*
X739515Y1182281D01*
X737254Y1182887D01*
D02*
G37*
G36*
X1150410Y1088770D02*
X1129330D01*
Y1067690D01*
X1150410D01*
Y1088770D01*
D02*
G37*
G36*
X866258D02*
X863482D01*
X860802Y1088052D01*
X858398Y1086664D01*
X856436Y1084702D01*
X855048Y1082298D01*
X854330Y1079618D01*
Y1076842D01*
X855048Y1074162D01*
X856436Y1071758D01*
X858398Y1069796D01*
X860802Y1068408D01*
X863482Y1067690D01*
X866258D01*
X868938Y1068408D01*
X871342Y1069796D01*
X873304Y1071758D01*
X874692Y1074162D01*
X875410Y1076842D01*
Y1079618D01*
X874692Y1082298D01*
X873304Y1084702D01*
X871342Y1086664D01*
X868938Y1088052D01*
X866258Y1088770D01*
D02*
G37*
G36*
X800558D02*
X797782D01*
X795102Y1088052D01*
X792698Y1086664D01*
X790736Y1084702D01*
X789348Y1082298D01*
X788630Y1079618D01*
Y1076842D01*
X789348Y1074162D01*
X790736Y1071758D01*
X792698Y1069796D01*
X795102Y1068408D01*
X797782Y1067690D01*
X800558D01*
X803238Y1068408D01*
X805642Y1069796D01*
X807604Y1071758D01*
X808992Y1074162D01*
X809710Y1076842D01*
Y1079618D01*
X808992Y1082298D01*
X807604Y1084702D01*
X805642Y1086664D01*
X803238Y1088052D01*
X800558Y1088770D01*
D02*
G37*
G36*
X534710D02*
X513630D01*
Y1067690D01*
X534710D01*
Y1088770D01*
D02*
G37*
G36*
X719990Y1021080D02*
X717650D01*
X715389Y1020474D01*
X713361Y1019304D01*
X711706Y1017649D01*
X710536Y1015621D01*
X709930Y1013360D01*
Y1011020D01*
X710536Y1008759D01*
X711706Y1006731D01*
X713361Y1005076D01*
X715389Y1003906D01*
X717650Y1003300D01*
X719990D01*
X722251Y1003906D01*
X724279Y1005076D01*
X725934Y1006731D01*
X727104Y1008759D01*
X727710Y1011020D01*
Y1013360D01*
X727104Y1015621D01*
X725934Y1017649D01*
X724279Y1019304D01*
X722251Y1020474D01*
X719990Y1021080D01*
D02*
G37*
G36*
X651410Y988200D02*
X649070D01*
X646809Y987594D01*
X644781Y986424D01*
X644281Y985923D01*
X642701Y984979D01*
X640845Y985897D01*
X640459Y986284D01*
X638431Y987454D01*
X636170Y988060D01*
X633830D01*
X631569Y987454D01*
X629541Y986284D01*
X627886Y984629D01*
X626716Y982601D01*
X626110Y980340D01*
Y978000D01*
X626716Y975739D01*
X627886Y973711D01*
X629541Y972056D01*
X631569Y970886D01*
X633830Y970280D01*
X636170D01*
X638431Y970886D01*
X640459Y972056D01*
X640959Y972557D01*
X642539Y973501D01*
X644395Y972583D01*
X644781Y972196D01*
X646809Y971026D01*
X649070Y970420D01*
X651410D01*
X653671Y971026D01*
X655699Y972196D01*
X657354Y973851D01*
X658524Y975879D01*
X659130Y978140D01*
Y980480D01*
X658524Y982741D01*
X657354Y984769D01*
X655699Y986424D01*
X653671Y987594D01*
X651410Y988200D01*
D02*
G37*
G36*
X845720Y986790D02*
X843380D01*
X841119Y986184D01*
X839091Y985014D01*
X837436Y983359D01*
X836266Y981331D01*
X835660Y979070D01*
Y976730D01*
X836266Y974469D01*
X837436Y972441D01*
X839091Y970786D01*
X841119Y969616D01*
X843380Y969010D01*
X845720D01*
X847981Y969616D01*
X850009Y970786D01*
X851664Y972441D01*
X852834Y974469D01*
X853440Y976730D01*
Y979070D01*
X852834Y981331D01*
X851664Y983359D01*
X850009Y985014D01*
X847981Y986184D01*
X845720Y986790D01*
D02*
G37*
G36*
X1036220Y985520D02*
X1033880D01*
X1031619Y984914D01*
X1029591Y983744D01*
X1027936Y982089D01*
X1026766Y980061D01*
X1026160Y977800D01*
Y975460D01*
X1026766Y973199D01*
X1027936Y971171D01*
X1029591Y969516D01*
X1031619Y968346D01*
X1033880Y967740D01*
X1036220D01*
X1038481Y968346D01*
X1040509Y969516D01*
X1042164Y971171D01*
X1043334Y973199D01*
X1043940Y975460D01*
Y977800D01*
X1043334Y980061D01*
X1042164Y982089D01*
X1040509Y983744D01*
X1038481Y984914D01*
X1036220Y985520D01*
D02*
G37*
G36*
Y939800D02*
X1033880D01*
X1031619Y939194D01*
X1029591Y938024D01*
X1028065Y936497D01*
X1026539Y938024D01*
X1024511Y939194D01*
X1022250Y939800D01*
X1019910D01*
X1017649Y939194D01*
X1015621Y938024D01*
X1013966Y936369D01*
X1012796Y934341D01*
X1012190Y932080D01*
Y929740D01*
X1012796Y927479D01*
X1013966Y925451D01*
X1015621Y923796D01*
X1017649Y922626D01*
X1019910Y922020D01*
X1022250D01*
X1024511Y922626D01*
X1026539Y923796D01*
X1028065Y925323D01*
X1029591Y923796D01*
X1031619Y922626D01*
X1033880Y922020D01*
X1036220D01*
X1038481Y922626D01*
X1040509Y923796D01*
X1042164Y925451D01*
X1043334Y927479D01*
X1043940Y929740D01*
Y932080D01*
X1043334Y934341D01*
X1042164Y936369D01*
X1040509Y938024D01*
X1038481Y939194D01*
X1036220Y939800D01*
D02*
G37*
G36*
X642380Y942200D02*
X640040D01*
X637779Y941594D01*
X635751Y940424D01*
X634096Y938769D01*
X632926Y936741D01*
X632320Y934480D01*
Y932140D01*
X632926Y929879D01*
X634096Y927851D01*
X635751Y926196D01*
X637779Y925026D01*
X640040Y924420D01*
X642380D01*
X644641Y925026D01*
X646669Y926196D01*
X648324Y927851D01*
X649494Y929879D01*
X650100Y932140D01*
Y934480D01*
X649494Y936741D01*
X648324Y938769D01*
X646669Y940424D01*
X644641Y941594D01*
X642380Y942200D01*
D02*
G37*
G36*
X854610Y941070D02*
X852270D01*
X850009Y940464D01*
X847981Y939294D01*
X846326Y937639D01*
X845156Y935611D01*
X844550Y933350D01*
Y931010D01*
X845156Y928749D01*
X846326Y926721D01*
X847981Y925066D01*
X850009Y923896D01*
X852270Y923290D01*
X854610D01*
X856871Y923896D01*
X858899Y925066D01*
X860554Y926721D01*
X861724Y928749D01*
X862330Y931010D01*
Y933350D01*
X861724Y935611D01*
X860554Y937639D01*
X858899Y939294D01*
X856871Y940464D01*
X854610Y941070D01*
D02*
G37*
G36*
X952400Y913130D02*
X950060D01*
X947799Y912524D01*
X945771Y911354D01*
X944116Y909699D01*
X942946Y907671D01*
X942340Y905410D01*
Y903070D01*
X942946Y900809D01*
X944116Y898781D01*
X945771Y897126D01*
X947799Y895956D01*
X950060Y895350D01*
X952400D01*
X954661Y895956D01*
X956689Y897126D01*
X958344Y898781D01*
X959514Y900809D01*
X960120Y903070D01*
Y905410D01*
X959514Y907671D01*
X958344Y909699D01*
X956689Y911354D01*
X954661Y912524D01*
X952400Y913130D01*
D02*
G37*
G36*
X524393Y901718D02*
X522052D01*
X519791Y901112D01*
X517763Y899942D01*
X516108Y898287D01*
X514938Y896259D01*
X514332Y893998D01*
Y891657D01*
X514938Y889397D01*
X516108Y887369D01*
X517763Y885714D01*
X519791Y884544D01*
X522052Y883938D01*
X524393D01*
X526654Y884544D01*
X528681Y885714D01*
X530336Y887369D01*
X531506Y889397D01*
X532112Y891657D01*
Y893998D01*
X531506Y896259D01*
X530336Y898287D01*
X528681Y899942D01*
X526654Y901112D01*
X524393Y901718D01*
D02*
G37*
G36*
X1147980Y863600D02*
X1145640D01*
X1143379Y862994D01*
X1141351Y861824D01*
X1139696Y860169D01*
X1138526Y858141D01*
X1137920Y855880D01*
Y853540D01*
X1138526Y851279D01*
X1139696Y849251D01*
X1141351Y847596D01*
X1143379Y846426D01*
X1145640Y845820D01*
X1147980D01*
X1150241Y846426D01*
X1152269Y847596D01*
X1153924Y849251D01*
X1155094Y851279D01*
X1155700Y853540D01*
Y855880D01*
X1155094Y858141D01*
X1153924Y860169D01*
X1152269Y861824D01*
X1150241Y862994D01*
X1147980Y863600D01*
D02*
G37*
G36*
X743018Y853559D02*
X740342D01*
X737758Y852867D01*
X735442Y851530D01*
X733550Y849638D01*
X732212Y847321D01*
X731520Y844737D01*
Y842062D01*
X732212Y839478D01*
X733550Y837161D01*
X735442Y835269D01*
X737758Y833932D01*
X740342Y833240D01*
X743018D01*
X745602Y833932D01*
X747918Y835269D01*
X749810Y837161D01*
X751148Y839478D01*
X751840Y842062D01*
Y844737D01*
X751148Y847321D01*
X749810Y849638D01*
X747918Y851530D01*
X745602Y852867D01*
X743018Y853559D01*
D02*
G37*
G36*
X704918D02*
X702242D01*
X699658Y852867D01*
X697342Y851530D01*
X695450Y849638D01*
X694112Y847321D01*
X693420Y844737D01*
Y842062D01*
X694112Y839478D01*
X695450Y837161D01*
X697342Y835269D01*
X699658Y833932D01*
X702242Y833240D01*
X704918D01*
X707502Y833932D01*
X709818Y835269D01*
X711710Y837161D01*
X713048Y839478D01*
X713740Y842062D01*
Y844737D01*
X713048Y847321D01*
X711710Y849638D01*
X709818Y851530D01*
X707502Y852867D01*
X704918Y853559D01*
D02*
G37*
G36*
X628718D02*
X626042D01*
X623458Y852867D01*
X621142Y851530D01*
X619250Y849638D01*
X617912Y847321D01*
X617220Y844737D01*
Y842062D01*
X617912Y839478D01*
X619250Y837161D01*
X621142Y835269D01*
X623458Y833932D01*
X626042Y833240D01*
X628718D01*
X631302Y833932D01*
X633618Y835269D01*
X635510Y837161D01*
X636848Y839478D01*
X637540Y842062D01*
Y844737D01*
X636848Y847321D01*
X635510Y849638D01*
X633618Y851530D01*
X631302Y852867D01*
X628718Y853559D01*
D02*
G37*
G36*
X590618D02*
X587942D01*
X585358Y852867D01*
X583042Y851530D01*
X581150Y849638D01*
X579812Y847321D01*
X579120Y844737D01*
Y842062D01*
X579812Y839478D01*
X581150Y837161D01*
X583042Y835269D01*
X585358Y833932D01*
X587942Y833240D01*
X590618D01*
X593202Y833932D01*
X595518Y835269D01*
X597410Y837161D01*
X598748Y839478D01*
X599440Y842062D01*
Y844737D01*
X598748Y847321D01*
X597410Y849638D01*
X595518Y851530D01*
X593202Y852867D01*
X590618Y853559D01*
D02*
G37*
G36*
X1069408Y850900D02*
X1066732D01*
X1064148Y850208D01*
X1061832Y848870D01*
X1059940Y846978D01*
X1058602Y844662D01*
X1057910Y842078D01*
Y839402D01*
X1058602Y836818D01*
X1059940Y834502D01*
X1061832Y832610D01*
X1064148Y831272D01*
X1066732Y830580D01*
X1069408D01*
X1071992Y831272D01*
X1074308Y832610D01*
X1076200Y834502D01*
X1077538Y836818D01*
X1078230Y839402D01*
Y842078D01*
X1077538Y844662D01*
X1076200Y846978D01*
X1074308Y848870D01*
X1071992Y850208D01*
X1069408Y850900D01*
D02*
G37*
G36*
X1031308D02*
X1028632D01*
X1026048Y850208D01*
X1023732Y848870D01*
X1021840Y846978D01*
X1020502Y844662D01*
X1019810Y842078D01*
Y839402D01*
X1020502Y836818D01*
X1021840Y834502D01*
X1023732Y832610D01*
X1026048Y831272D01*
X1028632Y830580D01*
X1031308D01*
X1033892Y831272D01*
X1036208Y832610D01*
X1038100Y834502D01*
X1039438Y836818D01*
X1040130Y839402D01*
Y842078D01*
X1039438Y844662D01*
X1038100Y846978D01*
X1036208Y848870D01*
X1033892Y850208D01*
X1031308Y850900D01*
D02*
G37*
G36*
X955108D02*
X952432D01*
X949848Y850208D01*
X947532Y848870D01*
X945640Y846978D01*
X944302Y844662D01*
X943610Y842078D01*
Y839402D01*
X944302Y836818D01*
X945640Y834502D01*
X947532Y832610D01*
X949848Y831272D01*
X952432Y830580D01*
X955108D01*
X957692Y831272D01*
X960008Y832610D01*
X961900Y834502D01*
X963238Y836818D01*
X963930Y839402D01*
Y842078D01*
X963238Y844662D01*
X961900Y846978D01*
X960008Y848870D01*
X957692Y850208D01*
X955108Y850900D01*
D02*
G37*
G36*
X917008D02*
X914332D01*
X911748Y850208D01*
X909432Y848870D01*
X907540Y846978D01*
X906202Y844662D01*
X905510Y842078D01*
Y839402D01*
X906202Y836818D01*
X907540Y834502D01*
X909432Y832610D01*
X911748Y831272D01*
X914332Y830580D01*
X917008D01*
X919592Y831272D01*
X921908Y832610D01*
X923800Y834502D01*
X925138Y836818D01*
X925830Y839402D01*
Y842078D01*
X925138Y844662D01*
X923800Y846978D01*
X921908Y848870D01*
X919592Y850208D01*
X917008Y850900D01*
D02*
G37*
G36*
X1107340Y843280D02*
X1105000D01*
X1102739Y842674D01*
X1100711Y841504D01*
X1099056Y839849D01*
X1097886Y837821D01*
X1097280Y835560D01*
Y833220D01*
X1097886Y830959D01*
X1099056Y828931D01*
X1100711Y827276D01*
X1102739Y826106D01*
X1105000Y825500D01*
X1107340D01*
X1109601Y826106D01*
X1111629Y827276D01*
X1113284Y828931D01*
X1114454Y830959D01*
X1115060Y833220D01*
Y835560D01*
X1114454Y837821D01*
X1113284Y839849D01*
X1111629Y841504D01*
X1109601Y842674D01*
X1107340Y843280D01*
D02*
G37*
G36*
X1134010Y821690D02*
X1131670D01*
X1129409Y821084D01*
X1127381Y819914D01*
X1125726Y818259D01*
X1124556Y816231D01*
X1123950Y813970D01*
Y811630D01*
X1124556Y809369D01*
X1125726Y807341D01*
X1127381Y805686D01*
X1129409Y804516D01*
X1131670Y803910D01*
X1134010D01*
X1136271Y804516D01*
X1138299Y805686D01*
X1139954Y807341D01*
X1141124Y809369D01*
X1141730Y811630D01*
Y813970D01*
X1141124Y816231D01*
X1139954Y818259D01*
X1138299Y819914D01*
X1136271Y821084D01*
X1134010Y821690D01*
D02*
G37*
G36*
X540920Y810260D02*
X538580D01*
X536319Y809654D01*
X534291Y808484D01*
X532636Y806829D01*
X531466Y804801D01*
X530860Y802540D01*
Y800200D01*
X531466Y797939D01*
X532636Y795911D01*
X534291Y794256D01*
X536319Y793086D01*
X538580Y792480D01*
X540920D01*
X543181Y793086D01*
X545209Y794256D01*
X546864Y795911D01*
X548034Y797939D01*
X548640Y800200D01*
Y802540D01*
X548034Y804801D01*
X546864Y806829D01*
X545209Y808484D01*
X543181Y809654D01*
X540920Y810260D01*
D02*
G37*
G36*
X1042570Y795020D02*
X1040230D01*
X1037969Y794414D01*
X1035941Y793244D01*
X1034286Y791589D01*
X1033116Y789561D01*
X1032510Y787300D01*
Y784960D01*
X1033116Y782699D01*
X1034286Y780671D01*
X1035941Y779016D01*
X1037969Y777846D01*
X1040230Y777240D01*
X1042570D01*
X1044831Y777846D01*
X1046859Y779016D01*
X1048514Y780671D01*
X1049684Y782699D01*
X1050290Y784960D01*
Y787300D01*
X1049684Y789561D01*
X1048514Y791589D01*
X1046859Y793244D01*
X1044831Y794414D01*
X1042570Y795020D01*
D02*
G37*
G36*
X1126390Y764540D02*
X1124050D01*
X1121789Y763934D01*
X1119761Y762764D01*
X1118106Y761109D01*
X1116936Y759081D01*
X1116330Y756820D01*
Y754480D01*
X1116936Y752219D01*
X1118106Y750191D01*
X1119761Y748536D01*
X1121789Y747366D01*
X1124050Y746760D01*
X1126390D01*
X1128651Y747366D01*
X1130679Y748536D01*
X1132334Y750191D01*
X1133504Y752219D01*
X1134110Y754480D01*
Y756820D01*
X1133504Y759081D01*
X1132334Y761109D01*
X1130679Y762764D01*
X1128651Y763934D01*
X1126390Y764540D01*
D02*
G37*
G36*
X1085750Y737870D02*
X1083410D01*
X1081149Y737264D01*
X1079121Y736094D01*
X1077466Y734439D01*
X1076296Y732411D01*
X1075690Y730150D01*
Y727810D01*
X1076296Y725549D01*
X1077466Y723521D01*
X1079121Y721866D01*
X1081149Y720696D01*
X1083410Y720090D01*
X1085750D01*
X1088011Y720696D01*
X1090039Y721866D01*
X1091694Y723521D01*
X1092864Y725549D01*
X1093470Y727810D01*
Y730150D01*
X1092864Y732411D01*
X1091694Y734439D01*
X1090039Y736094D01*
X1088011Y737264D01*
X1085750Y737870D01*
D02*
G37*
G36*
X909220Y734060D02*
X906880D01*
X904619Y733454D01*
X902591Y732284D01*
X900936Y730629D01*
X899766Y728601D01*
X899160Y726340D01*
Y724000D01*
X899766Y721739D01*
X900936Y719711D01*
X902591Y718056D01*
X904619Y716886D01*
X906880Y716280D01*
X909220D01*
X911481Y716886D01*
X913509Y718056D01*
X915164Y719711D01*
X916334Y721739D01*
X916940Y724000D01*
Y726340D01*
X916334Y728601D01*
X915164Y730629D01*
X913509Y732284D01*
X911481Y733454D01*
X909220Y734060D01*
D02*
G37*
G36*
X1050190Y725170D02*
X1047850D01*
X1045589Y724564D01*
X1043561Y723394D01*
X1041906Y721739D01*
X1040736Y719711D01*
X1040130Y717450D01*
Y715110D01*
X1040736Y712849D01*
X1041906Y710821D01*
X1043561Y709166D01*
X1045589Y707996D01*
X1047850Y707390D01*
X1050190D01*
X1052451Y707996D01*
X1054479Y709166D01*
X1056134Y710821D01*
X1057304Y712849D01*
X1057910Y715110D01*
Y717450D01*
X1057304Y719711D01*
X1056134Y721739D01*
X1054479Y723394D01*
X1052451Y724564D01*
X1050190Y725170D01*
D02*
G37*
G36*
X1147980Y723900D02*
X1145640D01*
X1143379Y723294D01*
X1141351Y722124D01*
X1139696Y720469D01*
X1138526Y718441D01*
X1137920Y716180D01*
Y713840D01*
X1138526Y711579D01*
X1139696Y709551D01*
X1141351Y707896D01*
X1143379Y706726D01*
X1145640Y706120D01*
X1147980D01*
X1150241Y706726D01*
X1152269Y707896D01*
X1153924Y709551D01*
X1155094Y711579D01*
X1155700Y713840D01*
Y716180D01*
X1155094Y718441D01*
X1153924Y720469D01*
X1152269Y722124D01*
X1150241Y723294D01*
X1147980Y723900D01*
D02*
G37*
G36*
X896520Y717550D02*
X894180D01*
X891919Y716944D01*
X889891Y715774D01*
X888236Y714119D01*
X887066Y712091D01*
X886460Y709830D01*
Y707490D01*
X886685Y706651D01*
X885771Y706002D01*
X884346Y705567D01*
X883029Y706884D01*
X881001Y708054D01*
X878740Y708660D01*
X876400D01*
X874139Y708054D01*
X872111Y706884D01*
X870456Y705229D01*
X869286Y703201D01*
X868680Y700940D01*
Y698600D01*
X869286Y696339D01*
X870456Y694311D01*
X872111Y692656D01*
X874139Y691486D01*
X876400Y690880D01*
X878740D01*
X881001Y691486D01*
X883029Y692656D01*
X884684Y694311D01*
X885854Y696339D01*
X886460Y698600D01*
Y700940D01*
X886235Y701779D01*
X887149Y702428D01*
X888574Y702863D01*
X889891Y701546D01*
X891919Y700376D01*
X894180Y699770D01*
X896520D01*
X898781Y700376D01*
X900809Y701546D01*
X902464Y703201D01*
X903634Y705229D01*
X904240Y707490D01*
Y709830D01*
X903634Y712091D01*
X902464Y714119D01*
X900809Y715774D01*
X898781Y716944D01*
X896520Y717550D01*
D02*
G37*
G36*
X1085750D02*
X1083410D01*
X1081149Y716944D01*
X1079121Y715774D01*
X1077466Y714119D01*
X1076296Y712091D01*
X1075690Y709830D01*
Y707490D01*
X1076296Y705229D01*
X1077466Y703201D01*
X1079121Y701546D01*
X1081149Y700376D01*
X1083410Y699770D01*
X1085750D01*
X1088011Y700376D01*
X1090039Y701546D01*
X1091694Y703201D01*
X1092864Y705229D01*
X1093470Y707490D01*
Y709830D01*
X1092864Y712091D01*
X1091694Y714119D01*
X1090039Y715774D01*
X1088011Y716944D01*
X1085750Y717550D01*
D02*
G37*
G36*
X782220Y706120D02*
X779880D01*
X777619Y705514D01*
X775591Y704344D01*
X773936Y702689D01*
X772766Y700661D01*
X772160Y698400D01*
Y696060D01*
X772766Y693799D01*
X773936Y691771D01*
X775591Y690116D01*
X777619Y688946D01*
X779880Y688340D01*
X782220D01*
X784481Y688946D01*
X786509Y690116D01*
X788164Y691771D01*
X789334Y693799D01*
X789940Y696060D01*
Y698400D01*
X789334Y700661D01*
X788164Y702689D01*
X786509Y704344D01*
X784481Y705514D01*
X782220Y706120D01*
D02*
G37*
G36*
X704918Y701160D02*
X702242D01*
X699658Y700467D01*
X697342Y699130D01*
X695450Y697238D01*
X694112Y694921D01*
X693420Y692337D01*
Y689662D01*
X694112Y687078D01*
X695450Y684761D01*
X697342Y682869D01*
X699658Y681532D01*
X702242Y680839D01*
X704918D01*
X707502Y681532D01*
X709818Y682869D01*
X711710Y684761D01*
X713048Y687078D01*
X713740Y689662D01*
Y692337D01*
X713048Y694921D01*
X711710Y697238D01*
X709818Y699130D01*
X707502Y700467D01*
X704918Y701160D01*
D02*
G37*
G36*
X666818D02*
X664142D01*
X661558Y700467D01*
X659242Y699130D01*
X657350Y697238D01*
X656012Y694921D01*
X655320Y692337D01*
Y689662D01*
X656012Y687078D01*
X657350Y684761D01*
X659242Y682869D01*
X661558Y681532D01*
X664142Y680839D01*
X666818D01*
X669402Y681532D01*
X671718Y682869D01*
X673610Y684761D01*
X674948Y687078D01*
X675640Y689662D01*
Y692337D01*
X674948Y694921D01*
X673610Y697238D01*
X671718Y699130D01*
X669402Y700467D01*
X666818Y701160D01*
D02*
G37*
G36*
X590618D02*
X587942D01*
X585358Y700467D01*
X583042Y699130D01*
X581150Y697238D01*
X579812Y694921D01*
X579120Y692337D01*
Y689662D01*
X579812Y687078D01*
X581150Y684761D01*
X583042Y682869D01*
X585358Y681532D01*
X587942Y680839D01*
X590618D01*
X593202Y681532D01*
X595518Y682869D01*
X597410Y684761D01*
X598748Y687078D01*
X599440Y689662D01*
Y692337D01*
X598748Y694921D01*
X597410Y697238D01*
X595518Y699130D01*
X593202Y700467D01*
X590618Y701160D01*
D02*
G37*
G36*
X1031308Y698500D02*
X1028632D01*
X1026048Y697808D01*
X1023732Y696470D01*
X1021840Y694578D01*
X1020502Y692262D01*
X1019810Y689678D01*
Y687002D01*
X1020502Y684418D01*
X1021840Y682102D01*
X1023732Y680210D01*
X1026048Y678872D01*
X1028632Y678180D01*
X1031308D01*
X1033892Y678872D01*
X1036208Y680210D01*
X1038100Y682102D01*
X1039438Y684418D01*
X1040130Y687002D01*
Y689678D01*
X1039438Y692262D01*
X1038100Y694578D01*
X1036208Y696470D01*
X1033892Y697808D01*
X1031308Y698500D01*
D02*
G37*
G36*
X993208D02*
X990532D01*
X987948Y697808D01*
X985632Y696470D01*
X983740Y694578D01*
X982402Y692262D01*
X981710Y689678D01*
Y687002D01*
X982402Y684418D01*
X983740Y682102D01*
X985632Y680210D01*
X987948Y678872D01*
X990532Y678180D01*
X993208D01*
X995792Y678872D01*
X998108Y680210D01*
X1000000Y682102D01*
X1001338Y684418D01*
X1002030Y687002D01*
Y689678D01*
X1001338Y692262D01*
X1000000Y694578D01*
X998108Y696470D01*
X995792Y697808D01*
X993208Y698500D01*
D02*
G37*
G36*
X917008D02*
X914332D01*
X911748Y697808D01*
X909432Y696470D01*
X907540Y694578D01*
X906202Y692262D01*
X905510Y689678D01*
Y687002D01*
X906202Y684418D01*
X907540Y682102D01*
X909432Y680210D01*
X911748Y678872D01*
X914332Y678180D01*
X917008D01*
X919592Y678872D01*
X921908Y680210D01*
X923800Y682102D01*
X925138Y684418D01*
X925830Y687002D01*
Y689678D01*
X925138Y692262D01*
X923800Y694578D01*
X921908Y696470D01*
X919592Y697808D01*
X917008Y698500D01*
D02*
G37*
G36*
X862230Y669290D02*
X859890D01*
X857629Y668684D01*
X855601Y667514D01*
X853946Y665859D01*
X852776Y663831D01*
X852170Y661570D01*
Y659230D01*
X852776Y656969D01*
X853946Y654941D01*
X855601Y653286D01*
X857629Y652116D01*
X859890Y651510D01*
X862230D01*
X864491Y652116D01*
X866519Y653286D01*
X868174Y654941D01*
X869344Y656969D01*
X869950Y659230D01*
Y661570D01*
X869344Y663831D01*
X868174Y665859D01*
X866519Y667514D01*
X864491Y668684D01*
X862230Y669290D01*
D02*
G37*
G36*
X807620Y683260D02*
X805280D01*
X803019Y682654D01*
X800991Y681484D01*
X799336Y679829D01*
X798166Y677801D01*
X797560Y675540D01*
Y673200D01*
X798166Y670939D01*
X799336Y668911D01*
X800991Y667256D01*
X803019Y666086D01*
X805280Y665480D01*
X807620D01*
X808481Y665711D01*
X810155Y663530D01*
X809596Y662561D01*
X808990Y660300D01*
Y657960D01*
X809596Y655699D01*
X810766Y653671D01*
X812421Y652016D01*
X814449Y650846D01*
X816710Y650240D01*
X819050D01*
X821311Y650846D01*
X823339Y652016D01*
X824994Y653671D01*
X826164Y655699D01*
X826770Y657960D01*
Y660300D01*
X826164Y662561D01*
X824994Y664589D01*
X823339Y666244D01*
X821311Y667414D01*
X819050Y668020D01*
X816710D01*
X815849Y667789D01*
X814175Y669970D01*
X814734Y670939D01*
X815340Y673200D01*
Y675540D01*
X814734Y677801D01*
X813564Y679829D01*
X811909Y681484D01*
X809881Y682654D01*
X807620Y683260D01*
D02*
G37*
G36*
X962560Y659130D02*
X960220D01*
X957959Y658524D01*
X955931Y657354D01*
X954276Y655699D01*
X953106Y653671D01*
X952500Y651410D01*
Y649070D01*
X953106Y646809D01*
X954276Y644781D01*
X955931Y643126D01*
X957959Y641956D01*
X960220Y641350D01*
X962560D01*
X964821Y641956D01*
X966849Y643126D01*
X968504Y644781D01*
X969674Y646809D01*
X970280Y649070D01*
Y651410D01*
X969674Y653671D01*
X968504Y655699D01*
X966849Y657354D01*
X964821Y658524D01*
X962560Y659130D01*
D02*
G37*
G36*
X802540Y655320D02*
X800200D01*
X797939Y654714D01*
X795911Y653544D01*
X794256Y651889D01*
X793086Y649861D01*
X792480Y647600D01*
Y645260D01*
X793086Y642999D01*
X794256Y640971D01*
X795911Y639316D01*
X797939Y638146D01*
X800200Y637540D01*
X802540D01*
X804801Y638146D01*
X806829Y639316D01*
X808484Y640971D01*
X809654Y642999D01*
X810260Y645260D01*
Y647600D01*
X809654Y649861D01*
X808484Y651889D01*
X806829Y653544D01*
X804801Y654714D01*
X802540Y655320D01*
D02*
G37*
G36*
X736790Y653760D02*
X734450D01*
X732189Y653154D01*
X730161Y651984D01*
X728506Y650329D01*
X727336Y648301D01*
X726730Y646040D01*
Y643700D01*
X727336Y641439D01*
X728506Y639411D01*
X730161Y637756D01*
X732189Y636586D01*
X734450Y635980D01*
X736790D01*
X739051Y636586D01*
X741079Y637756D01*
X742734Y639411D01*
X743904Y641439D01*
X744510Y643700D01*
Y646040D01*
X743904Y648301D01*
X742734Y650329D01*
X741079Y651984D01*
X739051Y653154D01*
X736790Y653760D01*
D02*
G37*
G36*
X839370Y652780D02*
X837030D01*
X834769Y652174D01*
X832741Y651004D01*
X831086Y649349D01*
X829916Y647321D01*
X829310Y645060D01*
Y642720D01*
X829916Y640459D01*
X831086Y638431D01*
X832741Y636776D01*
X834769Y635606D01*
X837030Y635000D01*
X839370D01*
X841631Y635606D01*
X843659Y636776D01*
X845314Y638431D01*
X846484Y640459D01*
X847090Y642720D01*
Y645060D01*
X846484Y647321D01*
X845314Y649349D01*
X843659Y651004D01*
X841631Y652174D01*
X839370Y652780D01*
D02*
G37*
G36*
X1150520Y651510D02*
X1148180D01*
X1145919Y650904D01*
X1143891Y649734D01*
X1142236Y648079D01*
X1141066Y646051D01*
X1140460Y643790D01*
Y641450D01*
X1141066Y639189D01*
X1142236Y637161D01*
X1143891Y635506D01*
X1145919Y634336D01*
X1148180Y633730D01*
X1150520D01*
X1152781Y634336D01*
X1154809Y635506D01*
X1156464Y637161D01*
X1157634Y639189D01*
X1158240Y641450D01*
Y643790D01*
X1157634Y646051D01*
X1156464Y648079D01*
X1154809Y649734D01*
X1152781Y650904D01*
X1150520Y651510D01*
D02*
G37*
G36*
X1125921Y641700D02*
X1124199D01*
X1122536Y641254D01*
X1121045Y640393D01*
X1119827Y639175D01*
X1118966Y637684D01*
X1118520Y636021D01*
Y634299D01*
X1118966Y632635D01*
X1119827Y631144D01*
X1121045Y629926D01*
X1122536Y629065D01*
X1124199Y628620D01*
X1125921D01*
X1127585Y629065D01*
X1129076Y629926D01*
X1130294Y631144D01*
X1131155Y632635D01*
X1131600Y634299D01*
Y636021D01*
X1131155Y637684D01*
X1130294Y639175D01*
X1129076Y640393D01*
X1127585Y641254D01*
X1125921Y641700D01*
D02*
G37*
G36*
X1146401Y607250D02*
X1144679D01*
X1143016Y606804D01*
X1141524Y605943D01*
X1140307Y604726D01*
X1139446Y603234D01*
X1139000Y601571D01*
Y599849D01*
X1139446Y598186D01*
X1140307Y596694D01*
X1141524Y595477D01*
X1143016Y594616D01*
X1144679Y594170D01*
X1146401D01*
X1148064Y594616D01*
X1149556Y595477D01*
X1150773Y596694D01*
X1151634Y598186D01*
X1152080Y599849D01*
Y601571D01*
X1151634Y603234D01*
X1150773Y604726D01*
X1149556Y605943D01*
X1148064Y606804D01*
X1146401Y607250D01*
D02*
G37*
G36*
X688240Y599440D02*
X685900D01*
X683639Y598834D01*
X681611Y597664D01*
X679956Y596009D01*
X679166Y594641D01*
X676937Y593978D01*
X676260Y593977D01*
X676163Y594008D01*
X674202Y594820D01*
X671998D01*
X669962Y593977D01*
X668403Y592418D01*
X667560Y590382D01*
Y588178D01*
X668403Y586142D01*
X669962Y584583D01*
X671998Y583740D01*
X674202D01*
X676238Y584583D01*
X676922Y585267D01*
X679835Y585150D01*
X679956Y585091D01*
X681611Y583436D01*
X683639Y582266D01*
X685900Y581660D01*
X688240D01*
X690501Y582266D01*
X692529Y583436D01*
X694184Y585091D01*
X695354Y587119D01*
X695960Y589380D01*
Y591720D01*
X695354Y593981D01*
X694184Y596009D01*
X692529Y597664D01*
X690501Y598834D01*
X688240Y599440D01*
D02*
G37*
G36*
X1095601Y611060D02*
X1093879D01*
X1092216Y610614D01*
X1090724Y609753D01*
X1089507Y608536D01*
X1088646Y607044D01*
X1088200Y605381D01*
Y603659D01*
X1088646Y601996D01*
X1089507Y600504D01*
X1090724Y599287D01*
X1092216Y598426D01*
X1093879Y597980D01*
X1095601D01*
X1097264Y598426D01*
X1097590Y598614D01*
X1100130Y597223D01*
Y596969D01*
X1101049Y594749D01*
X1102749Y593050D01*
X1104969Y592130D01*
X1107371D01*
X1109591Y593050D01*
X1111291Y594749D01*
X1112210Y596969D01*
Y599371D01*
X1111291Y601591D01*
X1109591Y603290D01*
X1107371Y604210D01*
X1104969D01*
X1103820Y603734D01*
X1101387Y605081D01*
X1101280Y605222D01*
Y605381D01*
X1100834Y607044D01*
X1099973Y608536D01*
X1098756Y609753D01*
X1097264Y610614D01*
X1095601Y611060D01*
D02*
G37*
G36*
X805080Y590550D02*
X802740D01*
X800479Y589944D01*
X798451Y588774D01*
X796796Y587119D01*
X795626Y585091D01*
X795020Y582830D01*
Y580490D01*
X795626Y578229D01*
X796796Y576201D01*
X798451Y574546D01*
X800479Y573376D01*
X802740Y572770D01*
X805080D01*
X807341Y573376D01*
X809369Y574546D01*
X811024Y576201D01*
X812194Y578229D01*
X812800Y580490D01*
Y582830D01*
X812194Y585091D01*
X811024Y587119D01*
X809369Y588774D01*
X807341Y589944D01*
X805080Y590550D01*
D02*
G37*
G36*
X1130200Y588010D02*
X1127860D01*
X1125599Y587404D01*
X1123571Y586234D01*
X1121916Y584579D01*
X1120746Y582551D01*
X1120140Y580290D01*
Y577950D01*
X1120746Y575689D01*
X1121916Y573661D01*
X1123571Y572006D01*
X1125599Y570836D01*
X1127860Y570230D01*
X1130200D01*
X1132461Y570836D01*
X1134489Y572006D01*
X1136144Y573661D01*
X1137314Y575689D01*
X1137920Y577950D01*
Y580290D01*
X1137314Y582551D01*
X1136144Y584579D01*
X1134489Y586234D01*
X1132461Y587404D01*
X1130200Y588010D01*
D02*
G37*
G36*
X664042Y579580D02*
X661838D01*
X659802Y578737D01*
X658243Y577178D01*
X657400Y575142D01*
Y572938D01*
X658243Y570902D01*
X659802Y569343D01*
X661838Y568500D01*
X664042D01*
X666078Y569343D01*
X667637Y570902D01*
X668480Y572938D01*
Y575142D01*
X667637Y577178D01*
X666078Y578737D01*
X664042Y579580D01*
D02*
G37*
G36*
X1047650Y574040D02*
X1045310D01*
X1043049Y573434D01*
X1041021Y572264D01*
X1039366Y570609D01*
X1038196Y568581D01*
X1037590Y566320D01*
Y563980D01*
X1038196Y561719D01*
X1039366Y559691D01*
X1041021Y558036D01*
X1043049Y556866D01*
X1045310Y556260D01*
X1047650D01*
X1049911Y556866D01*
X1051939Y558036D01*
X1053594Y559691D01*
X1054764Y561719D01*
X1055370Y563980D01*
Y566320D01*
X1054764Y568581D01*
X1053594Y570609D01*
X1051939Y572264D01*
X1049911Y573434D01*
X1047650Y574040D01*
D02*
G37*
G36*
X1027330Y571500D02*
X1024990D01*
X1022729Y570894D01*
X1020701Y569724D01*
X1019046Y568069D01*
X1017876Y566041D01*
X1017270Y563780D01*
Y561440D01*
X1017876Y559179D01*
X1019046Y557151D01*
X1020701Y555496D01*
X1022729Y554326D01*
X1024990Y553720D01*
X1027330D01*
X1029591Y554326D01*
X1031619Y555496D01*
X1033274Y557151D01*
X1034444Y559179D01*
X1035050Y561440D01*
Y563780D01*
X1034444Y566041D01*
X1033274Y568069D01*
X1031619Y569724D01*
X1029591Y570894D01*
X1027330Y571500D01*
D02*
G37*
G36*
X681890Y563880D02*
X679550D01*
X677289Y563274D01*
X675261Y562104D01*
X673606Y560449D01*
X672436Y558421D01*
X671830Y556160D01*
Y553820D01*
X672436Y551559D01*
X673606Y549531D01*
X675261Y547876D01*
X677289Y546706D01*
X679550Y546100D01*
X681890D01*
X684151Y546706D01*
X686179Y547876D01*
X687834Y549531D01*
X689004Y551559D01*
X689610Y553820D01*
Y556160D01*
X689004Y558421D01*
X687834Y560449D01*
X686179Y562104D01*
X684151Y563274D01*
X681890Y563880D01*
D02*
G37*
G36*
X1090830Y558800D02*
X1088490D01*
X1086229Y558194D01*
X1084201Y557024D01*
X1082546Y555369D01*
X1081376Y553341D01*
X1080770Y551080D01*
Y548740D01*
X1081376Y546479D01*
X1082546Y544451D01*
X1084201Y542796D01*
X1086229Y541626D01*
X1088490Y541020D01*
X1090830D01*
X1093091Y541626D01*
X1095119Y542796D01*
X1096774Y544451D01*
X1097944Y546479D01*
X1098550Y548740D01*
Y551080D01*
X1097944Y553341D01*
X1096774Y555369D01*
X1095119Y557024D01*
X1093091Y558194D01*
X1090830Y558800D01*
D02*
G37*
G36*
X1070510Y557530D02*
X1068170D01*
X1065909Y556924D01*
X1063881Y555754D01*
X1062226Y554099D01*
X1061056Y552071D01*
X1060450Y549810D01*
Y547470D01*
X1061056Y545209D01*
X1062226Y543181D01*
X1063881Y541526D01*
X1065909Y540356D01*
X1068170Y539750D01*
X1070510D01*
X1072771Y540356D01*
X1074799Y541526D01*
X1076454Y543181D01*
X1077624Y545209D01*
X1078230Y547470D01*
Y549810D01*
X1077624Y552071D01*
X1076454Y554099D01*
X1074799Y555754D01*
X1072771Y556924D01*
X1070510Y557530D01*
D02*
G37*
G36*
X1117531Y548330D02*
X1115129D01*
X1112909Y547411D01*
X1111209Y545711D01*
X1110290Y543491D01*
Y541089D01*
X1111209Y538869D01*
X1112909Y537169D01*
X1115129Y536250D01*
X1117531D01*
X1119751Y537169D01*
X1121451Y538869D01*
X1122370Y541089D01*
Y543491D01*
X1121451Y545711D01*
X1119751Y547411D01*
X1117531Y548330D01*
D02*
G37*
G36*
X982880Y548640D02*
X980540D01*
X978279Y548034D01*
X976251Y546864D01*
X974596Y545209D01*
X973426Y543181D01*
X972820Y540920D01*
Y538580D01*
X973426Y536319D01*
X974596Y534291D01*
X976251Y532636D01*
X978279Y531466D01*
X980540Y530860D01*
X982880D01*
X985141Y531466D01*
X987169Y532636D01*
X988824Y534291D01*
X989994Y536319D01*
X990600Y538580D01*
Y540920D01*
X989994Y543181D01*
X988824Y545209D01*
X987169Y546864D01*
X985141Y548034D01*
X982880Y548640D01*
D02*
G37*
G36*
X603150Y543560D02*
X600810D01*
X598549Y542954D01*
X596521Y541784D01*
X594866Y540129D01*
X593696Y538101D01*
X593090Y535840D01*
Y533500D01*
X593696Y531239D01*
X594866Y529211D01*
X596521Y527556D01*
X598549Y526386D01*
X600810Y525780D01*
X603150D01*
X605411Y526386D01*
X607439Y527556D01*
X609094Y529211D01*
X610264Y531239D01*
X610870Y533500D01*
Y535840D01*
X610264Y538101D01*
X609094Y540129D01*
X607439Y541784D01*
X605411Y542954D01*
X603150Y543560D01*
D02*
G37*
G36*
X1029960Y543470D02*
X1027620D01*
X1025359Y542864D01*
X1023331Y541694D01*
X1021676Y540039D01*
X1020506Y538011D01*
X1019900Y535750D01*
Y533410D01*
X1020506Y531149D01*
X1021676Y529121D01*
X1023331Y527466D01*
X1025359Y526296D01*
X1027620Y525690D01*
X1029960D01*
X1032221Y526296D01*
X1034249Y527466D01*
X1035904Y529121D01*
X1037074Y531149D01*
X1037680Y533410D01*
Y535750D01*
X1037074Y538011D01*
X1035904Y540039D01*
X1034249Y541694D01*
X1032221Y542864D01*
X1029960Y543470D01*
D02*
G37*
G36*
X687170Y519230D02*
X684830D01*
X682569Y518624D01*
X680541Y517454D01*
X678886Y515799D01*
X677716Y513771D01*
X677110Y511510D01*
Y509170D01*
X677716Y506909D01*
X678886Y504881D01*
X680541Y503226D01*
X682569Y502056D01*
X684830Y501450D01*
X687170D01*
X689431Y502056D01*
X691459Y503226D01*
X693114Y504881D01*
X694284Y506909D01*
X694890Y509170D01*
Y511510D01*
X694284Y513771D01*
X693114Y515799D01*
X691459Y517454D01*
X689431Y518624D01*
X687170Y519230D01*
D02*
G37*
G36*
X603150Y516890D02*
X600810D01*
X598549Y516284D01*
X596521Y515114D01*
X594866Y513459D01*
X593696Y511431D01*
X593090Y509170D01*
Y506830D01*
X593696Y504569D01*
X594866Y502541D01*
X596521Y500886D01*
X598549Y499716D01*
X600810Y499110D01*
X603150D01*
X605411Y499716D01*
X607439Y500886D01*
X609094Y502541D01*
X610264Y504569D01*
X610870Y506830D01*
Y509170D01*
X610264Y511431D01*
X609094Y513459D01*
X607439Y515114D01*
X605411Y516284D01*
X603150Y516890D01*
D02*
G37*
G36*
X1134010Y488950D02*
X1131670D01*
X1129409Y488344D01*
X1127381Y487174D01*
X1125726Y485519D01*
X1124556Y483491D01*
X1123950Y481230D01*
Y478890D01*
X1124556Y476629D01*
X1125726Y474601D01*
X1127381Y472946D01*
X1129409Y471776D01*
X1131670Y471170D01*
X1134010D01*
X1136271Y471776D01*
X1138299Y472946D01*
X1139954Y474601D01*
X1141124Y476629D01*
X1141730Y478890D01*
Y481230D01*
X1141124Y483491D01*
X1139954Y485519D01*
X1138299Y487174D01*
X1136271Y488344D01*
X1134010Y488950D01*
D02*
G37*
G36*
X618390Y478790D02*
X616050D01*
X613789Y478184D01*
X611761Y477014D01*
X610106Y475359D01*
X608936Y473331D01*
X608330Y471070D01*
Y468730D01*
X608936Y466469D01*
X610106Y464441D01*
X611761Y462786D01*
X613789Y461616D01*
X616050Y461010D01*
X618390D01*
X620651Y461616D01*
X622679Y462786D01*
X624334Y464441D01*
X625504Y466469D01*
X626110Y468730D01*
Y471070D01*
X625504Y473331D01*
X624334Y475359D01*
X622679Y477014D01*
X620651Y478184D01*
X618390Y478790D01*
D02*
G37*
G36*
X688395Y465064D02*
X686054D01*
X683793Y464458D01*
X681766Y463288D01*
X680110Y461633D01*
X678940Y459606D01*
X678334Y457345D01*
Y455004D01*
X678940Y452743D01*
X680110Y450716D01*
X681766Y449060D01*
X683793Y447890D01*
X686054Y447284D01*
X688395D01*
X690656Y447890D01*
X692683Y449060D01*
X694338Y450716D01*
X695508Y452743D01*
X696114Y455004D01*
Y457345D01*
X695508Y459606D01*
X694338Y461633D01*
X692683Y463288D01*
X690656Y464458D01*
X688395Y465064D01*
D02*
G37*
G36*
X675540Y444500D02*
X673200D01*
X670939Y443894D01*
X668911Y442724D01*
X667385Y441197D01*
X665859Y442724D01*
X663831Y443894D01*
X661570Y444500D01*
X659230D01*
X656969Y443894D01*
X654941Y442724D01*
X653286Y441069D01*
X652116Y439041D01*
X651510Y436780D01*
Y434440D01*
X652116Y432179D01*
X653286Y430151D01*
X654941Y428496D01*
X656969Y427326D01*
X659230Y426720D01*
X661570D01*
X663831Y427326D01*
X665859Y428496D01*
X667385Y430023D01*
X668911Y428496D01*
X670939Y427326D01*
X673200Y426720D01*
X675540D01*
X677801Y427326D01*
X679829Y428496D01*
X681484Y430151D01*
X682654Y432179D01*
X683260Y434440D01*
Y436780D01*
X682654Y439041D01*
X681484Y441069D01*
X679829Y442724D01*
X677801Y443894D01*
X675540Y444500D01*
D02*
G37*
G36*
X984110Y509230D02*
X981770D01*
X979509Y508624D01*
X977481Y507454D01*
X975826Y505799D01*
X974656Y503771D01*
X974050Y501510D01*
Y499170D01*
X974656Y496909D01*
X975826Y494881D01*
X976239Y494469D01*
X976416Y491773D01*
X976036Y491255D01*
X975207Y490426D01*
X974346Y488934D01*
X973900Y487271D01*
Y485549D01*
X974346Y483886D01*
X975207Y482394D01*
X976424Y481177D01*
X977916Y480316D01*
X979579Y479870D01*
X981120D01*
X982627Y478113D01*
X981739Y475835D01*
X979549Y475248D01*
X977521Y474077D01*
X975866Y472422D01*
X974696Y470395D01*
X974090Y468134D01*
Y465793D01*
X974696Y463532D01*
X975866Y461505D01*
X977521Y459850D01*
X979549Y458680D01*
X981810Y458074D01*
X984150D01*
X986411Y458680D01*
X988439Y459850D01*
X990094Y461505D01*
X991264Y463532D01*
X991648Y463657D01*
X994319Y463247D01*
X995161Y461987D01*
X1012855Y444293D01*
X1014115Y443451D01*
X1015602Y443155D01*
X1027201D01*
X1027277Y443024D01*
X1028494Y441807D01*
X1029986Y440946D01*
X1031649Y440500D01*
X1033371D01*
X1035034Y440946D01*
X1036526Y441807D01*
X1037743Y443024D01*
X1038604Y444516D01*
X1039050Y446179D01*
Y447901D01*
X1038604Y449564D01*
X1037743Y451056D01*
X1036526Y452273D01*
X1035034Y453134D01*
X1033371Y453580D01*
X1031649D01*
X1029986Y453134D01*
X1028633Y452353D01*
X1028260Y452445D01*
X1027333Y453776D01*
X1026824Y455039D01*
X1027430Y457300D01*
Y459640D01*
X1026824Y461901D01*
X1025654Y463929D01*
X1023999Y465584D01*
X1021971Y466754D01*
X1019710Y467360D01*
X1018513Y469900D01*
X1018540Y470000D01*
Y472340D01*
X1017934Y474601D01*
X1016764Y476629D01*
X1015109Y478284D01*
X1013081Y479454D01*
X1010820Y480060D01*
X1008480D01*
X1006219Y479454D01*
X1004191Y478284D01*
X1002536Y476629D01*
X1001366Y474601D01*
X1001359Y474577D01*
X998526Y473817D01*
X986941Y485403D01*
X986980Y485549D01*
Y487271D01*
X986534Y488934D01*
X986266Y489398D01*
X986300Y490248D01*
X986867Y492092D01*
X987173Y492518D01*
X988399Y493226D01*
X990054Y494881D01*
X991224Y496909D01*
X991830Y499170D01*
Y501510D01*
X991224Y503771D01*
X990054Y505799D01*
X988399Y507454D01*
X986371Y508624D01*
X984110Y509230D01*
D02*
G37*
G36*
X1152170Y444500D02*
X1149830D01*
X1147569Y443894D01*
X1145541Y442724D01*
X1143886Y441069D01*
X1142716Y439041D01*
X1142110Y436780D01*
Y434440D01*
X1142716Y432179D01*
X1143886Y430151D01*
X1145541Y428496D01*
X1147569Y427326D01*
X1149830Y426720D01*
X1152170D01*
X1154431Y427326D01*
X1156459Y428496D01*
X1158114Y430151D01*
X1159284Y432179D01*
X1159890Y434440D01*
Y436780D01*
X1159284Y439041D01*
X1158114Y441069D01*
X1156459Y442724D01*
X1154431Y443894D01*
X1152170Y444500D01*
D02*
G37*
G36*
X983755Y455534D02*
X981414D01*
X979153Y454928D01*
X977126Y453757D01*
X975471Y452102D01*
X974300Y450075D01*
X973694Y447814D01*
Y445473D01*
X974300Y443212D01*
X975471Y441185D01*
X976607Y440049D01*
X977033Y438927D01*
X976713Y436835D01*
X975866Y435989D01*
X974696Y433961D01*
X974090Y431700D01*
Y429360D01*
X974696Y427099D01*
X975866Y425071D01*
X977521Y423416D01*
X979549Y422246D01*
X981810Y421640D01*
X984150D01*
X986411Y422246D01*
X988439Y423416D01*
X990094Y425071D01*
X991264Y427099D01*
X991870Y429360D01*
Y431700D01*
X991264Y433961D01*
X990094Y435989D01*
X988958Y437125D01*
X988531Y438247D01*
X988851Y440338D01*
X989698Y441185D01*
X990869Y443212D01*
X991474Y445473D01*
Y447814D01*
X990869Y450075D01*
X989698Y452102D01*
X988043Y453757D01*
X986016Y454928D01*
X983755Y455534D01*
D02*
G37*
G36*
X511710Y438150D02*
X509370D01*
X507109Y437544D01*
X505081Y436374D01*
X503426Y434719D01*
X502256Y432691D01*
X501650Y430430D01*
Y428090D01*
X502256Y425829D01*
X503426Y423801D01*
X505081Y422146D01*
X507109Y420976D01*
X509370Y420370D01*
X511710D01*
X513971Y420976D01*
X515999Y422146D01*
X517654Y423801D01*
X518824Y425829D01*
X519430Y428090D01*
Y430430D01*
X518824Y432691D01*
X517654Y434719D01*
X515999Y436374D01*
X513971Y437544D01*
X511710Y438150D01*
D02*
G37*
G36*
X940970Y425450D02*
X938630D01*
X936369Y424844D01*
X934341Y423674D01*
X932686Y422019D01*
X931516Y419991D01*
X930910Y417730D01*
Y415390D01*
X931516Y413129D01*
X932686Y411101D01*
X934341Y409446D01*
X936369Y408276D01*
X938630Y407670D01*
X940970D01*
X943231Y408276D01*
X945259Y409446D01*
X946914Y411101D01*
X948084Y413129D01*
X948690Y415390D01*
Y417730D01*
X948084Y419991D01*
X946914Y422019D01*
X945259Y423674D01*
X943231Y424844D01*
X940970Y425450D01*
D02*
G37*
G36*
X685330Y404230D02*
X682990D01*
X680729Y403624D01*
X678701Y402454D01*
X677046Y400799D01*
X675876Y398771D01*
X675270Y396510D01*
Y394170D01*
X675876Y391909D01*
X677046Y389881D01*
X678701Y388226D01*
X680729Y387056D01*
X682990Y386450D01*
X685330D01*
X687591Y387056D01*
X689619Y388226D01*
X691274Y389881D01*
X692444Y391909D01*
X693050Y394170D01*
Y396510D01*
X692444Y398771D01*
X691274Y400799D01*
X689619Y402454D01*
X687591Y403624D01*
X685330Y404230D01*
D02*
G37*
G36*
X665380Y392430D02*
X663040D01*
X660779Y391824D01*
X658751Y390654D01*
X657096Y388999D01*
X655926Y386971D01*
X655320Y384710D01*
Y382370D01*
X655926Y380109D01*
X657096Y378081D01*
X658751Y376426D01*
X660779Y375256D01*
X663040Y374650D01*
X665380D01*
X667641Y375256D01*
X669669Y376426D01*
X671324Y378081D01*
X672494Y380109D01*
X673100Y382370D01*
Y384710D01*
X672494Y386971D01*
X671324Y388999D01*
X669669Y390654D01*
X667641Y391824D01*
X665380Y392430D01*
D02*
G37*
G36*
X963830Y386080D02*
X961490D01*
X959229Y385474D01*
X957201Y384304D01*
X955546Y382649D01*
X954376Y380621D01*
X953770Y378360D01*
Y376020D01*
X954376Y373759D01*
X955546Y371731D01*
X957201Y370076D01*
X959229Y368906D01*
X961490Y368300D01*
X963830D01*
X966091Y368906D01*
X968119Y370076D01*
X969774Y371731D01*
X970944Y373759D01*
X971550Y376020D01*
Y378360D01*
X970944Y380621D01*
X969774Y382649D01*
X968119Y384304D01*
X966091Y385474D01*
X963830Y386080D01*
D02*
G37*
G36*
X862230Y360680D02*
X859890D01*
X857629Y360074D01*
X855601Y358904D01*
X853946Y357249D01*
X852776Y355221D01*
X852170Y352960D01*
Y350620D01*
X852776Y348359D01*
X853946Y346331D01*
X855601Y344676D01*
X857629Y343506D01*
X859890Y342900D01*
X862230D01*
X864491Y343506D01*
X866519Y344676D01*
X868174Y346331D01*
X869344Y348359D01*
X869950Y350620D01*
Y352960D01*
X869344Y355221D01*
X868174Y357249D01*
X866519Y358904D01*
X864491Y360074D01*
X862230Y360680D01*
D02*
G37*
G36*
X651101Y294830D02*
X649379D01*
X647716Y294384D01*
X646224Y293523D01*
X645007Y292306D01*
X644146Y290814D01*
X643700Y289151D01*
Y287429D01*
X644146Y285766D01*
X645007Y284274D01*
X646224Y283057D01*
X647716Y282196D01*
X649379Y281750D01*
X651101D01*
X652764Y282196D01*
X654256Y283057D01*
X655473Y284274D01*
X656334Y285766D01*
X656780Y287429D01*
Y289151D01*
X656334Y290814D01*
X655473Y292306D01*
X654256Y293523D01*
X652764Y294384D01*
X651101Y294830D01*
D02*
G37*
G36*
X612040Y295910D02*
X609700D01*
X607439Y295304D01*
X605411Y294134D01*
X603756Y292479D01*
X602586Y290451D01*
X601980Y288190D01*
Y285850D01*
X602586Y283589D01*
X603756Y281561D01*
X605411Y279906D01*
X607439Y278736D01*
X609700Y278130D01*
X612040D01*
X614301Y278736D01*
X616329Y279906D01*
X617984Y281561D01*
X619154Y283589D01*
X619760Y285850D01*
Y288190D01*
X619154Y290451D01*
X617984Y292479D01*
X616329Y294134D01*
X614301Y295304D01*
X612040Y295910D01*
D02*
G37*
G36*
X632450Y293843D02*
X630110D01*
X627849Y293238D01*
X625821Y292067D01*
X624166Y290412D01*
X622996Y288385D01*
X622390Y286124D01*
Y283783D01*
X622996Y281522D01*
X624166Y279495D01*
X625821Y277840D01*
X627849Y276669D01*
X630110Y276063D01*
X632450D01*
X634711Y276669D01*
X636739Y277840D01*
X638394Y279495D01*
X639564Y281522D01*
X640170Y283783D01*
Y286124D01*
X639564Y288385D01*
X638394Y290412D01*
X636739Y292067D01*
X634711Y293238D01*
X632450Y293843D01*
D02*
G37*
G36*
X780950Y284480D02*
X778610D01*
X776349Y283874D01*
X774321Y282704D01*
X772666Y281049D01*
X771496Y279021D01*
X770890Y276760D01*
Y274420D01*
X771496Y272159D01*
X772666Y270131D01*
X774321Y268476D01*
X776349Y267306D01*
X778610Y266700D01*
X780950D01*
X783211Y267306D01*
X785239Y268476D01*
X786894Y270131D01*
X788064Y272159D01*
X788670Y274420D01*
Y276760D01*
X788064Y279021D01*
X786894Y281049D01*
X785239Y282704D01*
X783211Y283874D01*
X780950Y284480D01*
D02*
G37*
G36*
X858420Y271780D02*
X856080D01*
X853819Y271174D01*
X851791Y270004D01*
X850136Y268349D01*
X848966Y266321D01*
X848814Y265755D01*
X848149Y265393D01*
X846012Y265111D01*
X844929Y266194D01*
X842901Y267364D01*
X840640Y267970D01*
X838300D01*
X836039Y267364D01*
X834011Y266194D01*
X832356Y264539D01*
X831186Y262511D01*
X830580Y260250D01*
Y257910D01*
X831186Y255649D01*
X832356Y253621D01*
X834011Y251966D01*
X836039Y250796D01*
X838300Y250190D01*
X840640D01*
X842901Y250796D01*
X844929Y251966D01*
X846584Y253621D01*
X847754Y255649D01*
X847906Y256215D01*
X848571Y256577D01*
X850708Y256859D01*
X851791Y255776D01*
X853819Y254606D01*
X856080Y254000D01*
X858420D01*
X860681Y254606D01*
X862709Y255776D01*
X864364Y257431D01*
X865534Y259459D01*
X866140Y261720D01*
Y264060D01*
X865534Y266321D01*
X864364Y268349D01*
X862709Y270004D01*
X860681Y271174D01*
X858420Y271780D01*
D02*
G37*
G36*
X613310Y269240D02*
X610970D01*
X608709Y268634D01*
X606681Y267464D01*
X605026Y265809D01*
X603856Y263781D01*
X603250Y261520D01*
Y259180D01*
X603856Y256919D01*
X605026Y254891D01*
X606681Y253236D01*
X608709Y252066D01*
X610970Y251460D01*
X613310D01*
X615571Y252066D01*
X617599Y253236D01*
X619254Y254891D01*
X620424Y256919D01*
X621030Y259180D01*
Y261520D01*
X620424Y263781D01*
X619254Y265809D01*
X617599Y267464D01*
X615571Y268634D01*
X613310Y269240D01*
D02*
G37*
G36*
X958441Y250380D02*
X956719D01*
X955056Y249934D01*
X953564Y249073D01*
X952347Y247856D01*
X951486Y246364D01*
X951040Y244701D01*
Y242979D01*
X951486Y241316D01*
X952347Y239824D01*
X953564Y238607D01*
X955056Y237746D01*
X956719Y237300D01*
X958441D01*
X960104Y237746D01*
X961596Y238607D01*
X962813Y239824D01*
X963674Y241316D01*
X964120Y242979D01*
Y244701D01*
X963674Y246364D01*
X962813Y247856D01*
X961596Y249073D01*
X960104Y249934D01*
X958441Y250380D01*
D02*
G37*
G36*
X1056540Y250190D02*
X1054200D01*
X1051939Y249584D01*
X1049911Y248414D01*
X1048256Y246759D01*
X1047086Y244731D01*
X1046480Y242470D01*
Y240130D01*
X1047086Y237869D01*
X1048256Y235841D01*
X1049911Y234186D01*
X1051939Y233016D01*
X1054200Y232410D01*
X1056540D01*
X1058801Y233016D01*
X1060829Y234186D01*
X1062484Y235841D01*
X1063654Y237869D01*
X1064260Y240130D01*
Y242470D01*
X1063654Y244731D01*
X1062484Y246759D01*
X1060829Y248414D01*
X1058801Y249584D01*
X1056540Y250190D01*
D02*
G37*
G36*
X704781Y243530D02*
X702379D01*
X700159Y242610D01*
X698459Y240911D01*
X697540Y238691D01*
Y236289D01*
X698459Y234069D01*
X700159Y232369D01*
X702379Y231450D01*
X704781D01*
X707001Y232369D01*
X708700Y234069D01*
X709620Y236289D01*
Y238691D01*
X708700Y240911D01*
X707001Y242610D01*
X704781Y243530D01*
D02*
G37*
G36*
X521870Y247650D02*
X519530D01*
X517269Y247044D01*
X515241Y245874D01*
X513586Y244219D01*
X512416Y242191D01*
X511810Y239930D01*
Y237590D01*
X512416Y235329D01*
X513586Y233301D01*
X515241Y231646D01*
X517269Y230476D01*
X519530Y229870D01*
X521870D01*
X524131Y230476D01*
X526159Y231646D01*
X527814Y233301D01*
X528984Y235329D01*
X529590Y237590D01*
Y239930D01*
X528984Y242191D01*
X527814Y244219D01*
X526159Y245874D01*
X524131Y247044D01*
X521870Y247650D01*
D02*
G37*
G36*
X551080Y219710D02*
X548740D01*
X546479Y219104D01*
X544451Y217934D01*
X542796Y216279D01*
X541626Y214251D01*
X541020Y211990D01*
Y209650D01*
X541626Y207389D01*
X542796Y205361D01*
X544451Y203706D01*
X546479Y202536D01*
X548740Y201930D01*
X551080D01*
X553341Y202536D01*
X555369Y203706D01*
X557024Y205361D01*
X558194Y207389D01*
X558800Y209650D01*
Y211990D01*
X558194Y214251D01*
X557024Y216279D01*
X555369Y217934D01*
X553341Y219104D01*
X551080Y219710D01*
D02*
G37*
G36*
X1061370Y225434D02*
X1049370D01*
X1047141Y225140D01*
X1045063Y224280D01*
X1043279Y222911D01*
X1041910Y221127D01*
X1041050Y219049D01*
X1040756Y216820D01*
Y204820D01*
X1041050Y202591D01*
X1041910Y200513D01*
X1043279Y198729D01*
X1045063Y197360D01*
X1047141Y196500D01*
X1049370Y196206D01*
X1061370D01*
X1063599Y196500D01*
X1065677Y197360D01*
X1067461Y198729D01*
X1068830Y200513D01*
X1069690Y202591D01*
X1069984Y204820D01*
Y216820D01*
X1069690Y219049D01*
X1068830Y221127D01*
X1067461Y222911D01*
X1065677Y224280D01*
X1063599Y225140D01*
X1061370Y225434D01*
D02*
G37*
G36*
X859440Y226704D02*
X847440D01*
X845211Y226410D01*
X843133Y225550D01*
X841349Y224181D01*
X839980Y222397D01*
X839120Y220319D01*
X838826Y218090D01*
Y206090D01*
X839120Y203861D01*
X839980Y201783D01*
X841349Y199999D01*
X843133Y198630D01*
X845211Y197770D01*
X847440Y197476D01*
X859440D01*
X861669Y197770D01*
X863747Y198630D01*
X864988Y199583D01*
X866589Y199477D01*
X866874Y199412D01*
X867928Y198951D01*
X868527Y197914D01*
X869744Y196697D01*
X871236Y195836D01*
X872899Y195390D01*
X874621D01*
X876284Y195836D01*
X877776Y196697D01*
X878993Y197914D01*
X879854Y199406D01*
X880300Y201069D01*
Y202791D01*
X879854Y204454D01*
X878993Y205946D01*
X877776Y207163D01*
X876284Y208024D01*
X874621Y208470D01*
X872899D01*
X871236Y208024D01*
X870594Y207654D01*
X868352Y208678D01*
X868054Y209003D01*
Y218090D01*
X867760Y220319D01*
X866900Y222397D01*
X865531Y224181D01*
X863747Y225550D01*
X861669Y226410D01*
X859440Y226704D01*
D02*
G37*
G36*
X918110Y205740D02*
X915770D01*
X913509Y205134D01*
X911481Y203964D01*
X909826Y202309D01*
X908656Y200281D01*
X908050Y198020D01*
Y195680D01*
X908656Y193419D01*
X909826Y191391D01*
X911481Y189736D01*
X913509Y188566D01*
X915770Y187960D01*
X918110D01*
X920371Y188566D01*
X922399Y189736D01*
X924054Y191391D01*
X925224Y193419D01*
X925830Y195680D01*
Y198020D01*
X925224Y200281D01*
X924054Y202309D01*
X922399Y203964D01*
X920371Y205134D01*
X918110Y205740D01*
D02*
G37*
G36*
X714910Y204470D02*
X712570D01*
X710309Y203864D01*
X708281Y202694D01*
X706626Y201039D01*
X705456Y199011D01*
X704850Y196750D01*
Y194410D01*
X705456Y192149D01*
X706626Y190121D01*
X708281Y188466D01*
X710309Y187296D01*
X712570Y186690D01*
X714910D01*
X717171Y187296D01*
X719199Y188466D01*
X720854Y190121D01*
X722024Y192149D01*
X722630Y194410D01*
Y196750D01*
X722024Y199011D01*
X720854Y201039D01*
X719199Y202694D01*
X717171Y203864D01*
X714910Y204470D01*
D02*
G37*
G36*
X804554Y226630D02*
X800726D01*
X797028Y225639D01*
X793712Y223725D01*
X791005Y221018D01*
X789091Y217702D01*
X788100Y214004D01*
Y210176D01*
X789091Y206478D01*
X791005Y203162D01*
X790179Y201020D01*
X789941Y200634D01*
X787779Y200054D01*
X785751Y198884D01*
X784096Y197229D01*
X782926Y195201D01*
X782320Y192940D01*
Y190600D01*
X782926Y188339D01*
X784096Y186311D01*
X785751Y184656D01*
X787779Y183486D01*
X790040Y182880D01*
X792380D01*
X794641Y183486D01*
X796669Y184656D01*
X798324Y186311D01*
X799494Y188339D01*
X800100Y190600D01*
Y192940D01*
X799494Y195201D01*
X799461Y195259D01*
X800237Y196665D01*
X801071Y197550D01*
X804554D01*
X808252Y198541D01*
X811568Y200455D01*
X814275Y203162D01*
X816189Y206478D01*
X817180Y210176D01*
Y214004D01*
X816189Y217702D01*
X814275Y221018D01*
X811568Y223725D01*
X808252Y225639D01*
X804554Y226630D01*
D02*
G37*
G36*
X991371Y317500D02*
X989031D01*
X986769Y316894D01*
X984742Y315724D01*
X983087Y314069D01*
X981917Y312041D01*
X981311Y309780D01*
Y307440D01*
X981917Y305179D01*
X983087Y303151D01*
X984742Y301496D01*
X986769Y300326D01*
X989031Y299720D01*
X991371D01*
X993632Y300326D01*
X995659Y301496D01*
X997315Y303151D01*
X998485Y305179D01*
X999091Y307440D01*
Y309780D01*
X998485Y312041D01*
X997315Y314069D01*
X995659Y315724D01*
X993632Y316894D01*
X991371Y317500D01*
D02*
G37*
G36*
X1028600Y312420D02*
X1026260D01*
X1023999Y311814D01*
X1021971Y310644D01*
X1020316Y308989D01*
X1019146Y306961D01*
X1018540Y304700D01*
Y302360D01*
X1019146Y300099D01*
X1020316Y298071D01*
X1021971Y296416D01*
X1023999Y295246D01*
X1026260Y294640D01*
X1028600D01*
X1030861Y295246D01*
X1032889Y296416D01*
X1034544Y298071D01*
X1035714Y300099D01*
X1036320Y302360D01*
Y304700D01*
X1035714Y306961D01*
X1034544Y308989D01*
X1032889Y310644D01*
X1030861Y311814D01*
X1028600Y312420D01*
D02*
G37*
%LPD*%
D11*
X793750Y317500D02*
X831850Y279400D01*
X1122680D02*
X1143000Y259080D01*
X831850Y279400D02*
X1122680D01*
X977028Y210820D02*
X1004570D01*
X936667Y170459D02*
X977028Y210820D01*
X566141Y170459D02*
X936667D01*
X499110Y237490D02*
X566141Y170459D01*
X499110Y237490D02*
Y295038D01*
X600312Y396240D01*
X628252D01*
X676512Y347980D01*
X682388D01*
X691278Y339090D01*
X746760D01*
X755650Y347980D01*
X810658D01*
X827168Y331470D01*
X831850D01*
X848360Y314960D01*
X909320D01*
X918210Y323850D01*
X1136214Y273050D02*
X1149350D01*
X1072714Y336550D02*
X1136214Y273050D01*
X891540Y325120D02*
X902970Y336550D01*
X1072714D01*
X1015602Y447040D02*
X1032510D01*
X997908Y464733D02*
X1015602Y447040D01*
X997908Y464733D02*
Y468942D01*
X980440Y486410D02*
X997908Y468942D01*
X1178230Y1237480D02*
G03*
X1158230Y1257480I-20000J0D01*
G01*
Y157480D02*
G03*
X1178230Y177480I0J20000D01*
G01*
X498230Y1257480D02*
G03*
X478230Y1237480I0J-20000D01*
G01*
Y177480D02*
G03*
X498230Y157480I20000J0D01*
G01*
X1158230D01*
X498230Y1257480D02*
X1158230D01*
X1178230Y177480D02*
Y1237480D01*
X478230Y177480D02*
Y1237480D01*
D67*
X1139870Y1078230D02*
D03*
X524170D02*
D03*
D68*
X864870D02*
D03*
X799170D02*
D03*
D78*
X673546Y265876D02*
X724346D01*
X775970Y317500D01*
X611516Y212855D02*
X635290Y236630D01*
X598170Y212090D02*
X598935Y212855D01*
X611516D01*
X644300Y236630D02*
X673546Y265876D01*
X635290Y236630D02*
X644300D01*
D81*
X598170Y212090D02*
D03*
X802640D02*
D03*
X857250Y1199190D02*
D03*
X1004570Y210820D02*
D03*
D82*
X648970Y212090D02*
D03*
X853440D02*
D03*
X806450Y1199190D02*
D03*
X1055370Y210820D02*
D03*
D83*
X500000Y1235000D02*
D03*
X1155000D02*
D03*
Y180000D02*
D03*
X500000D02*
D03*
D84*
X510540Y429260D02*
D03*
X928370Y289560D02*
D03*
X763270Y646430D02*
D03*
X1055370Y241300D02*
D03*
X566420Y410210D02*
D03*
X544830Y447040D02*
D03*
X554990Y306070D02*
D03*
X680720Y358140D02*
D03*
X839470Y259080D02*
D03*
X857250Y262890D02*
D03*
X947420Y195580D02*
D03*
X916940Y196850D02*
D03*
X815340Y328930D02*
D03*
X779780Y275590D02*
D03*
X758370Y327480D02*
D03*
X727710Y297180D02*
D03*
X1149350Y273050D02*
D03*
X1143000Y259080D02*
D03*
X918210Y323850D02*
D03*
X891540Y325120D02*
D03*
X1104900Y323850D02*
D03*
X1120140Y313690D02*
D03*
X695960Y349250D02*
D03*
X697230Y365760D02*
D03*
X681371Y246986D02*
D03*
X793750Y317500D02*
D03*
X775970D02*
D03*
X774700Y335280D02*
D03*
X793750Y334010D02*
D03*
X571500Y306070D02*
D03*
X939800Y416560D02*
D03*
X1146810Y715010D02*
D03*
X1149350Y642620D02*
D03*
X1084580Y708660D02*
D03*
Y728980D02*
D03*
X982980Y466964D02*
D03*
X601980Y508000D02*
D03*
Y534670D02*
D03*
X680720Y554990D02*
D03*
X791210Y191770D02*
D03*
X1046480Y565150D02*
D03*
X975360Y325120D02*
D03*
X1005840Y326390D02*
D03*
X1027430Y303530D02*
D03*
X676910Y533400D02*
D03*
X781050Y697230D02*
D03*
X1049020Y716280D02*
D03*
X1018540Y458470D02*
D03*
X1009650Y471170D02*
D03*
X982584Y446644D02*
D03*
X982980Y430530D02*
D03*
X824230Y184150D02*
D03*
X989131Y265629D02*
D03*
X990201Y308610D02*
D03*
X520700Y238760D02*
D03*
X612140Y260350D02*
D03*
X583579Y180619D02*
D03*
X628650Y181610D02*
D03*
X650240Y190500D02*
D03*
X549910Y210820D02*
D03*
X610870Y287020D02*
D03*
X713740Y195580D02*
D03*
X1129030Y579120D02*
D03*
X962660Y377190D02*
D03*
X509270Y285750D02*
D03*
X908050Y300990D02*
D03*
X934720Y642620D02*
D03*
X806450Y674370D02*
D03*
X908050Y725170D02*
D03*
X895350Y708660D02*
D03*
X1026160Y562610D02*
D03*
X817880Y659130D02*
D03*
X838200Y643890D02*
D03*
X861060Y660400D02*
D03*
X678180Y337820D02*
D03*
X877570Y699770D02*
D03*
X664210Y383540D02*
D03*
X1069340Y548640D02*
D03*
X1089660Y549910D02*
D03*
X687224Y456174D02*
D03*
X1151000Y435610D02*
D03*
X1132840Y480060D02*
D03*
X609600Y570230D02*
D03*
X803910Y581660D02*
D03*
X1106170Y834390D02*
D03*
X961390Y650240D02*
D03*
X617220Y469900D02*
D03*
X660400Y435610D02*
D03*
X674370D02*
D03*
X604520Y386080D02*
D03*
X631280Y284953D02*
D03*
X736083Y1173997D02*
D03*
X826770Y350520D02*
D03*
X981710Y539750D02*
D03*
X801370Y646430D02*
D03*
X735620Y644870D02*
D03*
X686000Y510340D02*
D03*
X684160Y395340D02*
D03*
X687070Y590550D02*
D03*
X982940Y500340D02*
D03*
X861060Y351790D02*
D03*
X1028790Y534580D02*
D03*
X1049020Y403860D02*
D03*
X1032510D02*
D03*
X1125220Y755650D02*
D03*
X1041400Y786130D02*
D03*
X853440Y932180D02*
D03*
X844550Y977900D02*
D03*
X1146810Y854710D02*
D03*
X661670Y337820D02*
D03*
X951230Y904240D02*
D03*
X1035050Y976630D02*
D03*
X718820Y1012190D02*
D03*
X641210Y933310D02*
D03*
X539750Y801370D02*
D03*
X1132840Y812800D02*
D03*
X1035050Y930910D02*
D03*
X1021080D02*
D03*
X523222Y892828D02*
D03*
X635000Y979170D02*
D03*
X650240Y979310D02*
D03*
X925830Y1177290D02*
D03*
D85*
X662940Y574040D02*
D03*
X673100Y589280D02*
D03*
D86*
X957580Y243840D02*
D03*
X1032510Y447040D02*
D03*
X980440Y486410D02*
D03*
X1125060Y635160D02*
D03*
X873760Y201930D02*
D03*
X650240Y288290D02*
D03*
X1145540Y600710D02*
D03*
X1094740Y604520D02*
D03*
D87*
X1106170Y598170D02*
D03*
X703580Y237490D02*
D03*
X1116330Y542290D02*
D03*
D88*
X958850Y612140D02*
D03*
D89*
X1068070Y840740D02*
D03*
X1029970D02*
D03*
X953770D02*
D03*
X915670D02*
D03*
Y688340D02*
D03*
X953770D02*
D03*
X991870D02*
D03*
X1029970D02*
D03*
X1068070D02*
D03*
X741680Y691000D02*
D03*
X703580D02*
D03*
X665480D02*
D03*
X627380D02*
D03*
X589280D02*
D03*
Y843400D02*
D03*
X627380D02*
D03*
X703580D02*
D03*
X741680D02*
D03*
M02*
