G04*
G04 #@! TF.GenerationSoftware,Altium Limited,Altium Designer,25.2.1 (25)*
G04*
G04 Layer_Physical_Order=1*
G04 Layer_Color=255*
%FSLAX44Y44*%
%MOMM*%
G71*
G04*
G04 #@! TF.SameCoordinates,245930A5-F2C7-430A-BF85-77EB81D10B19*
G04*
G04*
G04 #@! TF.FilePolarity,Positive*
G04*
G01*
G75*
%ADD11C,0.2540*%
%ADD17R,0.8000X0.6000*%
%ADD18R,3.4000X2.1000*%
%ADD19R,0.8000X1.0000*%
%ADD20R,1.4000X1.5000*%
%ADD21R,6.8000X5.5000*%
%ADD22R,1.7000X0.9500*%
G04:AMPARAMS|DCode=23|XSize=0.881mm|YSize=0.2425mm|CornerRadius=0.1212mm|HoleSize=0mm|Usage=FLASHONLY|Rotation=0.000|XOffset=0mm|YOffset=0mm|HoleType=Round|Shape=RoundedRectangle|*
%AMROUNDEDRECTD23*
21,1,0.8810,0.0000,0,0,0.0*
21,1,0.6385,0.2425,0,0,0.0*
1,1,0.2425,0.3193,0.0000*
1,1,0.2425,-0.3193,0.0000*
1,1,0.2425,-0.3193,0.0000*
1,1,0.2425,0.3193,0.0000*
%
%ADD23ROUNDEDRECTD23*%
%ADD24R,0.8810X0.2425*%
%ADD25R,0.8500X0.7000*%
%ADD26R,1.0000X0.8000*%
%ADD27R,1.4500X3.5000*%
%ADD28R,0.8121X0.6587*%
%ADD29R,1.1000X0.6000*%
%ADD30R,4.1000X2.2000*%
%ADD31R,1.2000X1.4500*%
%ADD32R,0.9562X1.2062*%
%ADD33R,0.9000X0.7000*%
%ADD34R,0.9000X0.8000*%
%ADD35R,0.9121X1.1311*%
%ADD36R,0.8000X0.7500*%
%ADD37R,1.3000X1.1000*%
%ADD38R,2.7900X0.7400*%
%ADD39R,0.9500X0.8000*%
%ADD40R,0.8000X0.9000*%
%ADD41R,0.6587X0.8121*%
%ADD42R,0.7000X0.9000*%
%ADD43R,2.4000X1.3000*%
%ADD44R,6.5000X6.2000*%
%ADD45R,0.9144X1.2192*%
%ADD46R,0.8121X0.7587*%
%ADD47R,2.5000X1.5000*%
%ADD48R,7.0000X7.0000*%
%ADD54R,1.6500X2.4800*%
%ADD63C,1.2192*%
%ADD67R,1.6000X1.6000*%
%ADD68C,1.6000*%
%ADD74C,1.0000*%
%ADD75C,0.6000*%
%ADD76C,0.7000*%
%ADD77C,1.5000*%
%ADD78C,2.0000*%
%ADD79C,0.5000*%
%ADD80C,4.0000*%
%ADD81C,2.4000*%
G04:AMPARAMS|DCode=82|XSize=2.4mm|YSize=2.4mm|CornerRadius=0.6mm|HoleSize=0mm|Usage=FLASHONLY|Rotation=180.000|XOffset=0mm|YOffset=0mm|HoleType=Round|Shape=RoundedRectangle|*
%AMROUNDEDRECTD82*
21,1,2.4000,1.2000,0,0,180.0*
21,1,1.2000,2.4000,0,0,180.0*
1,1,1.2000,-0.6000,0.6000*
1,1,1.2000,0.6000,0.6000*
1,1,1.2000,0.6000,-0.6000*
1,1,1.2000,-0.6000,-0.6000*
%
%ADD82ROUNDEDRECTD82*%
%ADD83C,3.0000*%
%ADD84C,1.2700*%
%ADD85C,0.6000*%
%ADD86C,0.8000*%
%ADD87C,0.7000*%
%ADD88C,0.5000*%
G36*
X734060Y985520D02*
Y980440D01*
Y955040D01*
X749300Y939800D01*
X789940D01*
X793750Y935990D01*
Y924560D01*
X788670Y919480D01*
X734060Y919480D01*
Y916940D01*
X690880Y873760D01*
X654050D01*
Y910590D01*
X662940Y919480D01*
Y985520D01*
X668020Y990600D01*
X728980D01*
X734060Y985520D01*
D02*
G37*
G36*
X1005840Y990600D02*
Y922020D01*
X1017270Y910590D01*
Y875030D01*
X995680D01*
X993140Y877570D01*
Y906780D01*
X980440Y919480D01*
X938530D01*
X930910Y927100D01*
Y955040D01*
X918210Y967740D01*
X877570D01*
X873760Y971550D01*
Y982980D01*
Y991870D01*
X877570Y995680D01*
X1000760D01*
X1005840Y990600D01*
D02*
G37*
G36*
X543560Y1088390D02*
Y1028700D01*
X582930Y989330D01*
Y923290D01*
X590550Y915670D01*
X609600D01*
Y878840D01*
X605790Y875030D01*
X561340D01*
X520700Y915670D01*
X505460D01*
X501650Y919480D01*
Y1088390D01*
X511810Y1096010D01*
X535940D01*
X543560Y1088390D01*
D02*
G37*
G36*
X1160780Y1097280D02*
X1167130Y1090930D01*
Y887299D01*
X1153591Y873760D01*
X1062382D01*
Y911860D01*
X1080880D01*
X1083310Y916213D01*
Y986790D01*
X1117600Y1021080D01*
Y1088390D01*
X1129030Y1099820D01*
X1160780D01*
Y1097280D01*
D02*
G37*
G36*
X905510Y937260D02*
Y906780D01*
X906780Y905510D01*
X928370Y883920D01*
X928370Y834390D01*
X920750Y826770D01*
X909320Y826770D01*
X901700Y834390D01*
Y881380D01*
X873760Y909320D01*
Y939800D01*
X875030Y941070D01*
X877570Y943610D01*
X899160D01*
X905510Y937260D01*
D02*
G37*
G36*
X836930Y963930D02*
Y817880D01*
X803910Y784860D01*
X605790D01*
X576580Y814070D01*
X576580Y848360D01*
X582930Y854710D01*
X595630D01*
X601980Y848360D01*
Y820420D01*
X617220Y805180D01*
X791210D01*
X814070Y828040D01*
Y953770D01*
X800100Y967740D01*
X769620D01*
X763270Y974090D01*
Y985520D01*
X769620Y991870D01*
X808990Y991870D01*
X836930Y963930D01*
D02*
G37*
G36*
X693420Y722630D02*
X718820Y697230D01*
X718820Y681990D01*
X712470Y675640D01*
X702310Y675640D01*
X669290Y708660D01*
X615950D01*
X604520Y697230D01*
D01*
X601980Y694690D01*
Y678180D01*
X598170Y674370D01*
Y670560D01*
X572770Y645160D01*
Y586740D01*
X570230Y584200D01*
X509270D01*
X505460Y588010D01*
Y646430D01*
Y662940D01*
X529590Y687070D01*
X563880D01*
X575310Y698500D01*
X599440Y722630D01*
X693420Y722630D01*
D02*
G37*
G36*
X985133Y648680D02*
X971768D01*
Y634100D01*
X972745D01*
Y616289D01*
X971740Y615284D01*
Y623880D01*
X958660D01*
Y623880D01*
X943690D01*
Y618485D01*
X936398D01*
X938737Y620823D01*
X939579Y622083D01*
X939875Y623570D01*
Y627380D01*
X939579Y628867D01*
X938737Y630127D01*
X936793Y632071D01*
X935533Y632913D01*
X934046Y633209D01*
X930685D01*
X926428Y637465D01*
X927431D01*
X927606Y637161D01*
X929261Y635506D01*
X931289Y634336D01*
X933550Y633730D01*
X935890D01*
X938151Y634336D01*
X940179Y635506D01*
X941374Y636702D01*
X943690Y634386D01*
Y625800D01*
X958770D01*
Y638880D01*
X950184D01*
X944967Y644097D01*
X943707Y644939D01*
X943279Y645024D01*
X943004Y646051D01*
X941834Y648079D01*
X940179Y649734D01*
X938151Y650904D01*
X935890Y651510D01*
X933550D01*
X931289Y650904D01*
X929261Y649734D01*
X927606Y648079D01*
X926436Y646051D01*
X926217Y645235D01*
X925820D01*
Y652660D01*
X906740D01*
Y632580D01*
X920326D01*
X926329Y626577D01*
X927589Y625735D01*
X929076Y625439D01*
X932105D01*
Y625179D01*
X930411Y623485D01*
X922206D01*
X921910Y623426D01*
X919013D01*
X917549Y623135D01*
X916308Y622305D01*
X915478Y621064D01*
X915187Y619600D01*
X915478Y618136D01*
X916170Y617100D01*
X915478Y616064D01*
X915187Y614600D01*
X915478Y613136D01*
X916170Y612100D01*
X915478Y611064D01*
X915187Y609600D01*
X915478Y608136D01*
X916170Y607100D01*
X915478Y606064D01*
X915187Y604600D01*
X915478Y603136D01*
X916127Y602165D01*
X915817Y601701D01*
X915781Y601517D01*
X915478Y601064D01*
X915187Y599600D01*
X915478Y598136D01*
X915620Y597923D01*
Y584200D01*
X915817Y583209D01*
X916379Y582369D01*
X922729Y576019D01*
X923569Y575457D01*
X924560Y575260D01*
X981710D01*
X982701Y575457D01*
X983541Y576019D01*
X990845Y583323D01*
X1007110Y568742D01*
Y510954D01*
X999283Y503127D01*
X998441Y501867D01*
X998145Y500380D01*
Y477859D01*
X995678Y475392D01*
X994410D01*
X992924Y475096D01*
X991663Y474254D01*
X990202Y472792D01*
X989724D01*
X988439Y474077D01*
X986411Y475248D01*
X984150Y475854D01*
X981810D01*
X979549Y475248D01*
X977521Y474077D01*
X975866Y472422D01*
X974696Y470395D01*
X974090Y468134D01*
Y465793D01*
X974696Y463532D01*
X975866Y461505D01*
X976683Y460688D01*
X836495D01*
X828102Y469081D01*
X826842Y469923D01*
X825356Y470219D01*
X645255D01*
X610400Y505074D01*
X610870Y506830D01*
Y509170D01*
X610264Y511431D01*
X609094Y513459D01*
X607439Y515114D01*
X605411Y516284D01*
X603150Y516890D01*
X600810D01*
X598549Y516284D01*
X596521Y515114D01*
X594866Y513459D01*
X593696Y511431D01*
X593090Y509170D01*
Y506830D01*
X593696Y504569D01*
X594866Y502541D01*
X596521Y500886D01*
X598549Y499716D01*
X600810Y499110D01*
X603150D01*
X604906Y499580D01*
X640899Y463587D01*
X642159Y462745D01*
X643646Y462450D01*
X823746D01*
X832139Y454057D01*
X833400Y453215D01*
X834886Y452919D01*
X976287D01*
X975471Y452102D01*
X974300Y450075D01*
X973694Y447814D01*
Y445473D01*
X974300Y443212D01*
X975471Y441185D01*
X977126Y439530D01*
X978957Y438473D01*
X977521Y437644D01*
X975866Y435989D01*
X974696Y433961D01*
X974090Y431700D01*
Y429360D01*
X974696Y427099D01*
X975866Y425071D01*
X977331Y423606D01*
Y399969D01*
X962943Y386080D01*
X961490D01*
X959229Y385474D01*
X957201Y384304D01*
X955546Y382649D01*
X954376Y380621D01*
X953770Y378360D01*
Y377225D01*
X921958Y346518D01*
X878840D01*
X876483Y346049D01*
X874485Y344715D01*
X868359Y338588D01*
X832632D01*
X830275Y338120D01*
X828278Y336785D01*
X827672Y336179D01*
X820564D01*
X818771Y337214D01*
X816510Y337820D01*
X814170D01*
X811909Y337214D01*
X809881Y336044D01*
X808226Y334389D01*
X807056Y332361D01*
X806500Y330286D01*
Y347639D01*
X816320D01*
Y407719D01*
X743240D01*
Y347639D01*
X764232D01*
X782270Y344529D01*
Y329849D01*
X767080D01*
X766089Y329652D01*
X765249Y329090D01*
X764687Y328250D01*
X764490Y327259D01*
Y307340D01*
X764687Y306349D01*
X765249Y305509D01*
X766089Y304947D01*
X766455Y304875D01*
X764399D01*
X745217Y324057D01*
X743957Y324899D01*
X742470Y325195D01*
X728020D01*
Y326850D01*
X723865D01*
Y337063D01*
X729187Y342385D01*
X730029Y343645D01*
X730325Y345132D01*
Y367338D01*
X730078Y368578D01*
X730029Y368825D01*
X729187Y370085D01*
X717665Y381607D01*
Y393288D01*
X724820D01*
Y407868D01*
X702740D01*
Y393288D01*
X709895D01*
Y379998D01*
X710191Y378512D01*
X711033Y377251D01*
X712315Y375970D01*
X692150D01*
X691159Y375773D01*
X690319Y375211D01*
X687779Y372671D01*
X687217Y371831D01*
X687020Y370840D01*
Y364412D01*
X686179Y365254D01*
X684151Y366424D01*
X681890Y367030D01*
X679550D01*
X677289Y366424D01*
X676890Y366194D01*
X668095Y374989D01*
Y375518D01*
X669669Y376426D01*
X671324Y378081D01*
X672494Y380109D01*
X673100Y382370D01*
Y384710D01*
X672494Y386971D01*
X671324Y388999D01*
X669669Y390654D01*
X667641Y391824D01*
X665380Y392430D01*
X663040D01*
X660779Y391824D01*
X658751Y390654D01*
X657096Y388999D01*
X655926Y386971D01*
X655320Y384710D01*
Y382370D01*
X655926Y380109D01*
X657096Y378081D01*
X658751Y376426D01*
X660325Y375518D01*
Y373380D01*
X660621Y371893D01*
X661463Y370633D01*
X672032Y360064D01*
X671830Y359310D01*
Y356970D01*
X672436Y354709D01*
X673606Y352681D01*
X675261Y351026D01*
X676228Y350468D01*
X629860D01*
X626586Y350037D01*
X623536Y348774D01*
X620916Y346764D01*
X618906Y344144D01*
X617643Y341094D01*
X617212Y337820D01*
X617643Y334546D01*
X618906Y331496D01*
X620916Y328876D01*
X623536Y326866D01*
X626586Y325603D01*
X629860Y325172D01*
X678180D01*
X681454Y325603D01*
X684504Y326866D01*
X687124Y328876D01*
X689134Y331496D01*
X690397Y334546D01*
X690828Y337820D01*
X690397Y341094D01*
X689586Y343051D01*
X690501Y342136D01*
X690548Y342109D01*
X692859Y339799D01*
X693699Y339237D01*
X694690Y339040D01*
X716169D01*
X716095Y338672D01*
Y326850D01*
X711940D01*
Y315770D01*
X728020D01*
Y317425D01*
X740861D01*
X740936Y317350D01*
X729940D01*
Y306270D01*
X740526D01*
X753633Y293163D01*
X754544Y292555D01*
X754173Y292307D01*
X742611Y280745D01*
X711245D01*
X709758Y280449D01*
X708498Y279607D01*
X684296Y255406D01*
X682541Y255876D01*
X680200D01*
X677939Y255270D01*
X675912Y254100D01*
X674257Y252445D01*
X673086Y250417D01*
X672481Y248157D01*
Y245816D01*
X673086Y243555D01*
X674257Y241528D01*
X675912Y239872D01*
X677939Y238702D01*
X680200Y238096D01*
X682541D01*
X684802Y238702D01*
X686829Y239872D01*
X688484Y241528D01*
X689655Y243555D01*
X690261Y245816D01*
Y248157D01*
X689790Y249912D01*
X712854Y272975D01*
X744220D01*
X745707Y273271D01*
X746967Y274113D01*
X758529Y285675D01*
X814589D01*
X813853Y285529D01*
X812593Y284687D01*
X801163Y273257D01*
X800321Y271997D01*
X800025Y270510D01*
Y233179D01*
X800321Y231692D01*
X801163Y230432D01*
X805115Y226480D01*
X804554Y226630D01*
X800726D01*
X797028Y225639D01*
X793712Y223725D01*
X791005Y221018D01*
X789091Y217702D01*
X788100Y214004D01*
Y210176D01*
X789091Y206478D01*
X791005Y203162D01*
X793712Y200455D01*
X797028Y198541D01*
X800726Y197550D01*
X804554D01*
X808252Y198541D01*
X811568Y200455D01*
X814275Y203162D01*
X814565Y203665D01*
Y192470D01*
X814861Y190983D01*
X815703Y189723D01*
X816641Y188785D01*
X815946Y187581D01*
X815340Y185320D01*
Y182980D01*
X815946Y180719D01*
X817116Y178691D01*
X818771Y177036D01*
X820799Y175866D01*
X823060Y175260D01*
X825400D01*
X827661Y175866D01*
X829012Y176645D01*
X822621Y170255D01*
X660888D01*
X670767Y180133D01*
X671609Y181393D01*
X671905Y182880D01*
Y218913D01*
X671609Y220400D01*
X670767Y221660D01*
X661780Y230647D01*
X660520Y231489D01*
X659033Y231785D01*
X640155D01*
Y236220D01*
X639859Y237707D01*
X639017Y238967D01*
X620560Y257424D01*
X621030Y259180D01*
Y261520D01*
X620424Y263781D01*
X619254Y265809D01*
X617599Y267464D01*
X615571Y268634D01*
X613310Y269240D01*
X610970D01*
X608709Y268634D01*
X606681Y267464D01*
X605026Y265809D01*
X603856Y263781D01*
X603325Y261799D01*
Y277791D01*
X605429Y279896D01*
X607439Y278736D01*
X609700Y278130D01*
X612040D01*
X614301Y278736D01*
X616329Y279906D01*
X617984Y281561D01*
X619154Y283589D01*
X619760Y285850D01*
Y288190D01*
X619154Y290451D01*
X617984Y292479D01*
X616329Y294134D01*
X614301Y295304D01*
X612040Y295910D01*
X609700D01*
X607439Y295304D01*
X605411Y294134D01*
X603756Y292479D01*
X602586Y290451D01*
X601980Y288190D01*
Y287299D01*
X601574Y287028D01*
X596693Y282147D01*
X595851Y280887D01*
X595555Y279400D01*
Y258682D01*
X595851Y257195D01*
X596693Y255935D01*
X622225Y230403D01*
Y196850D01*
X622521Y195363D01*
X623363Y194103D01*
X627075Y190392D01*
X625219Y189894D01*
X623191Y188724D01*
X621536Y187069D01*
X620366Y185041D01*
X619760Y182780D01*
Y180440D01*
X620366Y178179D01*
X621536Y176151D01*
X622353Y175335D01*
X621369D01*
X604727Y191977D01*
X603467Y192819D01*
X601980Y193115D01*
X590581D01*
X570129Y213567D01*
X568868Y214409D01*
X567382Y214705D01*
X557933D01*
X557024Y216279D01*
X555369Y217934D01*
X553341Y219104D01*
X551080Y219710D01*
X548740D01*
X546479Y219104D01*
X544451Y217934D01*
X542796Y216279D01*
X541626Y214251D01*
X541020Y211990D01*
Y209650D01*
X541626Y207389D01*
X542796Y205361D01*
X544451Y203706D01*
X546479Y202536D01*
X548740Y201930D01*
X551080D01*
X553341Y202536D01*
X555369Y203706D01*
X557024Y205361D01*
X557933Y206935D01*
X565773D01*
X583199Y189509D01*
X582409D01*
X580148Y188903D01*
X578121Y187733D01*
X576466Y186078D01*
X575295Y184050D01*
X574689Y181789D01*
Y179449D01*
X575295Y177188D01*
X576466Y175160D01*
X578121Y173505D01*
X580148Y172335D01*
X582409Y171729D01*
X582416D01*
X582777Y171190D01*
X590343Y163623D01*
X591603Y162781D01*
X593090Y162485D01*
X824230D01*
X825717Y162781D01*
X826977Y163623D01*
X840377Y177023D01*
X841219Y178283D01*
X841515Y179770D01*
Y199872D01*
X843133Y198630D01*
X845211Y197770D01*
X847440Y197476D01*
X859440D01*
X861669Y197770D01*
X863747Y198630D01*
X865531Y199999D01*
X866900Y201783D01*
X867760Y203861D01*
X868054Y206090D01*
Y218090D01*
X867760Y220319D01*
X866900Y222397D01*
X865531Y224181D01*
X863747Y225550D01*
X861669Y226410D01*
X859440Y226704D01*
X847440D01*
X845211Y226410D01*
X843133Y225550D01*
X841515Y224308D01*
Y250424D01*
X842396Y250660D01*
X851963Y241093D01*
X853223Y240251D01*
X854710Y239955D01*
X918210D01*
Y205713D01*
X918110Y205740D01*
X915770D01*
X913509Y205134D01*
X911481Y203964D01*
X909826Y202309D01*
X908656Y200281D01*
X908050Y198020D01*
Y195680D01*
X908656Y193419D01*
X909826Y191391D01*
X911481Y189736D01*
X913509Y188566D01*
X915770Y187960D01*
X918110D01*
X918210Y187987D01*
Y161365D01*
X498230D01*
X498145Y161348D01*
X495081Y161649D01*
X492053Y162568D01*
X489263Y164060D01*
X486817Y166067D01*
X484809Y168513D01*
X483318Y171303D01*
X482399Y174331D01*
X482098Y177395D01*
X482115Y177480D01*
Y558315D01*
X487680Y563880D01*
X491415D01*
X491711Y562393D01*
X492553Y561133D01*
X534463Y519223D01*
X535723Y518381D01*
X537210Y518085D01*
X750570D01*
X752057Y518381D01*
X753317Y519223D01*
X766017Y531923D01*
X766859Y533183D01*
X767155Y534670D01*
Y598170D01*
X766859Y599657D01*
X766017Y600917D01*
X758678Y608255D01*
X764201D01*
X772085Y600371D01*
Y600071D01*
X770139D01*
Y583680D01*
X784341D01*
Y600071D01*
X779855D01*
Y601980D01*
X779608Y603220D01*
X779559Y603467D01*
X778717Y604727D01*
X768557Y614887D01*
X767297Y615729D01*
X765810Y616025D01*
X749340D01*
Y633610D01*
X748633D01*
X748772Y633818D01*
X756072Y641118D01*
X756156Y640971D01*
X757811Y639316D01*
X759839Y638146D01*
X762100Y637540D01*
X764440D01*
X766701Y638146D01*
X768729Y639316D01*
X770384Y640971D01*
X771554Y642999D01*
X772160Y645260D01*
Y647600D01*
X771554Y649861D01*
X770384Y651889D01*
X768729Y653544D01*
X766701Y654714D01*
X764440Y655320D01*
X809814D01*
X810766Y653671D01*
X812421Y652016D01*
X814449Y650846D01*
X816710Y650240D01*
X819050D01*
X821311Y650846D01*
X823339Y652016D01*
X824994Y653671D01*
X825946Y655320D01*
X828896D01*
X789733Y616157D01*
X788891Y614897D01*
X788595Y613410D01*
Y578722D01*
X788891Y577235D01*
X789733Y575975D01*
X800765Y564943D01*
X802025Y564101D01*
X803512Y563805D01*
X830580D01*
X832067Y564101D01*
X833327Y564943D01*
X842852Y574468D01*
X843694Y575728D01*
X843990Y577215D01*
Y594656D01*
X860049Y610715D01*
X865017D01*
X864921Y610231D01*
X861579D01*
Y593840D01*
X875781D01*
Y605715D01*
X882162D01*
X879903Y603457D01*
X879061Y602197D01*
X878765Y600710D01*
Y577270D01*
X877260D01*
Y563190D01*
X889340D01*
Y577270D01*
X886535D01*
Y599101D01*
X888149Y600715D01*
X893895D01*
X894190Y600774D01*
X897087D01*
X898551Y601065D01*
X899792Y601895D01*
X900622Y603136D01*
X900913Y604600D01*
X900622Y606064D01*
X899930Y607100D01*
X900622Y608136D01*
X900913Y609600D01*
X900622Y611064D01*
X899930Y612100D01*
X900622Y613136D01*
X900913Y614600D01*
X900665Y615848D01*
X900840D01*
Y623352D01*
X893441D01*
X885397Y631397D01*
X884137Y632239D01*
X882650Y632535D01*
X876370D01*
Y635690D01*
X863290D01*
Y627104D01*
X859751Y623565D01*
X856336D01*
X854849Y623269D01*
X853589Y622427D01*
X846389Y615227D01*
X844451D01*
Y617943D01*
X832784D01*
Y604742D01*
X843088D01*
X837358Y599012D01*
X836516Y597752D01*
X836220Y596265D01*
Y578824D01*
X828971Y571575D01*
X805121D01*
X796365Y580331D01*
Y611801D01*
X839884Y655320D01*
X853728D01*
X853946Y654941D01*
X855601Y653286D01*
X857629Y652116D01*
X859890Y651510D01*
X862230D01*
X864491Y652116D01*
X866519Y653286D01*
X868174Y654941D01*
X868392Y655320D01*
X962660D01*
X985133Y648680D01*
D02*
G37*
G36*
X684530Y635000D02*
Y621030D01*
X612140D01*
X603250Y629920D01*
X594360D01*
Y645160D01*
X674370D01*
X684530Y635000D01*
D02*
G37*
G36*
X886949Y618857D02*
Y618485D01*
X865658D01*
X868784Y621610D01*
X876370D01*
Y624765D01*
X881041D01*
X886949Y618857D01*
D02*
G37*
G36*
X759839Y654714D02*
X757811Y653544D01*
X756156Y651889D01*
X754986Y649861D01*
X754847Y649343D01*
X753449Y649065D01*
X752189Y648223D01*
X742496Y638530D01*
X741715Y637360D01*
X740493Y636139D01*
X739651Y634879D01*
X739399Y633610D01*
X730260D01*
Y616025D01*
X718519D01*
X719807Y617313D01*
X720649Y618573D01*
X720945Y620060D01*
Y630409D01*
X720649Y631896D01*
X720500Y632120D01*
X722050D01*
Y644200D01*
X707970D01*
Y632120D01*
X711291D01*
X711543Y630851D01*
X712385Y629591D01*
X713176Y628800D01*
Y621669D01*
X712612Y621105D01*
X708846D01*
X708148Y620966D01*
X705653D01*
X704189Y620675D01*
X702947Y619845D01*
X702118Y618604D01*
X701827Y617140D01*
X702118Y615676D01*
X702810Y614640D01*
X702118Y613604D01*
X701827Y612140D01*
X702118Y610676D01*
X702810Y609640D01*
X702118Y608604D01*
X701827Y607140D01*
X702075Y605892D01*
X701900D01*
Y598388D01*
X708180D01*
X708846Y598255D01*
X723401D01*
X726365Y595291D01*
Y590620D01*
X723210D01*
Y577540D01*
X737290D01*
Y579462D01*
X746509D01*
Y577514D01*
X759385D01*
Y575647D01*
X746509D01*
Y563979D01*
X749225D01*
Y559259D01*
X744896Y554930D01*
X737560D01*
Y542350D01*
X750640D01*
Y549686D01*
X755857Y554903D01*
X756699Y556163D01*
X756748Y556410D01*
X756995Y557650D01*
Y563979D01*
X759385D01*
Y536279D01*
X748961Y525855D01*
X681621D01*
X682369Y526286D01*
X684024Y527941D01*
X685194Y529969D01*
X685800Y532230D01*
Y534570D01*
X685330Y536326D01*
X694777Y545773D01*
X695619Y547033D01*
X695915Y548520D01*
Y568902D01*
X698570D01*
Y583982D01*
X685490D01*
Y568902D01*
X688145D01*
Y559909D01*
X687834Y560449D01*
X686179Y562104D01*
X684151Y563274D01*
X681890Y563880D01*
X679550D01*
X677289Y563274D01*
X675261Y562104D01*
X673606Y560449D01*
X673290Y559901D01*
Y563926D01*
X677047Y567683D01*
X677862Y568902D01*
X683570D01*
Y583982D01*
X674787D01*
X675132Y584125D01*
X675640D01*
X677127Y584421D01*
X678387Y585263D01*
X679229Y586523D01*
X679525Y588010D01*
X679229Y589497D01*
X678640Y590378D01*
Y590382D01*
X677797Y592418D01*
X676238Y593977D01*
X675715Y594193D01*
Y597831D01*
X676139Y598255D01*
X680535D01*
X680830Y598314D01*
X683727D01*
X685191Y598605D01*
X686432Y599435D01*
X687262Y600676D01*
X687553Y602140D01*
X687262Y603604D01*
X686570Y604640D01*
X687262Y605676D01*
X687553Y607140D01*
X687262Y608604D01*
X686570Y609640D01*
X687262Y610676D01*
X687553Y612140D01*
X687262Y613604D01*
X686570Y614640D01*
X687262Y615676D01*
X687553Y617140D01*
X687262Y618604D01*
X686613Y619575D01*
X686923Y620039D01*
X686959Y620223D01*
X687262Y620676D01*
X687553Y622140D01*
X687262Y623604D01*
X687120Y623817D01*
Y635000D01*
X686923Y635991D01*
X686361Y636831D01*
X676201Y646991D01*
X675361Y647553D01*
X674370Y647750D01*
X658568D01*
X665480Y655320D01*
X762100D01*
X759839Y654714D01*
D02*
G37*
G36*
X964941Y608485D02*
X962513D01*
X962560Y608722D01*
X963123Y609285D01*
X963890Y611138D01*
Y612800D01*
X969256D01*
X964941Y608485D01*
D02*
G37*
G36*
X844451Y606104D02*
Y607458D01*
X845804D01*
X844451Y606104D01*
D02*
G37*
G36*
X988450Y603300D02*
X971452D01*
X988450Y620298D01*
Y603300D01*
D02*
G37*
G36*
X976630Y641350D02*
X990600D01*
Y626110D01*
X967740Y603250D01*
X965200D01*
X976630Y614680D01*
Y641350D01*
X975360D01*
X976630Y642620D01*
Y641350D01*
D02*
G37*
G36*
X640000Y617140D02*
X637460D01*
X610870Y590550D01*
X596900D01*
Y596900D01*
X618490Y618490D01*
X641350D01*
X640000Y617140D01*
D02*
G37*
G36*
X759385Y596561D02*
Y589181D01*
X746509D01*
Y587232D01*
X737290D01*
Y590620D01*
X734135D01*
Y596900D01*
X733839Y598387D01*
X732997Y599647D01*
X729468Y603175D01*
X752771D01*
X759385Y596561D01*
D02*
G37*
G36*
X1042035Y701675D02*
X1042035Y678815D01*
Y673735D01*
X1052830Y662940D01*
X1078230D01*
X1087120Y654050D01*
Y586740D01*
X1084580Y584200D01*
X1017270D01*
X1010920Y590550D01*
Y670560D01*
X1019175Y678815D01*
X1019175Y699135D01*
X1005205Y713105D01*
X945515Y713105D01*
X929005Y696595D01*
Y677545D01*
X923925Y672465D01*
X907415D01*
X902335Y677545D01*
Y697865D01*
X930275Y725805D01*
X1017905D01*
X1042035Y701675D01*
D02*
G37*
G36*
X669962Y584583D02*
X671413Y583982D01*
X670490D01*
Y583016D01*
X669365Y584142D01*
Y585181D01*
X669962Y584583D01*
D02*
G37*
G36*
X991870Y599440D02*
Y588010D01*
X981710Y577850D01*
X924560D01*
X918210Y584200D01*
Y600710D01*
X990600D01*
X991870Y599440D01*
D02*
G37*
G36*
X662733Y604727D02*
X661891Y603467D01*
X661595Y601980D01*
Y582532D01*
X661891Y581046D01*
X662733Y579785D01*
X670415Y572103D01*
Y572039D01*
X667796Y569420D01*
X660210D01*
Y558340D01*
X672414D01*
X671830Y556160D01*
Y553820D01*
X672436Y551559D01*
X673127Y550362D01*
X661319Y538555D01*
X610003D01*
X609094Y540129D01*
X607439Y541784D01*
X605411Y542954D01*
X603150Y543560D01*
X600810D01*
X598549Y542954D01*
X596521Y541784D01*
X594866Y540129D01*
X593696Y538101D01*
X593090Y535840D01*
Y533500D01*
X593696Y531239D01*
X594866Y529211D01*
X596521Y527556D01*
X598549Y526386D01*
X600531Y525855D01*
X538819D01*
X500794Y563880D01*
X572719D01*
X596350Y585760D01*
X610746D01*
X606853Y581867D01*
X606011Y580607D01*
X605715Y579120D01*
Y578252D01*
X604141Y577344D01*
X602486Y575689D01*
X601316Y573661D01*
X600710Y571400D01*
Y569060D01*
X601316Y566799D01*
X602486Y564771D01*
X604141Y563116D01*
X606169Y561946D01*
X608430Y561340D01*
X610770D01*
X613031Y561946D01*
X615059Y563116D01*
X616714Y564771D01*
X617884Y566799D01*
X618490Y569060D01*
Y571400D01*
X617884Y573661D01*
X616714Y575689D01*
X615059Y577344D01*
X613955Y577981D01*
X644229Y608255D01*
X666262D01*
X662733Y604727D01*
D02*
G37*
G36*
X679836Y541820D02*
X678080Y542290D01*
X676042D01*
X679852Y546100D01*
X681890D01*
X684151Y546706D01*
X685502Y547485D01*
X679836Y541820D01*
D02*
G37*
G36*
X1157275Y530349D02*
X1141580D01*
X1140130Y532289D01*
Y541110D01*
X1125550D01*
Y540749D01*
X1124717Y540496D01*
X1124603Y540525D01*
X1122370Y542439D01*
Y543491D01*
X1121451Y545711D01*
X1119751Y547411D01*
X1117531Y548330D01*
X1115129D01*
X1112909Y547411D01*
X1111673Y546175D01*
X1100416D01*
X1098500Y548554D01*
X1098550Y548740D01*
Y551080D01*
X1097944Y553341D01*
X1096774Y555369D01*
X1095119Y557024D01*
X1093091Y558194D01*
X1090830Y558800D01*
X1088490D01*
X1086229Y558194D01*
X1084201Y557024D01*
X1082546Y555369D01*
X1081376Y553341D01*
X1080770Y551080D01*
Y548740D01*
X1079612Y547473D01*
X1078230Y548976D01*
Y549810D01*
X1077624Y552071D01*
X1076454Y554099D01*
X1074799Y555754D01*
X1072771Y556924D01*
X1070510Y557530D01*
X1068170D01*
X1065909Y556924D01*
X1063881Y555754D01*
X1062226Y554099D01*
X1061056Y552071D01*
X1060865Y551359D01*
X1058032Y550600D01*
X1055435Y553197D01*
Y557331D01*
X1055139Y558817D01*
X1054297Y560078D01*
X1053992Y560382D01*
X1054764Y561719D01*
X1055370Y563980D01*
Y566320D01*
X1055343Y566420D01*
X1057292Y568960D01*
X1157275D01*
Y530349D01*
D02*
G37*
G36*
X668020Y532230D02*
X668626Y529969D01*
X669796Y527941D01*
X671451Y526286D01*
X672199Y525855D01*
X603429D01*
X605411Y526386D01*
X607439Y527556D01*
X609094Y529211D01*
X610003Y530785D01*
X662928D01*
X664415Y531081D01*
X665675Y531923D01*
X668020Y534268D01*
Y532230D01*
D02*
G37*
G36*
X1017876Y559179D02*
X1019046Y557151D01*
X1020701Y555496D01*
X1022729Y554326D01*
X1024990Y553720D01*
X1027330D01*
X1029086Y554190D01*
X1042585Y540691D01*
Y525670D01*
X1042660Y525295D01*
Y517000D01*
X1042660D01*
Y516964D01*
X1042214Y514425D01*
X1012190D01*
X1009818Y516083D01*
X1009700Y516281D01*
Y544858D01*
X1012046Y545830D01*
X1020370Y537506D01*
X1019900Y535750D01*
Y533410D01*
X1020506Y531149D01*
X1021676Y529121D01*
X1023331Y527466D01*
X1025359Y526296D01*
X1027620Y525690D01*
X1029960D01*
X1032221Y526296D01*
X1034249Y527466D01*
X1035904Y529121D01*
X1037074Y531149D01*
X1037680Y533410D01*
Y535750D01*
X1037074Y538011D01*
X1035904Y540039D01*
X1034249Y541694D01*
X1032221Y542864D01*
X1029960Y543470D01*
X1027620D01*
X1025864Y543000D01*
X1014805Y554059D01*
Y561259D01*
X1017270Y561440D01*
X1017876Y559179D01*
D02*
G37*
G36*
X1128955Y503851D02*
Y498179D01*
X1118933Y488157D01*
X1116718Y489017D01*
X1116340Y491380D01*
Y491600D01*
X1116340D01*
Y504080D01*
X1116340D01*
Y504115D01*
X1116786Y506655D01*
X1126151D01*
X1128955Y503851D01*
D02*
G37*
G36*
X1140130Y515530D02*
X1141580Y514269D01*
Y514269D01*
X1157275D01*
Y509349D01*
X1141580D01*
Y493269D01*
X1143015D01*
Y489116D01*
X1141580Y487170D01*
X1139040Y486432D01*
X1138299Y487174D01*
X1136271Y488344D01*
X1134243Y488888D01*
X1133794Y489676D01*
X1133254Y491490D01*
X1135587Y493823D01*
X1136429Y495083D01*
X1136725Y496570D01*
Y505460D01*
X1136429Y506947D01*
X1135587Y508207D01*
X1130804Y512990D01*
X1131005Y514206D01*
X1131722Y515530D01*
X1140130D01*
D02*
G37*
G36*
X1042660Y504300D02*
Y504080D01*
X1042660D01*
Y493920D01*
X1042660Y491600D01*
X1042660Y489060D01*
X1042660Y478121D01*
X1040864Y476325D01*
X1016939D01*
X1016764Y476629D01*
X1015109Y478284D01*
X1013081Y479454D01*
X1010820Y480060D01*
X1008480D01*
X1008455Y480053D01*
X1005915Y482002D01*
Y498771D01*
X1013799Y506655D01*
X1042214D01*
X1042660Y504300D01*
D02*
G37*
G36*
X1127381Y472946D02*
X1129409Y471776D01*
X1131670Y471170D01*
X1134010D01*
X1136271Y471776D01*
X1138299Y472946D01*
X1139040Y473688D01*
X1141580Y472664D01*
Y471090D01*
X1157275D01*
Y466170D01*
X1141580D01*
Y465775D01*
X1140602Y463640D01*
X1126021D01*
X1124025Y464951D01*
Y472711D01*
X1126565Y473763D01*
X1127381Y472946D01*
D02*
G37*
G36*
X1001366Y467739D02*
X1002536Y465711D01*
X1004191Y464056D01*
X1006219Y462886D01*
X1007110Y462647D01*
Y460688D01*
X989277D01*
X990094Y461505D01*
X991264Y463532D01*
X991664Y465023D01*
X991811D01*
X993297Y465319D01*
X994557Y466161D01*
X996019Y467622D01*
X997287D01*
X998774Y467918D01*
X1000034Y468760D01*
X1000869Y469595D01*
X1001366Y467739D01*
D02*
G37*
G36*
X1081575Y487583D02*
X1081841Y487406D01*
X1083360Y485886D01*
Y478900D01*
X1083360D01*
Y478680D01*
X1083360D01*
Y466200D01*
X1083360D01*
Y466164D01*
X1083356Y465948D01*
X1083043Y463572D01*
X1081823Y463329D01*
X1080563Y462487D01*
X1078180Y460104D01*
X1077513Y460162D01*
X1075640Y460952D01*
Y465980D01*
X1075640D01*
Y466200D01*
X1075640D01*
Y476360D01*
X1075640Y478680D01*
X1075640Y481220D01*
X1075640Y489926D01*
X1078180Y490978D01*
X1081575Y487583D01*
D02*
G37*
G36*
X993140Y450633D02*
X993150Y450528D01*
X990607D01*
X989698Y452102D01*
X988881Y452919D01*
X993365D01*
X993140Y450633D01*
D02*
G37*
G36*
X1042660Y454059D02*
X1042660Y450960D01*
Y440800D01*
X1073064D01*
X1074116Y438260D01*
X1069001Y433145D01*
X1037080D01*
Y442361D01*
X1037743Y443024D01*
X1038604Y444516D01*
X1039050Y446179D01*
Y447901D01*
X1038604Y449564D01*
X1037743Y451056D01*
X1036526Y452273D01*
X1035034Y453134D01*
X1034359Y453315D01*
X1034693Y455855D01*
X1040864D01*
X1042660Y454059D01*
D02*
G37*
G36*
X1013081Y451356D02*
X1015109Y450186D01*
X1017370Y449580D01*
X1019710D01*
X1021971Y450186D01*
X1023999Y451356D01*
X1025471Y452829D01*
X1027277Y451056D01*
X1026416Y449564D01*
X1025970Y447901D01*
Y446179D01*
X1026179Y445400D01*
X1024994Y443325D01*
X1024439Y442860D01*
X1020000D01*
Y423280D01*
X1037080D01*
Y425375D01*
X1070610D01*
X1072097Y425671D01*
X1073357Y426513D01*
X1083735Y436891D01*
X1084577Y438151D01*
X1084873Y439638D01*
Y440800D01*
X1116255D01*
Y440690D01*
X1116551Y439203D01*
X1117393Y437943D01*
X1131495Y423841D01*
Y401320D01*
X1058961D01*
X1057910Y402690D01*
Y405030D01*
X1057304Y407291D01*
X1056134Y409319D01*
X1054479Y410974D01*
X1052451Y412144D01*
X1050190Y412750D01*
X1047850D01*
X1045589Y412144D01*
X1043561Y410974D01*
X1042319Y409731D01*
X1040765Y409493D01*
X1039211Y409731D01*
X1037969Y410974D01*
X1035941Y412144D01*
X1033680Y412750D01*
X1031340D01*
X1029079Y412144D01*
X1027051Y410974D01*
X1025396Y409319D01*
X1024226Y407291D01*
X1023620Y405030D01*
Y402690D01*
X1022569Y401320D01*
X988628D01*
Y423606D01*
X990094Y425071D01*
X991264Y427099D01*
X991870Y429360D01*
Y431700D01*
X991264Y433961D01*
X990094Y435989D01*
X988958Y437125D01*
X988531Y438247D01*
X988851Y440338D01*
X989698Y441185D01*
X990607Y442759D01*
X993357D01*
X999813Y436303D01*
X1000000Y436178D01*
Y423280D01*
X1017080D01*
Y442860D01*
X1004244D01*
X997713Y449390D01*
X996453Y450233D01*
X995717Y450379D01*
X995967Y452919D01*
X1011519D01*
X1013081Y451356D01*
D02*
G37*
G36*
X1174345Y401320D02*
X1171015D01*
Y568960D01*
X1174345D01*
Y401320D01*
D02*
G37*
G36*
X1141215Y437281D02*
X1142110Y436145D01*
Y434440D01*
X1142716Y432179D01*
X1143886Y430151D01*
X1145541Y428496D01*
X1147569Y427326D01*
X1149830Y426720D01*
X1152170D01*
X1154431Y427326D01*
X1156895Y425815D01*
Y401320D01*
X1139265D01*
Y425450D01*
X1138969Y426937D01*
X1138127Y428197D01*
X1130610Y435713D01*
X1131582Y438060D01*
X1139823D01*
X1141215Y437281D01*
D02*
G37*
G36*
X687020Y346843D02*
X684504Y348774D01*
X682779Y349488D01*
X684151Y349856D01*
X686179Y351026D01*
X687020Y351868D01*
Y346843D01*
D02*
G37*
G36*
X722630Y365760D02*
Y346710D01*
X717550Y341630D01*
X694690D01*
X689610Y346710D01*
Y370840D01*
X692150Y373380D01*
X715010D01*
X722630Y365760D01*
D02*
G37*
G36*
X918210Y332740D02*
X917040D01*
X914779Y332134D01*
X912751Y330964D01*
X911096Y329309D01*
X909926Y327281D01*
X909320Y325020D01*
Y322680D01*
X909790Y320924D01*
X908981Y320115D01*
X899160D01*
X898884Y320060D01*
X899824Y321689D01*
X900430Y323950D01*
Y326290D01*
X899824Y328551D01*
X898654Y330579D01*
X896999Y332234D01*
X894971Y333404D01*
X892710Y334010D01*
X890370D01*
X888109Y333404D01*
X886081Y332234D01*
X884426Y330579D01*
X883518Y329005D01*
X876194D01*
X881391Y334202D01*
X918210D01*
Y332740D01*
D02*
G37*
G36*
X917040Y314960D02*
X918210D01*
Y311719D01*
X914915D01*
X914915Y311719D01*
X912753Y311289D01*
X910921Y310064D01*
X910921Y310064D01*
X910416Y309560D01*
X909220Y309880D01*
X906880D01*
X904619Y309274D01*
X902591Y308104D01*
X900936Y306449D01*
X899766Y304421D01*
X899160Y302160D01*
Y299820D01*
X899766Y297559D01*
X900936Y295531D01*
X902591Y293876D01*
X903339Y293445D01*
X828528D01*
X832189Y297105D01*
X883920D01*
X885407Y297401D01*
X886667Y298243D01*
X900769Y312345D01*
X910590D01*
X912077Y312641D01*
X913337Y313483D01*
X915284Y315430D01*
X917040Y314960D01*
D02*
G37*
G36*
X800100Y396240D02*
X803910Y392430D01*
Y311150D01*
X800100Y307340D01*
X767080D01*
Y327259D01*
X784860D01*
Y346710D01*
X748030Y353060D01*
X800100Y400050D01*
Y396240D01*
D02*
G37*
G36*
X807056Y325499D02*
X808226Y323471D01*
X809881Y321816D01*
X811909Y320646D01*
X814170Y320040D01*
X816510D01*
X818771Y320646D01*
X820799Y321816D01*
X822454Y323471D01*
X822680Y323862D01*
X828909D01*
X809921Y304875D01*
X800725D01*
X801091Y304947D01*
X801931Y305509D01*
X805741Y309319D01*
X806303Y310159D01*
X806500Y311150D01*
Y327574D01*
X807056Y325499D01*
D02*
G37*
G36*
X884426Y319661D02*
X886081Y318006D01*
X888109Y316836D01*
X890370Y316230D01*
X892710D01*
X894016Y316580D01*
X882311Y304875D01*
X830580D01*
X829093Y304579D01*
X827833Y303737D01*
X823891Y299795D01*
X815828D01*
X837269Y321235D01*
X883518D01*
X884426Y319661D01*
D02*
G37*
G36*
X758492Y299795D02*
X757989D01*
X746020Y311764D01*
Y312266D01*
X758492Y299795D01*
D02*
G37*
G36*
X918210Y293445D02*
X912761D01*
X913509Y293876D01*
X915164Y295531D01*
X916334Y297559D01*
X916940Y299820D01*
Y300107D01*
X917254Y300422D01*
X918210D01*
Y293445D01*
D02*
G37*
G36*
Y247725D02*
X856319D01*
X847890Y256154D01*
X848360Y257910D01*
Y260250D01*
X847754Y262511D01*
X846584Y264539D01*
X844929Y266194D01*
X842901Y267364D01*
X840640Y267970D01*
X838300D01*
X836039Y267364D01*
X834011Y266194D01*
X832356Y264539D01*
X831186Y262511D01*
X830580Y260250D01*
Y257910D01*
X831186Y255649D01*
X832356Y253621D01*
X833745Y252232D01*
Y181379D01*
X831735Y179368D01*
X832514Y180719D01*
X833120Y182980D01*
Y185320D01*
X832514Y187581D01*
X831344Y189609D01*
X829689Y191264D01*
X827661Y192434D01*
X825400Y193040D01*
X823374D01*
X822335Y194079D01*
Y218639D01*
X822039Y220125D01*
X821197Y221386D01*
X807795Y234788D01*
Y268901D01*
X816949Y278055D01*
X840401D01*
X844475Y273981D01*
Y271780D01*
X844771Y270293D01*
X845613Y269033D01*
X848830Y265816D01*
X848360Y264060D01*
Y261720D01*
X848966Y259459D01*
X850136Y257431D01*
X851791Y255776D01*
X853819Y254606D01*
X856080Y254000D01*
X858420D01*
X860681Y254606D01*
X862709Y255776D01*
X864364Y257431D01*
X865534Y259459D01*
X866140Y261720D01*
Y264060D01*
X865534Y266321D01*
X864364Y268349D01*
X862709Y270004D01*
X860681Y271174D01*
X858420Y271780D01*
X856080D01*
X854324Y271310D01*
X852245Y273389D01*
Y275590D01*
X851998Y276830D01*
X851949Y277077D01*
X851107Y278337D01*
X844757Y284687D01*
X843497Y285529D01*
X842761Y285675D01*
X918210D01*
Y247725D01*
D02*
G37*
G36*
X632385Y234611D02*
Y229388D01*
X632681Y227901D01*
X633523Y226641D01*
X635011Y225153D01*
X636271Y224311D01*
X637758Y224015D01*
X657424D01*
X664135Y217304D01*
Y184489D01*
X654981Y175335D01*
X634947D01*
X635764Y176151D01*
X636934Y178179D01*
X637540Y180440D01*
Y182780D01*
X637170Y184160D01*
X639626Y186615D01*
X642217D01*
X643126Y185041D01*
X644781Y183386D01*
X646809Y182216D01*
X649070Y181610D01*
X651410D01*
X653671Y182216D01*
X655699Y183386D01*
X657354Y185041D01*
X658524Y187069D01*
X659130Y189330D01*
Y191670D01*
X658524Y193931D01*
X657354Y195959D01*
X655699Y197614D01*
X653671Y198784D01*
X651410Y199390D01*
X649070D01*
X646809Y198784D01*
X644781Y197614D01*
X643126Y195959D01*
X642217Y194385D01*
X634069D01*
X629995Y198459D01*
Y232012D01*
X629699Y233498D01*
X628857Y234758D01*
X612155Y251460D01*
X613310D01*
X615066Y251930D01*
X632385Y234611D01*
D02*
G37*
G36*
X615462Y170255D02*
X594699D01*
X590243Y174711D01*
X590693Y175160D01*
X591864Y177188D01*
X592469Y179449D01*
Y181789D01*
X591864Y184050D01*
X591116Y185345D01*
X600371D01*
X615462Y170255D01*
D02*
G37*
G36*
X481973Y160020D02*
X481330D01*
Y160548D01*
X481973Y160020D01*
D02*
G37*
%LPC*%
G36*
X830917Y617943D02*
X819249D01*
Y604742D01*
X821198D01*
Y596840D01*
X817570D01*
Y584260D01*
X830650D01*
Y596840D01*
X828968D01*
Y604742D01*
X830917D01*
Y617943D01*
D02*
G37*
G36*
X981301Y492950D02*
X979579D01*
X977916Y492504D01*
X976424Y491643D01*
X975207Y490426D01*
X974346Y488934D01*
X973900Y487271D01*
Y485549D01*
X974346Y483886D01*
X975207Y482394D01*
X976424Y481177D01*
X977916Y480316D01*
X979579Y479870D01*
X981301D01*
X982964Y480316D01*
X984456Y481177D01*
X985673Y482394D01*
X986534Y483886D01*
X986980Y485549D01*
Y487271D01*
X986534Y488934D01*
X985673Y490426D01*
X984456Y491643D01*
X982964Y492504D01*
X981301Y492950D01*
D02*
G37*
G36*
X674370Y448258D02*
X629920D01*
X626646Y447827D01*
X623596Y446564D01*
X620976Y444554D01*
X618966Y441934D01*
X617703Y438884D01*
X617272Y435610D01*
X617703Y432336D01*
X618966Y429286D01*
X620976Y426666D01*
X623596Y424656D01*
X626646Y423393D01*
X629920Y422962D01*
X674370D01*
X677644Y423393D01*
X680694Y424656D01*
X683314Y426666D01*
X685324Y429286D01*
X686587Y432336D01*
X687018Y435610D01*
X686587Y438884D01*
X685324Y441934D01*
X683314Y444554D01*
X680694Y446564D01*
X677644Y447827D01*
X674370Y448258D01*
D02*
G37*
G36*
X940970Y425450D02*
X938630D01*
X936369Y424844D01*
X934341Y423674D01*
X932686Y422019D01*
X931516Y419991D01*
X930910Y417730D01*
Y415390D01*
X931516Y413129D01*
X932471Y411475D01*
X932195Y410091D01*
Y403541D01*
X928759D01*
Y386399D01*
X943401D01*
Y403541D01*
X939965D01*
Y407670D01*
X940970D01*
X943231Y408276D01*
X945259Y409446D01*
X946914Y411101D01*
X948084Y413129D01*
X948690Y415390D01*
Y417730D01*
X948084Y419991D01*
X946914Y422019D01*
X945259Y423674D01*
X943231Y424844D01*
X940970Y425450D01*
D02*
G37*
G36*
X576580Y455980D02*
X575310D01*
X539750Y455980D01*
X538759Y455783D01*
X537919Y455221D01*
X532839Y450141D01*
X532277Y449301D01*
X532080Y448310D01*
Y309880D01*
X532167Y309444D01*
X532233Y309004D01*
X532265Y308950D01*
X532277Y308889D01*
X532525Y308519D01*
X532754Y308138D01*
X545454Y294168D01*
X545504Y294131D01*
X545539Y294079D01*
X545909Y293832D01*
X546266Y293567D01*
X546327Y293552D01*
X546379Y293517D01*
X546815Y293431D01*
X547247Y293323D01*
X547309Y293332D01*
X547370Y293320D01*
X581660D01*
X582651Y293517D01*
X583491Y294079D01*
X584053Y294919D01*
X584250Y295910D01*
Y448310D01*
X584053Y449301D01*
X583491Y450141D01*
X578411Y455221D01*
X577571Y455783D01*
X576580Y455980D01*
D02*
G37*
G36*
X580390Y473785D02*
X499110D01*
X497623Y473489D01*
X496363Y472647D01*
X487473Y463757D01*
X486631Y462497D01*
X486335Y461010D01*
Y256540D01*
X486631Y255053D01*
X487473Y253793D01*
X498903Y242363D01*
X500163Y241521D01*
X501650Y241225D01*
X512157D01*
X511810Y239930D01*
Y237590D01*
X512416Y235329D01*
X513586Y233301D01*
X515241Y231646D01*
X517269Y230476D01*
X519530Y229870D01*
X521870D01*
X524131Y230476D01*
X526159Y231646D01*
X527814Y233301D01*
X528984Y235329D01*
X529590Y237590D01*
Y239930D01*
X528984Y242191D01*
X527814Y244219D01*
X526159Y245874D01*
X524131Y247044D01*
X521870Y247650D01*
X519530D01*
X517774Y247180D01*
X517097Y247857D01*
X515837Y248699D01*
X514350Y248995D01*
X503259D01*
X494105Y258149D01*
Y459401D01*
X500719Y466015D01*
X578781D01*
X589205Y455591D01*
Y332740D01*
X589501Y331253D01*
X590343Y329993D01*
X604313Y316023D01*
X605573Y315181D01*
X605820Y315132D01*
X607060Y314885D01*
X618151D01*
X643739Y289297D01*
X643700Y289151D01*
Y287429D01*
X644146Y285766D01*
X645007Y284274D01*
X646224Y283057D01*
X647716Y282196D01*
X649379Y281750D01*
X651101D01*
X652764Y282196D01*
X654256Y283057D01*
X655473Y284274D01*
X656334Y285766D01*
X656780Y287429D01*
Y289151D01*
X656334Y290814D01*
X655473Y292306D01*
X654256Y293523D01*
X652764Y294384D01*
X651101Y294830D01*
X649379D01*
X649233Y294791D01*
X622507Y321517D01*
X621247Y322359D01*
X619760Y322655D01*
X608669D01*
X596975Y334349D01*
Y457200D01*
X596679Y458687D01*
X595837Y459947D01*
X583137Y472647D01*
X581877Y473489D01*
X580390Y473785D01*
D02*
G37*
G36*
X780950Y284480D02*
X778610D01*
X776349Y283874D01*
X774321Y282704D01*
X772666Y281049D01*
X771496Y279021D01*
X770890Y276760D01*
Y274420D01*
X771496Y272159D01*
X772666Y270131D01*
X774321Y268476D01*
X775895Y267568D01*
Y203539D01*
X770551Y198195D01*
X722243D01*
X722024Y199011D01*
X720854Y201039D01*
X719199Y202694D01*
X717171Y203864D01*
X714910Y204470D01*
X712570D01*
X710309Y203864D01*
X708281Y202694D01*
X706626Y201039D01*
X705456Y199011D01*
X704850Y196750D01*
Y194410D01*
X705456Y192149D01*
X706626Y190121D01*
X708281Y188466D01*
X710309Y187296D01*
X712570Y186690D01*
X714910D01*
X717171Y187296D01*
X719199Y188466D01*
X720854Y190121D01*
X721029Y190425D01*
X772160D01*
X773647Y190721D01*
X774907Y191563D01*
X782527Y199183D01*
X783369Y200443D01*
X783665Y201930D01*
Y267568D01*
X785239Y268476D01*
X786894Y270131D01*
X788064Y272159D01*
X788670Y274420D01*
Y276760D01*
X788064Y279021D01*
X786894Y281049D01*
X785239Y282704D01*
X783211Y283874D01*
X780950Y284480D01*
D02*
G37*
G36*
X600084Y226630D02*
X596256D01*
X592558Y225639D01*
X589242Y223725D01*
X586535Y221018D01*
X584621Y217702D01*
X583630Y214004D01*
Y210176D01*
X584621Y206478D01*
X586535Y203162D01*
X589242Y200455D01*
X592558Y198541D01*
X596256Y197550D01*
X600084D01*
X603782Y198541D01*
X607098Y200455D01*
X609805Y203162D01*
X611719Y206478D01*
X612710Y210176D01*
Y214004D01*
X611719Y217702D01*
X609805Y221018D01*
X607098Y223725D01*
X603782Y225639D01*
X600084Y226630D01*
D02*
G37*
G36*
X501727Y197540D02*
X498273D01*
X494884Y196866D01*
X491692Y195544D01*
X488819Y193624D01*
X486376Y191181D01*
X484456Y188308D01*
X483134Y185116D01*
X482460Y181728D01*
Y178272D01*
X483134Y174884D01*
X484456Y171692D01*
X486376Y168819D01*
X488819Y166376D01*
X491692Y164456D01*
X494884Y163134D01*
X498273Y162460D01*
X501727D01*
X505116Y163134D01*
X508308Y164456D01*
X511181Y166376D01*
X513624Y168819D01*
X515544Y171692D01*
X516866Y174884D01*
X517540Y178272D01*
Y181728D01*
X516866Y185116D01*
X515544Y188308D01*
X513624Y191181D01*
X511181Y193624D01*
X508308Y195544D01*
X505116Y196866D01*
X501727Y197540D01*
D02*
G37*
%LPD*%
G36*
X581660Y448310D02*
Y295910D01*
X547370D01*
X534670Y309880D01*
Y448310D01*
X539750Y453390D01*
X575310Y453390D01*
X576580D01*
X581660Y448310D01*
D02*
G37*
D11*
X756920Y289560D02*
X928370D01*
X745243Y635395D02*
Y635783D01*
X743240Y627010D02*
Y633392D01*
X739800Y623570D02*
X743240Y627010D01*
X745243Y635783D02*
X754936Y645476D01*
X762316D02*
X763270Y646430D01*
X743240Y633392D02*
X745243Y635395D01*
X754936Y645476D02*
X762316D01*
X665480Y582532D02*
Y601980D01*
Y582532D02*
X674300Y573712D01*
X928370Y289560D02*
X1016000D01*
X679450Y358140D02*
X680720D01*
X664210Y373380D02*
X679450Y358140D01*
X837630Y257240D02*
X839470Y259080D01*
X854710Y243840D01*
X848360Y271780D02*
X857250Y262890D01*
X848360Y271780D02*
Y275590D01*
X918210Y195580D02*
X947420D01*
X915670Y198120D02*
X918210Y195580D01*
X779780Y201930D02*
Y275590D01*
X755621Y327480D02*
X758370D01*
X737980Y330810D02*
X752291D01*
X755621Y327480D01*
X1125100Y241300D02*
Y242300D01*
X1141880Y259080D02*
X1143000D01*
X1125100Y242300D02*
X1141880Y259080D01*
X1134110Y273050D02*
X1149350D01*
X1125100Y217170D02*
Y241300D01*
X1110100Y249040D02*
X1134110Y273050D01*
X899160Y316230D02*
X910590D01*
X918210Y323850D01*
X835660Y325120D02*
X891540D01*
X811530Y300990D02*
X835660Y325120D01*
X883920Y300990D02*
X899160Y316230D01*
X830580Y300990D02*
X883920D01*
X825500Y295910D02*
X830580Y300990D01*
X756380Y295910D02*
X825500D01*
X740480Y311810D02*
X756380Y295910D01*
X737980Y311810D02*
X740480D01*
X742470Y321310D02*
X762790Y300990D01*
X811530D01*
X744220Y276860D02*
X756920Y289560D01*
X1104900Y323850D02*
X1123950D01*
X1135380Y335280D01*
X1032510Y313690D02*
X1120140D01*
X719980Y321310D02*
X742470D01*
X1004570Y210820D02*
X1027430Y187960D01*
X1102796D01*
X1110198Y195362D01*
X1110100Y195460D02*
X1110198Y195362D01*
X1110100Y195460D02*
Y217170D01*
Y241300D02*
Y249040D01*
X824230Y166370D02*
X837630Y179770D01*
Y257240D01*
X815340Y281940D02*
X842010D01*
X803910Y233179D02*
Y270510D01*
X593090Y166370D02*
X824230D01*
X803910Y270510D02*
X815340Y281940D01*
X854710Y243840D02*
X930910D01*
X713780Y379998D02*
Y400578D01*
Y379998D02*
X726440Y367338D01*
Y345132D02*
Y367338D01*
X719980Y338672D02*
X726440Y345132D01*
X719980Y321310D02*
Y338672D01*
X619760Y318770D02*
X650240Y288290D01*
X593090Y332740D02*
X607060Y318770D01*
X619760D01*
X664210Y373380D02*
Y383540D01*
X711245Y276860D02*
X744220D01*
X681371Y246986D02*
X711245Y276860D01*
X842010Y281940D02*
X848360Y275590D01*
X939800Y413811D02*
Y416560D01*
X936080Y410091D02*
X939800Y413811D01*
X936080Y394970D02*
Y410091D01*
X1032510Y437040D02*
Y444500D01*
X1028540Y433070D02*
X1032510Y437040D01*
X1125060Y635160D02*
X1145540Y614680D01*
Y600710D02*
Y614680D01*
X1106170Y598170D02*
X1132840D01*
X1016874Y456804D02*
X1018540Y458470D01*
X834886Y456804D02*
X1016874D01*
X825356Y466334D02*
X834886Y456804D01*
X643646Y466334D02*
X825356D01*
X601980Y508000D02*
X643646Y466334D01*
X1018540Y458470D02*
X1019810Y459740D01*
X991811Y468908D02*
X994410Y471507D01*
X984924Y468908D02*
X991811D01*
X994410Y471507D02*
X997287D01*
X982980Y466964D02*
X984924Y468908D01*
X495300Y563880D02*
X537210Y521970D01*
X750570D01*
X763270Y534670D01*
X601980D02*
X662928D01*
X680720Y552462D01*
Y554990D01*
X1010920Y552450D02*
X1028790Y534580D01*
X1010920Y552450D02*
Y574040D01*
X1016000Y579120D01*
X1027430D01*
X1036320Y570230D01*
X1084410Y490330D02*
X1089600Y485140D01*
X1084322Y490330D02*
X1084410D01*
X1076910Y497742D02*
X1084322Y490330D01*
X1076910Y497742D02*
Y528518D01*
X1074678Y530750D02*
X1076910Y528518D01*
X1058664Y530750D02*
X1074678D01*
X1051550Y537864D02*
X1058664Y530750D01*
X1051550Y537864D02*
Y544404D01*
X1036320Y559634D02*
X1051550Y544404D01*
X1036320Y559634D02*
Y570230D01*
X1056630Y539968D02*
X1058118Y538480D01*
X1078886Y540910D02*
X1085227Y534570D01*
X1051550Y551588D02*
Y557331D01*
Y551588D02*
X1056630Y546508D01*
X1069598Y535830D02*
X1076782D01*
X1085227Y534570D02*
X1132840D01*
X1046480Y562401D02*
Y565150D01*
X1058118Y538480D02*
X1066948D01*
X1081990Y523340D02*
Y530622D01*
X1046480Y562401D02*
X1051550Y557331D01*
X1069340Y548640D02*
X1077070Y540910D01*
X1078886D01*
X1056630Y539968D02*
Y546508D01*
X1081990Y523340D02*
X1082090Y523240D01*
X1066948Y538480D02*
X1069598Y535830D01*
X1076782D02*
X1081990Y530622D01*
X1082090Y523240D02*
X1099850D01*
X1080770Y457200D02*
X1083310Y459740D01*
X1099850D01*
X1080770Y441960D02*
Y457200D01*
X1099850Y472440D02*
Y485140D01*
X951230Y264160D02*
X990600D01*
X930910Y243840D02*
X951230Y264160D01*
X990600D02*
Y264160D01*
X975360Y325120D02*
X986790Y336550D01*
X1010048D01*
X1018739Y327859D01*
Y327461D02*
Y327859D01*
Y327461D02*
X1032510Y313690D01*
X1018540Y312420D02*
X1027430Y303530D01*
X676910Y533400D02*
X692030Y548520D01*
X1135380Y335280D02*
Y366613D01*
Y381000D02*
Y425450D01*
X1120140Y440690D02*
X1135380Y425450D01*
X1120140Y440690D02*
Y483870D01*
X1132840Y496570D01*
Y505460D01*
X1127760Y510540D02*
X1132840Y505460D01*
X1099850Y510540D02*
X1127760D01*
X781050Y699979D02*
X783789Y702719D01*
X781050Y697230D02*
Y699979D01*
X783789Y702719D02*
Y703779D01*
X822960Y742950D01*
X1022350D01*
X1049020Y716280D01*
X853440Y720090D02*
X883920D01*
X817880Y684530D02*
X853440Y720090D01*
X817880Y659130D02*
Y684530D01*
X1019810Y459740D02*
X1059150D01*
X1008380Y469900D02*
X1010920Y472440D01*
X1059150D01*
X997287Y471507D02*
X1002030Y476250D01*
Y500380D01*
X1080770Y441960D02*
X1080988Y441742D01*
Y439638D02*
Y441742D01*
X1070610Y429260D02*
X1080988Y439638D01*
X1032350Y429260D02*
X1070610D01*
X1028540Y433070D02*
X1032350Y429260D01*
X982584Y446644D02*
X994966D01*
X1002560Y439050D01*
X1003810D01*
X1008540Y434320D01*
Y433070D02*
Y434320D01*
X989131Y265629D02*
X990600Y264160D01*
X818450Y192470D02*
X826770Y184150D01*
X818450Y192470D02*
Y218639D01*
X803910Y233179D02*
X818450Y218639D01*
X996760Y312420D02*
X1018540D01*
X990201Y308610D02*
X992950D01*
X996760Y312420D01*
X514350Y245110D02*
X520700Y238760D01*
X501650Y245110D02*
X514350D01*
X490220Y256540D02*
X501650Y245110D01*
X490220Y256540D02*
Y461010D01*
X499110Y469900D01*
X580390D01*
X593090Y457200D01*
Y332740D02*
Y457200D01*
X599440Y258682D02*
Y279400D01*
X638016Y190500D02*
X650240D01*
X612140Y260350D02*
X636270Y236220D01*
X626110Y196850D02*
Y232012D01*
X636270Y229388D02*
Y236220D01*
X599440Y258682D02*
X626110Y232012D01*
X632460Y190500D02*
X638016D01*
X619760Y171450D02*
X656590D01*
X668020Y182880D01*
X588972Y189230D02*
X601980D01*
X619760Y171450D01*
X583579Y180619D02*
X585523Y178675D01*
Y173937D02*
X593090Y166370D01*
X585523Y173937D02*
Y178675D01*
X549910Y210820D02*
X567382D01*
X588972Y189230D01*
X668020Y182880D02*
Y218913D01*
X659033Y227900D02*
X668020Y218913D01*
X637758Y227900D02*
X659033D01*
X636270Y229388D02*
X637758Y227900D01*
X629126Y181610D02*
X638016Y190500D01*
X628650Y181610D02*
X629126D01*
X626110Y196850D02*
X632460Y190500D01*
X604321Y284281D02*
X605382D01*
X599440Y279400D02*
X604321Y284281D01*
X608121Y287020D02*
X610870D01*
X605382Y284281D02*
X608121Y287020D01*
X715010Y194310D02*
X772160D01*
X713740Y195580D02*
X715010Y194310D01*
X772160D02*
X779780Y201930D01*
X1098958Y608330D02*
X1136442D01*
X1144062Y600710D01*
X1145540D01*
X1095148Y604520D02*
X1098958Y608330D01*
X1094740Y604520D02*
X1095148D01*
X1132840Y598170D02*
X1140460Y590550D01*
X1156970D01*
X1161160Y586360D01*
Y431402D02*
Y586360D01*
X1160780Y431022D02*
X1161160Y431402D01*
X1160780Y331470D02*
Y431022D01*
X1106170Y276860D02*
X1160780Y331470D01*
X1028700Y276860D02*
X1106170D01*
X1016000Y289560D02*
X1028700Y276860D01*
X1145540Y600710D02*
X1146425D01*
X1151505Y595630D01*
X1165642D02*
X1167130Y594142D01*
X1151505Y595630D02*
X1165642D01*
X1104900Y264160D02*
X1167130Y326390D01*
Y594142D01*
X990600Y264160D02*
X1104900D01*
X919480Y641350D02*
X942220D01*
X916280Y642120D02*
X918265Y640135D01*
X942220Y641350D02*
X951230Y632340D01*
X918265Y640135D02*
X919480Y641350D01*
X918265Y640135D02*
X929076Y629324D01*
X934046D01*
X806232Y674588D02*
Y683042D01*
Y674588D02*
X806450Y674370D01*
X806232Y683042D02*
X853440Y730250D01*
X895350D01*
X900430Y725170D01*
X908050D01*
X883920Y720090D02*
X895350Y708660D01*
X1026160Y562610D02*
X1046470Y542300D01*
Y525670D02*
Y542300D01*
Y525670D02*
X1048900Y523240D01*
X1059150D01*
X839470Y660400D02*
X861060D01*
X792480Y613410D02*
X839470Y660400D01*
X1002030Y500380D02*
X1012190Y510540D01*
X1059150D01*
X692030Y548520D02*
Y576442D01*
X708846Y617220D02*
X714221D01*
X715010Y638160D02*
X715132Y638038D01*
Y632338D02*
Y638038D01*
Y632338D02*
X717061Y630409D01*
Y620060D02*
Y630409D01*
X714221Y617220D02*
X717061Y620060D01*
X1089660Y549910D02*
X1097280Y542290D01*
X1116330D01*
X1143826Y444600D02*
X1151000Y437425D01*
X1134110Y444600D02*
X1143826D01*
X1151000Y435610D02*
Y437425D01*
X1149690Y480060D02*
X1150620Y479130D01*
X775970Y591820D02*
Y601980D01*
X765810Y612140D02*
X775970Y601980D01*
X708846Y612140D02*
X765810D01*
X744100Y548640D02*
X753110Y557650D01*
Y569813D01*
X730983Y583347D02*
X753110D01*
X730250Y584080D02*
X730983Y583347D01*
X730250Y583960D02*
Y596900D01*
X725010Y602140D02*
X730250Y596900D01*
X708846Y602140D02*
X725010D01*
X763270Y534670D02*
Y598170D01*
X708846Y607162D02*
X721258D01*
X754380Y607060D02*
X763270Y598170D01*
X721360Y607060D02*
X754380D01*
X721258Y607162D02*
X721360Y607060D01*
X495300Y563880D02*
Y708025D01*
X505460Y718185D01*
Y830580D01*
X509529Y834649D01*
X539750D01*
Y840840D01*
X609600Y570230D02*
Y579120D01*
X674370Y588010D02*
X675640D01*
X671830Y590550D02*
X674370Y588010D01*
X671830Y590550D02*
Y599440D01*
X674530Y602140D01*
X680535D01*
X674300Y573712D02*
X677030Y576442D01*
X674300Y570430D02*
Y573712D01*
X667750Y563880D02*
X674300Y570430D01*
X666750Y563880D02*
X667750D01*
X665480Y601980D02*
X670640Y607140D01*
X680535D01*
X609600Y579120D02*
X642620Y612140D01*
X680535D01*
X604800Y593050D02*
X604840Y593090D01*
X613410D01*
X637460Y617140D01*
X680535D01*
X803910Y581660D02*
Y584409D01*
X806380Y586879D01*
X792480Y578722D02*
Y613410D01*
X806380Y586879D02*
Y588070D01*
X792480Y578722D02*
X803512Y567690D01*
X830580D01*
X806380Y588070D02*
X808860Y590550D01*
X809110D01*
X840105Y577215D02*
Y596265D01*
X830580Y567690D02*
X840105Y577215D01*
Y596265D02*
X858440Y614600D01*
X825083Y591523D02*
Y611343D01*
X824110Y590550D02*
X825083Y591523D01*
X869830Y628150D02*
Y628650D01*
X861360Y619680D02*
X869830Y628150D01*
X856336Y619680D02*
X861360D01*
X847998Y611343D02*
X856336Y619680D01*
X838617Y611343D02*
X847998D01*
X858440Y614600D02*
X893895D01*
X891540Y619680D02*
Y619760D01*
X882650Y628650D02*
X891540Y619760D01*
X869830Y628650D02*
X882650D01*
Y570880D02*
X883300Y570230D01*
X882650Y570880D02*
Y600710D01*
X886540Y604600D01*
X893895D01*
X866140Y600765D02*
X868680Y603305D01*
Y609600D01*
X893895D01*
X1115938Y834390D02*
X1116330Y833998D01*
X1106170Y834390D02*
X1115938D01*
X1116330Y833998D02*
Y840809D01*
X961390Y650240D02*
X965200Y646430D01*
Y631340D02*
Y646430D01*
X976630Y614680D02*
Y637910D01*
X980110Y641390D02*
X982809D01*
X966550Y604600D02*
X976630Y614680D01*
Y637910D02*
X980110Y641390D01*
X934046Y629324D02*
X935990Y627380D01*
X916280Y642120D02*
Y642620D01*
X952230Y618340D02*
X965200D01*
X951230Y617340D02*
X952230Y618340D01*
X922206Y609600D02*
X958850D01*
X948490Y614600D02*
X951230Y617340D01*
X922206Y614600D02*
X948490D01*
X922206Y604600D02*
X966550D01*
X935990Y623570D02*
Y627380D01*
X932020Y619600D02*
X935990Y623570D01*
X922206Y619600D02*
X932020D01*
X1150388Y457100D02*
X1151419Y458130D01*
X1134110Y457100D02*
X1150388D01*
X1150381Y522070D02*
X1150620Y522309D01*
X1132840Y522070D02*
X1150381D01*
X1056080Y976630D02*
X1056220Y976770D01*
X545706Y861060D02*
X648970D01*
X663438Y875528D01*
Y895328D01*
X663460Y895350D01*
X542730Y858084D02*
X545706Y861060D01*
X542730Y855570D02*
Y858084D01*
X540500Y853340D02*
X542730Y855570D01*
X539750Y853340D02*
X540500D01*
X539750Y801370D02*
Y814923D01*
Y828457D02*
Y834649D01*
X1009130Y882393D02*
Y892644D01*
Y882393D02*
X1038214Y853309D01*
X1116330D01*
Y827187D02*
Y833998D01*
X1131987Y813653D02*
X1132840Y812800D01*
X1116330Y813653D02*
X1131987D01*
X1154430Y890270D02*
X1159510Y885190D01*
X1056080Y930910D02*
X1056220Y930770D01*
X1178230Y1237480D02*
G03*
X1158230Y1257480I-20000J0D01*
G01*
Y157480D02*
G03*
X1178230Y177480I0J20000D01*
G01*
X498230Y1257480D02*
G03*
X478230Y1237480I0J-20000D01*
G01*
Y177480D02*
G03*
X498230Y157480I20000J0D01*
G01*
X1158230D01*
X498230Y1257480D02*
X1158230D01*
X1178230Y177480D02*
Y1237480D01*
X478230Y177480D02*
Y1237480D01*
D17*
X666750Y550880D02*
D03*
Y563880D02*
D03*
X965200Y618340D02*
D03*
Y631340D02*
D03*
D18*
X640080Y634020D02*
D03*
Y575020D02*
D03*
X952500Y530570D02*
D03*
Y589570D02*
D03*
D19*
X692030Y576442D02*
D03*
X677030D02*
D03*
X1125100Y241300D02*
D03*
X1110100D02*
D03*
X1125100Y217170D02*
D03*
X1110100D02*
D03*
D20*
X897280Y642620D02*
D03*
X916280D02*
D03*
X739800Y623570D02*
D03*
X758800D02*
D03*
D21*
X1048809Y618490D02*
D03*
X779780Y377678D02*
D03*
X538800Y615950D02*
D03*
D22*
X982809Y595590D02*
D03*
Y641390D02*
D03*
X713780Y400578D02*
D03*
Y354779D02*
D03*
X604800Y593050D02*
D03*
Y638850D02*
D03*
D23*
X922206Y619600D02*
D03*
Y614600D02*
D03*
Y609600D02*
D03*
Y604600D02*
D03*
Y599600D02*
D03*
X893895D02*
D03*
Y604600D02*
D03*
Y609600D02*
D03*
Y614600D02*
D03*
X680535Y602140D02*
D03*
Y607140D02*
D03*
Y612140D02*
D03*
Y617140D02*
D03*
Y622140D02*
D03*
X708846D02*
D03*
Y617140D02*
D03*
Y612140D02*
D03*
Y607140D02*
D03*
D24*
X893895Y619600D02*
D03*
X708846Y602140D02*
D03*
D25*
X1116330Y840809D02*
D03*
Y853309D02*
D03*
X539750Y853340D02*
D03*
Y840840D02*
D03*
D26*
X951230Y632340D02*
D03*
Y617340D02*
D03*
D27*
X1009130Y892644D02*
D03*
X1071130D02*
D03*
X663460Y895350D02*
D03*
X601460D02*
D03*
D28*
X1116330Y827187D02*
D03*
Y813653D02*
D03*
X1135380Y380147D02*
D03*
Y366613D02*
D03*
X539750Y828457D02*
D03*
Y814923D02*
D03*
X753110Y583347D02*
D03*
Y569813D02*
D03*
D29*
X737980Y311810D02*
D03*
Y330810D02*
D03*
X719980Y321310D02*
D03*
D30*
X557590Y337820D02*
D03*
X628590D02*
D03*
X558860Y435610D02*
D03*
X629860D02*
D03*
D31*
X1008540Y433070D02*
D03*
X1028540D02*
D03*
D32*
X915580Y394970D02*
D03*
X936080D02*
D03*
D33*
X715010Y638160D02*
D03*
Y652160D02*
D03*
D34*
X730250Y569080D02*
D03*
Y584080D02*
D03*
D35*
X777240Y579065D02*
D03*
Y591875D02*
D03*
X868680Y589225D02*
D03*
Y602035D02*
D03*
D36*
X744100Y548640D02*
D03*
X729100D02*
D03*
X824110Y590550D02*
D03*
X809110D02*
D03*
D37*
X1150620Y458130D02*
D03*
Y479130D02*
D03*
Y522309D02*
D03*
Y501309D02*
D03*
D38*
X1099850Y447040D02*
D03*
X1059150D02*
D03*
X1099850Y459740D02*
D03*
X1059150D02*
D03*
X1099850Y472440D02*
D03*
X1059150D02*
D03*
X1099850Y485140D02*
D03*
X1059150D02*
D03*
X1099850Y497840D02*
D03*
X1059150D02*
D03*
X1099850Y510540D02*
D03*
X1059150D02*
D03*
X1099850Y523240D02*
D03*
X1059150D02*
D03*
D39*
X1132840Y522070D02*
D03*
Y534570D02*
D03*
X1133311Y457100D02*
D03*
Y444600D02*
D03*
D40*
X869830Y628650D02*
D03*
X854830D02*
D03*
D41*
X825083Y611343D02*
D03*
X838617D02*
D03*
D42*
X883300Y570230D02*
D03*
X869300D02*
D03*
D43*
X889613Y977670D02*
D03*
Y929870D02*
D03*
X776730Y933680D02*
D03*
Y981480D02*
D03*
D44*
X969112Y953770D02*
D03*
X697230Y957580D02*
D03*
D45*
X687197Y1174750D02*
D03*
X719963D02*
D03*
X632449D02*
D03*
X665216D02*
D03*
X576834D02*
D03*
X609600D02*
D03*
X520954D02*
D03*
X553720D02*
D03*
X1109250Y1177290D02*
D03*
X1142016D02*
D03*
X1054502D02*
D03*
X1087268D02*
D03*
X999754D02*
D03*
X1032521D02*
D03*
X945007D02*
D03*
X977773D02*
D03*
D46*
X506730Y907884D02*
D03*
Y895350D02*
D03*
X1164590Y868597D02*
D03*
Y856063D02*
D03*
D47*
X1056220Y976770D02*
D03*
Y930770D02*
D03*
X612170Y933310D02*
D03*
Y979310D02*
D03*
D48*
X1125220Y953770D02*
D03*
X543170Y956310D02*
D03*
D54*
X908050Y609600D02*
D03*
X694690Y612140D02*
D03*
D63*
X1068070Y840740D02*
D03*
X1029970D02*
D03*
X953770D02*
D03*
X915670D02*
D03*
Y688340D02*
D03*
X953770D02*
D03*
X991870D02*
D03*
X1029970D02*
D03*
X1068070D02*
D03*
X741680Y691000D02*
D03*
X703580D02*
D03*
X665480D02*
D03*
X627380D02*
D03*
X589280D02*
D03*
Y843400D02*
D03*
X627380D02*
D03*
X703580D02*
D03*
X741680D02*
D03*
D67*
X1139870Y1078230D02*
D03*
X524170D02*
D03*
D68*
X864870D02*
D03*
X799170D02*
D03*
D74*
X1142016Y1080376D02*
Y1177290D01*
X1139870Y1078230D02*
X1142016Y1080376D01*
X719963Y1174425D02*
X720391Y1173997D01*
X736083D01*
X719963Y1174425D02*
Y1174750D01*
X1150620Y479130D02*
Y501310D01*
X1094740Y786130D02*
X1125220Y755650D01*
X1041400Y786130D02*
X1094740D01*
X849630Y936721D02*
Y972089D01*
Y936721D02*
X853440Y932911D01*
Y932180D02*
Y932911D01*
X844550Y977169D02*
Y977900D01*
Y977169D02*
X849630Y972089D01*
X1035050Y976630D02*
X1056080D01*
X665216Y1174750D02*
X687197D01*
X609600D02*
X632449D01*
X521382Y1081018D02*
Y1173654D01*
Y1081018D02*
X524170Y1078230D01*
X553720Y1174750D02*
X576834D01*
X925830Y1177290D02*
X945007D01*
X1087268D02*
X1109250D01*
X1032521D02*
X1054502D01*
X977773D02*
X999754D01*
D75*
X909835Y300990D02*
X914915Y306070D01*
X933450D02*
X982980Y355600D01*
X908050Y300990D02*
X909835D01*
X914915Y306070D02*
X933450D01*
X982980Y355600D02*
Y430530D01*
X1132840Y480060D02*
X1149690D01*
D76*
X832632Y332430D02*
X870910D01*
X830223Y330021D02*
X832632Y332430D01*
X815340Y328930D02*
X816431Y330021D01*
X830223D01*
X870910Y332430D02*
X878840Y340360D01*
X943610D02*
X962660Y359410D01*
X878840Y340360D02*
X943610D01*
X962660Y359410D02*
Y377190D01*
D77*
X612170Y979310D02*
X650240D01*
X1035050Y930910D02*
X1056080D01*
X1021080D02*
X1035050D01*
X612170Y933310D02*
X641210D01*
D78*
X629860Y337820D02*
X661670D01*
X678180D01*
X629920Y435610D02*
X660400D01*
X674370D01*
D79*
X1147486Y855387D02*
X1163913D01*
X1146810Y854710D02*
X1147486Y855387D01*
X506730Y907884D02*
Y928163D01*
X520700Y895350D02*
X523222Y892828D01*
X506730Y895350D02*
X520700D01*
X1163913Y855387D02*
X1164590Y856063D01*
X1164323Y868597D02*
X1164590D01*
X1163029Y869891D02*
Y870158D01*
X1159510Y873677D02*
Y885190D01*
X1163029Y869891D02*
X1164323Y868597D01*
X1159510Y873677D02*
X1163029Y870158D01*
D80*
X799170Y1191910D02*
X806450Y1199190D01*
X799170Y1078230D02*
Y1191910D01*
X857250Y1199190D02*
X864870Y1191570D01*
Y1078230D02*
Y1191570D01*
D81*
X598170Y212090D02*
D03*
X802640D02*
D03*
X857250Y1199190D02*
D03*
X1004570Y210820D02*
D03*
D82*
X648970Y212090D02*
D03*
X853440D02*
D03*
X806450Y1199190D02*
D03*
X1055370Y210820D02*
D03*
D83*
X500000Y1235000D02*
D03*
X1155000D02*
D03*
Y180000D02*
D03*
X500000D02*
D03*
D84*
X510540Y429260D02*
D03*
X928370Y289560D02*
D03*
X763270Y646430D02*
D03*
X1055370Y241300D02*
D03*
X566420Y410210D02*
D03*
X544830Y447040D02*
D03*
X554990Y306070D02*
D03*
X680720Y358140D02*
D03*
X839470Y259080D02*
D03*
X857250Y262890D02*
D03*
X947420Y195580D02*
D03*
X916940Y196850D02*
D03*
X815340Y328930D02*
D03*
X779780Y275590D02*
D03*
X758370Y327480D02*
D03*
X727710Y297180D02*
D03*
X1149350Y273050D02*
D03*
X1143000Y259080D02*
D03*
X918210Y323850D02*
D03*
X891540Y325120D02*
D03*
X1104900Y323850D02*
D03*
X1120140Y313690D02*
D03*
X695960Y349250D02*
D03*
X697230Y365760D02*
D03*
X681371Y246986D02*
D03*
X793750Y317500D02*
D03*
X775970D02*
D03*
X774700Y335280D02*
D03*
X793750Y334010D02*
D03*
X571500Y306070D02*
D03*
X939800Y416560D02*
D03*
X1146810Y715010D02*
D03*
X1149350Y642620D02*
D03*
X1084580Y708660D02*
D03*
Y728980D02*
D03*
X982980Y466964D02*
D03*
X601980Y508000D02*
D03*
Y534670D02*
D03*
X680720Y554990D02*
D03*
X791210Y191770D02*
D03*
X1046480Y565150D02*
D03*
X975360Y325120D02*
D03*
X1005840Y326390D02*
D03*
X1027430Y303530D02*
D03*
X676910Y533400D02*
D03*
X781050Y697230D02*
D03*
X1049020Y716280D02*
D03*
X1018540Y458470D02*
D03*
X1009650Y471170D02*
D03*
X982584Y446644D02*
D03*
X982980Y430530D02*
D03*
X824230Y184150D02*
D03*
X989131Y265629D02*
D03*
X990201Y308610D02*
D03*
X520700Y238760D02*
D03*
X612140Y260350D02*
D03*
X583579Y180619D02*
D03*
X628650Y181610D02*
D03*
X650240Y190500D02*
D03*
X549910Y210820D02*
D03*
X610870Y287020D02*
D03*
X713740Y195580D02*
D03*
X1129030Y579120D02*
D03*
X962660Y377190D02*
D03*
X509270Y285750D02*
D03*
X908050Y300990D02*
D03*
X934720Y642620D02*
D03*
X806450Y674370D02*
D03*
X908050Y725170D02*
D03*
X895350Y708660D02*
D03*
X1026160Y562610D02*
D03*
X817880Y659130D02*
D03*
X838200Y643890D02*
D03*
X861060Y660400D02*
D03*
X678180Y337820D02*
D03*
X877570Y699770D02*
D03*
X664210Y383540D02*
D03*
X1069340Y548640D02*
D03*
X1089660Y549910D02*
D03*
X687224Y456174D02*
D03*
X1151000Y435610D02*
D03*
X1132840Y480060D02*
D03*
X609600Y570230D02*
D03*
X803910Y581660D02*
D03*
X1106170Y834390D02*
D03*
X961390Y650240D02*
D03*
X617220Y469900D02*
D03*
X660400Y435610D02*
D03*
X674370D02*
D03*
X604520Y386080D02*
D03*
X631280Y284953D02*
D03*
X736083Y1173997D02*
D03*
X826770Y350520D02*
D03*
X981710Y539750D02*
D03*
X801370Y646430D02*
D03*
X735620Y644870D02*
D03*
X686000Y510340D02*
D03*
X684160Y395340D02*
D03*
X687070Y590550D02*
D03*
X982940Y500340D02*
D03*
X861060Y351790D02*
D03*
X1028790Y534580D02*
D03*
X1049020Y403860D02*
D03*
X1032510D02*
D03*
X1125220Y755650D02*
D03*
X1041400Y786130D02*
D03*
X853440Y932180D02*
D03*
X844550Y977900D02*
D03*
X1146810Y854710D02*
D03*
X661670Y337820D02*
D03*
X951230Y904240D02*
D03*
X1035050Y976630D02*
D03*
X718820Y1012190D02*
D03*
X641210Y933310D02*
D03*
X539750Y801370D02*
D03*
X1132840Y812800D02*
D03*
X1035050Y930910D02*
D03*
X1021080D02*
D03*
X523222Y892828D02*
D03*
X635000Y979170D02*
D03*
X650240Y979310D02*
D03*
X925830Y1177290D02*
D03*
D85*
X662940Y574040D02*
D03*
X673100Y589280D02*
D03*
D86*
X957580Y243840D02*
D03*
X1032510Y447040D02*
D03*
X980440Y486410D02*
D03*
X1125060Y635160D02*
D03*
X873760Y201930D02*
D03*
X650240Y288290D02*
D03*
X1145540Y600710D02*
D03*
X1094740Y604520D02*
D03*
D87*
X1106170Y598170D02*
D03*
X703580Y237490D02*
D03*
X1116330Y542290D02*
D03*
D88*
X958850Y612140D02*
D03*
M02*
