G04*
G04 #@! TF.GenerationSoftware,Altium Limited,Altium Designer,26.9.1 (10)*
G04*
G04 Layer_Physical_Order=3*
G04 Layer_Color=16440176*
G04 Board_Origin=38150000|32450000*
%FSLAX43Y43*%
%MOMM*%
G71*
G04*
G04 #@! TF.SameCoordinates,ABF88EB3-4507-415C-8808-D951A2BA1AED*
G04*
G04*
G04 #@! TF.FilePolarity,Positive*
G04*
G01*
G75*
%ADD17C,2.000*%
%ADD32C,1.000*%
%ADD50C,3.250*%
%ADD51C,0.600*%
%ADD52C,0.800*%
%ADD53C,0.550*%
%ADD54C,0.450*%
%ADD56C,0.500*%
%ADD62R,0.110X0.010*%
%ADD63C,1.408*%
%ADD64C,1.800*%
%ADD66C,2.000*%
%ADD69R,0.450X1.500*%
%ADD70R,0.600X0.600*%
%ADD71R,1.500X0.450*%
G36*
X36703Y35106D02*
Y8763D01*
X33756D01*
X33723Y8884D01*
X33552Y9180D01*
X33310Y9422D01*
X33014Y9593D01*
X32683Y9682D01*
X32341D01*
X32010Y9593D01*
X31877Y9516D01*
X31744Y9593D01*
X31413Y9682D01*
X31071D01*
X30740Y9593D01*
X30607Y9516D01*
X30474Y9593D01*
X30143Y9682D01*
X29801D01*
X29470Y9593D01*
X29386Y9545D01*
X29304Y9585D01*
X29276Y9689D01*
X29405Y9912D01*
X29494Y10243D01*
Y10585D01*
X29405Y10916D01*
X29234Y11212D01*
X28992Y11454D01*
X28696Y11625D01*
X28365Y11714D01*
X28023D01*
X27692Y11625D01*
X27396Y11454D01*
X27154Y11212D01*
X26983Y10916D01*
X26894Y10585D01*
Y10243D01*
X26983Y9912D01*
X27094Y9719D01*
X27056Y9627D01*
X26930Y9593D01*
X26634Y9422D01*
X26392Y9180D01*
X26221Y8884D01*
X26188Y8763D01*
X20341D01*
Y8805D01*
X20293Y8920D01*
X20178Y8968D01*
X18678D01*
X18563Y8920D01*
X18516Y8805D01*
Y8763D01*
X14098D01*
X14098Y8763D01*
X13933Y8832D01*
X13753D01*
X13588Y8763D01*
X13462Y8637D01*
X13393Y8472D01*
Y8292D01*
X13462Y8127D01*
X13588Y8001D01*
X13589Y8000D01*
Y6087D01*
X13559Y6075D01*
X13511Y5960D01*
Y4460D01*
X13559Y4345D01*
X13589Y4333D01*
Y4116D01*
X13497Y4078D01*
X10089Y7493D01*
X-107D01*
X-335Y7265D01*
Y7027D01*
X-331D01*
X92Y6604D01*
X2916D01*
X2954Y6512D01*
X2921Y6478D01*
X2852Y6313D01*
Y6133D01*
X2921Y5968D01*
X3047Y5842D01*
X3212Y5773D01*
X3392D01*
X3557Y5842D01*
X3683Y5968D01*
X3752Y6133D01*
Y6313D01*
X3683Y6478D01*
X3650Y6512D01*
X3688Y6604D01*
X9398D01*
X9583Y6419D01*
Y6387D01*
X9652Y6222D01*
X9778Y6096D01*
X9943Y6027D01*
X9975D01*
X13335Y2667D01*
Y1270D01*
Y-3632D01*
X13312D01*
X13197Y-3679D01*
X13150Y-3794D01*
Y-9951D01*
X10860Y-11926D01*
X5735D01*
X5686Y-11946D01*
X5635Y-11961D01*
X3448Y-13684D01*
X3447Y-13686D01*
X3445Y-13686D01*
X2033Y-14844D01*
X2029Y-14852D01*
X2021Y-14855D01*
X2000Y-14906D01*
X1974Y-14954D01*
X1977Y-14962D01*
X1974Y-14970D01*
X1974Y-21574D01*
X2021Y-21689D01*
X2148Y-21816D01*
X2263Y-21863D01*
X2378Y-21816D01*
X2505Y-21689D01*
X2552Y-21574D01*
Y-15093D01*
X5859Y-12527D01*
X10973D01*
X11025Y-12505D01*
X11079Y-12487D01*
X13244Y-10600D01*
X13335Y-10641D01*
Y-26924D01*
X10414Y-29845D01*
X2550D01*
Y-22463D01*
X2503Y-22348D01*
X2388Y-22301D01*
X2134D01*
X2019Y-22348D01*
X1972Y-22463D01*
Y-29845D01*
X-2124D01*
Y-22463D01*
X-2171Y-22348D01*
X-2286Y-22301D01*
X-2540D01*
X-2655Y-22348D01*
X-2702Y-22463D01*
Y-29845D01*
X-10414D01*
X-13970Y-26289D01*
Y-11818D01*
X-13870Y-11798D01*
X-13831Y-11893D01*
X-10893Y-14831D01*
X-10778Y-14878D01*
X-6998D01*
X-6993Y-14876D01*
X-6989Y-14878D01*
X-3750D01*
X-2702Y-15926D01*
Y-21574D01*
X-2655Y-21689D01*
X-2528Y-21816D01*
X-2413Y-21863D01*
X-2298Y-21816D01*
X-2171Y-21689D01*
X-2124Y-21574D01*
Y-15732D01*
X-2171Y-15617D01*
X-3441Y-14347D01*
X-3556Y-14300D01*
X-10517D01*
X-13300Y-11517D01*
Y-3794D01*
X-13347Y-3679D01*
X-13462Y-3632D01*
X-13716D01*
X-13831Y-3679D01*
X-13870Y-3774D01*
X-13970Y-3754D01*
Y1016D01*
Y3991D01*
X-11357Y6604D01*
X-4529D01*
X-4427Y6562D01*
X-4209D01*
X-4107Y6604D01*
X-1357D01*
X-935Y7026D01*
Y7251D01*
X-952D01*
X-1194Y7493D01*
X-11684D01*
X-12675Y6502D01*
X-12718Y6519D01*
X-12936D01*
X-13139Y6435D01*
X-13293Y6281D01*
X-13377Y6078D01*
Y5860D01*
X-13360Y5817D01*
X-13842Y5335D01*
X-14007Y5403D01*
X-14187D01*
X-14352Y5334D01*
X-14478Y5208D01*
X-14547Y5043D01*
Y4863D01*
X-14479Y4698D01*
X-14663Y4514D01*
X-14822D01*
X-14987Y4445D01*
X-14987Y4445D01*
X-15875D01*
X-16510Y5080D01*
Y8889D01*
X-16509Y8890D01*
X-16383Y9016D01*
X-16314Y9181D01*
Y9361D01*
X-16383Y9526D01*
X-16509Y9652D01*
X-16510Y9653D01*
Y16145D01*
X-16496Y16150D01*
X-16448Y16265D01*
Y17765D01*
X-16496Y17880D01*
X-16510Y17886D01*
Y27321D01*
X-16496Y27326D01*
X-16448Y27441D01*
Y28941D01*
X-16496Y29056D01*
X-16510Y29062D01*
Y35067D01*
X-16410Y35121D01*
X-16388Y35106D01*
X-16065Y34972D01*
X-15722Y34904D01*
X-15372D01*
X-15029Y34972D01*
X-14706Y35106D01*
X-14415Y35300D01*
X-14168Y35548D01*
X-13974Y35838D01*
X-13840Y36161D01*
X-13772Y36504D01*
Y36854D01*
X-13840Y37197D01*
X-13974Y37520D01*
X-14168Y37811D01*
X-14415Y38058D01*
X-14706Y38252D01*
X-15029Y38386D01*
X-15372Y38454D01*
X-15722D01*
X-16065Y38386D01*
X-16388Y38252D01*
X-16678Y38058D01*
X-16926Y37811D01*
X-17120Y37520D01*
X-17254Y37197D01*
X-17322Y36854D01*
Y36504D01*
X-17254Y36161D01*
X-17120Y35838D01*
X-16926Y35548D01*
X-16678Y35300D01*
X-16647Y35279D01*
X-16677Y35179D01*
X-37211D01*
Y46101D01*
X36703D01*
Y35106D01*
D02*
G37*
G36*
X-16611Y27441D02*
X-17709D01*
Y28941D01*
X-16611D01*
Y27441D01*
D02*
G37*
G36*
Y16265D02*
X-17709D01*
Y17765D01*
X-16611D01*
Y16265D01*
D02*
G37*
G36*
X20178Y7707D02*
X18678D01*
Y8805D01*
X20178D01*
Y7707D01*
D02*
G37*
G36*
X14772Y4460D02*
X13674D01*
Y5960D01*
X14772D01*
Y4460D01*
D02*
G37*
G36*
X-17780Y29074D02*
X-17824Y29056D01*
X-17871Y28941D01*
Y27441D01*
X-17824Y27326D01*
X-17780Y27308D01*
Y17898D01*
X-17824Y17880D01*
X-17871Y17765D01*
Y16265D01*
X-17824Y16150D01*
X-17780Y16132D01*
Y4064D01*
X-15240Y1524D01*
Y-306D01*
X-15323Y-361D01*
X-15404Y-328D01*
X-15583D01*
X-15749Y-396D01*
X-15875Y-523D01*
X-15944Y-688D01*
Y-867D01*
X-15875Y-1033D01*
X-15749Y-1159D01*
X-15583Y-1228D01*
X-15404D01*
X-15323Y-1194D01*
X-15240Y-1250D01*
Y-24761D01*
X-15340Y-24799D01*
X-15440Y-24699D01*
X-15605Y-24630D01*
X-15784D01*
X-15950Y-24699D01*
X-16076Y-24826D01*
X-16145Y-24991D01*
Y-25170D01*
X-16076Y-25335D01*
X-15950Y-25462D01*
X-15784Y-25530D01*
X-15605D01*
X-15440Y-25462D01*
X-15340Y-25362D01*
X-15240Y-25400D01*
Y-27564D01*
X-13340Y-29464D01*
Y-30699D01*
X-2702D01*
Y-39162D01*
X-2655Y-39277D01*
X-2540Y-39325D01*
X-2286D01*
X-2171Y-39277D01*
X-2124Y-39162D01*
Y-30699D01*
X1972D01*
Y-39168D01*
X2019Y-39283D01*
X2134Y-39331D01*
X2388D01*
X2503Y-39283D01*
X2550Y-39168D01*
Y-30699D01*
X12573D01*
Y-29591D01*
X14732Y-27432D01*
X14732Y290D01*
X14815Y346D01*
X14896Y312D01*
X15076D01*
X15241Y381D01*
X15367Y507D01*
X15436Y672D01*
Y852D01*
X15367Y1017D01*
X15241Y1143D01*
X15076Y1212D01*
X14896D01*
X14815Y1178D01*
X14732Y1234D01*
Y4297D01*
X14772D01*
X14887Y4345D01*
X14934Y4460D01*
Y5960D01*
X14887Y6075D01*
X14772Y6122D01*
X14732D01*
Y6681D01*
X15641Y7620D01*
X26119Y7620D01*
X26195Y7520D01*
X26132Y7283D01*
Y6941D01*
X26221Y6610D01*
X26334Y6413D01*
X26221Y6217D01*
X26132Y5886D01*
Y5544D01*
X26221Y5213D01*
X26298Y5080D01*
X26221Y4947D01*
X26132Y4616D01*
Y4274D01*
X26221Y3943D01*
X26392Y3647D01*
X26634Y3405D01*
X26930Y3234D01*
X27261Y3145D01*
X27603D01*
X27934Y3234D01*
X28067Y3311D01*
X28200Y3234D01*
X28531Y3145D01*
X28873D01*
X29204Y3234D01*
X29337Y3311D01*
X29470Y3234D01*
X29801Y3145D01*
X30143D01*
X30474Y3234D01*
X30607Y3311D01*
X30740Y3234D01*
X31071Y3145D01*
X31413D01*
X31744Y3234D01*
X31877Y3311D01*
X32010Y3234D01*
X32341Y3145D01*
X32683D01*
X33014Y3234D01*
X33310Y3405D01*
X33552Y3647D01*
X33723Y3943D01*
X33812Y4274D01*
Y4616D01*
X33723Y4947D01*
X33646Y5080D01*
X33723Y5213D01*
X33812Y5544D01*
Y5886D01*
X33723Y6217D01*
X33610Y6413D01*
X33723Y6610D01*
X33812Y6941D01*
Y7283D01*
X33749Y7520D01*
X33825Y7620D01*
X37084D01*
X39703Y5001D01*
X39901Y-48443D01*
X39830Y-48514D01*
X12573D01*
Y-45593D01*
X-13340D01*
Y-47620D01*
X-40645D01*
Y-34798D01*
X-40645Y29270D01*
X-36481Y34036D01*
X-17780Y34036D01*
Y29074D01*
D02*
G37*
%LPC*%
G36*
X32091Y41450D02*
X31637D01*
X31193Y41362D01*
X30775Y41188D01*
X30398Y40937D01*
X30077Y40616D01*
X29826Y40239D01*
X29652Y39821D01*
X29564Y39377D01*
Y38923D01*
X29652Y38479D01*
X29826Y38061D01*
X30077Y37684D01*
X30398Y37363D01*
X30775Y37112D01*
X31193Y36938D01*
X31637Y36850D01*
X32091D01*
X32535Y36938D01*
X32953Y37112D01*
X33330Y37363D01*
X33651Y37684D01*
X33902Y38061D01*
X34076Y38479D01*
X34164Y38923D01*
Y39377D01*
X34076Y39821D01*
X33902Y40239D01*
X33651Y40616D01*
X33330Y40937D01*
X32953Y41188D01*
X32535Y41362D01*
X32091Y41450D01*
D02*
G37*
G36*
X-32158D02*
X-32612D01*
X-33056Y41362D01*
X-33474Y41188D01*
X-33851Y40937D01*
X-34172Y40616D01*
X-34423Y40239D01*
X-34597Y39821D01*
X-34685Y39377D01*
Y38923D01*
X-34597Y38479D01*
X-34423Y38061D01*
X-34172Y37684D01*
X-33851Y37363D01*
X-33474Y37112D01*
X-33056Y36938D01*
X-32612Y36850D01*
X-32158D01*
X-31714Y36938D01*
X-31296Y37112D01*
X-30919Y37363D01*
X-30598Y37684D01*
X-30347Y38061D01*
X-30173Y38479D01*
X-30085Y38923D01*
Y39377D01*
X-30173Y39821D01*
X-30347Y40239D01*
X-30598Y40616D01*
X-30919Y40937D01*
X-31296Y41188D01*
X-31714Y41362D01*
X-32158Y41450D01*
D02*
G37*
G36*
X12555Y36999D02*
X12337D01*
X12134Y36915D01*
X11980Y36761D01*
X11896Y36558D01*
Y36340D01*
X11980Y36137D01*
X12134Y35983D01*
X12337Y35899D01*
X12555D01*
X12758Y35983D01*
X12912Y36137D01*
X12996Y36340D01*
Y36558D01*
X12912Y36761D01*
X12758Y36915D01*
X12555Y36999D01*
D02*
G37*
G36*
X-9909Y36229D02*
X-10185D01*
X-10452Y36157D01*
X-10692Y36019D01*
X-10887Y35824D01*
X-11025Y35584D01*
X-11089Y35348D01*
X-11185Y35318D01*
X-11191Y35318D01*
X-11206Y35353D01*
X-11207Y35354D01*
X-11208Y35355D01*
X-11231Y35364D01*
X-11248Y35383D01*
X-11286Y35386D01*
X-11321Y35401D01*
X-11322Y35400D01*
X-11324Y35401D01*
X-11526Y35397D01*
X-11541Y35390D01*
X-11557Y35393D01*
X-11952Y35307D01*
X-11966Y35298D01*
X-11983Y35298D01*
X-12353Y35136D01*
X-12365Y35124D01*
X-12381Y35121D01*
X-12713Y34890D01*
X-12722Y34876D01*
X-12737Y34869D01*
X-13018Y34578D01*
X-13024Y34563D01*
X-13037Y34553D01*
X-13256Y34213D01*
X-13259Y34197D01*
X-13270Y34185D01*
X-13418Y33809D01*
X-13418Y33792D01*
X-13427Y33778D01*
X-13498Y33380D01*
X-13495Y33364D01*
X-13501Y33349D01*
X-13497Y33148D01*
X-13497Y21971D01*
X-13497Y21721D01*
X-13491Y21705D01*
X-13494Y21689D01*
X-13397Y21198D01*
X-13387Y21185D01*
Y21168D01*
X-13196Y20706D01*
X-13184Y20694D01*
X-13181Y20678D01*
X-12903Y20262D01*
X-12889Y20252D01*
X-12883Y20237D01*
X-12529Y19883D01*
X-12514Y19877D01*
X-12504Y19863D01*
X-12088Y19585D01*
X-12072Y19582D01*
X-12060Y19570D01*
X-11598Y19379D01*
X-11581D01*
X-11568Y19369D01*
X-11077Y19272D01*
X-11061Y19275D01*
X-11045Y19269D01*
X-10795Y19269D01*
X-8008Y19269D01*
X-7783Y19269D01*
X-7773Y19273D01*
X-7762Y19270D01*
X-7315Y19329D01*
X-7306Y19334D01*
X-7294Y19333D01*
X-6859Y19449D01*
X-6850Y19456D01*
X-6839D01*
X-6423Y19629D01*
X-6415Y19637D01*
X-6404Y19638D01*
X-6014Y19863D01*
X-6007Y19872D01*
X-5996Y19875D01*
X-5639Y20149D01*
X-5633Y20159D01*
X-5623Y20163D01*
X-5304Y20482D01*
X-5300Y20492D01*
X-5290Y20498D01*
X-5016Y20855D01*
X-5013Y20866D01*
X-5004Y20873D01*
X-4779Y21263D01*
X-4778Y21274D01*
X-4770Y21282D01*
X-4597Y21698D01*
Y21709D01*
X-4590Y21718D01*
X-4474Y22153D01*
X-4475Y22165D01*
X-4470Y22174D01*
X-4411Y22621D01*
X-4414Y22632D01*
X-4410Y22642D01*
X-4410Y22867D01*
X-4410Y27142D01*
X-4410Y27142D01*
X-4410Y27392D01*
X-4416Y27407D01*
X-4413Y27424D01*
X-4510Y27914D01*
X-4519Y27928D01*
Y27945D01*
X-4711Y28407D01*
X-4723Y28419D01*
X-4726Y28435D01*
X-5004Y28851D01*
X-5018Y28861D01*
X-5024Y28876D01*
X-5201Y29053D01*
X-6257Y30109D01*
X-6267Y30113D01*
X-6273Y30123D01*
X-6307Y30149D01*
X-6364Y30207D01*
X-6406Y30272D01*
X-6436Y30348D01*
X-6446Y30390D01*
X-6457Y30406D01*
X-6459Y30426D01*
X-6586Y30680D01*
X-6600Y30692D01*
X-6605Y30709D01*
X-6642Y30755D01*
X-6661Y30765D01*
X-6673Y30784D01*
X-6768Y30853D01*
X-6790Y30859D01*
X-6806Y30874D01*
X-6916Y30916D01*
X-6938Y30915D01*
X-6958Y30925D01*
X-7075Y30937D01*
X-7096Y30931D01*
X-7118Y30936D01*
X-7234Y30916D01*
X-7253Y30904D01*
X-7275Y30904D01*
X-7382Y30855D01*
X-7397Y30838D01*
X-7418Y30832D01*
X-7509Y30757D01*
X-7519Y30737D01*
X-7538Y30725D01*
X-7606Y30629D01*
X-7610Y30607D01*
X-7625Y30591D01*
X-7646Y30536D01*
X-7644Y30507D01*
X-7655Y30480D01*
X-7655Y30378D01*
X-7730Y30334D01*
X-7748Y30329D01*
X-8474Y31055D01*
Y33909D01*
X-8521Y34024D01*
X-8636Y34071D01*
X-9738D01*
X-9751Y34171D01*
X-9642Y34201D01*
X-9402Y34339D01*
X-9207Y34534D01*
X-9069Y34774D01*
X-8997Y35041D01*
Y35317D01*
X-9069Y35584D01*
X-9207Y35824D01*
X-9402Y36019D01*
X-9642Y36157D01*
X-9909Y36229D01*
D02*
G37*
G36*
X15628Y38454D02*
X15278D01*
X14935Y38386D01*
X14612Y38252D01*
X14321Y38058D01*
X14074Y37811D01*
X13880Y37520D01*
X13746Y37197D01*
X13678Y36854D01*
Y36504D01*
X13746Y36161D01*
X13880Y35838D01*
X14074Y35548D01*
X14321Y35300D01*
X14612Y35106D01*
X14935Y34972D01*
X15278Y34904D01*
X15628D01*
X15971Y34972D01*
X16294Y35106D01*
X16584Y35300D01*
X16832Y35548D01*
X17026Y35838D01*
X17160Y36161D01*
X17228Y36504D01*
Y36854D01*
X17160Y37197D01*
X17026Y37520D01*
X16832Y37811D01*
X16584Y38058D01*
X16294Y38252D01*
X15971Y38386D01*
X15628Y38454D01*
D02*
G37*
G36*
X19118Y36131D02*
X18947D01*
X18782Y36086D01*
X18634Y36001D01*
X18513Y35880D01*
X18427Y35732D01*
X18383Y35566D01*
Y35395D01*
X18427Y35230D01*
X18513Y35082D01*
X18634Y34961D01*
X18782Y34875D01*
X18947Y34831D01*
X19118D01*
X19284Y34875D01*
X19432Y34961D01*
X19553Y35082D01*
X19639Y35230D01*
X19683Y35395D01*
Y35566D01*
X19639Y35732D01*
X19553Y35880D01*
X19432Y36001D01*
X19284Y36086D01*
X19118Y36131D01*
D02*
G37*
G36*
X7591Y36229D02*
X7315D01*
X7048Y36157D01*
X6808Y36019D01*
X6613Y35824D01*
X6475Y35584D01*
X6403Y35317D01*
Y35041D01*
X6475Y34774D01*
X6613Y34534D01*
X6808Y34339D01*
X7048Y34201D01*
X7315Y34129D01*
X7591D01*
X7858Y34201D01*
X8098Y34339D01*
X8293Y34534D01*
X8431Y34774D01*
X8503Y35041D01*
Y35317D01*
X8431Y35584D01*
X8293Y35824D01*
X8098Y36019D01*
X7858Y36157D01*
X7591Y36229D01*
D02*
G37*
G36*
X5091D02*
X4815D01*
X4548Y36157D01*
X4308Y36019D01*
X4113Y35824D01*
X3975Y35584D01*
X3903Y35317D01*
Y35041D01*
X3975Y34774D01*
X4113Y34534D01*
X4308Y34339D01*
X4548Y34201D01*
X4815Y34129D01*
X5091D01*
X5358Y34201D01*
X5598Y34339D01*
X5793Y34534D01*
X5931Y34774D01*
X6003Y35041D01*
Y35317D01*
X5931Y35584D01*
X5793Y35824D01*
X5598Y36019D01*
X5358Y36157D01*
X5091Y36229D01*
D02*
G37*
G36*
X-2409D02*
X-2685D01*
X-2952Y36157D01*
X-3192Y36019D01*
X-3387Y35824D01*
X-3525Y35584D01*
X-3597Y35317D01*
Y35041D01*
X-3525Y34774D01*
X-3387Y34534D01*
X-3192Y34339D01*
X-2952Y34201D01*
X-2685Y34129D01*
X-2409D01*
X-2142Y34201D01*
X-1902Y34339D01*
X-1707Y34534D01*
X-1569Y34774D01*
X-1497Y35041D01*
Y35317D01*
X-1569Y35584D01*
X-1707Y35824D01*
X-1902Y36019D01*
X-2142Y36157D01*
X-2409Y36229D01*
D02*
G37*
G36*
X-4909D02*
X-5185D01*
X-5452Y36157D01*
X-5692Y36019D01*
X-5887Y35824D01*
X-6025Y35584D01*
X-6097Y35317D01*
Y35041D01*
X-6025Y34774D01*
X-5887Y34534D01*
X-5692Y34339D01*
X-5452Y34201D01*
X-5185Y34129D01*
X-4909D01*
X-4642Y34201D01*
X-4402Y34339D01*
X-4207Y34534D01*
X-4069Y34774D01*
X-3997Y35041D01*
Y35317D01*
X-4069Y35584D01*
X-4207Y35824D01*
X-4402Y36019D01*
X-4642Y36157D01*
X-4909Y36229D01*
D02*
G37*
G36*
X-7409D02*
X-7685D01*
X-7952Y36157D01*
X-8192Y36019D01*
X-8387Y35824D01*
X-8525Y35584D01*
X-8597Y35317D01*
Y35041D01*
X-8525Y34774D01*
X-8387Y34534D01*
X-8192Y34339D01*
X-7952Y34201D01*
X-7685Y34129D01*
X-7409D01*
X-7142Y34201D01*
X-6902Y34339D01*
X-6707Y34534D01*
X-6569Y34774D01*
X-6497Y35041D01*
Y35317D01*
X-6569Y35584D01*
X-6707Y35824D01*
X-6902Y36019D01*
X-7142Y36157D01*
X-7409Y36229D01*
D02*
G37*
G36*
X20994Y34824D02*
X20823D01*
X20657Y34779D01*
X20509Y34694D01*
X20388Y34573D01*
X20302Y34425D01*
X20258Y34259D01*
Y34088D01*
X20302Y33923D01*
X20388Y33775D01*
X20509Y33654D01*
X20657Y33568D01*
X20823Y33524D01*
X20994D01*
X21159Y33568D01*
X21307Y33654D01*
X21428Y33775D01*
X21514Y33923D01*
X21558Y34088D01*
Y34259D01*
X21514Y34425D01*
X21428Y34573D01*
X21307Y34694D01*
X21159Y34779D01*
X20994Y34824D01*
D02*
G37*
G36*
X19862Y32842D02*
X19691D01*
X19525Y32798D01*
X19377Y32712D01*
X19256Y32591D01*
X19171Y32443D01*
X19126Y32277D01*
Y32106D01*
X19171Y31941D01*
X19256Y31793D01*
X19377Y31672D01*
X19525Y31586D01*
X19691Y31542D01*
X19862D01*
X20027Y31586D01*
X20175Y31672D01*
X20297Y31793D01*
X20382Y31941D01*
X20426Y32106D01*
Y32277D01*
X20382Y32443D01*
X20297Y32591D01*
X20175Y32712D01*
X20027Y32798D01*
X19862Y32842D01*
D02*
G37*
G36*
X5091Y33229D02*
X4815D01*
X4548Y33157D01*
X4308Y33019D01*
X4113Y32824D01*
X3975Y32584D01*
X3903Y32317D01*
Y32041D01*
X3975Y31774D01*
X4113Y31534D01*
X4308Y31339D01*
X4548Y31201D01*
X4815Y31129D01*
X5091D01*
X5358Y31201D01*
X5598Y31339D01*
X5793Y31534D01*
X5931Y31774D01*
X6003Y32041D01*
Y32317D01*
X5931Y32584D01*
X5793Y32824D01*
X5598Y33019D01*
X5358Y33157D01*
X5091Y33229D01*
D02*
G37*
G36*
X2591D02*
X2315D01*
X2048Y33157D01*
X1808Y33019D01*
X1613Y32824D01*
X1475Y32584D01*
X1403Y32317D01*
Y32041D01*
X1475Y31774D01*
X1613Y31534D01*
X1808Y31339D01*
X2048Y31201D01*
X2315Y31129D01*
X2591D01*
X2858Y31201D01*
X3098Y31339D01*
X3293Y31534D01*
X3431Y31774D01*
X3503Y32041D01*
Y32317D01*
X3431Y32584D01*
X3293Y32824D01*
X3098Y33019D01*
X2858Y33157D01*
X2591Y33229D01*
D02*
G37*
G36*
X91D02*
X-185D01*
X-452Y33157D01*
X-692Y33019D01*
X-887Y32824D01*
X-1025Y32584D01*
X-1097Y32317D01*
Y32041D01*
X-1025Y31774D01*
X-887Y31534D01*
X-692Y31339D01*
X-452Y31201D01*
X-185Y31129D01*
X91D01*
X358Y31201D01*
X598Y31339D01*
X793Y31534D01*
X931Y31774D01*
X1003Y32041D01*
Y32317D01*
X931Y32584D01*
X793Y32824D01*
X598Y33019D01*
X358Y33157D01*
X91Y33229D01*
D02*
G37*
G36*
X-2409D02*
X-2685D01*
X-2952Y33157D01*
X-3192Y33019D01*
X-3387Y32824D01*
X-3525Y32584D01*
X-3597Y32317D01*
Y32041D01*
X-3525Y31774D01*
X-3387Y31534D01*
X-3192Y31339D01*
X-2952Y31201D01*
X-2685Y31129D01*
X-2409D01*
X-2142Y31201D01*
X-1902Y31339D01*
X-1707Y31534D01*
X-1569Y31774D01*
X-1497Y32041D01*
Y32317D01*
X-1569Y32584D01*
X-1707Y32824D01*
X-1902Y33019D01*
X-2142Y33157D01*
X-2409Y33229D01*
D02*
G37*
G36*
X-4909D02*
X-5185D01*
X-5452Y33157D01*
X-5692Y33019D01*
X-5887Y32824D01*
X-6025Y32584D01*
X-6097Y32317D01*
Y32041D01*
X-6025Y31774D01*
X-5887Y31534D01*
X-5692Y31339D01*
X-5452Y31201D01*
X-5185Y31129D01*
X-4909D01*
X-4642Y31201D01*
X-4402Y31339D01*
X-4207Y31534D01*
X-4069Y31774D01*
X-3997Y32041D01*
Y32317D01*
X-4069Y32584D01*
X-4207Y32824D01*
X-4402Y33019D01*
X-4642Y33157D01*
X-4909Y33229D01*
D02*
G37*
G36*
X10091Y36229D02*
X9815D01*
X9548Y36157D01*
X9308Y36019D01*
X9113Y35824D01*
X8975Y35584D01*
X8903Y35317D01*
Y35041D01*
X8975Y34774D01*
X9113Y34534D01*
X9222Y34425D01*
X9180Y34325D01*
X8509D01*
X8394Y34278D01*
X8347Y34163D01*
Y31309D01*
X7559Y30521D01*
X7471Y30569D01*
X7482Y30628D01*
X7479Y30644D01*
X7485Y30659D01*
X7485Y30847D01*
X7483Y30852D01*
X7485Y30858D01*
X7468Y31111D01*
X7443Y31163D01*
X7420Y31216D01*
X7415Y31218D01*
X7413Y31223D01*
X7358Y31241D01*
X7305Y31263D01*
X7250Y31262D01*
X7146Y31280D01*
X7054Y31318D01*
X6968Y31379D01*
X6929Y31417D01*
X6929Y31418D01*
X6929Y31418D01*
X6627Y31720D01*
X6512Y31768D01*
X6397Y31720D01*
X6349Y31605D01*
X6349Y30902D01*
X6344Y30798D01*
X6303Y30590D01*
X6223Y30397D01*
X6105Y30220D01*
X6035Y30143D01*
X4982Y29090D01*
X4978Y29080D01*
X4968Y29075D01*
X4811Y28872D01*
X4807Y28856D01*
X4794Y28845D01*
X4565Y28385D01*
X4564Y28369D01*
X4554Y28356D01*
X4419Y27860D01*
X4421Y27844D01*
X4413Y27829D01*
X4378Y27317D01*
X4383Y27301D01*
X4379Y27285D01*
X4410Y27041D01*
X4410Y23396D01*
X4381Y23179D01*
X4384Y23169D01*
X4380Y23158D01*
X4380Y22701D01*
X4384Y22690D01*
X4381Y22680D01*
X4441Y22226D01*
X4446Y22216D01*
X4445Y22205D01*
X4563Y21763D01*
X4570Y21754D01*
X4570Y21743D01*
X4745Y21320D01*
X4753Y21312D01*
X4754Y21301D01*
X4983Y20905D01*
X4992Y20898D01*
X4995Y20887D01*
X5273Y20524D01*
X5283Y20519D01*
X5287Y20508D01*
X5610Y20185D01*
X5621Y20180D01*
X5626Y20171D01*
X5989Y19892D01*
X6000Y19889D01*
X6007Y19880D01*
X6403Y19651D01*
X6414Y19650D01*
X6422Y19642D01*
X6845Y19467D01*
X6856Y19467D01*
X6865Y19460D01*
X7307Y19341D01*
X7318Y19343D01*
X7328Y19337D01*
X7554Y19307D01*
X7565Y19310D01*
X7576Y19306D01*
X10826D01*
X10841Y19312D01*
X10858Y19309D01*
X11348Y19407D01*
X11362Y19416D01*
X11379D01*
X11841Y19607D01*
X11853Y19619D01*
X11869Y19622D01*
X12285Y19900D01*
X12294Y19914D01*
X12310Y19921D01*
X12664Y20274D01*
X12670Y20290D01*
X12684Y20299D01*
X12962Y20715D01*
X12965Y20731D01*
X12977Y20743D01*
X13168Y21205D01*
Y21222D01*
X13177Y21236D01*
X13275Y21726D01*
X13272Y21743D01*
X13278Y21758D01*
Y22008D01*
X13278Y32983D01*
X13278Y33167D01*
X13273Y33180D01*
X13276Y33193D01*
X13218Y33557D01*
X13211Y33568D01*
X13212Y33582D01*
X13098Y33932D01*
X13090Y33942D01*
X13088Y33956D01*
X12921Y34284D01*
X12910Y34293D01*
X12907Y34306D01*
X12690Y34604D01*
X12679Y34611D01*
X12674Y34623D01*
X12412Y34883D01*
X12400Y34888D01*
X12393Y34900D01*
X12094Y35116D01*
X12081Y35119D01*
X12072Y35129D01*
X11744Y35295D01*
X11730Y35297D01*
X11720Y35305D01*
X11544Y35362D01*
X11538Y35361D01*
X11533Y35365D01*
X11500Y35360D01*
X11467Y35367D01*
X11445Y35353D01*
X11421Y35351D01*
X11417Y35347D01*
X11410Y35346D01*
X11320Y35291D01*
X11304Y35268D01*
X11279Y35255D01*
X11146Y35092D01*
X11138Y35064D01*
X11119Y35044D01*
X11075Y34919D01*
X11071Y34909D01*
X10992Y34934D01*
X11000Y35030D01*
X11003Y35041D01*
Y35317D01*
X10931Y35584D01*
X10793Y35824D01*
X10598Y36019D01*
X10358Y36157D01*
X10091Y36229D01*
D02*
G37*
G36*
X20406Y28082D02*
X20234D01*
X20069Y28038D01*
X19921Y27952D01*
X19800Y27831D01*
X19714Y27683D01*
X19670Y27518D01*
Y27346D01*
X19714Y27181D01*
X19800Y27033D01*
X19921Y26912D01*
X20069Y26826D01*
X20234Y26782D01*
X20406D01*
X20571Y26826D01*
X20719Y26912D01*
X20840Y27033D01*
X20926Y27181D01*
X20970Y27346D01*
Y27518D01*
X20926Y27683D01*
X20840Y27831D01*
X20719Y27952D01*
X20571Y28038D01*
X20406Y28082D01*
D02*
G37*
G36*
X18755D02*
X18583D01*
X18418Y28038D01*
X18270Y27952D01*
X18149Y27831D01*
X18063Y27683D01*
X18019Y27518D01*
Y27346D01*
X18063Y27181D01*
X18149Y27033D01*
X18270Y26912D01*
X18418Y26826D01*
X18583Y26782D01*
X18755D01*
X18920Y26826D01*
X19068Y26912D01*
X19189Y27033D01*
X19275Y27181D01*
X19319Y27346D01*
Y27518D01*
X19275Y27683D01*
X19189Y27831D01*
X19068Y27952D01*
X18920Y28038D01*
X18755Y28082D01*
D02*
G37*
G36*
X17231D02*
X17059D01*
X16894Y28038D01*
X16746Y27952D01*
X16625Y27831D01*
X16539Y27683D01*
X16495Y27518D01*
Y27346D01*
X16539Y27181D01*
X16625Y27033D01*
X16746Y26912D01*
X16894Y26826D01*
X17059Y26782D01*
X17231D01*
X17396Y26826D01*
X17544Y26912D01*
X17665Y27033D01*
X17751Y27181D01*
X17795Y27346D01*
Y27518D01*
X17751Y27683D01*
X17665Y27831D01*
X17544Y27952D01*
X17396Y28038D01*
X17231Y28082D01*
D02*
G37*
G36*
X21930Y27066D02*
X21758D01*
X21593Y27022D01*
X21445Y26936D01*
X21324Y26815D01*
X21238Y26667D01*
X21194Y26502D01*
Y26330D01*
X21238Y26165D01*
X21324Y26017D01*
X21445Y25896D01*
X21593Y25810D01*
X21758Y25766D01*
X21930D01*
X22095Y25810D01*
X22243Y25896D01*
X22364Y26017D01*
X22450Y26165D01*
X22494Y26330D01*
Y26502D01*
X22450Y26667D01*
X22364Y26815D01*
X22243Y26936D01*
X22095Y27022D01*
X21930Y27066D01*
D02*
G37*
G36*
X20406Y26050D02*
X20234D01*
X20069Y26006D01*
X19921Y25920D01*
X19800Y25799D01*
X19714Y25651D01*
X19670Y25486D01*
Y25314D01*
X19714Y25149D01*
X19800Y25001D01*
X19921Y24880D01*
X20069Y24794D01*
X20234Y24750D01*
X20406D01*
X20571Y24794D01*
X20719Y24880D01*
X20840Y25001D01*
X20926Y25149D01*
X20970Y25314D01*
Y25486D01*
X20926Y25651D01*
X20840Y25799D01*
X20719Y25920D01*
X20571Y26006D01*
X20406Y26050D01*
D02*
G37*
G36*
X18755D02*
X18583D01*
X18418Y26006D01*
X18270Y25920D01*
X18149Y25799D01*
X18063Y25651D01*
X18019Y25486D01*
Y25314D01*
X18063Y25149D01*
X18149Y25001D01*
X18270Y24880D01*
X18418Y24794D01*
X18583Y24750D01*
X18755D01*
X18920Y24794D01*
X19068Y24880D01*
X19189Y25001D01*
X19275Y25149D01*
X19319Y25314D01*
Y25486D01*
X19275Y25651D01*
X19189Y25799D01*
X19068Y25920D01*
X18920Y26006D01*
X18755Y26050D01*
D02*
G37*
G36*
X17231D02*
X17059D01*
X16894Y26006D01*
X16746Y25920D01*
X16625Y25799D01*
X16539Y25651D01*
X16495Y25486D01*
Y25314D01*
X16539Y25149D01*
X16625Y25001D01*
X16746Y24880D01*
X16894Y24794D01*
X17059Y24750D01*
X17231D01*
X17396Y24794D01*
X17544Y24880D01*
X17665Y25001D01*
X17751Y25149D01*
X17795Y25314D01*
Y25486D01*
X17751Y25651D01*
X17665Y25799D01*
X17544Y25920D01*
X17396Y26006D01*
X17231Y26050D01*
D02*
G37*
G36*
X20406Y24018D02*
X20234D01*
X20069Y23974D01*
X19921Y23888D01*
X19800Y23767D01*
X19714Y23619D01*
X19670Y23454D01*
Y23282D01*
X19714Y23117D01*
X19800Y22969D01*
X19921Y22848D01*
X20069Y22762D01*
X20234Y22718D01*
X20406D01*
X20571Y22762D01*
X20719Y22848D01*
X20840Y22969D01*
X20926Y23117D01*
X20970Y23282D01*
Y23454D01*
X20926Y23619D01*
X20840Y23767D01*
X20719Y23888D01*
X20571Y23974D01*
X20406Y24018D01*
D02*
G37*
G36*
X18755D02*
X18583D01*
X18418Y23974D01*
X18270Y23888D01*
X18149Y23767D01*
X18063Y23619D01*
X18019Y23454D01*
Y23282D01*
X18063Y23117D01*
X18149Y22969D01*
X18270Y22848D01*
X18418Y22762D01*
X18583Y22718D01*
X18755D01*
X18920Y22762D01*
X19068Y22848D01*
X19189Y22969D01*
X19275Y23117D01*
X19319Y23282D01*
Y23454D01*
X19275Y23619D01*
X19189Y23767D01*
X19068Y23888D01*
X18920Y23974D01*
X18755Y24018D01*
D02*
G37*
G36*
X17231D02*
X17059D01*
X16894Y23974D01*
X16746Y23888D01*
X16625Y23767D01*
X16539Y23619D01*
X16495Y23454D01*
Y23282D01*
X16539Y23117D01*
X16625Y22969D01*
X16746Y22848D01*
X16894Y22762D01*
X17059Y22718D01*
X17231D01*
X17396Y22762D01*
X17544Y22848D01*
X17665Y22969D01*
X17751Y23117D01*
X17795Y23282D01*
Y23454D01*
X17751Y23619D01*
X17665Y23767D01*
X17544Y23888D01*
X17396Y23974D01*
X17231Y24018D01*
D02*
G37*
G36*
X30717Y26494D02*
X30246Y26457D01*
X29787Y26347D01*
X29351Y26166D01*
X28948Y25920D01*
X28589Y25613D01*
X28282Y25254D01*
X28036Y24851D01*
X27855Y24415D01*
X27745Y23956D01*
X27708Y23485D01*
X27745Y23014D01*
X27855Y22555D01*
X28036Y22119D01*
X28282Y21716D01*
X28589Y21357D01*
X28948Y21050D01*
X29351Y20804D01*
X29787Y20623D01*
X30246Y20513D01*
X30717Y20476D01*
X31188Y20513D01*
X31647Y20623D01*
X32083Y20804D01*
X32486Y21050D01*
X32845Y21357D01*
X33152Y21716D01*
X33398Y22119D01*
X33579Y22555D01*
X33689Y23014D01*
X33726Y23485D01*
X33689Y23956D01*
X33579Y24415D01*
X33398Y24851D01*
X33152Y25254D01*
X32845Y25613D01*
X32486Y25920D01*
X32083Y26166D01*
X31647Y26347D01*
X31188Y26457D01*
X30717Y26494D01*
D02*
G37*
G36*
X471Y15817D02*
X291D01*
X126Y15748D01*
X-0Y15622D01*
X-69Y15457D01*
Y15277D01*
X-0Y15112D01*
X126Y14986D01*
X291Y14917D01*
X471D01*
X636Y14986D01*
X762Y15112D01*
X831Y15277D01*
Y15457D01*
X762Y15622D01*
X636Y15748D01*
X471Y15817D01*
D02*
G37*
G36*
X-9181Y14420D02*
X-9361D01*
X-9526Y14351D01*
X-9652Y14225D01*
X-9721Y14060D01*
Y13880D01*
X-9652Y13715D01*
X-9526Y13589D01*
X-9361Y13520D01*
X-9181D01*
X-9016Y13589D01*
X-8890Y13715D01*
X-8821Y13880D01*
Y14060D01*
X-8890Y14225D01*
X-9016Y14351D01*
X-9181Y14420D01*
D02*
G37*
G36*
X-10451Y14298D02*
X-10631D01*
X-10796Y14229D01*
X-10922Y14102D01*
X-10991Y13937D01*
Y13758D01*
X-10922Y13593D01*
X-10796Y13466D01*
X-10631Y13398D01*
X-10451D01*
X-10286Y13466D01*
X-10160Y13593D01*
X-10091Y13758D01*
Y13937D01*
X-10160Y14102D01*
X-10286Y14229D01*
X-10451Y14298D01*
D02*
G37*
G36*
X15076Y14039D02*
X14896D01*
X14731Y13970D01*
X14605Y13844D01*
X14536Y13679D01*
Y13499D01*
X14605Y13334D01*
X14731Y13208D01*
X14896Y13139D01*
X15076D01*
X15241Y13208D01*
X15367Y13334D01*
X15436Y13499D01*
Y13679D01*
X15367Y13844D01*
X15241Y13970D01*
X15076Y14039D01*
D02*
G37*
G36*
X16854Y13785D02*
X16674D01*
X16509Y13716D01*
X16383Y13590D01*
X16314Y13425D01*
Y13245D01*
X16383Y13080D01*
X16509Y12954D01*
X16674Y12885D01*
X16854D01*
X17019Y12954D01*
X17145Y13080D01*
X17214Y13245D01*
Y13425D01*
X17145Y13590D01*
X17019Y13716D01*
X16854Y13785D01*
D02*
G37*
G36*
X-1307Y13404D02*
X-1487D01*
X-1652Y13335D01*
X-1778Y13209D01*
X-1847Y13044D01*
Y12864D01*
X-1778Y12699D01*
X-1652Y12573D01*
X-1487Y12504D01*
X-1307D01*
X-1142Y12573D01*
X-1016Y12699D01*
X-947Y12864D01*
Y13044D01*
X-1016Y13209D01*
X-1142Y13335D01*
X-1307Y13404D01*
D02*
G37*
G36*
X-164Y13277D02*
X-344D01*
X-509Y13208D01*
X-635Y13082D01*
X-704Y12917D01*
Y12737D01*
X-635Y12572D01*
X-509Y12446D01*
X-344Y12377D01*
X-164D01*
X1Y12446D01*
X127Y12572D01*
X196Y12737D01*
Y12917D01*
X127Y13082D01*
X1Y13208D01*
X-164Y13277D01*
D02*
G37*
G36*
X22167Y14062D02*
X21943D01*
X21725Y14004D01*
X21531Y13891D01*
X21372Y13732D01*
X21259Y13538D01*
X21201Y13320D01*
Y13096D01*
X21259Y12878D01*
X21372Y12684D01*
X21531Y12525D01*
X21725Y12412D01*
X21943Y12354D01*
X22167D01*
X22385Y12412D01*
X22579Y12525D01*
X22738Y12684D01*
X22851Y12878D01*
X22909Y13096D01*
Y13320D01*
X22851Y13538D01*
X22738Y13732D01*
X22579Y13891D01*
X22385Y14004D01*
X22167Y14062D01*
D02*
G37*
G36*
X9253Y13377D02*
X9035D01*
X8832Y13293D01*
X8678Y13139D01*
X8594Y12936D01*
Y12718D01*
X8678Y12515D01*
X8832Y12361D01*
X9035Y12277D01*
X9253D01*
X9456Y12361D01*
X9610Y12515D01*
X9694Y12718D01*
Y12936D01*
X9610Y13139D01*
X9456Y13293D01*
X9253Y13377D01*
D02*
G37*
G36*
X-2704Y13150D02*
X-2884D01*
X-3049Y13081D01*
X-3175Y12955D01*
X-3244Y12790D01*
Y12610D01*
X-3175Y12445D01*
X-3049Y12319D01*
X-2884Y12250D01*
X-2704D01*
X-2539Y12319D01*
X-2413Y12445D01*
X-2344Y12610D01*
Y12790D01*
X-2413Y12955D01*
X-2539Y13081D01*
X-2704Y13150D01*
D02*
G37*
G36*
X1736Y12998D02*
X1566D01*
X1410Y12933D01*
X1291Y12814D01*
X1226Y12658D01*
Y12488D01*
X1291Y12332D01*
X1410Y12213D01*
X1566Y12148D01*
X1736D01*
X1892Y12213D01*
X2011Y12332D01*
X2076Y12488D01*
Y12658D01*
X2011Y12814D01*
X1892Y12933D01*
X1736Y12998D01*
D02*
G37*
G36*
X-12483Y12515D02*
X-12663D01*
X-12828Y12446D01*
X-12954Y12320D01*
X-13023Y12155D01*
Y11975D01*
X-13008Y11939D01*
X-13078Y11868D01*
X-13118Y11885D01*
X-13298D01*
X-13463Y11816D01*
X-13589Y11689D01*
X-13658Y11524D01*
Y11345D01*
X-13589Y11180D01*
X-13463Y11053D01*
X-13298Y10985D01*
X-13118D01*
X-13023Y10916D01*
Y10832D01*
X-12954Y10667D01*
X-12828Y10541D01*
X-12663Y10472D01*
X-12483D01*
X-12318Y10541D01*
X-12192Y10667D01*
X-12123Y10832D01*
Y11012D01*
X-12192Y11177D01*
X-12318Y11303D01*
X-12483Y11372D01*
X-12663D01*
X-12758Y11441D01*
Y11524D01*
X-12773Y11561D01*
X-12703Y11632D01*
X-12663Y11615D01*
X-12483D01*
X-12318Y11684D01*
X-12192Y11810D01*
X-12123Y11975D01*
Y12155D01*
X-12192Y12320D01*
X-12318Y12446D01*
X-12483Y12515D01*
D02*
G37*
G36*
X32223Y14912D02*
X31887D01*
X31558Y14847D01*
X31248Y14718D01*
X30969Y14532D01*
X30731Y14294D01*
X30545Y14015D01*
X30416Y13705D01*
X30351Y13376D01*
Y13040D01*
X30416Y12711D01*
X30545Y12401D01*
X30731Y12122D01*
X30969Y11884D01*
X31248Y11698D01*
X31558Y11569D01*
X31887Y11504D01*
X32223D01*
X32552Y11569D01*
X32862Y11698D01*
X33141Y11884D01*
X33379Y12122D01*
X33565Y12401D01*
X33694Y12711D01*
X33759Y13040D01*
Y13376D01*
X33694Y13705D01*
X33565Y14015D01*
X33379Y14294D01*
X33141Y14532D01*
X32862Y14718D01*
X32552Y14847D01*
X32223Y14912D01*
D02*
G37*
G36*
X-9689Y12266D02*
X-9869D01*
X-10034Y12197D01*
X-10160Y12071D01*
X-10229Y11905D01*
Y11726D01*
X-10160Y11561D01*
X-10034Y11434D01*
X-9869Y11366D01*
X-9689D01*
X-9524Y11434D01*
X-9398Y11561D01*
X-9329Y11726D01*
Y11905D01*
X-9398Y12071D01*
X-9524Y12197D01*
X-9689Y12266D01*
D02*
G37*
G36*
X9888Y11980D02*
X9670D01*
X9467Y11896D01*
X9313Y11742D01*
X9229Y11539D01*
Y11321D01*
X9313Y11118D01*
X9467Y10964D01*
X9670Y10880D01*
X9888D01*
X10091Y10964D01*
X10245Y11118D01*
X10329Y11321D01*
Y11539D01*
X10245Y11742D01*
X10091Y11896D01*
X9888Y11980D01*
D02*
G37*
G36*
X11942Y10097D02*
X11723D01*
X11521Y10013D01*
X11366Y9858D01*
X11283Y9656D01*
Y9437D01*
X11366Y9235D01*
X11521Y9080D01*
X11723Y8997D01*
X11942D01*
X11966Y9007D01*
X11986Y8991D01*
X12033Y8926D01*
X11958Y8745D01*
Y8527D01*
X12042Y8324D01*
X12196Y8170D01*
X12398Y8086D01*
X12617D01*
X12819Y8170D01*
X12974Y8324D01*
X13058Y8527D01*
Y8745D01*
X12974Y8948D01*
X12819Y9102D01*
X12617Y9186D01*
X12398D01*
X12375Y9176D01*
X12355Y9192D01*
X12308Y9257D01*
X12383Y9437D01*
Y9656D01*
X12299Y9858D01*
X12144Y10013D01*
X11942Y10097D01*
D02*
G37*
G36*
X11012Y8705D02*
X10832D01*
X10667Y8636D01*
X10541Y8510D01*
X10472Y8345D01*
Y8165D01*
X10541Y8000D01*
X10667Y7874D01*
X10832Y7805D01*
X11012D01*
X11177Y7874D01*
X11303Y8000D01*
X11372Y8165D01*
Y8345D01*
X11303Y8510D01*
X11177Y8636D01*
X11012Y8705D01*
D02*
G37*
G36*
X-6006Y5647D02*
X-6186D01*
X-6351Y5578D01*
X-6477Y5452D01*
X-6546Y5287D01*
Y5107D01*
X-6477Y4942D01*
X-6351Y4816D01*
X-6186Y4747D01*
X-6006D01*
X-5841Y4816D01*
X-5715Y4942D01*
X-5646Y5107D01*
Y5287D01*
X-5715Y5452D01*
X-5841Y5578D01*
X-6006Y5647D01*
D02*
G37*
G36*
X5017Y4581D02*
X4838D01*
X4673Y4512D01*
X4546Y4386D01*
X4478Y4220D01*
Y4041D01*
X4546Y3876D01*
X4673Y3749D01*
X4838Y3681D01*
X5017D01*
X5183Y3749D01*
X5309Y3876D01*
X5378Y4041D01*
Y4220D01*
X5309Y4386D01*
X5183Y4512D01*
X5017Y4581D01*
D02*
G37*
G36*
X7572Y4462D02*
X7393D01*
X7227Y4394D01*
X7101Y4267D01*
X7032Y4102D01*
Y3923D01*
X7101Y3757D01*
X7227Y3631D01*
X7393Y3562D01*
X7572D01*
X7737Y3631D01*
X7864Y3757D01*
X7932Y3923D01*
Y4102D01*
X7864Y4267D01*
X7737Y4394D01*
X7572Y4462D01*
D02*
G37*
G36*
X3392Y3752D02*
X3212D01*
X3047Y3683D01*
X2921Y3557D01*
X2852Y3392D01*
Y3212D01*
X2921Y3047D01*
X3047Y2921D01*
X3212Y2852D01*
X3392D01*
X3557Y2921D01*
X3683Y3047D01*
X3752Y3212D01*
Y3392D01*
X3683Y3557D01*
X3557Y3683D01*
X3392Y3752D01*
D02*
G37*
G36*
X-11175Y2497D02*
X-11354D01*
X-11519Y2429D01*
X-11646Y2302D01*
X-11714Y2137D01*
Y1958D01*
X-11646Y1792D01*
X-11519Y1666D01*
X-11354Y1597D01*
X-11175D01*
X-11009Y1666D01*
X-10883Y1792D01*
X-10814Y1958D01*
Y2137D01*
X-10883Y2302D01*
X-11009Y2429D01*
X-11175Y2497D01*
D02*
G37*
G36*
X-9128Y535D02*
X-9307D01*
X-9473Y467D01*
X-9599Y340D01*
X-9668Y175D01*
Y-4D01*
X-9599Y-170D01*
X-9473Y-296D01*
X-9307Y-365D01*
X-9128D01*
X-8963Y-296D01*
X-8836Y-170D01*
X-8768Y-4D01*
Y175D01*
X-8836Y340D01*
X-8963Y467D01*
X-9128Y535D01*
D02*
G37*
G36*
X8147Y115D02*
X7968D01*
X7803Y47D01*
X7676Y-80D01*
X7608Y-245D01*
Y-424D01*
X7676Y-589D01*
X7803Y-716D01*
X7968Y-785D01*
X8147D01*
X8313Y-716D01*
X8439Y-589D01*
X8508Y-424D01*
Y-245D01*
X8439Y-80D01*
X8313Y47D01*
X8147Y115D01*
D02*
G37*
G36*
X-11848Y-185D02*
X-12028D01*
X-12193Y-254D01*
X-12319Y-380D01*
X-12388Y-545D01*
Y-725D01*
X-12319Y-890D01*
X-12193Y-1016D01*
X-12028Y-1085D01*
X-11848D01*
X-11683Y-1016D01*
X-11557Y-890D01*
X-11488Y-725D01*
Y-545D01*
X-11557Y-380D01*
X-11683Y-254D01*
X-11848Y-185D01*
D02*
G37*
G36*
X4398Y-616D02*
X4238D01*
X4091Y-677D01*
X3979Y-789D01*
X3918Y-936D01*
Y-1096D01*
X3979Y-1243D01*
X4091Y-1355D01*
X4238Y-1416D01*
X4398D01*
X4545Y-1355D01*
X4657Y-1243D01*
X4718Y-1096D01*
Y-936D01*
X4657Y-789D01*
X4545Y-677D01*
X4398Y-616D01*
D02*
G37*
G36*
X-5129Y-755D02*
X-5308D01*
X-5473Y-823D01*
X-5600Y-950D01*
X-5669Y-1115D01*
Y-1294D01*
X-5600Y-1460D01*
X-5473Y-1586D01*
X-5308Y-1655D01*
X-5129D01*
X-4964Y-1586D01*
X-4837Y-1460D01*
X-4769Y-1294D01*
Y-1115D01*
X-4837Y-950D01*
X-4964Y-823D01*
X-5129Y-755D01*
D02*
G37*
G36*
X11139Y-947D02*
X10959D01*
X10794Y-1016D01*
X10668Y-1142D01*
X10599Y-1307D01*
Y-1487D01*
X10668Y-1652D01*
X10794Y-1778D01*
X10959Y-1847D01*
X11139D01*
X11304Y-1778D01*
X11430Y-1652D01*
X11499Y-1487D01*
Y-1307D01*
X11430Y-1142D01*
X11304Y-1016D01*
X11139Y-947D01*
D02*
G37*
G36*
X-3076Y-1237D02*
X-3255D01*
X-3421Y-1305D01*
X-3547Y-1432D01*
X-3616Y-1597D01*
Y-1776D01*
X-3547Y-1942D01*
X-3421Y-2068D01*
X-3255Y-2137D01*
X-3076D01*
X-2911Y-2068D01*
X-2784Y-1942D01*
X-2716Y-1776D01*
Y-1597D01*
X-2784Y-1432D01*
X-2911Y-1305D01*
X-3076Y-1237D01*
D02*
G37*
G36*
X12150Y-1601D02*
X11971D01*
X11805Y-1669D01*
X11679Y-1796D01*
X11610Y-1961D01*
Y-2140D01*
X11679Y-2306D01*
X11805Y-2432D01*
X11971Y-2501D01*
X12150D01*
X12315Y-2432D01*
X12442Y-2306D01*
X12510Y-2140D01*
Y-1961D01*
X12442Y-1796D01*
X12315Y-1669D01*
X12150Y-1601D01*
D02*
G37*
G36*
X-10705Y-1709D02*
X-10885D01*
X-11050Y-1778D01*
X-11176Y-1904D01*
X-11245Y-2069D01*
Y-2249D01*
X-11176Y-2414D01*
X-11050Y-2540D01*
X-10885Y-2609D01*
X-10705D01*
X-10540Y-2540D01*
X-10414Y-2414D01*
X-10345Y-2249D01*
Y-2069D01*
X-10414Y-1904D01*
X-10540Y-1778D01*
X-10705Y-1709D01*
D02*
G37*
G36*
X-7298Y-2217D02*
X-7477D01*
X-7642Y-2286D01*
X-7769Y-2412D01*
X-7837Y-2577D01*
Y-2757D01*
X-7769Y-2922D01*
X-7642Y-3048D01*
X-7477Y-3117D01*
X-7298D01*
X-7132Y-3048D01*
X-7006Y-2922D01*
X-6937Y-2757D01*
Y-2577D01*
X-7006Y-2412D01*
X-7132Y-2286D01*
X-7298Y-2217D01*
D02*
G37*
G36*
X5962Y-2779D02*
X5783D01*
X5618Y-2848D01*
X5491Y-2974D01*
X5423Y-3140D01*
Y-3319D01*
X5491Y-3484D01*
X5618Y-3611D01*
X5783Y-3679D01*
X5962D01*
X6128Y-3611D01*
X6254Y-3484D01*
X6323Y-3319D01*
Y-3140D01*
X6254Y-2974D01*
X6128Y-2848D01*
X5962Y-2779D01*
D02*
G37*
G36*
X8956Y-2786D02*
X8777D01*
X8611Y-2854D01*
X8485Y-2981D01*
X8416Y-3146D01*
Y-3325D01*
X8485Y-3491D01*
X8611Y-3617D01*
X8777Y-3686D01*
X8956D01*
X9121Y-3617D01*
X9248Y-3491D01*
X9316Y-3325D01*
Y-3146D01*
X9248Y-2981D01*
X9121Y-2854D01*
X8956Y-2786D01*
D02*
G37*
G36*
X-4189Y-3099D02*
X-4368D01*
X-4533Y-3168D01*
X-4660Y-3294D01*
X-4729Y-3459D01*
Y-3638D01*
X-4660Y-3804D01*
X-4533Y-3930D01*
X-4368Y-3999D01*
X-4189D01*
X-4024Y-3930D01*
X-3897Y-3804D01*
X-3829Y-3638D01*
Y-3459D01*
X-3897Y-3294D01*
X-4024Y-3168D01*
X-4189Y-3099D01*
D02*
G37*
G36*
X-5624Y-4036D02*
X-5803D01*
X-5968Y-4104D01*
X-6095Y-4231D01*
X-6164Y-4396D01*
Y-4458D01*
X-6187Y-4471D01*
X-6264Y-4488D01*
X-6374Y-4378D01*
X-6539Y-4310D01*
X-6718D01*
X-6884Y-4378D01*
X-7010Y-4505D01*
X-7079Y-4670D01*
Y-4849D01*
X-7010Y-5014D01*
X-6884Y-5141D01*
X-6718Y-5210D01*
X-6539D01*
X-6374Y-5141D01*
X-6247Y-5014D01*
X-6179Y-4849D01*
Y-4787D01*
X-6156Y-4774D01*
X-6079Y-4757D01*
X-5968Y-4867D01*
X-5803Y-4936D01*
X-5624D01*
X-5459Y-4867D01*
X-5332Y-4740D01*
X-5264Y-4575D01*
Y-4396D01*
X-5332Y-4231D01*
X-5459Y-4104D01*
X-5624Y-4036D01*
D02*
G37*
G36*
X4408Y-4122D02*
X4228D01*
X4063Y-4191D01*
X3937Y-4317D01*
X3868Y-4482D01*
Y-4662D01*
X3937Y-4827D01*
X4063Y-4953D01*
X4228Y-5022D01*
X4408D01*
X4573Y-4953D01*
X4699Y-4827D01*
X4768Y-4662D01*
Y-4482D01*
X4699Y-4317D01*
X4573Y-4191D01*
X4408Y-4122D01*
D02*
G37*
G36*
X11139Y-4249D02*
X10959D01*
X10794Y-4318D01*
X10668Y-4444D01*
X10599Y-4609D01*
Y-4789D01*
X10668Y-4954D01*
X10794Y-5080D01*
X10959Y-5149D01*
X11139D01*
X11304Y-5080D01*
X11430Y-4954D01*
X11499Y-4789D01*
Y-4609D01*
X11430Y-4444D01*
X11304Y-4318D01*
X11139Y-4249D01*
D02*
G37*
G36*
X-8146Y-4657D02*
X-8364D01*
X-8567Y-4741D01*
X-8721Y-4895D01*
X-8805Y-5098D01*
Y-5316D01*
X-8721Y-5519D01*
X-8567Y-5673D01*
X-8364Y-5757D01*
X-8146D01*
X-7943Y-5673D01*
X-7789Y-5519D01*
X-7705Y-5316D01*
Y-5098D01*
X-7789Y-4895D01*
X-7943Y-4741D01*
X-8146Y-4657D01*
D02*
G37*
G36*
X8160Y-4962D02*
X7981D01*
X7815Y-5031D01*
X7689Y-5157D01*
X7620Y-5323D01*
Y-5502D01*
X7689Y-5667D01*
X7815Y-5794D01*
X7981Y-5862D01*
X8160D01*
X8325Y-5794D01*
X8380Y-5738D01*
X8498Y-5762D01*
X8519Y-5811D01*
X8645Y-5938D01*
X8811Y-6006D01*
X8990D01*
X9155Y-5938D01*
X9282Y-5811D01*
X9350Y-5646D01*
Y-5467D01*
X9282Y-5301D01*
X9155Y-5175D01*
X8990Y-5106D01*
X8811D01*
X8645Y-5175D01*
X8590Y-5230D01*
X8472Y-5206D01*
X8452Y-5157D01*
X8325Y-5031D01*
X8160Y-4962D01*
D02*
G37*
G36*
X5318Y-6011D02*
X5139D01*
X4973Y-6079D01*
X4847Y-6206D01*
X4778Y-6371D01*
Y-6550D01*
X4847Y-6716D01*
X4973Y-6842D01*
X5139Y-6911D01*
X5318D01*
X5483Y-6842D01*
X5610Y-6716D01*
X5678Y-6550D01*
Y-6371D01*
X5610Y-6206D01*
X5483Y-6079D01*
X5318Y-6011D01*
D02*
G37*
G36*
X-10618Y-8017D02*
X-10797D01*
X-10963Y-8086D01*
X-11045Y-8168D01*
X-11096Y-8209D01*
X-11175Y-8168D01*
X-11244Y-8099D01*
X-11410Y-8030D01*
X-11589D01*
X-11754Y-8099D01*
X-11881Y-8226D01*
X-11949Y-8391D01*
Y-8570D01*
X-11881Y-8735D01*
X-11797Y-8819D01*
X-11839Y-8919D01*
X-11900D01*
X-12066Y-8987D01*
X-12192Y-9114D01*
X-12261Y-9279D01*
Y-9458D01*
X-12192Y-9624D01*
X-12066Y-9750D01*
X-11900Y-9819D01*
X-11787D01*
X-11767Y-9919D01*
X-11854Y-9955D01*
X-11981Y-10082D01*
X-12049Y-10247D01*
Y-10426D01*
X-11981Y-10591D01*
X-11854Y-10718D01*
X-11689Y-10786D01*
X-11510D01*
X-11344Y-10718D01*
X-11265Y-10639D01*
X-11193Y-10606D01*
X-11135Y-10639D01*
X-11049Y-10725D01*
X-10884Y-10793D01*
X-10705D01*
X-10539Y-10725D01*
X-10413Y-10598D01*
X-10344Y-10433D01*
Y-10254D01*
X-10413Y-10088D01*
X-10539Y-9962D01*
X-10705Y-9893D01*
X-10834D01*
X-10884Y-9893D01*
X-10916Y-9801D01*
X-10869Y-9781D01*
X-10794Y-9750D01*
X-10667Y-9624D01*
X-10599Y-9458D01*
Y-9279D01*
X-10667Y-9114D01*
X-10764Y-9017D01*
X-10723Y-8917D01*
X-10618D01*
X-10453Y-8849D01*
X-10326Y-8722D01*
X-10258Y-8557D01*
Y-8378D01*
X-10326Y-8212D01*
X-10453Y-8086D01*
X-10618Y-8017D01*
D02*
G37*
G36*
X11012Y-8313D02*
X10832D01*
X10667Y-8382D01*
X10541Y-8508D01*
X10472Y-8673D01*
Y-8853D01*
X10541Y-9018D01*
X10667Y-9144D01*
X10698Y-9158D01*
Y-9257D01*
X10667Y-9271D01*
X10541Y-9397D01*
X10472Y-9562D01*
Y-9742D01*
X10541Y-9907D01*
X10667Y-10033D01*
X10698Y-10047D01*
Y-10146D01*
X10667Y-10160D01*
X10541Y-10286D01*
X10472Y-10451D01*
Y-10631D01*
X10541Y-10796D01*
X10667Y-10922D01*
X10832Y-10991D01*
X11012D01*
X11177Y-10922D01*
X11303Y-10796D01*
X11372Y-10631D01*
Y-10451D01*
X11303Y-10286D01*
X11177Y-10160D01*
X11146Y-10146D01*
Y-10047D01*
X11177Y-10033D01*
X11303Y-9907D01*
X11372Y-9742D01*
Y-9562D01*
X11303Y-9397D01*
X11177Y-9271D01*
X11146Y-9257D01*
Y-9158D01*
X11177Y-9144D01*
X11303Y-9018D01*
X11372Y-8853D01*
Y-8673D01*
X11303Y-8508D01*
X11177Y-8382D01*
X11012Y-8313D01*
D02*
G37*
G36*
X9996D02*
X9816D01*
X9651Y-8382D01*
X9525Y-8508D01*
X9456Y-8673D01*
Y-8853D01*
X9525Y-9018D01*
X9651Y-9144D01*
X9682Y-9158D01*
Y-9257D01*
X9651Y-9271D01*
X9525Y-9397D01*
X9456Y-9562D01*
Y-9742D01*
X9525Y-9907D01*
X9651Y-10033D01*
X9682Y-10047D01*
Y-10146D01*
X9651Y-10160D01*
X9525Y-10286D01*
X9456Y-10451D01*
Y-10631D01*
X9525Y-10796D01*
X9651Y-10922D01*
X9816Y-10991D01*
X9996D01*
X10161Y-10922D01*
X10287Y-10796D01*
X10356Y-10631D01*
Y-10451D01*
X10287Y-10286D01*
X10161Y-10160D01*
X10130Y-10146D01*
Y-10047D01*
X10161Y-10033D01*
X10287Y-9907D01*
X10356Y-9742D01*
Y-9562D01*
X10287Y-9397D01*
X10161Y-9271D01*
X10130Y-9257D01*
Y-9158D01*
X10161Y-9144D01*
X10287Y-9018D01*
X10356Y-8853D01*
Y-8673D01*
X10287Y-8508D01*
X10161Y-8382D01*
X9996Y-8313D01*
D02*
G37*
G36*
X-3100Y-10704D02*
X-3279D01*
X-3445Y-10773D01*
X-3571Y-10899D01*
X-3640Y-11065D01*
Y-11244D01*
X-3571Y-11409D01*
X-3445Y-11536D01*
X-3279Y-11604D01*
X-3100D01*
X-2935Y-11536D01*
X-2808Y-11409D01*
X-2740Y-11244D01*
Y-11065D01*
X-2808Y-10899D01*
X-2935Y-10773D01*
X-3100Y-10704D01*
D02*
G37*
G36*
X-2161Y-11326D02*
X-2340D01*
X-2506Y-11394D01*
X-2632Y-11521D01*
X-2701Y-11686D01*
Y-11865D01*
X-2632Y-12031D01*
X-2506Y-12157D01*
X-2340Y-12226D01*
X-2161D01*
X-1996Y-12157D01*
X-1869Y-12031D01*
X-1801Y-11865D01*
Y-11686D01*
X-1869Y-11521D01*
X-1996Y-11394D01*
X-2161Y-11326D01*
D02*
G37*
G36*
X3065Y-11984D02*
X2885D01*
X2720Y-12053D01*
X2594Y-12179D01*
X2525Y-12344D01*
Y-12524D01*
X2594Y-12689D01*
X2720Y-12815D01*
X2885Y-12884D01*
X3065D01*
X3230Y-12815D01*
X3356Y-12689D01*
X3425Y-12524D01*
Y-12344D01*
X3356Y-12179D01*
X3230Y-12053D01*
X3065Y-11984D01*
D02*
G37*
G36*
X11012Y-14989D02*
X10832D01*
X10667Y-15058D01*
X10541Y-15184D01*
X10472Y-15349D01*
Y-15529D01*
X10541Y-15694D01*
X10667Y-15820D01*
X10832Y-15889D01*
X11012D01*
X11177Y-15820D01*
X11303Y-15694D01*
X11372Y-15529D01*
Y-15349D01*
X11303Y-15184D01*
X11177Y-15058D01*
X11012Y-14989D01*
D02*
G37*
G36*
X-1434Y-15933D02*
X-1614D01*
X-1779Y-16002D01*
X-1905Y-16128D01*
X-1974Y-16293D01*
Y-16473D01*
X-1905Y-16638D01*
X-1779Y-16764D01*
X-1614Y-16833D01*
X-1434D01*
X-1269Y-16764D01*
X-1143Y-16638D01*
X-1074Y-16473D01*
Y-16293D01*
X-1143Y-16128D01*
X-1269Y-16002D01*
X-1434Y-15933D01*
D02*
G37*
G36*
X-34022Y33112D02*
X-34251D01*
X-34281Y33100D01*
X-34313D01*
X-34525Y33012D01*
X-34548Y32989D01*
X-34578Y32977D01*
X-34740Y32815D01*
X-34752Y32785D01*
X-34775Y32762D01*
X-34863Y32551D01*
Y32518D01*
X-34875Y32489D01*
Y32259D01*
X-34863Y32230D01*
Y32197D01*
X-34775Y31986D01*
X-34752Y31963D01*
X-34740Y31933D01*
X-34578Y31771D01*
X-34548Y31759D01*
X-34525Y31736D01*
X-34313Y31648D01*
X-34281D01*
X-34251Y31636D01*
X-34022D01*
X-33992Y31648D01*
X-33960D01*
X-33748Y31736D01*
X-33725Y31759D01*
X-33696Y31771D01*
X-33534Y31933D01*
X-33521Y31963D01*
X-33498Y31986D01*
X-33411Y32197D01*
Y32230D01*
X-33398Y32259D01*
Y32489D01*
X-33411Y32518D01*
Y32551D01*
X-33498Y32762D01*
X-33521Y32785D01*
X-33534Y32815D01*
X-33696Y32977D01*
X-33725Y32989D01*
X-33748Y33012D01*
X-33960Y33100D01*
X-33992D01*
X-34022Y33112D01*
D02*
G37*
G36*
X-23917Y26812D02*
X-24089D01*
X-24254Y26768D01*
X-24402Y26682D01*
X-24523Y26561D01*
X-24609Y26413D01*
X-24653Y26248D01*
Y26076D01*
X-24609Y25911D01*
X-24523Y25763D01*
X-24402Y25642D01*
X-24254Y25556D01*
X-24089Y25512D01*
X-23917D01*
X-23752Y25556D01*
X-23604Y25642D01*
X-23483Y25763D01*
X-23397Y25911D01*
X-23353Y26076D01*
Y26248D01*
X-23397Y26413D01*
X-23483Y26561D01*
X-23604Y26682D01*
X-23752Y26768D01*
X-23917Y26812D01*
D02*
G37*
G36*
X-22393D02*
X-22565D01*
X-22730Y26768D01*
X-22878Y26682D01*
X-22999Y26561D01*
X-23085Y26413D01*
X-23129Y26248D01*
Y26076D01*
X-23085Y25911D01*
X-22999Y25763D01*
X-22878Y25642D01*
X-22730Y25556D01*
X-22565Y25512D01*
Y25415D01*
X-22730Y25371D01*
X-22878Y25285D01*
X-22999Y25164D01*
X-23085Y25016D01*
X-23129Y24851D01*
Y24679D01*
X-23085Y24514D01*
X-22999Y24366D01*
X-22878Y24245D01*
X-22730Y24159D01*
X-22565Y24115D01*
X-22393D01*
X-22228Y24159D01*
X-22080Y24245D01*
X-21959Y24366D01*
X-21873Y24514D01*
X-21829Y24679D01*
Y24851D01*
X-21873Y25016D01*
X-21959Y25164D01*
X-22080Y25285D01*
X-22228Y25371D01*
X-22393Y25415D01*
Y25512D01*
X-22228Y25556D01*
X-22080Y25642D01*
X-21959Y25763D01*
X-21873Y25911D01*
X-21829Y26076D01*
Y26248D01*
X-21873Y26413D01*
X-21959Y26561D01*
X-22080Y26682D01*
X-22228Y26768D01*
X-22393Y26812D01*
D02*
G37*
G36*
X-23962Y25395D02*
X-24134D01*
X-24299Y25350D01*
X-24447Y25265D01*
X-24568Y25144D01*
X-24654Y24995D01*
X-24698Y24830D01*
Y24659D01*
X-24654Y24494D01*
X-24568Y24345D01*
X-24447Y24224D01*
X-24299Y24139D01*
X-24134Y24095D01*
X-23962D01*
X-23797Y24139D01*
X-23649Y24224D01*
X-23528Y24345D01*
X-23442Y24494D01*
X-23398Y24659D01*
Y24830D01*
X-23442Y24995D01*
X-23528Y25144D01*
X-23649Y25265D01*
X-23797Y25350D01*
X-23962Y25395D01*
D02*
G37*
G36*
X-31179Y26494D02*
X-31650Y26457D01*
X-32109Y26347D01*
X-32546Y26166D01*
X-32948Y25920D01*
X-33307Y25613D01*
X-33614Y25254D01*
X-33861Y24851D01*
X-34041Y24415D01*
X-34152Y23956D01*
X-34189Y23485D01*
X-34152Y23014D01*
X-34041Y22555D01*
X-33861Y22119D01*
X-33614Y21716D01*
X-33307Y21357D01*
X-32948Y21050D01*
X-32546Y20804D01*
X-32109Y20623D01*
X-31650Y20513D01*
X-31179Y20476D01*
X-30709Y20513D01*
X-30250Y20623D01*
X-29813Y20804D01*
X-29411Y21050D01*
X-29052Y21357D01*
X-28745Y21716D01*
X-28498Y22119D01*
X-28317Y22555D01*
X-28207Y23014D01*
X-28170Y23485D01*
X-28207Y23956D01*
X-28317Y24415D01*
X-28498Y24851D01*
X-28745Y25254D01*
X-29052Y25613D01*
X-29411Y25920D01*
X-29813Y26166D01*
X-30250Y26347D01*
X-30709Y26457D01*
X-31179Y26494D01*
D02*
G37*
G36*
X-18583Y16017D02*
X-18755D01*
X-18920Y15973D01*
X-19068Y15887D01*
X-19189Y15766D01*
X-19275Y15618D01*
X-19319Y15453D01*
Y15281D01*
X-19275Y15116D01*
X-19189Y14968D01*
X-19068Y14847D01*
X-18920Y14761D01*
X-18755Y14717D01*
X-18583D01*
X-18418Y14761D01*
X-18270Y14847D01*
X-18149Y14968D01*
X-18063Y15116D01*
X-18019Y15281D01*
Y15453D01*
X-18063Y15618D01*
X-18149Y15766D01*
X-18270Y15887D01*
X-18418Y15973D01*
X-18583Y16017D01*
D02*
G37*
G36*
Y13350D02*
X-18755D01*
X-18920Y13306D01*
X-19068Y13220D01*
X-19189Y13099D01*
X-19275Y12951D01*
X-19319Y12786D01*
Y12614D01*
X-19275Y12449D01*
X-19189Y12301D01*
X-19068Y12180D01*
X-18920Y12094D01*
X-18755Y12050D01*
X-18583D01*
X-18418Y12094D01*
X-18270Y12180D01*
X-18149Y12301D01*
X-18063Y12449D01*
X-18019Y12614D01*
Y12786D01*
X-18063Y12951D01*
X-18149Y13099D01*
X-18270Y13220D01*
X-18418Y13306D01*
X-18583Y13350D01*
D02*
G37*
G36*
X-32379Y14882D02*
X-32715D01*
X-33044Y14817D01*
X-33354Y14688D01*
X-33633Y14502D01*
X-33871Y14264D01*
X-34057Y13985D01*
X-34186Y13675D01*
X-34251Y13346D01*
Y13010D01*
X-34186Y12681D01*
X-34057Y12371D01*
X-33871Y12092D01*
X-33633Y11855D01*
X-33354Y11668D01*
X-33044Y11540D01*
X-32715Y11474D01*
X-32379D01*
X-32050Y11540D01*
X-31740Y11668D01*
X-31461Y11855D01*
X-31224Y12092D01*
X-31037Y12371D01*
X-30909Y12681D01*
X-30843Y13010D01*
Y13346D01*
X-30909Y13675D01*
X-31037Y13985D01*
X-31224Y14264D01*
X-31461Y14502D01*
X-31740Y14688D01*
X-32050Y14817D01*
X-32379Y14882D01*
D02*
G37*
G36*
X-27642Y9555D02*
X-27984D01*
X-28315Y9466D01*
X-28448Y9389D01*
X-28581Y9466D01*
X-28912Y9555D01*
X-29254D01*
X-29585Y9466D01*
X-29718Y9389D01*
X-29851Y9466D01*
X-30182Y9555D01*
X-30524D01*
X-30855Y9466D01*
X-30988Y9389D01*
X-31121Y9466D01*
X-31452Y9555D01*
X-31794D01*
X-32125Y9466D01*
X-32258Y9389D01*
X-32391Y9466D01*
X-32722Y9555D01*
X-33064D01*
X-33395Y9466D01*
X-33691Y9295D01*
X-33933Y9053D01*
X-34104Y8757D01*
X-34193Y8426D01*
Y8084D01*
X-34104Y7753D01*
X-34027Y7620D01*
X-34104Y7487D01*
X-34193Y7156D01*
Y6814D01*
X-34104Y6483D01*
X-33991Y6286D01*
X-34104Y6090D01*
X-34193Y5759D01*
Y5417D01*
X-34104Y5086D01*
X-34027Y4953D01*
X-34104Y4820D01*
X-34193Y4489D01*
Y4147D01*
X-34104Y3816D01*
X-33933Y3520D01*
X-33691Y3278D01*
X-33395Y3107D01*
X-33064Y3018D01*
X-32722D01*
X-32391Y3107D01*
X-32258Y3184D01*
X-32125Y3107D01*
X-31794Y3018D01*
X-31452D01*
X-31121Y3107D01*
X-30988Y3184D01*
X-30855Y3107D01*
X-30524Y3018D01*
X-30182D01*
X-29851Y3107D01*
X-29718Y3184D01*
X-29585Y3107D01*
X-29254Y3018D01*
X-28912D01*
X-28581Y3107D01*
X-28448Y3184D01*
X-28315Y3107D01*
X-27984Y3018D01*
X-27642D01*
X-27311Y3107D01*
X-27015Y3278D01*
X-26773Y3520D01*
X-26602Y3816D01*
X-26513Y4147D01*
Y4489D01*
X-26602Y4820D01*
X-26679Y4953D01*
X-26602Y5086D01*
X-26513Y5417D01*
Y5759D01*
X-26602Y6090D01*
X-26715Y6286D01*
X-26602Y6483D01*
X-26513Y6814D01*
Y7156D01*
X-26602Y7487D01*
X-26679Y7620D01*
X-26602Y7753D01*
X-26513Y8084D01*
Y8426D01*
X-26602Y8757D01*
X-26773Y9053D01*
X-27015Y9295D01*
X-27311Y9466D01*
X-27642Y9555D01*
D02*
G37*
G36*
X17606Y6750D02*
X17446D01*
X17299Y6689D01*
X17187Y6577D01*
X17126Y6430D01*
Y6270D01*
X17187Y6123D01*
X17299Y6011D01*
X17446Y5950D01*
X17606D01*
X17753Y6011D01*
X17865Y6123D01*
X17926Y6270D01*
Y6430D01*
X17865Y6577D01*
X17753Y6689D01*
X17606Y6750D01*
D02*
G37*
G36*
X16463Y6623D02*
X16303D01*
X16156Y6562D01*
X16044Y6450D01*
X15983Y6303D01*
Y6143D01*
X16044Y5996D01*
X16156Y5884D01*
X16303Y5823D01*
X16463D01*
X16610Y5884D01*
X16722Y5996D01*
X16783Y6143D01*
Y6303D01*
X16722Y6450D01*
X16610Y6562D01*
X16463Y6623D01*
D02*
G37*
G36*
X-18471Y6620D02*
X-18630D01*
X-18777Y6559D01*
X-18889Y6446D01*
X-18950Y6299D01*
Y6140D01*
X-18889Y5993D01*
X-18777Y5881D01*
X-18630Y5820D01*
X-18471D01*
X-18324Y5881D01*
X-18211Y5993D01*
X-18150Y6140D01*
Y6299D01*
X-18211Y6446D01*
X-18324Y6559D01*
X-18471Y6620D01*
D02*
G37*
G36*
X34410Y2526D02*
X34230D01*
X34065Y2458D01*
X33939Y2331D01*
X33870Y2166D01*
Y1987D01*
X33939Y1821D01*
X34065Y1695D01*
X34230Y1626D01*
X34410D01*
X34575Y1695D01*
X34701Y1821D01*
X34770Y1987D01*
Y2166D01*
X34701Y2331D01*
X34575Y2458D01*
X34410Y2526D01*
D02*
G37*
G36*
X-31071Y2697D02*
X-31413D01*
X-31744Y2608D01*
X-32040Y2437D01*
X-32282Y2195D01*
X-32453Y1899D01*
X-32542Y1568D01*
Y1226D01*
X-32453Y895D01*
X-32282Y599D01*
X-32040Y357D01*
X-31744Y186D01*
X-31413Y97D01*
X-31071D01*
X-30740Y186D01*
X-30444Y357D01*
X-30202Y599D01*
X-30031Y895D01*
X-29942Y1226D01*
Y1568D01*
X-30031Y1899D01*
X-30202Y2195D01*
X-30444Y2437D01*
X-30740Y2608D01*
X-31071Y2697D01*
D02*
G37*
G36*
X17941Y577D02*
X17761D01*
X17596Y508D01*
X17470Y382D01*
X17401Y217D01*
Y37D01*
X17470Y-128D01*
X17596Y-254D01*
X17761Y-323D01*
X17941D01*
X18097Y-258D01*
X18125Y-273D01*
X18178Y-323D01*
X18139Y-418D01*
Y-598D01*
X18208Y-763D01*
X18334Y-889D01*
X18499Y-958D01*
X18679D01*
X18844Y-889D01*
X18970Y-763D01*
X19039Y-598D01*
Y-418D01*
X18970Y-253D01*
X18844Y-127D01*
X18679Y-58D01*
X18499D01*
X18343Y-123D01*
X18315Y-108D01*
X18262Y-58D01*
X18301Y37D01*
Y217D01*
X18232Y382D01*
X18106Y508D01*
X17941Y577D01*
D02*
G37*
G36*
X32206Y1523D02*
X31864D01*
X31533Y1434D01*
X31237Y1263D01*
X30995Y1021D01*
X30824Y725D01*
X30735Y394D01*
Y52D01*
X30824Y-279D01*
X30995Y-575D01*
X31237Y-817D01*
X31533Y-988D01*
X31864Y-1077D01*
X32206D01*
X32537Y-988D01*
X32833Y-817D01*
X33075Y-575D01*
X33246Y-279D01*
X33335Y52D01*
Y394D01*
X33246Y725D01*
X33075Y1021D01*
X32833Y1263D01*
X32537Y1434D01*
X32206Y1523D01*
D02*
G37*
G36*
X-34119Y30D02*
X-34461D01*
X-34792Y-59D01*
X-35088Y-230D01*
X-35330Y-472D01*
X-35501Y-768D01*
X-35590Y-1099D01*
Y-1441D01*
X-35501Y-1772D01*
X-35330Y-2068D01*
X-35088Y-2310D01*
X-34792Y-2481D01*
X-34461Y-2570D01*
X-34119D01*
X-33788Y-2481D01*
X-33492Y-2310D01*
X-33250Y-2068D01*
X-33079Y-1772D01*
X-32990Y-1441D01*
Y-1099D01*
X-33079Y-768D01*
X-33250Y-472D01*
X-33492Y-230D01*
X-33788Y-59D01*
X-34119Y30D01*
D02*
G37*
G36*
X-20031Y-3287D02*
X-20210D01*
X-20375Y-3356D01*
X-20502Y-3482D01*
X-20570Y-3648D01*
Y-3827D01*
X-20502Y-3992D01*
X-20375Y-4119D01*
X-20210Y-4187D01*
X-20031D01*
X-19865Y-4119D01*
X-19739Y-3992D01*
X-19670Y-3827D01*
Y-3648D01*
X-19739Y-3482D01*
X-19865Y-3356D01*
X-20031Y-3287D01*
D02*
G37*
G36*
X18251Y-3487D02*
X18071D01*
X17906Y-3556D01*
X17780Y-3682D01*
X17711Y-3847D01*
Y-4027D01*
X17780Y-4192D01*
X17906Y-4318D01*
X18071Y-4387D01*
X18251D01*
X18416Y-4318D01*
X18542Y-4192D01*
X18611Y-4027D01*
Y-3847D01*
X18542Y-3682D01*
X18416Y-3556D01*
X18251Y-3487D01*
D02*
G37*
G36*
X15584D02*
X15404D01*
X15239Y-3556D01*
X15113Y-3682D01*
X15044Y-3847D01*
Y-4027D01*
X15113Y-4192D01*
X15239Y-4318D01*
X15404Y-4387D01*
X15584D01*
X15749Y-4318D01*
X15875Y-4192D01*
X15944Y-4027D01*
Y-3847D01*
X15875Y-3682D01*
X15749Y-3556D01*
X15584Y-3487D01*
D02*
G37*
G36*
X19775Y-6281D02*
X19595D01*
X19430Y-6350D01*
X19304Y-6476D01*
X19235Y-6641D01*
Y-6821D01*
X19304Y-6986D01*
X19430Y-7112D01*
X19595Y-7181D01*
X19775D01*
X19940Y-7112D01*
X20066Y-6986D01*
X20135Y-6821D01*
Y-6641D01*
X20066Y-6476D01*
X19940Y-6350D01*
X19775Y-6281D01*
D02*
G37*
G36*
X16092Y-13647D02*
X15912D01*
X15747Y-13716D01*
X15621Y-13842D01*
X15552Y-14007D01*
Y-14187D01*
X15621Y-14352D01*
X15747Y-14478D01*
X15912Y-14547D01*
X16092D01*
X16257Y-14478D01*
X16383Y-14352D01*
X16452Y-14187D01*
Y-14007D01*
X16383Y-13842D01*
X16257Y-13716D01*
X16092Y-13647D01*
D02*
G37*
G36*
X16981Y-14536D02*
X16801D01*
X16636Y-14605D01*
X16510Y-14731D01*
X16441Y-14896D01*
Y-15076D01*
X16510Y-15241D01*
X16636Y-15367D01*
X16801Y-15436D01*
X16981D01*
X17146Y-15367D01*
X17272Y-15241D01*
X17341Y-15076D01*
Y-14896D01*
X17272Y-14731D01*
X17146Y-14605D01*
X16981Y-14536D01*
D02*
G37*
G36*
X17616Y-17330D02*
X17436D01*
X17271Y-17399D01*
X17145Y-17525D01*
X17076Y-17690D01*
Y-17870D01*
X17145Y-18035D01*
X17271Y-18161D01*
X17436Y-18230D01*
X17616D01*
X17781Y-18161D01*
X17907Y-18035D01*
X17976Y-17870D01*
Y-17690D01*
X17907Y-17525D01*
X17781Y-17399D01*
X17616Y-17330D01*
D02*
G37*
G36*
X32660Y-19099D02*
X32489D01*
X32324Y-19143D01*
X32176Y-19229D01*
X32055Y-19350D01*
X31969Y-19498D01*
X31925Y-19663D01*
Y-19834D01*
X31969Y-20000D01*
X32055Y-20148D01*
X32176Y-20269D01*
X32324Y-20355D01*
X32489Y-20399D01*
X32660D01*
X32826Y-20355D01*
X32974Y-20269D01*
X33095Y-20148D01*
X33180Y-20000D01*
X33225Y-19834D01*
Y-19663D01*
X33180Y-19498D01*
X33095Y-19350D01*
X32974Y-19229D01*
X32826Y-19143D01*
X32660Y-19099D01*
D02*
G37*
G36*
X28642Y-19468D02*
X28471D01*
X28306Y-19513D01*
X28157Y-19598D01*
X28036Y-19719D01*
X27951Y-19868D01*
X27907Y-20033D01*
Y-20204D01*
X27944Y-20343D01*
X27881Y-20394D01*
X27860Y-20403D01*
X27717Y-20321D01*
X27552Y-20276D01*
X27381D01*
X27216Y-20321D01*
X27067Y-20406D01*
X26946Y-20527D01*
X26861Y-20675D01*
X26816Y-20841D01*
Y-21012D01*
X26861Y-21177D01*
X26946Y-21325D01*
X27067Y-21446D01*
X27216Y-21532D01*
X27381Y-21576D01*
X27552D01*
X27717Y-21532D01*
X27866Y-21446D01*
X27987Y-21325D01*
X28072Y-21177D01*
X28116Y-21012D01*
Y-20841D01*
X28079Y-20702D01*
X28142Y-20651D01*
X28163Y-20642D01*
X28306Y-20724D01*
X28471Y-20768D01*
X28642D01*
X28807Y-20724D01*
X28956Y-20639D01*
X29077Y-20518D01*
X29162Y-20369D01*
X29207Y-20204D01*
Y-20033D01*
X29162Y-19868D01*
X29077Y-19719D01*
X28956Y-19598D01*
X28807Y-19513D01*
X28642Y-19468D01*
D02*
G37*
G36*
X-33297Y-19189D02*
X-33468D01*
X-33633Y-19234D01*
X-33781Y-19319D01*
X-33903Y-19440D01*
X-33988Y-19588D01*
X-34032Y-19754D01*
Y-19925D01*
X-33988Y-20090D01*
X-33903Y-20238D01*
X-33781Y-20359D01*
X-33633Y-20445D01*
X-33468Y-20489D01*
X-33297D01*
X-33131Y-20445D01*
X-32983Y-20359D01*
X-32862Y-20238D01*
X-32777Y-20090D01*
X-32732Y-19925D01*
Y-19754D01*
X-32777Y-19588D01*
X-32862Y-19440D01*
X-32983Y-19319D01*
X-33131Y-19234D01*
X-33297Y-19189D01*
D02*
G37*
G36*
X-29455Y-19561D02*
X-29626D01*
X-29791Y-19605D01*
X-29939Y-19690D01*
X-30060Y-19811D01*
X-30146Y-19960D01*
X-30190Y-20125D01*
Y-20296D01*
X-30146Y-20461D01*
X-30060Y-20610D01*
X-29939Y-20731D01*
X-29791Y-20816D01*
X-29626Y-20861D01*
X-29455D01*
X-29289Y-20816D01*
X-29146Y-20734D01*
X-29126Y-20743D01*
X-29063Y-20794D01*
X-29100Y-20933D01*
Y-21104D01*
X-29056Y-21269D01*
X-28970Y-21417D01*
X-28849Y-21538D01*
X-28701Y-21624D01*
X-28536Y-21668D01*
X-28365D01*
X-28199Y-21624D01*
X-28051Y-21538D01*
X-27930Y-21417D01*
X-27844Y-21269D01*
X-27800Y-21104D01*
Y-20933D01*
X-27844Y-20767D01*
X-27930Y-20619D01*
X-28051Y-20498D01*
X-28199Y-20413D01*
X-28365Y-20368D01*
X-28536D01*
X-28701Y-20413D01*
X-28844Y-20495D01*
X-28864Y-20486D01*
X-28927Y-20435D01*
X-28890Y-20296D01*
Y-20125D01*
X-28934Y-19960D01*
X-29020Y-19811D01*
X-29141Y-19690D01*
X-29289Y-19605D01*
X-29455Y-19561D01*
D02*
G37*
G36*
X-21627Y-21267D02*
X-21807D01*
X-21972Y-21336D01*
X-22098Y-21462D01*
X-22167Y-21627D01*
Y-21807D01*
X-22098Y-21972D01*
X-21972Y-22098D01*
X-21807Y-22167D01*
X-21627D01*
X-21462Y-22098D01*
X-21336Y-21972D01*
X-21267Y-21807D01*
Y-21627D01*
X-21336Y-21462D01*
X-21462Y-21336D01*
X-21627Y-21267D01*
D02*
G37*
G36*
X-18071Y-21394D02*
X-18251D01*
X-18416Y-21463D01*
X-18542Y-21589D01*
X-18611Y-21754D01*
Y-21934D01*
X-18542Y-22099D01*
X-18416Y-22225D01*
X-18251Y-22294D01*
X-18071D01*
X-17906Y-22225D01*
X-17780Y-22099D01*
X-17711Y-21934D01*
Y-21754D01*
X-17780Y-21589D01*
X-17906Y-21463D01*
X-18071Y-21394D01*
D02*
G37*
G36*
X32374Y-21853D02*
X32203D01*
X32038Y-21897D01*
X31889Y-21983D01*
X31768Y-22104D01*
X31683Y-22252D01*
X31639Y-22418D01*
Y-22589D01*
X31683Y-22754D01*
X31768Y-22902D01*
X31889Y-23023D01*
X32038Y-23109D01*
X32203Y-23153D01*
X32374D01*
X32539Y-23109D01*
X32688Y-23023D01*
X32809Y-22902D01*
X32894Y-22754D01*
X32939Y-22589D01*
Y-22418D01*
X32894Y-22252D01*
X32809Y-22104D01*
X32688Y-21983D01*
X32539Y-21897D01*
X32374Y-21853D01*
D02*
G37*
G36*
X27319Y-21889D02*
X27147D01*
X26982Y-21933D01*
X26834Y-22019D01*
X26713Y-22140D01*
X26627Y-22288D01*
X26583Y-22453D01*
Y-22625D01*
X26627Y-22790D01*
X26713Y-22938D01*
X26834Y-23059D01*
X26982Y-23145D01*
X27147Y-23189D01*
X27319D01*
X27484Y-23145D01*
X27632Y-23059D01*
X27753Y-22938D01*
X27839Y-22790D01*
X27883Y-22625D01*
Y-22453D01*
X27839Y-22288D01*
X27753Y-22140D01*
X27632Y-22019D01*
X27484Y-21933D01*
X27319Y-21889D01*
D02*
G37*
G36*
X28761Y-21901D02*
X28590D01*
X28425Y-21945D01*
X28277Y-22031D01*
X28156Y-22152D01*
X28070Y-22300D01*
X28026Y-22465D01*
Y-22636D01*
X28070Y-22802D01*
X28156Y-22950D01*
X28277Y-23071D01*
X28425Y-23157D01*
X28590Y-23201D01*
X28761D01*
X28927Y-23157D01*
X29075Y-23071D01*
X29196Y-22950D01*
X29281Y-22802D01*
X29326Y-22636D01*
Y-22465D01*
X29281Y-22300D01*
X29196Y-22152D01*
X29075Y-22031D01*
X28927Y-21945D01*
X28761Y-21901D01*
D02*
G37*
G36*
X30419Y-21913D02*
X30248D01*
X30082Y-21957D01*
X29934Y-22043D01*
X29813Y-22164D01*
X29727Y-22312D01*
X29683Y-22477D01*
Y-22648D01*
X29727Y-22814D01*
X29813Y-22962D01*
X29934Y-23083D01*
X30082Y-23169D01*
X30248Y-23213D01*
X30419D01*
X30584Y-23169D01*
X30732Y-23083D01*
X30853Y-22962D01*
X30939Y-22814D01*
X30983Y-22648D01*
Y-22477D01*
X30939Y-22312D01*
X30853Y-22164D01*
X30732Y-22043D01*
X30584Y-21957D01*
X30419Y-21913D01*
D02*
G37*
G36*
X-33187Y-21945D02*
X-33358D01*
X-33523Y-21990D01*
X-33671Y-22075D01*
X-33792Y-22196D01*
X-33878Y-22344D01*
X-33922Y-22510D01*
Y-22681D01*
X-33878Y-22846D01*
X-33792Y-22994D01*
X-33671Y-23115D01*
X-33523Y-23201D01*
X-33358Y-23245D01*
X-33187D01*
X-33021Y-23201D01*
X-32873Y-23115D01*
X-32752Y-22994D01*
X-32667Y-22846D01*
X-32622Y-22681D01*
Y-22510D01*
X-32667Y-22344D01*
X-32752Y-22196D01*
X-32873Y-22075D01*
X-33021Y-21990D01*
X-33187Y-21945D01*
D02*
G37*
G36*
X-28131Y-21981D02*
X-28302D01*
X-28468Y-22025D01*
X-28616Y-22111D01*
X-28737Y-22232D01*
X-28822Y-22380D01*
X-28867Y-22545D01*
Y-22717D01*
X-28822Y-22882D01*
X-28737Y-23030D01*
X-28616Y-23151D01*
X-28468Y-23237D01*
X-28302Y-23281D01*
X-28131D01*
X-27966Y-23237D01*
X-27818Y-23151D01*
X-27697Y-23030D01*
X-27611Y-22882D01*
X-27567Y-22717D01*
Y-22545D01*
X-27611Y-22380D01*
X-27697Y-22232D01*
X-27818Y-22111D01*
X-27966Y-22025D01*
X-28131Y-21981D01*
D02*
G37*
G36*
X-29574Y-21993D02*
X-29745D01*
X-29910Y-22037D01*
X-30059Y-22123D01*
X-30180Y-22244D01*
X-30265Y-22392D01*
X-30309Y-22557D01*
Y-22729D01*
X-30265Y-22894D01*
X-30180Y-23042D01*
X-30059Y-23163D01*
X-29910Y-23249D01*
X-29745Y-23293D01*
X-29574D01*
X-29409Y-23249D01*
X-29260Y-23163D01*
X-29139Y-23042D01*
X-29054Y-22894D01*
X-29009Y-22729D01*
Y-22557D01*
X-29054Y-22392D01*
X-29139Y-22244D01*
X-29260Y-22123D01*
X-29409Y-22037D01*
X-29574Y-21993D01*
D02*
G37*
G36*
X-31231Y-22005D02*
X-31402D01*
X-31568Y-22049D01*
X-31716Y-22135D01*
X-31837Y-22256D01*
X-31922Y-22404D01*
X-31967Y-22569D01*
Y-22740D01*
X-31922Y-22906D01*
X-31837Y-23054D01*
X-31716Y-23175D01*
X-31568Y-23261D01*
X-31402Y-23305D01*
X-31231D01*
X-31066Y-23261D01*
X-30918Y-23175D01*
X-30797Y-23054D01*
X-30711Y-22906D01*
X-30667Y-22740D01*
Y-22569D01*
X-30711Y-22404D01*
X-30797Y-22256D01*
X-30918Y-22135D01*
X-31066Y-22049D01*
X-31231Y-22005D01*
D02*
G37*
G36*
X27552Y-23324D02*
X27381D01*
X27216Y-23369D01*
X27067Y-23454D01*
X26946Y-23575D01*
X26861Y-23723D01*
X26816Y-23889D01*
Y-24060D01*
X26861Y-24225D01*
X26946Y-24373D01*
X27067Y-24494D01*
X27216Y-24580D01*
X27381Y-24624D01*
X27552D01*
X27717Y-24580D01*
X27866Y-24494D01*
X27987Y-24373D01*
X28072Y-24225D01*
X28116Y-24060D01*
Y-23889D01*
X28072Y-23723D01*
X27987Y-23575D01*
X27866Y-23454D01*
X27717Y-23369D01*
X27552Y-23324D01*
D02*
G37*
G36*
X-28365Y-23416D02*
X-28536D01*
X-28701Y-23461D01*
X-28849Y-23546D01*
X-28970Y-23667D01*
X-29056Y-23815D01*
X-29100Y-23981D01*
Y-24152D01*
X-29056Y-24317D01*
X-28970Y-24465D01*
X-28849Y-24586D01*
X-28701Y-24672D01*
X-28536Y-24716D01*
X-28365D01*
X-28199Y-24672D01*
X-28051Y-24586D01*
X-27930Y-24465D01*
X-27844Y-24317D01*
X-27800Y-24152D01*
Y-23981D01*
X-27844Y-23815D01*
X-27930Y-23667D01*
X-28051Y-23546D01*
X-28199Y-23461D01*
X-28365Y-23416D01*
D02*
G37*
G36*
X28559Y-24476D02*
X28387D01*
X28222Y-24521D01*
X28074Y-24606D01*
X27953Y-24727D01*
X27867Y-24875D01*
X27823Y-25041D01*
Y-25212D01*
X27867Y-25377D01*
X27953Y-25525D01*
X28074Y-25646D01*
X28222Y-25732D01*
X28387Y-25776D01*
X28559D01*
X28724Y-25732D01*
X28872Y-25646D01*
X28993Y-25525D01*
X29079Y-25377D01*
X29123Y-25212D01*
Y-25041D01*
X29079Y-24875D01*
X28993Y-24727D01*
X28872Y-24606D01*
X28724Y-24521D01*
X28559Y-24476D01*
D02*
G37*
G36*
X-29371Y-24568D02*
X-29542D01*
X-29708Y-24613D01*
X-29856Y-24698D01*
X-29977Y-24819D01*
X-30062Y-24968D01*
X-30107Y-25133D01*
Y-25304D01*
X-30062Y-25469D01*
X-29977Y-25618D01*
X-29856Y-25739D01*
X-29708Y-25824D01*
X-29542Y-25868D01*
X-29371D01*
X-29206Y-25824D01*
X-29058Y-25739D01*
X-28937Y-25618D01*
X-28851Y-25469D01*
X-28807Y-25304D01*
Y-25133D01*
X-28851Y-24968D01*
X-28937Y-24819D01*
X-29058Y-24698D01*
X-29206Y-24613D01*
X-29371Y-24568D01*
D02*
G37*
G36*
X32613Y-24798D02*
X32441D01*
X32276Y-24843D01*
X32128Y-24928D01*
X32007Y-25049D01*
X31921Y-25197D01*
X31877Y-25363D01*
Y-25534D01*
X31921Y-25699D01*
X32007Y-25847D01*
X32128Y-25968D01*
X32276Y-26054D01*
X32441Y-26098D01*
X32613D01*
X32778Y-26054D01*
X32926Y-25968D01*
X33047Y-25847D01*
X33133Y-25699D01*
X33177Y-25534D01*
Y-25363D01*
X33133Y-25197D01*
X33047Y-25049D01*
X32926Y-24928D01*
X32778Y-24843D01*
X32613Y-24798D01*
D02*
G37*
G36*
X-33425Y-24890D02*
X-33596D01*
X-33762Y-24935D01*
X-33910Y-25020D01*
X-34031Y-25141D01*
X-34116Y-25289D01*
X-34161Y-25455D01*
Y-25626D01*
X-34116Y-25791D01*
X-34031Y-25939D01*
X-33910Y-26060D01*
X-33762Y-26146D01*
X-33596Y-26190D01*
X-33425D01*
X-33260Y-26146D01*
X-33112Y-26060D01*
X-32991Y-25939D01*
X-32905Y-25791D01*
X-32861Y-25626D01*
Y-25455D01*
X-32905Y-25289D01*
X-32991Y-25141D01*
X-33112Y-25020D01*
X-33260Y-24935D01*
X-33425Y-24890D01*
D02*
G37*
G36*
X-20992Y-25712D02*
X-21172D01*
X-21337Y-25781D01*
X-21463Y-25907D01*
X-21532Y-26072D01*
Y-26252D01*
X-21463Y-26417D01*
X-21337Y-26543D01*
X-21172Y-26612D01*
X-20992D01*
X-20827Y-26543D01*
X-20701Y-26417D01*
X-20632Y-26252D01*
Y-26072D01*
X-20701Y-25907D01*
X-20827Y-25781D01*
X-20992Y-25712D01*
D02*
G37*
G36*
X24235Y-27229D02*
X24056D01*
X23891Y-27298D01*
X23764Y-27424D01*
X23696Y-27590D01*
Y-27769D01*
X23764Y-27934D01*
X23891Y-28061D01*
X24056Y-28129D01*
X24235D01*
X24401Y-28061D01*
X24527Y-27934D01*
X24596Y-27769D01*
Y-27590D01*
X24527Y-27424D01*
X24401Y-27298D01*
X24235Y-27229D01*
D02*
G37*
G36*
X-27580Y-29129D02*
X-27759D01*
X-27925Y-29197D01*
X-28051Y-29324D01*
X-28120Y-29489D01*
Y-29668D01*
X-28051Y-29834D01*
X-27925Y-29960D01*
X-27759Y-30029D01*
X-27580D01*
X-27415Y-29960D01*
X-27288Y-29834D01*
X-27220Y-29668D01*
Y-29489D01*
X-27288Y-29324D01*
X-27415Y-29197D01*
X-27580Y-29129D01*
D02*
G37*
G36*
X27047Y-31462D02*
X26868D01*
X26702Y-31531D01*
X26576Y-31657D01*
X26507Y-31823D01*
Y-32002D01*
X26576Y-32167D01*
X26702Y-32294D01*
X26868Y-32362D01*
X27047D01*
X27212Y-32294D01*
X27339Y-32167D01*
X27407Y-32002D01*
Y-31823D01*
X27339Y-31657D01*
X27212Y-31531D01*
X27047Y-31462D01*
D02*
G37*
G36*
X-35008Y-30196D02*
X-35350D01*
X-35681Y-30285D01*
X-35977Y-30456D01*
X-36219Y-30698D01*
X-36390Y-30994D01*
X-36479Y-31325D01*
Y-31667D01*
X-36390Y-31998D01*
X-36219Y-32294D01*
X-35977Y-32536D01*
X-35681Y-32707D01*
X-35350Y-32796D01*
X-35008D01*
X-34677Y-32707D01*
X-34381Y-32536D01*
X-34139Y-32294D01*
X-33968Y-31998D01*
X-33879Y-31667D01*
Y-31325D01*
X-33968Y-30994D01*
X-34139Y-30698D01*
X-34381Y-30456D01*
X-34677Y-30285D01*
X-35008Y-30196D01*
D02*
G37*
G36*
X-21138Y-32551D02*
X-21317D01*
X-21483Y-32619D01*
X-21609Y-32746D01*
X-21678Y-32911D01*
Y-33090D01*
X-21609Y-33256D01*
X-21483Y-33382D01*
X-21317Y-33451D01*
X-21138D01*
X-20973Y-33382D01*
X-20847Y-33256D01*
X-20778Y-33090D01*
Y-32911D01*
X-20847Y-32746D01*
X-20973Y-32619D01*
X-21138Y-32551D01*
D02*
G37*
G36*
X-18936Y-32807D02*
X-19115D01*
X-19280Y-32875D01*
X-19407Y-33002D01*
X-19475Y-33167D01*
Y-33346D01*
X-19407Y-33512D01*
X-19280Y-33638D01*
X-19115Y-33707D01*
X-18936D01*
X-18770Y-33638D01*
X-18644Y-33512D01*
X-18575Y-33346D01*
Y-33167D01*
X-18644Y-33002D01*
X-18770Y-32875D01*
X-18936Y-32807D01*
D02*
G37*
G36*
X-21931Y-33377D02*
X-22110D01*
X-22276Y-33445D01*
X-22402Y-33572D01*
X-22471Y-33737D01*
Y-33916D01*
X-22402Y-34082D01*
X-22276Y-34208D01*
X-22110Y-34277D01*
X-21931D01*
X-21766Y-34208D01*
X-21639Y-34082D01*
X-21571Y-33916D01*
Y-33737D01*
X-21639Y-33572D01*
X-21766Y-33445D01*
X-21931Y-33377D01*
D02*
G37*
G36*
X-24970Y-33672D02*
X-25149D01*
X-25314Y-33740D01*
X-25441Y-33867D01*
X-25509Y-34032D01*
Y-34211D01*
X-25441Y-34377D01*
X-25314Y-34503D01*
X-25149Y-34572D01*
X-24970D01*
X-24804Y-34503D01*
X-24678Y-34377D01*
X-24609Y-34211D01*
Y-34032D01*
X-24678Y-33867D01*
X-24804Y-33740D01*
X-24970Y-33672D01*
D02*
G37*
G36*
X22522Y-32213D02*
X22343D01*
X22178Y-32282D01*
X22051Y-32408D01*
X21982Y-32574D01*
Y-32753D01*
X22051Y-32918D01*
X22178Y-33045D01*
X22343Y-33113D01*
X22522D01*
X22586Y-33087D01*
X22643Y-33172D01*
X22636Y-33178D01*
X22568Y-33344D01*
Y-33523D01*
X22630Y-33674D01*
X22468Y-33741D01*
X22341Y-33868D01*
X22273Y-34033D01*
Y-34212D01*
X22341Y-34377D01*
X22468Y-34504D01*
X22633Y-34573D01*
X22812D01*
X22978Y-34504D01*
X23104Y-34377D01*
X23173Y-34212D01*
Y-34033D01*
X23110Y-33882D01*
X23273Y-33815D01*
X23399Y-33688D01*
X23468Y-33523D01*
Y-33344D01*
X23399Y-33178D01*
X23273Y-33052D01*
X23107Y-32983D01*
X22928D01*
X22864Y-33010D01*
X22807Y-32925D01*
X22814Y-32918D01*
X22882Y-32753D01*
Y-32574D01*
X22814Y-32408D01*
X22687Y-32282D01*
X22522Y-32213D01*
D02*
G37*
G36*
X31805Y-29011D02*
X31441D01*
X31083Y-29082D01*
X30747Y-29222D01*
X30444Y-29424D01*
X30186Y-29682D01*
X29984Y-29985D01*
X29844Y-30321D01*
X29773Y-30679D01*
Y-31043D01*
X29844Y-31401D01*
X29984Y-31737D01*
X30186Y-32040D01*
X30444Y-32298D01*
X30747Y-32500D01*
X31083Y-32640D01*
X31441Y-32711D01*
X31805D01*
X32128Y-32647D01*
X32196Y-32729D01*
X32137Y-32831D01*
X32041Y-33187D01*
Y-33556D01*
X32137Y-33912D01*
X32321Y-34231D01*
X32582Y-34492D01*
X32901Y-34676D01*
X33257Y-34772D01*
X33626D01*
X33982Y-34676D01*
X34301Y-34492D01*
X34562Y-34231D01*
X34746Y-33912D01*
X34841Y-33556D01*
Y-33187D01*
X34746Y-32831D01*
X34562Y-32512D01*
X34301Y-32251D01*
X33982Y-32067D01*
X33626Y-31972D01*
X33257D01*
X33210Y-31984D01*
X33152Y-31903D01*
X33262Y-31737D01*
X33402Y-31401D01*
X33473Y-31043D01*
Y-30679D01*
X33402Y-30321D01*
X33262Y-29985D01*
X33060Y-29682D01*
X32802Y-29424D01*
X32499Y-29222D01*
X32163Y-29082D01*
X31805Y-29011D01*
D02*
G37*
G36*
X24682Y-35031D02*
X24503D01*
X24337Y-35100D01*
X24211Y-35226D01*
X24142Y-35392D01*
Y-35571D01*
X24211Y-35736D01*
X24337Y-35863D01*
X24503Y-35931D01*
X24682D01*
X24847Y-35863D01*
X24974Y-35736D01*
X25042Y-35571D01*
Y-35392D01*
X24974Y-35226D01*
X24847Y-35100D01*
X24682Y-35031D01*
D02*
G37*
G36*
X-24449Y-35376D02*
X-24628D01*
X-24793Y-35444D01*
X-24920Y-35571D01*
X-24988Y-35736D01*
Y-35915D01*
X-24920Y-36080D01*
X-24793Y-36207D01*
X-24628Y-36276D01*
X-24449D01*
X-24284Y-36207D01*
X-24157Y-36080D01*
X-24088Y-35915D01*
Y-35736D01*
X-24157Y-35571D01*
X-24284Y-35444D01*
X-24449Y-35376D01*
D02*
G37*
G36*
X34175Y-35490D02*
X33946D01*
X33916Y-35503D01*
X33883D01*
X33672Y-35590D01*
X33649Y-35613D01*
X33619Y-35625D01*
X33457Y-35787D01*
X33445Y-35817D01*
X33422Y-35840D01*
X33334Y-36052D01*
Y-36084D01*
X33322Y-36114D01*
Y-36343D01*
X33334Y-36373D01*
Y-36405D01*
X33422Y-36617D01*
X33445Y-36640D01*
X33457Y-36670D01*
X33619Y-36832D01*
X33649Y-36844D01*
X33672Y-36867D01*
X33883Y-36955D01*
X33916D01*
X33946Y-36967D01*
X34175D01*
X34205Y-36955D01*
X34237D01*
X34449Y-36867D01*
X34471Y-36844D01*
X34501Y-36832D01*
X34663Y-36670D01*
X34676Y-36640D01*
X34698Y-36617D01*
X34786Y-36405D01*
Y-36373D01*
X34799Y-36343D01*
Y-36114D01*
X34786Y-36084D01*
Y-36052D01*
X34698Y-35840D01*
X34676Y-35817D01*
X34663Y-35787D01*
X34501Y-35625D01*
X34471Y-35613D01*
X34449Y-35590D01*
X34237Y-35503D01*
X34205D01*
X34175Y-35490D01*
D02*
G37*
G36*
X26438Y-36349D02*
X26259D01*
X26094Y-36418D01*
X25967Y-36544D01*
X25899Y-36709D01*
Y-36889D01*
X25967Y-37054D01*
X26094Y-37181D01*
X26259Y-37249D01*
X26438D01*
X26604Y-37181D01*
X26730Y-37054D01*
X26799Y-36889D01*
Y-36709D01*
X26730Y-36544D01*
X26604Y-36418D01*
X26438Y-36349D01*
D02*
G37*
G36*
X-32158Y-34100D02*
X-32612D01*
X-33056Y-34188D01*
X-33474Y-34362D01*
X-33851Y-34613D01*
X-34172Y-34934D01*
X-34423Y-35311D01*
X-34597Y-35729D01*
X-34685Y-36173D01*
Y-36627D01*
X-34597Y-37071D01*
X-34423Y-37489D01*
X-34172Y-37866D01*
X-33851Y-38187D01*
X-33474Y-38438D01*
X-33056Y-38612D01*
X-32612Y-38700D01*
X-32158D01*
X-31714Y-38612D01*
X-31296Y-38438D01*
X-30919Y-38187D01*
X-30598Y-37866D01*
X-30347Y-37489D01*
X-30173Y-37071D01*
X-30085Y-36627D01*
Y-36173D01*
X-30173Y-35729D01*
X-30347Y-35311D01*
X-30598Y-34934D01*
X-30919Y-34613D01*
X-31296Y-34362D01*
X-31714Y-34188D01*
X-32158Y-34100D01*
D02*
G37*
%LPD*%
D17*
X-30179Y23485D02*
G03*
X-30179Y23485I-1000J0D01*
G01*
X-7679D02*
G03*
X-7679Y23485I-1000J0D01*
G01*
X31717D02*
G03*
X31717Y23485I-1000J0D01*
G01*
X9217D02*
G03*
X9217Y23485I-1000J0D01*
G01*
D32*
X-33382Y-19839D02*
D03*
X-33511Y-25540D02*
D03*
X-33272Y-22595D02*
D03*
X26230Y-30068D02*
D03*
X25315Y-30867D02*
D03*
X25268Y-29270D02*
D03*
X-28450Y-21018D02*
D03*
Y-24066D02*
D03*
X-29457Y-25218D02*
D03*
X-29540Y-20211D02*
D03*
X-28217Y-22631D02*
D03*
X-29659Y-22643D02*
D03*
X-31317Y-22655D02*
D03*
X32289Y-22503D02*
D03*
X30333Y-22563D02*
D03*
X28676Y-22551D02*
D03*
X27233Y-22539D02*
D03*
X32575Y-19749D02*
D03*
X32527Y-25448D02*
D03*
X28557Y-20118D02*
D03*
X28473Y-25126D02*
D03*
X27466Y-23974D02*
D03*
Y-20926D02*
D03*
X-18669Y12700D02*
D03*
Y15367D02*
D03*
X-16017Y19487D02*
D03*
X-23495Y38989D02*
D03*
Y40513D02*
D03*
X-26416Y39243D02*
D03*
Y40513D02*
D03*
X25527Y39624D02*
D03*
Y41148D02*
D03*
X22606D02*
D03*
Y39878D02*
D03*
X25654Y26543D02*
D03*
X25781Y21971D02*
D03*
X26289Y24257D02*
D03*
X21844Y26416D02*
D03*
X19033Y35481D02*
D03*
X20908Y34174D02*
D03*
X19776Y32192D02*
D03*
X20320Y23368D02*
D03*
X18669D02*
D03*
X17145D02*
D03*
X20320Y25400D02*
D03*
X18669D02*
D03*
X17145D02*
D03*
Y27432D02*
D03*
X18669D02*
D03*
X20320D02*
D03*
X-22479Y24765D02*
D03*
Y26162D02*
D03*
X-24003D02*
D03*
X-24048Y24745D02*
D03*
D50*
X15453Y36679D02*
D03*
X-15547D02*
D03*
D51*
X8058Y-335D02*
D03*
X8070Y-5412D02*
D03*
X8866Y-3236D02*
D03*
X8900Y-5556D02*
D03*
X3302Y3302D02*
D03*
X7482Y4012D02*
D03*
X4928Y4131D02*
D03*
X-6629Y-4760D02*
D03*
X-5714Y-4486D02*
D03*
X-9218Y85D02*
D03*
X-11938Y-635D02*
D03*
X-198Y630D02*
D03*
X-7387Y-2667D02*
D03*
X-8151Y-3570D02*
D03*
X2143Y-2846D02*
D03*
X1076D02*
D03*
X-1067D02*
D03*
X0D02*
D03*
X-2113D02*
D03*
X2143Y-3951D02*
D03*
X1076D02*
D03*
X-1067D02*
D03*
X0D02*
D03*
X-2113D02*
D03*
X2143Y-5055D02*
D03*
X1076D02*
D03*
X-1067D02*
D03*
X0D02*
D03*
X-2113D02*
D03*
X2143Y-6212D02*
D03*
X1076D02*
D03*
X-1067D02*
D03*
X0D02*
D03*
X-2113D02*
D03*
Y-7277D02*
D03*
X0D02*
D03*
X-1067D02*
D03*
X1076D02*
D03*
X2143D02*
D03*
X-15695Y-25080D02*
D03*
X-15547Y-2512D02*
D03*
X-15494Y-778D02*
D03*
X26957Y-31912D02*
D03*
X-14890Y-31409D02*
D03*
X-15631Y-32466D02*
D03*
X-16506Y-31443D02*
D03*
X-18285D02*
D03*
X-17410Y-32466D02*
D03*
X-35179Y-31496D02*
D03*
X-22021Y-33827D02*
D03*
X-24538Y-35826D02*
D03*
X-21228Y-33001D02*
D03*
X-25059Y-34122D02*
D03*
X24146Y-27679D02*
D03*
X-27670Y-29579D02*
D03*
X-19025Y-33257D02*
D03*
X-27990Y-34386D02*
D03*
X-17404Y-26658D02*
D03*
X20472Y-38411D02*
D03*
X19227Y-38043D02*
D03*
X22723Y-34123D02*
D03*
X23018Y-33433D02*
D03*
X26784Y-38948D02*
D03*
X25661Y-38923D02*
D03*
X26349Y-36799D02*
D03*
X24592Y-35481D02*
D03*
X16039Y-34207D02*
D03*
X15164Y-33184D02*
D03*
X16943D02*
D03*
X17818Y-34207D02*
D03*
X18715Y-33184D02*
D03*
X19570Y-34207D02*
D03*
X22432Y-32663D02*
D03*
X-11599Y-10336D02*
D03*
X-10794Y-10343D02*
D03*
X-10708Y-8467D02*
D03*
X-11499Y-8480D02*
D03*
X-11049Y-9369D02*
D03*
X-11811D02*
D03*
X10179Y-2079D02*
D03*
X12060Y-2051D02*
D03*
X10922Y8255D02*
D03*
X22098Y3683D02*
D03*
X21209D02*
D03*
X27432Y4445D02*
D03*
X-14732Y4064D02*
D03*
X-10541Y7620D02*
D03*
X2575Y0D02*
D03*
X32035Y223D02*
D03*
X34320Y2076D02*
D03*
X2975Y-12434D02*
D03*
X381Y15367D02*
D03*
X-2794Y12700D02*
D03*
X-10541Y13848D02*
D03*
X-9271Y13970D02*
D03*
X-1524Y15367D02*
D03*
X4311Y14344D02*
D03*
X4318Y13462D02*
D03*
X-3810Y11557D02*
D03*
X-4826D02*
D03*
X9398Y39497D02*
D03*
X1270Y8001D02*
D03*
X-7762Y17074D02*
D03*
X-12827Y7747D02*
D03*
X-10922Y17526D02*
D03*
X3175Y10414D02*
D03*
X-2794Y7620D02*
D03*
X-1407Y7496D02*
D03*
X4318Y-4572D02*
D03*
X-2251Y-11776D02*
D03*
X-12573Y12065D02*
D03*
Y10922D02*
D03*
X-1397Y12954D02*
D03*
X-254Y12827D02*
D03*
X14986Y13589D02*
D03*
X3224Y-20018D02*
D03*
X3079Y-16822D02*
D03*
X-11264Y2047D02*
D03*
X17526Y-17780D02*
D03*
X-21082Y-26162D02*
D03*
X-18728Y8951D02*
D03*
X16764Y13335D02*
D03*
X-9779Y11816D02*
D03*
X-13208Y11435D02*
D03*
X16891Y-14986D02*
D03*
X16002Y-14097D02*
D03*
X19685Y-6731D02*
D03*
X-6096Y5197D02*
D03*
X3302Y6223D02*
D03*
X-16764Y9271D02*
D03*
X-22098Y9652D02*
D03*
Y8636D02*
D03*
Y7366D02*
D03*
X16891Y2032D02*
D03*
X16092Y3212D02*
D03*
X17611Y3284D02*
D03*
X13843Y8382D02*
D03*
X10033Y6477D02*
D03*
X-5219Y-1205D02*
D03*
X28194Y10414D02*
D03*
X-14097Y4953D02*
D03*
X9906Y-10541D02*
D03*
Y-9652D02*
D03*
Y-8763D02*
D03*
X10922D02*
D03*
Y-9652D02*
D03*
Y-10541D02*
D03*
X-23241Y9652D02*
D03*
X-24384D02*
D03*
X-23241Y7366D02*
D03*
X-24384D02*
D03*
X24257Y4826D02*
D03*
X23241D02*
D03*
X21209D02*
D03*
X22225D02*
D03*
X-1524Y-16383D02*
D03*
X5228Y-6461D02*
D03*
X10922Y-15439D02*
D03*
X-10795Y-2159D02*
D03*
X-3190Y-11154D02*
D03*
X18589Y-508D02*
D03*
X11049Y-4699D02*
D03*
Y-1397D02*
D03*
X2286Y-10287D02*
D03*
X-3429Y-12954D02*
D03*
X-8509Y-11811D02*
D03*
X-20120Y-3737D02*
D03*
X32512Y8382D02*
D03*
Y7112D02*
D03*
Y5715D02*
D03*
Y4445D02*
D03*
X31242Y8382D02*
D03*
Y7112D02*
D03*
Y5715D02*
D03*
Y4445D02*
D03*
X29972Y8382D02*
D03*
Y7112D02*
D03*
Y5715D02*
D03*
Y4445D02*
D03*
X28702Y8382D02*
D03*
Y7112D02*
D03*
Y5715D02*
D03*
Y4445D02*
D03*
X27432Y5715D02*
D03*
Y7112D02*
D03*
Y8382D02*
D03*
X-21717Y-21717D02*
D03*
X-18161Y-21844D02*
D03*
X15494Y-3937D02*
D03*
X18161D02*
D03*
X17851Y127D02*
D03*
X-3756Y-27169D02*
D03*
X5461Y-2032D02*
D03*
X5873Y-3229D02*
D03*
X5201Y-5579D02*
D03*
X11938Y-18360D02*
D03*
X-4958Y-3172D02*
D03*
X-27813Y8255D02*
D03*
Y6985D02*
D03*
Y5588D02*
D03*
Y4318D02*
D03*
X-29083Y8255D02*
D03*
Y6985D02*
D03*
Y5588D02*
D03*
Y4318D02*
D03*
X-30353Y8255D02*
D03*
Y6985D02*
D03*
Y5588D02*
D03*
Y4318D02*
D03*
X-31623Y8255D02*
D03*
Y6985D02*
D03*
Y5588D02*
D03*
Y4318D02*
D03*
X-32893D02*
D03*
Y5588D02*
D03*
Y6985D02*
D03*
Y8255D02*
D03*
X-31242Y1397D02*
D03*
X-34290Y-1270D02*
D03*
X-4279Y-3549D02*
D03*
X-3166Y-1687D02*
D03*
X14986Y762D02*
D03*
X14097Y1524D02*
D03*
D52*
X33441Y-33372D02*
D03*
X9779Y11430D02*
D03*
X9144Y12827D02*
D03*
X12508Y8636D02*
D03*
X11833Y9547D02*
D03*
X-8255Y-5207D02*
D03*
X-12827Y5969D02*
D03*
X12446Y36449D02*
D03*
X16637Y18415D02*
D03*
X21590D02*
D03*
X-4318Y7112D02*
D03*
D53*
X1651Y12573D02*
D03*
D54*
X-4953Y17526D02*
D03*
X635Y19050D02*
D03*
Y20066D02*
D03*
D56*
X16383Y6223D02*
D03*
X17526Y6350D02*
D03*
X-17153Y6220D02*
D03*
X-18550D02*
D03*
X4318Y-1016D02*
D03*
X-2164Y-9988D02*
D03*
D62*
X-32385Y-36400D02*
D03*
Y39150D02*
D03*
X31864D02*
D03*
X31623Y-30861D02*
D03*
D63*
X-22547Y13178D02*
D03*
X-32547D02*
D03*
X22055Y13208D02*
D03*
X32055D02*
D03*
D64*
X4953Y35179D02*
D03*
X2453D02*
D03*
X-47D02*
D03*
X-2547D02*
D03*
X-5047D02*
D03*
X-7547D02*
D03*
X-10047Y32179D02*
D03*
X-7547D02*
D03*
X-5047D02*
D03*
X-2547D02*
D03*
X-47D02*
D03*
X2453D02*
D03*
X4953D02*
D03*
X7453D02*
D03*
X9953D02*
D03*
X-10047Y35179D02*
D03*
X7453D02*
D03*
X9953D02*
D03*
D66*
X-31179Y23485D02*
D03*
X-8679D02*
D03*
X30717D02*
D03*
X8217D02*
D03*
D69*
X-16399Y17018D02*
D03*
X13462Y5207D02*
D03*
X-16399Y28194D02*
D03*
X-17923D02*
D03*
X14986Y5207D02*
D03*
X-17923Y17018D02*
D03*
D70*
X-635Y7531D02*
D03*
Y6731D02*
D03*
D71*
X19431Y9017D02*
D03*
Y7493D02*
D03*
M02*
