G04*
G04 #@! TF.GenerationSoftware,Altium Limited,Altium Designer,26.9.1 (10)*
G04*
G04 Layer_Color=8421504*
G04 Board_Origin=38150000|32450000*
%FSLAX43Y43*%
%MOMM*%
G71*
G04*
G04 #@! TF.SameCoordinates,ABF88EB3-4507-415C-8808-D951A2BA1AED*
G04*
G04*
G04 #@! TF.FilePolarity,Positive*
G04*
G01*
G75*
%ADD17C,2.000*%
%ADD18R,0.600X0.700*%
%ADD19R,0.950X1.000*%
%ADD20R,1.000X0.950*%
%ADD21R,1.000X1.250*%
%ADD22R,1.250X1.000*%
%ADD23R,2.920X1.520*%
G04:AMPARAMS|DCode=24|XSize=1.47mm|YSize=0.28mm|CornerRadius=0.035mm|HoleSize=0mm|Usage=FLASHONLY|Rotation=180.000|XOffset=0mm|YOffset=0mm|HoleType=Round|Shape=RoundedRectangle|*
%AMROUNDEDRECTD24*
21,1,1.470,0.210,0,0,180.0*
21,1,1.400,0.280,0,0,180.0*
1,1,0.070,-0.700,0.105*
1,1,0.070,0.700,0.105*
1,1,0.070,0.700,-0.105*
1,1,0.070,-0.700,-0.105*
%
%ADD24ROUNDEDRECTD24*%
%ADD25R,1.200X2.800*%
G04:AMPARAMS|DCode=26|XSize=2.74mm|YSize=0.98mm|CornerRadius=0.123mm|HoleSize=0mm|Usage=FLASHONLY|Rotation=0.000|XOffset=0mm|YOffset=0mm|HoleType=Round|Shape=RoundedRectangle|*
%AMROUNDEDRECTD26*
21,1,2.740,0.735,0,0,0.0*
21,1,2.495,0.980,0,0,0.0*
1,1,0.245,1.248,-0.368*
1,1,0.245,-1.248,-0.368*
1,1,0.245,-1.248,0.368*
1,1,0.245,1.248,0.368*
%
%ADD26ROUNDEDRECTD26*%
%ADD27R,2.280X2.120*%
%ADD28R,2.200X1.520*%
%ADD29R,2.000X4.000*%
%ADD30R,0.800X0.500*%
%ADD31R,0.700X0.700*%
%ADD32C,1.000*%
%ADD33R,1.050X1.000*%
%ADD34R,1.400X1.200*%
G36*
X-12694Y-34155D02*
Y-32395D01*
X-10814D01*
Y-34155D01*
X-12694D01*
D02*
G37*
G36*
Y-31335D02*
Y-29575D01*
X-10814D01*
Y-31335D01*
X-12694D01*
D02*
G37*
G36*
X-9754Y-34155D02*
Y-32395D01*
X-7874D01*
Y-34155D01*
X-9754D01*
D02*
G37*
G36*
Y-31335D02*
Y-29575D01*
X-7874D01*
Y-31335D01*
X-9754D01*
D02*
G37*
G36*
X-31334Y5715D02*
Y3955D01*
X-33214D01*
Y5715D01*
X-31334D01*
D02*
G37*
G36*
Y8535D02*
Y6775D01*
X-33214D01*
Y8535D01*
X-31334D01*
D02*
G37*
G36*
X-28394Y5715D02*
Y3955D01*
X-30274D01*
Y5715D01*
X-28394D01*
D02*
G37*
G36*
Y8535D02*
Y6775D01*
X-30274D01*
Y8535D01*
X-28394D01*
D02*
G37*
G36*
X9092Y-33642D02*
Y-35402D01*
X7212D01*
Y-33642D01*
X9092D01*
D02*
G37*
G36*
Y-30822D02*
Y-32582D01*
X7212D01*
Y-30822D01*
X9092D01*
D02*
G37*
G36*
X12032Y-33642D02*
Y-35402D01*
X10152D01*
Y-33642D01*
X12032D01*
D02*
G37*
G36*
Y-30822D02*
Y-32582D01*
X10152D01*
Y-30822D01*
X12032D01*
D02*
G37*
G36*
X28051Y3830D02*
Y5590D01*
X29931D01*
Y3830D01*
X28051D01*
D02*
G37*
G36*
Y6650D02*
Y8410D01*
X29931D01*
Y6650D01*
X28051D01*
D02*
G37*
G36*
X30991Y3830D02*
Y5590D01*
X32871D01*
Y3830D01*
X30991D01*
D02*
G37*
G36*
Y6650D02*
Y8410D01*
X32871D01*
Y6650D01*
X30991D01*
D02*
G37*
D17*
X-30179Y23485D02*
G03*
X-30179Y23485I-1000J0D01*
G01*
X31717D02*
G03*
X31717Y23485I-1000J0D01*
G01*
D18*
X-10982Y99D02*
D03*
X-9966D02*
D03*
X6680Y4097D02*
D03*
X5664D02*
D03*
D19*
X5643Y-1481D02*
D03*
X7205D02*
D03*
X-29477Y-30468D02*
D03*
X-27915D02*
D03*
X-29440Y-29024D02*
D03*
X-27878D02*
D03*
X-24888Y-36176D02*
D03*
X-23326D02*
D03*
X-26265Y-33679D02*
D03*
X-27827D02*
D03*
X-19798Y-29525D02*
D03*
X-21360D02*
D03*
X27784Y-32693D02*
D03*
X29346D02*
D03*
X19729Y-37509D02*
D03*
X21291D02*
D03*
X20019Y-38893D02*
D03*
X21581D02*
D03*
X19076Y-35301D02*
D03*
X20638D02*
D03*
X28539Y-34625D02*
D03*
X26977D02*
D03*
X-23296Y-34767D02*
D03*
X-24858D02*
D03*
X-19520Y3048D02*
D03*
X-21120D02*
D03*
X-19520Y4572D02*
D03*
X-21120D02*
D03*
X19012Y9144D02*
D03*
X20612D02*
D03*
X19012Y7620D02*
D03*
X20612D02*
D03*
D20*
X3956Y-7725D02*
D03*
Y-6163D02*
D03*
X27470Y-29952D02*
D03*
Y-31514D02*
D03*
X-30746Y-30514D02*
D03*
Y-28952D02*
D03*
X-25739Y-29419D02*
D03*
Y-30981D02*
D03*
X22751Y-38226D02*
D03*
Y-36664D02*
D03*
X25635Y-36720D02*
D03*
Y-38282D02*
D03*
X2404Y-12911D02*
D03*
X1016Y-12865D02*
D03*
X16129Y5499D02*
D03*
Y3899D02*
D03*
X-18409Y6969D02*
D03*
Y8569D02*
D03*
X-17012Y6969D02*
D03*
Y8569D02*
D03*
X17399Y5499D02*
D03*
Y3899D02*
D03*
X-19812Y6947D02*
D03*
Y8547D02*
D03*
X14732Y5499D02*
D03*
Y3899D02*
D03*
X1016Y-11265D02*
D03*
X2404Y-11311D02*
D03*
D21*
X-24102Y-37923D02*
D03*
X-26102D02*
D03*
X-26115Y-36285D02*
D03*
X-28115D02*
D03*
X-30892Y-32385D02*
D03*
X-32892D02*
D03*
D22*
X-29462Y-34396D02*
D03*
Y-32396D02*
D03*
X27077Y-38255D02*
D03*
Y-36255D02*
D03*
X28743Y-36258D02*
D03*
Y-38258D02*
D03*
X30710Y-38231D02*
D03*
Y-36231D02*
D03*
X32340Y-36196D02*
D03*
Y-34196D02*
D03*
D23*
X-31650Y-9444D02*
D03*
Y-13194D02*
D03*
Y-16944D02*
D03*
Y-20694D02*
D03*
Y-24444D02*
D03*
X-8990Y-9444D02*
D03*
Y-13194D02*
D03*
Y-16944D02*
D03*
Y-20694D02*
D03*
Y-24444D02*
D03*
X7974Y-9518D02*
D03*
Y-17018D02*
D03*
Y-20768D02*
D03*
Y-24518D02*
D03*
X30634Y-9518D02*
D03*
Y-13268D02*
D03*
Y-17018D02*
D03*
Y-20768D02*
D03*
Y-24518D02*
D03*
D24*
X-24449Y-33825D02*
D03*
Y-33325D02*
D03*
Y-32825D02*
D03*
Y-32325D02*
D03*
Y-31825D02*
D03*
X-20149D02*
D03*
Y-32325D02*
D03*
Y-32825D02*
D03*
Y-33325D02*
D03*
Y-33825D02*
D03*
X25516Y-32234D02*
D03*
Y-32734D02*
D03*
Y-33234D02*
D03*
Y-33734D02*
D03*
Y-34234D02*
D03*
X21216D02*
D03*
Y-33734D02*
D03*
Y-33234D02*
D03*
Y-32734D02*
D03*
Y-32234D02*
D03*
D25*
X-22039Y-36700D02*
D03*
X-17039D02*
D03*
X24016Y-29952D02*
D03*
X19016D02*
D03*
D26*
X-17084Y-34151D02*
D03*
Y-29579D02*
D03*
X16422Y-30826D02*
D03*
Y-35398D02*
D03*
X-24004Y8531D02*
D03*
Y3959D02*
D03*
X23661Y3834D02*
D03*
Y8406D02*
D03*
D27*
X-32149Y-597D02*
D03*
X-27819D02*
D03*
X29979Y-381D02*
D03*
X25649D02*
D03*
D28*
X7600Y-13268D02*
D03*
D29*
X-24960Y39635D02*
D03*
X23994D02*
D03*
Y32535D02*
D03*
X-24960D02*
D03*
D30*
X-15437Y5395D02*
D03*
Y4445D02*
D03*
Y3495D02*
D03*
X-17837D02*
D03*
Y4445D02*
D03*
Y5395D02*
D03*
X14421Y6924D02*
D03*
Y7874D02*
D03*
Y8824D02*
D03*
X16821D02*
D03*
Y7874D02*
D03*
Y6924D02*
D03*
D31*
X14614Y2667D02*
D03*
X16764D02*
D03*
X-19151Y9796D02*
D03*
X-17001D02*
D03*
D32*
X-23749Y2159D02*
D03*
X31369Y32131D02*
D03*
X-1143Y-15748D02*
D03*
X32645Y-374D02*
D03*
X-4899Y-27296D02*
D03*
X19304Y4191D02*
D03*
X-34925Y508D02*
D03*
D33*
X-2298Y-12319D02*
D03*
X-3798D02*
D03*
D34*
X3996Y-3178D02*
D03*
X6196D02*
D03*
Y-4778D02*
D03*
X3996D02*
D03*
M02*
