G04*
G04 #@! TF.GenerationSoftware,Altium Limited,Altium Designer,26.9.1 (10)*
G04*
G04 Layer_Color=8388736*
G04 Board_Origin=38150000|32450000*
%FSLAX43Y43*%
%MOMM*%
G71*
G04*
G04 #@! TF.SameCoordinates,ABF88EB3-4507-415C-8808-D951A2BA1AED*
G04*
G04*
G04 #@! TF.FilePolarity,Negative*
G04*
G01*
G75*
%ADD17C,2.000*%
G04:AMPARAMS|DCode=26|XSize=2.74mm|YSize=0.98mm|CornerRadius=0.123mm|HoleSize=0mm|Usage=FLASHONLY|Rotation=0.000|XOffset=0mm|YOffset=0mm|HoleType=Round|Shape=RoundedRectangle|*
%AMROUNDEDRECTD26*
21,1,2.740,0.735,0,0,0.0*
21,1,2.495,0.980,0,0,0.0*
1,1,0.245,1.248,-0.368*
1,1,0.245,-1.248,-0.368*
1,1,0.245,-1.248,0.368*
1,1,0.245,1.248,0.368*
%
%ADD26ROUNDEDRECTD26*%
%ADD27R,2.280X2.120*%
%ADD29R,2.000X4.000*%
%ADD30R,0.800X0.500*%
%ADD32C,1.000*%
%ADD33R,1.050X1.000*%
%ADD34R,1.400X1.200*%
%ADD35R,0.700X0.800*%
%ADD36R,1.050X1.100*%
%ADD37R,1.100X1.050*%
%ADD38R,1.100X1.350*%
%ADD39R,1.350X1.100*%
%ADD40R,3.124X1.724*%
G04:AMPARAMS|DCode=41|XSize=1.674mm|YSize=0.484mm|CornerRadius=0.137mm|HoleSize=0mm|Usage=FLASHONLY|Rotation=180.000|XOffset=0mm|YOffset=0mm|HoleType=Round|Shape=RoundedRectangle|*
%AMROUNDEDRECTD41*
21,1,1.674,0.210,0,0,180.0*
21,1,1.400,0.484,0,0,180.0*
1,1,0.274,-0.700,0.105*
1,1,0.274,0.700,0.105*
1,1,0.274,0.700,-0.105*
1,1,0.274,-0.700,-0.105*
%
%ADD41ROUNDEDRECTD41*%
%ADD42R,1.300X2.900*%
G04:AMPARAMS|DCode=43|XSize=5.86mm|YSize=5.63mm|CornerRadius=0.281mm|HoleSize=0mm|Usage=FLASHONLY|Rotation=0.000|XOffset=0mm|YOffset=0mm|HoleType=Round|Shape=RoundedRectangle|*
%AMROUNDEDRECTD43*
21,1,5.860,5.067,0,0,0.0*
21,1,5.297,5.630,0,0,0.0*
1,1,0.563,2.649,-2.534*
1,1,0.563,-2.649,-2.534*
1,1,0.563,-2.649,2.534*
1,1,0.563,2.649,2.534*
%
%ADD43ROUNDEDRECTD43*%
%ADD44R,2.404X1.724*%
%ADD45R,0.904X0.904*%
%ADD46R,0.210X0.110*%
%ADD47C,1.612*%
%ADD48C,2.004*%
%ADD49R,2.004X2.004*%
%ADD50C,3.250*%
%ADD51C,0.600*%
%ADD52C,0.800*%
%ADD53C,0.550*%
%ADD54C,0.450*%
%ADD55C,0.803*%
%ADD56C,0.500*%
G36*
X-11320Y35249D02*
X-11320Y35249D01*
X-11319Y35248D01*
X-11317Y35248D01*
X-11317Y35248D01*
X-11317Y35248D01*
X-11317Y35248D01*
X-11316Y35248D01*
X-11315Y35247D01*
X-11314Y35246D01*
X-11314Y35246D01*
X-11314Y35246D01*
X-11313Y35245D01*
X-11313Y35245D01*
X-11312Y35244D01*
X-11311Y35243D01*
X-11311Y35242D01*
X-11311Y35242D01*
X-11311Y35242D01*
X-11311Y35242D01*
X-11167Y34803D01*
X-10925Y34472D01*
X-10924Y34470D01*
X-10924Y34469D01*
X-10924Y34469D01*
X-10923Y34468D01*
X-10923Y34467D01*
X-10923Y34465D01*
X-10923Y34465D01*
X-10923Y34464D01*
X-10924Y34463D01*
X-10924Y34461D01*
X-10924Y34461D01*
X-10925Y34460D01*
X-10926Y34459D01*
X-10926Y34458D01*
X-10927Y34458D01*
X-10927Y34457D01*
X-10929Y34457D01*
X-10930Y34456D01*
X-10930Y34456D01*
X-10931Y34456D01*
X-10932Y34456D01*
X-10934Y34455D01*
X-11087Y34462D01*
X-11391Y34425D01*
X-11679Y34321D01*
X-11936Y34157D01*
X-12151Y33939D01*
X-12312Y33679D01*
X-12412Y33390D01*
X-12445Y33085D01*
X-12436Y32932D01*
X-12436Y32932D01*
X-12436Y32931D01*
Y32931D01*
X-12436Y32931D01*
X-12436Y32931D01*
Y22860D01*
X-12424Y22612D01*
X-12327Y22126D01*
X-12137Y21667D01*
X-11862Y21255D01*
X-11511Y20904D01*
X-11099Y20629D01*
X-10640Y20439D01*
X-10154Y20342D01*
X-9906Y20330D01*
X-8001D01*
X-7753Y20342D01*
X-7267Y20439D01*
X-6808Y20629D01*
X-6396Y20904D01*
X-6045Y21255D01*
X-5770Y21667D01*
X-5580Y22126D01*
X-5483Y22612D01*
X-5471Y22860D01*
X-5471Y26888D01*
X-5483Y27136D01*
X-5580Y27622D01*
X-5770Y28080D01*
X-6046Y28493D01*
X-6213Y28677D01*
X-6213Y28677D01*
X-6992Y29456D01*
X-7095Y29537D01*
X-7096Y29537D01*
X-7097Y29538D01*
X-7270Y29737D01*
X-7270Y29738D01*
X-7271Y29739D01*
X-7402Y29967D01*
X-7402Y29968D01*
X-7402Y29969D01*
X-7486Y30219D01*
X-7486Y30220D01*
X-7487Y30221D01*
X-7503Y30352D01*
X-7503Y30352D01*
X-7503Y30353D01*
X-7503Y30353D01*
X-7503Y30480D01*
X-7503Y30482D01*
X-7503Y30483D01*
X-7482Y30539D01*
X-7482Y30540D01*
X-7481Y30541D01*
X-7413Y30638D01*
X-7412Y30638D01*
X-7411Y30640D01*
X-7321Y30715D01*
X-7320Y30715D01*
X-7319Y30716D01*
X-7211Y30765D01*
X-7210Y30766D01*
X-7209Y30766D01*
X-7093Y30785D01*
X-7091Y30785D01*
X-7090Y30786D01*
X-6973Y30774D01*
X-6971Y30774D01*
X-6970Y30773D01*
X-6860Y30731D01*
X-6859Y30731D01*
X-6858Y30730D01*
X-6762Y30661D01*
X-6761Y30660D01*
X-6760Y30659D01*
X-6723Y30614D01*
X-6723Y30614D01*
X-6723Y30614D01*
X-6723Y30613D01*
X-6723Y30612D01*
X-6722Y30612D01*
X-6595Y30358D01*
X-6595Y30356D01*
X-6594Y30355D01*
X-6582Y30303D01*
X-6542Y30202D01*
X-6484Y30112D01*
X-6409Y30035D01*
X-6366Y30002D01*
X-6365Y30001D01*
X-6365Y30001D01*
X-5309Y28945D01*
X-5309Y28945D01*
X-5132Y28768D01*
X-5131Y28767D01*
X-5131Y28767D01*
X-4852Y28351D01*
X-4852Y28350D01*
X-4852Y28349D01*
X-4660Y27887D01*
X-4660Y27886D01*
X-4660Y27885D01*
X-4562Y27394D01*
Y27393D01*
X-4562Y27392D01*
X-4562Y27142D01*
X-4562Y27142D01*
X-4562Y22867D01*
X-4562Y22642D01*
X-4562Y22641D01*
X-4562Y22641D01*
X-4621Y22194D01*
X-4621Y22193D01*
X-4621Y22193D01*
X-4737Y21758D01*
X-4738Y21757D01*
X-4738Y21756D01*
X-4910Y21340D01*
X-4911Y21340D01*
X-4911Y21339D01*
X-5136Y20949D01*
X-5136Y20948D01*
X-5137Y20948D01*
X-5411Y20590D01*
X-5412Y20590D01*
X-5412Y20589D01*
X-5730Y20271D01*
X-5731Y20271D01*
X-5731Y20270D01*
X-6089Y19996D01*
X-6089Y19995D01*
X-6090Y19995D01*
X-6480Y19770D01*
X-6481Y19770D01*
X-6481Y19769D01*
X-6897Y19597D01*
X-6898Y19597D01*
X-6899Y19596D01*
X-7334Y19480D01*
X-7334Y19480D01*
X-7335Y19480D01*
X-7782Y19421D01*
X-7782Y19421D01*
X-7783Y19421D01*
X-8008Y19421D01*
D01*
X-10795Y19421D01*
X-11045Y19421D01*
X-11046Y19421D01*
X-11047D01*
X-11538Y19519D01*
X-11539Y19519D01*
X-11540Y19519D01*
X-12002Y19711D01*
X-12003Y19711D01*
X-12004Y19712D01*
X-12420Y19990D01*
X-12421Y19990D01*
X-12421Y19991D01*
X-12775Y20345D01*
X-12776Y20345D01*
X-12776Y20346D01*
X-13054Y20762D01*
X-13055Y20763D01*
X-13055Y20764D01*
X-13247Y21226D01*
X-13247Y21227D01*
X-13247Y21228D01*
X-13345Y21719D01*
Y21720D01*
X-13345Y21721D01*
X-13345Y21971D01*
Y21971D01*
X-13345Y33150D01*
X-13349Y33352D01*
X-13349Y33353D01*
X-13349Y33354D01*
X-13277Y33751D01*
X-13277Y33752D01*
X-13277Y33753D01*
X-13129Y34129D01*
X-13128Y34130D01*
X-13128Y34131D01*
X-12909Y34471D01*
X-12909Y34472D01*
X-12908Y34473D01*
X-12628Y34764D01*
X-12627Y34764D01*
X-12626Y34765D01*
X-12294Y34996D01*
X-12293Y34996D01*
X-12292Y34997D01*
X-11922Y35158D01*
X-11921Y35158D01*
X-11920Y35159D01*
X-11525Y35245D01*
X-11524Y35245D01*
X-11523Y35245D01*
X-11321Y35249D01*
X-11321Y35249D01*
X-11321Y35249D01*
X-11320Y35249D01*
D02*
G37*
G36*
X11495Y35217D02*
X11497Y35217D01*
X11497Y35217D01*
X11497Y35217D01*
X11498Y35217D01*
X11498Y35217D01*
X11673Y35160D01*
X11674Y35160D01*
X11675Y35160D01*
X12004Y34993D01*
X12004Y34993D01*
X12005Y34992D01*
X12304Y34776D01*
X12304Y34776D01*
X12305Y34775D01*
X12566Y34515D01*
X12567Y34515D01*
X12567Y34514D01*
X12784Y34216D01*
X12785Y34215D01*
X12785Y34215D01*
X12953Y33887D01*
X12953Y33886D01*
X12954Y33885D01*
X13068Y33535D01*
X13068Y33534D01*
X13068Y33533D01*
X13126Y33169D01*
X13126Y33168D01*
X13126Y33167D01*
X13126Y32983D01*
X13126Y22008D01*
Y21758D01*
X13126Y21757D01*
Y21756D01*
X13028Y21265D01*
X13028Y21264D01*
X13028Y21263D01*
X12836Y20801D01*
X12836Y20800D01*
X12835Y20799D01*
X12557Y20383D01*
X12557Y20383D01*
X12556Y20382D01*
X12202Y20028D01*
X12201Y20028D01*
X12201Y20027D01*
X11785Y19749D01*
X11784Y19749D01*
X11783Y19748D01*
X11321Y19556D01*
X11320Y19556D01*
X11319Y19556D01*
X10828Y19458D01*
X10827D01*
X10826Y19458D01*
X7576D01*
X7575Y19458D01*
X7574Y19458D01*
X7348Y19488D01*
X7347Y19488D01*
X7346Y19488D01*
X6904Y19607D01*
X6904Y19607D01*
X6903Y19607D01*
X6480Y19783D01*
X6480Y19783D01*
X6479Y19783D01*
X6083Y20012D01*
X6083Y20012D01*
X6082Y20013D01*
X5719Y20291D01*
X5719Y20292D01*
X5718Y20292D01*
X5395Y20616D01*
X5394Y20616D01*
X5394Y20617D01*
X5115Y20980D01*
X5115Y20980D01*
X5115Y20981D01*
X4886Y21377D01*
X4886Y21378D01*
X4885Y21378D01*
X4710Y21801D01*
X4710Y21802D01*
X4710Y21802D01*
X4592Y22244D01*
X4592Y22245D01*
X4591Y22246D01*
X4532Y22699D01*
X4532Y22700D01*
X4532Y22701D01*
X4532Y23158D01*
X4532Y23159D01*
X4532Y23160D01*
X4562Y23386D01*
X4562Y27050D01*
X4529Y27304D01*
X4530Y27305D01*
X4529Y27306D01*
X4565Y27818D01*
X4566Y27819D01*
X4566Y27820D01*
X4701Y28316D01*
X4701Y28317D01*
X4701Y28317D01*
X4930Y28777D01*
X4931Y28778D01*
X4932Y28779D01*
X5089Y28981D01*
X5089Y28982D01*
X5090Y28982D01*
X6145Y30038D01*
D01*
X6225Y30127D01*
X6358Y30325D01*
X6449Y30545D01*
X6496Y30779D01*
X6502Y30899D01*
X6502Y31605D01*
X6502Y31609D01*
X6505Y31613D01*
X6508Y31615D01*
X6512Y31616D01*
X6516Y31615D01*
X6519Y31613D01*
X6822Y31310D01*
X6822Y31310D01*
X6869Y31262D01*
X6980Y31184D01*
X7105Y31132D01*
X7238Y31110D01*
X7306Y31111D01*
X7308Y31110D01*
X7309Y31110D01*
X7310Y31110D01*
X7310Y31110D01*
X7311Y31109D01*
X7313Y31108D01*
X7313Y31108D01*
X7313Y31108D01*
X7314Y31106D01*
X7315Y31105D01*
X7315Y31105D01*
X7315Y31104D01*
X7316Y31103D01*
X7316Y31101D01*
X7333Y30848D01*
X7333Y30847D01*
X7333Y30847D01*
X7333Y30659D01*
X7333Y30658D01*
Y30657D01*
X7260Y30290D01*
X7260Y30289D01*
X7259Y30288D01*
X7116Y29942D01*
X7115Y29941D01*
X7115Y29940D01*
X6907Y29628D01*
X6906Y29627D01*
X6906Y29627D01*
X6773Y29494D01*
X6773Y29494D01*
X5993Y28714D01*
X5826Y28530D01*
X5551Y28118D01*
X5361Y27660D01*
X5264Y27173D01*
X5252Y26925D01*
Y22897D01*
X5264Y22650D01*
X5361Y22163D01*
X5551Y21705D01*
X5826Y21292D01*
X6177Y20942D01*
X6589Y20666D01*
X7047Y20476D01*
X7534Y20380D01*
X7782Y20367D01*
X9687D01*
X9934Y20380D01*
X10421Y20476D01*
X10879Y20666D01*
X11292Y20942D01*
X11642Y21292D01*
X11918Y21705D01*
X12108Y22163D01*
X12204Y22650D01*
X12217Y22898D01*
X12217Y33130D01*
X12217Y33130D01*
X12217Y33131D01*
X12217Y33132D01*
X12230Y33244D01*
X12224Y33470D01*
X12173Y33690D01*
X12081Y33896D01*
X11950Y34080D01*
X11786Y34235D01*
X11595Y34355D01*
X11403Y34429D01*
X11401Y34428D01*
X11398Y34426D01*
X11394Y34427D01*
X11273Y34460D01*
X11273Y34460D01*
X11233Y34471D01*
X11233Y34471D01*
X11233Y34471D01*
X11232Y34472D01*
X11232Y34472D01*
X11231Y34473D01*
X11230Y34473D01*
X11230Y34473D01*
X11230Y34473D01*
X11229Y34474D01*
X11229Y34474D01*
X11228Y34475D01*
X11227Y34476D01*
X11227Y34476D01*
X11227Y34477D01*
X11227Y34477D01*
X11227Y34478D01*
X11192Y34577D01*
X11191Y34579D01*
X11191Y34580D01*
X11191Y34791D01*
X11192Y34793D01*
X11192Y34794D01*
X11262Y34992D01*
X11263Y34994D01*
X11264Y34995D01*
X11397Y35159D01*
X11398Y35160D01*
X11400Y35161D01*
X11490Y35216D01*
X11490Y35216D01*
X11490Y35216D01*
X11491Y35216D01*
X11493Y35217D01*
X11493Y35217D01*
X11493Y35217D01*
X11494Y35217D01*
X11494Y35217D01*
X11495Y35217D01*
D02*
G37*
G36*
X13570Y-3785D02*
X13573Y-3787D01*
X13575Y-3790D01*
X13576Y-3794D01*
Y-10104D01*
X13576Y-10104D01*
X13576Y-10105D01*
X13576Y-10106D01*
X13575Y-10108D01*
X13575Y-10108D01*
X13575Y-10108D01*
X13574Y-10110D01*
X13573Y-10111D01*
X13573Y-10111D01*
X13573Y-10112D01*
X10979Y-12372D01*
X10978Y-12373D01*
X10977Y-12374D01*
X10976Y-12374D01*
X10976Y-12374D01*
X10974Y-12374D01*
X10973Y-12375D01*
X5807D01*
X2400Y-15018D01*
Y-21574D01*
X2399Y-21578D01*
X2397Y-21581D01*
X2270Y-21708D01*
X2270Y-21708D01*
X2267Y-21710D01*
X2263Y-21711D01*
X2259Y-21710D01*
X2256Y-21708D01*
X2129Y-21581D01*
X2127Y-21578D01*
X2126Y-21574D01*
X2126Y-14970D01*
X2126Y-14969D01*
X2126Y-14969D01*
X2126Y-14968D01*
X2127Y-14966D01*
X2127Y-14966D01*
X2127Y-14965D01*
X2128Y-14964D01*
X2129Y-14963D01*
X2129Y-14963D01*
X2130Y-14962D01*
X3542Y-13804D01*
X3542Y-13804D01*
X3542Y-13804D01*
X5729Y-12080D01*
X5730Y-12080D01*
X5732Y-12079D01*
X5732Y-12079D01*
X5733Y-12079D01*
X5734Y-12078D01*
X5735Y-12078D01*
X10916D01*
X13302Y-10021D01*
Y-3794D01*
X13303Y-3790D01*
X13305Y-3787D01*
X13308Y-3785D01*
X13312Y-3784D01*
X13566D01*
X13570Y-3785D01*
D02*
G37*
G36*
X-13458D02*
X-13455Y-3787D01*
X-13453Y-3790D01*
X-13452Y-3794D01*
Y-11580D01*
X-10580Y-14452D01*
X-3556D01*
X-3552Y-14453D01*
X-3549Y-14455D01*
X-2279Y-15725D01*
X-2277Y-15728D01*
X-2276Y-15732D01*
Y-21574D01*
X-2277Y-21578D01*
X-2279Y-21581D01*
X-2406Y-21708D01*
X-2409Y-21710D01*
X-2413Y-21711D01*
X-2417Y-21710D01*
X-2420Y-21708D01*
X-2420Y-21708D01*
X-2547Y-21581D01*
X-2549Y-21578D01*
X-2550Y-21574D01*
Y-15863D01*
X-3687Y-14726D01*
X-6989D01*
X-6993Y-14725D01*
X-6993Y-14725D01*
X-6994Y-14725D01*
X-6998Y-14726D01*
X-10778D01*
X-10782Y-14725D01*
X-10785Y-14723D01*
X-13723Y-11785D01*
X-13725Y-11782D01*
X-13726Y-11778D01*
Y-3794D01*
X-13725Y-3790D01*
X-13723Y-3787D01*
X-13720Y-3785D01*
X-13716Y-3784D01*
X-13462D01*
X-13458Y-3785D01*
D02*
G37*
G36*
X-2282Y-22454D02*
X-2279Y-22456D01*
X-2277Y-22459D01*
X-2276Y-22463D01*
Y-39162D01*
X-2277Y-39166D01*
X-2279Y-39170D01*
X-2282Y-39172D01*
X-2286Y-39173D01*
X-2540D01*
X-2544Y-39172D01*
X-2547Y-39170D01*
X-2549Y-39166D01*
X-2550Y-39162D01*
Y-22463D01*
X-2549Y-22459D01*
X-2547Y-22456D01*
X-2544Y-22454D01*
X-2540Y-22453D01*
X-2286D01*
X-2282Y-22454D01*
D02*
G37*
G36*
X2392D02*
X2395Y-22456D01*
X2397Y-22459D01*
X2398Y-22463D01*
Y-39168D01*
X2397Y-39172D01*
X2395Y-39176D01*
X2392Y-39178D01*
X2388Y-39179D01*
X2134D01*
X2130Y-39178D01*
X2127Y-39176D01*
X2125Y-39172D01*
X2124Y-39168D01*
Y-22463D01*
X2125Y-22459D01*
X2127Y-22456D01*
X2130Y-22454D01*
X2134Y-22453D01*
X2388D01*
X2392Y-22454D01*
D02*
G37*
D17*
X-30179Y23485D02*
G03*
X-30179Y23485I-1000J0D01*
G01*
X-7679D02*
G03*
X-7679Y23485I-1000J0D01*
G01*
X31717D02*
G03*
X31717Y23485I-1000J0D01*
G01*
X9217D02*
G03*
X9217Y23485I-1000J0D01*
G01*
D26*
X-17084Y-34151D02*
D03*
Y-29579D02*
D03*
X16422Y-30826D02*
D03*
Y-35398D02*
D03*
X-24004Y8531D02*
D03*
Y3959D02*
D03*
X23661Y3834D02*
D03*
Y8406D02*
D03*
D27*
X-32149Y-597D02*
D03*
X-27819D02*
D03*
X29979Y-381D02*
D03*
X25649D02*
D03*
D29*
X-24960Y39635D02*
D03*
X23994D02*
D03*
Y32535D02*
D03*
X-24960D02*
D03*
D30*
X-15437Y5395D02*
D03*
Y4445D02*
D03*
Y3495D02*
D03*
X-17837D02*
D03*
Y4445D02*
D03*
Y5395D02*
D03*
X14421Y6924D02*
D03*
Y7874D02*
D03*
Y8824D02*
D03*
X16821D02*
D03*
Y7874D02*
D03*
Y6924D02*
D03*
D32*
X-23749Y2159D02*
D03*
X31369Y32131D02*
D03*
X-1143Y-15748D02*
D03*
X32645Y-374D02*
D03*
X-4899Y-27296D02*
D03*
X19304Y4191D02*
D03*
X-34925Y508D02*
D03*
X-33382Y-19839D02*
D03*
X-33511Y-25540D02*
D03*
X-33272Y-22595D02*
D03*
X26230Y-30068D02*
D03*
X25315Y-30867D02*
D03*
X25268Y-29270D02*
D03*
X-28450Y-21018D02*
D03*
Y-24066D02*
D03*
X-29457Y-25218D02*
D03*
X-29540Y-20211D02*
D03*
X-28217Y-22631D02*
D03*
X-29659Y-22643D02*
D03*
X-31317Y-22655D02*
D03*
X32289Y-22503D02*
D03*
X30333Y-22563D02*
D03*
X28676Y-22551D02*
D03*
X27233Y-22539D02*
D03*
X32575Y-19749D02*
D03*
X32527Y-25448D02*
D03*
X28557Y-20118D02*
D03*
X28473Y-25126D02*
D03*
X27466Y-23974D02*
D03*
Y-20926D02*
D03*
X-18669Y12700D02*
D03*
Y15367D02*
D03*
X-16017Y19487D02*
D03*
X-23495Y38989D02*
D03*
Y40513D02*
D03*
X-26416Y39243D02*
D03*
Y40513D02*
D03*
X25527Y39624D02*
D03*
Y41148D02*
D03*
X22606D02*
D03*
Y39878D02*
D03*
X25654Y26543D02*
D03*
X25781Y21971D02*
D03*
X26289Y24257D02*
D03*
X21844Y26416D02*
D03*
X19033Y35481D02*
D03*
X20908Y34174D02*
D03*
X19776Y32192D02*
D03*
X20320Y23368D02*
D03*
X18669D02*
D03*
X17145D02*
D03*
X20320Y25400D02*
D03*
X18669D02*
D03*
X17145D02*
D03*
Y27432D02*
D03*
X18669D02*
D03*
X20320D02*
D03*
X-22479Y24765D02*
D03*
Y26162D02*
D03*
X-24003D02*
D03*
X-24048Y24745D02*
D03*
D33*
X-2298Y-12319D02*
D03*
X-3798D02*
D03*
D34*
X3996Y-3178D02*
D03*
X6196D02*
D03*
Y-4778D02*
D03*
X3996D02*
D03*
D35*
X-10982Y99D02*
D03*
X-9966D02*
D03*
X6680Y4097D02*
D03*
X5664D02*
D03*
D36*
X5643Y-1481D02*
D03*
X7205D02*
D03*
X-29477Y-30468D02*
D03*
X-27915D02*
D03*
X-29440Y-29024D02*
D03*
X-27878D02*
D03*
X-24888Y-36176D02*
D03*
X-23326D02*
D03*
X-26265Y-33679D02*
D03*
X-27827D02*
D03*
X-19798Y-29525D02*
D03*
X-21360D02*
D03*
X27784Y-32693D02*
D03*
X29346D02*
D03*
X19729Y-37509D02*
D03*
X21291D02*
D03*
X20019Y-38893D02*
D03*
X21581D02*
D03*
X19076Y-35301D02*
D03*
X20638D02*
D03*
X28539Y-34625D02*
D03*
X26977D02*
D03*
X-23296Y-34767D02*
D03*
X-24858D02*
D03*
X-19520Y3048D02*
D03*
X-21120D02*
D03*
X-19520Y4572D02*
D03*
X-21120D02*
D03*
X19012Y9144D02*
D03*
X20612D02*
D03*
X19012Y7620D02*
D03*
X20612D02*
D03*
D37*
X3956Y-7725D02*
D03*
Y-6163D02*
D03*
X27470Y-29952D02*
D03*
Y-31514D02*
D03*
X-30746Y-30514D02*
D03*
Y-28952D02*
D03*
X-25739Y-29419D02*
D03*
Y-30981D02*
D03*
X22751Y-38226D02*
D03*
Y-36664D02*
D03*
X25635Y-36720D02*
D03*
Y-38282D02*
D03*
X2404Y-12911D02*
D03*
X1016Y-12865D02*
D03*
X16129Y5499D02*
D03*
Y3899D02*
D03*
X-18409Y6969D02*
D03*
Y8569D02*
D03*
X-17012Y6969D02*
D03*
Y8569D02*
D03*
X17399Y5499D02*
D03*
Y3899D02*
D03*
X-19812Y6947D02*
D03*
Y8547D02*
D03*
X14732Y5499D02*
D03*
Y3899D02*
D03*
X1016Y-11265D02*
D03*
X2404Y-11311D02*
D03*
D38*
X-24102Y-37923D02*
D03*
X-26102D02*
D03*
X-26115Y-36285D02*
D03*
X-28115D02*
D03*
X-30892Y-32385D02*
D03*
X-32892D02*
D03*
D39*
X-29462Y-34396D02*
D03*
Y-32396D02*
D03*
X27077Y-38255D02*
D03*
Y-36255D02*
D03*
X28743Y-36258D02*
D03*
Y-38258D02*
D03*
X30710Y-38231D02*
D03*
Y-36231D02*
D03*
X32340Y-36196D02*
D03*
Y-34196D02*
D03*
D40*
X-31650Y-9444D02*
D03*
Y-13194D02*
D03*
Y-16944D02*
D03*
Y-20694D02*
D03*
Y-24444D02*
D03*
X-8990Y-9444D02*
D03*
Y-13194D02*
D03*
Y-16944D02*
D03*
Y-20694D02*
D03*
Y-24444D02*
D03*
X7974Y-9518D02*
D03*
Y-17018D02*
D03*
Y-20768D02*
D03*
Y-24518D02*
D03*
X30634Y-9518D02*
D03*
Y-13268D02*
D03*
Y-17018D02*
D03*
Y-20768D02*
D03*
Y-24518D02*
D03*
D41*
X-24449Y-33825D02*
D03*
Y-33325D02*
D03*
Y-32825D02*
D03*
Y-32325D02*
D03*
Y-31825D02*
D03*
X-20149D02*
D03*
Y-32325D02*
D03*
Y-32825D02*
D03*
Y-33325D02*
D03*
Y-33825D02*
D03*
X25516Y-32234D02*
D03*
Y-32734D02*
D03*
Y-33234D02*
D03*
Y-33734D02*
D03*
Y-34234D02*
D03*
X21216D02*
D03*
Y-33734D02*
D03*
Y-33234D02*
D03*
Y-32734D02*
D03*
Y-32234D02*
D03*
D42*
X-22039Y-36700D02*
D03*
X-17039D02*
D03*
X24016Y-29952D02*
D03*
X19016D02*
D03*
D43*
X-10284Y-31865D02*
D03*
X9622Y-33112D02*
D03*
X-30804Y6245D02*
D03*
X30461Y6120D02*
D03*
D44*
X7600Y-13268D02*
D03*
D45*
X14614Y2667D02*
D03*
X16764D02*
D03*
X-19151Y9796D02*
D03*
X-17001D02*
D03*
D46*
X-32385Y-36400D02*
D03*
Y39150D02*
D03*
X31864D02*
D03*
X31623Y-30861D02*
D03*
D47*
X-22547Y13178D02*
D03*
X-32547D02*
D03*
X22055Y13208D02*
D03*
X32055D02*
D03*
D48*
X4953Y35179D02*
D03*
X2453D02*
D03*
X-47D02*
D03*
X-2547D02*
D03*
X-5047D02*
D03*
X-7547D02*
D03*
Y32179D02*
D03*
X-5047D02*
D03*
X-2547D02*
D03*
X-47D02*
D03*
X2453D02*
D03*
X4953D02*
D03*
X7453D02*
D03*
X9953D02*
D03*
X-10047Y35179D02*
D03*
X7453D02*
D03*
X9953D02*
D03*
D49*
X-10047Y32179D02*
D03*
D50*
X15453Y36679D02*
D03*
X-15547D02*
D03*
D51*
X8058Y-335D02*
D03*
X8070Y-5412D02*
D03*
X8866Y-3236D02*
D03*
X8900Y-5556D02*
D03*
X3302Y3302D02*
D03*
X7482Y4012D02*
D03*
X4928Y4131D02*
D03*
X-6629Y-4760D02*
D03*
X-5714Y-4486D02*
D03*
X-9218Y85D02*
D03*
X-11938Y-635D02*
D03*
X-198Y630D02*
D03*
X-7387Y-2667D02*
D03*
X-8151Y-3570D02*
D03*
X2143Y-2846D02*
D03*
X1076D02*
D03*
X-1067D02*
D03*
X0D02*
D03*
X-2113D02*
D03*
X2143Y-3951D02*
D03*
X1076D02*
D03*
X-1067D02*
D03*
X0D02*
D03*
X-2113D02*
D03*
X2143Y-5055D02*
D03*
X1076D02*
D03*
X-1067D02*
D03*
X0D02*
D03*
X-2113D02*
D03*
X2143Y-6212D02*
D03*
X1076D02*
D03*
X-1067D02*
D03*
X0D02*
D03*
X-2113D02*
D03*
Y-7277D02*
D03*
X0D02*
D03*
X-1067D02*
D03*
X1076D02*
D03*
X2143D02*
D03*
X-15695Y-25080D02*
D03*
X-15547Y-2512D02*
D03*
X-15494Y-778D02*
D03*
X26957Y-31912D02*
D03*
X-14890Y-31409D02*
D03*
X-15631Y-32466D02*
D03*
X-16506Y-31443D02*
D03*
X-18285D02*
D03*
X-17410Y-32466D02*
D03*
X-35179Y-31496D02*
D03*
X-22021Y-33827D02*
D03*
X-24538Y-35826D02*
D03*
X-21228Y-33001D02*
D03*
X-25059Y-34122D02*
D03*
X24146Y-27679D02*
D03*
X-27670Y-29579D02*
D03*
X-19025Y-33257D02*
D03*
X-27990Y-34386D02*
D03*
X-17404Y-26658D02*
D03*
X20472Y-38411D02*
D03*
X19227Y-38043D02*
D03*
X22723Y-34123D02*
D03*
X23018Y-33433D02*
D03*
X26784Y-38948D02*
D03*
X25661Y-38923D02*
D03*
X26349Y-36799D02*
D03*
X24592Y-35481D02*
D03*
X16039Y-34207D02*
D03*
X15164Y-33184D02*
D03*
X16943D02*
D03*
X17818Y-34207D02*
D03*
X18715Y-33184D02*
D03*
X19570Y-34207D02*
D03*
X22432Y-32663D02*
D03*
X-11599Y-10336D02*
D03*
X-10794Y-10343D02*
D03*
X-10708Y-8467D02*
D03*
X-11499Y-8480D02*
D03*
X-11049Y-9369D02*
D03*
X-11811D02*
D03*
X10179Y-2079D02*
D03*
X12060Y-2051D02*
D03*
X10922Y8255D02*
D03*
X22098Y3683D02*
D03*
X21209D02*
D03*
X27432Y4445D02*
D03*
X-14732Y4064D02*
D03*
X-10541Y7620D02*
D03*
X2575Y0D02*
D03*
X32035Y223D02*
D03*
X34320Y2076D02*
D03*
X2975Y-12434D02*
D03*
X381Y15367D02*
D03*
X-2794Y12700D02*
D03*
X-10541Y13848D02*
D03*
X-9271Y13970D02*
D03*
X-1524Y15367D02*
D03*
X4311Y14344D02*
D03*
X4318Y13462D02*
D03*
X-3810Y11557D02*
D03*
X-4826D02*
D03*
X9398Y39497D02*
D03*
X1270Y8001D02*
D03*
X-7762Y17074D02*
D03*
X-12827Y7747D02*
D03*
X-10922Y17526D02*
D03*
X3175Y10414D02*
D03*
X-2794Y7620D02*
D03*
X-1407Y7496D02*
D03*
X4318Y-4572D02*
D03*
X-2251Y-11776D02*
D03*
X-12573Y12065D02*
D03*
Y10922D02*
D03*
X-1397Y12954D02*
D03*
X-254Y12827D02*
D03*
X14986Y13589D02*
D03*
X3224Y-20018D02*
D03*
X3079Y-16822D02*
D03*
X-11264Y2047D02*
D03*
X17526Y-17780D02*
D03*
X-21082Y-26162D02*
D03*
X-18728Y8951D02*
D03*
X16764Y13335D02*
D03*
X-9779Y11816D02*
D03*
X-13208Y11435D02*
D03*
X16891Y-14986D02*
D03*
X16002Y-14097D02*
D03*
X19685Y-6731D02*
D03*
X-6096Y5197D02*
D03*
X3302Y6223D02*
D03*
X-16764Y9271D02*
D03*
X16891Y2032D02*
D03*
X16092Y3212D02*
D03*
X17611Y3284D02*
D03*
X13843Y8382D02*
D03*
X10033Y6477D02*
D03*
X-5219Y-1205D02*
D03*
X28194Y10414D02*
D03*
X-14097Y4953D02*
D03*
X9906Y-10541D02*
D03*
Y-9652D02*
D03*
Y-8763D02*
D03*
X10922D02*
D03*
Y-9652D02*
D03*
Y-10541D02*
D03*
X24257Y4826D02*
D03*
X23241D02*
D03*
X21209D02*
D03*
X22225D02*
D03*
X-1524Y-16383D02*
D03*
X5228Y-6461D02*
D03*
X10922Y-15439D02*
D03*
X-10795Y-2159D02*
D03*
X-3190Y-11154D02*
D03*
X18589Y-508D02*
D03*
X11049Y-4699D02*
D03*
Y-1397D02*
D03*
X2286Y-10287D02*
D03*
X-3429Y-12954D02*
D03*
X-8509Y-11811D02*
D03*
X-20120Y-3737D02*
D03*
X32512Y8382D02*
D03*
Y7112D02*
D03*
Y5715D02*
D03*
Y4445D02*
D03*
X31242Y8382D02*
D03*
Y7112D02*
D03*
Y5715D02*
D03*
Y4445D02*
D03*
X29972Y8382D02*
D03*
Y7112D02*
D03*
Y5715D02*
D03*
Y4445D02*
D03*
X28702Y8382D02*
D03*
Y7112D02*
D03*
Y5715D02*
D03*
Y4445D02*
D03*
X27432Y5715D02*
D03*
Y7112D02*
D03*
Y8382D02*
D03*
X-21717Y-21717D02*
D03*
X-18161Y-21844D02*
D03*
X15494Y-3937D02*
D03*
X18161D02*
D03*
X17851Y127D02*
D03*
X-3756Y-27169D02*
D03*
X5461Y-2032D02*
D03*
X5873Y-3229D02*
D03*
X5201Y-5579D02*
D03*
X11938Y-18360D02*
D03*
X-4958Y-3172D02*
D03*
X-27813Y8255D02*
D03*
Y6985D02*
D03*
Y5588D02*
D03*
Y4318D02*
D03*
X-29083Y8255D02*
D03*
Y6985D02*
D03*
Y5588D02*
D03*
Y4318D02*
D03*
X-30353Y8255D02*
D03*
Y6985D02*
D03*
Y5588D02*
D03*
Y4318D02*
D03*
X-31623Y8255D02*
D03*
Y6985D02*
D03*
Y5588D02*
D03*
Y4318D02*
D03*
X-32893D02*
D03*
Y5588D02*
D03*
Y6985D02*
D03*
Y8255D02*
D03*
X-31242Y1397D02*
D03*
X-34290Y-1270D02*
D03*
X-4279Y-3549D02*
D03*
X-3166Y-1687D02*
D03*
X14986Y762D02*
D03*
X14097Y1524D02*
D03*
D52*
X33441Y-33372D02*
D03*
X9779Y11430D02*
D03*
X9144Y12827D02*
D03*
X12508Y8636D02*
D03*
X11833Y9547D02*
D03*
X-8255Y-5207D02*
D03*
X-12827Y5969D02*
D03*
X12446Y36449D02*
D03*
X16637Y18415D02*
D03*
X21590D02*
D03*
X-4318Y7112D02*
D03*
D53*
X1651Y12573D02*
D03*
D54*
X-4953Y17526D02*
D03*
X635Y19050D02*
D03*
Y20066D02*
D03*
D55*
X-22098Y9652D02*
D03*
Y8636D02*
D03*
Y7366D02*
D03*
X-23241Y9652D02*
D03*
X-24384D02*
D03*
X-23241Y7366D02*
D03*
X-24384D02*
D03*
D56*
X16383Y6223D02*
D03*
X17526Y6350D02*
D03*
X-17153Y6220D02*
D03*
X-18550D02*
D03*
X4318Y-1016D02*
D03*
X-2164Y-9988D02*
D03*
M02*
