G04*
G04 #@! TF.GenerationSoftware,Altium Limited,Altium Designer,26.9.1 (10)*
G04*
G04 Layer_Color=128*
G04 Board_Origin=38150000|32450000*
%FSLAX43Y43*%
%MOMM*%
G71*
G04*
G04 #@! TF.SameCoordinates,ABF88EB3-4507-415C-8808-D951A2BA1AED*
G04*
G04*
G04 #@! TF.FilePolarity,Positive*
G04*
G01*
G75*
%ADD17C,2.000*%
%ADD18R,0.600X0.700*%
%ADD19R,0.950X1.000*%
%ADD20R,1.000X0.950*%
%ADD21R,1.000X1.250*%
%ADD22R,1.250X1.000*%
%ADD31R,0.700X0.700*%
%ADD72R,0.700X0.600*%
G04:AMPARAMS|DCode=73|XSize=0.55mm|YSize=0.3mm|CornerRadius=0.075mm|HoleSize=0mm|Usage=FLASHONLY|Rotation=180.000|XOffset=0mm|YOffset=0mm|HoleType=Round|Shape=RoundedRectangle|*
%AMROUNDEDRECTD73*
21,1,0.550,0.150,0,0,180.0*
21,1,0.400,0.300,0,0,180.0*
1,1,0.150,-0.200,0.075*
1,1,0.150,0.200,0.075*
1,1,0.150,0.200,-0.075*
1,1,0.150,-0.200,-0.075*
%
%ADD73ROUNDEDRECTD73*%
G04:AMPARAMS|DCode=74|XSize=0.3mm|YSize=0.55mm|CornerRadius=0.075mm|HoleSize=0mm|Usage=FLASHONLY|Rotation=180.000|XOffset=0mm|YOffset=0mm|HoleType=Round|Shape=RoundedRectangle|*
%AMROUNDEDRECTD74*
21,1,0.300,0.400,0,0,180.0*
21,1,0.150,0.550,0,0,180.0*
1,1,0.150,-0.075,0.200*
1,1,0.150,0.075,0.200*
1,1,0.150,0.075,-0.200*
1,1,0.150,-0.075,-0.200*
%
%ADD74ROUNDEDRECTD74*%
%ADD76R,0.700X0.700*%
G04:AMPARAMS|DCode=77|XSize=2.18mm|YSize=2.12mm|CornerRadius=0.244mm|HoleSize=0mm|Usage=FLASHONLY|Rotation=180.000|XOffset=0mm|YOffset=0mm|HoleType=Round|Shape=RoundedRectangle|*
%AMROUNDEDRECTD77*
21,1,2.180,1.632,0,0,180.0*
21,1,1.692,2.120,0,0,180.0*
1,1,0.488,-0.846,0.816*
1,1,0.488,0.846,0.816*
1,1,0.488,0.846,-0.816*
1,1,0.488,-0.846,-0.816*
%
%ADD77ROUNDEDRECTD77*%
%ADD78R,1.456X1.255*%
G04:AMPARAMS|DCode=79|XSize=1.004mm|YSize=0.872mm|CornerRadius=0.436mm|HoleSize=0mm|Usage=FLASHONLY|Rotation=0.000|XOffset=0mm|YOffset=0mm|HoleType=Round|Shape=RoundedRectangle|*
%AMROUNDEDRECTD79*
21,1,1.004,0.000,0,0,0.0*
21,1,0.132,0.872,0,0,0.0*
1,1,0.872,0.066,0.000*
1,1,0.872,-0.066,0.000*
1,1,0.872,-0.066,0.000*
1,1,0.872,0.066,0.000*
%
%ADD79ROUNDEDRECTD79*%
G04:AMPARAMS|DCode=80|XSize=1.64mm|YSize=0.41mm|CornerRadius=0.051mm|HoleSize=0mm|Usage=FLASHONLY|Rotation=90.000|XOffset=0mm|YOffset=0mm|HoleType=Round|Shape=RoundedRectangle|*
%AMROUNDEDRECTD80*
21,1,1.640,0.308,0,0,90.0*
21,1,1.538,0.410,0,0,90.0*
1,1,0.103,0.154,0.769*
1,1,0.103,0.154,-0.769*
1,1,0.103,-0.154,-0.769*
1,1,0.103,-0.154,0.769*
%
%ADD80ROUNDEDRECTD80*%
%ADD81R,1.499X0.991*%
%ADD82R,1.499X3.277*%
%ADD83R,1.356X1.105*%
%ADD84R,1.220X1.860*%
%ADD85R,1.860X1.220*%
%ADD86R,1.000X0.600*%
%ADD87R,5.400X6.200*%
%ADD88R,1.000X1.600*%
%ADD89R,2.790X0.740*%
%ADD90R,1.450X1.350*%
G04:AMPARAMS|DCode=91|XSize=1.004mm|YSize=3.182mm|CornerRadius=0.437mm|HoleSize=0mm|Usage=FLASHONLY|Rotation=0.000|XOffset=0mm|YOffset=0mm|HoleType=Round|Shape=RoundedRectangle|*
%AMROUNDEDRECTD91*
21,1,1.004,2.308,0,0,0.0*
21,1,0.131,3.182,0,0,0.0*
1,1,0.874,0.065,-1.154*
1,1,0.874,-0.065,-1.154*
1,1,0.874,-0.065,1.154*
1,1,0.874,0.065,1.154*
%
%ADD91ROUNDEDRECTD91*%
%ADD92R,1.004X0.872*%
%ADD93R,1.300X1.100*%
%ADD94R,0.800X0.900*%
%ADD95R,0.550X0.550*%
%ADD100R,3.542X3.542*%
D17*
X-30179Y23485D02*
G03*
X-30179Y23485I-1000J0D01*
G01*
X31717D02*
G03*
X31717Y23485I-1000J0D01*
G01*
D18*
X-9157Y-664D02*
D03*
X-8141D02*
D03*
X5431Y-2336D02*
D03*
X4415D02*
D03*
X2885Y-293D02*
D03*
X3901D02*
D03*
X2888Y655D02*
D03*
X3904D02*
D03*
X-2459Y-10614D02*
D03*
X-3475D02*
D03*
X-2459Y-9686D02*
D03*
X-3475D02*
D03*
X-514Y1703D02*
D03*
X502D02*
D03*
X-12539Y-2821D02*
D03*
X-11523D02*
D03*
X-11921Y-1672D02*
D03*
X-10905D02*
D03*
X5153Y-9459D02*
D03*
X6169D02*
D03*
X1524Y9906D02*
D03*
X3810Y13716D02*
D03*
X1143Y20066D02*
D03*
X-4953Y17018D02*
D03*
X1143Y19050D02*
D03*
X-2024Y18028D02*
D03*
X508Y9906D02*
D03*
X2794Y13716D02*
D03*
X-2921Y18034D02*
D03*
X1143D02*
D03*
X2413Y16637D02*
D03*
X-1008Y18028D02*
D03*
X2159Y19050D02*
D03*
X3429Y16637D02*
D03*
X-3937Y17018D02*
D03*
X2159Y20066D02*
D03*
X-3937Y18034D02*
D03*
X2159D02*
D03*
X18483Y-14957D02*
D03*
X-20120Y-21674D02*
D03*
X17467Y-14957D02*
D03*
X-21136Y-21674D02*
D03*
D19*
X22429Y-28758D02*
D03*
X23991D02*
D03*
X-17910Y-25148D02*
D03*
X-16348D02*
D03*
X3899Y36957D02*
D03*
X18631Y-16256D02*
D03*
X20231D02*
D03*
X-21552Y-23876D02*
D03*
X-23152D02*
D03*
X17183Y39370D02*
D03*
X15583D02*
D03*
X18834Y34417D02*
D03*
X5499Y36957D02*
D03*
X17234Y34417D02*
D03*
D20*
X-2159Y7328D02*
D03*
X-635D02*
D03*
Y8928D02*
D03*
X-2159D02*
D03*
X32195Y-1968D02*
D03*
Y-3568D02*
D03*
D21*
X-21625Y-155D02*
D03*
X-23625D02*
D03*
X24781Y10414D02*
D03*
X26781D02*
D03*
X18304D02*
D03*
X20304D02*
D03*
X21517D02*
D03*
X23517D02*
D03*
X-17768Y-166D02*
D03*
X-19768D02*
D03*
X-25201Y-155D02*
D03*
X-27201D02*
D03*
D22*
X-16286Y-2444D02*
D03*
Y-444D02*
D03*
X16764Y12303D02*
D03*
Y10303D02*
D03*
D31*
X22440Y-30073D02*
D03*
X24590D02*
D03*
X-17958Y-26655D02*
D03*
X-20108D02*
D03*
X20633Y-17780D02*
D03*
X18483D02*
D03*
X-23427Y-25654D02*
D03*
X-21277D02*
D03*
D72*
X7480Y2176D02*
D03*
Y3192D02*
D03*
X-4628Y-2787D02*
D03*
Y-1771D02*
D03*
X-5586Y-2777D02*
D03*
Y-1761D02*
D03*
X-8602Y-3432D02*
D03*
Y-4448D02*
D03*
X6936Y-5513D02*
D03*
Y-6529D02*
D03*
X5902Y-5518D02*
D03*
Y-6534D02*
D03*
X-9640Y-3399D02*
D03*
Y-4415D02*
D03*
X10523Y-2656D02*
D03*
Y-3672D02*
D03*
X11704Y-2618D02*
D03*
Y-3634D02*
D03*
X3083Y-9635D02*
D03*
Y-10651D02*
D03*
X4091Y-9632D02*
D03*
Y-10648D02*
D03*
X2667Y11303D02*
D03*
X-3556Y10668D02*
D03*
X2667Y10287D02*
D03*
X3810Y14605D02*
D03*
X508Y8001D02*
D03*
X-3302Y7620D02*
D03*
X-4318D02*
D03*
X-4826Y12065D02*
D03*
X-3810D02*
D03*
Y14986D02*
D03*
X2794Y14605D02*
D03*
X508Y9017D02*
D03*
X-5334Y9652D02*
D03*
X-127Y19050D02*
D03*
X-3302Y8636D02*
D03*
X-3556Y9652D02*
D03*
X-5334Y8636D02*
D03*
X-4318D02*
D03*
X2794Y15621D02*
D03*
X-127Y18034D02*
D03*
X-3810Y13081D02*
D03*
X-4826D02*
D03*
X-3810Y13970D02*
D03*
X-2921Y19050D02*
D03*
Y20066D02*
D03*
X3429Y17526D02*
D03*
Y18542D02*
D03*
X3810Y15621D02*
D03*
D73*
X3375Y-2305D02*
D03*
Y-2805D02*
D03*
Y-3305D02*
D03*
Y-3805D02*
D03*
Y-4305D02*
D03*
Y-4805D02*
D03*
Y-5305D02*
D03*
Y-5805D02*
D03*
Y-6305D02*
D03*
Y-6805D02*
D03*
Y-7305D02*
D03*
Y-7805D02*
D03*
X-3375D02*
D03*
Y-7305D02*
D03*
Y-6805D02*
D03*
Y-6305D02*
D03*
Y-5805D02*
D03*
Y-5305D02*
D03*
Y-4805D02*
D03*
Y-4305D02*
D03*
Y-3805D02*
D03*
Y-3305D02*
D03*
Y-2805D02*
D03*
Y-2305D02*
D03*
D74*
X2750Y-8430D02*
D03*
X2250D02*
D03*
X1750D02*
D03*
X1250D02*
D03*
X750D02*
D03*
X250D02*
D03*
X-250D02*
D03*
X-750D02*
D03*
X-1250D02*
D03*
X-1750D02*
D03*
X-2250D02*
D03*
X-2750D02*
D03*
Y-1680D02*
D03*
X-2250D02*
D03*
X-1750D02*
D03*
X-1250D02*
D03*
X-750D02*
D03*
X-250D02*
D03*
X250D02*
D03*
X750D02*
D03*
X1250D02*
D03*
X1750D02*
D03*
X2250D02*
D03*
X2750D02*
D03*
D76*
X-14853Y-356D02*
D03*
Y-2506D02*
D03*
X14986Y10609D02*
D03*
Y12759D02*
D03*
D77*
X29139Y13716D02*
D03*
X24709D02*
D03*
X-29520Y13208D02*
D03*
X-25090D02*
D03*
D78*
X-17145Y18860D02*
D03*
Y17208D02*
D03*
X-8890Y14795D02*
D03*
Y16447D02*
D03*
D79*
X3563Y-12768D02*
D03*
Y-15058D02*
D03*
D80*
X444Y16605D02*
D03*
X-2730Y11335D02*
D03*
X1714D02*
D03*
X-1461Y16605D02*
D03*
X-2095D02*
D03*
X444Y11335D02*
D03*
X-2730Y16605D02*
D03*
X1079D02*
D03*
X-1461Y11335D02*
D03*
X1714Y16605D02*
D03*
X-191D02*
D03*
X-826D02*
D03*
X-191Y11335D02*
D03*
X-826D02*
D03*
X1079D02*
D03*
X-2095D02*
D03*
D81*
X-10947Y14351D02*
D03*
Y16650D02*
D03*
Y12052D02*
D03*
D82*
X-17247Y14351D02*
D03*
D83*
X-10159Y8763D02*
D03*
X-12728Y8601D02*
D03*
Y10003D02*
D03*
X-10159Y10165D02*
D03*
D84*
X25619Y25413D02*
D03*
X25619Y23153D02*
D03*
X22839Y25413D02*
D03*
X22839Y23153D02*
D03*
D85*
X20307Y18481D02*
D03*
X18047Y18481D02*
D03*
Y21261D02*
D03*
X20307Y21261D02*
D03*
D86*
X10033Y39492D02*
D03*
Y37592D02*
D03*
X12083Y38542D02*
D03*
D87*
X18669Y25313D02*
D03*
D88*
X16389Y32613D02*
D03*
X20949D02*
D03*
D89*
X29340Y1270D02*
D03*
Y0D02*
D03*
Y-1270D02*
D03*
X25270Y2540D02*
D03*
Y1270D02*
D03*
Y0D02*
D03*
Y-3810D02*
D03*
X29340Y-5080D02*
D03*
X25270D02*
D03*
Y-2540D02*
D03*
Y-1270D02*
D03*
X29340Y-3810D02*
D03*
Y-2540D02*
D03*
Y2540D02*
D03*
D90*
X11955Y-15507D02*
D03*
Y-17157D02*
D03*
D91*
X10153Y-15058D02*
D03*
D92*
X3563Y-17348D02*
D03*
D93*
X-6604Y-12559D02*
D03*
X-8658D02*
D03*
X-6604Y-10459D02*
D03*
X-8658D02*
D03*
D94*
X16576Y-13700D02*
D03*
X-18227Y-22749D02*
D03*
X18476Y-13700D02*
D03*
X17526Y-11700D02*
D03*
X-20127Y-22749D02*
D03*
X-19177Y-24749D02*
D03*
D95*
X-6604Y-9086D02*
D03*
Y-8186D02*
D03*
X-8636D02*
D03*
Y-9086D02*
D03*
D100*
X0Y-5055D02*
D03*
M02*
