G04*
G04 #@! TF.GenerationSoftware,Altium Limited,Altium Designer,26.9.1 (10)*
G04*
G04 Layer_Physical_Order=4*
G04 Layer_Color=16711680*
G04 Board_Origin=38150000|32450000*
%FSLAX43Y43*%
%MOMM*%
G71*
G04*
G04 #@! TF.SameCoordinates,ABF88EB3-4507-415C-8808-D951A2BA1AED*
G04*
G04*
G04 #@! TF.FilePolarity,Positive*
G04*
G01*
G75*
%ADD10C,0.400*%
%ADD11C,0.200*%
%ADD12C,0.250*%
%ADD17C,2.000*%
%ADD18R,0.600X0.700*%
%ADD19R,0.950X1.000*%
%ADD20R,1.000X0.950*%
%ADD21R,1.000X1.250*%
%ADD22R,1.250X1.000*%
%ADD31R,0.700X0.700*%
%ADD32C,1.000*%
%ADD50C,3.250*%
%ADD51C,0.600*%
%ADD52C,0.800*%
%ADD53C,0.550*%
%ADD54C,0.450*%
%ADD56C,0.500*%
%ADD57C,0.500*%
%ADD58C,0.254*%
%ADD59C,0.300*%
%ADD60C,1.000*%
%ADD62R,0.110X0.010*%
%ADD63C,1.408*%
%ADD64C,1.800*%
%ADD65R,1.800X1.800*%
%ADD66C,2.000*%
%ADD67C,1.300*%
%ADD68C,0.600*%
%ADD72R,0.700X0.600*%
G04:AMPARAMS|DCode=73|XSize=0.55mm|YSize=0.3mm|CornerRadius=0.075mm|HoleSize=0mm|Usage=FLASHONLY|Rotation=180.000|XOffset=0mm|YOffset=0mm|HoleType=Round|Shape=RoundedRectangle|*
%AMROUNDEDRECTD73*
21,1,0.550,0.150,0,0,180.0*
21,1,0.400,0.300,0,0,180.0*
1,1,0.150,-0.200,0.075*
1,1,0.150,0.200,0.075*
1,1,0.150,0.200,-0.075*
1,1,0.150,-0.200,-0.075*
%
%ADD73ROUNDEDRECTD73*%
G04:AMPARAMS|DCode=74|XSize=0.3mm|YSize=0.55mm|CornerRadius=0.075mm|HoleSize=0mm|Usage=FLASHONLY|Rotation=180.000|XOffset=0mm|YOffset=0mm|HoleType=Round|Shape=RoundedRectangle|*
%AMROUNDEDRECTD74*
21,1,0.300,0.400,0,0,180.0*
21,1,0.150,0.550,0,0,180.0*
1,1,0.150,-0.075,0.200*
1,1,0.150,0.075,0.200*
1,1,0.150,0.075,-0.200*
1,1,0.150,-0.075,-0.200*
%
%ADD74ROUNDEDRECTD74*%
%ADD75R,5.600X5.600*%
%ADD76R,0.700X0.700*%
G04:AMPARAMS|DCode=77|XSize=2.18mm|YSize=2.12mm|CornerRadius=0.244mm|HoleSize=0mm|Usage=FLASHONLY|Rotation=180.000|XOffset=0mm|YOffset=0mm|HoleType=Round|Shape=RoundedRectangle|*
%AMROUNDEDRECTD77*
21,1,2.180,1.632,0,0,180.0*
21,1,1.692,2.120,0,0,180.0*
1,1,0.488,-0.846,0.816*
1,1,0.488,0.846,0.816*
1,1,0.488,0.846,-0.816*
1,1,0.488,-0.846,-0.816*
%
%ADD77ROUNDEDRECTD77*%
%ADD78R,1.456X1.255*%
G04:AMPARAMS|DCode=79|XSize=1.004mm|YSize=0.872mm|CornerRadius=0.436mm|HoleSize=0mm|Usage=FLASHONLY|Rotation=0.000|XOffset=0mm|YOffset=0mm|HoleType=Round|Shape=RoundedRectangle|*
%AMROUNDEDRECTD79*
21,1,1.004,0.000,0,0,0.0*
21,1,0.132,0.872,0,0,0.0*
1,1,0.872,0.066,0.000*
1,1,0.872,-0.066,0.000*
1,1,0.872,-0.066,0.000*
1,1,0.872,0.066,0.000*
%
%ADD79ROUNDEDRECTD79*%
G04:AMPARAMS|DCode=80|XSize=1.64mm|YSize=0.41mm|CornerRadius=0.051mm|HoleSize=0mm|Usage=FLASHONLY|Rotation=90.000|XOffset=0mm|YOffset=0mm|HoleType=Round|Shape=RoundedRectangle|*
%AMROUNDEDRECTD80*
21,1,1.640,0.308,0,0,90.0*
21,1,1.538,0.410,0,0,90.0*
1,1,0.103,0.154,0.769*
1,1,0.103,0.154,-0.769*
1,1,0.103,-0.154,-0.769*
1,1,0.103,-0.154,0.769*
%
%ADD80ROUNDEDRECTD80*%
%ADD81R,1.499X0.991*%
%ADD82R,1.499X3.277*%
%ADD83R,1.356X1.105*%
%ADD84R,1.220X1.860*%
%ADD85R,1.860X1.220*%
%ADD86R,1.000X0.600*%
%ADD87R,5.400X6.200*%
%ADD88R,1.000X1.600*%
%ADD89R,2.790X0.740*%
%ADD90R,1.450X1.350*%
G04:AMPARAMS|DCode=91|XSize=1.004mm|YSize=3.182mm|CornerRadius=0.437mm|HoleSize=0mm|Usage=FLASHONLY|Rotation=0.000|XOffset=0mm|YOffset=0mm|HoleType=Round|Shape=RoundedRectangle|*
%AMROUNDEDRECTD91*
21,1,1.004,2.308,0,0,0.0*
21,1,0.131,3.182,0,0,0.0*
1,1,0.874,0.065,-1.154*
1,1,0.874,-0.065,-1.154*
1,1,0.874,-0.065,1.154*
1,1,0.874,0.065,1.154*
%
%ADD91ROUNDEDRECTD91*%
%ADD92R,1.004X0.872*%
%ADD93R,1.300X1.100*%
%ADD94R,0.800X0.900*%
%ADD95R,0.550X0.550*%
G36*
X35497Y-701D02*
X35219Y-816D01*
X33966Y438D01*
X33730Y618D01*
X33456Y732D01*
X33487Y1030D01*
X33631D01*
X33767Y1057D01*
X33883Y1135D01*
X34375Y1626D01*
X34410D01*
X34575Y1695D01*
X34701Y1821D01*
X34770Y1987D01*
Y2166D01*
X34701Y2331D01*
X34575Y2458D01*
X34410Y2526D01*
X34230D01*
X34065Y2458D01*
X33939Y2331D01*
X33870Y2166D01*
Y2131D01*
X33483Y1744D01*
X33387Y1744D01*
X32821Y2039D01*
X32806Y2044D01*
X32793Y2053D01*
X32740Y2063D01*
X32688Y2078D01*
X32672Y2077D01*
X32656Y2080D01*
X31414D01*
X31359Y2069D01*
X31304Y2063D01*
X31185Y2024D01*
X30885Y2243D01*
Y2884D01*
X31047Y3112D01*
X31150Y3145D01*
X31413D01*
X31744Y3234D01*
X31877Y3311D01*
X32010Y3234D01*
X32341Y3145D01*
X32683D01*
X33014Y3234D01*
X33310Y3405D01*
X33552Y3647D01*
X33723Y3943D01*
X33812Y4274D01*
Y4616D01*
X33723Y4947D01*
X33646Y5080D01*
X33723Y5213D01*
X33812Y5544D01*
Y5886D01*
X33723Y6217D01*
X33610Y6413D01*
X33723Y6610D01*
X33812Y6941D01*
Y7283D01*
X33723Y7614D01*
X33646Y7747D01*
X33723Y7880D01*
X33812Y8211D01*
Y8553D01*
X33723Y8884D01*
X33552Y9180D01*
X33310Y9422D01*
X33014Y9593D01*
X32683Y9682D01*
X32341D01*
X32010Y9593D01*
X31877Y9516D01*
X31744Y9593D01*
X31413Y9682D01*
X31071D01*
X30740Y9593D01*
X30607Y9516D01*
X30474Y9593D01*
X30143Y9682D01*
X29801D01*
X29586Y9624D01*
X29386Y9878D01*
X29405Y9912D01*
X29494Y10243D01*
Y10585D01*
X29405Y10916D01*
X29234Y11212D01*
X29101Y11345D01*
X29225Y11645D01*
X29985D01*
X29993Y11646D01*
X30805D01*
X30938Y11537D01*
X31286Y11351D01*
X31663Y11237D01*
X32055Y11198D01*
X32447Y11237D01*
X32824Y11351D01*
X33172Y11537D01*
X33476Y11787D01*
X33726Y12091D01*
X33912Y12439D01*
X34026Y12816D01*
X34065Y13208D01*
X34026Y13600D01*
X33912Y13977D01*
X33726Y14325D01*
X33476Y14629D01*
X33028Y15077D01*
X32724Y15327D01*
X32376Y15513D01*
X31999Y15627D01*
X31607Y15666D01*
X30499D01*
X30310Y15744D01*
X29985Y15787D01*
X28293D01*
X27968Y15744D01*
X27666Y15619D01*
X27406Y15419D01*
X27206Y15159D01*
X27081Y14857D01*
X27038Y14532D01*
Y12900D01*
X27081Y12575D01*
X27179Y12339D01*
X27048Y12039D01*
X25281D01*
Y11439D01*
X22717D01*
X22417Y11439D01*
X22317Y11439D01*
X19404D01*
Y10897D01*
X19254Y10744D01*
X18954Y10856D01*
Y11189D01*
X17654D01*
X17539Y10953D01*
X15989D01*
Y10859D01*
X15486D01*
Y11109D01*
X14486D01*
Y10859D01*
X11214D01*
X11106Y10838D01*
X11015Y10777D01*
X7504Y7265D01*
X4064D01*
X3957Y7244D01*
X3866Y7183D01*
X3355Y6673D01*
X3212D01*
X3047Y6604D01*
X2921Y6478D01*
X2852Y6313D01*
Y6133D01*
X2921Y5968D01*
X2974Y5914D01*
X2871Y5614D01*
X-5296D01*
X-5403Y5593D01*
X-5494Y5532D01*
X-5537Y5489D01*
X-5752D01*
X-5841Y5578D01*
X-6006Y5647D01*
X-6186D01*
X-6351Y5578D01*
X-6477Y5452D01*
X-6546Y5287D01*
Y5107D01*
X-6477Y4942D01*
X-6351Y4816D01*
X-6186Y4747D01*
X-6006D01*
X-5841Y4816D01*
X-5728Y4929D01*
X-5421D01*
X-5314Y4950D01*
X-5223Y5011D01*
X-5180Y5054D01*
X8890D01*
X8997Y5075D01*
X9088Y5136D01*
X9980Y6027D01*
X10123D01*
X10288Y6096D01*
X10392Y6200D01*
X10496Y6189D01*
X10692Y6108D01*
Y-1117D01*
X10668Y-1142D01*
X10599Y-1307D01*
Y-1487D01*
X10668Y-1652D01*
X10794Y-1778D01*
X10959Y-1847D01*
X11139D01*
X11304Y-1778D01*
X11430Y-1652D01*
X11499Y-1487D01*
Y-1307D01*
X11430Y-1142D01*
X11406Y-1117D01*
Y2332D01*
X11424Y2346D01*
X11706Y2441D01*
X13583Y564D01*
X13674Y503D01*
X13781Y482D01*
X14630D01*
X14731Y381D01*
X14896Y312D01*
X15076D01*
X15241Y381D01*
X15302Y442D01*
X15545D01*
X15849Y138D01*
Y-2709D01*
X15549Y-2833D01*
X14549Y-1834D01*
X14458Y-1773D01*
X14351Y-1752D01*
X13081D01*
X12974Y-1773D01*
X12883Y-1834D01*
X12794Y-1922D01*
X12774Y-1925D01*
X12458Y-1835D01*
X12442Y-1796D01*
X12315Y-1669D01*
X12150Y-1601D01*
X11971D01*
X11805Y-1669D01*
X11679Y-1796D01*
X11617Y-1944D01*
X11529Y-2076D01*
X11511Y-2168D01*
X11204D01*
Y-2997D01*
X11083Y-3147D01*
X10967Y-3222D01*
X10023D01*
Y-3836D01*
X9442Y-4416D01*
X5482D01*
X5389Y-4196D01*
X5382Y-4116D01*
X5819Y-3679D01*
X5962D01*
X6128Y-3611D01*
X6254Y-3484D01*
X6323Y-3319D01*
Y-3140D01*
X6254Y-2974D01*
X6128Y-2848D01*
X5962Y-2779D01*
X5783D01*
X5618Y-2848D01*
X5491Y-2974D01*
X5423Y-3140D01*
Y-3283D01*
X5049Y-3657D01*
X4140D01*
X4033Y-3678D01*
X4010Y-3675D01*
X3954Y-3623D01*
X3803Y-3386D01*
X3804Y-3380D01*
Y-3230D01*
X3787Y-3142D01*
X3744Y-3055D01*
X3764Y-3013D01*
X3965Y-2836D01*
X3991Y-2836D01*
X4865D01*
Y-1836D01*
X4754D01*
X4640Y-1559D01*
X4814Y-1385D01*
X4861Y-1270D01*
Y-381D01*
X4814Y-266D01*
X4734Y-187D01*
Y635D01*
X4687Y750D01*
X4354Y1083D01*
Y1155D01*
X4249D01*
X4191Y1178D01*
X3556D01*
X3498Y1155D01*
X3454D01*
Y1136D01*
X3441Y1131D01*
X3394Y1016D01*
Y-568D01*
X3108Y-854D01*
X2966D01*
X2851Y-901D01*
X2511Y-1242D01*
X2503Y-1261D01*
X2487Y-1273D01*
X2480Y-1316D01*
X2463Y-1356D01*
X2471Y-1375D01*
X2470Y-1381D01*
X2463Y-1392D01*
X2446Y-1480D01*
Y-1880D01*
X2463Y-1968D01*
X2513Y-2042D01*
X2587Y-2092D01*
X2663Y-2107D01*
X2679Y-2147D01*
X2698Y-2155D01*
X2710Y-2171D01*
X2754Y-2178D01*
X2794Y-2194D01*
X2886D01*
Y-2413D01*
X2933Y-2528D01*
X2963Y-2642D01*
X2946Y-2730D01*
Y-2880D01*
X2963Y-2968D01*
X3006Y-3055D01*
X2963Y-3142D01*
X2946Y-3230D01*
Y-3380D01*
X2963Y-3468D01*
X3013Y-3542D01*
Y-3568D01*
X2963Y-3642D01*
X2946Y-3730D01*
Y-3880D01*
X2963Y-3968D01*
X3013Y-4042D01*
Y-4068D01*
X2963Y-4142D01*
X2946Y-4230D01*
Y-4380D01*
X2963Y-4468D01*
X3006Y-4555D01*
X2963Y-4642D01*
X2946Y-4730D01*
Y-4880D01*
X2963Y-4968D01*
X3013Y-5042D01*
Y-5068D01*
X2963Y-5142D01*
X2946Y-5230D01*
Y-5380D01*
X2963Y-5468D01*
X3013Y-5542D01*
X3087Y-5592D01*
X3175Y-5609D01*
X3575D01*
X3585Y-5607D01*
X3591Y-5612D01*
X3699Y-5633D01*
X4426D01*
X4534Y-5612D01*
X4625Y-5551D01*
X5198Y-4977D01*
X7463D01*
X7487Y-4996D01*
X7639Y-5277D01*
X7620Y-5323D01*
Y-5502D01*
X7689Y-5667D01*
X7773Y-5751D01*
Y-6094D01*
X7736Y-6119D01*
X7436Y-6079D01*
Y-6079D01*
X6700D01*
X6436Y-6079D01*
Y-6079D01*
X6402Y-6084D01*
Y-6084D01*
X6106D01*
X6014Y-6064D01*
X5426Y-6056D01*
X5318Y-6011D01*
X5139D01*
X4973Y-6079D01*
X4953Y-6100D01*
X4939Y-6091D01*
X4939Y-6091D01*
X4939Y-6091D01*
X4885Y-6080D01*
X4832Y-6070D01*
X4399D01*
X4298Y-6050D01*
X3710D01*
X3663Y-6018D01*
X3575Y-6001D01*
X3175D01*
X3087Y-6018D01*
X3013Y-6068D01*
X2963Y-6142D01*
X2946Y-6230D01*
Y-6380D01*
X2963Y-6468D01*
X3013Y-6542D01*
Y-6568D01*
X2963Y-6642D01*
X2946Y-6730D01*
Y-6880D01*
X2963Y-6968D01*
X3006Y-7055D01*
X2963Y-7142D01*
X2946Y-7230D01*
Y-7380D01*
X2963Y-7468D01*
X3013Y-7542D01*
Y-7568D01*
X2963Y-7642D01*
X2948Y-7719D01*
X2946Y-7730D01*
X2946Y-7730D01*
X2862Y-7917D01*
X2675Y-8001D01*
X2675Y-8001D01*
X2664Y-8003D01*
X2587Y-8018D01*
X2513Y-8068D01*
X2487D01*
X2413Y-8018D01*
X2325Y-8001D01*
X2175D01*
X2087Y-8018D01*
X2013Y-8068D01*
X1987D01*
X1913Y-8018D01*
X1825Y-8001D01*
X1675D01*
X1587Y-8018D01*
X1513Y-8068D01*
X1487D01*
X1413Y-8018D01*
X1325Y-8001D01*
X1175D01*
X1087Y-8018D01*
X1000Y-8061D01*
X913Y-8018D01*
X825Y-8001D01*
X675D01*
X587Y-8018D01*
X500Y-8061D01*
X413Y-8018D01*
X325Y-8001D01*
X175D01*
X87Y-8018D01*
X0Y-8061D01*
X-87Y-8018D01*
X-175Y-8001D01*
X-325D01*
X-413Y-8018D01*
X-500Y-8061D01*
X-587Y-8018D01*
X-675Y-8001D01*
X-825D01*
X-913Y-8018D01*
X-1000Y-8061D01*
X-1087Y-8018D01*
X-1175Y-8001D01*
X-1325D01*
X-1413Y-8018D01*
X-1500Y-8061D01*
X-1587Y-8018D01*
X-1675Y-8001D01*
X-1825D01*
X-1913Y-8018D01*
X-1987Y-8068D01*
X-2037Y-8142D01*
X-2054Y-8230D01*
Y-8630D01*
X-2037Y-8718D01*
X-2030Y-8728D01*
Y-9426D01*
X-2009Y-9533D01*
X-1948Y-9624D01*
X-1686Y-9886D01*
X-1677Y-9908D01*
Y-10806D01*
X-2197Y-11326D01*
X-2340D01*
X-2471Y-11380D01*
X-2609Y-11310D01*
X-2740Y-11204D01*
Y-11065D01*
X-2808Y-10899D01*
X-2935Y-10773D01*
X-3025Y-10736D01*
Y-10603D01*
X-2993Y-10481D01*
X-3013Y-10344D01*
X-3025Y-10323D01*
Y-9390D01*
X-2552Y-8917D01*
X-2491Y-8826D01*
X-2472Y-8731D01*
X-2463Y-8718D01*
X-2446Y-8630D01*
Y-8230D01*
X-2463Y-8142D01*
X-2513Y-8068D01*
X-2587Y-8018D01*
X-2664Y-8003D01*
X-2675Y-8001D01*
X-2675Y-8001D01*
X-2862Y-7917D01*
X-2946Y-7730D01*
X-2946Y-7730D01*
X-2948Y-7719D01*
X-2963Y-7642D01*
X-3013Y-7568D01*
Y-7542D01*
X-2963Y-7468D01*
X-2946Y-7380D01*
Y-7230D01*
X-2963Y-7142D01*
X-3013Y-7068D01*
Y-7042D01*
X-2963Y-6968D01*
X-2946Y-6880D01*
Y-6730D01*
X-2963Y-6642D01*
X-2983Y-6612D01*
X-2977Y-6578D01*
X-2916Y-6487D01*
X-2895Y-6380D01*
X-2916Y-6273D01*
X-2946Y-6228D01*
X-2963Y-6142D01*
X-3013Y-6068D01*
Y-6042D01*
X-2963Y-5968D01*
X-2946Y-5880D01*
Y-5730D01*
X-2963Y-5642D01*
X-3006Y-5555D01*
X-2963Y-5468D01*
X-2946Y-5380D01*
Y-5230D01*
X-2963Y-5142D01*
X-3013Y-5068D01*
Y-5042D01*
X-2963Y-4968D01*
X-2946Y-4880D01*
Y-4730D01*
X-2963Y-4642D01*
X-3006Y-4555D01*
X-2963Y-4468D01*
X-2946Y-4380D01*
Y-4230D01*
X-2963Y-4142D01*
X-3013Y-4068D01*
Y-4042D01*
X-2963Y-3968D01*
X-2946Y-3880D01*
Y-3730D01*
X-2963Y-3642D01*
X-3013Y-3568D01*
Y-3542D01*
X-2963Y-3468D01*
X-2946Y-3380D01*
Y-3230D01*
X-2963Y-3142D01*
X-3013Y-3068D01*
X-3087Y-3018D01*
X-3175Y-3001D01*
X-3575D01*
X-3663Y-3018D01*
X-3710Y-3050D01*
X-4060D01*
X-4060Y-3050D01*
X-4060Y-3050D01*
X-4111Y-3060D01*
X-4167Y-3071D01*
X-4167Y-3071D01*
X-4167Y-3071D01*
X-4209Y-3099D01*
X-4368D01*
X-4533Y-3168D01*
X-4660Y-3294D01*
X-4729Y-3459D01*
Y-3543D01*
X-5008Y-3688D01*
X-5086Y-3611D01*
X-5177Y-3550D01*
X-5284Y-3529D01*
X-6538D01*
X-6746Y-3321D01*
Y-3123D01*
X-6767Y-3016D01*
X-6828Y-2925D01*
X-6954Y-2798D01*
X-6937Y-2757D01*
Y-2577D01*
X-7006Y-2412D01*
X-7132Y-2286D01*
X-7298Y-2217D01*
X-7477D01*
X-7560Y-2252D01*
X-7793Y-2143D01*
X-7860Y-2079D01*
Y-1164D01*
X-7691D01*
Y-164D01*
X-8509Y-164D01*
X-8667Y-67D01*
X-8768Y62D01*
Y175D01*
X-8836Y340D01*
X-8963Y467D01*
X-9128Y535D01*
X-9307D01*
X-9473Y467D01*
X-9599Y340D01*
X-9668Y175D01*
Y-4D01*
X-9604Y-159D01*
X-9607Y-164D01*
X-9607D01*
Y-1164D01*
X-8891D01*
X-8707Y-1164D01*
X-8421Y-1199D01*
Y-2727D01*
X-8400Y-2834D01*
X-8339Y-2925D01*
X-7707Y-3557D01*
Y-4343D01*
X-8007Y-4497D01*
X-8102Y-4429D01*
Y-3998D01*
X-8901D01*
X-9120Y-3861D01*
X-9140Y-3713D01*
X-9140Y-3665D01*
Y-2949D01*
X-9606D01*
X-10345Y-2209D01*
Y-2069D01*
X-10412Y-1908D01*
X-10437Y-1780D01*
X-10455Y-1753D01*
Y-1172D01*
X-11355D01*
Y-1172D01*
X-11471D01*
X-11557Y-890D01*
X-11488Y-725D01*
Y-545D01*
X-11557Y-380D01*
X-11658Y-279D01*
Y265D01*
X-10552Y1371D01*
X-8879D01*
X-8199Y691D01*
X-8108Y630D01*
X-8001Y609D01*
X-2144D01*
X-570Y-966D01*
X-625Y-1166D01*
X-675Y-1251D01*
X-825D01*
X-913Y-1268D01*
X-1000Y-1311D01*
X-1087Y-1268D01*
X-1175Y-1251D01*
X-1325D01*
X-1413Y-1268D01*
X-1500Y-1311D01*
X-1587Y-1268D01*
X-1675Y-1251D01*
X-1825D01*
X-1913Y-1268D01*
X-2000Y-1311D01*
X-2087Y-1268D01*
X-2175Y-1251D01*
X-2325D01*
X-2413Y-1268D01*
X-2500Y-1311D01*
X-2587Y-1268D01*
X-2675Y-1251D01*
X-2825D01*
X-2913Y-1268D01*
X-2946Y-1290D01*
X-3076Y-1237D01*
X-3255D01*
X-3421Y-1305D01*
X-3547Y-1432D01*
X-3592Y-1539D01*
X-3893Y-1665D01*
X-4077Y-1573D01*
X-4128Y-1496D01*
Y-1321D01*
X-4751D01*
X-4769Y-1294D01*
Y-1115D01*
X-4837Y-950D01*
X-4964Y-823D01*
X-5129Y-755D01*
X-5308D01*
X-5473Y-823D01*
X-5600Y-950D01*
X-5669Y-1115D01*
Y-1294D01*
X-5679Y-1311D01*
X-6086D01*
Y-2211D01*
X-5128D01*
Y-2221D01*
X-4307D01*
X-4153Y-2375D01*
X-4153Y-2375D01*
X-4054Y-2442D01*
X-3937Y-2465D01*
X-3923D01*
X-3841Y-2546D01*
X-3742Y-2613D01*
X-3625Y-2636D01*
X-3625Y-2636D01*
X-3400D01*
X-3283Y-2613D01*
X-3278Y-2609D01*
X-3175D01*
X-3087Y-2592D01*
X-3013Y-2542D01*
X-2963Y-2468D01*
X-2946Y-2380D01*
X-2862Y-2193D01*
X-2675Y-2109D01*
X-2587Y-2092D01*
X-2500Y-2049D01*
X-2413Y-2092D01*
X-2325Y-2109D01*
X-2175D01*
X-2087Y-2092D01*
X-2013Y-2042D01*
X-1987D01*
X-1913Y-2092D01*
X-1825Y-2109D01*
X-1675D01*
X-1587Y-2092D01*
X-1500Y-2049D01*
X-1413Y-2092D01*
X-1325Y-2109D01*
X-1175D01*
X-1087Y-2092D01*
X-1000Y-2049D01*
X-913Y-2092D01*
X-825Y-2109D01*
X-675D01*
X-587Y-2092D01*
X-513Y-2042D01*
X-487D01*
X-413Y-2092D01*
X-325Y-2109D01*
X-175D01*
X-87Y-2092D01*
X-13Y-2042D01*
X13D01*
X87Y-2092D01*
X175Y-2109D01*
X325D01*
X413Y-2092D01*
X487Y-2042D01*
X513D01*
X587Y-2092D01*
X675Y-2109D01*
X825D01*
X913Y-2092D01*
X1000Y-2049D01*
X1087Y-2092D01*
X1175Y-2109D01*
X1325D01*
X1413Y-2092D01*
X1500Y-2049D01*
X1587Y-2092D01*
X1675Y-2109D01*
X1825D01*
X1913Y-2092D01*
X1987Y-2042D01*
X2037Y-1968D01*
X2054Y-1880D01*
Y-1480D01*
X2037Y-1392D01*
X2030Y-1382D01*
Y1634D01*
X3249Y2852D01*
X3392D01*
X3557Y2921D01*
X3683Y3047D01*
X3752Y3212D01*
Y3343D01*
X3884Y3439D01*
X4029Y3490D01*
X4687Y2832D01*
Y1539D01*
X4709Y1431D01*
X4769Y1341D01*
X8586Y-2476D01*
Y-2880D01*
X8485Y-2981D01*
X8416Y-3146D01*
Y-3325D01*
X8485Y-3491D01*
X8611Y-3617D01*
X8777Y-3686D01*
X8956D01*
X9121Y-3617D01*
X9248Y-3491D01*
X9316Y-3325D01*
Y-3146D01*
X9248Y-2981D01*
X9147Y-2880D01*
Y-2360D01*
X9125Y-2253D01*
X9065Y-2162D01*
X7987Y-1085D01*
X8112Y-785D01*
X8147D01*
X8313Y-716D01*
X8439Y-589D01*
X8508Y-424D01*
Y-245D01*
X8439Y-80D01*
X8313Y47D01*
X8147Y115D01*
X8004D01*
X7760Y359D01*
Y1726D01*
X7980D01*
Y2442D01*
X7980Y2626D01*
X7980Y2926D01*
Y3642D01*
X7980D01*
X7932Y3923D01*
Y4102D01*
X7864Y4267D01*
X7737Y4394D01*
X7572Y4462D01*
X7393D01*
X7227Y4394D01*
X7101Y4267D01*
X7032Y4102D01*
Y3923D01*
X6980Y3642D01*
X6980Y3642D01*
Y2926D01*
X6980Y2742D01*
X6980Y2442D01*
Y1726D01*
X7199D01*
Y243D01*
X7221Y136D01*
X7282Y45D01*
X7069Y-166D01*
X5248Y1655D01*
Y2948D01*
X5227Y3056D01*
X5166Y3147D01*
X4932Y3381D01*
X4984Y3563D01*
X5045Y3692D01*
X5183Y3749D01*
X5309Y3876D01*
X5378Y4041D01*
Y4220D01*
X5309Y4386D01*
X5183Y4512D01*
X5017Y4581D01*
X4838D01*
X4673Y4512D01*
X4546Y4386D01*
X4489Y4248D01*
X4360Y4187D01*
X4178Y4135D01*
X3950Y4363D01*
X3859Y4423D01*
X3752Y4445D01*
X-13192D01*
X-13647Y4900D01*
Y5043D01*
X-13716Y5208D01*
X-13842Y5334D01*
X-14007Y5403D01*
X-14187D01*
X-14352Y5334D01*
X-14478Y5208D01*
X-14547Y5043D01*
Y4863D01*
X-14515Y4786D01*
X-14572Y4665D01*
X-14660Y4549D01*
X-14702Y4514D01*
X-14822D01*
X-14987Y4445D01*
X-15113Y4319D01*
X-15182Y4154D01*
Y3974D01*
X-15113Y3809D01*
X-14987Y3683D01*
X-14822Y3614D01*
X-14642D01*
X-14477Y3683D01*
X-14351Y3809D01*
X-14282Y3974D01*
Y4154D01*
X-14053Y4361D01*
X-13909Y4368D01*
X-13507Y3966D01*
X-13416Y3905D01*
X-13308Y3884D01*
X2823D01*
X2948Y3584D01*
X2921Y3557D01*
X2852Y3392D01*
Y3249D01*
X1832Y2229D01*
X1572Y2322D01*
X1530Y2350D01*
X1511Y2444D01*
X1450Y2536D01*
X842Y3144D01*
X750Y3205D01*
X642Y3226D01*
X642Y3226D01*
X-12068D01*
X-12068Y3226D01*
X-12176Y3205D01*
X-12268Y3144D01*
X-14837Y574D01*
X-14899Y483D01*
X-14920Y375D01*
X-15069Y182D01*
X-15353Y144D01*
X-15511Y206D01*
Y206D01*
X-15627Y206D01*
X-17061D01*
X-17118Y483D01*
Y609D01*
X-18418D01*
Y-941D01*
X-17118D01*
X-17061Y-1094D01*
X-15814D01*
X-15749Y-1159D01*
X-15583Y-1228D01*
X-15404D01*
X-15239Y-1159D01*
X-15112Y-1033D01*
X-15044Y-867D01*
Y-856D01*
X-14353D01*
Y144D01*
X-14223Y390D01*
X-11960Y2652D01*
X-11682Y2622D01*
X-11594Y2353D01*
X-11646Y2302D01*
X-11714Y2137D01*
Y1994D01*
X-11993Y1715D01*
X-12027D01*
X-12135Y1694D01*
X-12226Y1633D01*
X-12771Y1087D01*
X-12832Y996D01*
X-12853Y889D01*
Y-2321D01*
X-12989D01*
Y-3321D01*
X-12089D01*
Y-3321D01*
X-11973D01*
Y-3321D01*
X-11073D01*
Y-3059D01*
X-10773Y-2935D01*
X-10140Y-3568D01*
X-10140Y-3849D01*
X-10140Y-4149D01*
Y-4865D01*
X-9389D01*
X-9102Y-4898D01*
X-8865Y-5048D01*
X-8816Y-5089D01*
X-8805Y-5197D01*
Y-5316D01*
X-8721Y-5519D01*
X-8567Y-5673D01*
X-8364Y-5757D01*
X-8146D01*
X-8114Y-5744D01*
X-7549Y-6310D01*
X-7453Y-6607D01*
X-7971Y-7124D01*
X-7980Y-7130D01*
X-8610Y-7761D01*
X-9061D01*
X-9061Y-8611D01*
X-9061Y-8911D01*
Y-9511D01*
X-9186Y-9759D01*
X-9458D01*
Y-11159D01*
X-7858D01*
Y-9759D01*
X-8086D01*
X-8211Y-9511D01*
X-8211Y-8661D01*
X-8211Y-8160D01*
X-7580Y-7530D01*
X-7574Y-7521D01*
X-7139Y-7085D01*
X-6324D01*
X-6200Y-7385D01*
X-6439Y-7624D01*
X-6448Y-7630D01*
X-6578Y-7761D01*
X-7029D01*
X-7029Y-8611D01*
X-7029Y-8911D01*
Y-9511D01*
X-7154Y-9759D01*
X-7404D01*
Y-11159D01*
X-5804D01*
Y-9759D01*
X-6054D01*
X-6179Y-9511D01*
X-6179Y-8661D01*
X-6179Y-8160D01*
X-6048Y-8030D01*
X-6042Y-8021D01*
X-5607Y-7585D01*
X-4082D01*
X-3804Y-7730D01*
Y-7880D01*
X-3787Y-7968D01*
X-3737Y-8042D01*
X-3663Y-8092D01*
X-3575Y-8109D01*
X-3336D01*
X-3139Y-8194D01*
X-3054Y-8391D01*
Y-8627D01*
X-3538Y-9111D01*
X-3589Y-9186D01*
X-3925D01*
Y-10186D01*
Y-11114D01*
X-3772D01*
X-3660Y-11261D01*
X-3620Y-11291D01*
X-3571Y-11409D01*
X-3445Y-11536D01*
X-3279Y-11604D01*
X-3100D01*
X-2969Y-11550D01*
X-2831Y-11620D01*
X-2701Y-11726D01*
Y-11865D01*
X-2632Y-12031D01*
X-2506Y-12157D01*
X-2340Y-12226D01*
X-2161D01*
X-1996Y-12157D01*
X-1869Y-12031D01*
X-1801Y-11865D01*
Y-11722D01*
X-1199Y-11120D01*
X-1138Y-11029D01*
X-1117Y-10922D01*
Y-9883D01*
X-1112D01*
X-1152Y-9678D01*
X-1194Y-9615D01*
X-1268Y-9504D01*
X-1470Y-9287D01*
Y-9137D01*
X-1325Y-8859D01*
X-1175D01*
X-1087Y-8842D01*
X-1000Y-8799D01*
X-913Y-8842D01*
X-825Y-8859D01*
X-675D01*
X-587Y-8842D01*
X-500Y-8799D01*
X-413Y-8842D01*
X-325Y-8859D01*
X-175D01*
X-87Y-8842D01*
X0Y-8799D01*
X87Y-8842D01*
X175Y-8859D01*
X325D01*
X413Y-8842D01*
X552Y-8953D01*
X643Y-9014D01*
X750Y-9035D01*
X960Y-9241D01*
X974Y-9273D01*
X991Y-9358D01*
X1052Y-9449D01*
X1326Y-9723D01*
X1417Y-9784D01*
X1524Y-9805D01*
X2583D01*
Y-10085D01*
X3583D01*
Y-10085D01*
X3591Y-10082D01*
X4591D01*
Y-10082D01*
X4703Y-9959D01*
X5419D01*
X5603Y-9959D01*
X5903Y-9959D01*
X6619D01*
Y-9727D01*
X7627D01*
X7763Y-9700D01*
X7879Y-9622D01*
X11263Y-6238D01*
X11340Y-6123D01*
X11368Y-5986D01*
Y-5017D01*
X11430Y-4954D01*
X11499Y-4789D01*
Y-4609D01*
X11430Y-4444D01*
X11371Y-4384D01*
X11465Y-4084D01*
X12204D01*
Y-3961D01*
X12299Y-3942D01*
X12390Y-3881D01*
X12835Y-3437D01*
X12896Y-3346D01*
X12917Y-3239D01*
Y-2593D01*
X13197Y-2312D01*
X14235D01*
X15214Y-3291D01*
Y-3581D01*
X15113Y-3682D01*
X15044Y-3847D01*
Y-4027D01*
X15113Y-4192D01*
X15239Y-4318D01*
X15404Y-4387D01*
X15584D01*
X15870Y-4552D01*
X15931Y-4643D01*
X17328Y-6040D01*
X17419Y-6101D01*
X17526Y-6122D01*
X19254D01*
X19357Y-6422D01*
X19304Y-6476D01*
X19235Y-6641D01*
Y-6821D01*
X19304Y-6986D01*
X19430Y-7112D01*
X19595Y-7181D01*
X19775D01*
X19775Y-7181D01*
X21007Y-8414D01*
Y-11167D01*
X20117Y-12056D01*
X19815D01*
X19717Y-12076D01*
X19635Y-12131D01*
X18666Y-13100D01*
X17926D01*
Y-14300D01*
X17926D01*
X18033Y-14457D01*
Y-15457D01*
X18033D01*
X18006Y-15606D01*
X18006Y-15606D01*
X18006Y-15746D01*
Y-16906D01*
X19256D01*
Y-15606D01*
X19171D01*
X18933Y-15457D01*
Y-14457D01*
X19026Y-14300D01*
X19026D01*
Y-13460D01*
X19921Y-12566D01*
X20223D01*
X20321Y-12547D01*
X20403Y-12491D01*
X21442Y-11452D01*
X21497Y-11370D01*
X21517Y-11272D01*
Y-8308D01*
X21497Y-8210D01*
X21442Y-8128D01*
X20135Y-6821D01*
X20135Y-6821D01*
Y-6641D01*
X20066Y-6476D01*
X20013Y-6422D01*
X20116Y-6122D01*
X29468D01*
X29575Y-6101D01*
X29666Y-6040D01*
X29813Y-5894D01*
X29873Y-5803D01*
X29895Y-5696D01*
Y-5600D01*
X30885D01*
Y-4630D01*
X30885Y-4560D01*
Y-4330D01*
X31115Y-4090D01*
X31545D01*
Y-4193D01*
X32845D01*
Y-2943D01*
X31545D01*
Y-3530D01*
X31097D01*
X30885Y-3317D01*
Y-3060D01*
X30885Y-2990D01*
Y-2020D01*
X27795D01*
Y-2990D01*
X27795Y-3060D01*
Y-3290D01*
X27795Y-3360D01*
Y-4260D01*
X27795Y-4330D01*
Y-4560D01*
X27795Y-4630D01*
Y-5562D01*
X26815D01*
Y-4630D01*
X26815Y-4560D01*
Y-4330D01*
X26815Y-4260D01*
Y-3360D01*
X26815Y-3290D01*
Y-3060D01*
X26815Y-2990D01*
Y-2090D01*
X26815Y-2020D01*
Y-1790D01*
X26815Y-1720D01*
Y-820D01*
X26815Y-750D01*
Y-520D01*
X26815Y-450D01*
Y450D01*
X26815Y520D01*
Y750D01*
X26815Y820D01*
Y1790D01*
X23725D01*
Y1550D01*
X19177D01*
X19070Y1529D01*
X18979Y1468D01*
X18044Y534D01*
X17941Y577D01*
X17761D01*
X17596Y508D01*
X17471Y384D01*
X17460Y384D01*
X17171Y446D01*
Y889D01*
X17150Y996D01*
X17089Y1087D01*
X16895Y1282D01*
X16947Y1464D01*
X17008Y1593D01*
X17146Y1651D01*
X17272Y1777D01*
X17341Y1942D01*
Y2122D01*
X17272Y2287D01*
X17146Y2413D01*
X16981Y2482D01*
X16801D01*
X16636Y2413D01*
X16510Y2287D01*
X16441Y2122D01*
Y2064D01*
X16304Y1872D01*
X16173Y1804D01*
X14453D01*
X14352Y1905D01*
X14187Y1974D01*
X14044D01*
X12726Y3291D01*
Y8131D01*
X12819Y8170D01*
X12974Y8324D01*
X13058Y8527D01*
Y8745D01*
X12974Y8948D01*
X12819Y9102D01*
X12617Y9186D01*
X12603D01*
X12384Y9436D01*
X12383Y9463D01*
Y9656D01*
X12299Y9858D01*
X12159Y9998D01*
X12164Y10073D01*
X12240Y10298D01*
X14486D01*
Y10109D01*
X15486D01*
Y10298D01*
X15989D01*
Y9653D01*
X17539D01*
Y9653D01*
X17654Y9639D01*
Y9639D01*
X17833Y9639D01*
X18954D01*
Y9972D01*
X19254Y10084D01*
X19404Y9931D01*
Y9389D01*
X22317D01*
X22617Y9389D01*
X22717Y9389D01*
X25281D01*
Y8789D01*
X25951D01*
X26132Y8553D01*
Y8211D01*
X26221Y7880D01*
X26298Y7747D01*
X26221Y7614D01*
X26132Y7283D01*
Y6941D01*
X26221Y6610D01*
X26334Y6413D01*
X26221Y6217D01*
X26132Y5886D01*
Y5544D01*
X26221Y5213D01*
X26298Y5080D01*
X26221Y4947D01*
X26132Y4616D01*
Y4274D01*
X26221Y3943D01*
X26392Y3647D01*
X26634Y3405D01*
X26930Y3234D01*
X27261Y3145D01*
X27530D01*
X27626Y3114D01*
X27795Y2886D01*
Y2090D01*
X27795Y2020D01*
Y1790D01*
X27795Y1720D01*
Y750D01*
X30520D01*
X30750Y450D01*
X30735Y394D01*
Y52D01*
X30824Y-279D01*
X30995Y-575D01*
X31237Y-817D01*
X31533Y-988D01*
X31677Y-1027D01*
X31820Y-1170D01*
X32056Y-1351D01*
X32330Y-1464D01*
X32624Y-1503D01*
X32691D01*
X33788Y-2600D01*
Y-6768D01*
X33434Y-7123D01*
X33434Y-7123D01*
X33359Y-7197D01*
X33179Y-7433D01*
X33107Y-7605D01*
X33065Y-7707D01*
X33065Y-7707D01*
X33052Y-7808D01*
X33026Y-8001D01*
Y-8211D01*
X33027Y-8213D01*
X33026Y-8215D01*
X33062Y-18933D01*
X32952Y-19031D01*
X32763Y-19126D01*
X32660Y-19099D01*
X32489D01*
X32324Y-19143D01*
X32176Y-19229D01*
X32055Y-19350D01*
X31969Y-19498D01*
X31925Y-19663D01*
Y-19834D01*
X31969Y-20000D01*
X32055Y-20148D01*
X32176Y-20269D01*
X32324Y-20355D01*
X32489Y-20399D01*
X32660D01*
X32762Y-20372D01*
X32953Y-20468D01*
X33061Y-20565D01*
X33054Y-21943D01*
X32983Y-21990D01*
X32753Y-22049D01*
X32688Y-21983D01*
X32539Y-21897D01*
X32374Y-21853D01*
X32203D01*
X32038Y-21897D01*
X31889Y-21983D01*
X31768Y-22104D01*
X31683Y-22252D01*
X31639Y-22418D01*
Y-22589D01*
X31683Y-22754D01*
X31768Y-22902D01*
X31889Y-23023D01*
X32038Y-23109D01*
X32203Y-23153D01*
X32374D01*
X32539Y-23109D01*
X32688Y-23023D01*
X32749Y-22962D01*
X33000Y-23034D01*
X33048Y-23068D01*
X33045Y-23741D01*
X33045Y-23743D01*
X33045Y-23746D01*
X33064Y-23890D01*
X33082Y-24035D01*
X33083Y-24038D01*
X33083Y-24041D01*
X33139Y-24175D01*
X33194Y-24310D01*
X33196Y-24312D01*
X33197Y-24315D01*
X33286Y-24430D01*
X33313Y-24467D01*
Y-24910D01*
X33155Y-24993D01*
X33013Y-25015D01*
X32926Y-24928D01*
X32778Y-24843D01*
X32613Y-24798D01*
X32441D01*
X32276Y-24843D01*
X32128Y-24928D01*
X32007Y-25049D01*
X31921Y-25197D01*
X31877Y-25363D01*
Y-25534D01*
X31921Y-25699D01*
X32007Y-25847D01*
X32128Y-25968D01*
X32276Y-26054D01*
X32441Y-26098D01*
X32613D01*
X32778Y-26054D01*
X32926Y-25968D01*
X33013Y-25881D01*
X33155Y-25904D01*
X33313Y-25986D01*
Y-29521D01*
X33197Y-29594D01*
X33013Y-29635D01*
X32802Y-29424D01*
X32499Y-29222D01*
X32163Y-29082D01*
X31805Y-29011D01*
X31441D01*
X31083Y-29082D01*
X30747Y-29222D01*
X30444Y-29424D01*
X30186Y-29682D01*
X29984Y-29985D01*
X29844Y-30321D01*
X29773Y-30679D01*
Y-31043D01*
X29844Y-31401D01*
X29984Y-31737D01*
X30186Y-32040D01*
X30444Y-32298D01*
X30747Y-32500D01*
X31083Y-32640D01*
X31441Y-32711D01*
X31805D01*
X31875Y-32697D01*
X31911Y-32715D01*
X32103Y-32958D01*
X32041Y-33187D01*
Y-33556D01*
X32137Y-33912D01*
X32321Y-34231D01*
X32582Y-34492D01*
X32901Y-34676D01*
X33257Y-34772D01*
X33626D01*
X33982Y-34676D01*
X34301Y-34492D01*
X34562Y-34231D01*
X34746Y-33912D01*
X34833Y-33588D01*
X35197Y-33224D01*
X35413Y-33282D01*
X35497Y-33343D01*
Y-43673D01*
X-36006D01*
X-36218Y-43460D01*
X-36193Y-32710D01*
X-35893Y-32585D01*
X-35681Y-32707D01*
X-35350Y-32796D01*
X-35008D01*
X-34677Y-32707D01*
X-34381Y-32536D01*
X-34139Y-32294D01*
X-33968Y-31998D01*
X-33879Y-31667D01*
Y-31325D01*
X-33968Y-30994D01*
X-34042Y-30865D01*
Y-26330D01*
X-33768Y-26150D01*
X-33742Y-26151D01*
X-33596Y-26190D01*
X-33425D01*
X-33260Y-26146D01*
X-33112Y-26060D01*
X-32991Y-25939D01*
X-32905Y-25791D01*
X-32861Y-25626D01*
Y-25455D01*
X-32905Y-25289D01*
X-32991Y-25141D01*
X-33112Y-25020D01*
X-33260Y-24935D01*
X-33425Y-24890D01*
X-33596D01*
X-33742Y-24929D01*
X-33768Y-24931D01*
X-34042Y-24750D01*
Y-23152D01*
X-33949Y-23093D01*
X-33742Y-23044D01*
X-33671Y-23115D01*
X-33523Y-23201D01*
X-33358Y-23245D01*
X-33187D01*
X-33021Y-23201D01*
X-32873Y-23115D01*
X-32752Y-22994D01*
X-32667Y-22846D01*
X-32622Y-22681D01*
Y-22510D01*
X-32667Y-22344D01*
X-32752Y-22196D01*
X-32873Y-22075D01*
X-33021Y-21990D01*
X-33187Y-21945D01*
X-33358D01*
X-33523Y-21990D01*
X-33671Y-22075D01*
X-33742Y-22146D01*
X-33949Y-22097D01*
X-34042Y-22039D01*
Y-20523D01*
X-33891Y-20428D01*
X-33742Y-20382D01*
X-33633Y-20445D01*
X-33468Y-20489D01*
X-33297D01*
X-33131Y-20445D01*
X-32983Y-20359D01*
X-32862Y-20238D01*
X-32777Y-20090D01*
X-32732Y-19925D01*
Y-19754D01*
X-32777Y-19588D01*
X-32862Y-19440D01*
X-32983Y-19319D01*
X-33131Y-19234D01*
X-33297Y-19189D01*
X-33468D01*
X-33633Y-19234D01*
X-33742Y-19297D01*
X-33891Y-19251D01*
X-34042Y-19156D01*
Y-3646D01*
X-33486Y-3090D01*
X-33306Y-2854D01*
X-33192Y-2580D01*
X-33153Y-2286D01*
Y-1901D01*
X-33079Y-1772D01*
X-32990Y-1441D01*
Y-1099D01*
X-33079Y-768D01*
X-33250Y-472D01*
X-33492Y-230D01*
X-33788Y-59D01*
X-34119Y30D01*
X-34461D01*
X-34792Y-59D01*
X-35088Y-230D01*
X-35330Y-472D01*
X-35501Y-768D01*
X-35590Y-1099D01*
Y-1441D01*
X-35501Y-1772D01*
X-35458Y-1847D01*
X-35823Y-2211D01*
X-36122Y-2086D01*
X-36016Y43576D01*
X35497D01*
Y-701D01*
D02*
G37*
G36*
X11209Y10125D02*
X11266Y10028D01*
X11341Y9797D01*
X11283Y9656D01*
Y9437D01*
X11366Y9235D01*
X11521Y9080D01*
X11552Y9068D01*
Y8653D01*
X11493Y8619D01*
X11252Y8561D01*
X11177Y8636D01*
X11012Y8705D01*
X10832D01*
X10667Y8636D01*
X10541Y8510D01*
X10472Y8345D01*
Y8165D01*
X10541Y8000D01*
X10667Y7874D01*
X10692Y7863D01*
Y6846D01*
X10496Y6765D01*
X10392Y6754D01*
X10288Y6858D01*
X10123Y6927D01*
X9943D01*
X9778Y6858D01*
X9652Y6732D01*
X9583Y6567D01*
Y6424D01*
X8774Y5614D01*
X3733D01*
X3630Y5914D01*
X3683Y5968D01*
X3752Y6133D01*
Y6276D01*
X4180Y6705D01*
X7620D01*
X7727Y6726D01*
X7818Y6787D01*
X11165Y10133D01*
X11209Y10125D01*
D02*
G37*
G36*
X23725Y777D02*
Y520D01*
X23495Y280D01*
X19097D01*
X18990Y259D01*
X18981Y253D01*
X18790Y486D01*
X19293Y990D01*
X23513D01*
X23725Y777D01*
D02*
G37*
G36*
X580Y2494D02*
X450Y2203D01*
X52D01*
Y1203D01*
X215D01*
Y225D01*
X-85Y101D01*
X-1257Y1272D01*
X-1314Y1311D01*
X-1584Y1580D01*
X-1675Y1641D01*
X-1782Y1662D01*
X-7646D01*
X-8283Y2299D01*
X-8374Y2360D01*
X-8381Y2361D01*
X-8352Y2661D01*
X450D01*
X580Y2494D01*
D02*
G37*
G36*
X4572Y635D02*
Y-254D01*
X4699Y-381D01*
Y-1270D01*
X4064Y-1905D01*
Y-2159D01*
X3810Y-2413D01*
X3048D01*
Y-2032D01*
X2794D01*
X2626Y-1356D01*
X2966Y-1016D01*
X3175D01*
X3556Y-635D01*
Y1016D01*
X4191D01*
X4572Y635D01*
D02*
G37*
G36*
X17596Y-254D02*
X17761Y-323D01*
X17862D01*
X17971Y-361D01*
X18139Y-566D01*
Y-598D01*
X18208Y-763D01*
X18334Y-889D01*
X18499Y-958D01*
X18679D01*
X18844Y-889D01*
X18970Y-763D01*
X19039Y-598D01*
Y-455D01*
X19213Y-280D01*
X23513D01*
X23725Y-493D01*
Y-750D01*
X23725Y-820D01*
Y-1720D01*
X23725Y-1790D01*
Y-2020D01*
X23725Y-2090D01*
Y-2990D01*
X23725Y-3060D01*
Y-3290D01*
X23725Y-3357D01*
X23717Y-3657D01*
X18517D01*
X18416Y-3556D01*
X18251Y-3487D01*
X18071D01*
X17906Y-3556D01*
X17780Y-3682D01*
X17711Y-3847D01*
Y-4027D01*
X17737Y-4089D01*
X17483Y-4259D01*
X17171Y-3948D01*
Y-192D01*
X17460Y-130D01*
X17471Y-130D01*
X17596Y-254D01*
D02*
G37*
G36*
X23725Y-4330D02*
Y-4560D01*
X23495Y-4800D01*
X18062D01*
X17956Y-4664D01*
X18019Y-4513D01*
X18120Y-4387D01*
X18251D01*
X18416Y-4318D01*
X18517Y-4217D01*
X23612D01*
X23725Y-4330D01*
D02*
G37*
G36*
X10387Y-4338D02*
X10599Y-4609D01*
Y-4789D01*
X10654Y-4921D01*
Y-5838D01*
X7479Y-9013D01*
X6619D01*
Y-8959D01*
X5903D01*
X5719Y-8959D01*
X5419Y-8959D01*
X4703D01*
X4591Y-9182D01*
X3591D01*
Y-9182D01*
X3583Y-9185D01*
X2583D01*
Y-9245D01*
X1812D01*
X1758Y-9159D01*
X1783Y-9051D01*
X1913Y-8842D01*
X1987Y-8792D01*
X2013D01*
X2087Y-8842D01*
X2175Y-8859D01*
X2325D01*
X2413Y-8842D01*
X2487Y-8792D01*
X2513D01*
X2587Y-8842D01*
X2675Y-8859D01*
X2825D01*
X2913Y-8842D01*
X2987Y-8792D01*
X3037Y-8718D01*
X3054Y-8630D01*
Y-8391D01*
X3139Y-8194D01*
X3336Y-8109D01*
X3575D01*
X3663Y-8092D01*
X3673Y-8085D01*
X4089D01*
X4319Y-8315D01*
X4410Y-8376D01*
X4518Y-8398D01*
X7152D01*
X7259Y-8376D01*
X7350Y-8315D01*
X9068Y-6597D01*
X9129Y-6506D01*
X9151Y-6399D01*
Y-5939D01*
X9155Y-5938D01*
X9282Y-5811D01*
X9350Y-5646D01*
Y-5467D01*
X9282Y-5301D01*
X9258Y-5277D01*
X9382Y-4977D01*
X9558D01*
X9665Y-4956D01*
X9756Y-4895D01*
X10326Y-4326D01*
X10387Y-4338D01*
D02*
G37*
%LPC*%
G36*
X22692Y41798D02*
X22520D01*
X22355Y41754D01*
X22207Y41668D01*
X22086Y41547D01*
X22000Y41399D01*
X21956Y41234D01*
Y41062D01*
X22000Y40897D01*
X22086Y40749D01*
X22133Y40702D01*
X22179Y40513D01*
X22133Y40324D01*
X22086Y40277D01*
X22000Y40129D01*
X21956Y39964D01*
Y39792D01*
X22000Y39627D01*
X22086Y39479D01*
X22207Y39358D01*
X22355Y39272D01*
X22520Y39228D01*
X22692D01*
X22857Y39272D01*
X23005Y39358D01*
X23126Y39479D01*
X23212Y39627D01*
X23256Y39792D01*
Y39964D01*
X23212Y40129D01*
X23126Y40277D01*
X23079Y40324D01*
X23033Y40513D01*
X23079Y40702D01*
X23126Y40749D01*
X23212Y40897D01*
X23256Y41062D01*
Y41234D01*
X23212Y41399D01*
X23126Y41547D01*
X23005Y41668D01*
X22857Y41754D01*
X22692Y41798D01*
D02*
G37*
G36*
X9488Y39947D02*
X9308D01*
X9143Y39878D01*
X9017Y39752D01*
X8948Y39587D01*
Y39407D01*
X9017Y39242D01*
X9143Y39116D01*
X9308Y39047D01*
X9383D01*
Y39042D01*
X10683D01*
Y39942D01*
X9500D01*
X9488Y39947D01*
D02*
G37*
G36*
X25613Y41798D02*
X25441D01*
X25276Y41754D01*
X25128Y41668D01*
X25007Y41547D01*
X24921Y41399D01*
X24877Y41234D01*
Y41062D01*
X24921Y40897D01*
X25007Y40749D01*
X25128Y40628D01*
X25276Y40542D01*
X25280Y40541D01*
Y40231D01*
X25276Y40230D01*
X25128Y40144D01*
X25007Y40023D01*
X24921Y39875D01*
X24877Y39710D01*
Y39538D01*
X24921Y39373D01*
X25007Y39225D01*
X25128Y39104D01*
X25276Y39018D01*
X25441Y38974D01*
X25613D01*
X25778Y39018D01*
X25926Y39104D01*
X26047Y39225D01*
X26133Y39373D01*
X26177Y39538D01*
Y39710D01*
X26133Y39875D01*
X26047Y40023D01*
X25926Y40144D01*
X25778Y40230D01*
X25774Y40231D01*
Y40541D01*
X25778Y40542D01*
X25926Y40628D01*
X26047Y40749D01*
X26133Y40897D01*
X26177Y41062D01*
Y41234D01*
X26133Y41399D01*
X26047Y41547D01*
X25926Y41668D01*
X25778Y41754D01*
X25613Y41798D01*
D02*
G37*
G36*
X-26330Y41163D02*
X-26502D01*
X-26667Y41119D01*
X-26815Y41033D01*
X-26936Y40912D01*
X-27022Y40764D01*
X-27066Y40599D01*
Y40427D01*
X-27022Y40262D01*
X-26936Y40114D01*
X-26889Y40067D01*
X-26843Y39878D01*
X-26889Y39689D01*
X-26936Y39642D01*
X-27022Y39494D01*
X-27066Y39329D01*
Y39157D01*
X-27022Y38992D01*
X-26936Y38844D01*
X-26815Y38723D01*
X-26667Y38637D01*
X-26502Y38593D01*
X-26330D01*
X-26165Y38637D01*
X-26017Y38723D01*
X-25896Y38844D01*
X-25810Y38992D01*
X-25766Y39157D01*
Y39329D01*
X-25810Y39494D01*
X-25896Y39642D01*
X-25943Y39689D01*
X-25989Y39878D01*
X-25943Y40067D01*
X-25896Y40114D01*
X-25810Y40262D01*
X-25766Y40427D01*
Y40599D01*
X-25810Y40764D01*
X-25896Y40912D01*
X-26017Y41033D01*
X-26165Y41119D01*
X-26330Y41163D01*
D02*
G37*
G36*
X-23409D02*
X-23581D01*
X-23746Y41119D01*
X-23894Y41033D01*
X-24015Y40912D01*
X-24101Y40764D01*
X-24145Y40599D01*
Y40427D01*
X-24101Y40262D01*
X-24015Y40114D01*
X-23894Y39993D01*
X-23746Y39907D01*
X-23742Y39906D01*
Y39596D01*
X-23746Y39595D01*
X-23894Y39509D01*
X-24015Y39388D01*
X-24101Y39240D01*
X-24145Y39075D01*
Y38903D01*
X-24101Y38738D01*
X-24015Y38590D01*
X-23894Y38469D01*
X-23746Y38383D01*
X-23581Y38339D01*
X-23409D01*
X-23244Y38383D01*
X-23096Y38469D01*
X-22975Y38590D01*
X-22889Y38738D01*
X-22845Y38903D01*
Y39075D01*
X-22889Y39240D01*
X-22975Y39388D01*
X-23096Y39509D01*
X-23244Y39595D01*
X-23248Y39596D01*
Y39906D01*
X-23244Y39907D01*
X-23096Y39993D01*
X-22975Y40114D01*
X-22889Y40262D01*
X-22845Y40427D01*
Y40599D01*
X-22889Y40764D01*
X-22975Y40912D01*
X-23096Y41033D01*
X-23244Y41119D01*
X-23409Y41163D01*
D02*
G37*
G36*
X32091Y41450D02*
X31637D01*
X31193Y41362D01*
X30775Y41188D01*
X30398Y40937D01*
X30077Y40616D01*
X29826Y40239D01*
X29652Y39821D01*
X29564Y39377D01*
Y38923D01*
X29652Y38479D01*
X29826Y38061D01*
X30077Y37684D01*
X30398Y37363D01*
X30775Y37112D01*
X31193Y36938D01*
X31637Y36850D01*
X32091D01*
X32535Y36938D01*
X32953Y37112D01*
X33330Y37363D01*
X33651Y37684D01*
X33902Y38061D01*
X34076Y38479D01*
X34164Y38923D01*
Y39377D01*
X34076Y39821D01*
X33902Y40239D01*
X33651Y40616D01*
X33330Y40937D01*
X32953Y41188D01*
X32535Y41362D01*
X32091Y41450D01*
D02*
G37*
G36*
X-32158D02*
X-32612D01*
X-33056Y41362D01*
X-33474Y41188D01*
X-33851Y40937D01*
X-34172Y40616D01*
X-34423Y40239D01*
X-34597Y39821D01*
X-34685Y39377D01*
Y38923D01*
X-34597Y38479D01*
X-34423Y38061D01*
X-34172Y37684D01*
X-33851Y37363D01*
X-33474Y37112D01*
X-33056Y36938D01*
X-32612Y36850D01*
X-32158D01*
X-31714Y36938D01*
X-31296Y37112D01*
X-30919Y37363D01*
X-30598Y37684D01*
X-30347Y38061D01*
X-30173Y38479D01*
X-30085Y38923D01*
Y39377D01*
X-30173Y39821D01*
X-30347Y40239D01*
X-30598Y40616D01*
X-30919Y40937D01*
X-31296Y41188D01*
X-31714Y41362D01*
X-32158Y41450D01*
D02*
G37*
G36*
X17808Y40020D02*
X16558D01*
Y38720D01*
X17409D01*
X17752Y38377D01*
Y35359D01*
X17460Y35067D01*
X16868D01*
X16762Y35067D01*
X16734Y35104D01*
X16651Y35367D01*
X16832Y35548D01*
X17026Y35838D01*
X17160Y36161D01*
X17228Y36504D01*
Y36854D01*
X17160Y37197D01*
X17026Y37520D01*
X16832Y37811D01*
X16584Y38058D01*
X16294Y38252D01*
X15971Y38386D01*
X15799Y38420D01*
X15828Y38720D01*
X16208D01*
Y40020D01*
X14958D01*
Y39652D01*
X13111D01*
X13111Y39652D01*
X13003Y39631D01*
X12911Y39570D01*
X12334Y38992D01*
X11433D01*
Y38092D01*
X12733D01*
Y38593D01*
X13228Y39088D01*
X14958D01*
Y38720D01*
X15078D01*
X15107Y38420D01*
X14935Y38386D01*
X14612Y38252D01*
X14321Y38058D01*
X14074Y37811D01*
X13880Y37520D01*
X13746Y37197D01*
X13678Y36854D01*
Y36504D01*
X13746Y36161D01*
X13880Y35838D01*
X13885Y35831D01*
X13652Y35640D01*
X12983Y36308D01*
X12996Y36340D01*
Y36558D01*
X12912Y36761D01*
X12758Y36915D01*
X12555Y36999D01*
X12337D01*
X12134Y36915D01*
X11980Y36761D01*
X11896Y36558D01*
Y36340D01*
X11980Y36137D01*
X12011Y36106D01*
X11887Y35806D01*
X11131D01*
X11024Y35785D01*
X10793Y35824D01*
X10598Y36019D01*
X10358Y36157D01*
X10091Y36229D01*
X9815D01*
X9548Y36157D01*
X9308Y36019D01*
X9113Y35824D01*
X8975Y35584D01*
X8903Y35317D01*
Y35041D01*
X8975Y34774D01*
X9060Y34625D01*
X8952Y34377D01*
X8899Y34325D01*
X8579Y34325D01*
X8573D01*
X8573D01*
X8509Y34325D01*
X8506Y34324D01*
X8358Y34470D01*
X8313Y34569D01*
X8431Y34774D01*
X8503Y35041D01*
Y35317D01*
X8431Y35584D01*
X8293Y35824D01*
X8098Y36019D01*
X7858Y36157D01*
X7810Y36170D01*
Y36556D01*
X7783Y36693D01*
X7705Y36808D01*
X7504Y37010D01*
X7804Y37310D01*
X9383D01*
Y37142D01*
X10683D01*
Y38042D01*
X9383D01*
Y37874D01*
X7687D01*
X7579Y37853D01*
X7487Y37792D01*
X7487Y37792D01*
X7009Y37314D01*
X6124D01*
Y37607D01*
X4874D01*
Y36550D01*
X4824Y36512D01*
X4732Y36535D01*
X4524Y36736D01*
Y37607D01*
X3274D01*
Y36740D01*
X2727Y36193D01*
X2591Y36229D01*
X2315D01*
X2048Y36157D01*
X1808Y36019D01*
X1613Y35824D01*
X1475Y35584D01*
X1403Y35317D01*
Y35041D01*
X1475Y34774D01*
X1613Y34534D01*
X1808Y34339D01*
X2048Y34201D01*
X2315Y34129D01*
X2591D01*
X2858Y34201D01*
X3098Y34339D01*
X3293Y34534D01*
X3431Y34774D01*
X3503Y35041D01*
Y35317D01*
X3431Y35584D01*
X3293Y35824D01*
X3258Y35859D01*
X3707Y36307D01*
X4207D01*
X4293Y36063D01*
X4296Y36007D01*
X4113Y35824D01*
X3975Y35584D01*
X3903Y35317D01*
Y35041D01*
X3975Y34774D01*
X4113Y34534D01*
X4308Y34339D01*
X4548Y34201D01*
X4815Y34129D01*
X5091D01*
X5358Y34201D01*
X5598Y34339D01*
X5793Y34534D01*
X5931Y34774D01*
X6003Y35041D01*
Y35317D01*
X5931Y35584D01*
X5793Y35824D01*
X5610Y36007D01*
X5613Y36063D01*
X5699Y36307D01*
X6124D01*
Y36600D01*
X6808D01*
X6991Y36416D01*
X6949Y36101D01*
X6808Y36019D01*
X6613Y35824D01*
X6475Y35584D01*
X6403Y35317D01*
Y35041D01*
X6475Y34774D01*
X6613Y34534D01*
X6808Y34339D01*
X7048Y34201D01*
X7315Y34129D01*
X7591D01*
X7858Y34201D01*
X8094Y34337D01*
X8105Y34334D01*
X8347Y34164D01*
X8347Y34163D01*
X8347Y34093D01*
Y33195D01*
X8225Y33109D01*
X8047Y33049D01*
X7858Y33157D01*
X7591Y33229D01*
X7315D01*
X7048Y33157D01*
X6808Y33019D01*
X6613Y32824D01*
X6475Y32584D01*
X6403Y32317D01*
Y32041D01*
X6475Y31774D01*
X6466Y31749D01*
X6397Y31720D01*
X6349Y31605D01*
X6349Y30902D01*
X6344Y30798D01*
X6303Y30590D01*
X6223Y30397D01*
X6105Y30220D01*
X6035Y30143D01*
X4982Y29090D01*
X4978Y29080D01*
X4968Y29075D01*
X4811Y28872D01*
X4807Y28856D01*
X4794Y28845D01*
X4565Y28385D01*
X4564Y28369D01*
X4554Y28356D01*
X4419Y27860D01*
X4421Y27844D01*
X4413Y27829D01*
X4378Y27317D01*
X4383Y27301D01*
X4379Y27285D01*
X4410Y27041D01*
X4410Y23396D01*
X4381Y23179D01*
X4384Y23169D01*
X4380Y23158D01*
X4380Y22701D01*
X4384Y22690D01*
X4381Y22680D01*
X4441Y22226D01*
X4446Y22216D01*
X4445Y22205D01*
X4563Y21763D01*
X4570Y21754D01*
X4570Y21743D01*
X4745Y21320D01*
X4753Y21312D01*
X4754Y21301D01*
X4983Y20905D01*
X4992Y20898D01*
X4995Y20887D01*
X5273Y20524D01*
X5283Y20519D01*
X5287Y20508D01*
X5610Y20185D01*
X5621Y20180D01*
X5626Y20171D01*
X5989Y19892D01*
X6000Y19889D01*
X6007Y19880D01*
X6403Y19651D01*
X6414Y19650D01*
X6422Y19642D01*
X6845Y19467D01*
X6856Y19467D01*
X6865Y19460D01*
X7307Y19341D01*
X7318Y19343D01*
X7328Y19337D01*
X7554Y19307D01*
X7565Y19310D01*
X7576Y19306D01*
X10826D01*
X10841Y19312D01*
X10858Y19309D01*
X11348Y19407D01*
X11362Y19416D01*
X11379D01*
X11458Y19449D01*
X11628Y19195D01*
X8946Y16512D01*
X8885Y16421D01*
X8864Y16314D01*
Y13306D01*
X8832Y13293D01*
X8678Y13139D01*
X8594Y12936D01*
Y12718D01*
X8678Y12515D01*
X8832Y12361D01*
X9035Y12277D01*
X9143D01*
X9379Y12029D01*
X9375Y11804D01*
X9313Y11742D01*
X9229Y11539D01*
Y11321D01*
X9313Y11118D01*
X9467Y10964D01*
X9670Y10880D01*
X9888D01*
X10091Y10964D01*
X10245Y11118D01*
X10329Y11321D01*
Y11539D01*
X10245Y11742D01*
X10091Y11896D01*
X10059Y11909D01*
Y12412D01*
X10078Y12440D01*
X10099Y12547D01*
Y13107D01*
X10078Y13214D01*
X10059Y13242D01*
Y15759D01*
X14676Y20376D01*
X14737Y20467D01*
X14758Y20574D01*
Y34417D01*
X14737Y34524D01*
X14676Y34615D01*
X14414Y34878D01*
X14605Y35111D01*
X14612Y35106D01*
X14935Y34972D01*
X15278Y34904D01*
X15628D01*
X15971Y34972D01*
X16294Y35106D01*
X16337Y35135D01*
X16609Y34956D01*
X16609Y34835D01*
X16609Y34835D01*
X16609Y34830D01*
Y34096D01*
X16604Y34069D01*
X16604Y34069D01*
Y33563D01*
X15739D01*
Y31663D01*
X17039D01*
Y33164D01*
X17086Y33210D01*
X17086Y33210D01*
X17147Y33302D01*
X17168Y33410D01*
X17168Y33410D01*
Y33767D01*
X17859D01*
Y34446D01*
X17882Y34461D01*
X17956Y34450D01*
X18193Y34308D01*
X18201Y34247D01*
X18209Y34227D01*
Y33767D01*
X18791D01*
X18834Y33761D01*
X18877Y33767D01*
X19459D01*
Y34119D01*
X19493Y34164D01*
X19789Y34232D01*
X19807Y34232D01*
X19865Y34216D01*
X20293Y33788D01*
Y32899D01*
X19828D01*
X19658Y32877D01*
X19500Y32811D01*
X19364Y32707D01*
X19313Y32655D01*
X19287Y32621D01*
X19256Y32591D01*
X19235Y32554D01*
X19209Y32520D01*
X19192Y32480D01*
X19171Y32443D01*
X19160Y32401D01*
X19143Y32362D01*
X19138Y32319D01*
X19126Y32277D01*
Y32234D01*
X19121Y32192D01*
X19126Y32149D01*
Y32106D01*
X19138Y32065D01*
X19143Y32022D01*
X19160Y31982D01*
X19171Y31941D01*
X19192Y31904D01*
X19209Y31864D01*
X19235Y31830D01*
X19256Y31793D01*
X19287Y31762D01*
X19313Y31728D01*
X19347Y31702D01*
X19377Y31672D01*
X19414Y31650D01*
X19449Y31624D01*
X19488Y31608D01*
X19525Y31586D01*
X19567Y31575D01*
X19607Y31559D01*
X19649Y31553D01*
X19691Y31542D01*
X19734D01*
X19776Y31536D01*
X19819Y31542D01*
X19862D01*
X19903Y31553D01*
X19946Y31559D01*
X19986Y31575D01*
X20027Y31586D01*
X20030Y31588D01*
X20880D01*
X21049Y31610D01*
X21177Y31663D01*
X21599D01*
Y32270D01*
X21605Y32313D01*
X21599Y32356D01*
Y32570D01*
X21605Y32613D01*
Y34133D01*
X21582Y34303D01*
X21517Y34461D01*
X21413Y34596D01*
X21372Y34637D01*
X21338Y34664D01*
X21307Y34694D01*
X21270Y34715D01*
X21236Y34742D01*
X21196Y34758D01*
X21159Y34779D01*
X21156Y34780D01*
X20043Y35893D01*
X19907Y35997D01*
X19749Y36062D01*
X19580Y36085D01*
X19287D01*
X19284Y36086D01*
X19242Y36098D01*
X19203Y36114D01*
X19160Y36120D01*
X19118Y36131D01*
X19075D01*
X19033Y36136D01*
X18990Y36131D01*
X18947D01*
X18906Y36120D01*
X18863Y36114D01*
X18823Y36098D01*
X18782Y36086D01*
X18745Y36065D01*
X18705Y36049D01*
X18671Y36022D01*
X18634Y36001D01*
X18616Y35984D01*
X18549Y35988D01*
X18468Y36013D01*
X18316Y36116D01*
Y38494D01*
X18316Y38494D01*
X18295Y38602D01*
X18234Y38694D01*
X18234Y38694D01*
X17808Y39119D01*
Y40020D01*
D02*
G37*
G36*
X-15372Y38454D02*
X-15722D01*
X-16065Y38386D01*
X-16388Y38252D01*
X-16678Y38058D01*
X-16926Y37811D01*
X-17120Y37520D01*
X-17254Y37197D01*
X-17322Y36854D01*
Y36504D01*
X-17254Y36161D01*
X-17120Y35838D01*
X-16926Y35548D01*
X-16678Y35300D01*
X-16388Y35106D01*
X-16065Y34972D01*
X-15722Y34904D01*
X-15372D01*
X-15029Y34972D01*
X-14706Y35106D01*
X-14415Y35300D01*
X-14168Y35548D01*
X-13974Y35838D01*
X-13840Y36161D01*
X-13772Y36504D01*
Y36854D01*
X-13840Y37197D01*
X-13974Y37520D01*
X-14168Y37811D01*
X-14415Y38058D01*
X-14706Y38252D01*
X-15029Y38386D01*
X-15372Y38454D01*
D02*
G37*
G36*
X91Y36229D02*
X-185D01*
X-452Y36157D01*
X-692Y36019D01*
X-887Y35824D01*
X-1025Y35584D01*
X-1097Y35317D01*
Y35041D01*
X-1025Y34774D01*
X-887Y34534D01*
X-692Y34339D01*
X-452Y34201D01*
X-185Y34129D01*
X91D01*
X358Y34201D01*
X598Y34339D01*
X793Y34534D01*
X931Y34774D01*
X1003Y35041D01*
Y35317D01*
X931Y35584D01*
X793Y35824D01*
X598Y36019D01*
X358Y36157D01*
X91Y36229D01*
D02*
G37*
G36*
X-7409D02*
X-7685D01*
X-7952Y36157D01*
X-8192Y36019D01*
X-8387Y35824D01*
X-8525Y35584D01*
X-8597Y35317D01*
Y35041D01*
X-8525Y34774D01*
X-8387Y34534D01*
X-8192Y34339D01*
X-7952Y34201D01*
X-7685Y34129D01*
X-7409D01*
X-7142Y34201D01*
X-6902Y34339D01*
X-6707Y34534D01*
X-6569Y34774D01*
X-6497Y35041D01*
Y35317D01*
X-6569Y35584D01*
X-6707Y35824D01*
X-6902Y36019D01*
X-7142Y36157D01*
X-7409Y36229D01*
D02*
G37*
G36*
X-2409D02*
X-2685D01*
X-2952Y36157D01*
X-3192Y36019D01*
X-3387Y35824D01*
X-3525Y35584D01*
X-3597Y35317D01*
Y35041D01*
X-3525Y34774D01*
X-3505Y34738D01*
X-4240Y34003D01*
X-4347Y34024D01*
X-4402Y34339D01*
X-4207Y34534D01*
X-4069Y34774D01*
X-3997Y35041D01*
Y35317D01*
X-4069Y35584D01*
X-4207Y35824D01*
X-4402Y36019D01*
X-4642Y36157D01*
X-4909Y36229D01*
X-5185D01*
X-5452Y36157D01*
X-5692Y36019D01*
X-5887Y35824D01*
X-6025Y35584D01*
X-6097Y35317D01*
Y35041D01*
X-6025Y34774D01*
X-5887Y34534D01*
X-5692Y34339D01*
X-5452Y34201D01*
X-5422Y34192D01*
X-5397Y34106D01*
X-5398Y33875D01*
X-5431Y33853D01*
X-6397Y32887D01*
X-6490Y32861D01*
X-6736Y32863D01*
X-6751Y32868D01*
X-6902Y33019D01*
X-7142Y33157D01*
X-7409Y33229D01*
X-7685D01*
X-7952Y33157D01*
X-8174Y33030D01*
X-8253Y33050D01*
X-8474Y33162D01*
Y33909D01*
X-8521Y34024D01*
X-8636Y34071D01*
X-9266D01*
X-9349Y34234D01*
X-9370Y34371D01*
X-9207Y34534D01*
X-9069Y34774D01*
X-8997Y35041D01*
Y35317D01*
X-9069Y35584D01*
X-9207Y35824D01*
X-9402Y36019D01*
X-9642Y36157D01*
X-9909Y36229D01*
X-10185D01*
X-10452Y36157D01*
X-10692Y36019D01*
X-10887Y35824D01*
X-11025Y35584D01*
X-11026Y35582D01*
X-11128Y35491D01*
X-11309Y35406D01*
X-11324Y35401D01*
X-11526Y35397D01*
X-11541Y35390D01*
X-11557Y35393D01*
X-11952Y35307D01*
X-11966Y35298D01*
X-11983Y35298D01*
X-12353Y35136D01*
X-12365Y35124D01*
X-12381Y35121D01*
X-12713Y34890D01*
X-12722Y34876D01*
X-12737Y34869D01*
X-13018Y34578D01*
X-13024Y34563D01*
X-13037Y34553D01*
X-13256Y34213D01*
X-13259Y34197D01*
X-13270Y34185D01*
X-13418Y33809D01*
X-13418Y33792D01*
X-13427Y33778D01*
X-13498Y33380D01*
X-13495Y33364D01*
X-13501Y33349D01*
X-13497Y33148D01*
X-13497Y21971D01*
X-13497Y21721D01*
X-13491Y21705D01*
X-13494Y21689D01*
X-13397Y21198D01*
X-13387Y21185D01*
Y21168D01*
X-13196Y20706D01*
X-13184Y20694D01*
X-13181Y20678D01*
X-12903Y20262D01*
X-12889Y20252D01*
X-12883Y20237D01*
X-12529Y19883D01*
X-12514Y19877D01*
X-12504Y19863D01*
X-12088Y19585D01*
X-12072Y19582D01*
X-12060Y19570D01*
X-11598Y19379D01*
X-11581D01*
X-11568Y19369D01*
X-11077Y19272D01*
X-11061Y19275D01*
X-11045Y19269D01*
X-10795Y19269D01*
X-8008Y19269D01*
X-7783Y19269D01*
X-7773Y19273D01*
X-7762Y19270D01*
X-7315Y19329D01*
X-7306Y19334D01*
X-7294Y19333D01*
X-6859Y19449D01*
X-6850Y19456D01*
X-6839D01*
X-6423Y19629D01*
X-6415Y19637D01*
X-6404Y19638D01*
X-6014Y19863D01*
X-6007Y19872D01*
X-5996Y19875D01*
X-5639Y20149D01*
X-5633Y20159D01*
X-5623Y20163D01*
X-5304Y20482D01*
X-5300Y20492D01*
X-5290Y20498D01*
X-5016Y20855D01*
X-5013Y20866D01*
X-5004Y20873D01*
X-4779Y21263D01*
X-4778Y21274D01*
X-4770Y21282D01*
X-4597Y21698D01*
Y21709D01*
X-4590Y21718D01*
X-4474Y22153D01*
X-4475Y22165D01*
X-4470Y22174D01*
X-4411Y22621D01*
X-4414Y22632D01*
X-4410Y22642D01*
X-4410Y22867D01*
X-4410Y27142D01*
X-4410Y27142D01*
X-4410Y27392D01*
X-4416Y27407D01*
X-4413Y27424D01*
X-4510Y27914D01*
X-4519Y27928D01*
Y27945D01*
X-4711Y28407D01*
X-4723Y28419D01*
X-4726Y28435D01*
X-4943Y28761D01*
X-4710Y28952D01*
X-3201Y27443D01*
Y22087D01*
X-6339Y18949D01*
X-11684D01*
X-11791Y18928D01*
X-11882Y18867D01*
X-14295Y16454D01*
X-14356Y16363D01*
X-14377Y16256D01*
Y13578D01*
X-14803Y13152D01*
X-14864Y13061D01*
X-14885Y12954D01*
Y8128D01*
X-14864Y8021D01*
X-14803Y7930D01*
X-13224Y6350D01*
X-13293Y6281D01*
X-13377Y6078D01*
Y5860D01*
X-13293Y5657D01*
X-13139Y5503D01*
X-12936Y5419D01*
X-12718D01*
X-12515Y5503D01*
X-12361Y5657D01*
X-12277Y5860D01*
Y6078D01*
X-12361Y6281D01*
X-12515Y6435D01*
X-12603Y6471D01*
X-12608Y6497D01*
X-12669Y6588D01*
X-13149Y7069D01*
X-12979Y7323D01*
X-12917Y7297D01*
X-12737D01*
X-12572Y7366D01*
X-12446Y7492D01*
X-12377Y7657D01*
Y7837D01*
X-12335Y7899D01*
X-11900D01*
Y9251D01*
X-11823Y9283D01*
X-11287Y9819D01*
X-10987Y9695D01*
Y8061D01*
X-10987Y8061D01*
X-10970Y7761D01*
X-10991Y7710D01*
Y7530D01*
X-10922Y7365D01*
X-10796Y7239D01*
X-10631Y7170D01*
X-10451D01*
X-10286Y7239D01*
X-10160Y7365D01*
X-10091Y7530D01*
Y7710D01*
X-10112Y7761D01*
X-9967Y8035D01*
X-9937Y8061D01*
X-9331D01*
Y9463D01*
Y9998D01*
X-9244D01*
X-9130Y10045D01*
X-9082Y10160D01*
Y12165D01*
X-9130Y12280D01*
X-9664Y12815D01*
X-9779Y12862D01*
X-12573D01*
X-12688Y12815D01*
X-13704Y11799D01*
X-13751Y11684D01*
Y9525D01*
X-13704Y9410D01*
X-13577Y9283D01*
X-13556Y9275D01*
Y8158D01*
X-13557Y7899D01*
X-13557Y7899D01*
X-13979D01*
X-14325Y8244D01*
Y12838D01*
X-13899Y13264D01*
X-13838Y13355D01*
X-13817Y13462D01*
Y16140D01*
X-11568Y18389D01*
X-6223D01*
X-6116Y18410D01*
X-6025Y18471D01*
X-2723Y21773D01*
X-2662Y21864D01*
X-2641Y21971D01*
Y27559D01*
X-2662Y27666D01*
X-2723Y27757D01*
X-5863Y30898D01*
X-5848Y31124D01*
X-5558Y31261D01*
X-5452Y31201D01*
X-5185Y31129D01*
X-4909D01*
X-4642Y31201D01*
X-4598Y31226D01*
X-1090Y27717D01*
Y22352D01*
X-2926Y20516D01*
X-3421D01*
Y19800D01*
X-3421Y19616D01*
X-3421Y19415D01*
X-3529Y19307D01*
X-3666Y19280D01*
X-3781Y19202D01*
X-4089Y18894D01*
X-4167Y18779D01*
X-4194Y18642D01*
Y18534D01*
X-4387D01*
Y17882D01*
X-4442Y17850D01*
X-4687Y17790D01*
X-4741Y17844D01*
X-4878Y17901D01*
X-5028D01*
X-5165Y17844D01*
X-5271Y17738D01*
X-5328Y17601D01*
Y17518D01*
X-5403D01*
Y16534D01*
X-5403Y16518D01*
X-5419Y16225D01*
X-5441Y16220D01*
X-5532Y16160D01*
X-6167Y15525D01*
X-6228Y15434D01*
X-6249Y15326D01*
Y10287D01*
X-6228Y10180D01*
X-6167Y10089D01*
X-5834Y9755D01*
X-5834Y9202D01*
X-5834Y8902D01*
Y8186D01*
X-5070D01*
X-4828Y8075D01*
X-4818Y7893D01*
Y7342D01*
X-4868Y7221D01*
Y7003D01*
X-4784Y6800D01*
X-4630Y6646D01*
X-4427Y6562D01*
X-4209D01*
X-4006Y6646D01*
X-3852Y6800D01*
X-3768Y7003D01*
X-3768Y7170D01*
X-3544Y7170D01*
X-2809D01*
Y6703D01*
X-1585D01*
X-1509Y6703D01*
Y6703D01*
X-1285D01*
Y6703D01*
X15D01*
Y7551D01*
X1008D01*
X1008Y7551D01*
Y7551D01*
X1360Y7551D01*
X1525Y7620D01*
X1651Y7746D01*
X1720Y7911D01*
Y8091D01*
X1651Y8256D01*
X1525Y8382D01*
X1360Y8451D01*
X1260D01*
X1144Y8504D01*
X1008Y8704D01*
Y9133D01*
X1074Y9406D01*
X1283Y9406D01*
X1974D01*
Y9617D01*
X2167Y9837D01*
X3167D01*
Y9964D01*
X3265D01*
X3430Y10033D01*
X3556Y10159D01*
X3625Y10324D01*
Y10504D01*
X3556Y10669D01*
X3430Y10795D01*
X3265Y10864D01*
X3167Y11124D01*
Y11753D01*
X2167D01*
X2073Y12014D01*
Y12104D01*
X2058Y12182D01*
X2020Y12238D01*
Y12354D01*
X2076Y12488D01*
Y12658D01*
X2011Y12814D01*
X1892Y12933D01*
X1736Y12998D01*
X1566D01*
X1410Y12933D01*
X1291Y12814D01*
X1226Y12658D01*
X926Y12495D01*
X780Y12519D01*
X750Y12562D01*
Y13145D01*
X1905Y14299D01*
X2294D01*
Y14155D01*
X2344D01*
Y13216D01*
X3060D01*
X3244Y13216D01*
X3544Y13216D01*
X3933D01*
X3937Y13207D01*
X4063Y13081D01*
X4228Y13012D01*
X4408D01*
X4573Y13081D01*
X4699Y13207D01*
X4768Y13372D01*
Y13552D01*
X4699Y13717D01*
X4600Y13900D01*
X4693Y14089D01*
X4761Y14254D01*
Y14434D01*
X4693Y14599D01*
X4566Y14725D01*
X4401Y14794D01*
X4310Y14885D01*
X4310Y15055D01*
X4310Y15355D01*
Y16071D01*
X4100D01*
Y16273D01*
X4073Y16409D01*
X3995Y16525D01*
X3879Y16642D01*
Y17076D01*
X3929D01*
Y17792D01*
X3929Y17976D01*
X3929Y18276D01*
Y18992D01*
X3786D01*
Y20955D01*
X3759Y21092D01*
X3681Y21207D01*
X1627Y23262D01*
Y28362D01*
X1600Y28499D01*
X1522Y28614D01*
X-1594Y31730D01*
X-1569Y31774D01*
X-1497Y32041D01*
Y32317D01*
X-1569Y32584D01*
X-1707Y32824D01*
X-1902Y33019D01*
X-2142Y33157D01*
X-2409Y33229D01*
X-2685D01*
X-2952Y33157D01*
X-3192Y33019D01*
X-3387Y32824D01*
X-3525Y32584D01*
X-3597Y32317D01*
Y32041D01*
X-3525Y31774D01*
X-3387Y31534D01*
X-3192Y31339D01*
X-2952Y31201D01*
X-2685Y31129D01*
X-2409D01*
X-2142Y31201D01*
X-2098Y31226D01*
X913Y28214D01*
Y23114D01*
X940Y22977D01*
X1018Y22862D01*
X3072Y20807D01*
Y18992D01*
X2929D01*
Y18276D01*
X2929Y18092D01*
X2929Y17792D01*
Y17410D01*
X2863Y17137D01*
X2261Y17137D01*
X2221Y17282D01*
X2454Y17534D01*
X2609D01*
Y18534D01*
X2609D01*
Y18550D01*
X2609D01*
Y19550D01*
X2609D01*
Y19566D01*
X2609D01*
Y20566D01*
X1893D01*
X1709Y20566D01*
X1409Y20566D01*
X693D01*
Y20441D01*
X560D01*
X423Y20384D01*
X317Y20278D01*
X260Y20141D01*
Y19991D01*
X317Y19854D01*
X371Y19800D01*
X311Y19555D01*
X279Y19500D01*
X-627D01*
Y18799D01*
X-627Y18600D01*
X-897Y18528D01*
X-1458D01*
Y18528D01*
X-1574D01*
Y18528D01*
X-2151D01*
X-2421Y18600D01*
X-2421Y18813D01*
X-2421Y19500D01*
X-2421Y20011D01*
X-481Y21951D01*
X-404Y22067D01*
X-376Y22204D01*
Y27865D01*
X-404Y28002D01*
X-481Y28118D01*
X-4094Y31730D01*
X-4069Y31774D01*
X-3997Y32041D01*
Y32317D01*
X-4069Y32584D01*
X-4207Y32824D01*
X-4402Y33019D01*
X-4498Y33075D01*
X-4418Y33375D01*
X-4191D01*
X-4084Y33396D01*
X-3993Y33457D01*
X-3140Y34309D01*
X-2952Y34201D01*
X-2685Y34129D01*
X-2409D01*
X-2142Y34201D01*
X-1902Y34339D01*
X-1707Y34534D01*
X-1569Y34774D01*
X-1497Y35041D01*
Y35317D01*
X-1569Y35584D01*
X-1707Y35824D01*
X-1902Y36019D01*
X-2142Y36157D01*
X-2409Y36229D01*
D02*
G37*
G36*
X-34022Y33112D02*
X-34251D01*
X-34281Y33100D01*
X-34313D01*
X-34525Y33012D01*
X-34548Y32989D01*
X-34578Y32977D01*
X-34740Y32815D01*
X-34752Y32785D01*
X-34775Y32762D01*
X-34863Y32551D01*
Y32518D01*
X-34875Y32489D01*
Y32259D01*
X-34863Y32230D01*
Y32197D01*
X-34775Y31986D01*
X-34752Y31963D01*
X-34740Y31933D01*
X-34578Y31771D01*
X-34548Y31759D01*
X-34525Y31736D01*
X-34313Y31648D01*
X-34281D01*
X-34251Y31636D01*
X-34022D01*
X-33992Y31648D01*
X-33960D01*
X-33748Y31736D01*
X-33725Y31759D01*
X-33696Y31771D01*
X-33534Y31933D01*
X-33521Y31963D01*
X-33498Y31986D01*
X-33411Y32197D01*
Y32230D01*
X-33398Y32259D01*
Y32489D01*
X-33411Y32518D01*
Y32551D01*
X-33498Y32762D01*
X-33521Y32785D01*
X-33534Y32815D01*
X-33696Y32977D01*
X-33725Y32989D01*
X-33748Y33012D01*
X-33960Y33100D01*
X-33992D01*
X-34022Y33112D01*
D02*
G37*
G36*
X5091Y33229D02*
X4815D01*
X4548Y33157D01*
X4308Y33019D01*
X4113Y32824D01*
X3975Y32584D01*
X3903Y32317D01*
Y32041D01*
X3975Y31774D01*
X4113Y31534D01*
X4308Y31339D01*
X4548Y31201D01*
X4815Y31129D01*
X5091D01*
X5358Y31201D01*
X5598Y31339D01*
X5793Y31534D01*
X5931Y31774D01*
X6003Y32041D01*
Y32317D01*
X5931Y32584D01*
X5793Y32824D01*
X5598Y33019D01*
X5358Y33157D01*
X5091Y33229D01*
D02*
G37*
G36*
X2591D02*
X2315D01*
X2048Y33157D01*
X1808Y33019D01*
X1613Y32824D01*
X1475Y32584D01*
X1403Y32317D01*
Y32041D01*
X1475Y31774D01*
X1613Y31534D01*
X1808Y31339D01*
X2048Y31201D01*
X2315Y31129D01*
X2591D01*
X2858Y31201D01*
X3098Y31339D01*
X3293Y31534D01*
X3431Y31774D01*
X3503Y32041D01*
Y32317D01*
X3431Y32584D01*
X3293Y32824D01*
X3098Y33019D01*
X2858Y33157D01*
X2591Y33229D01*
D02*
G37*
G36*
X91D02*
X-185D01*
X-452Y33157D01*
X-692Y33019D01*
X-887Y32824D01*
X-1025Y32584D01*
X-1097Y32317D01*
Y32041D01*
X-1025Y31774D01*
X-887Y31534D01*
X-692Y31339D01*
X-452Y31201D01*
X-185Y31129D01*
X91D01*
X358Y31201D01*
X598Y31339D01*
X793Y31534D01*
X931Y31774D01*
X1003Y32041D01*
Y32317D01*
X931Y32584D01*
X793Y32824D01*
X598Y33019D01*
X358Y33157D01*
X91Y33229D01*
D02*
G37*
G36*
X-22393Y26812D02*
X-22565D01*
X-22730Y26768D01*
X-22878Y26682D01*
X-22999Y26561D01*
X-23085Y26413D01*
X-23086Y26409D01*
X-23396D01*
X-23397Y26413D01*
X-23483Y26561D01*
X-23604Y26682D01*
X-23752Y26768D01*
X-23917Y26812D01*
X-24089D01*
X-24254Y26768D01*
X-24402Y26682D01*
X-24523Y26561D01*
X-24609Y26413D01*
X-24653Y26248D01*
Y26076D01*
X-24609Y25911D01*
X-24523Y25763D01*
X-24402Y25642D01*
X-24386Y25633D01*
X-24370Y25579D01*
X-24394Y25295D01*
X-24447Y25265D01*
X-24568Y25144D01*
X-24654Y24995D01*
X-24698Y24830D01*
Y24659D01*
X-24654Y24494D01*
X-24568Y24345D01*
X-24447Y24224D01*
X-24299Y24139D01*
X-24134Y24095D01*
X-23962D01*
X-23797Y24139D01*
X-23649Y24224D01*
X-23528Y24345D01*
X-23442Y24494D01*
X-23397Y24594D01*
X-23114Y24622D01*
X-23085Y24514D01*
X-22999Y24366D01*
X-22878Y24245D01*
X-22730Y24159D01*
X-22565Y24115D01*
X-22393D01*
X-22228Y24159D01*
X-22080Y24245D01*
X-21959Y24366D01*
X-21873Y24514D01*
X-21829Y24679D01*
Y24851D01*
X-21873Y25016D01*
X-21959Y25164D01*
X-22080Y25285D01*
X-22096Y25294D01*
Y25633D01*
X-22080Y25642D01*
X-21959Y25763D01*
X-21873Y25911D01*
X-21829Y26076D01*
Y26248D01*
X-21873Y26413D01*
X-21959Y26561D01*
X-22080Y26682D01*
X-22228Y26768D01*
X-22393Y26812D01*
D02*
G37*
G36*
X25740Y27193D02*
X25568D01*
X25403Y27149D01*
X25255Y27063D01*
X25134Y26942D01*
X25048Y26794D01*
X25004Y26629D01*
Y26493D01*
X24859D01*
Y24333D01*
X24859D01*
X24859Y24233D01*
X24859D01*
Y22073D01*
X25118D01*
X25131Y22057D01*
Y21885D01*
X25175Y21720D01*
X25261Y21572D01*
X25382Y21451D01*
X25530Y21365D01*
X25695Y21321D01*
X25867D01*
X26032Y21365D01*
X26180Y21451D01*
X26301Y21572D01*
X26387Y21720D01*
X26431Y21885D01*
Y22057D01*
X26387Y22222D01*
X26379Y22235D01*
Y23608D01*
X26540Y23651D01*
X26688Y23737D01*
X26809Y23858D01*
X26895Y24006D01*
X26939Y24171D01*
Y24343D01*
X26895Y24508D01*
X26809Y24656D01*
X26688Y24777D01*
X26540Y24863D01*
X26379Y24906D01*
Y26493D01*
X26304D01*
Y26629D01*
X26260Y26794D01*
X26174Y26942D01*
X26053Y27063D01*
X25905Y27149D01*
X25740Y27193D01*
D02*
G37*
G36*
X30717Y26494D02*
X30246Y26457D01*
X29787Y26347D01*
X29351Y26166D01*
X28948Y25920D01*
X28589Y25613D01*
X28282Y25254D01*
X28036Y24851D01*
X27855Y24415D01*
X27745Y23956D01*
X27708Y23485D01*
X27745Y23014D01*
X27855Y22555D01*
X28036Y22119D01*
X28282Y21716D01*
X28589Y21357D01*
X28948Y21050D01*
X29351Y20804D01*
X29787Y20623D01*
X30246Y20513D01*
X30717Y20476D01*
X31188Y20513D01*
X31647Y20623D01*
X32083Y20804D01*
X32486Y21050D01*
X32845Y21357D01*
X33152Y21716D01*
X33398Y22119D01*
X33579Y22555D01*
X33689Y23014D01*
X33726Y23485D01*
X33689Y23956D01*
X33579Y24415D01*
X33398Y24851D01*
X33152Y25254D01*
X32845Y25613D01*
X32486Y25920D01*
X32083Y26166D01*
X31647Y26347D01*
X31188Y26457D01*
X30717Y26494D01*
D02*
G37*
G36*
X-31179D02*
X-31650Y26457D01*
X-32109Y26347D01*
X-32546Y26166D01*
X-32948Y25920D01*
X-33307Y25613D01*
X-33614Y25254D01*
X-33861Y24851D01*
X-34041Y24415D01*
X-34152Y23956D01*
X-34189Y23485D01*
X-34152Y23014D01*
X-34041Y22555D01*
X-33861Y22119D01*
X-33614Y21716D01*
X-33307Y21357D01*
X-32948Y21050D01*
X-32546Y20804D01*
X-32109Y20623D01*
X-31650Y20513D01*
X-31179Y20476D01*
X-30709Y20513D01*
X-30250Y20623D01*
X-29813Y20804D01*
X-29411Y21050D01*
X-29052Y21357D01*
X-28745Y21716D01*
X-28498Y22119D01*
X-28317Y22555D01*
X-28207Y23014D01*
X-28170Y23485D01*
X-28207Y23956D01*
X-28317Y24415D01*
X-28498Y24851D01*
X-28745Y25254D01*
X-29052Y25613D01*
X-29411Y25920D01*
X-29813Y26166D01*
X-30250Y26347D01*
X-30709Y26457D01*
X-31179Y26494D01*
D02*
G37*
G36*
X21519Y28563D02*
X15819D01*
Y22063D01*
X15840D01*
Y21336D01*
X15887Y21221D01*
X16649Y20459D01*
X16764Y20412D01*
X22733D01*
X22848Y20459D01*
X23610Y21221D01*
X23657Y21336D01*
Y26416D01*
X23610Y26531D01*
X22467Y27674D01*
X22352Y27721D01*
X21519D01*
Y28563D01*
D02*
G37*
G36*
X19127Y19241D02*
X18927Y19241D01*
X16967D01*
Y19198D01*
X16746Y18965D01*
X16528D01*
X16325Y18881D01*
X16171Y18727D01*
X16087Y18524D01*
Y18306D01*
X16171Y18103D01*
X16325Y17949D01*
X16528Y17865D01*
X16726D01*
X16967Y17721D01*
X16967Y17721D01*
X16967Y17721D01*
X18927D01*
X19227Y17721D01*
X19427Y17721D01*
X21387D01*
Y17802D01*
X21481Y17865D01*
X21699D01*
X21902Y17949D01*
X22056Y18103D01*
X22140Y18306D01*
Y18524D01*
X22056Y18727D01*
X21902Y18881D01*
X21699Y18965D01*
X21481D01*
X21387Y19028D01*
Y19241D01*
X19415D01*
X19127Y19241D01*
D02*
G37*
G36*
X-15931Y20137D02*
X-16102D01*
X-16268Y20093D01*
X-16416Y20007D01*
X-16537Y19886D01*
X-16623Y19738D01*
X-16650Y19637D01*
X-18023D01*
Y18286D01*
X-18023Y18082D01*
X-18023Y17782D01*
Y16431D01*
X-18023D01*
X-18127Y16174D01*
X-18669D01*
X-18878Y16146D01*
X-19072Y16066D01*
X-19240Y15938D01*
X-19368Y15770D01*
X-19448Y15576D01*
X-19476Y15367D01*
X-19448Y15158D01*
X-19368Y14964D01*
X-19240Y14796D01*
X-19072Y14668D01*
X-18878Y14588D01*
X-18669Y14560D01*
X-18146D01*
Y13704D01*
X-18343Y13507D01*
X-18669D01*
X-18878Y13479D01*
X-19072Y13399D01*
X-19240Y13271D01*
X-19368Y13103D01*
X-19448Y12909D01*
X-19476Y12700D01*
X-19448Y12491D01*
X-19368Y12297D01*
X-19240Y12129D01*
X-19072Y12001D01*
X-18878Y11921D01*
X-18669Y11893D01*
X-18009D01*
X-17800Y11921D01*
X-17605Y12001D01*
X-17438Y12129D01*
X-17005Y12563D01*
X-16347D01*
Y16139D01*
X-16347D01*
X-16327Y16431D01*
X-16267D01*
Y17782D01*
X-16267Y17986D01*
X-16267Y18286D01*
Y18711D01*
X-16102Y18837D01*
X-15931D01*
X-15766Y18881D01*
X-15618Y18967D01*
X-15497Y19088D01*
X-15411Y19236D01*
X-15367Y19402D01*
Y19573D01*
X-15411Y19738D01*
X-15497Y19886D01*
X-15618Y20007D01*
X-15766Y20093D01*
X-15931Y20137D01*
D02*
G37*
G36*
X25555Y14934D02*
X23863D01*
X23709Y14903D01*
X23579Y14816D01*
X23579Y14816D01*
X22503D01*
X22503Y14816D01*
X22203Y14776D01*
X21923Y14661D01*
X21683Y14476D01*
X21683Y14476D01*
X21235Y14028D01*
X21050Y13788D01*
X20935Y13508D01*
X20895Y13208D01*
X20935Y12908D01*
X21050Y12628D01*
X21235Y12388D01*
X21475Y12203D01*
X21755Y12088D01*
X22055Y12048D01*
X22355Y12088D01*
X22635Y12203D01*
X22875Y12388D01*
X22983Y12496D01*
X24649D01*
X24649Y12496D01*
X24666Y12498D01*
X25555D01*
X25709Y12529D01*
X25839Y12616D01*
X25926Y12746D01*
X25957Y12900D01*
Y14532D01*
X25926Y14686D01*
X25839Y14816D01*
X25709Y14903D01*
X25555Y14934D01*
D02*
G37*
G36*
X-10832Y17976D02*
X-11012D01*
X-11177Y17907D01*
X-11303Y17781D01*
X-11372Y17616D01*
Y17436D01*
X-11467Y17295D01*
X-11847D01*
Y16004D01*
X-10068D01*
X-10048Y16004D01*
X-9768Y15956D01*
X-9768Y15669D01*
X-9768Y15369D01*
Y15045D01*
X-10048Y14996D01*
X-10068Y14996D01*
X-11847D01*
Y13706D01*
X-10969D01*
X-10922Y13593D01*
X-10796Y13466D01*
X-10631Y13398D01*
X-10451D01*
X-10286Y13466D01*
X-10160Y13593D01*
X-10113Y13706D01*
X-10048D01*
Y13706D01*
X-9748Y13889D01*
X-9721Y13880D01*
X-9652Y13715D01*
X-9526Y13589D01*
X-9361Y13520D01*
X-9181D01*
X-9016Y13589D01*
X-8890Y13715D01*
X-8821Y13880D01*
Y14018D01*
X-8012D01*
Y15369D01*
X-8012Y15573D01*
X-8012Y15873D01*
Y16332D01*
X-8009Y16376D01*
X-7851Y16624D01*
X-7672D01*
X-7507Y16693D01*
X-7380Y16819D01*
X-7312Y16985D01*
Y17164D01*
X-7380Y17329D01*
X-7507Y17456D01*
X-7672Y17524D01*
X-7851D01*
X-8017Y17456D01*
X-8143Y17329D01*
X-8184Y17230D01*
X-8413D01*
X-8442Y17224D01*
X-9748D01*
X-9768Y17224D01*
X-10048Y17272D01*
Y17295D01*
X-10377D01*
X-10472Y17436D01*
Y17616D01*
X-10541Y17781D01*
X-10667Y17907D01*
X-10832Y17976D01*
D02*
G37*
G36*
X15076Y14039D02*
X14896D01*
X14731Y13970D01*
X14605Y13844D01*
X14536Y13679D01*
Y13499D01*
X14486Y13259D01*
X14486Y13259D01*
Y12259D01*
X15486D01*
Y13259D01*
X15486D01*
X15436Y13538D01*
Y13679D01*
X15367Y13844D01*
X15241Y13970D01*
X15076Y14039D01*
D02*
G37*
G36*
X-24244Y14426D02*
X-25936D01*
X-26090Y14395D01*
X-26220Y14308D01*
X-26307Y14178D01*
X-26338Y14024D01*
Y12392D01*
X-26307Y12238D01*
X-26220Y12108D01*
X-26090Y12021D01*
X-25936Y11990D01*
X-24244D01*
X-24090Y12021D01*
X-24049Y12048D01*
X-22559D01*
X-22259Y12088D01*
X-21979Y12203D01*
X-21739Y12388D01*
X-21554Y12628D01*
X-21439Y12908D01*
X-21399Y13208D01*
X-21439Y13508D01*
X-21554Y13788D01*
X-21739Y14028D01*
X-21979Y14213D01*
X-22259Y14328D01*
X-22559Y14368D01*
X-24049D01*
X-24090Y14395D01*
X-24244Y14426D01*
D02*
G37*
G36*
X16854Y13785D02*
X16674D01*
X16509Y13716D01*
X16383Y13590D01*
X16314Y13425D01*
Y13245D01*
X16118Y12953D01*
X15989D01*
Y11653D01*
X17539D01*
Y12953D01*
X17410D01*
X17214Y13245D01*
Y13425D01*
X17145Y13590D01*
X17019Y13716D01*
X16854Y13785D01*
D02*
G37*
G36*
X-28674Y15279D02*
X-30366D01*
X-30691Y15236D01*
X-30735Y15218D01*
X-32559D01*
X-32951Y15179D01*
X-33328Y15065D01*
X-33676Y14879D01*
X-33980Y14629D01*
X-34230Y14325D01*
X-34416Y13977D01*
X-34530Y13600D01*
X-34569Y13208D01*
X-34530Y12816D01*
X-34416Y12439D01*
X-34230Y12091D01*
X-33980Y11787D01*
X-33676Y11537D01*
X-33328Y11351D01*
X-32951Y11237D01*
X-32559Y11198D01*
X-30735D01*
X-30691Y11180D01*
X-30366Y11137D01*
X-28674D01*
X-28349Y11180D01*
X-28047Y11305D01*
X-27787Y11505D01*
X-27587Y11765D01*
X-27462Y12067D01*
X-27419Y12392D01*
Y14024D01*
X-27462Y14349D01*
X-27587Y14651D01*
X-27787Y14911D01*
X-28047Y15111D01*
X-28349Y15236D01*
X-28674Y15279D01*
D02*
G37*
G36*
X-22008Y10102D02*
X-22188D01*
X-22353Y10033D01*
X-22479Y9907D01*
X-22514Y9824D01*
X-22825D01*
X-22860Y9907D01*
X-22986Y10033D01*
X-23151Y10102D01*
X-23331D01*
X-23496Y10033D01*
X-23622Y9907D01*
X-23657Y9824D01*
X-23968D01*
X-24003Y9907D01*
X-24129Y10033D01*
X-24294Y10102D01*
X-24474D01*
X-24639Y10033D01*
X-24765Y9907D01*
X-24834Y9742D01*
Y9562D01*
X-24765Y9397D01*
X-24639Y9271D01*
X-24474Y9202D01*
X-24294D01*
X-24129Y9271D01*
X-24003Y9397D01*
X-23968Y9480D01*
X-23657D01*
X-23622Y9397D01*
X-23496Y9271D01*
X-23331Y9202D01*
X-23151D01*
X-22986Y9271D01*
X-22860Y9397D01*
X-22825Y9480D01*
X-22514D01*
X-22479Y9397D01*
X-22404Y9321D01*
X-22374Y9144D01*
X-22404Y8967D01*
X-22479Y8891D01*
X-22548Y8726D01*
Y8546D01*
X-22479Y8381D01*
X-22353Y8255D01*
X-22188Y8186D01*
X-22008D01*
X-21843Y8255D01*
X-21717Y8381D01*
X-21648Y8546D01*
Y8726D01*
X-21717Y8891D01*
X-21792Y8967D01*
X-21822Y9144D01*
X-21792Y9321D01*
X-21717Y9397D01*
X-21648Y9562D01*
Y9742D01*
X-21717Y9907D01*
X-21843Y10033D01*
X-22008Y10102D01*
D02*
G37*
G36*
X-27642Y9555D02*
X-27984D01*
X-28315Y9466D01*
X-28448Y9389D01*
X-28581Y9466D01*
X-28912Y9555D01*
X-29254D01*
X-29585Y9466D01*
X-29718Y9389D01*
X-29851Y9466D01*
X-30182Y9555D01*
X-30524D01*
X-30855Y9466D01*
X-30988Y9389D01*
X-31121Y9466D01*
X-31452Y9555D01*
X-31794D01*
X-32125Y9466D01*
X-32258Y9389D01*
X-32391Y9466D01*
X-32722Y9555D01*
X-33064D01*
X-33395Y9466D01*
X-33691Y9295D01*
X-33933Y9053D01*
X-34104Y8757D01*
X-34193Y8426D01*
Y8084D01*
X-34104Y7753D01*
X-34027Y7620D01*
X-34104Y7487D01*
X-34193Y7156D01*
Y6814D01*
X-34104Y6483D01*
X-33991Y6286D01*
X-34104Y6090D01*
X-34193Y5759D01*
Y5417D01*
X-34104Y5086D01*
X-34027Y4953D01*
X-34104Y4820D01*
X-34193Y4489D01*
Y4147D01*
X-34104Y3816D01*
X-33933Y3520D01*
X-33691Y3278D01*
X-33395Y3107D01*
X-33064Y3018D01*
X-32722D01*
X-32391Y3107D01*
X-32258Y3184D01*
X-32125Y3107D01*
X-31794Y3018D01*
X-31452D01*
X-31121Y3107D01*
X-30988Y3184D01*
X-30855Y3107D01*
X-30524Y3018D01*
X-30182D01*
X-29851Y3107D01*
X-29718Y3184D01*
X-29585Y3107D01*
X-29254Y3018D01*
X-28912D01*
X-28581Y3107D01*
X-28448Y3184D01*
X-28315Y3107D01*
X-27984Y3018D01*
X-27642D01*
X-27311Y3107D01*
X-27015Y3278D01*
X-26773Y3520D01*
X-26602Y3816D01*
X-26513Y4147D01*
Y4489D01*
X-26602Y4820D01*
X-26679Y4953D01*
X-26602Y5086D01*
X-26513Y5417D01*
Y5759D01*
X-26602Y6090D01*
X-26715Y6286D01*
X-26602Y6483D01*
X-26513Y6814D01*
Y7156D01*
X-26602Y7487D01*
X-26679Y7620D01*
X-26602Y7753D01*
X-26513Y8084D01*
Y8426D01*
X-26602Y8757D01*
X-26773Y9053D01*
X-27015Y9295D01*
X-27311Y9466D01*
X-27642Y9555D01*
D02*
G37*
G36*
X-16674Y9721D02*
X-16854D01*
X-17019Y9652D01*
X-17145Y9526D01*
X-17214Y9361D01*
Y9181D01*
X-17145Y9016D01*
X-17019Y8890D01*
X-16854Y8821D01*
X-16674D01*
X-16509Y8890D01*
X-16383Y9016D01*
X-16314Y9181D01*
Y9361D01*
X-16383Y9526D01*
X-16509Y9652D01*
X-16674Y9721D01*
D02*
G37*
G36*
X-18638Y9401D02*
X-18817D01*
X-18983Y9333D01*
X-19109Y9206D01*
X-19178Y9041D01*
Y8862D01*
X-19109Y8696D01*
X-18983Y8570D01*
X-18817Y8501D01*
X-18638D01*
X-18473Y8570D01*
X-18346Y8696D01*
X-18278Y8862D01*
Y9041D01*
X-18346Y9206D01*
X-18473Y9333D01*
X-18638Y9401D01*
D02*
G37*
G36*
X13933Y8832D02*
X13753D01*
X13588Y8763D01*
X13462Y8637D01*
X13393Y8472D01*
Y8292D01*
X13462Y8127D01*
X13588Y8001D01*
X13753Y7932D01*
X13933D01*
X14098Y8001D01*
X14224Y8127D01*
X14293Y8292D01*
Y8472D01*
X14224Y8637D01*
X14098Y8763D01*
X13933Y8832D01*
D02*
G37*
G36*
X-22008Y7816D02*
X-22188D01*
X-22353Y7747D01*
X-22479Y7621D01*
X-22514Y7538D01*
X-22825D01*
X-22860Y7621D01*
X-22986Y7747D01*
X-23151Y7816D01*
X-23331D01*
X-23496Y7747D01*
X-23622Y7621D01*
X-23657Y7538D01*
X-23968D01*
X-24003Y7621D01*
X-24129Y7747D01*
X-24294Y7816D01*
X-24474D01*
X-24639Y7747D01*
X-24765Y7621D01*
X-24834Y7456D01*
Y7276D01*
X-24765Y7111D01*
X-24639Y6985D01*
X-24474Y6916D01*
X-24294D01*
X-24129Y6985D01*
X-24003Y7111D01*
X-23968Y7194D01*
X-23657D01*
X-23622Y7111D01*
X-23496Y6985D01*
X-23331Y6916D01*
X-23151D01*
X-22986Y6985D01*
X-22860Y7111D01*
X-22825Y7194D01*
X-22514D01*
X-22479Y7111D01*
X-22353Y6985D01*
X-22188Y6916D01*
X-22008D01*
X-21843Y6985D01*
X-21717Y7111D01*
X-21648Y7276D01*
Y7456D01*
X-21717Y7621D01*
X-21843Y7747D01*
X-22008Y7816D01*
D02*
G37*
G36*
X17606Y6750D02*
X17446D01*
X17299Y6689D01*
X17187Y6577D01*
X17126Y6430D01*
Y6270D01*
X17187Y6123D01*
X17299Y6011D01*
X17446Y5950D01*
X17606D01*
X17753Y6011D01*
X17865Y6123D01*
X17926Y6270D01*
Y6430D01*
X17865Y6577D01*
X17753Y6689D01*
X17606Y6750D01*
D02*
G37*
G36*
X16463Y6623D02*
X16303D01*
X16156Y6562D01*
X16044Y6450D01*
X15983Y6303D01*
Y6143D01*
X16044Y5996D01*
X16156Y5884D01*
X16303Y5823D01*
X16463D01*
X16610Y5884D01*
X16722Y5996D01*
X16783Y6143D01*
Y6303D01*
X16722Y6450D01*
X16610Y6562D01*
X16463Y6623D01*
D02*
G37*
G36*
X-17074Y6620D02*
X-17233D01*
X-17380Y6559D01*
X-17492Y6446D01*
X-17553Y6299D01*
Y6140D01*
X-17492Y5993D01*
X-17380Y5881D01*
X-17233Y5820D01*
X-17074D01*
X-16927Y5881D01*
X-16814Y5993D01*
X-16753Y6140D01*
Y6299D01*
X-16814Y6446D01*
X-16927Y6559D01*
X-17074Y6620D01*
D02*
G37*
G36*
X-18471D02*
X-18630D01*
X-18777Y6559D01*
X-18889Y6446D01*
X-18950Y6299D01*
Y6140D01*
X-18889Y5993D01*
X-18777Y5881D01*
X-18630Y5820D01*
X-18471D01*
X-18324Y5881D01*
X-18211Y5993D01*
X-18150Y6140D01*
Y6299D01*
X-18211Y6446D01*
X-18324Y6559D01*
X-18471Y6620D01*
D02*
G37*
G36*
X24347Y5276D02*
X24167D01*
X24002Y5207D01*
X23926Y5132D01*
X23749Y5102D01*
X23572Y5132D01*
X23496Y5207D01*
X23331Y5276D01*
X23151D01*
X22986Y5207D01*
X22910Y5132D01*
X22733Y5102D01*
X22556Y5132D01*
X22480Y5207D01*
X22315Y5276D01*
X22135D01*
X21970Y5207D01*
X21894Y5132D01*
X21717Y5102D01*
X21540Y5132D01*
X21464Y5207D01*
X21299Y5276D01*
X21119D01*
X20954Y5207D01*
X20828Y5081D01*
X20759Y4916D01*
Y4736D01*
X20828Y4571D01*
X20954Y4445D01*
X21037Y4410D01*
Y4099D01*
X20954Y4064D01*
X20828Y3938D01*
X20759Y3773D01*
Y3593D01*
X20828Y3428D01*
X20954Y3302D01*
X21119Y3233D01*
X21299D01*
X21464Y3302D01*
X21653Y3397D01*
X21843Y3302D01*
X22008Y3233D01*
X22188D01*
X22353Y3302D01*
X22479Y3428D01*
X22548Y3593D01*
Y3773D01*
X22479Y3938D01*
X22353Y4064D01*
X22320Y4078D01*
X22316Y4269D01*
X22350Y4391D01*
X22480Y4445D01*
X22556Y4520D01*
X22733Y4550D01*
X22910Y4520D01*
X22986Y4445D01*
X23151Y4376D01*
X23331D01*
X23496Y4445D01*
X23572Y4520D01*
X23749Y4550D01*
X23926Y4520D01*
X24002Y4445D01*
X24167Y4376D01*
X24347D01*
X24512Y4445D01*
X24638Y4571D01*
X24707Y4736D01*
Y4916D01*
X24638Y5081D01*
X24512Y5207D01*
X24347Y5276D01*
D02*
G37*
G36*
X17701Y3734D02*
X17522D01*
X17356Y3666D01*
X17230Y3539D01*
X17161Y3374D01*
Y3195D01*
X17230Y3029D01*
X17356Y2903D01*
X17522Y2834D01*
X17701D01*
X17866Y2903D01*
X17993Y3029D01*
X18061Y3195D01*
Y3374D01*
X17993Y3539D01*
X17866Y3666D01*
X17701Y3734D01*
D02*
G37*
G36*
X16181Y3662D02*
X16002D01*
X15837Y3594D01*
X15710Y3467D01*
X15642Y3302D01*
Y3123D01*
X15710Y2958D01*
X15837Y2831D01*
X16002Y2762D01*
X16181D01*
X16346Y2831D01*
X16473Y2958D01*
X16542Y3123D01*
Y3302D01*
X16473Y3467D01*
X16346Y3594D01*
X16181Y3662D01*
D02*
G37*
G36*
X-31071Y2697D02*
X-31413D01*
X-31744Y2608D01*
X-32040Y2437D01*
X-32282Y2195D01*
X-32453Y1899D01*
X-32542Y1568D01*
Y1226D01*
X-32453Y895D01*
X-32282Y599D01*
X-32040Y357D01*
X-31744Y186D01*
X-31600Y147D01*
X-30494Y-959D01*
X-30258Y-1139D01*
X-29984Y-1253D01*
X-29690Y-1292D01*
X-28701D01*
Y-1780D01*
X-25701D01*
Y-1180D01*
X-22825D01*
X-22525Y-1180D01*
X-22425Y-1180D01*
X-20725D01*
Y-1180D01*
X-20668Y-1191D01*
X-20668Y-1191D01*
X-20429Y-1191D01*
X-18868D01*
Y859D01*
X-20668D01*
Y859D01*
X-20725Y870D01*
Y870D01*
X-22425D01*
X-22725Y870D01*
X-22825Y870D01*
X-25701D01*
Y1470D01*
X-28701D01*
Y982D01*
X-29219D01*
X-29992Y1755D01*
X-30031Y1899D01*
X-30202Y2195D01*
X-30444Y2437D01*
X-30740Y2608D01*
X-31071Y2697D01*
D02*
G37*
G36*
X-15511Y-1794D02*
Y-1794D01*
X-17061D01*
Y-3094D01*
X-15511D01*
Y-3094D01*
X-15353Y-3006D01*
X-14353D01*
Y-2006D01*
X-15353D01*
X-15511Y-1794D01*
D02*
G37*
G36*
X-10618Y-8017D02*
X-10797D01*
X-10963Y-8086D01*
X-11097Y-8207D01*
X-11244Y-8099D01*
X-11410Y-8030D01*
X-11589D01*
X-11754Y-8099D01*
X-11881Y-8226D01*
X-11949Y-8391D01*
Y-8570D01*
X-11925Y-8629D01*
X-11912Y-8779D01*
X-12057Y-8984D01*
X-12066Y-8987D01*
X-12192Y-9114D01*
X-12261Y-9279D01*
Y-9458D01*
X-12192Y-9624D01*
X-12070Y-9746D01*
X-12066Y-9750D01*
X-12051Y-9808D01*
X-11983Y-10083D01*
X-11987Y-10096D01*
X-12049Y-10247D01*
X-12049Y-10426D01*
X-11981Y-10591D01*
X-11854Y-10718D01*
X-11689Y-10786D01*
X-11510D01*
X-11344Y-10718D01*
X-11193Y-10611D01*
X-11049Y-10725D01*
X-10884Y-10793D01*
X-10705D01*
X-10539Y-10725D01*
X-10413Y-10598D01*
X-10344Y-10433D01*
Y-10254D01*
X-10413Y-10088D01*
X-10539Y-9962D01*
X-10569Y-9949D01*
X-10665Y-9631D01*
X-10662Y-9611D01*
X-10599Y-9458D01*
Y-9279D01*
X-10625Y-9217D01*
X-10621Y-9048D01*
X-10492Y-8865D01*
X-10453Y-8849D01*
X-10326Y-8722D01*
X-10258Y-8557D01*
Y-8378D01*
X-10326Y-8212D01*
X-10453Y-8086D01*
X-10618Y-8017D01*
D02*
G37*
G36*
X11012Y-8313D02*
X10832D01*
X10667Y-8382D01*
X10591Y-8457D01*
X10414Y-8487D01*
X10237Y-8457D01*
X10161Y-8382D01*
X9996Y-8313D01*
X9816D01*
X9651Y-8382D01*
X9525Y-8508D01*
X9456Y-8673D01*
Y-8853D01*
X9525Y-9018D01*
X9620Y-9208D01*
X9525Y-9397D01*
X9456Y-9562D01*
Y-9742D01*
X9525Y-9907D01*
X9620Y-10097D01*
X9525Y-10286D01*
X9456Y-10451D01*
Y-10631D01*
X9525Y-10796D01*
X9651Y-10922D01*
X9816Y-10991D01*
X9996D01*
X10161Y-10922D01*
X10237Y-10847D01*
X10414Y-10817D01*
X10591Y-10847D01*
X10667Y-10922D01*
X10832Y-10991D01*
X11012D01*
X11177Y-10922D01*
X11303Y-10796D01*
X11372Y-10631D01*
Y-10451D01*
X11303Y-10286D01*
X11208Y-10097D01*
X11303Y-9907D01*
X11372Y-9742D01*
Y-9562D01*
X11303Y-9397D01*
X11208Y-9208D01*
X11303Y-9018D01*
X11372Y-8853D01*
Y-8673D01*
X11303Y-8508D01*
X11177Y-8382D01*
X11012Y-8313D01*
D02*
G37*
G36*
X18076Y-11100D02*
X16976D01*
Y-11420D01*
X16240D01*
X16133Y-11441D01*
X16042Y-11502D01*
X14534Y-13010D01*
X14473Y-13101D01*
X14452Y-13208D01*
Y-23982D01*
X14473Y-24089D01*
X14534Y-24180D01*
X16107Y-25753D01*
X16198Y-25814D01*
X16305Y-25835D01*
X20221D01*
X22152Y-27766D01*
Y-28108D01*
X21804D01*
Y-29408D01*
X21804D01*
X21940Y-29573D01*
Y-30573D01*
X22152D01*
Y-32307D01*
X22051Y-32408D01*
X21982Y-32574D01*
Y-32753D01*
X22051Y-32918D01*
X22178Y-33045D01*
X22339Y-33112D01*
X22343Y-33113D01*
X22558Y-33333D01*
X22568Y-33394D01*
Y-33523D01*
X22630Y-33674D01*
X22468Y-33741D01*
X22341Y-33868D01*
X22273Y-34033D01*
Y-34212D01*
X22341Y-34377D01*
X22468Y-34504D01*
X22633Y-34573D01*
X22776D01*
X23237Y-35033D01*
Y-35777D01*
X23258Y-35884D01*
X23319Y-35975D01*
X24245Y-36902D01*
X24336Y-36962D01*
X24444Y-36984D01*
X25503D01*
X25516Y-36997D01*
X25607Y-37058D01*
X25714Y-37079D01*
X25993D01*
X26094Y-37181D01*
X26259Y-37249D01*
X26438D01*
X26604Y-37181D01*
X26730Y-37054D01*
X26799Y-36889D01*
Y-36709D01*
X26730Y-36544D01*
X26604Y-36418D01*
X26438Y-36349D01*
X26259D01*
X26094Y-36418D01*
X25993Y-36519D01*
X25831D01*
X25817Y-36505D01*
X25726Y-36444D01*
X25619Y-36423D01*
X24560D01*
X24315Y-36178D01*
X24484Y-35923D01*
X24503Y-35931D01*
X24682D01*
X24847Y-35863D01*
X24974Y-35736D01*
X25042Y-35571D01*
Y-35392D01*
X24974Y-35226D01*
X24847Y-35100D01*
X24841Y-35097D01*
Y-34869D01*
X24818Y-34752D01*
X24751Y-34653D01*
X23468Y-33369D01*
Y-33344D01*
X23399Y-33178D01*
X23273Y-33052D01*
X23111Y-32985D01*
X23107Y-32983D01*
X22892Y-32763D01*
X22882Y-32702D01*
Y-32574D01*
X22814Y-32408D01*
X22713Y-32307D01*
Y-30573D01*
X22940D01*
Y-29573D01*
X23054Y-29408D01*
X23054D01*
Y-28108D01*
X22713D01*
Y-27650D01*
X22692Y-27543D01*
X22631Y-27452D01*
X20536Y-25357D01*
X20445Y-25296D01*
X20337Y-25275D01*
X16422D01*
X15012Y-23865D01*
Y-13324D01*
X16356Y-11980D01*
X16976D01*
Y-12300D01*
X18076D01*
Y-11100D01*
D02*
G37*
G36*
X13566Y-3632D02*
X13312D01*
X13197Y-3679D01*
X13150Y-3794D01*
Y-9951D01*
X10860Y-11926D01*
X5735D01*
X5686Y-11946D01*
X5635Y-11961D01*
X4518Y-12841D01*
X4406Y-12813D01*
X4213Y-12699D01*
X4181Y-12539D01*
X4052Y-12345D01*
X3858Y-12216D01*
X3629Y-12170D01*
X3497D01*
X3364Y-12197D01*
X3356Y-12179D01*
X3230Y-12053D01*
X3065Y-11984D01*
X2885D01*
X2720Y-12053D01*
X2594Y-12179D01*
X2525Y-12344D01*
Y-12524D01*
X2594Y-12689D01*
X2720Y-12815D01*
X2885Y-12884D01*
X2922D01*
X2945Y-12997D01*
X3074Y-13191D01*
X3268Y-13320D01*
X3394Y-13345D01*
X3413Y-13404D01*
X3445Y-13686D01*
X2033Y-14844D01*
X2029Y-14852D01*
X2021Y-14855D01*
X2000Y-14906D01*
X1974Y-14954D01*
X1977Y-14962D01*
X1974Y-14970D01*
X1974Y-21422D01*
X1755Y-21697D01*
X1710Y-21722D01*
X-65D01*
X-1167Y-20621D01*
Y-16663D01*
X-1143Y-16638D01*
X-1074Y-16473D01*
Y-16293D01*
X-1143Y-16128D01*
X-1269Y-16002D01*
X-1434Y-15933D01*
X-1614D01*
X-1779Y-16002D01*
X-1824Y-16046D01*
X-2124Y-15930D01*
Y-15732D01*
X-2171Y-15617D01*
X-3441Y-14347D01*
X-3556Y-14300D01*
X-10517D01*
X-13300Y-11517D01*
Y-3794D01*
X-13347Y-3679D01*
X-13462Y-3632D01*
X-13716D01*
X-13831Y-3679D01*
X-13878Y-3794D01*
Y-11778D01*
X-13831Y-11893D01*
X-10893Y-14831D01*
X-10778Y-14878D01*
X-6998D01*
X-6993Y-14876D01*
X-6989Y-14878D01*
X-3750D01*
X-2702Y-15926D01*
Y-21574D01*
X-2655Y-21689D01*
X-2528Y-21816D01*
X-2413Y-21863D01*
X-2298Y-21816D01*
X-2171Y-21689D01*
X-2124Y-21574D01*
Y-21000D01*
X-2015Y-20962D01*
X-1824Y-20950D01*
X-1776Y-21021D01*
X-466Y-22331D01*
X-350Y-22409D01*
X-213Y-22436D01*
X1954D01*
X1972Y-22463D01*
Y-39168D01*
X2019Y-39283D01*
X2134Y-39331D01*
X2388D01*
X2503Y-39283D01*
X2550Y-39168D01*
Y-22463D01*
X2568Y-22436D01*
X3915D01*
X4052Y-22409D01*
X4168Y-22331D01*
X5078Y-21421D01*
X5156Y-21305D01*
X5183Y-21168D01*
X5183Y-16122D01*
X5188Y-16116D01*
X5483Y-15983D01*
X5514Y-16007D01*
X5672Y-16072D01*
X5842Y-16095D01*
X9489D01*
Y-16212D01*
X9535Y-16441D01*
X9665Y-16635D01*
X9859Y-16765D01*
X10088Y-16811D01*
X10218D01*
X10447Y-16765D01*
X10641Y-16635D01*
X10771Y-16441D01*
X10789Y-16353D01*
X11080Y-16332D01*
Y-16332D01*
X12830D01*
Y-14682D01*
X11080D01*
Y-14682D01*
X10817Y-14594D01*
Y-13904D01*
X10771Y-13675D01*
X10641Y-13481D01*
X10447Y-13351D01*
X10218Y-13305D01*
X10088D01*
X9859Y-13351D01*
X9665Y-13481D01*
X9535Y-13675D01*
X9489Y-13904D01*
Y-14784D01*
X6114D01*
X5925Y-14595D01*
X5789Y-14490D01*
X5631Y-14425D01*
X5461Y-14403D01*
X3931D01*
X3828Y-14103D01*
X5859Y-12527D01*
X10973D01*
X11025Y-12505D01*
X11079Y-12487D01*
X13673Y-10226D01*
X13675Y-10221D01*
X13681Y-10219D01*
X13703Y-10166D01*
X13728Y-10115D01*
X13726Y-10109D01*
X13728Y-10104D01*
Y-3794D01*
X13681Y-3679D01*
X13566Y-3632D01*
D02*
G37*
G36*
X20856Y-15606D02*
X19606D01*
Y-16906D01*
X19976D01*
Y-17378D01*
X19996Y-17476D01*
X20051Y-17558D01*
X20133Y-17640D01*
Y-18280D01*
X21133D01*
Y-17280D01*
X20493D01*
X20486Y-17272D01*
Y-16906D01*
X20856D01*
Y-15606D01*
D02*
G37*
G36*
X28642Y-19468D02*
X28471D01*
X28306Y-19513D01*
X28157Y-19598D01*
X28036Y-19719D01*
X27951Y-19868D01*
X27907Y-20033D01*
Y-20083D01*
X27845Y-20160D01*
X27686Y-20274D01*
X27620Y-20295D01*
X27552Y-20276D01*
X27381D01*
X27216Y-20321D01*
X27067Y-20406D01*
X26946Y-20527D01*
X26861Y-20675D01*
X26816Y-20841D01*
Y-21012D01*
X26861Y-21177D01*
X26946Y-21325D01*
X27067Y-21446D01*
X27216Y-21532D01*
X27381Y-21576D01*
X27552D01*
X27717Y-21532D01*
X27866Y-21446D01*
X27987Y-21325D01*
X28072Y-21177D01*
X28116Y-21012D01*
Y-20961D01*
X28178Y-20885D01*
X28337Y-20771D01*
X28403Y-20750D01*
X28471Y-20768D01*
X28642D01*
X28807Y-20724D01*
X28956Y-20639D01*
X29077Y-20518D01*
X29162Y-20369D01*
X29207Y-20204D01*
Y-20033D01*
X29162Y-19868D01*
X29077Y-19719D01*
X28956Y-19598D01*
X28807Y-19513D01*
X28642Y-19468D01*
D02*
G37*
G36*
X-29455Y-19561D02*
X-29626D01*
X-29791Y-19605D01*
X-29939Y-19690D01*
X-30060Y-19811D01*
X-30146Y-19960D01*
X-30190Y-20125D01*
Y-20296D01*
X-30146Y-20461D01*
X-30060Y-20610D01*
X-29939Y-20731D01*
X-29791Y-20816D01*
X-29626Y-20861D01*
X-29455D01*
X-29386Y-20842D01*
X-29320Y-20863D01*
X-29161Y-20977D01*
X-29100Y-21053D01*
Y-21104D01*
X-29056Y-21269D01*
X-28970Y-21417D01*
X-28849Y-21538D01*
X-28701Y-21624D01*
X-28536Y-21668D01*
X-28365D01*
X-28199Y-21624D01*
X-28051Y-21538D01*
X-27930Y-21417D01*
X-27844Y-21269D01*
X-27800Y-21104D01*
Y-20933D01*
X-27844Y-20767D01*
X-27930Y-20619D01*
X-28051Y-20498D01*
X-28199Y-20413D01*
X-28365Y-20368D01*
X-28536D01*
X-28604Y-20387D01*
X-28670Y-20366D01*
X-28829Y-20252D01*
X-28890Y-20175D01*
Y-20125D01*
X-28934Y-19960D01*
X-29020Y-19811D01*
X-29141Y-19690D01*
X-29289Y-19605D01*
X-29455Y-19561D01*
D02*
G37*
G36*
X-28131Y-21981D02*
X-28302D01*
X-28468Y-22025D01*
X-28616Y-22111D01*
X-28737Y-22232D01*
X-28776Y-22299D01*
X-28824Y-22315D01*
X-29029Y-22320D01*
X-29108Y-22297D01*
X-29139Y-22244D01*
X-29260Y-22123D01*
X-29409Y-22037D01*
X-29574Y-21993D01*
X-29745D01*
X-29910Y-22037D01*
X-30059Y-22123D01*
X-30180Y-22244D01*
X-30265Y-22392D01*
X-30309Y-22557D01*
Y-22729D01*
X-30265Y-22894D01*
X-30180Y-23042D01*
X-30059Y-23163D01*
X-29910Y-23249D01*
X-29745Y-23293D01*
X-29574D01*
X-29409Y-23249D01*
X-29260Y-23163D01*
X-29139Y-23042D01*
X-29132Y-23029D01*
X-28823Y-22989D01*
X-28635Y-23163D01*
X-28635Y-23234D01*
X-28687Y-23457D01*
X-28701Y-23461D01*
X-28849Y-23546D01*
X-28970Y-23667D01*
X-29056Y-23815D01*
X-29100Y-23981D01*
Y-24152D01*
X-29056Y-24317D01*
X-29025Y-24371D01*
X-29156Y-24546D01*
X-29236Y-24605D01*
X-29371Y-24568D01*
X-29542D01*
X-29708Y-24613D01*
X-29856Y-24698D01*
X-29977Y-24819D01*
X-30062Y-24968D01*
X-30107Y-25133D01*
Y-25304D01*
X-30062Y-25469D01*
X-29977Y-25618D01*
X-29856Y-25739D01*
X-29708Y-25824D01*
X-29542Y-25868D01*
X-29371D01*
X-29206Y-25824D01*
X-29058Y-25739D01*
X-28937Y-25618D01*
X-28851Y-25469D01*
X-28807Y-25304D01*
Y-25133D01*
X-28851Y-24968D01*
X-28882Y-24914D01*
X-28751Y-24739D01*
X-28670Y-24680D01*
X-28536Y-24716D01*
X-28365D01*
X-28199Y-24672D01*
X-28051Y-24586D01*
X-27930Y-24465D01*
X-27844Y-24317D01*
X-27800Y-24152D01*
Y-23981D01*
X-27844Y-23815D01*
X-27930Y-23667D01*
X-28032Y-23565D01*
X-28032Y-23464D01*
X-27980Y-23241D01*
X-27966Y-23237D01*
X-27818Y-23151D01*
X-27697Y-23030D01*
X-27611Y-22882D01*
X-27567Y-22717D01*
Y-22545D01*
X-27611Y-22380D01*
X-27697Y-22232D01*
X-27818Y-22111D01*
X-27966Y-22025D01*
X-28131Y-21981D01*
D02*
G37*
G36*
X27319Y-21889D02*
X27147D01*
X26982Y-21933D01*
X26834Y-22019D01*
X26713Y-22140D01*
X26627Y-22288D01*
X26583Y-22453D01*
Y-22625D01*
X26627Y-22790D01*
X26713Y-22938D01*
X26834Y-23059D01*
X26982Y-23145D01*
X26997Y-23149D01*
X27048Y-23371D01*
X27048Y-23473D01*
X26946Y-23575D01*
X26861Y-23723D01*
X26816Y-23889D01*
Y-24060D01*
X26861Y-24225D01*
X26946Y-24373D01*
X27067Y-24494D01*
X27216Y-24580D01*
X27381Y-24624D01*
X27552D01*
X27687Y-24588D01*
X27767Y-24646D01*
X27898Y-24822D01*
X27867Y-24875D01*
X27823Y-25041D01*
Y-25212D01*
X27867Y-25377D01*
X27953Y-25525D01*
X28074Y-25646D01*
X28222Y-25732D01*
X28387Y-25776D01*
X28559D01*
X28724Y-25732D01*
X28872Y-25646D01*
X28993Y-25525D01*
X29079Y-25377D01*
X29123Y-25212D01*
Y-25041D01*
X29079Y-24875D01*
X28993Y-24727D01*
X28872Y-24606D01*
X28724Y-24521D01*
X28559Y-24476D01*
X28387D01*
X28253Y-24512D01*
X28172Y-24454D01*
X28041Y-24279D01*
X28072Y-24225D01*
X28116Y-24060D01*
Y-23889D01*
X28072Y-23723D01*
X27987Y-23575D01*
X27866Y-23454D01*
X27717Y-23369D01*
X27703Y-23365D01*
X27651Y-23142D01*
X27651Y-23071D01*
X27839Y-22897D01*
X28148Y-22936D01*
X28156Y-22950D01*
X28277Y-23071D01*
X28425Y-23157D01*
X28590Y-23201D01*
X28761D01*
X28927Y-23157D01*
X29075Y-23071D01*
X29196Y-22950D01*
X29281Y-22802D01*
X29326Y-22636D01*
Y-22465D01*
X29281Y-22300D01*
X29196Y-22152D01*
X29075Y-22031D01*
X28927Y-21945D01*
X28761Y-21901D01*
X28590D01*
X28425Y-21945D01*
X28277Y-22031D01*
X28156Y-22152D01*
X28125Y-22205D01*
X28046Y-22228D01*
X27840Y-22223D01*
X27792Y-22207D01*
X27753Y-22140D01*
X27632Y-22019D01*
X27484Y-21933D01*
X27319Y-21889D01*
D02*
G37*
G36*
X30419Y-21913D02*
X30248D01*
X30082Y-21957D01*
X29934Y-22043D01*
X29813Y-22164D01*
X29727Y-22312D01*
X29683Y-22477D01*
Y-22648D01*
X29727Y-22814D01*
X29813Y-22962D01*
X29934Y-23083D01*
X30082Y-23169D01*
X30248Y-23213D01*
X30419D01*
X30584Y-23169D01*
X30732Y-23083D01*
X30853Y-22962D01*
X30939Y-22814D01*
X30983Y-22648D01*
Y-22477D01*
X30939Y-22312D01*
X30853Y-22164D01*
X30732Y-22043D01*
X30584Y-21957D01*
X30419Y-21913D01*
D02*
G37*
G36*
X-31231Y-22005D02*
X-31402D01*
X-31568Y-22049D01*
X-31716Y-22135D01*
X-31837Y-22256D01*
X-31922Y-22404D01*
X-31967Y-22569D01*
Y-22740D01*
X-31922Y-22906D01*
X-31837Y-23054D01*
X-31716Y-23175D01*
X-31568Y-23261D01*
X-31402Y-23305D01*
X-31231D01*
X-31066Y-23261D01*
X-30918Y-23175D01*
X-30797Y-23054D01*
X-30711Y-22906D01*
X-30667Y-22740D01*
Y-22569D01*
X-30711Y-22404D01*
X-30797Y-22256D01*
X-30918Y-22135D01*
X-31066Y-22049D01*
X-31231Y-22005D01*
D02*
G37*
G36*
X-20031Y-3287D02*
X-20210D01*
X-20375Y-3356D01*
X-20502Y-3482D01*
X-20570Y-3648D01*
Y-3827D01*
X-20502Y-3992D01*
X-20403Y-4091D01*
Y-21174D01*
X-20570D01*
Y-21630D01*
X-20579Y-21674D01*
Y-21697D01*
X-20586Y-21731D01*
Y-22149D01*
X-20677D01*
Y-22700D01*
X-21194Y-23217D01*
X-21377D01*
X-21421Y-23226D01*
X-22177D01*
Y-24526D01*
X-20927D01*
Y-24119D01*
X-20828Y-24100D01*
X-20680Y-24000D01*
X-20028Y-23349D01*
X-19577D01*
Y-22149D01*
X-19668D01*
Y-21757D01*
X-19662Y-21724D01*
Y-21674D01*
X-19670Y-21630D01*
Y-21174D01*
X-19838D01*
Y-4091D01*
X-19739Y-3992D01*
X-19670Y-3827D01*
Y-3648D01*
X-19739Y-3482D01*
X-19865Y-3356D01*
X-20031Y-3287D01*
D02*
G37*
G36*
X-19177Y-24093D02*
X-19347Y-24116D01*
X-19427Y-24149D01*
X-19727D01*
Y-24398D01*
X-19745Y-24421D01*
X-19810Y-24579D01*
X-19833Y-24749D01*
X-19810Y-24919D01*
X-19776Y-25001D01*
X-20264Y-25490D01*
X-20325Y-25581D01*
X-20346Y-25688D01*
Y-26155D01*
X-20608D01*
Y-27155D01*
X-20033D01*
Y-32530D01*
X-20012Y-32637D01*
X-19951Y-32728D01*
X-19475Y-33203D01*
Y-33346D01*
X-19407Y-33512D01*
X-19280Y-33638D01*
X-19115Y-33707D01*
X-18936D01*
X-18770Y-33638D01*
X-18644Y-33512D01*
X-18575Y-33346D01*
Y-33167D01*
X-18644Y-33002D01*
X-18770Y-32875D01*
X-18936Y-32807D01*
X-19079D01*
X-19472Y-32414D01*
Y-27011D01*
X-19494Y-26903D01*
X-19554Y-26812D01*
X-19608Y-26759D01*
Y-26155D01*
X-19786D01*
Y-25804D01*
X-19417Y-25436D01*
X-19241Y-25612D01*
X-19106Y-25716D01*
X-18947Y-25781D01*
X-18778Y-25804D01*
X-17910D01*
X-17867Y-25798D01*
X-17285D01*
Y-25589D01*
X-17273Y-25578D01*
X-16973Y-25704D01*
Y-25798D01*
X-15723D01*
Y-25530D01*
X-15605D01*
X-15440Y-25462D01*
X-15313Y-25335D01*
X-15245Y-25170D01*
Y-24991D01*
X-15313Y-24826D01*
X-15440Y-24699D01*
X-15605Y-24630D01*
X-15723D01*
Y-24498D01*
X-16973D01*
Y-24593D01*
X-17273Y-24719D01*
X-17285Y-24707D01*
Y-24498D01*
X-17867D01*
X-17910Y-24493D01*
X-18506D01*
X-18627Y-24372D01*
Y-24149D01*
X-18927D01*
X-19007Y-24116D01*
X-19177Y-24093D01*
D02*
G37*
G36*
X-22527Y-23226D02*
X-23777D01*
Y-24526D01*
X-23611D01*
Y-25154D01*
X-23927D01*
Y-26154D01*
X-22927D01*
Y-25803D01*
X-22828Y-25703D01*
X-22728Y-25555D01*
X-22693Y-25379D01*
Y-24526D01*
X-22527D01*
Y-23226D01*
D02*
G37*
G36*
X-17458Y-26155D02*
X-18458D01*
Y-27155D01*
X-17458D01*
Y-27108D01*
X-17315D01*
X-17149Y-27039D01*
X-17023Y-26913D01*
X-16954Y-26747D01*
Y-26568D01*
X-17023Y-26403D01*
X-17149Y-26276D01*
X-17315Y-26208D01*
X-17458D01*
Y-26155D01*
D02*
G37*
G36*
X24235Y-27229D02*
X24056D01*
X23891Y-27298D01*
X23764Y-27424D01*
X23696Y-27590D01*
Y-27769D01*
X23712Y-27808D01*
X23565Y-28108D01*
X23366D01*
Y-29408D01*
X23858D01*
X24090Y-29573D01*
X24090Y-29708D01*
Y-30573D01*
X24411D01*
X24665Y-30781D01*
Y-30952D01*
X24710Y-31118D01*
X24795Y-31266D01*
X24916Y-31387D01*
X25064Y-31473D01*
X25230Y-31517D01*
X25401D01*
X25566Y-31473D01*
X25714Y-31387D01*
X25835Y-31266D01*
X25921Y-31118D01*
X25957Y-30983D01*
X25971Y-30945D01*
X26001Y-30905D01*
X26223Y-30731D01*
X26252Y-30725D01*
X26303Y-30718D01*
X26316D01*
X26328Y-30715D01*
X26395Y-30706D01*
X26458Y-30680D01*
X26481Y-30674D01*
X26502Y-30662D01*
X26553Y-30641D01*
X26598Y-30607D01*
X26629Y-30589D01*
X26655Y-30563D01*
X26689Y-30537D01*
X26694Y-30532D01*
X26720Y-30498D01*
X26750Y-30468D01*
X26772Y-30430D01*
X26798Y-30396D01*
X26814Y-30357D01*
X26836Y-30319D01*
X26847Y-30278D01*
X26863Y-30238D01*
X26869Y-30196D01*
X26880Y-30154D01*
Y-30111D01*
X26886Y-30068D01*
X26880Y-30026D01*
Y-29983D01*
X26869Y-29941D01*
X26863Y-29899D01*
X26847Y-29859D01*
X26836Y-29818D01*
X26814Y-29780D01*
X26798Y-29741D01*
X26772Y-29707D01*
X26750Y-29669D01*
X26720Y-29639D01*
X26694Y-29605D01*
X26660Y-29579D01*
X26629Y-29548D01*
X26592Y-29527D01*
X26558Y-29501D01*
X26518Y-29484D01*
X26481Y-29463D01*
X26440Y-29452D01*
X26400Y-29435D01*
X26357Y-29430D01*
X26316Y-29418D01*
X26273D01*
X26230Y-29413D01*
X26205Y-29416D01*
X26122Y-29399D01*
X25982Y-29278D01*
X25943Y-29229D01*
X25926Y-29199D01*
X25916Y-29175D01*
X25914Y-29170D01*
X25873Y-29020D01*
X25788Y-28871D01*
X25667Y-28750D01*
X25518Y-28665D01*
X25353Y-28620D01*
X25182D01*
X25017Y-28665D01*
X24916Y-28723D01*
X24746Y-28667D01*
X24616Y-28579D01*
Y-28108D01*
X24616Y-28108D01*
X24580Y-27808D01*
X24596Y-27769D01*
Y-27590D01*
X24527Y-27424D01*
X24401Y-27298D01*
X24235Y-27229D01*
D02*
G37*
G36*
X-14801Y-30959D02*
X-14980D01*
X-15145Y-31028D01*
X-15272Y-31154D01*
X-15340Y-31320D01*
Y-31499D01*
X-15272Y-31664D01*
X-15145Y-31791D01*
X-14980Y-31859D01*
X-14801D01*
X-14635Y-31791D01*
X-14509Y-31664D01*
X-14440Y-31499D01*
Y-31320D01*
X-14509Y-31154D01*
X-14635Y-31028D01*
X-14801Y-30959D01*
D02*
G37*
G36*
X-16416Y-30993D02*
X-16596D01*
X-16761Y-31062D01*
X-16887Y-31188D01*
X-16956Y-31354D01*
Y-31533D01*
X-16887Y-31698D01*
X-16761Y-31825D01*
X-16596Y-31893D01*
X-16416D01*
X-16251Y-31825D01*
X-16125Y-31698D01*
X-16056Y-31533D01*
Y-31354D01*
X-16125Y-31188D01*
X-16251Y-31062D01*
X-16416Y-30993D01*
D02*
G37*
G36*
X-18196D02*
X-18375D01*
X-18540Y-31062D01*
X-18667Y-31188D01*
X-18735Y-31354D01*
Y-31533D01*
X-18667Y-31698D01*
X-18540Y-31825D01*
X-18375Y-31893D01*
X-18196D01*
X-18030Y-31825D01*
X-17904Y-31698D01*
X-17835Y-31533D01*
Y-31354D01*
X-17904Y-31188D01*
X-18030Y-31062D01*
X-18196Y-30993D01*
D02*
G37*
G36*
X27047Y-31462D02*
X26868D01*
X26702Y-31531D01*
X26576Y-31657D01*
X26507Y-31823D01*
Y-32002D01*
X26576Y-32167D01*
X26702Y-32294D01*
X26868Y-32362D01*
X27047D01*
X27212Y-32294D01*
X27339Y-32167D01*
X27407Y-32002D01*
Y-31823D01*
X27339Y-31657D01*
X27212Y-31531D01*
X27047Y-31462D01*
D02*
G37*
G36*
X-15541Y-32016D02*
X-15720D01*
X-15886Y-32085D01*
X-16012Y-32211D01*
X-16081Y-32377D01*
Y-32556D01*
X-16012Y-32721D01*
X-15886Y-32848D01*
X-15720Y-32916D01*
X-15541D01*
X-15376Y-32848D01*
X-15249Y-32721D01*
X-15181Y-32556D01*
Y-32377D01*
X-15249Y-32211D01*
X-15376Y-32085D01*
X-15541Y-32016D01*
D02*
G37*
G36*
X-17320D02*
X-17499D01*
X-17665Y-32085D01*
X-17791Y-32211D01*
X-17860Y-32377D01*
Y-32556D01*
X-17791Y-32721D01*
X-17665Y-32848D01*
X-17499Y-32916D01*
X-17320D01*
X-17155Y-32848D01*
X-17028Y-32721D01*
X-16960Y-32556D01*
Y-32377D01*
X-17028Y-32211D01*
X-17155Y-32085D01*
X-17320Y-32016D01*
D02*
G37*
G36*
X-24331Y-28509D02*
X-26880D01*
X-26987Y-28530D01*
X-27078Y-28591D01*
X-27616Y-29129D01*
X-27759D01*
X-27925Y-29197D01*
X-28051Y-29324D01*
X-28120Y-29489D01*
Y-29668D01*
X-28051Y-29834D01*
X-27925Y-29960D01*
X-27759Y-30029D01*
X-27580D01*
X-27415Y-29960D01*
X-27288Y-29834D01*
X-27220Y-29668D01*
Y-29525D01*
X-26764Y-29070D01*
X-24447D01*
X-22942Y-30575D01*
Y-31567D01*
X-22921Y-31674D01*
X-22860Y-31765D01*
X-21678Y-32947D01*
Y-33090D01*
X-21642Y-33177D01*
X-21844Y-33413D01*
X-21931Y-33377D01*
X-22110D01*
X-22276Y-33445D01*
X-22402Y-33572D01*
X-22471Y-33737D01*
Y-33776D01*
X-22953Y-34258D01*
X-23251D01*
X-23359Y-34280D01*
X-23450Y-34340D01*
X-24485Y-35376D01*
X-24628D01*
X-24793Y-35444D01*
X-24920Y-35571D01*
X-24988Y-35736D01*
Y-35915D01*
X-24920Y-36080D01*
X-24793Y-36207D01*
X-24628Y-36276D01*
X-24449D01*
X-24284Y-36207D01*
X-24157Y-36080D01*
X-24088Y-35915D01*
Y-35772D01*
X-23135Y-34819D01*
X-22837D01*
X-22729Y-34798D01*
X-22638Y-34737D01*
X-22158Y-34257D01*
X-22110Y-34277D01*
X-21931D01*
X-21766Y-34208D01*
X-21639Y-34082D01*
X-21571Y-33916D01*
Y-33737D01*
X-21606Y-33651D01*
X-21404Y-33415D01*
X-21317Y-33451D01*
X-21138D01*
X-20973Y-33382D01*
X-20847Y-33256D01*
X-20778Y-33090D01*
Y-32911D01*
X-20847Y-32746D01*
X-20973Y-32619D01*
X-21138Y-32551D01*
X-21281D01*
X-22381Y-31451D01*
Y-30459D01*
X-22403Y-30351D01*
X-22464Y-30260D01*
X-24133Y-28591D01*
X-24224Y-28530D01*
X-24331Y-28509D01*
D02*
G37*
G36*
X18805Y-32734D02*
X18626D01*
X18460Y-32803D01*
X18334Y-32929D01*
X18265Y-33094D01*
Y-33274D01*
X18334Y-33439D01*
X18460Y-33565D01*
X18626Y-33634D01*
X18805D01*
X18970Y-33565D01*
X19097Y-33439D01*
X19165Y-33274D01*
Y-33094D01*
X19097Y-32929D01*
X18970Y-32803D01*
X18805Y-32734D01*
D02*
G37*
G36*
X17032D02*
X16853D01*
X16688Y-32803D01*
X16561Y-32929D01*
X16493Y-33094D01*
Y-33274D01*
X16561Y-33439D01*
X16688Y-33565D01*
X16853Y-33634D01*
X17032D01*
X17198Y-33565D01*
X17324Y-33439D01*
X17393Y-33274D01*
Y-33094D01*
X17324Y-32929D01*
X17198Y-32803D01*
X17032Y-32734D01*
D02*
G37*
G36*
X15253D02*
X15074D01*
X14909Y-32803D01*
X14782Y-32929D01*
X14714Y-33094D01*
Y-33274D01*
X14782Y-33439D01*
X14909Y-33565D01*
X15074Y-33634D01*
X15253D01*
X15418Y-33565D01*
X15545Y-33439D01*
X15614Y-33274D01*
Y-33094D01*
X15545Y-32929D01*
X15418Y-32803D01*
X15253Y-32734D01*
D02*
G37*
G36*
X-24970Y-33672D02*
X-25149D01*
X-25314Y-33740D01*
X-25441Y-33867D01*
X-25509Y-34032D01*
Y-34211D01*
X-25441Y-34377D01*
X-25314Y-34503D01*
X-25149Y-34572D01*
X-24970D01*
X-24804Y-34503D01*
X-24678Y-34377D01*
X-24609Y-34211D01*
Y-34032D01*
X-24678Y-33867D01*
X-24804Y-33740D01*
X-24970Y-33672D01*
D02*
G37*
G36*
X19659Y-33757D02*
X19480D01*
X19315Y-33826D01*
X19188Y-33952D01*
X19120Y-34117D01*
Y-34297D01*
X19188Y-34462D01*
X19315Y-34588D01*
X19480Y-34657D01*
X19659D01*
X19824Y-34588D01*
X19951Y-34462D01*
X20020Y-34297D01*
Y-34117D01*
X19951Y-33952D01*
X19824Y-33826D01*
X19659Y-33757D01*
D02*
G37*
G36*
X17908D02*
X17729D01*
X17563Y-33826D01*
X17437Y-33952D01*
X17368Y-34117D01*
Y-34297D01*
X17437Y-34462D01*
X17563Y-34588D01*
X17729Y-34657D01*
X17908D01*
X18073Y-34588D01*
X18200Y-34462D01*
X18268Y-34297D01*
Y-34117D01*
X18200Y-33952D01*
X18073Y-33826D01*
X17908Y-33757D01*
D02*
G37*
G36*
X16128D02*
X15949D01*
X15784Y-33826D01*
X15657Y-33952D01*
X15589Y-34117D01*
Y-34297D01*
X15657Y-34462D01*
X15784Y-34588D01*
X15949Y-34657D01*
X16128D01*
X16294Y-34588D01*
X16420Y-34462D01*
X16489Y-34297D01*
Y-34117D01*
X16420Y-33952D01*
X16294Y-33826D01*
X16128Y-33757D01*
D02*
G37*
G36*
X-27901Y-33936D02*
X-28080D01*
X-28245Y-34004D01*
X-28372Y-34131D01*
X-28440Y-34296D01*
Y-34475D01*
X-28372Y-34641D01*
X-28245Y-34767D01*
X-28080Y-34836D01*
X-27901D01*
X-27735Y-34767D01*
X-27609Y-34641D01*
X-27540Y-34475D01*
Y-34296D01*
X-27609Y-34131D01*
X-27735Y-34004D01*
X-27901Y-33936D01*
D02*
G37*
G36*
X34175Y-35490D02*
X33946D01*
X33916Y-35503D01*
X33883D01*
X33672Y-35590D01*
X33649Y-35613D01*
X33619Y-35625D01*
X33457Y-35787D01*
X33445Y-35817D01*
X33422Y-35840D01*
X33334Y-36052D01*
Y-36084D01*
X33322Y-36114D01*
Y-36343D01*
X33334Y-36373D01*
Y-36405D01*
X33422Y-36617D01*
X33445Y-36640D01*
X33457Y-36670D01*
X33619Y-36832D01*
X33649Y-36844D01*
X33672Y-36867D01*
X33883Y-36955D01*
X33916D01*
X33946Y-36967D01*
X34175D01*
X34205Y-36955D01*
X34237D01*
X34449Y-36867D01*
X34471Y-36844D01*
X34501Y-36832D01*
X34663Y-36670D01*
X34676Y-36640D01*
X34698Y-36617D01*
X34786Y-36405D01*
Y-36373D01*
X34799Y-36343D01*
Y-36114D01*
X34786Y-36084D01*
Y-36052D01*
X34698Y-35840D01*
X34676Y-35817D01*
X34663Y-35787D01*
X34501Y-35625D01*
X34471Y-35613D01*
X34449Y-35590D01*
X34237Y-35503D01*
X34205D01*
X34175Y-35490D01*
D02*
G37*
G36*
X19316Y-37593D02*
X19137D01*
X18972Y-37661D01*
X18845Y-37788D01*
X18777Y-37953D01*
Y-38132D01*
X18845Y-38297D01*
X18972Y-38424D01*
X19137Y-38493D01*
X19316D01*
X19482Y-38424D01*
X19608Y-38297D01*
X19677Y-38132D01*
Y-37953D01*
X19608Y-37788D01*
X19482Y-37661D01*
X19316Y-37593D01*
D02*
G37*
G36*
X-32158Y-34100D02*
X-32612D01*
X-33056Y-34188D01*
X-33474Y-34362D01*
X-33851Y-34613D01*
X-34172Y-34934D01*
X-34423Y-35311D01*
X-34597Y-35729D01*
X-34685Y-36173D01*
Y-36627D01*
X-34597Y-37071D01*
X-34423Y-37489D01*
X-34172Y-37866D01*
X-33851Y-38187D01*
X-33474Y-38438D01*
X-33056Y-38612D01*
X-32612Y-38700D01*
X-32158D01*
X-31714Y-38612D01*
X-31296Y-38438D01*
X-30919Y-38187D01*
X-30598Y-37866D01*
X-30347Y-37489D01*
X-30173Y-37071D01*
X-30085Y-36627D01*
Y-36173D01*
X-30173Y-35729D01*
X-30347Y-35311D01*
X-30598Y-34934D01*
X-30919Y-34613D01*
X-31296Y-34362D01*
X-31714Y-34188D01*
X-32158Y-34100D01*
D02*
G37*
G36*
X20562Y-37961D02*
X20383D01*
X20217Y-38030D01*
X20091Y-38156D01*
X20022Y-38322D01*
Y-38501D01*
X20091Y-38666D01*
X20217Y-38793D01*
X20383Y-38861D01*
X20562D01*
X20727Y-38793D01*
X20854Y-38666D01*
X20922Y-38501D01*
Y-38322D01*
X20854Y-38156D01*
X20727Y-38030D01*
X20562Y-37961D01*
D02*
G37*
G36*
X-2286Y-22301D02*
X-2540D01*
X-2655Y-22348D01*
X-2702Y-22463D01*
Y-39162D01*
X-2655Y-39277D01*
X-2540Y-39325D01*
X-2286D01*
X-2171Y-39277D01*
X-2124Y-39162D01*
Y-22463D01*
X-2171Y-22348D01*
X-2286Y-22301D01*
D02*
G37*
G36*
X25750Y-38473D02*
X25571D01*
X25406Y-38541D01*
X25279Y-38668D01*
X25211Y-38833D01*
Y-39012D01*
X25279Y-39178D01*
X25406Y-39304D01*
X25571Y-39373D01*
X25750D01*
X25916Y-39304D01*
X26042Y-39178D01*
X26056Y-39144D01*
X26379Y-39148D01*
X26402Y-39203D01*
X26529Y-39329D01*
X26694Y-39398D01*
X26873D01*
X27038Y-39329D01*
X27165Y-39203D01*
X27234Y-39037D01*
Y-38858D01*
X27165Y-38693D01*
X27038Y-38566D01*
X26873Y-38498D01*
X26694D01*
X26529Y-38566D01*
X26402Y-38693D01*
X26388Y-38727D01*
X26065Y-38723D01*
X26042Y-38668D01*
X25916Y-38541D01*
X25750Y-38473D01*
D02*
G37*
%LPD*%
G36*
X1482Y15647D02*
X1561Y15631D01*
X1868D01*
X1947Y15647D01*
X2039Y15679D01*
X2294Y15530D01*
X2294Y15171D01*
X2198Y14911D01*
X1778D01*
X1661Y14888D01*
X1562Y14821D01*
X228Y13488D01*
X190Y13430D01*
X150Y13384D01*
X-127Y13275D01*
X-160Y13275D01*
X-164Y13277D01*
X-344D01*
X-509Y13208D01*
X-635Y13082D01*
X-850Y13048D01*
X-962Y13079D01*
X-1016Y13209D01*
X-1142Y13335D01*
X-1307Y13404D01*
X-1487D01*
X-1652Y13335D01*
X-1778Y13209D01*
X-1847Y13044D01*
Y12864D01*
X-1778Y12699D01*
X-1857Y12374D01*
X-1942Y12309D01*
X-2157D01*
X-2319Y12506D01*
X-2351Y12595D01*
X-2344Y12610D01*
Y12790D01*
X-2413Y12955D01*
X-2539Y13081D01*
X-2704Y13150D01*
X-2884D01*
X-3010Y13098D01*
X-3177Y13161D01*
X-3310Y13245D01*
Y14236D01*
X-3310Y14420D01*
X-3270Y14704D01*
X-2794D01*
X-2794Y14704D01*
X-2686Y14725D01*
X-2594Y14786D01*
X-2241Y15139D01*
X-1945Y15115D01*
X-1875Y15081D01*
X-1779Y14986D01*
X-1614Y14917D01*
X-1434D01*
X-1269Y14986D01*
X-1143Y15112D01*
X-1074Y15277D01*
Y15344D01*
X-1026Y15490D01*
X-822Y15631D01*
X-672D01*
X-593Y15647D01*
X-527Y15691D01*
X-489D01*
X-423Y15647D01*
X-344Y15631D01*
X-321D01*
X-69Y15457D01*
Y15277D01*
X-0Y15112D01*
X126Y14986D01*
X291Y14917D01*
X471D01*
X636Y14986D01*
X762Y15112D01*
X831Y15277D01*
Y15344D01*
X879Y15490D01*
X1083Y15631D01*
X1233D01*
X1312Y15647D01*
X1378Y15691D01*
X1416D01*
X1482Y15647D01*
D02*
G37*
G36*
X-9244Y12165D02*
Y10160D01*
X-11176D01*
X-11938Y9398D01*
X-13462Y9398D01*
X-13589Y9525D01*
Y11684D01*
X-12573Y12700D01*
X-9779D01*
X-9244Y12165D01*
D02*
G37*
G36*
X-4310Y15436D02*
Y14720D01*
X-4310Y14536D01*
X-4310Y14236D01*
Y13824D01*
X-4326Y13531D01*
X-5326D01*
Y12815D01*
X-5326Y12631D01*
X-5326Y12331D01*
Y11615D01*
X-5276D01*
Y11467D01*
X-5207Y11302D01*
X-5081Y11176D01*
X-4916Y11107D01*
X-4736D01*
X-4571Y11176D01*
X-4495Y11251D01*
X-4318Y11281D01*
X-4156Y11254D01*
X-4056Y11118D01*
Y10218D01*
X-4056D01*
Y10102D01*
X-4056D01*
Y9202D01*
X-4308Y9086D01*
X-4582D01*
X-4824Y9197D01*
X-4834Y9379D01*
Y10102D01*
X-5387D01*
X-5689Y10403D01*
Y15210D01*
X-5218Y15681D01*
X-4443D01*
X-4310Y15436D01*
D02*
G37*
G36*
X23495Y26416D02*
Y21336D01*
X22733Y20574D01*
X16764D01*
X16002Y21336D01*
Y27559D01*
X22352D01*
X23495Y26416D01*
D02*
G37*
G36*
X2764Y-15281D02*
X2995Y-15386D01*
X3099Y-15522D01*
X3235Y-15626D01*
X3393Y-15691D01*
X3563Y-15714D01*
X4469D01*
X4469Y-21021D01*
X3767Y-21722D01*
X2816D01*
X2552Y-21574D01*
Y-15338D01*
X2641Y-15281D01*
X2661Y-15278D01*
X2764Y-15281D01*
D02*
G37*
D10*
X4826Y-15560D02*
G03*
X4618Y-15058I-710J0D01*
G01*
X-3525Y-10726D02*
G03*
X-3333Y-11068I400J0D01*
G01*
X7627Y-9370D02*
X11011Y-5986D01*
Y-4737D01*
X6066Y-9370D02*
X7627D01*
X-5680Y-1701D02*
X-4713D01*
X-2443Y-10045D02*
Y-9540D01*
X3083Y-10701D02*
X3137Y-10648D01*
X4091D01*
X2605Y-10551D02*
X2933D01*
X2340Y-10287D02*
X2605Y-10551D01*
X2286Y-10287D02*
X2340D01*
X2933Y-10551D02*
X3083Y-10701D01*
X4826Y-15560D02*
X4826Y-21168D01*
X-213Y-22079D02*
X3915D01*
X4826Y-21168D01*
X-1524Y-20768D02*
Y-16383D01*
Y-20768D02*
X-213Y-22079D01*
X-17490Y-444D02*
X-16286D01*
X-17768Y-166D02*
X-17490Y-444D01*
X-15729Y-25114D02*
X-15695Y-25080D01*
X-16314Y-25114D02*
X-15729D01*
X-16348Y-25148D02*
X-16314Y-25114D01*
X-15737Y-356D02*
X-14853D01*
X-15851Y-242D02*
X-15737Y-356D01*
X24107Y-27718D02*
X24146Y-27679D01*
X24107Y-28641D02*
Y-27718D01*
X23991Y-28758D02*
X24107Y-28641D01*
X10922Y8201D02*
X11049Y8074D01*
X10922Y8201D02*
Y8255D01*
X11049Y-1397D02*
Y8074D01*
X22987Y2159D02*
X23368Y2540D01*
X25270D01*
X-5047Y32179D02*
X-733Y27865D01*
Y22204D02*
Y27865D01*
X-2871Y20066D02*
X-733Y22204D01*
X-2921Y20066D02*
X-2871D01*
X1270Y23114D02*
Y28362D01*
X-2547Y32179D02*
X1270Y28362D01*
X29340Y1270D02*
X30535Y1440D01*
X33631Y1387D02*
X34320Y2076D01*
X31414Y1723D02*
X32656D01*
X30535Y1440D02*
X31414Y1723D01*
X32656D02*
X33299Y1387D01*
X33631Y1387D01*
X31626Y-1693D02*
X31920D01*
X32195Y-1968D01*
X31203Y-1270D02*
X31626Y-1693D01*
X29340Y-1270D02*
X31203D01*
X3369Y-12768D02*
X3563D01*
X3073Y-12472D02*
X3369Y-12768D01*
X3013Y-12472D02*
X3073D01*
X2975Y-12434D02*
X3013Y-12472D01*
X14986Y12759D02*
Y13589D01*
X3563Y-19624D02*
Y-17414D01*
X3224Y-19964D02*
X3563Y-19624D01*
X3224Y-20018D02*
Y-19964D01*
X3497Y-17348D02*
X3563D01*
X3497D02*
X3563Y-17414D01*
X3261Y-17112D02*
Y-17057D01*
X3079Y-16876D02*
X3261Y-17057D01*
X3079Y-16876D02*
Y-16822D01*
X3261Y-17112D02*
X3497Y-17348D01*
X17526Y-17780D02*
X18483D01*
X-21082Y-26162D02*
Y-26108D01*
X-21127Y-26063D02*
X-21082Y-26108D01*
X-21127Y-26063D02*
Y-25804D01*
X-21277Y-25654D02*
X-21127Y-25804D01*
X1270Y23114D02*
X3429Y20955D01*
Y18542D02*
Y20955D01*
X-3021Y18950D02*
X-2921Y19050D01*
X-3529Y18950D02*
X-3021D01*
X-3837Y18642D02*
X-3529Y18950D01*
X-3837Y18134D02*
Y18642D01*
X-3937Y18034D02*
X-3837Y18134D01*
X16764Y12103D02*
Y13335D01*
X16906Y-14972D02*
X17452D01*
X17467Y-14957D01*
X16891Y-14986D02*
X16906Y-14972D01*
X16002Y-14097D02*
X16513Y-13587D01*
X16639D01*
X11011Y-4737D02*
X11049Y-4699D01*
X-5334Y8636D02*
X-4318D01*
X-1465Y11340D02*
X-1461Y11335D01*
X-3352Y8636D02*
X-3302D01*
X-3556Y8840D02*
X-3352Y8636D01*
X-3556Y8840D02*
Y9652D01*
X-4318Y8636D02*
X-3302D01*
X-2351Y8736D02*
X-2159Y8928D01*
X-3202Y8736D02*
X-2351D01*
X-3302Y8636D02*
X-3202Y8736D01*
X-2134Y8928D02*
X-1859Y9203D01*
Y9571D02*
X-1461Y9969D01*
X-1859Y9203D02*
Y9571D01*
X-1461Y9969D02*
Y11335D01*
X7052Y36957D02*
X7453Y36556D01*
X5499Y36957D02*
X7052D01*
X-3454Y-10344D02*
X-3349Y-10461D01*
X-3333Y-11068D02*
X-3190Y-11154D01*
X-3454Y-9709D02*
X-3428Y-9559D01*
X-3454Y-10344D02*
Y-9709D01*
X-3543Y-10696D02*
X-3460Y-10546D01*
X-3525Y-10726D02*
Y-10628D01*
X1714Y16605D02*
Y16632D01*
X1719Y16637D01*
X2413D01*
X3752Y15712D02*
X3810D01*
X3743Y15721D02*
X3752Y15712D01*
X3743Y15721D02*
Y16273D01*
X3429Y16587D02*
X3743Y16273D01*
X3429Y16587D02*
Y16637D01*
X2159Y19050D02*
Y19939D01*
Y18034D02*
Y18923D01*
X3429Y16465D02*
Y17526D01*
X-3937Y17018D02*
Y18034D01*
X-2438Y-10487D02*
Y-10090D01*
X7453Y35179D02*
Y36556D01*
X-21717Y-21717D02*
X-21695Y-21695D01*
X-21158D01*
X-21136Y-21674D01*
X-18227Y-21910D02*
X-18161Y-21844D01*
X-18227Y-22749D02*
Y-21910D01*
X-4559Y-2710D02*
X-4539D01*
X-4419Y-2830D01*
X-5680Y-2717D02*
X-4713D01*
X-4419Y-2830D02*
X-3910D01*
X-4713Y-2717D02*
X-4713Y-2717D01*
X-5680Y-2717D02*
X-5680Y-2717D01*
D11*
X20231Y-17378D02*
X20633Y-17780D01*
X20231Y-17378D02*
Y-16256D01*
X18483Y-16108D02*
X18631Y-16256D01*
X18483Y-16108D02*
Y-14957D01*
X18476Y-14950D02*
X18483Y-14957D01*
X18476Y-14950D02*
Y-13700D01*
X20223Y-12311D02*
X21262Y-11272D01*
X18476Y-13650D02*
X19815Y-12311D01*
X21262Y-11272D02*
Y-8308D01*
X19685Y-6731D02*
X21262Y-8308D01*
X19815Y-12311D02*
X20223D01*
D12*
X4264Y-4702D02*
G03*
X4318Y-4572I-130J130D01*
G01*
X-1397Y-9883D02*
G03*
X-1470Y-9706I-250J0D01*
G01*
X4846Y-5830D02*
G03*
X5023Y-5757I0J250D01*
G01*
X4968Y1539D02*
Y2948D01*
Y1539D02*
X8866Y-2360D01*
Y-3236D02*
Y-2360D01*
X7480Y243D02*
Y2176D01*
Y243D02*
X8058Y-335D01*
X8053Y-5429D02*
X8070Y-5412D01*
X8053Y-6450D02*
Y-5429D01*
X7223Y-7281D02*
X8053Y-6450D01*
X5304Y-7281D02*
X7223D01*
X5082Y-4697D02*
X9558D01*
X10572Y-3683D02*
X12192D01*
X9558Y-4697D02*
X10572Y-3683D01*
X4426Y-5352D02*
X5082Y-4697D01*
X8870Y-5586D02*
X8900Y-5556D01*
X7152Y-8117D02*
X8870Y-6399D01*
Y-5586D01*
X4518Y-8117D02*
X7152D01*
X1750Y1750D02*
X3302Y3302D01*
X-5714Y-4486D02*
X-5619D01*
X-5299Y-4805D01*
X-3375D01*
X-6667Y-5805D02*
X-3375D01*
X-7427Y-5045D02*
X-6667Y-5805D01*
X-7427Y-5045D02*
Y-3441D01*
X-6043Y-5305D02*
X-3425D01*
X-6588Y-4760D02*
X-6043Y-5305D01*
X-6629Y-4760D02*
X-6588D01*
X-8141Y-2727D02*
X-7427Y-3441D01*
X-8141Y-2727D02*
Y-664D01*
X-7387Y-2762D02*
X-7026Y-3123D01*
X-7387Y-2762D02*
Y-2667D01*
X-7026Y-3437D02*
X-6654Y-3809D01*
X-7026Y-3437D02*
Y-3123D01*
X-9218Y85D02*
X-9187Y55D01*
Y-634D02*
Y55D01*
Y-634D02*
X-9157Y-664D01*
X-14097Y4953D02*
X-13308Y4164D01*
X3752D01*
X4968Y2948D01*
X7482Y3194D02*
Y4012D01*
X-11938Y-635D02*
Y381D01*
X-12573Y-2794D02*
Y889D01*
X-12027Y1435D01*
X-11938Y-1778D02*
Y-635D01*
X-8001Y889D02*
X-2028D01*
X-250Y-889D01*
X-7762Y1382D02*
X-1782D01*
X-1474Y1074D01*
X-8763Y1651D02*
X-8001Y889D01*
X-8481Y2101D02*
X-7762Y1382D01*
X4205Y-7805D02*
X4518Y-8117D01*
X3375Y-7805D02*
X4205D01*
X4652Y-7281D02*
X5304D01*
X4177Y-6805D02*
X4652Y-7281D01*
X3375Y-6805D02*
X4177D01*
X-250Y-1680D02*
Y-889D01*
X250Y-1680D02*
Y-631D01*
X-1455Y1074D02*
X250Y-631D01*
X-1474Y1074D02*
X-1455D01*
X-11264Y2101D02*
X-8481D01*
X-6654Y-3809D02*
X-5284D01*
X-4788Y-4305D01*
X-3375D01*
X-8255Y-5207D02*
Y-5058D01*
X-8377Y-4936D02*
X-8255Y-5058D01*
X-8377Y-4936D02*
Y-4623D01*
X-8552Y-4448D02*
X-8377Y-4623D01*
X-8602Y-4448D02*
X-8552D01*
X-9652Y-4445D02*
X-9017D01*
X-8833Y-4629D01*
X-7780Y-7330D02*
X-7255Y-6805D01*
X-3375D01*
X-7082Y-6380D02*
X-3175D01*
X-8255Y-5207D02*
X-7082Y-6380D01*
X-6604Y-8186D02*
X-5723Y-7305D01*
X-3375D01*
X-3166Y-1687D02*
X-3163Y-1683D01*
X-2753D01*
X-2750Y-1680D01*
X-25201Y-155D02*
X-23625D01*
X1750Y-1680D02*
Y1750D01*
X-22050Y-33856D02*
X-22021Y-33827D01*
X-22154Y-33856D02*
X-22050D01*
X-22837Y-34539D02*
X-22154Y-33856D01*
X-23251Y-34539D02*
X-22837D01*
X-24538Y-35826D02*
X-23251Y-34539D01*
X-22662Y-31567D02*
X-21228Y-33001D01*
X-27670Y-29579D02*
X-26880Y-28789D01*
X-24331D01*
X-22662Y-30459D01*
Y-31567D02*
Y-30459D01*
X-20066Y-26655D02*
Y-25688D01*
X-19753Y-32530D02*
Y-27011D01*
Y-32530D02*
X-19025Y-33257D01*
X-20108Y-26655D02*
X-19753Y-27011D01*
X23517Y-35777D02*
Y-34917D01*
X22723Y-34123D02*
X23517Y-34917D01*
X25714Y-36799D02*
X26349D01*
X25619Y-36703D02*
X25714Y-36799D01*
X24444Y-36703D02*
X25619D01*
X23517Y-35777D02*
X24444Y-36703D01*
X14732Y-23982D02*
X16305Y-25555D01*
X20337D01*
X22432Y-27650D01*
Y-32663D02*
Y-27650D01*
X14732Y-23982D02*
Y-13208D01*
X12637Y-2477D02*
X13081Y-2032D01*
X12637Y-3239D02*
Y-2477D01*
X12192Y-3683D02*
X12637Y-3239D01*
X13081Y-2032D02*
X14351D01*
X-6222Y30860D02*
X-2921Y27559D01*
X-6222Y30860D02*
Y32666D01*
X-2667Y35179D02*
X-2547D01*
X-4191Y33655D02*
X-2667Y35179D01*
X-5233Y33655D02*
X-4191D01*
X-6222Y32666D02*
X-5233Y33655D01*
X9779Y11430D02*
Y12507D01*
X9819Y12547D01*
Y13107D01*
X9779Y13147D02*
X9819Y13107D01*
X9144Y12827D02*
Y16314D01*
X9779Y13147D02*
Y15875D01*
X12446Y8574D02*
X12508Y8636D01*
X11833Y2711D02*
Y9547D01*
X12446Y3175D02*
Y8574D01*
X11833Y2711D02*
X13781Y762D01*
X14986D01*
X12446Y3175D02*
X14097Y1524D01*
X14986Y10579D02*
X15289D01*
X11214D02*
X14986D01*
X7620Y6985D02*
X11214Y10579D01*
X16891Y-4064D02*
Y889D01*
X14097Y1524D02*
X16256D01*
X16891Y889D01*
X19177Y1270D02*
X25270D01*
X18101Y194D02*
X19177Y1270D01*
X19097Y0D02*
X25270D01*
X17918Y194D02*
X18101D01*
X17851Y127D02*
X17918Y194D01*
X9779Y15875D02*
X14478Y20574D01*
Y34417D01*
X9144Y16314D02*
X13716Y20886D01*
Y34036D01*
X12226Y35526D02*
X13716Y34036D01*
X11131Y35526D02*
X12226D01*
X11081Y35476D02*
X11131Y35526D01*
X10250Y35476D02*
X11081D01*
X9953Y35179D02*
X10250Y35476D01*
X-2921Y21971D02*
Y27559D01*
X-11684Y18669D02*
X-6223D01*
X-2921Y21971D01*
X-14097Y16256D02*
X-11684Y18669D01*
X-14605Y12954D02*
X-14097Y13462D01*
X-14605Y8128D02*
X-12867Y6390D01*
X-14605Y8128D02*
Y12954D01*
X-14097Y13462D02*
Y16256D01*
X-12867Y6009D02*
X-12827Y5969D01*
X-12867Y6009D02*
Y6390D01*
X12446Y36449D02*
X14478Y34417D01*
X4064Y6985D02*
X7620D01*
X495Y-119D02*
Y1524D01*
X2609Y34D02*
Y263D01*
X2575Y0D02*
X2609Y34D01*
X5165Y-3937D02*
X5873Y-3229D01*
X4140Y-3937D02*
X5165D01*
X3847Y-4230D02*
X4140Y-3937D01*
X3775Y-4230D02*
X3847D01*
X3675Y-4330D02*
X3775Y-4230D01*
X3400Y-4330D02*
X3675D01*
X4136Y-4830D02*
X4264Y-4702D01*
X3400Y-4830D02*
X4136D01*
X-1397Y-10922D02*
Y-9883D01*
X-2251Y-11776D02*
X-1397Y-10922D01*
X29468Y-5842D02*
X29614Y-5696D01*
X16129Y-4445D02*
X17526Y-5842D01*
X29614Y-5696D02*
Y-5325D01*
X17526Y-5842D02*
X29468D01*
X29340Y-5080D02*
X29369D01*
X29614Y-5325D01*
X-1198Y12887D02*
X-826Y12515D01*
X-1330Y12887D02*
X-1198D01*
X-1397Y12954D02*
X-1330Y12887D01*
X-826Y11335D02*
Y12515D01*
X-11877Y1435D02*
X-11264Y2047D01*
X-12027Y1435D02*
X-11877D01*
X-5969Y15326D02*
X-5334Y15961D01*
X-5969Y10287D02*
Y15326D01*
Y10287D02*
X-5559Y9877D01*
Y9827D02*
Y9877D01*
Y9827D02*
X-5384Y9652D01*
X-5334D01*
Y15961D02*
X-2810D01*
X14732Y-13208D02*
X16240Y-11700D01*
X17526D01*
X-5421Y5209D02*
X-5296Y5334D01*
X8890D01*
X-6096Y5197D02*
X-6084Y5209D01*
X-5421D01*
X8890Y5334D02*
X10033Y6477D01*
X3302Y6223D02*
X4064Y6985D01*
X23517Y10414D02*
X24781D01*
X16488Y10579D02*
X16764Y10303D01*
X15289Y10579D02*
X16488D01*
X16828Y10303D02*
X18193D01*
X18304Y10414D01*
X15494Y-3937D02*
Y-3175D01*
X14351Y-2032D02*
X15494Y-3175D01*
X-11938Y381D02*
X-10668Y1651D01*
X-8763D01*
X-4826Y13081D02*
X-3810D01*
Y13970D01*
X-2810Y15961D02*
X-2730Y16041D01*
Y16605D01*
X18589Y-508D02*
X19097Y0D01*
X4455Y-2330D02*
X4550Y-2425D01*
X4832Y-6350D02*
X4954Y-6472D01*
X4318Y-6350D02*
X4832D01*
X3400Y-2330D02*
X4455D01*
X2750Y-1680D02*
Y-1405D01*
X3400Y-6330D02*
X4298D01*
X4318Y-6350D01*
X-2750Y-8719D02*
Y-8480D01*
X-3340Y-9309D02*
X-2750Y-8719D01*
X-2921Y17984D02*
Y18034D01*
Y17984D02*
X-2730Y17794D01*
Y16605D02*
Y17794D01*
X1111Y16637D02*
Y18002D01*
X1079Y16605D02*
X1111Y16637D01*
X-1750Y-9426D02*
X-1470Y-9706D01*
X-1750Y-9426D02*
Y-8480D01*
X1250Y-9251D02*
Y-8480D01*
Y-9251D02*
X1524Y-9525D01*
X4761D01*
X5050Y-9420D02*
Y-9370D01*
X4875Y-9595D02*
X5050Y-9420D01*
X4761Y-9595D02*
X4875D01*
X4196Y-9690D02*
X4246D01*
X750Y-8755D02*
Y-8480D01*
X16129Y-4445D02*
Y254D01*
X15661Y722D02*
X16129Y254D01*
X16891Y-4064D02*
X17907Y-5080D01*
X25270D01*
X24000Y-3937D02*
X25270Y-3810D01*
X18161Y-3937D02*
X24000D01*
X15026Y722D02*
X15661D01*
X14986Y762D02*
X15026Y722D01*
X31953Y-3810D02*
X32195Y-3568D01*
X29340Y-3810D02*
X31953D01*
X5023Y-5757D02*
X5201Y-5579D01*
X3400Y-5830D02*
X4846D01*
X2250Y-894D02*
X2843Y-301D01*
X2250Y-1680D02*
Y-894D01*
X-3910Y-2830D02*
X-3400D01*
X-2265Y-9140D02*
X-2234Y-9110D01*
X-2250Y-9094D02*
Y-8480D01*
X-2265Y-9364D02*
Y-9140D01*
X-2438Y-9585D02*
X-2412Y-9559D01*
X-2460Y-9559D02*
X-2265Y-9364D01*
X-2427Y-10478D02*
X-2401Y-10452D01*
X3699Y-5352D02*
X4426D01*
X-20066Y-25688D02*
X-19177Y-24799D01*
X-4060Y-3330D02*
X-3400D01*
X-4279Y-3549D02*
X-4060Y-3330D01*
D17*
X-30179Y23485D02*
G03*
X-30179Y23485I-1000J0D01*
G01*
X-7679D02*
G03*
X-7679Y23485I-1000J0D01*
G01*
X31717D02*
G03*
X31717Y23485I-1000J0D01*
G01*
X9217D02*
G03*
X9217Y23485I-1000J0D01*
G01*
X-32559Y13208D02*
X-29520D01*
X-25090D02*
X-22559D01*
X31607Y13656D02*
X32055Y13208D01*
X29199Y13656D02*
X31607D01*
X29139Y13716D02*
X29199Y13656D01*
X22055Y13208D02*
X22503Y13656D01*
X24649D01*
X24709Y13716D01*
D18*
X-9157Y-664D02*
D03*
X-8141D02*
D03*
X5431Y-2336D02*
D03*
X4415D02*
D03*
X2885Y-293D02*
D03*
X3901D02*
D03*
X2888Y655D02*
D03*
X3904D02*
D03*
X-2459Y-10614D02*
D03*
X-3475D02*
D03*
X-2459Y-9686D02*
D03*
X-3475D02*
D03*
X-514Y1703D02*
D03*
X502D02*
D03*
X-12539Y-2821D02*
D03*
X-11523D02*
D03*
X-11921Y-1672D02*
D03*
X-10905D02*
D03*
X5153Y-9459D02*
D03*
X6169D02*
D03*
X1524Y9906D02*
D03*
X3810Y13716D02*
D03*
X1143Y20066D02*
D03*
X-4953Y17018D02*
D03*
X1143Y19050D02*
D03*
X-2024Y18028D02*
D03*
X508Y9906D02*
D03*
X2794Y13716D02*
D03*
X-2921Y18034D02*
D03*
X1143D02*
D03*
X2413Y16637D02*
D03*
X-1008Y18028D02*
D03*
X2159Y19050D02*
D03*
X3429Y16637D02*
D03*
X-3937Y17018D02*
D03*
X2159Y20066D02*
D03*
X-3937Y18034D02*
D03*
X2159D02*
D03*
X18483Y-14957D02*
D03*
X-20120Y-21674D02*
D03*
X17467Y-14957D02*
D03*
X-21136Y-21674D02*
D03*
D19*
X22429Y-28758D02*
D03*
X23991D02*
D03*
X-17910Y-25148D02*
D03*
X-16348D02*
D03*
X3899Y36957D02*
D03*
X18631Y-16256D02*
D03*
X20231D02*
D03*
X-21552Y-23876D02*
D03*
X-23152D02*
D03*
X17183Y39370D02*
D03*
X15583D02*
D03*
X18834Y34417D02*
D03*
X5499Y36957D02*
D03*
X17234Y34417D02*
D03*
D20*
X-2159Y7328D02*
D03*
X-635D02*
D03*
Y8928D02*
D03*
X-2159D02*
D03*
X32195Y-1968D02*
D03*
Y-3568D02*
D03*
D21*
X-21625Y-155D02*
D03*
X-23625D02*
D03*
X24781Y10414D02*
D03*
X26781D02*
D03*
X18304D02*
D03*
X20304D02*
D03*
X21517D02*
D03*
X23517D02*
D03*
X-17768Y-166D02*
D03*
X-19768D02*
D03*
X-25201Y-155D02*
D03*
X-27201D02*
D03*
D22*
X-16286Y-2444D02*
D03*
Y-444D02*
D03*
X16764Y12303D02*
D03*
Y10303D02*
D03*
D31*
X22440Y-30073D02*
D03*
X24590D02*
D03*
X-17958Y-26655D02*
D03*
X-20108D02*
D03*
X20633Y-17780D02*
D03*
X18483D02*
D03*
X-23427Y-25654D02*
D03*
X-21277D02*
D03*
D32*
X-33382Y-19839D02*
D03*
X-33511Y-25540D02*
D03*
X-33272Y-22595D02*
D03*
X26230Y-30068D02*
D03*
X25315Y-30867D02*
D03*
X25268Y-29270D02*
D03*
X-28450Y-21018D02*
D03*
Y-24066D02*
D03*
X-29457Y-25218D02*
D03*
X-29540Y-20211D02*
D03*
X-28217Y-22631D02*
D03*
X-29659Y-22643D02*
D03*
X-31317Y-22655D02*
D03*
X32289Y-22503D02*
D03*
X30333Y-22563D02*
D03*
X28676Y-22551D02*
D03*
X27233Y-22539D02*
D03*
X32575Y-19749D02*
D03*
X32527Y-25448D02*
D03*
X28557Y-20118D02*
D03*
X28473Y-25126D02*
D03*
X27466Y-23974D02*
D03*
Y-20926D02*
D03*
X-18669Y12700D02*
D03*
Y15367D02*
D03*
X-16017Y19487D02*
D03*
X-23495Y38989D02*
D03*
Y40513D02*
D03*
X-26416Y39243D02*
D03*
Y40513D02*
D03*
X25527Y39624D02*
D03*
Y41148D02*
D03*
X22606D02*
D03*
Y39878D02*
D03*
X25654Y26543D02*
D03*
X25781Y21971D02*
D03*
X26289Y24257D02*
D03*
X21844Y26416D02*
D03*
X19033Y35481D02*
D03*
X20908Y34174D02*
D03*
X19776Y32192D02*
D03*
X20320Y23368D02*
D03*
X18669D02*
D03*
X17145D02*
D03*
X20320Y25400D02*
D03*
X18669D02*
D03*
X17145D02*
D03*
Y27432D02*
D03*
X18669D02*
D03*
X20320D02*
D03*
X-22479Y24765D02*
D03*
Y26162D02*
D03*
X-24003D02*
D03*
X-24048Y24745D02*
D03*
D50*
X15453Y36679D02*
D03*
X-15547D02*
D03*
D51*
X8058Y-335D02*
D03*
X8070Y-5412D02*
D03*
X8866Y-3236D02*
D03*
X8900Y-5556D02*
D03*
X3302Y3302D02*
D03*
X7482Y4012D02*
D03*
X4928Y4131D02*
D03*
X-6629Y-4760D02*
D03*
X-5714Y-4486D02*
D03*
X-9218Y85D02*
D03*
X-11938Y-635D02*
D03*
X-198Y630D02*
D03*
X-7387Y-2667D02*
D03*
X-8151Y-3570D02*
D03*
X2143Y-2846D02*
D03*
X1076D02*
D03*
X-1067D02*
D03*
X0D02*
D03*
X-2113D02*
D03*
X2143Y-3951D02*
D03*
X1076D02*
D03*
X-1067D02*
D03*
X0D02*
D03*
X-2113D02*
D03*
X2143Y-5055D02*
D03*
X1076D02*
D03*
X-1067D02*
D03*
X0D02*
D03*
X-2113D02*
D03*
X2143Y-6212D02*
D03*
X1076D02*
D03*
X-1067D02*
D03*
X0D02*
D03*
X-2113D02*
D03*
Y-7277D02*
D03*
X0D02*
D03*
X-1067D02*
D03*
X1076D02*
D03*
X2143D02*
D03*
X-15695Y-25080D02*
D03*
X-15547Y-2512D02*
D03*
X-15494Y-778D02*
D03*
X26957Y-31912D02*
D03*
X-14890Y-31409D02*
D03*
X-15631Y-32466D02*
D03*
X-16506Y-31443D02*
D03*
X-18285D02*
D03*
X-17410Y-32466D02*
D03*
X-35179Y-31496D02*
D03*
X-22021Y-33827D02*
D03*
X-24538Y-35826D02*
D03*
X-21228Y-33001D02*
D03*
X-25059Y-34122D02*
D03*
X24146Y-27679D02*
D03*
X-27670Y-29579D02*
D03*
X-19025Y-33257D02*
D03*
X-27990Y-34386D02*
D03*
X-17404Y-26658D02*
D03*
X20472Y-38411D02*
D03*
X19227Y-38043D02*
D03*
X22723Y-34123D02*
D03*
X23018Y-33433D02*
D03*
X26784Y-38948D02*
D03*
X25661Y-38923D02*
D03*
X26349Y-36799D02*
D03*
X24592Y-35481D02*
D03*
X16039Y-34207D02*
D03*
X15164Y-33184D02*
D03*
X16943D02*
D03*
X17818Y-34207D02*
D03*
X18715Y-33184D02*
D03*
X19570Y-34207D02*
D03*
X22432Y-32663D02*
D03*
X-11599Y-10336D02*
D03*
X-10794Y-10343D02*
D03*
X-10708Y-8467D02*
D03*
X-11499Y-8480D02*
D03*
X-11049Y-9369D02*
D03*
X-11811D02*
D03*
X10179Y-2079D02*
D03*
X12060Y-2051D02*
D03*
X10922Y8255D02*
D03*
X22098Y3683D02*
D03*
X21209D02*
D03*
X27432Y4445D02*
D03*
X-14732Y4064D02*
D03*
X-10541Y7620D02*
D03*
X2575Y0D02*
D03*
X32035Y223D02*
D03*
X34320Y2076D02*
D03*
X2975Y-12434D02*
D03*
X381Y15367D02*
D03*
X-2794Y12700D02*
D03*
X-10541Y13848D02*
D03*
X-9271Y13970D02*
D03*
X-1524Y15367D02*
D03*
X4311Y14344D02*
D03*
X4318Y13462D02*
D03*
X-3810Y11557D02*
D03*
X-4826D02*
D03*
X9398Y39497D02*
D03*
X1270Y8001D02*
D03*
X-7762Y17074D02*
D03*
X-12827Y7747D02*
D03*
X-10922Y17526D02*
D03*
X3175Y10414D02*
D03*
X-2794Y7620D02*
D03*
X-1407Y7496D02*
D03*
X4318Y-4572D02*
D03*
X-2251Y-11776D02*
D03*
X-12573Y12065D02*
D03*
Y10922D02*
D03*
X-1397Y12954D02*
D03*
X-254Y12827D02*
D03*
X14986Y13589D02*
D03*
X3224Y-20018D02*
D03*
X3079Y-16822D02*
D03*
X-11264Y2047D02*
D03*
X17526Y-17780D02*
D03*
X-21082Y-26162D02*
D03*
X-18728Y8951D02*
D03*
X16764Y13335D02*
D03*
X-9779Y11816D02*
D03*
X-13208Y11435D02*
D03*
X16891Y-14986D02*
D03*
X16002Y-14097D02*
D03*
X19685Y-6731D02*
D03*
X-6096Y5197D02*
D03*
X3302Y6223D02*
D03*
X-16764Y9271D02*
D03*
X-22098Y9652D02*
D03*
Y8636D02*
D03*
Y7366D02*
D03*
X16891Y2032D02*
D03*
X16092Y3212D02*
D03*
X17611Y3284D02*
D03*
X13843Y8382D02*
D03*
X10033Y6477D02*
D03*
X-5219Y-1205D02*
D03*
X28194Y10414D02*
D03*
X-14097Y4953D02*
D03*
X9906Y-10541D02*
D03*
Y-9652D02*
D03*
Y-8763D02*
D03*
X10922D02*
D03*
Y-9652D02*
D03*
Y-10541D02*
D03*
X-23241Y9652D02*
D03*
X-24384D02*
D03*
X-23241Y7366D02*
D03*
X-24384D02*
D03*
X24257Y4826D02*
D03*
X23241D02*
D03*
X21209D02*
D03*
X22225D02*
D03*
X-1524Y-16383D02*
D03*
X5228Y-6461D02*
D03*
X10922Y-15439D02*
D03*
X-10795Y-2159D02*
D03*
X-3190Y-11154D02*
D03*
X18589Y-508D02*
D03*
X11049Y-4699D02*
D03*
Y-1397D02*
D03*
X2286Y-10287D02*
D03*
X-3429Y-12954D02*
D03*
X-8509Y-11811D02*
D03*
X-20120Y-3737D02*
D03*
X32512Y8382D02*
D03*
Y7112D02*
D03*
Y5715D02*
D03*
Y4445D02*
D03*
X31242Y8382D02*
D03*
Y7112D02*
D03*
Y5715D02*
D03*
Y4445D02*
D03*
X29972Y8382D02*
D03*
Y7112D02*
D03*
Y5715D02*
D03*
Y4445D02*
D03*
X28702Y8382D02*
D03*
Y7112D02*
D03*
Y5715D02*
D03*
Y4445D02*
D03*
X27432Y5715D02*
D03*
Y7112D02*
D03*
Y8382D02*
D03*
X-21717Y-21717D02*
D03*
X-18161Y-21844D02*
D03*
X15494Y-3937D02*
D03*
X18161D02*
D03*
X17851Y127D02*
D03*
X-3756Y-27169D02*
D03*
X5461Y-2032D02*
D03*
X5873Y-3229D02*
D03*
X5201Y-5579D02*
D03*
X11938Y-18360D02*
D03*
X-4958Y-3172D02*
D03*
X-27813Y8255D02*
D03*
Y6985D02*
D03*
Y5588D02*
D03*
Y4318D02*
D03*
X-29083Y8255D02*
D03*
Y6985D02*
D03*
Y5588D02*
D03*
Y4318D02*
D03*
X-30353Y8255D02*
D03*
Y6985D02*
D03*
Y5588D02*
D03*
Y4318D02*
D03*
X-31623Y8255D02*
D03*
Y6985D02*
D03*
Y5588D02*
D03*
Y4318D02*
D03*
X-32893D02*
D03*
Y5588D02*
D03*
Y6985D02*
D03*
Y8255D02*
D03*
X-31242Y1397D02*
D03*
X-34290Y-1270D02*
D03*
X-4279Y-3549D02*
D03*
X-3166Y-1687D02*
D03*
X14986Y762D02*
D03*
X14097Y1524D02*
D03*
D52*
X33441Y-33372D02*
D03*
X9779Y11430D02*
D03*
X9144Y12827D02*
D03*
X12508Y8636D02*
D03*
X11833Y9547D02*
D03*
X-8255Y-5207D02*
D03*
X-12827Y5969D02*
D03*
X12446Y36449D02*
D03*
X16637Y18415D02*
D03*
X21590D02*
D03*
X-4318Y7112D02*
D03*
D53*
X1651Y12573D02*
D03*
D54*
X-4953Y17526D02*
D03*
X635Y19050D02*
D03*
Y20066D02*
D03*
D56*
X16383Y6223D02*
D03*
X17526Y6350D02*
D03*
X-17153Y6220D02*
D03*
X-18550D02*
D03*
X4318Y-1016D02*
D03*
X-2164Y-9988D02*
D03*
D57*
X28844Y-628D02*
G03*
X29341Y-126I-4J500D01*
G01*
X12060Y-2078D02*
Y-2051D01*
X11906Y-2232D02*
X12060Y-2078D01*
X11906Y-2509D02*
Y-2232D01*
X11856Y-2559D02*
X11906Y-2509D01*
X11806Y-2559D02*
X11856D01*
X-10795Y-2159D02*
X-10776Y-2178D01*
Y-2355D02*
Y-2178D01*
Y-2355D02*
X-9702Y-3429D01*
X-9652D01*
X2834Y71D02*
Y438D01*
X-5222Y-1690D02*
X-5219Y-1205D01*
X6858Y-6533D02*
X6858Y-6533D01*
X5950Y-6533D02*
X6858D01*
X5950Y-6534D02*
X5950Y-6533D01*
X5274Y-6461D02*
X6008Y-6472D01*
X-10922Y-1828D02*
X-10814Y-1936D01*
X-10922Y-1828D02*
Y-1778D01*
X-10814Y-2140D02*
X-10795Y-2159D01*
X-10822D02*
X-10795D01*
X-10814Y-2140D02*
Y-1936D01*
X-10968Y-2305D02*
X-10822Y-2159D01*
X-11118Y-2305D02*
X-10968D01*
X-11557Y-2744D02*
X-11118Y-2305D01*
X-11557Y-2794D02*
Y-2744D01*
X-2221Y-10045D02*
X-2164Y-9988D01*
X-2389Y-10045D02*
X-2221D01*
X27686Y-635D02*
X28844Y-628D01*
X29340Y0D02*
X29341Y-120D01*
X29341Y-126D01*
X28195Y-1150D02*
X29340Y-1270D01*
X6808Y-5567D02*
X6858Y-5517D01*
X6033Y-5567D02*
X6808D01*
X6008Y-5592D02*
X6033Y-5567D01*
X5233Y-5592D02*
X6008D01*
X2784Y488D02*
X2834Y438D01*
Y71D02*
X2843Y61D01*
Y-301D02*
Y61D01*
X-8636Y-10437D02*
Y-9086D01*
X-6604Y-10459D02*
Y-9086D01*
D58*
X34202Y-19757D02*
G03*
X34202Y-19743I-1627J8D01*
G01*
X-8636Y-8186D02*
X-7780Y-7330D01*
X-19778Y-155D02*
X-19768Y-166D01*
X-21625Y-155D02*
X-19778D01*
X-31242Y1397D02*
X-29690Y-155D01*
X-27201D01*
X-14853Y-356D02*
X-14638Y-141D01*
Y375D01*
X-12068Y2944D01*
X642D01*
X1250Y2336D01*
Y-1680D02*
Y2336D01*
X33441Y-33372D02*
X34450Y-32363D01*
Y-24015D01*
X34181Y-23746D02*
X34450Y-24015D01*
X34181Y-23746D02*
X34202Y-19757D01*
X34237Y-7927D02*
X34925Y-7239D01*
X34163Y-8001D02*
X34237Y-7927D01*
X34163Y-8211D02*
X34202Y-19743D01*
X34163Y-8211D02*
Y-8001D01*
X32035Y223D02*
X32624Y-366D01*
X33162D01*
X34925Y-2129D01*
Y-7239D02*
Y-2129D01*
X26781Y10414D02*
X28194D01*
Y10508D01*
X18034Y35242D02*
Y38494D01*
X17234Y34442D02*
X18034Y35242D01*
X17183Y39345D02*
X18034Y38494D01*
X7052Y36957D02*
X7687Y37592D01*
X10033D01*
X12083Y38542D02*
X12283D01*
X13111Y39370D01*
X15583D01*
X16389Y32613D02*
Y32913D01*
X16886Y33410D01*
Y34069D01*
X17234Y34417D01*
Y34442D01*
X17183Y39345D02*
Y39370D01*
X1111Y18002D02*
Y18116D01*
X970Y18257D02*
X1111Y18116D01*
X716Y18257D02*
X970D01*
X-77Y19050D02*
X716Y18257D01*
X-127Y19050D02*
X-77D01*
X-159Y18002D02*
X-127Y18034D01*
X-159Y16637D02*
Y18002D01*
X-191Y16605D02*
X-159Y16637D01*
X-3810Y14986D02*
X-2794D01*
X-2174Y15606D01*
Y16527D01*
X-2095Y16605D01*
X-2060Y16641D02*
Y17992D01*
X-2095Y16605D02*
X-2060Y16641D01*
Y17992D02*
X-2024Y18028D01*
X-904Y16683D02*
X-826Y16605D01*
X-904Y16683D02*
Y17442D01*
X-908Y17447D02*
X-904Y17442D01*
X-908Y17447D02*
Y17928D01*
X-1008Y18028D02*
X-908Y17928D01*
X-20120Y-21674D02*
Y-3737D01*
X-34290Y-2286D02*
Y-1270D01*
X-35179Y-3175D02*
X-34290Y-2286D01*
X-35179Y-31496D02*
Y-3175D01*
X495Y-119D02*
X750Y-374D01*
X19723Y10414D02*
X20917D01*
X750Y-1680D02*
Y-374D01*
X-6604Y-8186D02*
X-6248Y-7830D01*
D59*
X-514Y945D02*
X-198Y630D01*
X-514Y945D02*
Y1703D01*
X-198Y630D02*
X-198D01*
X-8208Y-3513D02*
X-8151Y-3570D01*
X-8521Y-3513D02*
X-8208D01*
X-8602Y-3432D02*
X-8521Y-3513D01*
X-15547Y-2512D02*
X-15545Y-2509D01*
X-14856D01*
X-14853Y-2506D01*
X-17406Y-26656D02*
X-17404Y-26658D01*
X-17957Y-26656D02*
X-17406D01*
X-17958Y-26655D02*
X-17957Y-26656D01*
X23099Y-33433D02*
X24535Y-34869D01*
X23018Y-33433D02*
X23099D01*
X24535Y-35424D02*
Y-34869D01*
Y-35424D02*
X24592Y-35481D01*
X10510Y-2587D02*
X10560D01*
X10237Y-2313D02*
X10510Y-2587D01*
X10237Y-2313D02*
Y-2136D01*
X10179Y-2079D02*
X10237Y-2136D01*
X-10541Y9034D02*
X-10369Y9205D01*
X-10541Y7620D02*
Y9034D01*
X-17192Y18577D02*
Y18712D01*
X-16567Y19337D01*
X-16356D02*
X-16206Y19487D01*
X-16567Y19337D02*
X-16356D01*
X-16206Y19487D02*
X-16017D01*
X381Y15367D02*
X413Y15399D01*
Y16593D01*
X444Y16625D01*
X1714Y11335D02*
Y12509D01*
X1651Y12573D02*
X1714Y12509D01*
X-2762Y11367D02*
X-2730Y11335D01*
X1524Y9906D02*
X1660Y10042D01*
Y11280D01*
X1714Y11335D01*
X-2762Y11367D02*
Y12668D01*
X-2794Y12700D02*
X-2762Y12668D01*
X1747Y11303D02*
X2667D01*
X1714Y11335D02*
X1747Y11303D01*
X-3556Y10668D02*
X-3532Y10692D01*
X-2786D01*
X-2730Y10747D01*
Y11335D01*
X-10541Y13848D02*
Y14006D01*
X-10886Y14351D02*
X-10541Y14006D01*
X-10947Y14351D02*
X-10886D01*
X-17293Y16925D02*
X-17268Y16900D01*
X-1524Y15367D02*
X-1492Y15399D01*
Y16593D01*
X-1461Y16625D01*
X-4953Y17018D02*
Y17526D01*
X635Y19050D02*
X1143D01*
X635Y20066D02*
X1143D01*
X2667Y10287D02*
X2817Y10437D01*
X3899Y36932D02*
Y36957D01*
X2453Y35486D02*
X3899Y36932D01*
X2453Y35179D02*
Y35486D01*
X4230Y14344D02*
X4311D01*
X4119Y14455D02*
X4230Y14344D01*
X3960Y14455D02*
X4119D01*
X3810Y14605D02*
X3960Y14455D01*
X3810Y13669D02*
Y13716D01*
Y13669D02*
X3960Y13519D01*
X4261D01*
X4318Y13462D01*
X-3810Y11557D02*
Y12065D01*
X-4826Y11557D02*
Y12065D01*
X10031Y39494D02*
X10033Y39492D01*
X9401Y39494D02*
X10031D01*
X9398Y39497D02*
X9401Y39494D01*
X508Y8001D02*
X1270D01*
X-8890Y16447D02*
X-8413Y16924D01*
X-7993D01*
X-7843Y17074D01*
X-7762D01*
X-12827Y8502D02*
X-12728Y8601D01*
X-12827Y7747D02*
Y8502D01*
X-10922Y16675D02*
Y17526D01*
X-10947Y16650D02*
X-10922Y16675D01*
X17981Y18415D02*
X18047Y18481D01*
X16637Y18415D02*
X17981D01*
X20307Y18481D02*
X20372Y18415D01*
X21590D01*
X3118Y10357D02*
X3175Y10414D01*
X2817Y10407D02*
X2867Y10357D01*
X3118D01*
X2817Y10407D02*
Y10437D01*
X-4318Y7112D02*
Y7620D01*
X-3302D02*
X-2794D01*
X-960Y7521D02*
Y7653D01*
X-985Y7496D02*
X-960Y7521D01*
X-1407Y7496D02*
X-985D01*
X-254Y12827D02*
X-222Y12795D01*
Y11367D02*
Y12795D01*
Y11367D02*
X-191Y11335D01*
X444D02*
Y13271D01*
X1778Y14605D01*
X444Y10720D02*
Y11335D01*
X-5680Y-1701D02*
X-5680Y-1701D01*
X2794Y13716D02*
Y14605D01*
X-4679Y-1690D02*
X-4359D01*
X-3937Y-2159D02*
X-3796D01*
X-3625Y-2330D01*
X-4359Y-1737D02*
X-3937Y-2159D01*
X-3625Y-2330D02*
X-3400D01*
X-4359Y-1737D02*
Y-1690D01*
X-4713Y-1701D02*
X-4713Y-1701D01*
X-635Y8928D02*
X-546Y9017D01*
X508D01*
Y9906D01*
X1778Y14605D02*
X2794D01*
X444Y10720D02*
X508Y10656D01*
Y9906D02*
Y10656D01*
X2413Y15952D02*
Y16637D01*
Y15952D02*
X2744Y15621D01*
X2794D01*
D60*
X10155Y-15439D02*
X11955D01*
X-18778Y-25148D02*
X-17910D01*
X-19177Y-24749D02*
X-18778Y-25148D01*
X26226Y-30073D02*
X26230Y-30068D01*
X19033Y35481D02*
X19085Y35429D01*
X18834Y34417D02*
X18981Y34564D01*
Y35429D02*
X19033Y35481D01*
X18981Y34564D02*
Y35429D01*
X19085D02*
X19580D01*
X20835Y34174D01*
X20908D01*
X20949Y32613D02*
Y34133D01*
X20908Y34174D02*
X20949Y34133D01*
X19828Y32244D02*
X20880D01*
X20949Y32313D01*
X19776Y32192D02*
X19828Y32244D01*
X10153Y-15058D02*
X10155Y-15439D01*
X4618Y-15058D02*
X5461D01*
X5842Y-15439D01*
X3563Y-15058D02*
X4618D01*
X10151Y-15439D02*
X10153Y-15058D01*
X5842Y-15439D02*
X10151D01*
X11938Y-17174D02*
X11955Y-17157D01*
X11938Y-18360D02*
Y-17174D01*
D62*
X-32385Y-36400D02*
D03*
Y39150D02*
D03*
X31864D02*
D03*
X31623Y-30861D02*
D03*
D63*
X-22547Y13178D02*
D03*
X-32547D02*
D03*
X22055Y13208D02*
D03*
X32055D02*
D03*
D64*
X4953Y35179D02*
D03*
X2453D02*
D03*
X-47D02*
D03*
X-2547D02*
D03*
X-5047D02*
D03*
X-7547D02*
D03*
Y32179D02*
D03*
X-5047D02*
D03*
X-2547D02*
D03*
X-47D02*
D03*
X2453D02*
D03*
X4953D02*
D03*
X7453D02*
D03*
X9953D02*
D03*
X-10047Y35179D02*
D03*
X7453D02*
D03*
X9953D02*
D03*
D65*
X-10047Y32179D02*
D03*
D66*
X-31179Y23485D02*
D03*
X-8679D02*
D03*
X30717D02*
D03*
X8217D02*
D03*
D67*
X-17247Y13462D02*
Y14351D01*
X-18009Y12700D02*
X-17247Y13462D01*
X-18669Y12700D02*
X-18009D01*
X-17583Y15367D02*
X-17247Y15703D01*
X-18669Y15367D02*
X-17583D01*
D68*
X24590Y-30073D02*
X26226D01*
X-17247Y15703D02*
Y17056D01*
X-23427Y-25654D02*
X-23152Y-25379D01*
Y-23876D01*
X-21552D02*
Y-23851D01*
X-21377Y-23676D01*
X-21004D01*
X-20127Y-22799D01*
Y-22749D01*
X-20120Y-21724D02*
Y-21674D01*
X-20127Y-21731D02*
X-20120Y-21724D01*
X-20127Y-22749D02*
Y-21731D01*
X-5222Y-2908D02*
X-4958Y-3172D01*
D72*
X7480Y2176D02*
D03*
Y3192D02*
D03*
X-4628Y-2787D02*
D03*
Y-1771D02*
D03*
X-5586Y-2777D02*
D03*
Y-1761D02*
D03*
X-8602Y-3432D02*
D03*
Y-4448D02*
D03*
X6936Y-5513D02*
D03*
Y-6529D02*
D03*
X5902Y-5518D02*
D03*
Y-6534D02*
D03*
X-9640Y-3399D02*
D03*
Y-4415D02*
D03*
X10523Y-2656D02*
D03*
Y-3672D02*
D03*
X11704Y-2618D02*
D03*
Y-3634D02*
D03*
X3083Y-9635D02*
D03*
Y-10651D02*
D03*
X4091Y-9632D02*
D03*
Y-10648D02*
D03*
X2667Y11303D02*
D03*
X-3556Y10668D02*
D03*
X2667Y10287D02*
D03*
X3810Y14605D02*
D03*
X508Y8001D02*
D03*
X-3302Y7620D02*
D03*
X-4318D02*
D03*
X-4826Y12065D02*
D03*
X-3810D02*
D03*
Y14986D02*
D03*
X2794Y14605D02*
D03*
X508Y9017D02*
D03*
X-5334Y9652D02*
D03*
X-127Y19050D02*
D03*
X-3302Y8636D02*
D03*
X-3556Y9652D02*
D03*
X-5334Y8636D02*
D03*
X-4318D02*
D03*
X2794Y15621D02*
D03*
X-127Y18034D02*
D03*
X-3810Y13081D02*
D03*
X-4826D02*
D03*
X-3810Y13970D02*
D03*
X-2921Y19050D02*
D03*
Y20066D02*
D03*
X3429Y17526D02*
D03*
Y18542D02*
D03*
X3810Y15621D02*
D03*
D73*
X3375Y-2305D02*
D03*
Y-2805D02*
D03*
Y-3305D02*
D03*
Y-3805D02*
D03*
Y-4305D02*
D03*
Y-4805D02*
D03*
Y-5305D02*
D03*
Y-5805D02*
D03*
Y-6305D02*
D03*
Y-6805D02*
D03*
Y-7305D02*
D03*
Y-7805D02*
D03*
X-3375D02*
D03*
Y-7305D02*
D03*
Y-6805D02*
D03*
Y-6305D02*
D03*
Y-5805D02*
D03*
Y-5305D02*
D03*
Y-4805D02*
D03*
Y-4305D02*
D03*
Y-3805D02*
D03*
Y-3305D02*
D03*
Y-2805D02*
D03*
Y-2305D02*
D03*
D74*
X2750Y-8430D02*
D03*
X2250D02*
D03*
X1750D02*
D03*
X1250D02*
D03*
X750D02*
D03*
X250D02*
D03*
X-250D02*
D03*
X-750D02*
D03*
X-1250D02*
D03*
X-1750D02*
D03*
X-2250D02*
D03*
X-2750D02*
D03*
Y-1680D02*
D03*
X-2250D02*
D03*
X-1750D02*
D03*
X-1250D02*
D03*
X-750D02*
D03*
X-250D02*
D03*
X250D02*
D03*
X750D02*
D03*
X1250D02*
D03*
X1750D02*
D03*
X2250D02*
D03*
X2750D02*
D03*
D75*
X0Y-5055D02*
D03*
D76*
X-14853Y-356D02*
D03*
Y-2506D02*
D03*
X14986Y10609D02*
D03*
Y12759D02*
D03*
D77*
X29139Y13716D02*
D03*
X24709D02*
D03*
X-29520Y13208D02*
D03*
X-25090D02*
D03*
D78*
X-17145Y18860D02*
D03*
Y17208D02*
D03*
X-8890Y14795D02*
D03*
Y16447D02*
D03*
D79*
X3563Y-12768D02*
D03*
Y-15058D02*
D03*
D80*
X444Y16605D02*
D03*
X-2730Y11335D02*
D03*
X1714D02*
D03*
X-1461Y16605D02*
D03*
X-2095D02*
D03*
X444Y11335D02*
D03*
X-2730Y16605D02*
D03*
X1079D02*
D03*
X-1461Y11335D02*
D03*
X1714Y16605D02*
D03*
X-191D02*
D03*
X-826D02*
D03*
X-191Y11335D02*
D03*
X-826D02*
D03*
X1079D02*
D03*
X-2095D02*
D03*
D81*
X-10947Y14351D02*
D03*
Y16650D02*
D03*
Y12052D02*
D03*
D82*
X-17247Y14351D02*
D03*
D83*
X-10159Y8763D02*
D03*
X-12728Y8601D02*
D03*
Y10003D02*
D03*
X-10159Y10165D02*
D03*
D84*
X25619Y25413D02*
D03*
X25619Y23153D02*
D03*
X22839Y25413D02*
D03*
X22839Y23153D02*
D03*
D85*
X20307Y18481D02*
D03*
X18047Y18481D02*
D03*
Y21261D02*
D03*
X20307Y21261D02*
D03*
D86*
X10033Y39492D02*
D03*
Y37592D02*
D03*
X12083Y38542D02*
D03*
D87*
X18669Y25313D02*
D03*
D88*
X16389Y32613D02*
D03*
X20949D02*
D03*
D89*
X29340Y1270D02*
D03*
Y0D02*
D03*
Y-1270D02*
D03*
X25270Y2540D02*
D03*
Y1270D02*
D03*
Y0D02*
D03*
Y-3810D02*
D03*
X29340Y-5080D02*
D03*
X25270D02*
D03*
Y-2540D02*
D03*
Y-1270D02*
D03*
X29340Y-3810D02*
D03*
Y-2540D02*
D03*
Y2540D02*
D03*
D90*
X11955Y-15507D02*
D03*
Y-17157D02*
D03*
D91*
X10153Y-15058D02*
D03*
D92*
X3563Y-17348D02*
D03*
D93*
X-6604Y-12559D02*
D03*
X-8658D02*
D03*
X-6604Y-10459D02*
D03*
X-8658D02*
D03*
D94*
X16576Y-13700D02*
D03*
X-18227Y-22749D02*
D03*
X18476Y-13700D02*
D03*
X17526Y-11700D02*
D03*
X-20127Y-22749D02*
D03*
X-19177Y-24749D02*
D03*
D95*
X-6604Y-9086D02*
D03*
Y-8186D02*
D03*
X-8636D02*
D03*
Y-9086D02*
D03*
M02*
