G04*
G04 #@! TF.GenerationSoftware,Altium Limited,Altium Designer,26.9.1 (10)*
G04*
G04 Layer_Physical_Order=1*
G04 Layer_Color=255*
G04 Board_Origin=38150000|32450000*
%FSLAX43Y43*%
%MOMM*%
G71*
G04*
G04 #@! TF.SameCoordinates,ABF88EB3-4507-415C-8808-D951A2BA1AED*
G04*
G04*
G04 #@! TF.FilePolarity,Positive*
G04*
G01*
G75*
%ADD10C,0.400*%
%ADD11C,0.200*%
%ADD12C,0.250*%
%ADD17C,2.000*%
%ADD18R,0.600X0.700*%
%ADD19R,0.950X1.000*%
%ADD20R,1.000X0.950*%
%ADD21R,1.000X1.250*%
%ADD22R,1.250X1.000*%
%ADD23R,2.920X1.520*%
G04:AMPARAMS|DCode=24|XSize=1.47mm|YSize=0.28mm|CornerRadius=0.035mm|HoleSize=0mm|Usage=FLASHONLY|Rotation=180.000|XOffset=0mm|YOffset=0mm|HoleType=Round|Shape=RoundedRectangle|*
%AMROUNDEDRECTD24*
21,1,1.470,0.210,0,0,180.0*
21,1,1.400,0.280,0,0,180.0*
1,1,0.070,-0.700,0.105*
1,1,0.070,0.700,0.105*
1,1,0.070,0.700,-0.105*
1,1,0.070,-0.700,-0.105*
%
%ADD24ROUNDEDRECTD24*%
%ADD25R,1.200X2.800*%
G04:AMPARAMS|DCode=26|XSize=2.74mm|YSize=0.98mm|CornerRadius=0.123mm|HoleSize=0mm|Usage=FLASHONLY|Rotation=0.000|XOffset=0mm|YOffset=0mm|HoleType=Round|Shape=RoundedRectangle|*
%AMROUNDEDRECTD26*
21,1,2.740,0.735,0,0,0.0*
21,1,2.495,0.980,0,0,0.0*
1,1,0.245,1.248,-0.368*
1,1,0.245,-1.248,-0.368*
1,1,0.245,-1.248,0.368*
1,1,0.245,1.248,0.368*
%
%ADD26ROUNDEDRECTD26*%
%ADD27R,2.280X2.120*%
%ADD28R,2.200X1.520*%
%ADD29R,2.000X4.000*%
%ADD30R,0.800X0.500*%
%ADD31R,0.700X0.700*%
%ADD32C,1.000*%
%ADD33R,1.050X1.000*%
%ADD34R,1.400X1.200*%
G04:AMPARAMS|DCode=43|XSize=5.86mm|YSize=5.63mm|CornerRadius=0.281mm|HoleSize=0mm|Usage=FLASHONLY|Rotation=0.000|XOffset=0mm|YOffset=0mm|HoleType=Round|Shape=RoundedRectangle|*
%AMROUNDEDRECTD43*
21,1,5.860,5.067,0,0,0.0*
21,1,5.297,5.630,0,0,0.0*
1,1,0.563,2.649,-2.534*
1,1,0.563,-2.649,-2.534*
1,1,0.563,-2.649,2.534*
1,1,0.563,2.649,2.534*
%
%ADD43ROUNDEDRECTD43*%
%ADD50C,3.250*%
%ADD51C,0.600*%
%ADD52C,0.800*%
%ADD53C,0.550*%
%ADD54C,0.450*%
%ADD56C,0.500*%
%ADD57C,0.500*%
%ADD58C,0.254*%
%ADD59C,0.300*%
%ADD60C,1.000*%
%ADD61C,0.350*%
%ADD62R,0.110X0.010*%
%ADD63C,1.408*%
%ADD64C,1.800*%
%ADD65R,1.800X1.800*%
%ADD66C,2.000*%
G36*
X35559Y-42418D02*
X-35941D01*
Y-32857D01*
X-35918Y-32844D01*
X-35641Y-32718D01*
X-35367Y-32792D01*
X-35263Y-32871D01*
X-34989Y-32985D01*
X-34695Y-33023D01*
X-34392D01*
Y-34010D01*
X-33408D01*
X-33349Y-34310D01*
X-33474Y-34362D01*
X-33851Y-34613D01*
X-34172Y-34934D01*
X-34423Y-35311D01*
X-34597Y-35729D01*
X-34685Y-36173D01*
Y-36627D01*
X-34597Y-37071D01*
X-34423Y-37489D01*
X-34172Y-37866D01*
X-33851Y-38187D01*
X-33474Y-38438D01*
X-33056Y-38612D01*
X-32612Y-38700D01*
X-32158D01*
X-31714Y-38612D01*
X-31296Y-38438D01*
X-30919Y-38187D01*
X-30598Y-37866D01*
X-30347Y-37489D01*
X-30173Y-37071D01*
X-30085Y-36627D01*
Y-36173D01*
X-30152Y-35839D01*
X-29980Y-35620D01*
X-29910Y-35581D01*
X-29864Y-35590D01*
X-29852Y-35649D01*
X-29736Y-35824D01*
X-29049Y-36510D01*
X-29015Y-36533D01*
Y-37310D01*
X-27215D01*
Y-35260D01*
X-28437D01*
Y-33596D01*
X-28437Y-33296D01*
X-28437Y-33196D01*
Y-31496D01*
X-29992D01*
Y-31360D01*
X-31392D01*
Y-30760D01*
X-33191D01*
X-33265Y-30750D01*
X-34109D01*
X-34139Y-30698D01*
X-34381Y-30456D01*
X-34677Y-30285D01*
X-35008Y-30196D01*
X-35350D01*
X-35641Y-30274D01*
X-35918Y-30148D01*
X-35941Y-30135D01*
Y-1233D01*
X-35743Y-1095D01*
X-35641Y-1079D01*
X-35590Y-1131D01*
Y-1441D01*
X-35501Y-1772D01*
X-35330Y-2068D01*
X-35088Y-2310D01*
X-34792Y-2481D01*
X-34461Y-2570D01*
X-34303D01*
X-34289Y-2576D01*
Y-2657D01*
X-33930D01*
X-33909Y-2660D01*
X-31623D01*
X-31602Y-2657D01*
X-31272D01*
X-31157Y-2934D01*
X-35151Y-6927D01*
X-35311Y-7136D01*
X-35412Y-7379D01*
X-35446Y-7640D01*
Y-10265D01*
X-35412Y-10526D01*
X-35311Y-10769D01*
X-35151Y-10978D01*
X-35151Y-10978D01*
X-34748Y-11381D01*
X-34748Y-11381D01*
X-34539Y-11542D01*
X-34295Y-11642D01*
X-34034Y-11677D01*
X-30353Y-11677D01*
X-30353Y-11677D01*
X-30092Y-11642D01*
X-29849Y-11542D01*
X-29640Y-11381D01*
X-29640Y-11381D01*
X-29463Y-11204D01*
X-29190D01*
Y-10932D01*
X-25703Y-7444D01*
X-25542Y-7235D01*
X-25442Y-6992D01*
X-25407Y-6731D01*
Y508D01*
X-25442Y769D01*
X-25542Y1012D01*
X-25679Y1190D01*
Y1463D01*
X-26109D01*
X-26155Y1482D01*
X-26416Y1517D01*
X-29018D01*
X-29142Y1817D01*
X-28665Y2293D01*
X-27235D01*
X-26974Y2328D01*
X-26731Y2428D01*
X-26522Y2589D01*
X-25829Y3282D01*
X-25767Y3363D01*
X-25463Y3393D01*
X-25403Y3364D01*
X-25358Y3334D01*
X-25251Y3313D01*
X-24157D01*
Y2670D01*
X-24269Y2558D01*
X-24355Y2410D01*
X-24399Y2245D01*
Y2073D01*
X-24355Y1908D01*
X-24269Y1760D01*
X-24148Y1639D01*
X-24031Y1572D01*
Y1016D01*
X-24031Y1016D01*
X-24010Y908D01*
X-23949Y816D01*
X-20403Y-2730D01*
Y-3383D01*
X-20502Y-3482D01*
X-20570Y-3648D01*
Y-3827D01*
X-20502Y-3992D01*
X-20375Y-4119D01*
X-20210Y-4187D01*
X-20031D01*
X-19865Y-4119D01*
X-19739Y-3992D01*
X-19670Y-3827D01*
Y-3648D01*
X-19739Y-3482D01*
X-19838Y-3383D01*
Y-2613D01*
X-19838Y-2613D01*
X-19859Y-2505D01*
X-19921Y-2413D01*
X-23467Y1133D01*
Y1572D01*
X-23350Y1639D01*
X-23229Y1760D01*
X-23143Y1908D01*
X-23099Y2073D01*
Y2245D01*
X-23143Y2410D01*
X-23229Y2558D01*
X-23341Y2670D01*
Y3040D01*
X-23041Y3164D01*
X-22636Y2760D01*
X-22636Y2760D01*
X-22504Y2671D01*
X-22348Y2640D01*
X-21745D01*
Y2398D01*
X-20495D01*
Y3698D01*
X-20495D01*
Y3922D01*
X-20495D01*
Y5222D01*
X-21745D01*
Y4980D01*
X-22626D01*
X-22626Y4980D01*
X-22782Y4949D01*
X-22914Y4860D01*
X-22914Y4860D01*
X-23171Y4604D01*
X-25233D01*
X-25251Y4604D01*
X-25494Y4772D01*
X-25533Y4826D01*
Y9397D01*
X-25568Y9658D01*
X-25668Y9901D01*
X-25829Y10110D01*
X-27566Y11848D01*
Y24981D01*
X-27574Y25043D01*
X-27574Y25105D01*
X-27592Y25173D01*
X-27601Y25242D01*
X-27625Y25300D01*
X-27640Y25360D01*
X-27675Y25421D01*
X-27701Y25486D01*
X-27739Y25535D01*
X-27770Y25589D01*
X-28853Y27024D01*
X-28903Y27074D01*
X-28945Y27129D01*
X-28994Y27167D01*
X-29038Y27211D01*
X-29098Y27247D01*
X-29154Y27289D01*
X-29212Y27313D01*
X-29265Y27345D01*
X-29333Y27363D01*
X-29397Y27390D01*
X-29459Y27398D01*
X-29519Y27415D01*
X-29589Y27415D01*
X-29658Y27425D01*
X-32689Y27425D01*
X-32785Y27412D01*
X-32881Y27406D01*
X-32915Y27395D01*
X-32950Y27390D01*
X-33040Y27353D01*
X-33131Y27323D01*
X-33161Y27303D01*
X-33194Y27289D01*
X-33270Y27231D01*
X-33351Y27177D01*
X-34571Y26118D01*
X-34594Y26091D01*
X-34622Y26070D01*
X-34681Y25993D01*
X-34745Y25921D01*
X-34761Y25889D01*
X-34783Y25861D01*
X-34819Y25771D01*
X-34863Y25685D01*
X-34870Y25650D01*
X-34883Y25617D01*
X-34896Y25522D01*
X-34915Y25427D01*
X-34913Y25392D01*
X-34918Y25356D01*
Y2008D01*
X-35073D01*
X-35363Y1950D01*
X-35636Y1837D01*
X-35641Y1834D01*
X-35941Y1994D01*
Y42418D01*
X35559D01*
Y-42418D01*
D02*
G37*
G36*
X-29658Y26416D02*
X-28575Y24981D01*
Y11430D01*
X-26542Y9397D01*
Y3995D01*
X-27235Y3302D01*
X-29083D01*
X-30607Y1778D01*
Y-635D01*
X-31623Y-1651D01*
X-33909D01*
Y25356D01*
X-32689Y26416D01*
X-29658Y26416D01*
D02*
G37*
G36*
X-26416Y-6731D02*
X-30353Y-10668D01*
X-34034Y-10668D01*
X-34437Y-10265D01*
Y-7640D01*
X-29337Y-2540D01*
Y381D01*
X-29210Y508D01*
X-26416D01*
Y-6731D01*
D02*
G37*
%LPC*%
G36*
X26289Y42072D02*
X21971D01*
X21856Y42025D01*
X21809Y41910D01*
Y39497D01*
X21856Y39382D01*
X22491Y38747D01*
X22606Y38700D01*
X22844D01*
Y37485D01*
X25144D01*
Y38700D01*
X25781D01*
X25896Y38747D01*
X26404Y39255D01*
X26451Y39370D01*
Y41910D01*
X26404Y42025D01*
X26289Y42072D01*
D02*
G37*
G36*
X-23810Y41785D02*
X-26110D01*
Y41437D01*
X-27051D01*
X-27166Y41390D01*
X-27213Y41275D01*
Y38862D01*
X-27166Y38747D01*
X-26531Y38112D01*
X-26416Y38065D01*
X-26110D01*
Y37485D01*
X-23810D01*
Y38065D01*
X-23241D01*
X-23126Y38112D01*
X-22618Y38620D01*
X-22571Y38735D01*
Y41275D01*
X-22618Y41390D01*
X-22733Y41437D01*
X-23810D01*
Y41785D01*
D02*
G37*
G36*
X32091Y41450D02*
X31637D01*
X31193Y41362D01*
X30775Y41188D01*
X30398Y40937D01*
X30077Y40616D01*
X29826Y40239D01*
X29652Y39821D01*
X29564Y39377D01*
Y38923D01*
X29652Y38479D01*
X29826Y38061D01*
X30077Y37684D01*
X30398Y37363D01*
X30775Y37112D01*
X31193Y36938D01*
X31637Y36850D01*
X32091D01*
X32535Y36938D01*
X32953Y37112D01*
X33330Y37363D01*
X33651Y37684D01*
X33902Y38061D01*
X34076Y38479D01*
X34164Y38923D01*
Y39377D01*
X34076Y39821D01*
X33902Y40239D01*
X33651Y40616D01*
X33330Y40937D01*
X32953Y41188D01*
X32535Y41362D01*
X32091Y41450D01*
D02*
G37*
G36*
X-32158D02*
X-32612D01*
X-33056Y41362D01*
X-33474Y41188D01*
X-33851Y40937D01*
X-34172Y40616D01*
X-34423Y40239D01*
X-34597Y39821D01*
X-34685Y39377D01*
Y38923D01*
X-34597Y38479D01*
X-34423Y38061D01*
X-34172Y37684D01*
X-33851Y37363D01*
X-33474Y37112D01*
X-33056Y36938D01*
X-32612Y36850D01*
X-32158D01*
X-31714Y36938D01*
X-31296Y37112D01*
X-30919Y37363D01*
X-30598Y37684D01*
X-30347Y38061D01*
X-30173Y38479D01*
X-30085Y38923D01*
Y39377D01*
X-30173Y39821D01*
X-30347Y40239D01*
X-30598Y40616D01*
X-30919Y40937D01*
X-31296Y41188D01*
X-31714Y41362D01*
X-32158Y41450D01*
D02*
G37*
G36*
X9488Y39947D02*
X9308D01*
X9143Y39878D01*
X9017Y39752D01*
X8948Y39587D01*
Y39407D01*
X9017Y39242D01*
X9070Y39188D01*
X8967Y38888D01*
X-9144D01*
X-9251Y38867D01*
X-9342Y38806D01*
X-10231Y37917D01*
X-10292Y37826D01*
X-10313Y37719D01*
Y36195D01*
X-10452Y36157D01*
X-10692Y36019D01*
X-10887Y35824D01*
X-11025Y35584D01*
X-11026Y35582D01*
X-11128Y35491D01*
X-11309Y35406D01*
X-11324Y35401D01*
X-11526Y35397D01*
X-11541Y35390D01*
X-11557Y35393D01*
X-11952Y35307D01*
X-11966Y35298D01*
X-11983Y35298D01*
X-12353Y35136D01*
X-12365Y35124D01*
X-12381Y35121D01*
X-12713Y34890D01*
X-12722Y34876D01*
X-12737Y34869D01*
X-13018Y34578D01*
X-13024Y34563D01*
X-13037Y34553D01*
X-13256Y34213D01*
X-13259Y34197D01*
X-13270Y34185D01*
X-13418Y33809D01*
X-13418Y33792D01*
X-13427Y33778D01*
X-13498Y33380D01*
X-13495Y33364D01*
X-13501Y33349D01*
X-13497Y33148D01*
X-13497Y21971D01*
X-13497Y21721D01*
X-13491Y21705D01*
X-13494Y21689D01*
X-13397Y21198D01*
X-13387Y21185D01*
Y21168D01*
X-13196Y20706D01*
X-13184Y20694D01*
X-13181Y20678D01*
X-12903Y20262D01*
X-12889Y20252D01*
X-12883Y20237D01*
X-12529Y19883D01*
X-12514Y19877D01*
X-12504Y19863D01*
X-12088Y19585D01*
X-12072Y19582D01*
X-12060Y19570D01*
X-11598Y19379D01*
X-11581D01*
X-11568Y19369D01*
X-11077Y19272D01*
X-11061Y19275D01*
X-11045Y19269D01*
X-10795Y19269D01*
X-8730Y19269D01*
X-8606Y18969D01*
X-10195Y17380D01*
X-10200Y17381D01*
X-10472Y17527D01*
Y17616D01*
X-10541Y17781D01*
X-10667Y17907D01*
X-10832Y17976D01*
X-11012D01*
X-11177Y17907D01*
X-11303Y17781D01*
X-11372Y17616D01*
Y17436D01*
X-11303Y17271D01*
X-11177Y17145D01*
X-11012Y17076D01*
X-10923D01*
X-10777Y16804D01*
X-10776Y16799D01*
X-12136Y15438D01*
X-12197Y15347D01*
X-12218Y15240D01*
Y12730D01*
X-12483Y12515D01*
X-12663D01*
X-12828Y12446D01*
X-12954Y12320D01*
X-13023Y12155D01*
X-13095Y11952D01*
X-13298Y11885D01*
X-13463Y11816D01*
X-13589Y11689D01*
X-13658Y11524D01*
Y11345D01*
X-13589Y11180D01*
X-13463Y11053D01*
X-13298Y10985D01*
X-13118Y10985D01*
X-12976Y10719D01*
X-12954Y10667D01*
X-12828Y10541D01*
X-12663Y10472D01*
X-12483D01*
X-12218Y10257D01*
Y8178D01*
X-12518Y8075D01*
X-12572Y8128D01*
X-12737Y8197D01*
X-12917D01*
X-13082Y8128D01*
X-13208Y8002D01*
X-13277Y7837D01*
Y7657D01*
X-13208Y7492D01*
X-13082Y7366D01*
X-12917Y7297D01*
X-12737D01*
X-12572Y7366D01*
X-12518Y7419D01*
X-12218Y7316D01*
Y6562D01*
X-12515Y6435D01*
X-12718Y6519D01*
X-12936D01*
X-13139Y6435D01*
X-13293Y6281D01*
X-13377Y6078D01*
Y5860D01*
X-13293Y5657D01*
X-13139Y5503D01*
X-13107Y5490D01*
Y-2159D01*
X-13086Y-2266D01*
X-13025Y-2357D01*
X-9977Y-5405D01*
X-9886Y-5466D01*
X-9779Y-5487D01*
X-8734D01*
X-8721Y-5519D01*
X-8567Y-5673D01*
X-8364Y-5757D01*
X-8146D01*
X-7943Y-5673D01*
X-7789Y-5519D01*
X-7705Y-5316D01*
Y-5098D01*
X-7789Y-4895D01*
X-7943Y-4741D01*
X-8146Y-4657D01*
X-8364D01*
X-8567Y-4741D01*
X-8721Y-4895D01*
X-8734Y-4927D01*
X-9663D01*
X-12547Y-2043D01*
Y-1066D01*
X-12247Y-963D01*
X-12193Y-1016D01*
X-12028Y-1085D01*
X-11848D01*
X-11683Y-1016D01*
X-11639Y-972D01*
X-11339Y-1089D01*
Y-1918D01*
X-11312Y-2054D01*
X-11245Y-2154D01*
Y-2249D01*
X-11176Y-2414D01*
X-11050Y-2540D01*
X-10885Y-2609D01*
X-10705D01*
X-10540Y-2540D01*
X-10414Y-2414D01*
X-10345Y-2249D01*
Y-2069D01*
X-10414Y-1904D01*
X-10540Y-1778D01*
X-10625Y-1742D01*
Y-614D01*
X-10416Y-401D01*
X-10232Y-401D01*
X-9516D01*
Y-401D01*
X-9231Y-365D01*
X-9128D01*
X-8963Y-296D01*
X-8836Y-170D01*
X-8768Y-4D01*
Y175D01*
X-8836Y340D01*
X-8908Y411D01*
Y7968D01*
X-6615Y10261D01*
X-2667D01*
X-2560Y10282D01*
X-2469Y10343D01*
X-1238Y11573D01*
X-1177Y11664D01*
X-1156Y11771D01*
Y12567D01*
X-1142Y12573D01*
X-1016Y12699D01*
X-1002Y12732D01*
X-811Y12736D01*
X-689Y12702D01*
X-635Y12572D01*
X-534Y12471D01*
Y10743D01*
X-513Y10635D01*
X-452Y10544D01*
X674Y9418D01*
X765Y9357D01*
X873Y9336D01*
X3174D01*
X6400Y6110D01*
Y4632D01*
X6114Y4597D01*
X5930Y4597D01*
X5214D01*
Y4597D01*
X5017Y4581D01*
X4838D01*
X4673Y4512D01*
X4546Y4386D01*
X4478Y4220D01*
Y4041D01*
X4546Y3876D01*
X4673Y3749D01*
X4838Y3681D01*
X5017D01*
X5214Y3597D01*
Y3597D01*
X5930D01*
X6114Y3597D01*
X6414Y3597D01*
X7130D01*
X7130Y3597D01*
X7393Y3562D01*
X7572D01*
X7737Y3631D01*
X7864Y3757D01*
X7932Y3923D01*
Y4102D01*
X7864Y4267D01*
X7737Y4394D01*
X7572Y4462D01*
X7393D01*
X7130Y4597D01*
Y4597D01*
X6961Y4827D01*
Y6226D01*
X6939Y6333D01*
X6878Y6424D01*
X3546Y9757D01*
X3496Y9875D01*
X3529Y10132D01*
X3556Y10159D01*
X3625Y10324D01*
Y10504D01*
X3556Y10669D01*
X3430Y10795D01*
X3265Y10864D01*
X3085D01*
X2920Y10795D01*
X2794Y10669D01*
X2725Y10504D01*
Y10324D01*
X2778Y10197D01*
X2716Y10033D01*
X2632Y9897D01*
X989D01*
X26Y10859D01*
Y12471D01*
X127Y12572D01*
X196Y12737D01*
Y12917D01*
X127Y13082D01*
X1Y13208D01*
X-164Y13277D01*
X-344D01*
X-509Y13208D01*
X-635Y13082D01*
X-649Y13049D01*
X-840Y13045D01*
X-962Y13079D01*
X-1016Y13209D01*
X-1142Y13335D01*
X-1307Y13404D01*
X-1487D01*
X-1652Y13335D01*
X-1778Y13209D01*
X-1847Y13044D01*
Y12864D01*
X-1778Y12699D01*
X-1717Y12638D01*
Y11888D01*
X-2783Y10821D01*
X-3632D01*
X-3645Y10830D01*
X-3657Y11133D01*
X-3555Y11176D01*
X-3429Y11302D01*
X-3360Y11467D01*
Y11647D01*
X-3429Y11812D01*
X-3555Y11938D01*
X-3720Y12007D01*
X-3900D01*
X-4065Y11938D01*
X-4141Y11863D01*
X-4318Y11833D01*
X-4495Y11863D01*
X-4571Y11938D01*
X-4736Y12007D01*
X-4916D01*
X-5081Y11938D01*
X-5207Y11812D01*
X-5276Y11647D01*
Y11467D01*
X-5207Y11302D01*
X-5081Y11176D01*
X-4979Y11133D01*
X-4990Y10830D01*
X-5004Y10821D01*
X-6731D01*
X-6838Y10800D01*
X-6929Y10739D01*
X-9386Y8282D01*
X-9447Y8191D01*
X-9468Y8084D01*
Y879D01*
X-9516Y599D01*
X-10232D01*
X-10416Y599D01*
X-10716Y599D01*
X-11358D01*
X-11432Y599D01*
X-11658Y778D01*
Y1412D01*
X-11358Y1599D01*
X-11354Y1597D01*
X-11175D01*
X-11009Y1666D01*
X-10883Y1792D01*
X-10814Y1958D01*
Y2137D01*
X-10883Y2302D01*
X-11009Y2429D01*
X-11047Y2445D01*
Y7066D01*
X-10934Y7143D01*
X-10747Y7218D01*
X-10631Y7170D01*
X-10451D01*
X-10286Y7239D01*
X-10160Y7365D01*
X-10091Y7530D01*
Y7710D01*
X-10160Y7875D01*
X-10286Y8001D01*
X-10451Y8070D01*
X-10631D01*
X-10747Y8022D01*
X-10934Y8097D01*
X-11047Y8174D01*
Y13293D01*
X-10934Y13371D01*
X-10747Y13446D01*
X-10631Y13398D01*
X-10451D01*
X-10286Y13466D01*
X-10160Y13593D01*
X-10091Y13758D01*
Y13937D01*
X-10160Y14102D01*
X-10286Y14229D01*
X-10451Y14298D01*
X-10631D01*
X-10881Y14507D01*
X-10890Y14537D01*
X-10868Y14643D01*
X-8512Y17000D01*
X-8415Y16995D01*
X-8180Y16907D01*
X-8143Y16819D01*
X-8017Y16693D01*
X-7851Y16624D01*
X-7672D01*
X-7507Y16693D01*
X-7380Y16819D01*
X-7312Y16985D01*
Y17164D01*
X-7380Y17329D01*
X-7507Y17456D01*
X-7595Y17492D01*
X-7683Y17727D01*
X-7685Y17783D01*
X-7468Y18008D01*
X-5426D01*
X-5337Y17853D01*
X-5284Y17708D01*
X-5328Y17601D01*
Y17451D01*
X-5271Y17314D01*
X-5165Y17208D01*
X-5028Y17151D01*
X-4878D01*
X-4741Y17208D01*
X-4635Y17314D01*
X-4578Y17451D01*
Y17601D01*
X-4622Y17708D01*
X-4569Y17853D01*
X-4480Y18008D01*
X-4445D01*
X-4338Y18029D01*
X-4247Y18090D01*
X-2469Y19868D01*
X-2408Y19959D01*
X-2387Y20066D01*
Y21855D01*
X1214Y25456D01*
X1275Y25547D01*
X1296Y25654D01*
Y30626D01*
X1936Y31265D01*
X2048Y31201D01*
X2315Y31129D01*
X2591D01*
X2858Y31201D01*
X3098Y31339D01*
X3293Y31534D01*
X3431Y31774D01*
X3503Y32041D01*
Y32317D01*
X3431Y32584D01*
X3293Y32824D01*
X3098Y33019D01*
X2858Y33157D01*
X2591Y33229D01*
X2315D01*
X2048Y33157D01*
X1808Y33019D01*
X1613Y32824D01*
X1475Y32584D01*
X1403Y32317D01*
Y32041D01*
X1475Y31774D01*
X1539Y31662D01*
X818Y30940D01*
X757Y30849D01*
X736Y30742D01*
Y25770D01*
X-2849Y22186D01*
X-2920Y22191D01*
X-3149Y22285D01*
Y22998D01*
X151Y26298D01*
X212Y26389D01*
X233Y26496D01*
Y31167D01*
X358Y31201D01*
X598Y31339D01*
X793Y31534D01*
X931Y31774D01*
X1003Y32041D01*
Y32317D01*
X931Y32584D01*
X793Y32824D01*
X598Y33019D01*
X358Y33157D01*
X91Y33229D01*
X-185D01*
X-452Y33157D01*
X-692Y33019D01*
X-887Y32824D01*
X-1025Y32584D01*
X-1097Y32317D01*
Y32041D01*
X-1025Y31774D01*
X-887Y31534D01*
X-692Y31339D01*
X-452Y31201D01*
X-327Y31167D01*
Y26612D01*
X-3627Y23312D01*
X-3688Y23221D01*
X-3709Y23114D01*
Y20690D01*
X-5196Y19203D01*
X-6666D01*
X-6725Y19503D01*
X-6423Y19629D01*
X-6415Y19637D01*
X-6404Y19638D01*
X-6014Y19863D01*
X-6007Y19872D01*
X-5996Y19875D01*
X-5639Y20149D01*
X-5633Y20159D01*
X-5623Y20163D01*
X-5304Y20482D01*
X-5300Y20492D01*
X-5290Y20498D01*
X-5016Y20855D01*
X-5013Y20866D01*
X-5004Y20873D01*
X-4779Y21263D01*
X-4778Y21274D01*
X-4770Y21282D01*
X-4597Y21698D01*
Y21709D01*
X-4590Y21718D01*
X-4474Y22153D01*
X-4475Y22165D01*
X-4470Y22174D01*
X-4411Y22621D01*
X-4414Y22632D01*
X-4410Y22642D01*
X-4410Y22867D01*
X-4410Y27142D01*
X-4410Y27142D01*
X-4410Y27392D01*
X-4416Y27407D01*
X-4413Y27424D01*
X-4510Y27914D01*
X-4519Y27928D01*
Y27945D01*
X-4711Y28407D01*
X-4723Y28419D01*
X-4726Y28435D01*
X-5004Y28851D01*
X-5018Y28861D01*
X-5024Y28876D01*
X-5201Y29053D01*
X-6257Y30109D01*
X-6267Y30113D01*
X-6273Y30123D01*
X-6307Y30149D01*
X-6364Y30207D01*
X-6406Y30272D01*
X-6436Y30348D01*
X-6446Y30390D01*
X-6457Y30406D01*
X-6459Y30426D01*
X-6586Y30680D01*
X-6600Y30692D01*
X-6605Y30709D01*
X-6642Y30755D01*
X-6661Y30765D01*
X-6673Y30784D01*
X-6768Y30853D01*
X-6790Y30859D01*
X-6806Y30874D01*
X-6916Y30916D01*
X-6938Y30915D01*
X-6958Y30925D01*
X-7035Y30933D01*
X-7063Y31003D01*
X-7100Y31136D01*
X-7110Y31219D01*
X-6902Y31339D01*
X-6707Y31534D01*
X-6569Y31774D01*
X-6497Y32041D01*
Y32317D01*
X-6569Y32584D01*
X-6707Y32824D01*
X-6902Y33019D01*
X-7142Y33157D01*
X-7409Y33229D01*
X-7685D01*
X-7952Y33157D01*
X-8174Y33030D01*
X-8253Y33050D01*
X-8474Y33162D01*
Y33909D01*
X-8521Y34024D01*
X-8636Y34071D01*
X-9266D01*
X-9349Y34234D01*
X-9370Y34371D01*
X-9207Y34534D01*
X-9069Y34774D01*
X-8997Y35041D01*
Y35317D01*
X-9069Y35584D01*
X-9207Y35824D01*
X-9402Y36019D01*
X-9642Y36157D01*
X-9753Y36187D01*
Y37603D01*
X-9028Y38328D01*
X10171D01*
X11909Y36590D01*
X11896Y36558D01*
Y36340D01*
X11980Y36137D01*
X12134Y35983D01*
X12337Y35899D01*
X12555D01*
X12758Y35983D01*
X12912Y36137D01*
X12996Y36340D01*
Y36558D01*
X12912Y36761D01*
X12758Y36915D01*
X12555Y36999D01*
X12337D01*
X12305Y36986D01*
X10485Y38806D01*
X10394Y38867D01*
X10287Y38888D01*
X9829D01*
X9726Y39188D01*
X9779Y39242D01*
X9848Y39407D01*
Y39587D01*
X9779Y39752D01*
X9653Y39878D01*
X9488Y39947D01*
D02*
G37*
G36*
X15628Y38454D02*
X15278D01*
X14935Y38386D01*
X14612Y38252D01*
X14321Y38058D01*
X14074Y37811D01*
X13880Y37520D01*
X13746Y37197D01*
X13678Y36854D01*
Y36504D01*
X13746Y36161D01*
X13880Y35838D01*
X14074Y35548D01*
X14321Y35300D01*
X14612Y35106D01*
X14935Y34972D01*
X15278Y34904D01*
X15628D01*
X15971Y34972D01*
X16294Y35106D01*
X16584Y35300D01*
X16832Y35548D01*
X17026Y35838D01*
X17160Y36161D01*
X17228Y36504D01*
Y36854D01*
X17160Y37197D01*
X17026Y37520D01*
X16832Y37811D01*
X16584Y38058D01*
X16294Y38252D01*
X15971Y38386D01*
X15628Y38454D01*
D02*
G37*
G36*
X-15372D02*
X-15722D01*
X-16065Y38386D01*
X-16388Y38252D01*
X-16678Y38058D01*
X-16926Y37811D01*
X-17120Y37520D01*
X-17254Y37197D01*
X-17322Y36854D01*
Y36504D01*
X-17254Y36161D01*
X-17120Y35838D01*
X-16926Y35548D01*
X-16678Y35300D01*
X-16388Y35106D01*
X-16065Y34972D01*
X-15722Y34904D01*
X-15372D01*
X-15029Y34972D01*
X-14706Y35106D01*
X-14415Y35300D01*
X-14168Y35548D01*
X-13974Y35838D01*
X-13840Y36161D01*
X-13772Y36504D01*
Y36854D01*
X-13840Y37197D01*
X-13974Y37520D01*
X-14168Y37811D01*
X-14415Y38058D01*
X-14706Y38252D01*
X-15029Y38386D01*
X-15372Y38454D01*
D02*
G37*
G36*
X19118Y36131D02*
X18947D01*
X18782Y36086D01*
X18634Y36001D01*
X18513Y35880D01*
X18427Y35732D01*
X18383Y35566D01*
Y35395D01*
X18427Y35230D01*
X18513Y35082D01*
X18634Y34961D01*
X18782Y34875D01*
X18947Y34831D01*
X19118D01*
X19284Y34875D01*
X19432Y34961D01*
X19553Y35082D01*
X19639Y35230D01*
X19683Y35395D01*
Y35566D01*
X19639Y35732D01*
X19553Y35880D01*
X19432Y36001D01*
X19284Y36086D01*
X19118Y36131D01*
D02*
G37*
G36*
X10091Y36229D02*
X9815D01*
X9548Y36157D01*
X9308Y36019D01*
X9113Y35824D01*
X8975Y35584D01*
X8903Y35317D01*
Y35041D01*
X8975Y34774D01*
X9060Y34625D01*
X8952Y34377D01*
X8899Y34325D01*
X8579Y34325D01*
X8573D01*
X8573D01*
X8509Y34325D01*
X8506Y34324D01*
X8358Y34470D01*
X8313Y34569D01*
X8431Y34774D01*
X8503Y35041D01*
Y35317D01*
X8431Y35584D01*
X8293Y35824D01*
X8098Y36019D01*
X7858Y36157D01*
X7591Y36229D01*
X7315D01*
X7048Y36157D01*
X6808Y36019D01*
X6613Y35824D01*
X6475Y35584D01*
X6403Y35317D01*
Y35041D01*
X6475Y34774D01*
X6613Y34534D01*
X6808Y34339D01*
X7048Y34201D01*
X7315Y34129D01*
X7591D01*
X7858Y34201D01*
X8094Y34337D01*
X8105Y34334D01*
X8347Y34164D01*
X8347Y34163D01*
X8347Y34093D01*
Y33195D01*
X8225Y33109D01*
X8047Y33049D01*
X7858Y33157D01*
X7591Y33229D01*
X7315D01*
X7048Y33157D01*
X6808Y33019D01*
X6613Y32824D01*
X6475Y32584D01*
X6403Y32317D01*
Y32041D01*
X6475Y31774D01*
X6466Y31749D01*
X6397Y31720D01*
X6349Y31605D01*
X6349Y30902D01*
X6344Y30798D01*
X6303Y30590D01*
X6223Y30397D01*
X6105Y30220D01*
X6035Y30143D01*
X4982Y29090D01*
X4978Y29080D01*
X4968Y29075D01*
X4811Y28872D01*
X4807Y28856D01*
X4794Y28845D01*
X4565Y28385D01*
X4564Y28369D01*
X4554Y28356D01*
X4419Y27860D01*
X4421Y27844D01*
X4413Y27829D01*
X4378Y27317D01*
X4383Y27301D01*
X4379Y27285D01*
X4410Y27041D01*
X4410Y23396D01*
X4381Y23179D01*
X4384Y23169D01*
X4380Y23158D01*
X4380Y22701D01*
X4384Y22690D01*
X4381Y22680D01*
X4441Y22226D01*
X4446Y22216D01*
X4445Y22205D01*
X4563Y21763D01*
X4570Y21754D01*
X4570Y21743D01*
X4745Y21320D01*
X4753Y21312D01*
X4754Y21301D01*
X4983Y20905D01*
X4992Y20898D01*
X4995Y20887D01*
X5273Y20524D01*
X5283Y20519D01*
X5287Y20508D01*
X5610Y20185D01*
X5621Y20180D01*
X5626Y20171D01*
X5989Y19892D01*
X6000Y19889D01*
X6007Y19880D01*
X6403Y19651D01*
X6414Y19650D01*
X6422Y19642D01*
X6845Y19467D01*
X6856Y19467D01*
X6865Y19460D01*
X7307Y19341D01*
X7318Y19343D01*
X7328Y19337D01*
X7554Y19307D01*
X7565Y19310D01*
X7576Y19306D01*
X10826D01*
X10841Y19312D01*
X10858Y19309D01*
X11348Y19407D01*
X11362Y19416D01*
X11379D01*
X11841Y19607D01*
X11853Y19619D01*
X11869Y19622D01*
X12285Y19900D01*
X12294Y19914D01*
X12310Y19921D01*
X12664Y20274D01*
X12670Y20290D01*
X12684Y20299D01*
X12962Y20715D01*
X12965Y20731D01*
X12977Y20743D01*
X13168Y21205D01*
Y21222D01*
X13177Y21236D01*
X13275Y21726D01*
X13272Y21743D01*
X13278Y21758D01*
Y22008D01*
X13278Y32983D01*
X13278Y33167D01*
X13273Y33180D01*
X13276Y33193D01*
X13218Y33557D01*
X13211Y33568D01*
X13212Y33582D01*
X13098Y33932D01*
X13090Y33942D01*
X13088Y33956D01*
X12921Y34284D01*
X12910Y34293D01*
X12907Y34306D01*
X12690Y34604D01*
X12679Y34611D01*
X12674Y34623D01*
X12412Y34883D01*
X12400Y34888D01*
X12393Y34900D01*
X12094Y35116D01*
X12081Y35119D01*
X12072Y35129D01*
X11744Y35295D01*
X11730Y35297D01*
X11720Y35305D01*
X11544Y35362D01*
X11538Y35361D01*
X11533Y35365D01*
X11500Y35360D01*
X11467Y35367D01*
X11445Y35353D01*
X11421Y35351D01*
X11417Y35347D01*
X11410Y35346D01*
X11320Y35291D01*
X11304Y35268D01*
X11303Y35268D01*
X11183Y35288D01*
X10988Y35373D01*
X10931Y35584D01*
X10793Y35824D01*
X10598Y36019D01*
X10358Y36157D01*
X10091Y36229D01*
D02*
G37*
G36*
X5091D02*
X4815D01*
X4548Y36157D01*
X4308Y36019D01*
X4113Y35824D01*
X3975Y35584D01*
X3903Y35317D01*
Y35041D01*
X3975Y34774D01*
X4113Y34534D01*
X4308Y34339D01*
X4548Y34201D01*
X4815Y34129D01*
X5091D01*
X5358Y34201D01*
X5598Y34339D01*
X5793Y34534D01*
X5931Y34774D01*
X6003Y35041D01*
Y35317D01*
X5931Y35584D01*
X5793Y35824D01*
X5598Y36019D01*
X5358Y36157D01*
X5091Y36229D01*
D02*
G37*
G36*
X2591D02*
X2315D01*
X2048Y36157D01*
X1808Y36019D01*
X1613Y35824D01*
X1475Y35584D01*
X1403Y35317D01*
Y35041D01*
X1475Y34774D01*
X1613Y34534D01*
X1808Y34339D01*
X2048Y34201D01*
X2315Y34129D01*
X2591D01*
X2858Y34201D01*
X3098Y34339D01*
X3293Y34534D01*
X3431Y34774D01*
X3503Y35041D01*
Y35317D01*
X3431Y35584D01*
X3293Y35824D01*
X3098Y36019D01*
X2858Y36157D01*
X2591Y36229D01*
D02*
G37*
G36*
X91D02*
X-185D01*
X-452Y36157D01*
X-692Y36019D01*
X-887Y35824D01*
X-1025Y35584D01*
X-1097Y35317D01*
Y35041D01*
X-1025Y34774D01*
X-887Y34534D01*
X-692Y34339D01*
X-452Y34201D01*
X-185Y34129D01*
X91D01*
X358Y34201D01*
X598Y34339D01*
X793Y34534D01*
X931Y34774D01*
X1003Y35041D01*
Y35317D01*
X931Y35584D01*
X793Y35824D01*
X598Y36019D01*
X358Y36157D01*
X91Y36229D01*
D02*
G37*
G36*
X-2409D02*
X-2685D01*
X-2952Y36157D01*
X-3192Y36019D01*
X-3387Y35824D01*
X-3525Y35584D01*
X-3597Y35317D01*
Y35041D01*
X-3525Y34774D01*
X-3387Y34534D01*
X-3192Y34339D01*
X-2952Y34201D01*
X-2685Y34129D01*
X-2409D01*
X-2142Y34201D01*
X-1902Y34339D01*
X-1707Y34534D01*
X-1569Y34774D01*
X-1497Y35041D01*
Y35317D01*
X-1569Y35584D01*
X-1707Y35824D01*
X-1902Y36019D01*
X-2142Y36157D01*
X-2409Y36229D01*
D02*
G37*
G36*
X-4909D02*
X-5185D01*
X-5452Y36157D01*
X-5692Y36019D01*
X-5887Y35824D01*
X-6025Y35584D01*
X-6097Y35317D01*
Y35041D01*
X-6025Y34774D01*
X-5887Y34534D01*
X-5692Y34339D01*
X-5452Y34201D01*
X-5185Y34129D01*
X-4909D01*
X-4642Y34201D01*
X-4402Y34339D01*
X-4207Y34534D01*
X-4069Y34774D01*
X-3997Y35041D01*
Y35317D01*
X-4069Y35584D01*
X-4207Y35824D01*
X-4402Y36019D01*
X-4642Y36157D01*
X-4909Y36229D01*
D02*
G37*
G36*
X-7409D02*
X-7685D01*
X-7952Y36157D01*
X-8192Y36019D01*
X-8387Y35824D01*
X-8525Y35584D01*
X-8597Y35317D01*
Y35041D01*
X-8525Y34774D01*
X-8387Y34534D01*
X-8192Y34339D01*
X-7952Y34201D01*
X-7685Y34129D01*
X-7409D01*
X-7142Y34201D01*
X-6902Y34339D01*
X-6707Y34534D01*
X-6569Y34774D01*
X-6497Y35041D01*
Y35317D01*
X-6569Y35584D01*
X-6707Y35824D01*
X-6902Y36019D01*
X-7142Y36157D01*
X-7409Y36229D01*
D02*
G37*
G36*
X20994Y34824D02*
X20823D01*
X20657Y34779D01*
X20509Y34694D01*
X20388Y34573D01*
X20302Y34425D01*
X20258Y34259D01*
Y34088D01*
X20302Y33923D01*
X20388Y33775D01*
X20509Y33654D01*
X20657Y33568D01*
X20823Y33524D01*
X20994D01*
X21159Y33568D01*
X21307Y33654D01*
X21428Y33775D01*
X21514Y33923D01*
X21558Y34088D01*
Y34259D01*
X21514Y34425D01*
X21428Y34573D01*
X21307Y34694D01*
X21159Y34779D01*
X20994Y34824D01*
D02*
G37*
G36*
X-34022Y33112D02*
X-34251D01*
X-34281Y33100D01*
X-34313D01*
X-34525Y33012D01*
X-34548Y32989D01*
X-34578Y32977D01*
X-34740Y32815D01*
X-34752Y32785D01*
X-34775Y32762D01*
X-34863Y32551D01*
Y32518D01*
X-34875Y32489D01*
Y32259D01*
X-34863Y32230D01*
Y32197D01*
X-34775Y31986D01*
X-34752Y31963D01*
X-34740Y31933D01*
X-34578Y31771D01*
X-34548Y31759D01*
X-34525Y31736D01*
X-34313Y31648D01*
X-34281D01*
X-34251Y31636D01*
X-34022D01*
X-33992Y31648D01*
X-33960D01*
X-33748Y31736D01*
X-33725Y31759D01*
X-33696Y31771D01*
X-33534Y31933D01*
X-33521Y31963D01*
X-33498Y31986D01*
X-33411Y32197D01*
Y32230D01*
X-33398Y32259D01*
Y32489D01*
X-33411Y32518D01*
Y32551D01*
X-33498Y32762D01*
X-33521Y32785D01*
X-33534Y32815D01*
X-33696Y32977D01*
X-33725Y32989D01*
X-33748Y33012D01*
X-33960Y33100D01*
X-33992D01*
X-34022Y33112D01*
D02*
G37*
G36*
X19862Y32842D02*
X19691D01*
X19525Y32798D01*
X19377Y32712D01*
X19256Y32591D01*
X19171Y32443D01*
X19126Y32277D01*
Y32106D01*
X19171Y31941D01*
X19256Y31793D01*
X19377Y31672D01*
X19525Y31586D01*
X19691Y31542D01*
X19862D01*
X20027Y31586D01*
X20175Y31672D01*
X20297Y31793D01*
X20382Y31941D01*
X20426Y32106D01*
Y32277D01*
X20382Y32443D01*
X20297Y32591D01*
X20175Y32712D01*
X20027Y32798D01*
X19862Y32842D01*
D02*
G37*
G36*
X-2409Y33229D02*
X-2685D01*
X-2952Y33157D01*
X-3192Y33019D01*
X-3387Y32824D01*
X-3525Y32584D01*
X-3597Y32317D01*
Y32041D01*
X-3525Y31774D01*
X-3387Y31534D01*
X-3192Y31339D01*
X-2952Y31201D01*
X-2685Y31129D01*
X-2409D01*
X-2142Y31201D01*
X-1902Y31339D01*
X-1707Y31534D01*
X-1569Y31774D01*
X-1497Y32041D01*
Y32317D01*
X-1569Y32584D01*
X-1707Y32824D01*
X-1902Y33019D01*
X-2142Y33157D01*
X-2409Y33229D01*
D02*
G37*
G36*
X-4909D02*
X-5185D01*
X-5452Y33157D01*
X-5692Y33019D01*
X-5887Y32824D01*
X-6025Y32584D01*
X-6097Y32317D01*
Y32041D01*
X-6025Y31774D01*
X-5887Y31534D01*
X-5692Y31339D01*
X-5452Y31201D01*
X-5185Y31129D01*
X-4909D01*
X-4642Y31201D01*
X-4402Y31339D01*
X-4207Y31534D01*
X-4069Y31774D01*
X-3997Y32041D01*
Y32317D01*
X-4069Y32584D01*
X-4207Y32824D01*
X-4402Y33019D01*
X-4642Y33157D01*
X-4909Y33229D01*
D02*
G37*
G36*
X25740Y27193D02*
X25568D01*
X25403Y27149D01*
X25255Y27063D01*
X25134Y26942D01*
X25048Y26794D01*
X25004Y26629D01*
Y26457D01*
X25048Y26292D01*
X25134Y26144D01*
X25255Y26023D01*
X25403Y25937D01*
X25568Y25893D01*
X25740D01*
X25905Y25937D01*
X26053Y26023D01*
X26174Y26144D01*
X26260Y26292D01*
X26304Y26457D01*
Y26629D01*
X26260Y26794D01*
X26174Y26942D01*
X26053Y27063D01*
X25905Y27149D01*
X25740Y27193D01*
D02*
G37*
G36*
X26375Y24907D02*
X26203D01*
X26038Y24863D01*
X25890Y24777D01*
X25769Y24656D01*
X25683Y24508D01*
X25639Y24343D01*
Y24171D01*
X25683Y24006D01*
X25769Y23858D01*
X25890Y23737D01*
X26038Y23651D01*
X26203Y23607D01*
X26375D01*
X26540Y23651D01*
X26688Y23737D01*
X26809Y23858D01*
X26895Y24006D01*
X26939Y24171D01*
Y24343D01*
X26895Y24508D01*
X26809Y24656D01*
X26688Y24777D01*
X26540Y24863D01*
X26375Y24907D01*
D02*
G37*
G36*
X-25908Y34833D02*
X-26023Y34786D01*
X-26045Y34733D01*
X-26110Y34685D01*
X-26110Y34643D01*
Y30385D01*
X-26070D01*
Y29102D01*
X-26023Y28987D01*
X-25181Y28146D01*
Y24511D01*
X-25134Y24396D01*
X-24118Y23380D01*
X-24003Y23333D01*
X-22479Y23333D01*
X-22364Y23380D01*
X-21348Y24396D01*
X-21301Y24511D01*
Y31242D01*
X-21348Y31357D01*
X-22825Y32833D01*
Y34544D01*
X-22872Y34659D01*
X-22987Y34706D01*
X-25714D01*
X-25793Y34786D01*
X-25793D01*
X-25908Y34833D01*
D02*
G37*
G36*
X24617Y34706D02*
X22860D01*
X22745Y34659D01*
X22364Y34278D01*
X22317Y34163D01*
X22317Y31944D01*
X21142Y30769D01*
X18288D01*
X18173Y30722D01*
X15887Y28436D01*
X15840Y28321D01*
Y22352D01*
X15887Y22237D01*
X16522Y21602D01*
X16637Y21555D01*
X21971D01*
X22086Y21602D01*
X23610Y23126D01*
X23657Y23241D01*
Y26730D01*
X25134Y28206D01*
X25181Y28321D01*
Y31475D01*
X31369D01*
X31412Y31481D01*
X31455D01*
X31496Y31492D01*
X31539Y31498D01*
X31578Y31514D01*
X31620Y31525D01*
X31657Y31547D01*
X31697Y31563D01*
X31731Y31589D01*
X31768Y31611D01*
X31799Y31641D01*
X31833Y31667D01*
X31859Y31701D01*
X31889Y31732D01*
X31911Y31769D01*
X31937Y31803D01*
X31953Y31843D01*
X31975Y31880D01*
X31986Y31922D01*
X32002Y31961D01*
X32008Y32004D01*
X32019Y32045D01*
Y32088D01*
X32025Y32131D01*
X32019Y32174D01*
Y32217D01*
X32008Y32258D01*
X32002Y32301D01*
X31986Y32340D01*
X31975Y32382D01*
X31953Y32419D01*
X31937Y32459D01*
X31911Y32493D01*
X31889Y32530D01*
X31859Y32561D01*
X31833Y32595D01*
X31799Y32621D01*
X31768Y32651D01*
X31731Y32673D01*
X31697Y32699D01*
X31657Y32715D01*
X31620Y32737D01*
X31578Y32748D01*
X31539Y32764D01*
X31496Y32770D01*
X31455Y32781D01*
X31412D01*
X31369Y32787D01*
X25181D01*
Y34061D01*
X25160Y34112D01*
X25144Y34165D01*
Y34685D01*
X24671D01*
X24632Y34706D01*
X24624Y34703D01*
X24617Y34706D01*
D02*
G37*
G36*
X25867Y22621D02*
X25695D01*
X25530Y22577D01*
X25382Y22491D01*
X25261Y22370D01*
X25175Y22222D01*
X25131Y22057D01*
Y21885D01*
X25175Y21720D01*
X25261Y21572D01*
X25382Y21451D01*
X25530Y21365D01*
X25695Y21321D01*
X25867D01*
X26032Y21365D01*
X26180Y21451D01*
X26301Y21572D01*
X26387Y21720D01*
X26431Y21885D01*
Y22057D01*
X26387Y22222D01*
X26301Y22370D01*
X26180Y22491D01*
X26032Y22577D01*
X25867Y22621D01*
D02*
G37*
G36*
X-15931Y20137D02*
X-16102D01*
X-16268Y20093D01*
X-16416Y20007D01*
X-16537Y19886D01*
X-16623Y19738D01*
X-16667Y19573D01*
Y19402D01*
X-16623Y19236D01*
X-16537Y19088D01*
X-16416Y18967D01*
X-16268Y18881D01*
X-16102Y18837D01*
X-15931D01*
X-15766Y18881D01*
X-15618Y18967D01*
X-15497Y19088D01*
X-15411Y19236D01*
X-15367Y19402D01*
Y19573D01*
X-15411Y19738D01*
X-15497Y19886D01*
X-15618Y20007D01*
X-15766Y20093D01*
X-15931Y20137D01*
D02*
G37*
G36*
X710Y20441D02*
X560D01*
X423Y20384D01*
X317Y20278D01*
X260Y20141D01*
Y19991D01*
X317Y19854D01*
X423Y19748D01*
X483Y19723D01*
X520Y19703D01*
X533Y19611D01*
Y19505D01*
X520Y19413D01*
X483Y19393D01*
X423Y19368D01*
X317Y19262D01*
X260Y19125D01*
Y18975D01*
X317Y18838D01*
X423Y18732D01*
X560Y18675D01*
X710D01*
X847Y18732D01*
X953Y18838D01*
X1010Y18975D01*
Y19125D01*
X953Y19262D01*
X847Y19368D01*
X787Y19393D01*
X750Y19413D01*
X737Y19505D01*
Y19611D01*
X750Y19703D01*
X787Y19723D01*
X847Y19748D01*
X953Y19854D01*
X1010Y19991D01*
Y20141D01*
X953Y20278D01*
X847Y20384D01*
X710Y20441D01*
D02*
G37*
G36*
X21699Y18965D02*
X21481D01*
X21278Y18881D01*
X21124Y18727D01*
X21040Y18524D01*
Y18306D01*
X21124Y18103D01*
X21278Y17949D01*
X21481Y17865D01*
X21699D01*
X21902Y17949D01*
X22056Y18103D01*
X22140Y18306D01*
Y18524D01*
X22056Y18727D01*
X21902Y18881D01*
X21699Y18965D01*
D02*
G37*
G36*
X16746D02*
X16528D01*
X16325Y18881D01*
X16171Y18727D01*
X16087Y18524D01*
Y18306D01*
X16171Y18103D01*
X16325Y17949D01*
X16528Y17865D01*
X16746D01*
X16949Y17949D01*
X17103Y18103D01*
X17187Y18306D01*
Y18524D01*
X17103Y18727D01*
X16949Y18881D01*
X16746Y18965D01*
D02*
G37*
G36*
X471Y15817D02*
X291D01*
X126Y15748D01*
X-0Y15622D01*
X-69Y15457D01*
Y15277D01*
X-0Y15112D01*
X126Y14986D01*
X291Y14917D01*
X471D01*
X636Y14986D01*
X762Y15112D01*
X831Y15277D01*
Y15457D01*
X762Y15622D01*
X636Y15748D01*
X471Y15817D01*
D02*
G37*
G36*
X-1434D02*
X-1614D01*
X-1779Y15748D01*
X-1905Y15622D01*
X-1974Y15457D01*
Y15277D01*
X-1905Y15112D01*
X-1779Y14986D01*
X-1614Y14917D01*
X-1434D01*
X-1269Y14986D01*
X-1143Y15112D01*
X-1074Y15277D01*
Y15457D01*
X-1143Y15622D01*
X-1269Y15748D01*
X-1434Y15817D01*
D02*
G37*
G36*
X-18583Y16017D02*
X-18755D01*
X-18920Y15973D01*
X-19068Y15887D01*
X-19189Y15766D01*
X-19275Y15618D01*
X-19319Y15453D01*
Y15281D01*
X-19275Y15116D01*
X-19189Y14968D01*
X-19068Y14847D01*
X-18920Y14761D01*
X-18755Y14717D01*
X-18583D01*
X-18418Y14761D01*
X-18270Y14847D01*
X-18149Y14968D01*
X-18063Y15116D01*
X-18019Y15281D01*
Y15453D01*
X-18063Y15618D01*
X-18149Y15766D01*
X-18270Y15887D01*
X-18418Y15973D01*
X-18583Y16017D01*
D02*
G37*
G36*
X-9181Y14420D02*
X-9361D01*
X-9526Y14351D01*
X-9652Y14225D01*
X-9721Y14060D01*
Y13880D01*
X-9652Y13715D01*
X-9526Y13589D01*
X-9361Y13520D01*
X-9181D01*
X-9016Y13589D01*
X-8890Y13715D01*
X-8821Y13880D01*
Y14060D01*
X-8890Y14225D01*
X-9016Y14351D01*
X-9181Y14420D01*
D02*
G37*
G36*
X4401Y14794D02*
X4222D01*
X4057Y14725D01*
X3930Y14599D01*
X3861Y14434D01*
Y14254D01*
X3930Y14089D01*
X4029Y13906D01*
X3937Y13717D01*
X3868Y13552D01*
Y13372D01*
X3937Y13207D01*
X4063Y13081D01*
X4228Y13012D01*
X4408D01*
X4573Y13081D01*
X4699Y13207D01*
X4768Y13372D01*
Y13552D01*
X4699Y13717D01*
X4600Y13900D01*
X4693Y14089D01*
X4761Y14254D01*
Y14434D01*
X4693Y14599D01*
X4566Y14725D01*
X4401Y14794D01*
D02*
G37*
G36*
X-2704Y13150D02*
X-2884D01*
X-3049Y13081D01*
X-3175Y12955D01*
X-3244Y12790D01*
Y12610D01*
X-3175Y12445D01*
X-3049Y12319D01*
X-2884Y12250D01*
X-2704D01*
X-2539Y12319D01*
X-2413Y12445D01*
X-2344Y12610D01*
Y12790D01*
X-2413Y12955D01*
X-2539Y13081D01*
X-2704Y13150D01*
D02*
G37*
G36*
X1736Y12998D02*
X1566D01*
X1410Y12933D01*
X1291Y12814D01*
X1226Y12658D01*
Y12488D01*
X1291Y12332D01*
X1410Y12213D01*
X1566Y12148D01*
X1736D01*
X1892Y12213D01*
X2011Y12332D01*
X2076Y12488D01*
Y12658D01*
X2011Y12814D01*
X1892Y12933D01*
X1736Y12998D01*
D02*
G37*
G36*
X-18583Y13350D02*
X-18755D01*
X-18920Y13306D01*
X-19068Y13220D01*
X-19189Y13099D01*
X-19275Y12951D01*
X-19319Y12786D01*
Y12614D01*
X-19275Y12449D01*
X-19189Y12301D01*
X-19068Y12180D01*
X-18920Y12094D01*
X-18755Y12050D01*
X-18583D01*
X-18418Y12094D01*
X-18270Y12180D01*
X-18149Y12301D01*
X-18063Y12449D01*
X-18019Y12614D01*
Y12786D01*
X-18063Y12951D01*
X-18149Y13099D01*
X-18270Y13220D01*
X-18418Y13306D01*
X-18583Y13350D01*
D02*
G37*
G36*
X-9689Y12266D02*
X-9869D01*
X-10034Y12197D01*
X-10160Y12071D01*
X-10229Y11905D01*
Y11726D01*
X-10160Y11561D01*
X-10034Y11434D01*
X-9869Y11366D01*
X-9689D01*
X-9524Y11434D01*
X-9398Y11561D01*
X-9329Y11726D01*
Y11905D01*
X-9398Y12071D01*
X-9524Y12197D01*
X-9689Y12266D01*
D02*
G37*
G36*
X19637Y9794D02*
X18387D01*
Y9181D01*
X17371D01*
Y9224D01*
X16271D01*
X16271Y8349D01*
X16271Y8124D01*
X16271Y7504D01*
X16271Y7496D01*
X16269Y7459D01*
X16239Y7187D01*
X15885Y6512D01*
X15266D01*
X14971Y6524D01*
X14971Y6812D01*
Y7324D01*
X13871D01*
Y7204D01*
X10541D01*
X10433Y7183D01*
X10342Y7122D01*
X10140Y6920D01*
X10123Y6927D01*
X9943D01*
X9778Y6858D01*
X9652Y6732D01*
X9583Y6567D01*
Y6387D01*
X9652Y6222D01*
X9778Y6096D01*
X9943Y6027D01*
X10123D01*
X10288Y6096D01*
X10414Y6222D01*
X10483Y6387D01*
Y6470D01*
X10657Y6644D01*
X13871D01*
Y6524D01*
X13901D01*
X14112Y6224D01*
X14082Y6124D01*
D01*
X14062Y5969D01*
Y5080D01*
X14082Y5031D01*
Y4874D01*
X15382D01*
Y4874D01*
X15479D01*
Y4874D01*
X18049D01*
Y5031D01*
X18069Y5080D01*
Y6731D01*
X18022Y6846D01*
X17650Y7217D01*
X17653Y7269D01*
X17724Y7517D01*
X18387D01*
Y6970D01*
X19637D01*
Y8194D01*
X19637Y8270D01*
Y8494D01*
X19637Y8570D01*
Y9794D01*
D02*
G37*
G36*
X32560Y27171D02*
X29591D01*
X29330Y27136D01*
X29087Y27035D01*
X28878Y26875D01*
X27735Y25732D01*
X27574Y25523D01*
X27474Y25280D01*
X27439Y25019D01*
X27439Y12610D01*
X25322Y10492D01*
X25162Y10283D01*
X25061Y10040D01*
X25026Y9779D01*
Y9334D01*
X24908Y9051D01*
X22413D01*
X22307Y9030D01*
X22291Y9020D01*
X21878Y9432D01*
X21746Y9521D01*
X21590Y9552D01*
X21590Y9552D01*
X21237D01*
Y9794D01*
X19987D01*
Y8494D01*
X19987Y8494D01*
Y8270D01*
X19987D01*
X19987Y8194D01*
Y6970D01*
X21237D01*
Y7462D01*
X21788D01*
X21788Y7462D01*
X21945Y7493D01*
X21947Y7495D01*
X22259Y7385D01*
X22278Y7365D01*
X22295Y7279D01*
X21494Y6478D01*
X20066D01*
X19968Y6458D01*
X19886Y6403D01*
X19124Y5641D01*
X19069Y5559D01*
X19049Y5461D01*
Y4794D01*
X18905Y4711D01*
X18784Y4590D01*
X18698Y4442D01*
X18654Y4277D01*
Y4105D01*
X18698Y3940D01*
X18784Y3792D01*
X18905Y3671D01*
X19049Y3588D01*
Y889D01*
X19069Y791D01*
X19124Y709D01*
X19811Y21D01*
Y-6158D01*
X19688Y-6281D01*
X19595D01*
X19430Y-6350D01*
X19304Y-6476D01*
X19235Y-6641D01*
Y-6821D01*
X19304Y-6986D01*
X19430Y-7112D01*
X19595Y-7181D01*
X19775D01*
X19940Y-7112D01*
X20066Y-6986D01*
X20135Y-6821D01*
Y-6641D01*
X20110Y-6580D01*
X20246Y-6444D01*
X20301Y-6361D01*
X20321Y-6263D01*
Y127D01*
X20301Y225D01*
X20246Y307D01*
X19559Y995D01*
Y3588D01*
X19703Y3671D01*
X19824Y3792D01*
X19910Y3940D01*
X19954Y4105D01*
Y4277D01*
X19910Y4442D01*
X19824Y4590D01*
X19703Y4711D01*
X19559Y4794D01*
Y5355D01*
X20172Y5968D01*
X21600D01*
X21697Y5988D01*
X21780Y6043D01*
X22892Y7154D01*
X22947Y7237D01*
X22966Y7335D01*
Y7761D01*
X24908D01*
X25026Y7478D01*
Y3302D01*
X25026Y3302D01*
X25061Y3041D01*
X25162Y2798D01*
X25322Y2589D01*
X25736Y2175D01*
X25621Y1898D01*
X24257D01*
X24257Y1898D01*
X23996Y1863D01*
X23753Y1763D01*
X23644Y1679D01*
X23509D01*
Y1567D01*
X22782Y840D01*
X22782Y840D01*
X22622Y631D01*
X22521Y388D01*
X22486Y127D01*
Y-6223D01*
X22486Y-6223D01*
X22521Y-6484D01*
X22622Y-6727D01*
X22782Y-6936D01*
X22782Y-6936D01*
X27439Y-11594D01*
X27648Y-11754D01*
X27891Y-11855D01*
X28152Y-11889D01*
X33419D01*
X33680Y-11855D01*
X33923Y-11754D01*
X34132Y-11594D01*
X34292Y-11385D01*
X34393Y-11141D01*
X34427Y-10880D01*
Y-8923D01*
X34427Y-8923D01*
X34393Y-8662D01*
X34292Y-8419D01*
X34132Y-8210D01*
X34132Y-8210D01*
X33337Y-7415D01*
X33128Y-7254D01*
X32884Y-7154D01*
X32623Y-7119D01*
X31185D01*
X27933Y-3867D01*
Y-2538D01*
X28233Y-2481D01*
X28370Y-2618D01*
X28579Y-2779D01*
X28822Y-2879D01*
X29083Y-2914D01*
X31877D01*
X32138Y-2879D01*
X32381Y-2779D01*
X32590Y-2618D01*
X33733Y-1475D01*
X33894Y-1266D01*
X33960Y-1105D01*
X33974Y-1084D01*
X34087Y-811D01*
X34145Y-521D01*
Y-226D01*
X34087Y64D01*
X34029Y206D01*
Y1385D01*
X34230Y1626D01*
X34410D01*
X34575Y1695D01*
X34701Y1821D01*
X34770Y1987D01*
Y2166D01*
X34701Y2331D01*
X34575Y2458D01*
X34436Y2515D01*
X34392Y2562D01*
X34356Y2633D01*
X34286Y2826D01*
X34375Y3041D01*
X34410Y3302D01*
Y25448D01*
X34404Y25489D01*
X34406Y25530D01*
X34387Y25619D01*
X34375Y25709D01*
X34359Y25747D01*
X34351Y25787D01*
X34309Y25868D01*
X34275Y25952D01*
X34249Y25985D01*
X34231Y26022D01*
X34170Y26089D01*
X34114Y26161D01*
X34081Y26186D01*
X34054Y26217D01*
X33213Y26931D01*
X33136Y26980D01*
X33064Y27035D01*
X33026Y27051D01*
X32992Y27074D01*
X32905Y27101D01*
X32821Y27136D01*
X32780Y27142D01*
X32741Y27154D01*
X32650Y27159D01*
X32560Y27171D01*
D02*
G37*
G36*
X5091Y33229D02*
X4815D01*
X4548Y33157D01*
X4308Y33019D01*
X4113Y32824D01*
X3975Y32584D01*
X3903Y32317D01*
Y32041D01*
X3975Y31774D01*
X4113Y31534D01*
X4308Y31339D01*
X4548Y31201D01*
X4596Y31188D01*
Y30628D01*
X2923Y28954D01*
X2845Y28839D01*
X2818Y28702D01*
Y20955D01*
X2845Y20818D01*
X2923Y20703D01*
X6882Y16743D01*
Y11938D01*
X6909Y11801D01*
X6987Y11686D01*
X10472Y8200D01*
Y8165D01*
X10541Y8000D01*
X10667Y7874D01*
X10832Y7805D01*
X11012D01*
X11177Y7874D01*
X11303Y8000D01*
X11361Y8139D01*
X11372Y8165D01*
X11553Y8352D01*
X11649Y8356D01*
X12029D01*
X12042Y8324D01*
X12196Y8170D01*
X12398Y8086D01*
X12617D01*
X12819Y8170D01*
X12974Y8324D01*
X13058Y8527D01*
Y8745D01*
X12974Y8948D01*
X12819Y9102D01*
X12617Y9186D01*
X12603D01*
X12385Y9435D01*
X12383Y9480D01*
Y9656D01*
X12299Y9858D01*
X12144Y10013D01*
X12113Y10026D01*
Y10900D01*
X12092Y11008D01*
X12031Y11099D01*
X10104Y13025D01*
X10013Y13086D01*
X9906Y13107D01*
X9623D01*
X9610Y13139D01*
X9456Y13293D01*
X9253Y13377D01*
X9035D01*
X8832Y13293D01*
X8678Y13139D01*
X8594Y12936D01*
Y12718D01*
X8678Y12515D01*
X8832Y12361D01*
X9035Y12277D01*
X9253D01*
X9456Y12361D01*
X9610Y12515D01*
X9900Y12436D01*
X10133Y12203D01*
X9963Y11949D01*
X9888Y11980D01*
X9670D01*
X9467Y11896D01*
X9313Y11742D01*
X9229Y11539D01*
Y11321D01*
X9313Y11118D01*
X9467Y10964D01*
X9499Y10951D01*
Y10607D01*
X9199Y10483D01*
X7596Y12086D01*
Y16891D01*
X7569Y17028D01*
X7491Y17143D01*
X3532Y21103D01*
Y28554D01*
X5205Y30228D01*
X5283Y30343D01*
X5310Y30480D01*
Y31188D01*
X5358Y31201D01*
X5598Y31339D01*
X5793Y31534D01*
X5931Y31774D01*
X6003Y32041D01*
Y32317D01*
X5931Y32584D01*
X5793Y32824D01*
X5598Y33019D01*
X5358Y33157D01*
X5091Y33229D01*
D02*
G37*
G36*
X-18651Y10296D02*
X-19651D01*
Y9801D01*
X-19764Y9687D01*
X-19842Y9572D01*
X-19869Y9435D01*
Y9172D01*
X-20462D01*
Y7922D01*
X-19162D01*
Y8788D01*
X-19155Y8822D01*
Y9287D01*
X-19146Y9296D01*
X-18651D01*
Y10296D01*
D02*
G37*
G36*
X1360Y8451D02*
X1180D01*
X1015Y8382D01*
X889Y8256D01*
X820Y8091D01*
Y7911D01*
X889Y7746D01*
X1015Y7620D01*
X1180Y7551D01*
X1360D01*
X1525Y7620D01*
X1651Y7746D01*
X1720Y7911D01*
Y8091D01*
X1651Y8256D01*
X1525Y8382D01*
X1360Y8451D01*
D02*
G37*
G36*
X-2704Y8070D02*
X-2884D01*
X-3049Y8001D01*
X-3175Y7875D01*
X-3244Y7710D01*
Y7530D01*
X-3175Y7365D01*
X-3049Y7239D01*
X-2884Y7170D01*
X-2704D01*
X-2539Y7239D01*
X-2413Y7365D01*
X-2344Y7530D01*
Y7710D01*
X-2413Y7875D01*
X-2539Y8001D01*
X-2704Y8070D01*
D02*
G37*
G36*
X-1317Y7946D02*
X-1496D01*
X-1662Y7878D01*
X-1788Y7751D01*
X-1857Y7586D01*
Y7407D01*
X-1788Y7242D01*
X-1662Y7115D01*
X-1496Y7046D01*
X-1317D01*
X-1152Y7115D01*
X-1025Y7242D01*
X-957Y7407D01*
Y7586D01*
X-1025Y7751D01*
X-1152Y7878D01*
X-1317Y7946D01*
D02*
G37*
G36*
X-4209Y7662D02*
X-4427D01*
X-4630Y7578D01*
X-4784Y7424D01*
X-4868Y7221D01*
Y7003D01*
X-4784Y6800D01*
X-4630Y6646D01*
X-4427Y6562D01*
X-4209D01*
X-4006Y6646D01*
X-3852Y6800D01*
X-3768Y7003D01*
Y7221D01*
X-3852Y7424D01*
X-4006Y7578D01*
X-4209Y7662D01*
D02*
G37*
G36*
X-14887Y5795D02*
X-15987D01*
Y4995D01*
X-14887D01*
Y4995D01*
X-14847Y5002D01*
X-14547Y4863D01*
X-14478Y4698D01*
X-14352Y4572D01*
X-14187Y4503D01*
X-14007D01*
X-13842Y4572D01*
X-13716Y4698D01*
X-13647Y4863D01*
Y5043D01*
X-13716Y5208D01*
X-13842Y5334D01*
X-14007Y5403D01*
X-14152D01*
X-14342Y5593D01*
X-14433Y5654D01*
X-14540Y5675D01*
X-14887D01*
Y5795D01*
D02*
G37*
G36*
X-19059Y7594D02*
X-19162Y7572D01*
X-19162Y7572D01*
X-20462D01*
Y6322D01*
X-20211D01*
X-20193Y6315D01*
X-19387D01*
X-18945Y5698D01*
X-18803Y5457D01*
X-18974Y5222D01*
X-19164Y5222D01*
X-20145D01*
Y3998D01*
X-20145Y3922D01*
Y3698D01*
X-20145Y3622D01*
Y2398D01*
X-18895D01*
Y2767D01*
X-18307D01*
X-18307Y2767D01*
X-18151Y2798D01*
X-18019Y2887D01*
X-17813Y3092D01*
X-17798Y3095D01*
X-17287D01*
X-17287Y3970D01*
X-17287Y4195D01*
X-17287Y4794D01*
X-17286Y4849D01*
X-17248Y5129D01*
X-16395Y5981D01*
X-16348Y6096D01*
Y7366D01*
X-16362Y7400D01*
Y7594D01*
X-17662D01*
Y7594D01*
X-17759D01*
Y7594D01*
X-18871D01*
X-19059Y7594D01*
D02*
G37*
G36*
X3392Y6673D02*
X3212D01*
X3047Y6604D01*
X2921Y6478D01*
X2852Y6313D01*
Y6133D01*
X2921Y5968D01*
X3022Y5867D01*
Y3658D01*
X2921Y3557D01*
X2852Y3392D01*
Y3212D01*
X2921Y3047D01*
X2974Y2993D01*
X2871Y2693D01*
X-2286D01*
X-2393Y2672D01*
X-2484Y2611D01*
X-3291Y1804D01*
X-5207D01*
X-5314Y1783D01*
X-5405Y1722D01*
X-6807Y321D01*
X-7107Y445D01*
Y3790D01*
X-6149Y4747D01*
X-6006D01*
X-5841Y4816D01*
X-5715Y4942D01*
X-5646Y5107D01*
Y5287D01*
X-5715Y5452D01*
X-5841Y5578D01*
X-6006Y5647D01*
X-6186D01*
X-6351Y5578D01*
X-6477Y5452D01*
X-6546Y5287D01*
Y5144D01*
X-7585Y4104D01*
X-7646Y4013D01*
X-7668Y3906D01*
Y-2311D01*
X-7769Y-2412D01*
X-7837Y-2577D01*
Y-2757D01*
X-7769Y-2922D01*
X-7769Y-2924D01*
X-7996Y-3147D01*
X-8061Y-3120D01*
X-8240D01*
X-8406Y-3189D01*
X-8532Y-3315D01*
X-8601Y-3481D01*
Y-3660D01*
X-8532Y-3825D01*
X-8406Y-3952D01*
X-8240Y-4020D01*
X-8061D01*
X-7896Y-3952D01*
X-7769Y-3825D01*
X-7701Y-3660D01*
Y-3481D01*
X-7769Y-3315D01*
X-7769Y-3313D01*
X-7542Y-3090D01*
X-7477Y-3117D01*
X-7298D01*
X-7209Y-3080D01*
X-6982Y-3184D01*
X-6909Y-3250D01*
Y-4404D01*
X-7010Y-4505D01*
X-7079Y-4670D01*
Y-4849D01*
X-7010Y-5014D01*
X-6884Y-5141D01*
X-6718Y-5210D01*
X-6539D01*
X-6374Y-5141D01*
X-6247Y-5014D01*
X-6247Y-5013D01*
X-5993Y-4880D01*
X-5898Y-4896D01*
X-5803Y-4936D01*
X-5624D01*
X-5459Y-4867D01*
X-5332Y-4740D01*
X-5264Y-4575D01*
Y-4396D01*
X-5332Y-4231D01*
X-5433Y-4130D01*
Y-3757D01*
X-5363Y-3693D01*
X-5133Y-3586D01*
X-5047Y-3622D01*
X-4868D01*
X-4660Y-3804D01*
X-4533Y-3930D01*
X-4368Y-3999D01*
X-4189D01*
X-4024Y-3930D01*
X-3897Y-3804D01*
X-3829Y-3638D01*
Y-3459D01*
X-3897Y-3294D01*
X-3998Y-3193D01*
Y-947D01*
X-2101Y950D01*
X-877D01*
X-648Y719D01*
Y540D01*
X-579Y375D01*
X-453Y248D01*
X-287Y180D01*
X-133D01*
X-77Y114D01*
X19Y-92D01*
X-370Y-482D01*
X-2667D01*
X-2774Y-503D01*
X-2865Y-564D01*
X-3335Y-1034D01*
X-3396Y-1125D01*
X-3418Y-1232D01*
Y-1304D01*
X-3421Y-1305D01*
X-3547Y-1432D01*
X-3616Y-1597D01*
Y-1776D01*
X-3547Y-1942D01*
X-3421Y-2068D01*
X-3255Y-2137D01*
X-3076D01*
X-2911Y-2068D01*
X-2784Y-1942D01*
X-2716Y-1776D01*
Y-1597D01*
X-2784Y-1432D01*
X-2857Y-1359D01*
Y-1348D01*
X-2551Y-1042D01*
X-254D01*
X-147Y-1021D01*
X-56Y-960D01*
X1332Y428D01*
X1965D01*
X1981Y416D01*
X2141Y128D01*
X2125Y90D01*
Y-90D01*
X2194Y-255D01*
X2320Y-381D01*
X2486Y-450D01*
X2665D01*
X2830Y-381D01*
X2957Y-255D01*
X3025Y-90D01*
Y90D01*
X3009Y128D01*
X3169Y416D01*
X3185Y428D01*
X11276D01*
X12410Y-706D01*
X12501Y-767D01*
X12608Y-788D01*
X18233D01*
X18334Y-889D01*
X18499Y-958D01*
X18679D01*
X18844Y-889D01*
X18970Y-763D01*
X19039Y-598D01*
Y-418D01*
X18970Y-253D01*
X18844Y-127D01*
X18679Y-58D01*
X18578D01*
X18469Y-20D01*
X18301Y184D01*
Y217D01*
X18232Y382D01*
X18106Y508D01*
X17941Y577D01*
X17761D01*
X17596Y508D01*
X17495Y407D01*
X15651D01*
X15436Y672D01*
Y852D01*
X15367Y1017D01*
X15241Y1143D01*
X15076Y1212D01*
X14896D01*
X14755Y1153D01*
X14677Y1194D01*
X14511Y1348D01*
X14547Y1434D01*
Y1614D01*
X14478Y1779D01*
X14390Y1867D01*
X14423Y2049D01*
X14482Y2167D01*
X15114D01*
Y3167D01*
X15370Y3274D01*
X15382D01*
Y4524D01*
X14082D01*
Y3454D01*
X14082Y3274D01*
X14082D01*
X14114Y3167D01*
X14114Y3167D01*
Y2328D01*
X13814Y2204D01*
X13406Y2611D01*
X13315Y2672D01*
X13208Y2693D01*
X3733D01*
X3630Y2993D01*
X3683Y3047D01*
X3752Y3212D01*
Y3392D01*
X3683Y3557D01*
X3582Y3658D01*
Y5867D01*
X3683Y5968D01*
X3752Y6133D01*
Y6313D01*
X3683Y6478D01*
X3557Y6604D01*
X3392Y6673D01*
D02*
G37*
G36*
X-15404Y-328D02*
X-15583D01*
X-15749Y-396D01*
X-15875Y-523D01*
X-15944Y-688D01*
Y-867D01*
X-15875Y-1033D01*
X-15749Y-1159D01*
X-15583Y-1228D01*
X-15404D01*
X-15239Y-1159D01*
X-15112Y-1033D01*
X-15044Y-867D01*
Y-688D01*
X-15112Y-523D01*
X-15239Y-396D01*
X-15404Y-328D01*
D02*
G37*
G36*
X11139Y-947D02*
X10959D01*
X10794Y-1016D01*
X10668Y-1142D01*
X10599Y-1307D01*
Y-1466D01*
X10590Y-1479D01*
X10526Y-1537D01*
X10347Y-1661D01*
X10269Y-1629D01*
X10090D01*
X9924Y-1697D01*
X9798Y-1824D01*
X9729Y-1989D01*
Y-2168D01*
X9798Y-2334D01*
X9924Y-2460D01*
X10090Y-2529D01*
X10269D01*
X10392Y-2478D01*
X10566Y-2545D01*
X10692Y-2627D01*
Y-4419D01*
X10668Y-4444D01*
X10599Y-4609D01*
Y-4789D01*
X10668Y-4954D01*
X10794Y-5080D01*
X10959Y-5149D01*
X11139D01*
X11304Y-5080D01*
X11430Y-4954D01*
X11499Y-4789D01*
Y-4609D01*
X11430Y-4444D01*
X11406Y-4419D01*
Y-2425D01*
X11579Y-2349D01*
X11706Y-2333D01*
X11805Y-2432D01*
X11971Y-2501D01*
X12150D01*
X12315Y-2432D01*
X12442Y-2306D01*
X12510Y-2140D01*
Y-1961D01*
X12442Y-1796D01*
X12315Y-1669D01*
X12150Y-1601D01*
X11971D01*
X11805Y-1669D01*
X11526Y-1524D01*
X11499Y-1487D01*
X11499Y-1487D01*
Y-1307D01*
X11430Y-1142D01*
X11304Y-1016D01*
X11139Y-947D01*
D02*
G37*
G36*
X8147Y115D02*
X7968D01*
X7803Y47D01*
X7676Y-80D01*
X7608Y-245D01*
Y-424D01*
X7652Y-531D01*
X7566Y-735D01*
X7493Y-831D01*
X6580D01*
Y-1926D01*
X6316Y-2216D01*
X6270Y-2214D01*
X6268Y-2131D01*
X6268D01*
Y-831D01*
X5018D01*
Y-1224D01*
X4987Y-1230D01*
X4927Y-1200D01*
X4718Y-978D01*
Y-936D01*
X4657Y-789D01*
X4545Y-677D01*
X4398Y-616D01*
X4238D01*
X4091Y-677D01*
X3979Y-789D01*
X3918Y-936D01*
Y-1096D01*
X3979Y-1243D01*
X3985Y-1249D01*
X4051Y-1456D01*
X3979Y-1633D01*
X3187Y-2425D01*
X3186Y-2428D01*
X3146D01*
X3140Y-2540D01*
X3146Y-2555D01*
Y-3728D01*
X3146Y-3928D01*
X3146Y-4228D01*
Y-5528D01*
X3306Y-5538D01*
Y-6788D01*
X4606D01*
X4606Y-6788D01*
X4906Y-6775D01*
X4973Y-6842D01*
X5139Y-6911D01*
X5318D01*
X5483Y-6842D01*
X5610Y-6716D01*
X5678Y-6550D01*
Y-6371D01*
X5904Y-6131D01*
X6223D01*
X6338Y-6084D01*
X6894Y-5528D01*
X7046D01*
Y-4228D01*
X7046Y-4028D01*
X7046Y-3728D01*
Y-2933D01*
X7391Y-2588D01*
X7468Y-2472D01*
X7495Y-2335D01*
X7790Y-2349D01*
Y-5056D01*
X7689Y-5157D01*
X7620Y-5323D01*
Y-5502D01*
X7689Y-5667D01*
X7815Y-5794D01*
X7981Y-5862D01*
X8160D01*
X8207Y-5843D01*
X8519Y-5811D01*
X8645Y-5938D01*
X8811Y-6006D01*
X8990D01*
X9155Y-5938D01*
X9282Y-5811D01*
X9350Y-5646D01*
Y-5467D01*
X9282Y-5301D01*
X9164Y-5183D01*
Y-3575D01*
X9248Y-3491D01*
X9316Y-3325D01*
Y-3146D01*
X9248Y-2981D01*
X9121Y-2854D01*
X8956Y-2786D01*
X8777D01*
X8651Y-2838D01*
X8483Y-2774D01*
X8351Y-2691D01*
Y-678D01*
X8439Y-589D01*
X8508Y-424D01*
Y-245D01*
X8439Y-80D01*
X8313Y47D01*
X8147Y115D01*
D02*
G37*
G36*
X2233Y-2396D02*
X2053D01*
X1888Y-2465D01*
X1762Y-2591D01*
X1457D01*
X1331Y-2465D01*
X1166Y-2396D01*
X986D01*
X821Y-2465D01*
X695Y-2591D01*
X381D01*
X255Y-2465D01*
X90Y-2396D01*
X-90D01*
X-255Y-2465D01*
X-381Y-2591D01*
X-686D01*
X-812Y-2465D01*
X-977Y-2396D01*
X-1157D01*
X-1322Y-2465D01*
X-1419Y-2562D01*
X-1590Y-2578D01*
X-1761Y-2562D01*
X-1858Y-2465D01*
X-2023Y-2396D01*
X-2203D01*
X-2368Y-2465D01*
X-2494Y-2591D01*
X-2563Y-2756D01*
Y-2936D01*
X-2494Y-3101D01*
X-2368Y-3227D01*
X-2347Y-3236D01*
Y-3561D01*
X-2368Y-3570D01*
X-2494Y-3696D01*
X-2563Y-3861D01*
Y-4041D01*
X-2494Y-4206D01*
X-2368Y-4332D01*
X-2348Y-4341D01*
Y-4665D01*
X-2368Y-4674D01*
X-2494Y-4800D01*
X-2563Y-4965D01*
Y-5145D01*
X-2494Y-5310D01*
X-2368Y-5437D01*
X-2254Y-5484D01*
X-2250Y-5504D01*
Y-5763D01*
X-2254Y-5784D01*
X-2368Y-5831D01*
X-2494Y-5958D01*
X-2563Y-6123D01*
Y-6302D01*
X-2494Y-6467D01*
X-2368Y-6594D01*
Y-6896D01*
X-2494Y-7022D01*
X-2563Y-7187D01*
Y-7367D01*
X-2494Y-7532D01*
X-2368Y-7658D01*
X-2203Y-7727D01*
X-2023D01*
X-1858Y-7658D01*
X-1761Y-7561D01*
X-1590Y-7545D01*
X-1419Y-7561D01*
X-1322Y-7658D01*
X-1157Y-7727D01*
X-977D01*
X-812Y-7658D01*
X-686Y-7532D01*
X-381D01*
X-255Y-7658D01*
X-90Y-7727D01*
X90D01*
X255Y-7658D01*
X381Y-7532D01*
X695D01*
X821Y-7658D01*
X986Y-7727D01*
X1166D01*
X1331Y-7658D01*
X1457Y-7532D01*
X1762D01*
X1888Y-7658D01*
X2053Y-7727D01*
X2169D01*
X2419Y-7977D01*
X2535Y-8054D01*
X2672Y-8082D01*
X3306D01*
Y-8350D01*
X4606D01*
Y-7100D01*
X3306D01*
Y-7368D01*
X2820D01*
X2560Y-7109D01*
X2524Y-7022D01*
X2398Y-6896D01*
Y-6594D01*
X2524Y-6467D01*
X2593Y-6302D01*
Y-6123D01*
X2524Y-5958D01*
X2398Y-5831D01*
X2284Y-5784D01*
X2280Y-5763D01*
Y-5504D01*
X2284Y-5484D01*
X2398Y-5437D01*
X2524Y-5310D01*
X2593Y-5145D01*
Y-4965D01*
X2524Y-4800D01*
X2398Y-4674D01*
X2378Y-4665D01*
Y-4341D01*
X2398Y-4332D01*
X2524Y-4206D01*
X2593Y-4041D01*
Y-3861D01*
X2524Y-3696D01*
X2398Y-3570D01*
X2377Y-3561D01*
Y-3236D01*
X2398Y-3227D01*
X2524Y-3101D01*
X2593Y-2936D01*
Y-2756D01*
X2524Y-2591D01*
X2398Y-2465D01*
X2233Y-2396D01*
D02*
G37*
G36*
X18251Y-3487D02*
X18071D01*
X17906Y-3556D01*
X17805Y-3657D01*
X15850D01*
X15749Y-3556D01*
X15584Y-3487D01*
X15404D01*
X15239Y-3556D01*
X15113Y-3682D01*
X15044Y-3847D01*
Y-4027D01*
X15113Y-4192D01*
X15239Y-4318D01*
X15404Y-4387D01*
X15584D01*
X15749Y-4318D01*
X15850Y-4217D01*
X17805D01*
X17906Y-4318D01*
X18071Y-4387D01*
X18251D01*
X18416Y-4318D01*
X18542Y-4192D01*
X18611Y-4027D01*
Y-3847D01*
X18542Y-3682D01*
X18416Y-3556D01*
X18251Y-3487D01*
D02*
G37*
G36*
X-2084Y-9588D02*
X-2243D01*
X-2390Y-9649D01*
X-2503Y-9762D01*
X-2564Y-9909D01*
Y-10068D01*
X-2503Y-10215D01*
X-2390Y-10327D01*
X-2243Y-10388D01*
X-2084D01*
X-1937Y-10327D01*
X-1825Y-10215D01*
X-1764Y-10068D01*
Y-9909D01*
X-1825Y-9762D01*
X-1937Y-9649D01*
X-2084Y-9588D01*
D02*
G37*
G36*
X13566Y-3632D02*
X13312D01*
X13197Y-3679D01*
X13150Y-3794D01*
Y-9951D01*
X10860Y-11926D01*
X5735D01*
X5686Y-11946D01*
X5635Y-11961D01*
X3942Y-13295D01*
X3727Y-13082D01*
X3743Y-13062D01*
X3808Y-12904D01*
X3831Y-12734D01*
X3808Y-12564D01*
X3743Y-12406D01*
X3639Y-12270D01*
X3503Y-12166D01*
X3345Y-12101D01*
X3289Y-12093D01*
X3234Y-12057D01*
X3230Y-12053D01*
X3059Y-11831D01*
X3054Y-11707D01*
Y-10686D01*
X2916D01*
X2732Y-10386D01*
X2736Y-10377D01*
Y-10197D01*
X2667Y-10032D01*
X2541Y-9906D01*
X2376Y-9837D01*
X2196D01*
X2031Y-9906D01*
X1905Y-10032D01*
X1836Y-10197D01*
Y-10377D01*
X1840Y-10386D01*
X1822Y-10447D01*
X1620Y-10640D01*
X366D01*
Y-11890D01*
X1457D01*
X1473Y-11909D01*
X1333Y-12209D01*
X1016D01*
X846Y-12232D01*
X826Y-12240D01*
X366D01*
Y-12822D01*
X360Y-12865D01*
X366Y-12908D01*
Y-13490D01*
X826D01*
X846Y-13498D01*
X1016Y-13521D01*
X1754D01*
Y-13536D01*
X2214D01*
X2234Y-13544D01*
X2404Y-13566D01*
X2574Y-13544D01*
X2594Y-13536D01*
X3054D01*
Y-13390D01*
X3175D01*
X3436Y-13628D01*
X3442Y-13644D01*
X3445Y-13686D01*
X2033Y-14844D01*
X2029Y-14852D01*
X2021Y-14855D01*
X2000Y-14906D01*
X1974Y-14954D01*
X1977Y-14962D01*
X1974Y-14970D01*
X1974Y-21574D01*
X2021Y-21689D01*
X2148Y-21816D01*
X2263Y-21863D01*
X2378Y-21816D01*
X2505Y-21689D01*
X2552Y-21574D01*
Y-20357D01*
X2798Y-20286D01*
X2852Y-20283D01*
X2969Y-20399D01*
X3134Y-20468D01*
X3313D01*
X3478Y-20399D01*
X3605Y-20273D01*
X3674Y-20108D01*
Y-19928D01*
X3605Y-19763D01*
X3478Y-19637D01*
X3313Y-19568D01*
X3134D01*
X2969Y-19637D01*
X2852Y-19753D01*
X2798Y-19750D01*
X2552Y-19679D01*
Y-17355D01*
X2714Y-17265D01*
X2852Y-17215D01*
X2990Y-17272D01*
X3169D01*
X3334Y-17203D01*
X3461Y-17076D01*
X3529Y-16911D01*
Y-16732D01*
X3461Y-16567D01*
X3334Y-16440D01*
X3169Y-16372D01*
X2990D01*
X2852Y-16428D01*
X2714Y-16378D01*
X2552Y-16288D01*
Y-15093D01*
X5859Y-12527D01*
X6350D01*
Y-14178D01*
X8850D01*
Y-12527D01*
X10973D01*
X11025Y-12505D01*
X11079Y-12487D01*
X13673Y-10226D01*
X13675Y-10221D01*
X13681Y-10219D01*
X13703Y-10166D01*
X13728Y-10115D01*
X13726Y-10109D01*
X13728Y-10104D01*
Y-3794D01*
X13681Y-3679D01*
X13566Y-3632D01*
D02*
G37*
G36*
X-3100Y-10704D02*
X-3279D01*
X-3445Y-10773D01*
X-3571Y-10899D01*
X-3640Y-11065D01*
Y-11244D01*
X-3588Y-11369D01*
X-3653Y-11539D01*
X-3736Y-11669D01*
X-4473D01*
Y-12969D01*
X-3879D01*
Y-13044D01*
X-3810Y-13209D01*
X-3684Y-13335D01*
X-3519Y-13404D01*
X-3339D01*
X-3174Y-13335D01*
X-3068Y-13230D01*
X-3048Y-13209D01*
X-2941Y-13033D01*
X-2702Y-12969D01*
X-1623D01*
Y-11669D01*
X-1808D01*
X-1869Y-11521D01*
X-1996Y-11394D01*
X-2161Y-11326D01*
X-2340D01*
X-2471Y-11380D01*
X-2609Y-11310D01*
X-2740Y-11204D01*
Y-11065D01*
X-2808Y-10899D01*
X-2935Y-10773D01*
X-3100Y-10704D01*
D02*
G37*
G36*
X-30040Y-12284D02*
X-33260D01*
Y-14104D01*
X-30040D01*
Y-12284D01*
D02*
G37*
G36*
X32244Y-12358D02*
X29024D01*
Y-14178D01*
X32244D01*
Y-12358D01*
D02*
G37*
G36*
X16092Y-13647D02*
X15912D01*
X15747Y-13716D01*
X15621Y-13842D01*
X15552Y-14007D01*
Y-14187D01*
X15621Y-14352D01*
X15747Y-14478D01*
X15912Y-14547D01*
X16092D01*
X16257Y-14478D01*
X16383Y-14352D01*
X16452Y-14187D01*
Y-14007D01*
X16383Y-13842D01*
X16257Y-13716D01*
X16092Y-13647D01*
D02*
G37*
G36*
X16981Y-14536D02*
X16801D01*
X16636Y-14605D01*
X16510Y-14731D01*
X16441Y-14896D01*
Y-15076D01*
X16510Y-15241D01*
X16636Y-15367D01*
X16801Y-15436D01*
X16981D01*
X17146Y-15367D01*
X17272Y-15241D01*
X17341Y-15076D01*
Y-14896D01*
X17272Y-14731D01*
X17146Y-14605D01*
X16981Y-14536D01*
D02*
G37*
G36*
X11012Y-14989D02*
X10832D01*
X10667Y-15058D01*
X10541Y-15184D01*
X10472Y-15349D01*
Y-15529D01*
X10541Y-15694D01*
X10667Y-15820D01*
X10832Y-15889D01*
X11012D01*
X11177Y-15820D01*
X11303Y-15694D01*
X11372Y-15529D01*
Y-15349D01*
X11303Y-15184D01*
X11177Y-15058D01*
X11012Y-14989D01*
D02*
G37*
G36*
X-13462Y-3632D02*
X-13716D01*
X-13831Y-3679D01*
X-13878Y-3794D01*
Y-11778D01*
X-13831Y-11893D01*
X-10893Y-14831D01*
X-10778Y-14878D01*
X-6998D01*
X-6993Y-14876D01*
X-6989Y-14878D01*
X-3750D01*
X-2702Y-15926D01*
Y-21574D01*
X-2655Y-21689D01*
X-2528Y-21816D01*
X-2413Y-21863D01*
X-2298Y-21816D01*
X-2171Y-21689D01*
X-2124Y-21574D01*
Y-16836D01*
X-1824Y-16720D01*
X-1779Y-16764D01*
X-1614Y-16833D01*
X-1434D01*
X-1269Y-16764D01*
X-1143Y-16638D01*
X-1074Y-16473D01*
Y-16398D01*
X-1057D01*
X-892Y-16354D01*
X-744Y-16268D01*
X-623Y-16147D01*
X-537Y-15999D01*
X-493Y-15834D01*
Y-15762D01*
X-467Y-15633D01*
X-495Y-15497D01*
X-572Y-15381D01*
X-629Y-15343D01*
X-744Y-15228D01*
X-892Y-15142D01*
X-1057Y-15098D01*
X-1229D01*
X-1394Y-15142D01*
X-1542Y-15228D01*
X-1663Y-15349D01*
X-1749Y-15497D01*
X-1793Y-15662D01*
Y-15737D01*
X-1824Y-15765D01*
X-1925Y-15754D01*
X-2153Y-15660D01*
X-2154Y-15659D01*
X-2171Y-15617D01*
X-3441Y-14347D01*
X-3556Y-14300D01*
X-7161D01*
X-7380Y-14104D01*
X-7380Y-14000D01*
Y-12284D01*
X-7921D01*
X-7985Y-12217D01*
X-8094Y-11984D01*
X-8059Y-11901D01*
Y-11721D01*
X-8128Y-11556D01*
X-8254Y-11430D01*
X-8419Y-11361D01*
X-8599D01*
X-8764Y-11430D01*
X-8890Y-11556D01*
X-8959Y-11721D01*
Y-11901D01*
X-8924Y-11984D01*
X-9033Y-12217D01*
X-9097Y-12284D01*
X-10600D01*
Y-13792D01*
X-10900Y-13916D01*
X-13300Y-11517D01*
Y-3794D01*
X-13347Y-3679D01*
X-13462Y-3632D01*
D02*
G37*
G36*
X-7380Y-16034D02*
X-10600D01*
Y-17854D01*
X-7380D01*
Y-16034D01*
D02*
G37*
G36*
X-30040D02*
X-33260D01*
Y-17854D01*
X-30040D01*
Y-16034D01*
D02*
G37*
G36*
X32244Y-16108D02*
X29024D01*
Y-17928D01*
X32244D01*
Y-16108D01*
D02*
G37*
G36*
X9584D02*
X6364D01*
Y-17928D01*
X9584D01*
Y-16108D01*
D02*
G37*
G36*
X17616Y-17330D02*
X17436D01*
X17271Y-17399D01*
X17145Y-17525D01*
X17076Y-17690D01*
Y-17870D01*
X17145Y-18035D01*
X17271Y-18161D01*
X17436Y-18230D01*
X17616D01*
X17781Y-18161D01*
X17907Y-18035D01*
X17976Y-17870D01*
Y-17690D01*
X17907Y-17525D01*
X17781Y-17399D01*
X17616Y-17330D01*
D02*
G37*
G36*
X9438Y-18589D02*
X6664D01*
X6629Y-18594D01*
X6594Y-18592D01*
X6499Y-18611D01*
X6403Y-18624D01*
X6371Y-18637D01*
X6336Y-18644D01*
X6249Y-18687D01*
X6160Y-18724D01*
X6132Y-18746D01*
X6101Y-18761D01*
X6028Y-18826D01*
X5951Y-18885D01*
X5930Y-18913D01*
X5903Y-18936D01*
X5840Y-19008D01*
X5514D01*
Y-19431D01*
X5501Y-19451D01*
X5470Y-19543D01*
X5433Y-19632D01*
X5428Y-19667D01*
X5417Y-19700D01*
X5411Y-19797D01*
X5398Y-19893D01*
Y-35639D01*
X5433Y-35900D01*
X5533Y-36143D01*
X5694Y-36352D01*
X6087Y-36745D01*
X6296Y-36906D01*
X6539Y-37006D01*
X6800Y-37041D01*
X12464D01*
X12725Y-37006D01*
X12968Y-36906D01*
X13177Y-36745D01*
X13177Y-36745D01*
X13650Y-36273D01*
X13810Y-36064D01*
X13911Y-35820D01*
X13945Y-35559D01*
X13945Y-28536D01*
X13945Y-28536D01*
X13911Y-28275D01*
X13810Y-28032D01*
X13650Y-27823D01*
X13650Y-27823D01*
X11010Y-25183D01*
Y-20161D01*
X10975Y-19900D01*
X10875Y-19657D01*
X10714Y-19448D01*
X10434Y-19168D01*
Y-19008D01*
X10274D01*
X10151Y-18885D01*
X9942Y-18724D01*
X9699Y-18624D01*
X9438Y-18589D01*
D02*
G37*
G36*
X12028Y-17910D02*
X11848D01*
X11683Y-17979D01*
X11557Y-18105D01*
X11488Y-18270D01*
Y-18450D01*
X11557Y-18615D01*
X11683Y-18741D01*
X11848Y-18810D01*
X12028D01*
X12193Y-18741D01*
X12319Y-18615D01*
X12388Y-18450D01*
Y-18270D01*
X12319Y-18105D01*
X12193Y-17979D01*
X12028Y-17910D01*
D02*
G37*
G36*
X-21627Y-21267D02*
X-21807D01*
X-21972Y-21336D01*
X-22098Y-21462D01*
X-22167Y-21627D01*
Y-21807D01*
X-22098Y-21972D01*
X-21972Y-22098D01*
X-21807Y-22167D01*
X-21627D01*
X-21462Y-22098D01*
X-21336Y-21972D01*
X-21267Y-21807D01*
Y-21627D01*
X-21336Y-21462D01*
X-21462Y-21336D01*
X-21627Y-21267D01*
D02*
G37*
G36*
X-18071Y-21394D02*
X-18251D01*
X-18416Y-21463D01*
X-18542Y-21589D01*
X-18611Y-21754D01*
Y-21934D01*
X-18542Y-22099D01*
X-18416Y-22225D01*
X-18251Y-22294D01*
X-18071D01*
X-17906Y-22225D01*
X-17780Y-22099D01*
X-17711Y-21934D01*
Y-21754D01*
X-17780Y-21589D01*
X-17906Y-21463D01*
X-18071Y-21394D01*
D02*
G37*
G36*
X-15605Y-24630D02*
X-15784D01*
X-15950Y-24699D01*
X-16076Y-24826D01*
X-16145Y-24991D01*
Y-25170D01*
X-16076Y-25335D01*
X-15950Y-25462D01*
X-15784Y-25530D01*
X-15605D01*
X-15440Y-25462D01*
X-15313Y-25335D01*
X-15245Y-25170D01*
Y-24991D01*
X-15313Y-24826D01*
X-15440Y-24699D01*
X-15605Y-24630D01*
D02*
G37*
G36*
X27968Y-18959D02*
X27853Y-19006D01*
X26381Y-20478D01*
X26334Y-20593D01*
Y-24399D01*
X26381Y-24513D01*
X27959Y-26091D01*
X28074Y-26138D01*
X33188D01*
X33303Y-26091D01*
X33350Y-25976D01*
Y-19121D01*
X33303Y-19006D01*
X33188Y-18959D01*
X27968Y-18959D01*
D02*
G37*
G36*
X-28952Y-19051D02*
X-34172Y-19051D01*
X-34286Y-19098D01*
X-34334Y-19213D01*
Y-26068D01*
X-34286Y-26183D01*
X-34172Y-26230D01*
X-29057D01*
X-28942Y-26183D01*
X-27365Y-24605D01*
X-27317Y-24491D01*
Y-20685D01*
X-27365Y-20570D01*
X-28837Y-19098D01*
X-28952Y-19051D01*
D02*
G37*
G36*
X-20992Y-25712D02*
X-21172D01*
X-21337Y-25781D01*
X-21463Y-25907D01*
X-21532Y-26072D01*
Y-26252D01*
X-21463Y-26417D01*
X-21337Y-26543D01*
X-21172Y-26612D01*
X-20992D01*
X-20827Y-26543D01*
X-20701Y-26417D01*
X-20632Y-26252D01*
Y-26072D01*
X-20701Y-25907D01*
X-20827Y-25781D01*
X-20992Y-25712D01*
D02*
G37*
G36*
X-4813Y-26646D02*
X-4985D01*
X-5150Y-26691D01*
X-5298Y-26776D01*
X-5419Y-26897D01*
X-5505Y-27046D01*
X-5549Y-27211D01*
Y-27382D01*
X-5505Y-27547D01*
X-5419Y-27696D01*
X-5298Y-27817D01*
X-5150Y-27902D01*
X-4985Y-27946D01*
X-4813D01*
X-4648Y-27902D01*
X-4500Y-27817D01*
X-4379Y-27696D01*
X-4354Y-27653D01*
X-3937D01*
X-3801Y-27626D01*
X-3791Y-27619D01*
X-3666D01*
X-3501Y-27551D01*
X-3374Y-27424D01*
X-3306Y-27259D01*
Y-27080D01*
X-3374Y-26915D01*
X-3501Y-26788D01*
X-3666Y-26719D01*
X-3845D01*
X-4011Y-26788D01*
X-4085Y-26862D01*
X-4273Y-26885D01*
X-4425Y-26851D01*
X-4500Y-26776D01*
X-4648Y-26691D01*
X-4813Y-26646D01*
D02*
G37*
G36*
X24235Y-27229D02*
X24056D01*
X23891Y-27298D01*
X23764Y-27424D01*
X23696Y-27590D01*
Y-27769D01*
X23764Y-27934D01*
X23891Y-28061D01*
X24056Y-28129D01*
X24235D01*
X24401Y-28061D01*
X24527Y-27934D01*
X24596Y-27769D01*
Y-27590D01*
X24527Y-27424D01*
X24401Y-27298D01*
X24235Y-27229D01*
D02*
G37*
G36*
X-19173Y-28875D02*
X-20423D01*
Y-30175D01*
X-19173D01*
Y-29861D01*
X-18609D01*
Y-29947D01*
X-18588Y-30053D01*
X-18528Y-30143D01*
X-18438Y-30203D01*
X-18331Y-30224D01*
X-15836D01*
X-15730Y-30203D01*
X-15640Y-30143D01*
X-15580Y-30053D01*
X-15558Y-29947D01*
Y-29212D01*
X-15580Y-29105D01*
X-15640Y-29015D01*
X-15730Y-28955D01*
X-15836Y-28934D01*
X-18331D01*
X-18438Y-28955D01*
X-18528Y-29015D01*
X-18588Y-29105D01*
X-18609Y-29212D01*
Y-29297D01*
X-19173D01*
Y-28875D01*
D02*
G37*
G36*
X-30096Y-28327D02*
Y-28327D01*
X-31396D01*
Y-29577D01*
X-30096D01*
X-30065Y-29674D01*
X-28824D01*
X-28524Y-29696D01*
X-28540Y-29818D01*
X-28540Y-29818D01*
X-28540D01*
Y-31118D01*
X-27290D01*
Y-29835D01*
X-27288Y-29834D01*
X-27220Y-29668D01*
Y-29489D01*
X-27253Y-29409D01*
Y-28374D01*
X-28503D01*
Y-29534D01*
X-28515Y-29626D01*
X-28815Y-29607D01*
Y-28374D01*
X-30065D01*
X-30096Y-28327D01*
D02*
G37*
G36*
X-25089Y-30356D02*
X-26389D01*
Y-31606D01*
X-25659D01*
X-25266Y-31999D01*
X-25252Y-32033D01*
X-25186Y-32060D01*
X-25151Y-32084D01*
X-25044Y-32105D01*
X-24449D01*
X-24341Y-32084D01*
X-24330Y-32076D01*
X-23749D01*
X-23645Y-32033D01*
X-23603Y-31930D01*
Y-31720D01*
X-23645Y-31616D01*
X-23749Y-31574D01*
X-24330D01*
X-24341Y-31566D01*
X-24449Y-31544D01*
X-24928D01*
X-25089Y-31383D01*
Y-30356D01*
D02*
G37*
G36*
X20209Y-28302D02*
X18393D01*
X18278Y-28350D01*
X17174Y-29455D01*
X15674D01*
X15559Y-29502D01*
X15310Y-29751D01*
X15307Y-29758D01*
X15300Y-29762D01*
X14836Y-30317D01*
X14819Y-30370D01*
X14798Y-30421D01*
Y-31259D01*
X14846Y-31374D01*
X14874Y-31385D01*
X15542Y-32053D01*
X15657Y-32101D01*
X19147D01*
X19580Y-32534D01*
X19695Y-32582D01*
X20338D01*
X20370Y-32629D01*
Y-32839D01*
X20403Y-32984D01*
X20370Y-33129D01*
Y-33339D01*
X20403Y-33484D01*
X20370Y-33629D01*
Y-33839D01*
X20413Y-33943D01*
X20516Y-33985D01*
X21089D01*
X21124Y-34008D01*
X21231Y-34030D01*
X22139D01*
X22273Y-34164D01*
Y-34212D01*
X22341Y-34377D01*
X22468Y-34504D01*
X22547Y-34537D01*
X22642Y-34850D01*
X22508Y-35021D01*
X21263D01*
Y-34651D01*
X20013D01*
Y-34745D01*
X19713Y-34872D01*
X19701Y-34860D01*
Y-34651D01*
X19118D01*
X19076Y-34645D01*
X19033Y-34651D01*
X18451D01*
Y-34743D01*
X16422D01*
X16344Y-34753D01*
X15175D01*
X15068Y-34774D01*
X14978Y-34834D01*
X14918Y-34925D01*
X14897Y-35031D01*
Y-35766D01*
X14918Y-35872D01*
X14978Y-35962D01*
X15068Y-36023D01*
X15175Y-36044D01*
X16344D01*
X16422Y-36054D01*
X18978D01*
X19148Y-36032D01*
X19306Y-35966D01*
X19326Y-35951D01*
X19701D01*
Y-35742D01*
X19713Y-35730D01*
X20013Y-35856D01*
Y-35951D01*
X21263D01*
Y-35581D01*
X22719D01*
X22826Y-35560D01*
X22917Y-35499D01*
X24002Y-34414D01*
X24063Y-34323D01*
X24084Y-34216D01*
Y-33789D01*
X24359Y-33515D01*
X25516D01*
X25623Y-33493D01*
X25635Y-33485D01*
X26216D01*
X26319Y-33443D01*
X26362Y-33339D01*
Y-33129D01*
X26639Y-33015D01*
X27159D01*
Y-33343D01*
X28409D01*
Y-32043D01*
X28120D01*
Y-30889D01*
X26820D01*
Y-31482D01*
X26702Y-31531D01*
X26576Y-31657D01*
X26521Y-31790D01*
X26493Y-31817D01*
X25576D01*
X25440Y-31845D01*
X25324Y-31922D01*
X25264Y-31982D01*
X25263Y-31983D01*
X24816D01*
X24713Y-32026D01*
X24670Y-32129D01*
Y-32339D01*
X24703Y-32484D01*
X24670Y-32629D01*
Y-32839D01*
X24393Y-32954D01*
X24243D01*
X24136Y-32975D01*
X24045Y-33036D01*
X23759Y-33322D01*
X23712Y-33325D01*
X23422Y-33234D01*
X23399Y-33178D01*
X23273Y-33052D01*
X23107Y-32983D01*
X22892Y-32762D01*
X22882Y-32706D01*
Y-32574D01*
X22814Y-32408D01*
X22687Y-32282D01*
X22522Y-32213D01*
X22353Y-32162D01*
X22353Y-31936D01*
Y-31682D01*
X22306Y-31567D01*
X20687Y-29948D01*
Y-28780D01*
X20639Y-28665D01*
X20324Y-28350D01*
X20209Y-28302D01*
D02*
G37*
G36*
X26612Y-33954D02*
X25516D01*
X25409Y-33975D01*
X25397Y-33983D01*
X24816D01*
X24713Y-34026D01*
X24670Y-34129D01*
Y-34339D01*
X24713Y-34443D01*
X24816Y-34485D01*
X25397D01*
X25409Y-34493D01*
X25516Y-34515D01*
X26352D01*
Y-35275D01*
X27602D01*
Y-33975D01*
X26716D01*
X26612Y-33954D01*
D02*
G37*
G36*
X31805Y-29011D02*
X31441D01*
X31083Y-29082D01*
X30747Y-29222D01*
X30444Y-29424D01*
X30186Y-29682D01*
X29984Y-29985D01*
X29844Y-30321D01*
X29773Y-30679D01*
Y-31043D01*
X29844Y-31401D01*
X29984Y-31737D01*
X30186Y-32040D01*
X30444Y-32298D01*
X30638Y-32428D01*
X30715Y-32696D01*
X30715D01*
Y-35331D01*
X29685D01*
Y-35377D01*
X29518Y-35608D01*
X29385Y-35608D01*
X27968D01*
Y-35608D01*
X27852Y-35605D01*
Y-35605D01*
X27669Y-35605D01*
X26302D01*
Y-35802D01*
X26285Y-36095D01*
X25276D01*
X25276Y-36095D01*
X25275Y-36095D01*
X25132Y-36095D01*
X24946Y-35822D01*
X24974Y-35736D01*
X24978Y-35727D01*
X24991Y-35694D01*
X25042Y-35571D01*
Y-35392D01*
X24974Y-35226D01*
X24847Y-35100D01*
X24682Y-35031D01*
X24503D01*
X24337Y-35100D01*
X24211Y-35226D01*
X24204Y-35242D01*
X23917D01*
X23810Y-35264D01*
X23719Y-35324D01*
X23004Y-36039D01*
X22101D01*
Y-36711D01*
X22073D01*
X21966Y-36732D01*
X21875Y-36793D01*
X21810Y-36858D01*
X21641D01*
X21637Y-36859D01*
X20666D01*
Y-38159D01*
X20874D01*
X20916Y-38222D01*
X20956Y-38249D01*
Y-39543D01*
X21605D01*
X21696Y-39561D01*
X21788Y-39543D01*
X22206D01*
Y-39168D01*
X22522Y-38851D01*
X23401D01*
Y-37601D01*
X22599D01*
X22431Y-37339D01*
X22441Y-37301D01*
X22462Y-37289D01*
X23401D01*
Y-36436D01*
X24034Y-35803D01*
X24278D01*
X24337Y-35863D01*
X24503Y-35931D01*
X24633Y-35931D01*
X24682Y-35931D01*
X24770Y-35953D01*
X24899Y-36029D01*
X24955Y-36086D01*
X24985Y-36198D01*
X24985Y-36378D01*
X24985Y-36378D01*
X24985Y-36384D01*
Y-37345D01*
X26285D01*
Y-37249D01*
X26438D01*
X26604Y-37181D01*
X26730Y-37054D01*
X26792Y-36905D01*
X27852D01*
Y-36905D01*
X27968Y-36908D01*
Y-36908D01*
X29385D01*
X29500Y-36908D01*
X29685Y-37131D01*
X29509Y-37358D01*
X27718D01*
Y-39158D01*
X29768D01*
Y-39131D01*
X31735D01*
Y-37431D01*
X31735Y-37331D01*
X31891Y-37096D01*
X33365D01*
Y-37002D01*
X33507Y-36907D01*
X33600Y-36866D01*
X33665Y-36861D01*
X33672Y-36867D01*
X33883Y-36955D01*
X33916D01*
X33946Y-36967D01*
X34175D01*
X34205Y-36955D01*
X34237D01*
X34449Y-36867D01*
X34471Y-36844D01*
X34501Y-36832D01*
X34663Y-36670D01*
X34676Y-36640D01*
X34698Y-36617D01*
X34786Y-36405D01*
Y-36373D01*
X34799Y-36343D01*
Y-36114D01*
X34786Y-36084D01*
Y-36052D01*
X34698Y-35840D01*
X34676Y-35817D01*
X34663Y-35787D01*
X34501Y-35625D01*
X34471Y-35613D01*
X34449Y-35590D01*
X34237Y-35503D01*
X34205D01*
X34175Y-35490D01*
X33965D01*
Y-34681D01*
X33982Y-34676D01*
X34301Y-34492D01*
X34562Y-34231D01*
X34746Y-33912D01*
X34841Y-33556D01*
Y-33187D01*
X34746Y-32831D01*
X34562Y-32512D01*
X34301Y-32251D01*
X33982Y-32067D01*
X33626Y-31972D01*
X33467D01*
X33374Y-31865D01*
X33290Y-31672D01*
X33402Y-31401D01*
X33473Y-31043D01*
Y-30679D01*
X33402Y-30321D01*
X33262Y-29985D01*
X33060Y-29682D01*
X32802Y-29424D01*
X32499Y-29222D01*
X32163Y-29082D01*
X31805Y-29011D01*
D02*
G37*
G36*
X-7491Y-18357D02*
X-10299D01*
X-10560Y-18392D01*
X-10803Y-18492D01*
X-11012Y-18653D01*
X-11293Y-18934D01*
X-11450D01*
Y-19091D01*
X-11498Y-19139D01*
X-11658Y-19348D01*
X-11759Y-19591D01*
X-11793Y-19852D01*
Y-20307D01*
Y-25351D01*
X-14301Y-27858D01*
X-14461Y-28067D01*
X-14562Y-28310D01*
X-14596Y-28571D01*
Y-34503D01*
X-14562Y-34764D01*
X-14461Y-35008D01*
X-14301Y-35217D01*
X-13687Y-35830D01*
X-13478Y-35991D01*
X-13235Y-36091D01*
X-12974Y-36126D01*
X-7573D01*
X-7312Y-36091D01*
X-7069Y-35991D01*
X-6860Y-35830D01*
X-6860Y-35830D01*
X-6369Y-35339D01*
X-6209Y-35130D01*
X-6108Y-34887D01*
X-6074Y-34626D01*
Y-19775D01*
X-6108Y-19514D01*
X-6209Y-19271D01*
X-6369Y-19062D01*
X-6778Y-18653D01*
X-6987Y-18492D01*
X-7230Y-18392D01*
X-7491Y-18357D01*
D02*
G37*
G36*
X-20735Y-28875D02*
X-21985D01*
Y-29779D01*
X-22676Y-30469D01*
X-22737Y-30560D01*
X-22758Y-30668D01*
Y-32318D01*
X-22984Y-32544D01*
X-24449D01*
X-24556Y-32566D01*
X-24568Y-32574D01*
X-25149D01*
X-25252Y-32616D01*
X-25295Y-32720D01*
Y-32930D01*
X-25369Y-32960D01*
X-25640Y-33029D01*
X-25640Y-33029D01*
X-25640Y-33029D01*
X-26890D01*
Y-34329D01*
X-25640D01*
X-25483Y-34564D01*
Y-35217D01*
X-25483Y-35417D01*
X-25745Y-35510D01*
X-26765D01*
Y-36854D01*
X-26765Y-37060D01*
X-26765Y-37060D01*
X-26752Y-37148D01*
X-26752D01*
Y-38698D01*
X-25452D01*
Y-37354D01*
X-25452Y-37148D01*
X-25452D01*
X-25455Y-37126D01*
X-25283Y-36826D01*
X-24263D01*
Y-36187D01*
X-24157Y-36080D01*
X-24088Y-35915D01*
Y-35736D01*
X-24157Y-35571D01*
X-24233Y-35417D01*
Y-34117D01*
X-23950Y-34076D01*
X-23749D01*
X-23645Y-34033D01*
X-23603Y-33930D01*
Y-33720D01*
X-23636Y-33575D01*
X-23603Y-33430D01*
Y-33220D01*
X-23326Y-33105D01*
X-22868D01*
X-22761Y-33084D01*
X-22670Y-33023D01*
X-22601Y-32954D01*
X-22301Y-33078D01*
Y-33471D01*
X-22402Y-33572D01*
X-22471Y-33737D01*
Y-33916D01*
X-22402Y-34082D01*
X-22276Y-34208D01*
X-22110Y-34277D01*
X-21931D01*
X-21766Y-34208D01*
X-21639Y-34082D01*
X-21571Y-33916D01*
Y-33737D01*
X-21571Y-33737D01*
X-21380Y-33485D01*
X-21182Y-33493D01*
X-21035Y-33752D01*
X-21069Y-33834D01*
Y-34322D01*
X-21021Y-34436D01*
X-20243Y-35215D01*
X-20128Y-35263D01*
X-19016D01*
X-18340Y-35939D01*
Y-37836D01*
X-18292Y-37951D01*
X-17879Y-38365D01*
X-17764Y-38412D01*
X-15942D01*
X-15828Y-38365D01*
X-15450Y-37987D01*
X-15403Y-37873D01*
Y-33777D01*
X-15450Y-33662D01*
X-15611Y-33501D01*
X-15726Y-33453D01*
X-18298D01*
X-18384Y-33420D01*
X-18477Y-33351D01*
X-18513Y-33311D01*
X-18575Y-33216D01*
Y-33167D01*
X-18644Y-33002D01*
X-18770Y-32875D01*
X-18936Y-32807D01*
X-19115D01*
X-19303Y-32720D01*
X-19303Y-32720D01*
X-19336Y-32575D01*
X-19303Y-32430D01*
Y-32220D01*
X-19345Y-32116D01*
X-19449Y-32074D01*
X-20030D01*
X-20042Y-32066D01*
X-20149Y-32044D01*
X-20224Y-32059D01*
X-21498D01*
X-21605Y-32081D01*
X-21696Y-32141D01*
X-21897Y-32343D01*
X-22197Y-32219D01*
Y-30784D01*
X-21589Y-30175D01*
X-20735D01*
Y-28875D01*
D02*
G37*
G36*
X-2286Y-22301D02*
X-2540D01*
X-2655Y-22348D01*
X-2702Y-22463D01*
Y-39162D01*
X-2655Y-39277D01*
X-2540Y-39325D01*
X-2286D01*
X-2171Y-39277D01*
X-2124Y-39162D01*
Y-22463D01*
X-2171Y-22348D01*
X-2286Y-22301D01*
D02*
G37*
G36*
X2388D02*
X2134D01*
X2019Y-22348D01*
X1972Y-22463D01*
Y-39168D01*
X2019Y-39283D01*
X2134Y-39331D01*
X2388D01*
X2503Y-39283D01*
X2550Y-39168D01*
Y-22463D01*
X2503Y-22348D01*
X2388Y-22301D01*
D02*
G37*
%LPD*%
G36*
X26289Y39370D02*
X25781Y38862D01*
X22606D01*
X21971Y39497D01*
Y41910D01*
X26289D01*
Y39370D01*
D02*
G37*
G36*
X-22733Y38735D02*
X-23241Y38227D01*
X-26416D01*
X-27051Y38862D01*
Y41275D01*
X-22733D01*
Y38735D01*
D02*
G37*
G36*
X-25781Y34544D02*
X-22987D01*
Y32766D01*
X-21463Y31242D01*
Y24511D01*
X-22479Y23495D01*
X-24003Y23495D01*
X-25019Y24511D01*
Y28213D01*
X-25908Y29102D01*
Y34671D01*
X-25781Y34544D01*
D02*
G37*
G36*
X25019Y34061D02*
Y28321D01*
X23495Y26797D01*
Y23241D01*
X21971Y21717D01*
X16637D01*
X16002Y22352D01*
Y28321D01*
X18288Y30607D01*
X21209D01*
X22479Y31877D01*
X22479Y34163D01*
X22860Y34544D01*
X24617D01*
X25019Y34061D01*
D02*
G37*
G36*
X17907Y6731D02*
Y5080D01*
X14224D01*
Y5969D01*
X14605Y6350D01*
X15983D01*
X16383Y7112D01*
X17526D01*
X17907Y6731D01*
D02*
G37*
G36*
X33401Y25448D02*
Y3302D01*
X33020Y2921D01*
Y-762D01*
X31877Y-1905D01*
X29083D01*
X28448Y-1270D01*
Y889D01*
X26035Y3302D01*
Y9779D01*
X28448Y12192D01*
X28448Y25019D01*
X29591Y26162D01*
X32560D01*
X33401Y25448D01*
D02*
G37*
G36*
X26924Y381D02*
Y-4285D01*
X30767Y-8128D01*
X32623D01*
X33419Y-8923D01*
Y-10880D01*
X28152D01*
X23495Y-6223D01*
Y127D01*
X24257Y889D01*
X26797D01*
X26924Y381D01*
D02*
G37*
G36*
X-16510Y6096D02*
X-17399Y5207D01*
X-18394D01*
X-19304Y6477D01*
X-20193D01*
Y7366D01*
X-16510D01*
Y6096D01*
D02*
G37*
G36*
X5842Y-2413D02*
X5179D01*
X4191Y-3683D01*
X3937D01*
X3302Y-2540D01*
X4191Y-1651D01*
X5842D01*
Y-2413D01*
D02*
G37*
G36*
X6604Y-4953D02*
X6858Y-5334D01*
X6223Y-5969D01*
X4953D01*
X4826Y-5842D01*
Y-5461D01*
X5334Y-4953D01*
Y-4445D01*
X5537Y-4242D01*
X6604Y-4953D01*
D02*
G37*
G36*
X10001Y-20161D02*
Y-25600D01*
X12936Y-28536D01*
X12936Y-35559D01*
X12464Y-36032D01*
X6800D01*
X6407Y-35639D01*
Y-19893D01*
X6664Y-19598D01*
X9438D01*
X10001Y-20161D01*
D02*
G37*
G36*
X33188Y-19121D02*
Y-25976D01*
X28074D01*
X26496Y-24399D01*
Y-20593D01*
X27968Y-19121D01*
X33188Y-19121D01*
D02*
G37*
G36*
X-27480Y-20685D02*
Y-24491D01*
X-29057Y-26068D01*
X-34172D01*
Y-19213D01*
X-28952Y-19213D01*
X-27480Y-20685D01*
D02*
G37*
G36*
X20524Y-28780D02*
Y-30015D01*
X22191Y-31682D01*
Y-32162D01*
X21934Y-32420D01*
X19695D01*
X19214Y-31939D01*
X15657D01*
X14977Y-31259D01*
X14961D01*
Y-30421D01*
X15425Y-29866D01*
X15674Y-29617D01*
X17241D01*
X18393Y-28464D01*
X20209D01*
X20524Y-28780D01*
D02*
G37*
G36*
X-7082Y-19775D02*
Y-34626D01*
X-7573Y-35117D01*
X-12974D01*
X-13587Y-34503D01*
Y-28571D01*
X-10785Y-25769D01*
Y-20307D01*
Y-19852D01*
X-10299Y-19366D01*
X-7491D01*
X-7082Y-19775D01*
D02*
G37*
G36*
X-15565Y-33777D02*
Y-37873D01*
X-15942Y-38250D01*
X-17764D01*
X-18178Y-37836D01*
Y-35872D01*
X-18949Y-35100D01*
X-20128D01*
X-20906Y-34322D01*
Y-33834D01*
X-20848Y-33776D01*
X-18676D01*
X-18339Y-33616D01*
X-15726D01*
X-15565Y-33777D01*
D02*
G37*
D10*
X5461Y-2032D02*
G03*
X5630Y-1781I-222J333D01*
G01*
X5719Y-1532D02*
G03*
X5630Y-1781I837J-437D01*
G01*
X2672Y-7725D02*
X3956D01*
X2227Y-7280D02*
X2672Y-7725D01*
X26957Y-31912D02*
X26995Y-31874D01*
X27085D01*
X27445Y-31514D01*
X27470D01*
X25576Y-32174D02*
X26641D01*
X26903Y-31912D01*
X26957D01*
X-25021Y-34604D02*
X-24858Y-34767D01*
X-25021Y-34604D02*
Y-34160D01*
Y-34084D02*
Y-33922D01*
X-25059Y-34122D02*
X-25021Y-34160D01*
Y-33922D02*
X-24924Y-33825D01*
X-25059Y-34122D02*
X-25021Y-34084D01*
X-24924Y-33825D02*
X-24449D01*
X25516Y-32234D02*
X25576Y-32174D01*
X30697Y-38245D02*
X30710Y-38231D01*
X28756Y-38245D02*
X30697D01*
X28743Y-38258D02*
X28756Y-38245D01*
X7239Y11938D02*
X10922Y8255D01*
X7239Y11938D02*
Y16891D01*
X-14770Y4026D02*
X-14732Y4064D01*
X-15381Y4026D02*
X-14770D01*
X-18409Y8569D02*
X-18334Y8644D01*
X-10982Y-1918D02*
Y99D01*
Y-1918D02*
X-10795Y-2105D01*
Y-2159D02*
Y-2105D01*
X-16802Y9309D02*
Y9597D01*
X-17001Y9796D02*
X-16802Y9597D01*
Y9309D02*
X-16764Y9271D01*
X-19512Y9435D02*
X-19151Y9796D01*
X-19512Y8822D02*
Y9435D01*
X-19787Y8547D02*
X-19512Y8822D01*
X-19812Y8547D02*
X-19787D01*
X16853Y2070D02*
X16891Y2032D01*
X16853Y2070D02*
Y2578D01*
X16764Y2667D02*
X16853Y2578D01*
X16092Y3212D02*
X16110Y3231D01*
Y3624D01*
X17399Y3798D02*
Y3899D01*
X16110Y3624D02*
X16129Y3643D01*
X17399Y3798D02*
X17573Y3624D01*
Y3323D02*
Y3624D01*
Y3323D02*
X17611Y3284D01*
X16129Y3643D02*
Y3899D01*
X14614Y2667D02*
X14673Y2726D01*
Y3840D01*
X14732Y3899D01*
X13843Y8382D02*
X13881Y8344D01*
X14332D01*
X14421Y8255D01*
X14421D02*
Y8824D01*
X14421Y7874D02*
X14421Y7874D01*
X14421Y7874D02*
Y8255D01*
X-15437Y3970D02*
X-15381Y4026D01*
X-15437Y3970D02*
Y4445D01*
Y3495D02*
Y3970D01*
X14371Y8874D02*
X14421Y8824D01*
X-17015Y8572D02*
Y9395D01*
Y8572D02*
X-17012Y8569D01*
X19012Y9119D02*
Y9144D01*
X18717Y8824D02*
X19012Y9119D01*
X16821Y8824D02*
X18717D01*
X18758Y7874D02*
X19012Y7620D01*
X16821Y7874D02*
X18758D01*
X-1524Y-16383D02*
X-1486Y-16345D01*
Y-16253D01*
X-1143Y-15910D01*
Y-15748D01*
X-1028Y-15633D01*
X-824D01*
X11049Y-4699D02*
Y-1397D01*
X3175Y20955D02*
X7239Y16891D01*
X3175Y20955D02*
Y28702D01*
X4953Y30480D01*
Y32179D01*
X2286Y-11193D02*
Y-10287D01*
Y-11193D02*
X2404Y-11311D01*
X2381Y-11288D02*
X2404Y-11311D01*
X1039Y-11288D02*
X2381D01*
X1016Y-11265D02*
X1039Y-11288D01*
X-3798Y-12319D02*
X-3473Y-12619D01*
X-3429Y-12954D01*
X5719Y-1532D02*
X5887Y-1303D01*
X5461Y-2032D02*
X5461Y-2032D01*
X6296Y-3178D02*
X7139Y-2335D01*
Y-1303D01*
X2200Y-7280D02*
X2227D01*
X-3810Y-27169D02*
X-3756D01*
X-3937Y-27296D02*
X-3810Y-27169D01*
X-4899Y-27296D02*
X-3937D01*
X3996Y-3178D02*
X4096D01*
D11*
X19685Y-6731D02*
Y-6644D01*
X20066Y-6263D01*
Y127D01*
X19304Y889D02*
X20066Y127D01*
X19304Y889D02*
Y4191D01*
Y5461D02*
X20066Y6223D01*
X21600D01*
X19304Y4191D02*
Y5461D01*
X21600Y6223D02*
X22711Y7335D01*
Y8003D02*
X23211Y8503D01*
X22711Y7335D02*
Y8003D01*
D12*
X8070Y-5412D02*
Y-347D01*
X1216Y708D02*
X11392D01*
X-2235Y1778D02*
X12765D01*
X-2218Y1230D02*
X11816D01*
X8883Y-5539D02*
Y-3253D01*
Y-5539D02*
X8900Y-5556D01*
X8866Y-3236D02*
X8883Y-3253D01*
X-2286Y2413D02*
X13208D01*
X-3175Y1524D02*
X-2286Y2413D01*
X13208D02*
X14097Y1524D01*
X3302Y3302D02*
Y6223D01*
X6680Y4097D02*
X6723Y4055D01*
X7440D01*
X7482Y4012D01*
X-6812Y-2281D02*
X-6629Y-2465D01*
X-6812Y-2281D02*
Y-81D01*
X-6629Y-4760D02*
Y-2465D01*
X-6096Y-2131D02*
X-5714Y-2514D01*
Y-4486D02*
Y-2514D01*
X-6096Y-2131D02*
Y-254D01*
X-9966Y99D02*
X-9959Y92D01*
X-9218Y85D02*
X-9188Y115D01*
X-9225Y92D02*
X-9218Y85D01*
X-9959Y92D02*
X-9225D01*
X-254Y10743D02*
Y12827D01*
Y10743D02*
X873Y9616D01*
X3290D01*
X6680Y6226D01*
Y4097D02*
Y6226D01*
X-254Y-762D02*
X1216Y708D01*
X11392D02*
X12608Y-508D01*
X13812Y731D02*
X14955D01*
X12765Y1778D02*
X13812Y731D01*
X11816Y1230D02*
X12919Y127D01*
X17851D01*
X12608Y-508D02*
X18589D01*
X-7387Y-2667D02*
Y3906D01*
X-6096Y5197D01*
X-9188Y115D02*
Y8084D01*
X-6731Y10541D01*
X-11938Y-635D02*
Y15240D01*
X-8255Y18923D01*
X-4953Y889D02*
X-3124D01*
X-5207Y1524D02*
X-3175D01*
X-6812Y-81D02*
X-5207Y1524D01*
X-6096Y-254D02*
X-4953Y889D01*
X-4279Y-3549D02*
Y-831D01*
X-2218Y1230D01*
X-3124Y889D02*
X-2235Y1778D01*
X-30675Y-32168D02*
X-29690D01*
X-29462Y-32396D01*
X-30892Y-32385D02*
X-30675Y-32168D01*
X-22021Y-33827D02*
Y-32863D01*
X-24888Y-36176D02*
X-24538Y-35826D01*
X-22021Y-32863D02*
X-21498Y-32340D01*
X-20972Y-32840D02*
X-20164D01*
X-21133Y-33001D02*
X-20972Y-32840D01*
X-21228Y-33001D02*
X-21133D01*
X-29513Y-28952D02*
X-29440Y-29024D01*
X-30746Y-28952D02*
X-29513D01*
X-27670Y-29579D02*
Y-29232D01*
X-27878Y-29024D02*
X-27670Y-29232D01*
Y-30223D02*
Y-29579D01*
X-27915Y-30468D02*
X-27670Y-30223D01*
X-20164Y-32840D02*
X-20149Y-32825D01*
Y-33325D02*
X-20134Y-33310D01*
X-19078D01*
X-19025Y-33257D01*
X-21498Y-32340D02*
X-20164D01*
X-20149Y-32325D01*
X-26115Y-36285D02*
X-26006Y-36176D01*
X-24888D01*
X-26115Y-37910D02*
X-26102Y-37923D01*
X-26115Y-37910D02*
Y-36285D01*
X-25887Y-30981D02*
X-25044Y-31825D01*
X-24449D01*
Y-32825D02*
X-22868D01*
X-22478Y-32434D01*
Y-30668D01*
X-21360Y-29550D01*
Y-29525D01*
X21696Y-39281D02*
Y-39281D01*
X22376Y-38601D01*
Y-38576D01*
X22726Y-38226D01*
X22751D01*
X21291Y-37509D02*
X21556D01*
Y-37224D01*
X21641Y-37138D01*
X21926D01*
X22073Y-36991D01*
X22424D01*
X22751Y-36664D01*
X28020Y-32734D02*
X28051Y-32703D01*
X25516Y-32734D02*
X28020D01*
X26977Y-34625D02*
Y-34600D01*
X26612Y-34234D02*
X26977Y-34600D01*
X25516Y-34234D02*
X26612D01*
X21114Y-38024D02*
X21139D01*
X21489Y-37674D02*
Y-37575D01*
X24551Y-35523D02*
X24592Y-35481D01*
X23917Y-35523D02*
X24551D01*
X22776Y-36664D02*
X23917Y-35523D01*
X22628Y-34123D02*
X22723D01*
X21231Y-33749D02*
X22255D01*
X22628Y-34123D01*
X21216Y-33734D02*
X21231Y-33749D01*
X28740Y-36255D02*
X28743Y-36258D01*
X27077Y-36255D02*
X28740D01*
X25635Y-36720D02*
X25714Y-36799D01*
X26349D01*
X26952Y-36255D02*
X27077D01*
X26408Y-36799D02*
X26952Y-36255D01*
X26349Y-36799D02*
X26408D01*
X23804Y-33673D02*
X24243Y-33234D01*
X23804Y-34216D02*
Y-33673D01*
X22719Y-35301D02*
X23804Y-34216D01*
X24243Y-33234D02*
X25516D01*
X32305Y-36231D02*
X32340Y-36196D01*
X30710Y-36231D02*
X32305D01*
X22377Y-32719D02*
X22432Y-32663D01*
X21231Y-32719D02*
X22377D01*
X21216Y-32734D02*
X21231Y-32719D01*
X20638Y-35301D02*
X22719D01*
X9144Y12827D02*
X9906D01*
X11833Y9547D02*
Y10900D01*
X9906Y12827D02*
X11833Y10900D01*
X9779Y10414D02*
Y11430D01*
X11557Y8636D02*
X12508D01*
X9779Y10414D02*
X11557Y8636D01*
X-12827Y-2159D02*
X-9779Y-5207D01*
X-8255D01*
X-12827Y-2159D02*
Y5969D01*
X-3429Y23114D02*
X-47Y26496D01*
X-3429Y20574D02*
Y23114D01*
X-10047Y35179D02*
X-10033Y35193D01*
Y37719D01*
X-9144Y38608D01*
X10287D01*
X12446Y36449D01*
X-2667Y-762D02*
X-254D01*
X-2251Y-11782D02*
Y-11776D01*
X-2413Y-11944D02*
X-2251Y-11782D01*
X-11328Y2111D02*
Y14580D01*
X-7620Y18288D01*
X-11328Y2111D02*
X-11264Y2047D01*
X-1437Y12914D02*
X-1397Y12954D01*
X-1437Y11771D02*
Y12914D01*
X-2667Y10541D02*
X-1437Y11771D01*
X-7620Y18288D02*
X-4445D01*
X-6731Y10541D02*
X-2667D01*
X-5080Y18923D02*
X-3429Y20574D01*
X-8255Y18923D02*
X-5080D01*
X10541Y6924D02*
X14421D01*
X10033Y6477D02*
X10094D01*
X10541Y6924D01*
X-14097Y4953D02*
X-14097Y4953D01*
X-14098Y4953D02*
X-14097D01*
X-14540Y5395D02*
X-14098Y4953D01*
X-15437Y5395D02*
X-14540D01*
X-2413Y-11944D02*
X-2181Y-12319D01*
X-4445Y18288D02*
X-2667Y20066D01*
X1016Y30742D02*
X2453Y32179D01*
X1016Y25654D02*
Y30742D01*
X-2667Y21971D02*
X1016Y25654D01*
X-2667Y20066D02*
Y21971D01*
X-47Y26496D02*
Y32179D01*
X15494Y-3937D02*
X18161D01*
X3763Y-6003D02*
X3996Y-5770D01*
X6196Y-3178D02*
X6296D01*
X-3137Y-1232D02*
X-2667Y-762D01*
X-3137Y-1658D02*
Y-1232D01*
X-3166Y-1687D02*
X-3137Y-1658D01*
X14955Y731D02*
X14986Y762D01*
D17*
X-30179Y23485D02*
G03*
X-30179Y23485I-1000J0D01*
G01*
X-7679D02*
G03*
X-7679Y23485I-1000J0D01*
G01*
X31717D02*
G03*
X31717Y23485I-1000J0D01*
G01*
X9217D02*
G03*
X9217Y23485I-1000J0D01*
G01*
X-10047Y24853D02*
X-8679Y23485D01*
X-10047Y24853D02*
Y32179D01*
X9906Y32132D02*
X9953Y32179D01*
X9906Y25715D02*
Y32132D01*
X8217Y24026D02*
X9906Y25715D01*
X8217Y23485D02*
Y24026D01*
D18*
X-10982Y99D02*
D03*
X-9966D02*
D03*
X6680Y4097D02*
D03*
X5664D02*
D03*
D19*
X5643Y-1481D02*
D03*
X7205D02*
D03*
X-29477Y-30468D02*
D03*
X-27915D02*
D03*
X-29440Y-29024D02*
D03*
X-27878D02*
D03*
X-24888Y-36176D02*
D03*
X-23326D02*
D03*
X-26265Y-33679D02*
D03*
X-27827D02*
D03*
X-19798Y-29525D02*
D03*
X-21360D02*
D03*
X27784Y-32693D02*
D03*
X29346D02*
D03*
X19729Y-37509D02*
D03*
X21291D02*
D03*
X20019Y-38893D02*
D03*
X21581D02*
D03*
X19076Y-35301D02*
D03*
X20638D02*
D03*
X28539Y-34625D02*
D03*
X26977D02*
D03*
X-23296Y-34767D02*
D03*
X-24858D02*
D03*
X-19520Y3048D02*
D03*
X-21120D02*
D03*
X-19520Y4572D02*
D03*
X-21120D02*
D03*
X19012Y9144D02*
D03*
X20612D02*
D03*
X19012Y7620D02*
D03*
X20612D02*
D03*
D20*
X3956Y-7725D02*
D03*
Y-6163D02*
D03*
X27470Y-29952D02*
D03*
Y-31514D02*
D03*
X-30746Y-30514D02*
D03*
Y-28952D02*
D03*
X-25739Y-29419D02*
D03*
Y-30981D02*
D03*
X22751Y-38226D02*
D03*
Y-36664D02*
D03*
X25635Y-36720D02*
D03*
Y-38282D02*
D03*
X2404Y-12911D02*
D03*
X1016Y-12865D02*
D03*
X16129Y5499D02*
D03*
Y3899D02*
D03*
X-18409Y6969D02*
D03*
Y8569D02*
D03*
X-17012Y6969D02*
D03*
Y8569D02*
D03*
X17399Y5499D02*
D03*
Y3899D02*
D03*
X-19812Y6947D02*
D03*
Y8547D02*
D03*
X14732Y5499D02*
D03*
Y3899D02*
D03*
X1016Y-11265D02*
D03*
X2404Y-11311D02*
D03*
D21*
X-24102Y-37923D02*
D03*
X-26102D02*
D03*
X-26115Y-36285D02*
D03*
X-28115D02*
D03*
X-30892Y-32385D02*
D03*
X-32892D02*
D03*
D22*
X-29462Y-34396D02*
D03*
Y-32396D02*
D03*
X27077Y-38255D02*
D03*
Y-36255D02*
D03*
X28743Y-36258D02*
D03*
Y-38258D02*
D03*
X30710Y-38231D02*
D03*
Y-36231D02*
D03*
X32340Y-36196D02*
D03*
Y-34196D02*
D03*
D23*
X-31650Y-9444D02*
D03*
Y-13194D02*
D03*
Y-16944D02*
D03*
Y-20694D02*
D03*
Y-24444D02*
D03*
X-8990Y-9444D02*
D03*
Y-13194D02*
D03*
Y-16944D02*
D03*
Y-20694D02*
D03*
Y-24444D02*
D03*
X7974Y-9518D02*
D03*
Y-17018D02*
D03*
Y-20768D02*
D03*
Y-24518D02*
D03*
X30634Y-9518D02*
D03*
Y-13268D02*
D03*
Y-17018D02*
D03*
Y-20768D02*
D03*
Y-24518D02*
D03*
D24*
X-24449Y-33825D02*
D03*
Y-33325D02*
D03*
Y-32825D02*
D03*
Y-32325D02*
D03*
Y-31825D02*
D03*
X-20149D02*
D03*
Y-32325D02*
D03*
Y-32825D02*
D03*
Y-33325D02*
D03*
Y-33825D02*
D03*
X25516Y-32234D02*
D03*
Y-32734D02*
D03*
Y-33234D02*
D03*
Y-33734D02*
D03*
Y-34234D02*
D03*
X21216D02*
D03*
Y-33734D02*
D03*
Y-33234D02*
D03*
Y-32734D02*
D03*
Y-32234D02*
D03*
D25*
X-22039Y-36700D02*
D03*
X-17039D02*
D03*
X24016Y-29952D02*
D03*
X19016D02*
D03*
D26*
X-17084Y-34151D02*
D03*
Y-29579D02*
D03*
X16422Y-30826D02*
D03*
Y-35398D02*
D03*
X-24004Y8531D02*
D03*
Y3959D02*
D03*
X23661Y3834D02*
D03*
Y8406D02*
D03*
D27*
X-32149Y-597D02*
D03*
X-27819D02*
D03*
X29979Y-381D02*
D03*
X25649D02*
D03*
D28*
X7600Y-13268D02*
D03*
D29*
X-24960Y39635D02*
D03*
X23994D02*
D03*
Y32535D02*
D03*
X-24960D02*
D03*
D30*
X-15437Y5395D02*
D03*
Y4445D02*
D03*
Y3495D02*
D03*
X-17837D02*
D03*
Y4445D02*
D03*
Y5395D02*
D03*
X14421Y6924D02*
D03*
Y7874D02*
D03*
Y8824D02*
D03*
X16821D02*
D03*
Y7874D02*
D03*
Y6924D02*
D03*
D31*
X14614Y2667D02*
D03*
X16764D02*
D03*
X-19151Y9796D02*
D03*
X-17001D02*
D03*
D32*
X-23749Y2159D02*
D03*
X31369Y32131D02*
D03*
X-1143Y-15748D02*
D03*
X32645Y-374D02*
D03*
X-4899Y-27296D02*
D03*
X19304Y4191D02*
D03*
X-34925Y508D02*
D03*
X-33382Y-19839D02*
D03*
X-33511Y-25540D02*
D03*
X-33272Y-22595D02*
D03*
X26230Y-30068D02*
D03*
X25315Y-30867D02*
D03*
X25268Y-29270D02*
D03*
X-28450Y-21018D02*
D03*
Y-24066D02*
D03*
X-29457Y-25218D02*
D03*
X-29540Y-20211D02*
D03*
X-28217Y-22631D02*
D03*
X-29659Y-22643D02*
D03*
X-31317Y-22655D02*
D03*
X32289Y-22503D02*
D03*
X30333Y-22563D02*
D03*
X28676Y-22551D02*
D03*
X27233Y-22539D02*
D03*
X32575Y-19749D02*
D03*
X32527Y-25448D02*
D03*
X28557Y-20118D02*
D03*
X28473Y-25126D02*
D03*
X27466Y-23974D02*
D03*
Y-20926D02*
D03*
X-18669Y12700D02*
D03*
Y15367D02*
D03*
X-16017Y19487D02*
D03*
X-23495Y38989D02*
D03*
Y40513D02*
D03*
X-26416Y39243D02*
D03*
Y40513D02*
D03*
X25527Y39624D02*
D03*
Y41148D02*
D03*
X22606D02*
D03*
Y39878D02*
D03*
X25654Y26543D02*
D03*
X25781Y21971D02*
D03*
X26289Y24257D02*
D03*
X21844Y26416D02*
D03*
X19033Y35481D02*
D03*
X20908Y34174D02*
D03*
X19776Y32192D02*
D03*
X20320Y23368D02*
D03*
X18669D02*
D03*
X17145D02*
D03*
X20320Y25400D02*
D03*
X18669D02*
D03*
X17145D02*
D03*
Y27432D02*
D03*
X18669D02*
D03*
X20320D02*
D03*
X-22479Y24765D02*
D03*
Y26162D02*
D03*
X-24003D02*
D03*
X-24048Y24745D02*
D03*
D33*
X-2298Y-12319D02*
D03*
X-3798D02*
D03*
D34*
X3996Y-3178D02*
D03*
X6196D02*
D03*
Y-4778D02*
D03*
X3996D02*
D03*
D43*
X-10284Y-31865D02*
D03*
X9622Y-33112D02*
D03*
X-30804Y6245D02*
D03*
X30461Y6120D02*
D03*
D50*
X15453Y36679D02*
D03*
X-15547D02*
D03*
D51*
X8058Y-335D02*
D03*
X8070Y-5412D02*
D03*
X8866Y-3236D02*
D03*
X8900Y-5556D02*
D03*
X3302Y3302D02*
D03*
X7482Y4012D02*
D03*
X4928Y4131D02*
D03*
X-6629Y-4760D02*
D03*
X-5714Y-4486D02*
D03*
X-9218Y85D02*
D03*
X-11938Y-635D02*
D03*
X-198Y630D02*
D03*
X-7387Y-2667D02*
D03*
X-8151Y-3570D02*
D03*
X2143Y-2846D02*
D03*
X1076D02*
D03*
X-1067D02*
D03*
X0D02*
D03*
X-2113D02*
D03*
X2143Y-3951D02*
D03*
X1076D02*
D03*
X-1067D02*
D03*
X0D02*
D03*
X-2113D02*
D03*
X2143Y-5055D02*
D03*
X1076D02*
D03*
X-1067D02*
D03*
X0D02*
D03*
X-2113D02*
D03*
X2143Y-6212D02*
D03*
X1076D02*
D03*
X-1067D02*
D03*
X0D02*
D03*
X-2113D02*
D03*
Y-7277D02*
D03*
X0D02*
D03*
X-1067D02*
D03*
X1076D02*
D03*
X2143D02*
D03*
X-15695Y-25080D02*
D03*
X-15547Y-2512D02*
D03*
X-15494Y-778D02*
D03*
X26957Y-31912D02*
D03*
X-14890Y-31409D02*
D03*
X-15631Y-32466D02*
D03*
X-16506Y-31443D02*
D03*
X-18285D02*
D03*
X-17410Y-32466D02*
D03*
X-35179Y-31496D02*
D03*
X-22021Y-33827D02*
D03*
X-24538Y-35826D02*
D03*
X-21228Y-33001D02*
D03*
X-25059Y-34122D02*
D03*
X24146Y-27679D02*
D03*
X-27670Y-29579D02*
D03*
X-19025Y-33257D02*
D03*
X-27990Y-34386D02*
D03*
X-17404Y-26658D02*
D03*
X20472Y-38411D02*
D03*
X19227Y-38043D02*
D03*
X22723Y-34123D02*
D03*
X23018Y-33433D02*
D03*
X26784Y-38948D02*
D03*
X25661Y-38923D02*
D03*
X26349Y-36799D02*
D03*
X24592Y-35481D02*
D03*
X16039Y-34207D02*
D03*
X15164Y-33184D02*
D03*
X16943D02*
D03*
X17818Y-34207D02*
D03*
X18715Y-33184D02*
D03*
X19570Y-34207D02*
D03*
X22432Y-32663D02*
D03*
X-11599Y-10336D02*
D03*
X-10794Y-10343D02*
D03*
X-10708Y-8467D02*
D03*
X-11499Y-8480D02*
D03*
X-11049Y-9369D02*
D03*
X-11811D02*
D03*
X10179Y-2079D02*
D03*
X12060Y-2051D02*
D03*
X10922Y8255D02*
D03*
X22098Y3683D02*
D03*
X21209D02*
D03*
X27432Y4445D02*
D03*
X-14732Y4064D02*
D03*
X-10541Y7620D02*
D03*
X2575Y0D02*
D03*
X32035Y223D02*
D03*
X34320Y2076D02*
D03*
X2975Y-12434D02*
D03*
X381Y15367D02*
D03*
X-2794Y12700D02*
D03*
X-10541Y13848D02*
D03*
X-9271Y13970D02*
D03*
X-1524Y15367D02*
D03*
X4311Y14344D02*
D03*
X4318Y13462D02*
D03*
X-3810Y11557D02*
D03*
X-4826D02*
D03*
X9398Y39497D02*
D03*
X1270Y8001D02*
D03*
X-7762Y17074D02*
D03*
X-12827Y7747D02*
D03*
X-10922Y17526D02*
D03*
X3175Y10414D02*
D03*
X-2794Y7620D02*
D03*
X-1407Y7496D02*
D03*
X4318Y-4572D02*
D03*
X-2251Y-11776D02*
D03*
X-12573Y12065D02*
D03*
Y10922D02*
D03*
X-1397Y12954D02*
D03*
X-254Y12827D02*
D03*
X14986Y13589D02*
D03*
X3224Y-20018D02*
D03*
X3079Y-16822D02*
D03*
X-11264Y2047D02*
D03*
X17526Y-17780D02*
D03*
X-21082Y-26162D02*
D03*
X-18728Y8951D02*
D03*
X16764Y13335D02*
D03*
X-9779Y11816D02*
D03*
X-13208Y11435D02*
D03*
X16891Y-14986D02*
D03*
X16002Y-14097D02*
D03*
X19685Y-6731D02*
D03*
X-6096Y5197D02*
D03*
X3302Y6223D02*
D03*
X-16764Y9271D02*
D03*
X-22098Y9652D02*
D03*
Y8636D02*
D03*
Y7366D02*
D03*
X16891Y2032D02*
D03*
X16092Y3212D02*
D03*
X17611Y3284D02*
D03*
X13843Y8382D02*
D03*
X10033Y6477D02*
D03*
X-5219Y-1205D02*
D03*
X28194Y10414D02*
D03*
X-14097Y4953D02*
D03*
X9906Y-10541D02*
D03*
Y-9652D02*
D03*
Y-8763D02*
D03*
X10922D02*
D03*
Y-9652D02*
D03*
Y-10541D02*
D03*
X-23241Y9652D02*
D03*
X-24384D02*
D03*
X-23241Y7366D02*
D03*
X-24384D02*
D03*
X24257Y4826D02*
D03*
X23241D02*
D03*
X21209D02*
D03*
X22225D02*
D03*
X-1524Y-16383D02*
D03*
X5228Y-6461D02*
D03*
X10922Y-15439D02*
D03*
X-10795Y-2159D02*
D03*
X-3190Y-11154D02*
D03*
X18589Y-508D02*
D03*
X11049Y-4699D02*
D03*
Y-1397D02*
D03*
X2286Y-10287D02*
D03*
X-3429Y-12954D02*
D03*
X-8509Y-11811D02*
D03*
X-20120Y-3737D02*
D03*
X32512Y8382D02*
D03*
Y7112D02*
D03*
Y5715D02*
D03*
Y4445D02*
D03*
X31242Y8382D02*
D03*
Y7112D02*
D03*
Y5715D02*
D03*
Y4445D02*
D03*
X29972Y8382D02*
D03*
Y7112D02*
D03*
Y5715D02*
D03*
Y4445D02*
D03*
X28702Y8382D02*
D03*
Y7112D02*
D03*
Y5715D02*
D03*
Y4445D02*
D03*
X27432Y5715D02*
D03*
Y7112D02*
D03*
Y8382D02*
D03*
X-21717Y-21717D02*
D03*
X-18161Y-21844D02*
D03*
X15494Y-3937D02*
D03*
X18161D02*
D03*
X17851Y127D02*
D03*
X-3756Y-27169D02*
D03*
X5461Y-2032D02*
D03*
X5873Y-3229D02*
D03*
X5201Y-5579D02*
D03*
X11938Y-18360D02*
D03*
X-4958Y-3172D02*
D03*
X-27813Y8255D02*
D03*
Y6985D02*
D03*
Y5588D02*
D03*
Y4318D02*
D03*
X-29083Y8255D02*
D03*
Y6985D02*
D03*
Y5588D02*
D03*
Y4318D02*
D03*
X-30353Y8255D02*
D03*
Y6985D02*
D03*
Y5588D02*
D03*
Y4318D02*
D03*
X-31623Y8255D02*
D03*
Y6985D02*
D03*
Y5588D02*
D03*
Y4318D02*
D03*
X-32893D02*
D03*
Y5588D02*
D03*
Y6985D02*
D03*
Y8255D02*
D03*
X-31242Y1397D02*
D03*
X-34290Y-1270D02*
D03*
X-4279Y-3549D02*
D03*
X-3166Y-1687D02*
D03*
X14986Y762D02*
D03*
X14097Y1524D02*
D03*
D52*
X33441Y-33372D02*
D03*
X9779Y11430D02*
D03*
X9144Y12827D02*
D03*
X12508Y8636D02*
D03*
X11833Y9547D02*
D03*
X-8255Y-5207D02*
D03*
X-12827Y5969D02*
D03*
X12446Y36449D02*
D03*
X16637Y18415D02*
D03*
X21590D02*
D03*
X-4318Y7112D02*
D03*
D53*
X1651Y12573D02*
D03*
D54*
X-4953Y17526D02*
D03*
X635Y19050D02*
D03*
Y20066D02*
D03*
D56*
X16383Y6223D02*
D03*
X17526Y6350D02*
D03*
X-17153Y6220D02*
D03*
X-18550D02*
D03*
X4318Y-1016D02*
D03*
X-2164Y-9988D02*
D03*
D57*
X4928Y4131D02*
X4945Y4114D01*
X5648D01*
X5664Y4097D01*
X-23749Y2413D02*
Y3949D01*
X23211Y8503D02*
X23622D01*
X22081D02*
X23211D01*
X21788Y7870D02*
X22081Y8163D01*
X20837Y7870D02*
X21788D01*
X22081Y8163D02*
Y8653D01*
X20612Y7645D02*
X20837Y7870D01*
X21590Y9144D02*
X22081Y8653D01*
X20612Y9144D02*
X21590D01*
X-23249Y3949D02*
X-22348Y3048D01*
X-21120D01*
X-23249Y3949D02*
X-22626Y4572D01*
X-21120D01*
X-19520D02*
X-19393Y4445D01*
X-17837D01*
X-19520Y3048D02*
X-19393Y3175D01*
X-18307D01*
X-17987Y3495D01*
X-17837D01*
X20612Y7620D02*
Y7645D01*
X6096Y-4778D02*
X6196D01*
X5201Y-5579D02*
X5220Y-5560D01*
D58*
X32838Y-33823D02*
X33185Y-33476D01*
X33337D02*
X33441Y-33372D01*
X33185Y-33476D02*
X33337D01*
X32196Y-33961D02*
X32838Y-33823D01*
X-29356Y-35444D02*
Y-34069D01*
X-35179Y-31496D02*
X-35085D01*
X-34695Y-31887D01*
X-33265D01*
X-29356Y-35444D02*
X-28669Y-36130D01*
X-28270D02*
X-28115Y-36285D01*
X-28669Y-36130D02*
X-28270D01*
X-32892Y-32385D02*
Y-32260D01*
X-33265Y-31887D02*
X-32892Y-32260D01*
X-26265Y-33679D02*
Y-33673D01*
X-25917Y-33325D01*
X-24449D01*
X-19744Y-29579D02*
X-17084D01*
X-19798Y-29525D02*
X-19744Y-29579D01*
X31914Y102D02*
X32397Y-381D01*
X30314D02*
X30797Y102D01*
X31914D01*
X31914D02*
X32035Y223D01*
X32397Y-381D02*
X32645Y-374D01*
X30314Y-381D02*
X31287Y-1354D01*
X-23749Y1016D02*
Y2413D01*
Y1016D02*
X-20120Y-2613D01*
Y-3610D02*
Y-2613D01*
X30164Y-381D02*
X30314D01*
X-33465Y508D02*
X-32576Y-381D01*
X-34925Y508D02*
X-33465D01*
Y-1270D02*
X-32576Y-381D01*
X-34290Y-1270D02*
X-33465D01*
D59*
X-27990Y-34386D02*
Y-33842D01*
X-27827Y-33679D01*
X20472Y-39183D02*
Y-38411D01*
X19729Y-37534D02*
Y-37509D01*
X19227Y-38036D02*
X19729Y-37534D01*
X19227Y-38043D02*
Y-38036D01*
X21904Y-33244D02*
X21977Y-33317D01*
X22902D01*
X21226Y-33244D02*
X21904D01*
X22902Y-33317D02*
X23018Y-33433D01*
X26784Y-38948D02*
Y-38549D01*
X27077Y-38255D01*
X25661Y-38923D02*
Y-38307D01*
X25635Y-38282D02*
X25661Y-38307D01*
X21216Y-33234D02*
X21226Y-33244D01*
X19570Y-34207D02*
X19596Y-34234D01*
X21216D01*
D60*
X18978Y-35398D02*
X19076Y-35301D01*
X16422Y-35398D02*
X18978D01*
X1016Y-12865D02*
X2358D01*
X2404Y-12911D01*
X2581Y-12734D01*
X3175D01*
X23994Y32535D02*
X24398Y32131D01*
X31369D01*
D61*
X3996Y-5770D02*
Y-4778D01*
D62*
X-32385Y-36400D02*
D03*
Y39150D02*
D03*
X31864D02*
D03*
X31623Y-30861D02*
D03*
D63*
X-22547Y13178D02*
D03*
X-32547D02*
D03*
X22055Y13208D02*
D03*
X32055D02*
D03*
D64*
X4953Y35179D02*
D03*
X2453D02*
D03*
X-47D02*
D03*
X-2547D02*
D03*
X-5047D02*
D03*
X-7547D02*
D03*
Y32179D02*
D03*
X-5047D02*
D03*
X-2547D02*
D03*
X-47D02*
D03*
X2453D02*
D03*
X4953D02*
D03*
X7453D02*
D03*
X9953D02*
D03*
X-10047Y35179D02*
D03*
X7453D02*
D03*
X9953D02*
D03*
D65*
X-10047Y32179D02*
D03*
D66*
X-31179Y23485D02*
D03*
X-8679D02*
D03*
X30717D02*
D03*
X8217D02*
D03*
M02*
