M48
;Layer_Color=9474304
;FILE_FORMAT=4:4
METRIC,LZ
;TYPE=PLATED
T01F00S00C0.3000
T02F00S00C0.4000
T03F00S00C0.5000
T04F00S00C0.9000
T05F00S00C1.2000
T06F00S00C2.0000
;TYPE=NON_PLATED
T07F00S00C3.2500
T08F00S00C3.4000
T09F00S00C4.3000
%
T01
X00256609Y-00389226
X00267836Y-00389477
X00263488Y-0036799
X00245924Y-00354811
X00227226Y-00341226
X00230176Y-0033433
X00224325Y-00326634
X00269572Y-00319123
X00241457Y-00276793
X00187153Y-0033184
X00169428
X00151636
X00160389Y-0034207
X00178181
X00195695
X00192268Y-00380425
X00204722Y-00384113
X0017526Y-001778
X0016891Y-0014986
X0016002Y-0014097
X0010922Y-0015439
X0011938Y-001836
X0010922Y-0010541
Y-0009652
Y-0008763
X0009906
Y-0009652
Y-0010541
X00089002Y-00055561
X00080703Y-00054121
X00088663Y-00032359
X00058726Y-00032292
X0004318Y-0004572
X00052012Y-00055788
X00052282Y-00064607
X0002143Y-00062124
Y-0007277
X0001076
Y-00062124
X0
Y-0007277
X-0001067
X-0002113
Y-00062124
X-0001067
Y-0005055
X-0002113
Y-0003951
X-0001067
X0
X0001076
X0002143
Y-0005055
X0001076
X0
X-00042786Y-0003549
X-00049579Y-00031719
X-00057135Y-00044856
X-00066287Y-00047595
X-00081507Y-00035702
X-00107077Y-00084671
X-00114993Y-00084804
X-00118108Y-00093688
X-00110488
X-00107942Y-00103431
X-00115991Y-00103365
X-0008509Y-0011811
X-00031897Y-00111542
X-00022506Y-00117757
X-00021637Y-00099881
X-0003429Y-0012954
X-0001524Y-0016383
X00030791Y-00168215
X00032236Y-0020018
X0002975Y-0012434
X0002286Y-0010287
X0011049Y-0004699
X0015494Y-0003937
X0018161
X0019685Y-0006731
X-0003756Y-00271694
X-00156949Y-00250804
X-00174043Y-00266576
X-0016506Y-00314432
X-00148903Y-00314094
X-00156306Y-00324662
X-00174098
X-00182852Y-00314432
X-00190253Y-0033257
X-0021228Y-00330007
X-00220206Y-00338267
X-00250593Y-00341219
X-00245385Y-00358256
X-00279904Y-00343859
X-00276698Y-00295789
X-0035179Y-0031496
X-0021082Y-0026162
X-0021717Y-0021717
X-0018161Y-0021844
X-00201204Y-00037374
X-00185502Y00062199
X-00187277Y00089514
X-0022098Y0008636
Y0009652
X-0023241
X-0024384
Y0007366
X-0023241
X-0022098
X-0027813Y0006985
Y0008255
X-0029083
Y0006985
X-0030353
Y0008255
X-0031623
Y0006985
X-0032893
Y0008255
Y0005588
X-0031623
X-0030353
X-0029083
X-0027813
Y0004318
X-0029083
X-0030353
X-0031623
X-0032893
X-0031242Y0001397
X-003429Y-000127
X-00154937Y-00007779
X-00155475Y-0002512
X-0010795Y-0002159
X-0011938Y-0000635
X-00112641Y00020472
X-00092177Y00000851
X-00073872Y-0002667
X-00052185Y-00012048
X-00031659Y-00016866
X-0002113Y-0002846
X-0001067
X0
X0001076
X0002143
X0002575Y0
X0004318Y-0001016
X0005461Y-0002032
X00080577Y-00003345
X00101793Y-0002079
X0011049Y-0001397
X00120602Y-00020509
X0014097Y0001524
X0014986Y0000762
X0016891Y0002032
X00176111Y00032842
X00160916Y00032125
X0016383Y0006223
X0017526Y000635
X0021209Y0004826
Y0003683
X0022098
X0018589Y-0000508
X0017851Y0000127
X0013843Y0008382
X0010922Y0008255
X0010033Y0006477
X00074823Y00040121
X00049279Y00041309
X0003302Y0003302
Y0006223
X000127Y0008001
X-00014068Y00074964
X-0002794Y000762
X-000381Y0011557
X-0004826
X-0002794Y00127
X-0001397Y0012954
X-0000254Y0012827
X0001651Y0012573
X0004318Y0013462
X00043114Y0014344
X0000381Y0015367
X-0001524
X-0004953Y0017526
X-00077619Y00170741
X-0010922Y0017526
X-0010541Y00138476
X-0009271Y001397
X-0009779Y00118156
X-0012573Y0012065
Y0010922
X-0013208Y00114346
X-0012827Y0007747
X-0010541Y000762
X-0014097Y0004953
X-0014732Y0004064
X-00171532Y00062199
X-0016764Y0009271
X-0006096Y0005197
X-00001976Y00006298
X0003175Y0010414
X0000635Y001905
Y0020066
X0014986Y0013589
X0016764Y0013335
X0022225Y0004826
X0023241
X0024257
X0027432Y0004445
X0028702
X0029972
X0031242
X0032512
Y0005715
X0031242
X0029972
X0028702
X0027432
Y0007112
X0028702
X0029972
X0031242
X0032512
Y0008382
X0031242
X0029972
X0028702
X0027432
X0028194Y0010414
X0032035Y0000223
X003432Y00020763
X0009398Y0039497
T02
X00334413Y-00333717
X-0008255Y-0005207
X-0012827Y0005969
X-0004318Y0007112
X00125078Y0008636
X00118328Y00095468
X0009779Y001143
X0009144Y0012827
X0016637Y0018415
X002159
X0012446Y0036449
T03
X00253153Y-00308669
X00252676Y-00292704
X00262301Y-00300685
X0028473Y-00251264
X00274665Y-00239742
X0027233Y-00225389
X00286758Y-00225509
X00303331Y-00225628
X00322886Y-00225032
X00325747Y-00197488
X00285565Y-00201185
X00274665Y-00209262
X00325271Y-00254483
X-00294567Y-00252184
X-00284501Y-00240663
X-00282167Y-0022631
X-00296594Y-00226429
X-00313168Y-00226549
X-00332722Y-00225952
X-00333824Y-00198393
X-00295402Y-00202105
X-00284501Y-00210183
X-00335107Y-00255403
X-0018669Y00127
Y0015367
X-0022479Y0024765
Y0026162
X-0024003
X-0024048Y00247446
X-00160169Y00194871
X0017145Y0023368
X0018669
X002032
Y00254
X0018669
X0017145
Y0027432
X0018669
X002032
X0021844Y0026416
X00197764Y00321919
X00209081Y00341738
X00190329Y00354808
X0025654Y0026543
X0026289Y0024257
X0025781Y0021971
X0025527Y0039624
Y0041148
X0022606
Y0039878
X-0023495Y0040513
Y0038989
X-0026416Y0039243
Y0040513
T04
X-00325471Y00131781
X-00225471
X0022055Y0013208
X0032055
T05
X-0010047Y0032179
X-0007547
X-0005047
X-0002547
X-0000047
X0002453
X0004953
X0007453
X0009953
Y0035179
X0007453
X0004953
X0002453
X-0000047
X-0002547
X-0005047
X-0007547
X-0010047
T06
X-00311795Y0023485
X-00086795
X0008217
X0030717
T07
X-0015547Y0036679
X0015453
T08
X0031623Y-0030861
T09
X-0032385Y-00364
X0031864Y003915
X-0032385
M30
