M48
;Layer_Color=9474304
;FILE_FORMAT=4:4
METRIC,LZ
;TYPE=PLATED
T01F00S00C0.3000
;TYPE=NON_PLATED
%
T01
X0005949Y-0011563
X0007949Y-0007563
X0010033Y-0007747
Y-0006858
X0010414Y-0003048
Y-0002159
X0009906Y0003048
Y0003937
X00087387Y0004791
X0007493Y0003556
X00064651Y00055146
X0007949Y0008437
X0010033Y0008001
Y000889
X0010922Y0005842
X0005207Y0000381
X00052122Y-00013629
X0004445Y-000381
X0003949Y-0007563
X-0000051
X-0004051
X-0008051
X-0010051Y-0011563
X-0006051
X-0002051
X0001949
X-0000426Y-00010127
X-0001397Y0000254
X-0002667Y0000889
X-0000127Y0001016
X-0001658Y0003137
X-000254Y0003937
X-0000889Y0004699
X-0000051Y0008437
X-0000762Y0010414
X0002794Y0010541
X0003949Y0008437
X-0004445Y0010541
X-0008051Y0008437
X-0010668Y0010922
X-0011049Y0004064
Y0003048
X-0007366Y0001486
X-0005842
X-0004445Y000254
X-0006051Y0004437
X-0005969Y-0001397
X-0004699Y-0002286
X-0006051Y-0003563
X-0010922Y-0003302
Y-0004318
M30
