G04*
G04 #@! TF.GenerationSoftware,Altium Limited,Altium Designer,26.5.0 (11)*
G04*
G04 Layer_Physical_Order=2*
G04 Layer_Color=16711680*
G04 Board_Origin=60650000|23450000*
%FSLAX42Y42*%
%MOMM*%
G71*
G04*
G04 #@! TF.SameCoordinates,357383C9-4DCA-45AE-B43C-52B22ACF1663*
G04*
G04*
G04 #@! TF.FilePolarity,Positive*
G04*
G01*
G75*
%ADD16O,4.00X2.00*%
%ADD18O,2.00X4.00*%
%ADD25C,0.60*%
%ADD26C,0.40*%
%ADD27C,0.50*%
%ADD28C,0.30*%
%ADD29C,0.25*%
%ADD30C,0.60*%
G36*
X1038Y1272D02*
X1074Y1257D01*
X1107Y1235D01*
X1135Y1207D01*
X1156Y1174D01*
X1172Y1138D01*
X1179Y1099D01*
Y972D01*
X1028D01*
X994Y967D01*
X962Y954D01*
X934Y933D01*
X913Y905D01*
X899Y873D01*
X895Y838D01*
X899Y804D01*
X913Y771D01*
X934Y744D01*
X962Y722D01*
X994Y709D01*
X1028Y705D01*
X1179D01*
Y489D01*
X1028D01*
X994Y485D01*
X962Y471D01*
X934Y450D01*
X913Y422D01*
X899Y390D01*
X895Y356D01*
X899Y321D01*
X913Y289D01*
X934Y261D01*
X962Y240D01*
X994Y226D01*
X1028Y222D01*
X1179D01*
Y-120D01*
X1028D01*
X994Y-125D01*
X962Y-138D01*
X934Y-159D01*
X913Y-187D01*
X899Y-219D01*
X895Y-254D01*
X899Y-289D01*
X913Y-321D01*
X934Y-349D01*
X962Y-370D01*
X994Y-383D01*
X1028Y-388D01*
X1179D01*
Y-590D01*
X1028D01*
X994Y-595D01*
X962Y-608D01*
X934Y-629D01*
X913Y-657D01*
X899Y-689D01*
X895Y-724D01*
X899Y-759D01*
X913Y-791D01*
X934Y-818D01*
X962Y-840D01*
X994Y-853D01*
X1028Y-858D01*
X1179D01*
Y-1040D01*
X1172Y-1079D01*
X1156Y-1115D01*
X1135Y-1148D01*
X1107Y-1176D01*
X1074Y-1198D01*
X1038Y-1213D01*
X999Y-1220D01*
X-1140D01*
X-1179Y-1213D01*
X-1216Y-1198D01*
X-1248Y-1176D01*
X-1276Y-1148D01*
X-1298Y-1115D01*
X-1313Y-1079D01*
X-1321Y-1040D01*
Y-1020D01*
Y-526D01*
X-1308Y-515D01*
X-1108D01*
X-1074Y-510D01*
X-1042Y-497D01*
X-1014Y-476D01*
X-993Y-448D01*
X-992Y-447D01*
X-963D01*
X-943Y-443D01*
X-925Y-432D01*
X-877Y-383D01*
X-865Y-366D01*
X-861Y-345D01*
Y-263D01*
X-740Y-142D01*
X-675D01*
X-655Y-163D01*
X-650Y-175D01*
X-632Y-193D01*
X-609Y-202D01*
X-584D01*
X-561Y-193D01*
X-544Y-175D01*
X-534Y-152D01*
Y-127D01*
X-544Y-104D01*
X-561Y-87D01*
X-584Y-77D01*
X-589D01*
X-615Y-51D01*
X-620Y-48D01*
X-621Y-44D01*
X-619Y-18D01*
X-610Y-12D01*
X-546Y51D01*
X-535Y68D01*
X-531Y89D01*
Y94D01*
X-529Y96D01*
X-503Y84D01*
Y-175D01*
X-505Y-176D01*
X-523Y-193D01*
X-532Y-216D01*
Y-241D01*
X-523Y-264D01*
X-505Y-282D01*
X-482Y-291D01*
X-457D01*
X-434Y-282D01*
X-417Y-264D01*
X-413Y-255D01*
X-403Y-245D01*
X-403Y-245D01*
X-390Y-226D01*
X-386Y-203D01*
Y232D01*
X-382Y242D01*
Y266D01*
X-391Y289D01*
X-409Y307D01*
X-422Y312D01*
X-430Y340D01*
X-412Y358D01*
X-398Y378D01*
X-393Y403D01*
Y959D01*
X-380Y965D01*
X-352Y986D01*
X-331Y1014D01*
X-317Y1046D01*
X-313Y1081D01*
Y1280D01*
X157D01*
Y1081D01*
X161Y1046D01*
X174Y1014D01*
X196Y986D01*
X223Y965D01*
X232Y962D01*
Y810D01*
X-54Y524D01*
X-55Y523D01*
X-76Y532D01*
X-101D01*
X-124Y523D01*
X-129Y518D01*
X-203D01*
X-203Y518D01*
X-222Y515D01*
X-237Y504D01*
X-237Y504D01*
X-288Y453D01*
X-299Y438D01*
X-299Y437D01*
X-307Y429D01*
X-317Y406D01*
Y381D01*
X-307Y358D01*
X-302Y354D01*
Y142D01*
X-320Y124D01*
X-329Y101D01*
Y76D01*
X-320Y53D01*
X-302Y36D01*
X-279Y26D01*
X-254D01*
X-231Y36D01*
X-214Y53D01*
X-204Y76D01*
Y101D01*
X-206Y105D01*
Y354D01*
X-201Y358D01*
X-191Y381D01*
Y406D01*
X-171Y421D01*
X-129D01*
X-124Y417D01*
X-101Y407D01*
X-76D01*
X-71Y404D01*
Y123D01*
X-75Y114D01*
Y89D01*
X-66Y66D01*
X-48Y49D01*
X-25Y39D01*
X-0D01*
X23Y49D01*
X40Y66D01*
X50Y89D01*
Y114D01*
X46Y123D01*
Y458D01*
X332Y744D01*
X332Y744D01*
X344Y763D01*
X349Y785D01*
X349Y785D01*
Y962D01*
X357Y965D01*
X385Y986D01*
X406Y1014D01*
X419Y1046D01*
X424Y1081D01*
Y1280D01*
X999D01*
X1038Y1272D01*
D02*
G37*
G36*
X-580Y1081D02*
X-576Y1046D01*
X-562Y1014D01*
X-541Y986D01*
X-521Y971D01*
Y429D01*
X-734Y216D01*
X-757Y211D01*
X-771Y202D01*
X-772Y202D01*
X-773Y201D01*
X-778Y197D01*
X-782Y194D01*
X-785Y188D01*
X-790Y184D01*
X-792Y178D01*
X-796Y173D01*
X-797Y167D01*
X-799Y161D01*
Y155D01*
X-800Y149D01*
X-799Y142D01*
Y136D01*
X-797Y130D01*
X-796Y124D01*
X-792Y119D01*
X-790Y113D01*
X-785Y109D01*
X-782Y104D01*
X-783Y99D01*
X-790Y81D01*
X-791Y79D01*
X-816D01*
X-903Y166D01*
Y204D01*
X-907Y224D01*
X-919Y242D01*
X-985Y308D01*
X-979Y321D01*
X-975Y356D01*
X-979Y390D01*
X-993Y422D01*
X-1014Y450D01*
X-1042Y471D01*
X-1074Y485D01*
X-1108Y489D01*
X-1308D01*
X-1321Y500D01*
Y1080D01*
Y1099D01*
X-1313Y1138D01*
X-1298Y1174D01*
X-1276Y1207D01*
X-1248Y1235D01*
X-1216Y1257D01*
X-1179Y1272D01*
X-1140Y1280D01*
X-580D01*
Y1081D01*
D02*
G37*
G36*
X-1010Y182D02*
Y144D01*
X-1006Y123D01*
X-994Y106D01*
X-876Y-12D01*
X-859Y-24D01*
X-838Y-28D01*
X-811D01*
X-804Y-43D01*
X-802Y-54D01*
X-952Y-203D01*
X-964Y-221D01*
X-968Y-241D01*
Y-306D01*
X-991Y-313D01*
X-993Y-313D01*
X-994Y-313D01*
X-1014Y-286D01*
X-1042Y-265D01*
X-1074Y-252D01*
X-1108Y-247D01*
X-1308D01*
X-1321Y-236D01*
Y211D01*
X-1308Y222D01*
X-1108D01*
X-1074Y226D01*
X-1061Y232D01*
X-1010Y182D01*
D02*
G37*
D16*
X1128Y356D02*
D03*
Y-724D02*
D03*
Y-254D02*
D03*
Y838D02*
D03*
X-1208Y356D02*
D03*
Y-381D02*
D03*
D18*
X290Y1181D02*
D03*
X-78D02*
D03*
X-446D02*
D03*
D25*
X445Y-381D02*
D03*
X-1067Y1092D02*
D03*
X874Y479D02*
D03*
X1092Y584D02*
D03*
X749Y356D02*
D03*
X647Y551D02*
D03*
X521Y-136D02*
D03*
X521Y38D02*
D03*
X-43Y-101D02*
D03*
X-140Y25D02*
D03*
X795Y844D02*
D03*
Y-756D02*
D03*
X595Y-1156D02*
D03*
X395Y844D02*
D03*
Y-756D02*
D03*
X195Y-1156D02*
D03*
X-5Y844D02*
D03*
Y-756D02*
D03*
X-205Y-1156D02*
D03*
X-605Y444D02*
D03*
Y-356D02*
D03*
X-405Y-756D02*
D03*
X-605Y-1156D02*
D03*
X-805Y844D02*
D03*
Y-756D02*
D03*
X-1005Y-1156D02*
D03*
X1041Y-216D02*
D03*
Y-305D02*
D03*
X-254Y394D02*
D03*
X-470Y-229D02*
D03*
X-445Y254D02*
D03*
X-267Y89D02*
D03*
X-89Y470D02*
D03*
X-166Y314D02*
D03*
X991Y394D02*
D03*
Y305D02*
D03*
X1003Y889D02*
D03*
Y800D02*
D03*
Y-686D02*
D03*
Y-775D02*
D03*
X-1092Y-330D02*
D03*
Y-432D02*
D03*
X-1105Y305D02*
D03*
Y406D02*
D03*
X-737Y149D02*
D03*
X-584D02*
D03*
X-597Y-140D02*
D03*
X-13Y102D02*
D03*
X-445Y1054D02*
D03*
X-76Y1041D02*
D03*
X279Y1054D02*
D03*
D26*
X-584Y89D02*
Y149D01*
X-963Y-394D02*
X-914Y-345D01*
X-762Y-89D02*
X-653D01*
X-1208Y-381D02*
X-1196Y-394D01*
X-914Y-241D02*
X-762Y-89D01*
X-914Y-345D02*
Y-241D01*
X-1196Y-394D02*
X-963D01*
X-838Y25D02*
X-648D01*
X-584Y89D01*
X-653Y-89D02*
X-602Y-140D01*
X-597D01*
X-1108Y356D02*
X-957Y204D01*
Y144D02*
Y204D01*
Y144D02*
X-838Y25D01*
D27*
X290Y785D02*
Y1181D01*
X-470Y-229D02*
X-445Y-203D01*
Y254D01*
X-13Y483D02*
X290Y785D01*
X-13Y102D02*
Y483D01*
D28*
X-254Y394D02*
Y419D01*
X-267Y89D02*
X-254Y102D01*
Y394D01*
Y419D02*
X-203Y470D01*
X-89D01*
D29*
X-1257Y356D02*
X-1208D01*
D30*
X-733Y152D02*
X-707D01*
X-737Y149D02*
X-733Y152D01*
X-707D02*
X-457Y403D01*
Y991D01*
M02*
