G04*
G04 #@! TF.GenerationSoftware,Altium Limited,Altium Designer,26.5.0 (11)*
G04*
G04 Layer_Color=8388736*
G04 Board_Origin=60650000|23450000*
%FSLAX42Y42*%
%MOMM*%
G71*
G04*
G04 #@! TF.SameCoordinates,357383C9-4DCA-45AE-B43C-52B22ACF1663*
G04*
G04*
G04 #@! TF.FilePolarity,Negative*
G04*
G01*
G75*
%ADD16O,4.00X2.00*%
%ADD18O,2.00X4.00*%
%ADD19R,0.70X0.80*%
%ADD20R,0.80X0.70*%
%ADD21R,1.05X1.10*%
G04:AMPARAMS|DCode=22|XSize=1.84mm|YSize=0.61mm|CornerRadius=0.15mm|HoleSize=0mm|Usage=FLASHONLY|Rotation=0.000|XOffset=0mm|YOffset=0mm|HoleType=Round|Shape=RoundedRectangle|*
%AMROUNDEDRECTD22*
21,1,1.84,0.31,0,0,0.0*
21,1,1.54,0.61,0,0,0.0*
1,1,0.31,0.77,-0.15*
1,1,0.31,-0.77,-0.15*
1,1,0.31,-0.77,0.15*
1,1,0.31,0.77,0.15*
%
%ADD22ROUNDEDRECTD22*%
%ADD23R,1.10X1.05*%
%ADD24C,2.00*%
%ADD25C,0.60*%
D16*
X1128Y356D02*
D03*
Y-724D02*
D03*
Y-254D02*
D03*
Y838D02*
D03*
X-1208Y-381D02*
D03*
Y356D02*
D03*
D18*
X290Y1181D02*
D03*
X-78D02*
D03*
X-446D02*
D03*
D19*
X292Y317D02*
D03*
X190D02*
D03*
X-317Y-521D02*
D03*
X-419D02*
D03*
X89Y533D02*
D03*
X190D02*
D03*
X13Y343D02*
D03*
X-89D02*
D03*
X-356Y-317D02*
D03*
X-457D02*
D03*
X-254Y317D02*
D03*
X-356D02*
D03*
X89Y432D02*
D03*
X190D02*
D03*
X317Y34D02*
D03*
X419D02*
D03*
X-203Y-343D02*
D03*
X-102D02*
D03*
X317Y-68D02*
D03*
X419D02*
D03*
X470Y-262D02*
D03*
X368D02*
D03*
X-317Y-419D02*
D03*
X-419D02*
D03*
X279Y-356D02*
D03*
X178D02*
D03*
X483Y178D02*
D03*
X381D02*
D03*
X-737Y-76D02*
D03*
X-635D02*
D03*
X-737Y63D02*
D03*
X-635D02*
D03*
D20*
X-508Y89D02*
D03*
Y190D02*
D03*
D21*
X-448Y-635D02*
D03*
X-288D02*
D03*
X220Y648D02*
D03*
X60D02*
D03*
D22*
X162Y210D02*
D03*
Y146D02*
D03*
Y83D02*
D03*
Y19D02*
D03*
Y-44D02*
D03*
Y-108D02*
D03*
Y-171D02*
D03*
Y-235D02*
D03*
X-365D02*
D03*
Y-171D02*
D03*
Y-108D02*
D03*
Y-44D02*
D03*
Y19D02*
D03*
Y83D02*
D03*
Y146D02*
D03*
Y210D02*
D03*
D23*
X724Y9D02*
D03*
Y-136D02*
D03*
Y169D02*
D03*
X584Y9D02*
D03*
Y169D02*
D03*
X724Y-296D02*
D03*
X584Y-136D02*
D03*
Y-296D02*
D03*
X406Y524D02*
D03*
Y364D02*
D03*
X546Y524D02*
D03*
Y364D02*
D03*
Y-453D02*
D03*
Y-613D02*
D03*
X406Y-454D02*
D03*
Y-614D02*
D03*
D24*
X786Y-913D02*
D03*
X-1143Y902D02*
D03*
D25*
X445Y-381D02*
D03*
X-1067Y1092D02*
D03*
X874Y479D02*
D03*
X1092Y584D02*
D03*
X749Y356D02*
D03*
X647Y551D02*
D03*
X521Y-136D02*
D03*
X521Y38D02*
D03*
X-43Y-101D02*
D03*
X-140Y25D02*
D03*
X795Y844D02*
D03*
Y-756D02*
D03*
X595Y-1156D02*
D03*
X395Y844D02*
D03*
Y-756D02*
D03*
X195Y-1156D02*
D03*
X-5Y844D02*
D03*
Y-756D02*
D03*
X-205Y-1156D02*
D03*
X-605Y444D02*
D03*
Y-356D02*
D03*
X-405Y-756D02*
D03*
X-605Y-1156D02*
D03*
X-805Y844D02*
D03*
Y-756D02*
D03*
X-1005Y-1156D02*
D03*
X1041Y-216D02*
D03*
Y-305D02*
D03*
X-254Y394D02*
D03*
X-470Y-229D02*
D03*
X-445Y254D02*
D03*
X-267Y89D02*
D03*
X-89Y470D02*
D03*
X-166Y314D02*
D03*
X991Y394D02*
D03*
Y305D02*
D03*
X1003Y889D02*
D03*
Y800D02*
D03*
Y-686D02*
D03*
Y-775D02*
D03*
X-1092Y-330D02*
D03*
Y-432D02*
D03*
X-1105Y305D02*
D03*
Y406D02*
D03*
X-737Y149D02*
D03*
X-584D02*
D03*
X-597Y-140D02*
D03*
X-13Y102D02*
D03*
X-445Y1054D02*
D03*
X-76Y1041D02*
D03*
X279Y1054D02*
D03*
M02*
