G04*
G04 #@! TF.GenerationSoftware,Altium Limited,Altium Designer,26.5.0 (11)*
G04*
G04 Layer_Color=65535*
G04 Board_Origin=60650000|23450000*
%FSLAX42Y42*%
%MOMM*%
G71*
G04*
G04 #@! TF.SameCoordinates,357383C9-4DCA-45AE-B43C-52B22ACF1663*
G04*
G04*
G04 #@! TF.FilePolarity,Positive*
G04*
G01*
G75*
%ADD10C,0.20*%
%ADD11C,0.13*%
G36*
X-1187Y-604D02*
X-1188Y-606D01*
X-1188Y-608D01*
X-1189Y-612D01*
X-1190Y-615D01*
X-1192Y-618D01*
X-1192Y-620D01*
X-1193Y-621D01*
X-1193Y-622D01*
X-1194Y-622D01*
X-1195Y-623D01*
X-1195Y-623D01*
X-1195Y-624D01*
X-1195Y-624D01*
X-1197Y-625D01*
X-1198Y-626D01*
X-1200Y-628D01*
X-1201Y-629D01*
X-1205Y-630D01*
X-1208Y-631D01*
X-1210Y-632D01*
X-1211Y-632D01*
X-1212Y-632D01*
X-1213D01*
X-1214Y-632D01*
X-1214D01*
X-1214D01*
X-1217Y-632D01*
X-1220Y-631D01*
X-1222Y-631D01*
X-1224Y-630D01*
X-1226Y-629D01*
X-1227Y-629D01*
X-1228Y-628D01*
X-1228Y-628D01*
X-1229D01*
X-1231Y-626D01*
X-1233Y-624D01*
X-1234Y-623D01*
X-1235Y-621D01*
X-1236Y-619D01*
X-1237Y-618D01*
X-1237Y-617D01*
X-1237Y-617D01*
Y-617D01*
X-1270Y-640D01*
Y-620D01*
X-1231Y-594D01*
X-1270D01*
Y-577D01*
X-1187Y-577D01*
Y-604D01*
D02*
G37*
G36*
X-610Y1247D02*
X-608Y1247D01*
X-604Y1246D01*
X-601Y1244D01*
X-598Y1243D01*
X-597Y1242D01*
X-596Y1241D01*
X-595Y1241D01*
X-594Y1240D01*
X-594Y1240D01*
X-593Y1239D01*
X-593Y1239D01*
X-593Y1239D01*
X-592Y1237D01*
X-591Y1236D01*
X-590Y1234D01*
X-589Y1232D01*
X-587Y1229D01*
X-587Y1226D01*
X-586Y1223D01*
X-586Y1222D01*
X-586Y1221D01*
Y1220D01*
X-585Y1219D01*
Y1219D01*
X-586Y1215D01*
X-586Y1211D01*
X-587Y1208D01*
X-588Y1206D01*
X-590Y1203D01*
X-590Y1202D01*
X-591Y1202D01*
X-591Y1201D01*
X-591Y1201D01*
X-591Y1200D01*
Y1200D01*
X-594Y1198D01*
X-596Y1195D01*
X-599Y1194D01*
X-601Y1192D01*
X-603Y1191D01*
X-605Y1191D01*
X-605Y1190D01*
X-606Y1190D01*
X-606Y1190D01*
X-606D01*
X-610Y1207D01*
X-609Y1207D01*
X-608Y1208D01*
X-607Y1208D01*
X-606Y1209D01*
X-605Y1210D01*
X-605Y1210D01*
X-604Y1211D01*
X-604Y1211D01*
X-604Y1212D01*
X-603Y1213D01*
X-603Y1215D01*
X-602Y1216D01*
X-602Y1217D01*
X-602Y1218D01*
Y1219D01*
X-602Y1220D01*
X-602Y1222D01*
X-603Y1223D01*
X-604Y1225D01*
X-604Y1226D01*
X-605Y1226D01*
X-605Y1227D01*
X-605Y1227D01*
X-606Y1228D01*
X-608Y1229D01*
X-609Y1229D01*
X-610Y1230D01*
X-611Y1230D01*
X-612Y1230D01*
X-613D01*
X-613D01*
X-615Y1230D01*
X-618Y1229D01*
X-620Y1228D01*
X-621Y1227D01*
X-622Y1226D01*
X-623Y1225D01*
X-624Y1224D01*
X-624Y1224D01*
Y1224D01*
X-626Y1221D01*
X-627Y1219D01*
X-627Y1216D01*
X-628Y1214D01*
X-628Y1211D01*
X-628Y1210D01*
Y1210D01*
X-628Y1209D01*
Y1208D01*
X-638Y1211D01*
X-638Y1213D01*
X-638Y1215D01*
X-639Y1217D01*
X-639Y1219D01*
X-640Y1220D01*
X-641Y1221D01*
X-641Y1221D01*
X-641Y1221D01*
X-642Y1223D01*
X-643Y1224D01*
X-645Y1225D01*
X-646Y1225D01*
X-647Y1226D01*
X-648Y1226D01*
X-648Y1226D01*
X-649D01*
X-650Y1226D01*
X-651Y1225D01*
X-652Y1225D01*
X-653Y1225D01*
X-653Y1224D01*
X-654Y1224D01*
X-654Y1224D01*
X-654Y1224D01*
X-655Y1223D01*
X-655Y1222D01*
X-656Y1221D01*
X-656Y1220D01*
X-656Y1219D01*
X-656Y1219D01*
Y1218D01*
X-656Y1216D01*
X-656Y1215D01*
X-655Y1214D01*
X-655Y1214D01*
X-655Y1214D01*
X-655Y1214D01*
X-653Y1212D01*
X-652Y1212D01*
X-651Y1211D01*
X-651Y1211D01*
X-651Y1211D01*
X-650D01*
X-654Y1194D01*
X-657Y1195D01*
X-659Y1196D01*
X-662Y1197D01*
X-664Y1199D01*
X-665Y1200D01*
X-666Y1201D01*
X-667Y1202D01*
X-667Y1202D01*
X-669Y1205D01*
X-670Y1208D01*
X-671Y1210D01*
X-672Y1213D01*
X-673Y1215D01*
X-673Y1216D01*
Y1217D01*
X-673Y1217D01*
Y1218D01*
X-673Y1220D01*
X-673Y1222D01*
X-672Y1225D01*
X-671Y1228D01*
X-670Y1231D01*
X-668Y1233D01*
X-667Y1234D01*
X-667Y1235D01*
X-667Y1235D01*
X-667Y1235D01*
X-666Y1235D01*
X-665Y1237D01*
X-664Y1238D01*
X-661Y1239D01*
X-658Y1241D01*
X-656Y1242D01*
X-654Y1242D01*
X-653Y1242D01*
X-652Y1243D01*
X-651Y1243D01*
X-650D01*
X-650D01*
X-650D01*
X-648Y1243D01*
X-646Y1242D01*
X-644Y1242D01*
X-643Y1241D01*
X-642Y1241D01*
X-641Y1241D01*
X-640Y1240D01*
X-640Y1240D01*
X-638Y1239D01*
X-637Y1238D01*
X-636Y1237D01*
X-635Y1236D01*
X-634Y1235D01*
X-634Y1234D01*
X-634Y1234D01*
X-634Y1234D01*
X-633Y1236D01*
X-631Y1237D01*
X-630Y1239D01*
X-629Y1240D01*
X-627Y1241D01*
X-626Y1242D01*
X-626Y1243D01*
X-626Y1243D01*
X-623Y1244D01*
X-621Y1245D01*
X-619Y1246D01*
X-617Y1246D01*
X-615Y1247D01*
X-613Y1247D01*
X-613Y1247D01*
X-612D01*
X-612D01*
X-612D01*
X-610Y1247D01*
D02*
G37*
G36*
X-584Y1146D02*
Y1145D01*
X-670Y1106D01*
Y1124D01*
X-621Y1146D01*
X-670Y1167D01*
Y1185D01*
X-584Y1146D01*
D02*
G37*
G36*
X-610Y1101D02*
X-608Y1101D01*
X-604Y1100D01*
X-601Y1099D01*
X-598Y1097D01*
X-597Y1097D01*
X-596Y1096D01*
X-595Y1095D01*
X-594Y1095D01*
X-594Y1094D01*
X-593Y1094D01*
X-593Y1093D01*
X-593Y1093D01*
X-592Y1092D01*
X-591Y1090D01*
X-590Y1089D01*
X-589Y1087D01*
X-587Y1084D01*
X-587Y1080D01*
X-586Y1078D01*
X-586Y1076D01*
X-586Y1075D01*
Y1074D01*
X-585Y1074D01*
Y1073D01*
X-586Y1070D01*
X-586Y1066D01*
X-587Y1063D01*
X-588Y1060D01*
X-590Y1058D01*
X-590Y1057D01*
X-591Y1056D01*
X-591Y1056D01*
X-591Y1055D01*
X-591Y1055D01*
Y1055D01*
X-594Y1052D01*
X-596Y1050D01*
X-599Y1048D01*
X-601Y1047D01*
X-603Y1046D01*
X-605Y1045D01*
X-605Y1045D01*
X-606Y1045D01*
X-606Y1045D01*
X-606D01*
X-610Y1061D01*
X-609Y1062D01*
X-608Y1062D01*
X-607Y1063D01*
X-606Y1064D01*
X-605Y1064D01*
X-605Y1065D01*
X-604Y1065D01*
X-604Y1065D01*
X-604Y1067D01*
X-603Y1068D01*
X-603Y1069D01*
X-602Y1070D01*
X-602Y1072D01*
X-602Y1072D01*
Y1073D01*
X-602Y1075D01*
X-602Y1077D01*
X-603Y1078D01*
X-604Y1079D01*
X-604Y1080D01*
X-605Y1081D01*
X-605Y1081D01*
X-605Y1081D01*
X-606Y1082D01*
X-608Y1083D01*
X-609Y1084D01*
X-610Y1084D01*
X-611Y1084D01*
X-612Y1085D01*
X-613D01*
X-613D01*
X-615Y1084D01*
X-618Y1083D01*
X-620Y1082D01*
X-621Y1081D01*
X-622Y1080D01*
X-623Y1079D01*
X-624Y1078D01*
X-624Y1078D01*
Y1078D01*
X-626Y1076D01*
X-627Y1073D01*
X-627Y1071D01*
X-628Y1068D01*
X-628Y1066D01*
X-628Y1065D01*
Y1064D01*
X-628Y1063D01*
Y1063D01*
X-638Y1065D01*
X-638Y1068D01*
X-638Y1070D01*
X-639Y1072D01*
X-639Y1073D01*
X-640Y1074D01*
X-641Y1075D01*
X-641Y1076D01*
X-641Y1076D01*
X-642Y1077D01*
X-643Y1079D01*
X-645Y1079D01*
X-646Y1080D01*
X-647Y1080D01*
X-648Y1080D01*
X-648Y1080D01*
X-649D01*
X-650Y1080D01*
X-651Y1080D01*
X-652Y1080D01*
X-653Y1079D01*
X-653Y1079D01*
X-654Y1078D01*
X-654Y1078D01*
X-654Y1078D01*
X-655Y1077D01*
X-655Y1076D01*
X-656Y1075D01*
X-656Y1075D01*
X-656Y1074D01*
X-656Y1073D01*
Y1073D01*
X-656Y1071D01*
X-656Y1069D01*
X-655Y1069D01*
X-655Y1069D01*
X-655Y1068D01*
X-655Y1068D01*
X-653Y1067D01*
X-652Y1066D01*
X-651Y1066D01*
X-651Y1066D01*
X-651Y1066D01*
X-650D01*
X-654Y1048D01*
X-657Y1049D01*
X-659Y1051D01*
X-662Y1052D01*
X-664Y1053D01*
X-665Y1055D01*
X-666Y1056D01*
X-667Y1057D01*
X-667Y1057D01*
X-669Y1059D01*
X-670Y1062D01*
X-671Y1065D01*
X-672Y1067D01*
X-673Y1070D01*
X-673Y1071D01*
Y1071D01*
X-673Y1072D01*
Y1073D01*
X-673Y1075D01*
X-673Y1077D01*
X-672Y1080D01*
X-671Y1083D01*
X-670Y1085D01*
X-668Y1087D01*
X-667Y1089D01*
X-667Y1089D01*
X-667Y1090D01*
X-667Y1090D01*
X-666Y1090D01*
X-665Y1091D01*
X-664Y1092D01*
X-661Y1094D01*
X-658Y1095D01*
X-656Y1096D01*
X-654Y1097D01*
X-653Y1097D01*
X-652Y1097D01*
X-651Y1097D01*
X-650D01*
X-650D01*
X-650D01*
X-648Y1097D01*
X-646Y1097D01*
X-644Y1096D01*
X-643Y1096D01*
X-642Y1095D01*
X-641Y1095D01*
X-640Y1095D01*
X-640Y1095D01*
X-638Y1094D01*
X-637Y1093D01*
X-636Y1092D01*
X-635Y1091D01*
X-634Y1090D01*
X-634Y1089D01*
X-634Y1088D01*
X-634Y1088D01*
X-633Y1090D01*
X-631Y1092D01*
X-630Y1093D01*
X-629Y1095D01*
X-627Y1096D01*
X-626Y1097D01*
X-626Y1097D01*
X-626Y1097D01*
X-623Y1099D01*
X-621Y1100D01*
X-619Y1101D01*
X-617Y1101D01*
X-615Y1101D01*
X-613Y1101D01*
X-613Y1102D01*
X-612D01*
X-612D01*
X-612D01*
X-610Y1101D01*
D02*
G37*
G36*
X889Y561D02*
X751D01*
Y597D01*
X855D01*
Y650D01*
X889D01*
Y561D01*
D02*
G37*
G36*
X1130Y181D02*
X1068Y124D01*
X1129D01*
Y115D01*
X1045D01*
Y116D01*
X1108Y172D01*
X1047D01*
Y181D01*
X1130D01*
Y181D01*
D02*
G37*
G36*
X1129Y88D02*
X1047D01*
Y98D01*
X1129D01*
Y88D01*
D02*
G37*
G36*
Y36D02*
X1097Y13D01*
Y-2D01*
X1129D01*
Y-11D01*
X1047Y-12D01*
Y13D01*
X1047Y15D01*
X1047Y17D01*
X1048Y21D01*
X1049Y24D01*
X1050Y26D01*
X1051Y27D01*
X1051Y28D01*
X1052Y29D01*
X1053Y30D01*
X1053Y31D01*
X1054Y32D01*
X1054Y32D01*
X1054Y32D01*
X1054Y32D01*
X1056Y34D01*
X1057Y35D01*
X1059Y36D01*
X1060Y37D01*
X1064Y39D01*
X1067Y40D01*
X1069Y40D01*
X1070Y40D01*
X1071Y41D01*
X1072D01*
X1072Y41D01*
X1073D01*
X1073D01*
X1076Y40D01*
X1079Y40D01*
X1081Y39D01*
X1083Y38D01*
X1085Y37D01*
X1086Y36D01*
X1087Y36D01*
X1087Y36D01*
X1087D01*
X1090Y34D01*
X1091Y32D01*
X1093Y30D01*
X1094Y28D01*
X1095Y26D01*
X1095Y25D01*
X1096Y24D01*
X1096Y24D01*
X1096Y23D01*
Y23D01*
X1129Y48D01*
Y36D01*
D02*
G37*
G36*
X1130Y-59D02*
Y-60D01*
X1047Y-98D01*
Y-88D01*
X1111Y-60D01*
X1047Y-31D01*
Y-21D01*
X1130Y-59D01*
D02*
G37*
G36*
X1045Y-565D02*
X1068D01*
Y-573D01*
X1045D01*
Y-593D01*
X1036D01*
Y-573D01*
X1012D01*
Y-565D01*
X1036D01*
Y-545D01*
X1045D01*
Y-565D01*
D02*
G37*
G36*
X87Y1252D02*
X91Y1251D01*
X94Y1251D01*
X97Y1250D01*
X100Y1249D01*
X102Y1248D01*
X104Y1247D01*
X106Y1246D01*
X108Y1245D01*
X110Y1244D01*
X111Y1243D01*
X112Y1242D01*
X113Y1241D01*
X114Y1241D01*
X114Y1240D01*
X114Y1240D01*
X116Y1238D01*
X118Y1236D01*
X119Y1233D01*
X121Y1230D01*
X122Y1228D01*
X123Y1225D01*
X123Y1222D01*
X124Y1220D01*
X124Y1218D01*
X125Y1215D01*
X125Y1213D01*
X125Y1212D01*
Y1210D01*
X125Y1209D01*
Y1184D01*
X42D01*
X41Y1208D01*
X42Y1212D01*
X42Y1216D01*
X43Y1219D01*
X43Y1222D01*
X44Y1225D01*
X45Y1227D01*
X46Y1230D01*
X47Y1232D01*
X48Y1234D01*
X49Y1236D01*
X50Y1237D01*
X51Y1238D01*
X52Y1239D01*
X52Y1240D01*
X53Y1240D01*
X53Y1240D01*
X55Y1242D01*
X57Y1244D01*
X60Y1246D01*
X62Y1247D01*
X65Y1248D01*
X67Y1249D01*
X70Y1250D01*
X72Y1250D01*
X75Y1251D01*
X77Y1251D01*
X79Y1252D01*
X80Y1252D01*
X82Y1252D01*
X83Y1252D01*
X83D01*
X84D01*
X87Y1252D01*
D02*
G37*
G36*
X127Y1168D02*
X79Y1119D01*
X125D01*
Y1102D01*
X40D01*
Y1103D01*
X88Y1152D01*
X41D01*
Y1169D01*
X127D01*
Y1168D01*
D02*
G37*
G36*
X90Y1090D02*
X95Y1090D01*
X98Y1089D01*
X100Y1088D01*
X102Y1088D01*
X103Y1087D01*
X104Y1087D01*
X105Y1086D01*
X106Y1086D01*
X107Y1086D01*
X108Y1085D01*
X108Y1085D01*
X108D01*
X111Y1083D01*
X114Y1081D01*
X117Y1078D01*
X119Y1076D01*
X120Y1074D01*
X121Y1072D01*
X122Y1072D01*
X122Y1071D01*
X122Y1071D01*
Y1071D01*
X124Y1067D01*
X125Y1064D01*
X126Y1060D01*
X126Y1057D01*
X127Y1056D01*
X127Y1055D01*
X127Y1053D01*
Y1052D01*
X127Y1052D01*
Y1051D01*
X127Y1046D01*
X126Y1042D01*
X125Y1038D01*
X125Y1036D01*
X124Y1035D01*
X123Y1033D01*
X123Y1032D01*
X122Y1031D01*
X122Y1030D01*
X122Y1029D01*
X122Y1029D01*
X121Y1028D01*
Y1028D01*
X119Y1025D01*
X116Y1021D01*
X114Y1019D01*
X111Y1016D01*
X109Y1015D01*
X108Y1014D01*
X107Y1013D01*
X107Y1013D01*
X106Y1013D01*
X106Y1012D01*
X106Y1012D01*
X102Y1010D01*
X98Y1009D01*
X94Y1008D01*
X91Y1007D01*
X89Y1007D01*
X88Y1007D01*
X87Y1007D01*
X86D01*
X85Y1006D01*
X84D01*
X84D01*
X84D01*
X79Y1007D01*
X75Y1007D01*
X71Y1008D01*
X70Y1009D01*
X68Y1009D01*
X67Y1010D01*
X65Y1011D01*
X64Y1011D01*
X63Y1012D01*
X63Y1012D01*
X62Y1012D01*
X62Y1012D01*
X62D01*
X58Y1015D01*
X55Y1017D01*
X52Y1020D01*
X50Y1022D01*
X48Y1025D01*
X48Y1026D01*
X47Y1026D01*
X47Y1027D01*
X46Y1028D01*
X46Y1028D01*
Y1028D01*
X44Y1032D01*
X43Y1036D01*
X41Y1039D01*
X41Y1043D01*
X40Y1044D01*
X40Y1046D01*
X40Y1047D01*
Y1048D01*
X40Y1049D01*
Y1050D01*
X40Y1053D01*
X40Y1056D01*
X41Y1059D01*
X42Y1061D01*
X42Y1063D01*
X43Y1064D01*
X43Y1065D01*
X43Y1066D01*
X43Y1066D01*
X43Y1066D01*
Y1066D01*
X45Y1069D01*
X46Y1072D01*
X48Y1074D01*
X49Y1077D01*
X51Y1078D01*
X52Y1080D01*
X53Y1080D01*
X53Y1081D01*
X53D01*
X67Y1071D01*
X65Y1069D01*
X64Y1068D01*
X62Y1066D01*
X61Y1064D01*
X61Y1063D01*
X60Y1062D01*
X60Y1061D01*
X59Y1061D01*
X59Y1059D01*
X58Y1057D01*
X58Y1055D01*
X57Y1053D01*
X57Y1052D01*
X57Y1051D01*
Y1050D01*
X57Y1047D01*
X57Y1045D01*
X58Y1043D01*
X59Y1041D01*
X59Y1039D01*
X60Y1038D01*
X60Y1037D01*
X60Y1037D01*
X62Y1035D01*
X63Y1033D01*
X65Y1032D01*
X66Y1030D01*
X68Y1029D01*
X69Y1028D01*
X69Y1028D01*
X70Y1027D01*
X70D01*
X72Y1026D01*
X74Y1025D01*
X77Y1025D01*
X79Y1024D01*
X81Y1024D01*
X82Y1024D01*
X83Y1024D01*
X83D01*
X83D01*
X84D01*
X86Y1024D01*
X88Y1024D01*
X91Y1025D01*
X95Y1026D01*
X97Y1027D01*
X98Y1028D01*
X100Y1029D01*
X100Y1030D01*
X101Y1030D01*
X102Y1031D01*
X102Y1031D01*
X102Y1031D01*
X102Y1031D01*
X104Y1033D01*
X105Y1034D01*
X106Y1036D01*
X107Y1038D01*
X108Y1041D01*
X109Y1044D01*
X110Y1047D01*
X110Y1048D01*
X110Y1049D01*
Y1050D01*
X110Y1051D01*
Y1051D01*
X110Y1055D01*
X110Y1058D01*
X109Y1060D01*
X108Y1062D01*
X107Y1064D01*
X107Y1065D01*
X106Y1066D01*
X106Y1066D01*
X104Y1068D01*
X102Y1070D01*
X100Y1071D01*
X98Y1071D01*
X97Y1072D01*
X95Y1072D01*
X95D01*
X94Y1073D01*
X94D01*
X94D01*
Y1051D01*
X78D01*
Y1090D01*
X81Y1090D01*
X82D01*
X83Y1091D01*
X84D01*
X85D01*
X85D01*
X85D01*
X90Y1090D01*
D02*
G37*
G36*
X1045Y-420D02*
X1037D01*
Y-379D01*
X1045D01*
Y-420D01*
D02*
G37*
G36*
X467Y1250D02*
X471Y1249D01*
X474Y1249D01*
X477Y1248D01*
X480Y1247D01*
X482Y1247D01*
X485Y1246D01*
X487Y1245D01*
X489Y1244D01*
X490Y1243D01*
X492Y1242D01*
X493Y1242D01*
X494Y1241D01*
X495Y1241D01*
X495Y1240D01*
X495Y1240D01*
X497Y1238D01*
X499Y1236D01*
X501Y1234D01*
X502Y1232D01*
X503Y1230D01*
X504Y1228D01*
X505Y1226D01*
X506Y1224D01*
X506Y1222D01*
X506Y1220D01*
X507Y1219D01*
X507Y1218D01*
X507Y1217D01*
X507Y1216D01*
Y1215D01*
X507Y1212D01*
X507Y1209D01*
X506Y1207D01*
X505Y1204D01*
X504Y1202D01*
X503Y1200D01*
X502Y1198D01*
X501Y1196D01*
X500Y1195D01*
X499Y1193D01*
X498Y1192D01*
X497Y1191D01*
X496Y1191D01*
X496Y1190D01*
X495Y1190D01*
X495Y1190D01*
X493Y1188D01*
X490Y1187D01*
X488Y1185D01*
X485Y1184D01*
X483Y1183D01*
X480Y1183D01*
X475Y1181D01*
X473Y1181D01*
X471Y1181D01*
X469Y1180D01*
X467Y1180D01*
X466D01*
X465Y1180D01*
X464D01*
X464D01*
X460Y1180D01*
X457Y1181D01*
X454Y1181D01*
X451Y1182D01*
X448Y1182D01*
X446Y1183D01*
X443Y1184D01*
X441Y1185D01*
X439Y1186D01*
X438Y1187D01*
X436Y1188D01*
X435Y1188D01*
X434Y1189D01*
X433Y1189D01*
X433Y1189D01*
X433Y1190D01*
X431Y1191D01*
X429Y1193D01*
X427Y1196D01*
X426Y1198D01*
X425Y1200D01*
X424Y1202D01*
X423Y1204D01*
X422Y1206D01*
X422Y1208D01*
X421Y1210D01*
X421Y1211D01*
X421Y1212D01*
X421Y1213D01*
X420Y1214D01*
Y1215D01*
X421Y1218D01*
X421Y1221D01*
X422Y1223D01*
X422Y1226D01*
X423Y1228D01*
X424Y1230D01*
X426Y1232D01*
X427Y1233D01*
X428Y1235D01*
X429Y1236D01*
X430Y1237D01*
X431Y1238D01*
X432Y1239D01*
X432Y1240D01*
X433Y1240D01*
X433Y1240D01*
X435Y1242D01*
X438Y1243D01*
X440Y1244D01*
X443Y1246D01*
X445Y1246D01*
X448Y1247D01*
X453Y1248D01*
X455Y1249D01*
X457Y1249D01*
X459Y1249D01*
X461Y1250D01*
X462D01*
X463Y1250D01*
X464D01*
X464D01*
X467Y1250D01*
D02*
G37*
G36*
X508Y1136D02*
Y1135D01*
X422Y1096D01*
Y1114D01*
X471Y1136D01*
X422Y1157D01*
Y1175D01*
X508Y1136D01*
D02*
G37*
G36*
X479Y1092D02*
X481Y1091D01*
X484Y1091D01*
X486Y1090D01*
X488Y1089D01*
X490Y1089D01*
X491Y1088D01*
X493Y1087D01*
X494Y1086D01*
X495Y1085D01*
X496Y1085D01*
X497Y1084D01*
X498Y1083D01*
X498Y1083D01*
X498Y1083D01*
X499Y1083D01*
X500Y1081D01*
X501Y1079D01*
X502Y1077D01*
X503Y1076D01*
X505Y1072D01*
X506Y1069D01*
X506Y1067D01*
X506Y1066D01*
X506Y1064D01*
X507Y1063D01*
X507Y1062D01*
Y1061D01*
X507Y1057D01*
X506Y1054D01*
X505Y1051D01*
X504Y1049D01*
X503Y1046D01*
X503Y1045D01*
X503Y1045D01*
X503Y1044D01*
X502Y1044D01*
X502Y1043D01*
Y1043D01*
X500Y1041D01*
X498Y1038D01*
X496Y1036D01*
X494Y1035D01*
X492Y1033D01*
X491Y1032D01*
X490Y1032D01*
X490Y1032D01*
X489Y1032D01*
X489D01*
X484Y1049D01*
X486Y1050D01*
X487Y1052D01*
X488Y1052D01*
X488Y1053D01*
X488Y1053D01*
X489Y1053D01*
X489Y1056D01*
X490Y1057D01*
X490Y1058D01*
X490Y1059D01*
X490Y1060D01*
Y1060D01*
X490Y1062D01*
X490Y1064D01*
X489Y1065D01*
X489Y1066D01*
X488Y1068D01*
X488Y1069D01*
X487Y1069D01*
X487Y1069D01*
X486Y1071D01*
X484Y1072D01*
X482Y1073D01*
X481Y1073D01*
X479Y1074D01*
X478Y1074D01*
X477Y1074D01*
X477D01*
X476D01*
X474Y1074D01*
X472Y1073D01*
X471Y1073D01*
X470Y1072D01*
X469Y1071D01*
X468Y1071D01*
X467Y1071D01*
X467Y1070D01*
X466Y1069D01*
X465Y1067D01*
X465Y1066D01*
X464Y1064D01*
X464Y1062D01*
X464Y1061D01*
Y1059D01*
X464Y1057D01*
X464Y1055D01*
X464Y1054D01*
X465Y1053D01*
X465Y1052D01*
X465Y1051D01*
X465Y1051D01*
X466Y1050D01*
X467Y1048D01*
X468Y1047D01*
X468Y1046D01*
X469Y1045D01*
X470Y1045D01*
X470Y1044D01*
X470Y1044D01*
X466Y1035D01*
X422Y1041D01*
Y1084D01*
X439D01*
Y1054D01*
X450Y1052D01*
X449Y1053D01*
X449Y1055D01*
X448Y1056D01*
X448Y1056D01*
X448Y1056D01*
Y1057D01*
X448Y1059D01*
X448Y1061D01*
X447Y1061D01*
Y1063D01*
X448Y1065D01*
X448Y1067D01*
X448Y1070D01*
X449Y1072D01*
X449Y1073D01*
X450Y1075D01*
X451Y1077D01*
X452Y1078D01*
X452Y1080D01*
X453Y1081D01*
X454Y1082D01*
X454Y1082D01*
X455Y1083D01*
X455Y1083D01*
X456Y1084D01*
X456Y1084D01*
X457Y1085D01*
X459Y1086D01*
X461Y1087D01*
X462Y1088D01*
X466Y1090D01*
X469Y1091D01*
X471Y1091D01*
X472Y1091D01*
X473Y1091D01*
X474Y1092D01*
X475Y1092D01*
X476D01*
X476D01*
X476D01*
X479Y1092D01*
D02*
G37*
G36*
X-1191Y549D02*
X-1257D01*
Y515D01*
X-1273D01*
Y565D01*
X-1191D01*
Y549D01*
D02*
G37*
G36*
X914Y-483D02*
X854Y-520D01*
X914D01*
Y-556D01*
X777Y-557D01*
Y-504D01*
X777Y-500D01*
X777Y-496D01*
X778Y-493D01*
X779Y-489D01*
X780Y-486D01*
X781Y-483D01*
X782Y-480D01*
X783Y-477D01*
X785Y-475D01*
X786Y-473D01*
X787Y-472D01*
X788Y-470D01*
X789Y-469D01*
X789Y-468D01*
X790Y-468D01*
X790Y-468D01*
X792Y-465D01*
X795Y-463D01*
X798Y-461D01*
X800Y-460D01*
X803Y-458D01*
X805Y-457D01*
X810Y-455D01*
X815Y-454D01*
X817Y-454D01*
X818Y-454D01*
X820Y-453D01*
X820D01*
X821D01*
X821D01*
X826Y-454D01*
X830Y-454D01*
X834Y-456D01*
X838Y-457D01*
X840Y-458D01*
X842Y-459D01*
X844Y-460D01*
X844Y-460D01*
X844D01*
X848Y-463D01*
X851Y-466D01*
X853Y-468D01*
X855Y-471D01*
X857Y-473D01*
X858Y-475D01*
X859Y-477D01*
X859Y-477D01*
Y-477D01*
X914Y-440D01*
Y-483D01*
D02*
G37*
G36*
X1021Y675D02*
X1045D01*
Y666D01*
X1021D01*
Y646D01*
X1013D01*
Y666D01*
X989D01*
Y675D01*
X1013D01*
Y695D01*
X1021D01*
Y675D01*
D02*
G37*
G36*
X1031Y490D02*
X1022D01*
Y530D01*
X1031D01*
Y490D01*
D02*
G37*
G36*
X-697Y-1035D02*
X-693Y-1035D01*
X-690Y-1036D01*
X-687Y-1037D01*
X-685Y-1038D01*
X-683Y-1039D01*
X-682Y-1040D01*
X-682Y-1040D01*
X-679Y-1042D01*
X-677Y-1044D01*
X-675Y-1046D01*
X-673Y-1048D01*
X-672Y-1050D01*
X-671Y-1052D01*
X-671Y-1053D01*
X-671Y-1053D01*
Y-1053D01*
X-680Y-1059D01*
X-681Y-1057D01*
X-682Y-1055D01*
X-684Y-1053D01*
X-685Y-1052D01*
X-686Y-1051D01*
X-687Y-1050D01*
X-688Y-1050D01*
X-688Y-1049D01*
X-690Y-1048D01*
X-693Y-1047D01*
X-695Y-1047D01*
X-697Y-1046D01*
X-699Y-1046D01*
X-700Y-1046D01*
X-701D01*
X-704Y-1046D01*
X-707Y-1047D01*
X-710Y-1047D01*
X-712Y-1048D01*
X-713Y-1049D01*
X-715Y-1050D01*
X-715Y-1051D01*
X-716Y-1051D01*
X-718Y-1053D01*
X-719Y-1055D01*
X-720Y-1057D01*
X-721Y-1058D01*
X-722Y-1060D01*
X-722Y-1061D01*
X-722Y-1062D01*
Y-1063D01*
X-722Y-1065D01*
X-721Y-1068D01*
X-720Y-1070D01*
X-718Y-1071D01*
X-717Y-1072D01*
X-716Y-1073D01*
X-715Y-1074D01*
X-715Y-1074D01*
X-712Y-1076D01*
X-709Y-1077D01*
X-706Y-1078D01*
X-703Y-1079D01*
X-701Y-1080D01*
X-699Y-1081D01*
X-698Y-1081D01*
X-697Y-1081D01*
X-697Y-1082D01*
X-697D01*
X-693Y-1083D01*
X-689Y-1085D01*
X-685Y-1087D01*
X-682Y-1089D01*
X-679Y-1091D01*
X-678Y-1091D01*
X-677Y-1092D01*
X-677Y-1092D01*
X-676Y-1093D01*
X-676Y-1093D01*
X-676D01*
X-674Y-1094D01*
X-673Y-1096D01*
X-671Y-1097D01*
X-670Y-1099D01*
X-669Y-1102D01*
X-668Y-1105D01*
X-667Y-1108D01*
X-667Y-1109D01*
X-667Y-1110D01*
X-666Y-1111D01*
Y-1112D01*
Y-1112D01*
Y-1112D01*
X-667Y-1115D01*
X-667Y-1117D01*
X-667Y-1119D01*
X-668Y-1121D01*
X-670Y-1125D01*
X-672Y-1128D01*
X-674Y-1131D01*
X-676Y-1132D01*
X-676Y-1133D01*
X-677Y-1134D01*
X-677Y-1134D01*
X-677Y-1134D01*
X-679Y-1135D01*
X-681Y-1136D01*
X-686Y-1138D01*
X-690Y-1140D01*
X-694Y-1141D01*
X-696Y-1141D01*
X-698Y-1141D01*
X-699Y-1141D01*
X-701Y-1142D01*
X-702Y-1142D01*
X-703D01*
X-708Y-1141D01*
X-712Y-1141D01*
X-716Y-1140D01*
X-719Y-1139D01*
X-722Y-1138D01*
X-723Y-1137D01*
X-724Y-1137D01*
X-725Y-1137D01*
X-725Y-1136D01*
X-725Y-1136D01*
X-726D01*
X-729Y-1134D01*
X-732Y-1132D01*
X-734Y-1129D01*
X-736Y-1127D01*
X-737Y-1125D01*
X-738Y-1123D01*
X-739Y-1122D01*
X-739Y-1122D01*
Y-1122D01*
X-730Y-1115D01*
X-728Y-1118D01*
X-727Y-1120D01*
X-725Y-1122D01*
X-723Y-1123D01*
X-721Y-1124D01*
X-720Y-1125D01*
X-719Y-1126D01*
X-719Y-1126D01*
X-716Y-1127D01*
X-713Y-1128D01*
X-711Y-1129D01*
X-708Y-1130D01*
X-706Y-1130D01*
X-705Y-1130D01*
X-703Y-1130D01*
X-703D01*
X-699Y-1130D01*
X-696Y-1129D01*
X-693Y-1129D01*
X-690Y-1128D01*
X-688Y-1127D01*
X-687Y-1126D01*
X-686Y-1125D01*
X-686Y-1125D01*
X-683Y-1123D01*
X-682Y-1121D01*
X-680Y-1119D01*
X-679Y-1117D01*
X-679Y-1115D01*
X-678Y-1114D01*
X-678Y-1113D01*
Y-1112D01*
X-678Y-1110D01*
X-679Y-1108D01*
X-680Y-1107D01*
X-680Y-1105D01*
X-681Y-1104D01*
X-682Y-1103D01*
X-682Y-1103D01*
X-683Y-1103D01*
X-684Y-1101D01*
X-686Y-1100D01*
X-688Y-1098D01*
X-689Y-1097D01*
X-691Y-1097D01*
X-692Y-1096D01*
X-693Y-1096D01*
X-693Y-1095D01*
X-698Y-1093D01*
X-700Y-1092D01*
X-702Y-1091D01*
X-704Y-1091D01*
X-705Y-1090D01*
X-706Y-1090D01*
X-707Y-1090D01*
X-709Y-1089D01*
X-711Y-1088D01*
X-714Y-1087D01*
X-716Y-1086D01*
X-717Y-1085D01*
X-718Y-1085D01*
X-719Y-1084D01*
X-719Y-1084D01*
X-722Y-1083D01*
X-724Y-1081D01*
X-725Y-1080D01*
X-727Y-1079D01*
X-728Y-1077D01*
X-729Y-1077D01*
X-730Y-1076D01*
X-730Y-1076D01*
X-731Y-1074D01*
X-732Y-1071D01*
X-733Y-1069D01*
X-733Y-1067D01*
X-734Y-1065D01*
X-734Y-1064D01*
Y-1063D01*
Y-1062D01*
X-734Y-1060D01*
X-733Y-1058D01*
X-732Y-1054D01*
X-731Y-1051D01*
X-729Y-1048D01*
X-727Y-1045D01*
X-726Y-1044D01*
X-725Y-1043D01*
X-725Y-1042D01*
X-724D01*
X-723Y-1041D01*
X-721Y-1040D01*
X-717Y-1038D01*
X-713Y-1036D01*
X-709Y-1035D01*
X-706Y-1035D01*
X-705Y-1035D01*
X-703Y-1035D01*
X-702Y-1034D01*
X-701D01*
X-697Y-1035D01*
D02*
G37*
G36*
X-965D02*
X-961Y-1035D01*
X-958Y-1036D01*
X-955Y-1037D01*
X-953Y-1038D01*
X-951Y-1039D01*
X-950Y-1040D01*
X-950Y-1040D01*
X-947Y-1042D01*
X-945Y-1044D01*
X-943Y-1046D01*
X-941Y-1048D01*
X-940Y-1050D01*
X-939Y-1052D01*
X-939Y-1053D01*
X-939Y-1053D01*
Y-1053D01*
X-948Y-1059D01*
X-949Y-1057D01*
X-950Y-1055D01*
X-952Y-1053D01*
X-953Y-1052D01*
X-954Y-1051D01*
X-955Y-1050D01*
X-956Y-1050D01*
X-956Y-1049D01*
X-958Y-1048D01*
X-961Y-1047D01*
X-963Y-1047D01*
X-965Y-1046D01*
X-966Y-1046D01*
X-968Y-1046D01*
X-969D01*
X-972Y-1046D01*
X-975Y-1047D01*
X-977Y-1047D01*
X-980Y-1048D01*
X-981Y-1049D01*
X-983Y-1050D01*
X-983Y-1051D01*
X-984Y-1051D01*
X-986Y-1053D01*
X-987Y-1055D01*
X-988Y-1057D01*
X-989Y-1058D01*
X-990Y-1060D01*
X-990Y-1061D01*
X-990Y-1062D01*
Y-1063D01*
X-990Y-1065D01*
X-989Y-1068D01*
X-988Y-1070D01*
X-986Y-1071D01*
X-985Y-1072D01*
X-984Y-1073D01*
X-983Y-1074D01*
X-983Y-1074D01*
X-980Y-1076D01*
X-977Y-1077D01*
X-974Y-1078D01*
X-971Y-1079D01*
X-969Y-1080D01*
X-967Y-1081D01*
X-966Y-1081D01*
X-965Y-1081D01*
X-965Y-1082D01*
X-965D01*
X-960Y-1083D01*
X-956Y-1085D01*
X-953Y-1087D01*
X-950Y-1089D01*
X-947Y-1091D01*
X-946Y-1091D01*
X-945Y-1092D01*
X-944Y-1092D01*
X-944Y-1093D01*
X-944Y-1093D01*
X-944D01*
X-942Y-1094D01*
X-941Y-1096D01*
X-939Y-1097D01*
X-938Y-1099D01*
X-937Y-1102D01*
X-935Y-1105D01*
X-935Y-1108D01*
X-935Y-1109D01*
X-934Y-1110D01*
X-934Y-1111D01*
Y-1112D01*
Y-1112D01*
Y-1112D01*
X-934Y-1115D01*
X-935Y-1117D01*
X-935Y-1119D01*
X-936Y-1121D01*
X-938Y-1125D01*
X-940Y-1128D01*
X-942Y-1131D01*
X-944Y-1132D01*
X-944Y-1133D01*
X-945Y-1134D01*
X-945Y-1134D01*
X-945Y-1134D01*
X-947Y-1135D01*
X-949Y-1136D01*
X-954Y-1138D01*
X-958Y-1140D01*
X-962Y-1141D01*
X-964Y-1141D01*
X-966Y-1141D01*
X-967Y-1141D01*
X-969Y-1142D01*
X-970Y-1142D01*
X-971D01*
X-976Y-1141D01*
X-980Y-1141D01*
X-984Y-1140D01*
X-987Y-1139D01*
X-990Y-1138D01*
X-991Y-1137D01*
X-992Y-1137D01*
X-993Y-1137D01*
X-993Y-1136D01*
X-993Y-1136D01*
X-993D01*
X-997Y-1134D01*
X-999Y-1132D01*
X-1002Y-1129D01*
X-1004Y-1127D01*
X-1005Y-1125D01*
X-1006Y-1123D01*
X-1006Y-1122D01*
X-1007Y-1122D01*
Y-1122D01*
X-998Y-1115D01*
X-996Y-1118D01*
X-994Y-1120D01*
X-993Y-1122D01*
X-991Y-1123D01*
X-989Y-1124D01*
X-988Y-1125D01*
X-987Y-1126D01*
X-987Y-1126D01*
X-984Y-1127D01*
X-981Y-1128D01*
X-979Y-1129D01*
X-976Y-1130D01*
X-974Y-1130D01*
X-972Y-1130D01*
X-971Y-1130D01*
X-971D01*
X-967Y-1130D01*
X-964Y-1129D01*
X-961Y-1129D01*
X-958Y-1128D01*
X-956Y-1127D01*
X-955Y-1126D01*
X-954Y-1125D01*
X-953Y-1125D01*
X-951Y-1123D01*
X-949Y-1121D01*
X-948Y-1119D01*
X-947Y-1117D01*
X-947Y-1115D01*
X-946Y-1114D01*
X-946Y-1113D01*
Y-1112D01*
X-946Y-1110D01*
X-947Y-1108D01*
X-947Y-1107D01*
X-948Y-1105D01*
X-949Y-1104D01*
X-950Y-1103D01*
X-950Y-1103D01*
X-950Y-1103D01*
X-952Y-1101D01*
X-954Y-1100D01*
X-956Y-1098D01*
X-957Y-1097D01*
X-959Y-1097D01*
X-960Y-1096D01*
X-961Y-1096D01*
X-961Y-1095D01*
X-966Y-1093D01*
X-968Y-1092D01*
X-970Y-1091D01*
X-972Y-1091D01*
X-973Y-1090D01*
X-974Y-1090D01*
X-975Y-1090D01*
X-977Y-1089D01*
X-979Y-1088D01*
X-982Y-1087D01*
X-983Y-1086D01*
X-985Y-1085D01*
X-986Y-1085D01*
X-987Y-1084D01*
X-987Y-1084D01*
X-990Y-1083D01*
X-992Y-1081D01*
X-993Y-1080D01*
X-995Y-1079D01*
X-996Y-1077D01*
X-997Y-1077D01*
X-998Y-1076D01*
X-998Y-1076D01*
X-999Y-1074D01*
X-1000Y-1071D01*
X-1001Y-1069D01*
X-1001Y-1067D01*
X-1002Y-1065D01*
X-1002Y-1064D01*
Y-1063D01*
Y-1062D01*
X-1002Y-1060D01*
X-1001Y-1058D01*
X-1000Y-1054D01*
X-999Y-1051D01*
X-997Y-1048D01*
X-995Y-1045D01*
X-994Y-1044D01*
X-993Y-1043D01*
X-992Y-1042D01*
X-992D01*
X-991Y-1041D01*
X-989Y-1040D01*
X-985Y-1038D01*
X-981Y-1036D01*
X-977Y-1035D01*
X-974Y-1035D01*
X-972Y-1035D01*
X-971Y-1035D01*
X-970Y-1034D01*
X-969D01*
X-965Y-1035D01*
D02*
G37*
G36*
X211Y-1035D02*
X215Y-1035D01*
X218Y-1036D01*
X221Y-1037D01*
X223Y-1037D01*
X225Y-1038D01*
X226Y-1038D01*
X226Y-1039D01*
X226Y-1039D01*
X227D01*
X230Y-1040D01*
X233Y-1042D01*
X236Y-1044D01*
X238Y-1046D01*
X240Y-1048D01*
X242Y-1049D01*
X243Y-1050D01*
X243Y-1050D01*
X236Y-1060D01*
X234Y-1057D01*
X232Y-1055D01*
X230Y-1054D01*
X227Y-1052D01*
X226Y-1051D01*
X224Y-1051D01*
X223Y-1050D01*
X223Y-1050D01*
X223D01*
X220Y-1049D01*
X217Y-1048D01*
X214Y-1047D01*
X212Y-1047D01*
X210Y-1046D01*
X208Y-1046D01*
X207D01*
X203Y-1047D01*
X199Y-1047D01*
X196Y-1048D01*
X193Y-1049D01*
X190Y-1050D01*
X188Y-1051D01*
X187Y-1051D01*
X187Y-1052D01*
X187Y-1052D01*
X186D01*
X183Y-1054D01*
X180Y-1057D01*
X177Y-1059D01*
X175Y-1061D01*
X174Y-1064D01*
X172Y-1065D01*
X172Y-1066D01*
X171Y-1067D01*
X171Y-1067D01*
Y-1067D01*
X169Y-1070D01*
X168Y-1074D01*
X167Y-1078D01*
X166Y-1081D01*
X166Y-1084D01*
X165Y-1085D01*
Y-1086D01*
X165Y-1087D01*
Y-1088D01*
Y-1088D01*
Y-1088D01*
X166Y-1093D01*
X166Y-1097D01*
X167Y-1100D01*
X168Y-1103D01*
X169Y-1106D01*
X170Y-1107D01*
X170Y-1108D01*
X171Y-1109D01*
X171Y-1109D01*
X171Y-1110D01*
Y-1110D01*
X174Y-1113D01*
X176Y-1116D01*
X179Y-1119D01*
X181Y-1121D01*
X183Y-1122D01*
X185Y-1123D01*
X186Y-1124D01*
X186Y-1124D01*
X186Y-1125D01*
X186D01*
X190Y-1126D01*
X194Y-1128D01*
X197Y-1129D01*
X200Y-1129D01*
X203Y-1130D01*
X204Y-1130D01*
X205D01*
X206Y-1130D01*
X207D01*
X210Y-1130D01*
X213Y-1129D01*
X216Y-1129D01*
X218Y-1128D01*
X220Y-1128D01*
X222Y-1127D01*
X223Y-1127D01*
X223Y-1126D01*
X226Y-1125D01*
X228Y-1123D01*
X231Y-1122D01*
X232Y-1121D01*
X234Y-1119D01*
X235Y-1118D01*
X236Y-1117D01*
X236Y-1117D01*
X243Y-1127D01*
X241Y-1129D01*
X238Y-1131D01*
X235Y-1133D01*
X233Y-1134D01*
X231Y-1136D01*
X229Y-1137D01*
X228Y-1137D01*
X228Y-1137D01*
X228Y-1137D01*
X228D01*
X224Y-1139D01*
X221Y-1140D01*
X217Y-1141D01*
X214Y-1141D01*
X211Y-1141D01*
X210Y-1142D01*
X209D01*
X208Y-1142D01*
X207D01*
X202Y-1141D01*
X197Y-1141D01*
X192Y-1139D01*
X188Y-1138D01*
X186Y-1137D01*
X185Y-1137D01*
X184Y-1136D01*
X182Y-1136D01*
X182Y-1135D01*
X181Y-1135D01*
X180Y-1135D01*
X180D01*
X176Y-1132D01*
X172Y-1129D01*
X169Y-1125D01*
X166Y-1122D01*
X164Y-1120D01*
X163Y-1118D01*
X162Y-1117D01*
X161Y-1117D01*
X161Y-1116D01*
X161Y-1116D01*
X161Y-1115D01*
X158Y-1111D01*
X157Y-1106D01*
X155Y-1102D01*
X154Y-1097D01*
X154Y-1095D01*
X154Y-1094D01*
X154Y-1092D01*
X154Y-1091D01*
X153Y-1090D01*
Y-1089D01*
Y-1089D01*
Y-1088D01*
X154Y-1083D01*
X155Y-1078D01*
X156Y-1073D01*
X157Y-1069D01*
X158Y-1067D01*
X158Y-1066D01*
X159Y-1065D01*
X160Y-1063D01*
X160Y-1062D01*
X160Y-1062D01*
X161Y-1061D01*
Y-1061D01*
X164Y-1057D01*
X167Y-1053D01*
X170Y-1050D01*
X173Y-1047D01*
X176Y-1045D01*
X177Y-1044D01*
X178Y-1043D01*
X179Y-1042D01*
X180Y-1042D01*
X180Y-1042D01*
X180D01*
X185Y-1039D01*
X189Y-1038D01*
X194Y-1036D01*
X198Y-1035D01*
X200Y-1035D01*
X202Y-1035D01*
X203Y-1035D01*
X205D01*
X206Y-1034D01*
X207D01*
X211Y-1035D01*
D02*
G37*
G36*
X423Y-1095D02*
X372D01*
Y-1084D01*
X423D01*
Y-1095D01*
D02*
G37*
G36*
X715Y-1142D02*
X714D01*
X666Y-1036D01*
X679D01*
X714Y-1117D01*
X750Y-1036D01*
X763D01*
X715Y-1142D01*
D02*
G37*
G36*
X-1187D02*
X-1188D01*
X-1236Y-1036D01*
X-1223D01*
X-1188Y-1117D01*
X-1152Y-1036D01*
X-1139D01*
X-1187Y-1142D01*
D02*
G37*
G36*
X626Y-1033D02*
X628Y-1034D01*
X632Y-1035D01*
X636Y-1036D01*
X639Y-1037D01*
X641Y-1039D01*
X642Y-1039D01*
X643Y-1040D01*
X644Y-1041D01*
X644Y-1041D01*
X644Y-1041D01*
X645Y-1041D01*
X646Y-1043D01*
X647Y-1044D01*
X650Y-1047D01*
X651Y-1051D01*
X652Y-1054D01*
X653Y-1057D01*
X653Y-1058D01*
X653Y-1059D01*
X653Y-1060D01*
Y-1060D01*
Y-1061D01*
Y-1061D01*
X653Y-1064D01*
X653Y-1067D01*
X652Y-1069D01*
X651Y-1071D01*
X650Y-1073D01*
X649Y-1074D01*
X649Y-1075D01*
X649Y-1075D01*
X647Y-1077D01*
X645Y-1079D01*
X643Y-1080D01*
X641Y-1081D01*
X640Y-1082D01*
X639Y-1083D01*
X638Y-1083D01*
X637Y-1083D01*
X641Y-1084D01*
X644Y-1086D01*
X647Y-1087D01*
X649Y-1089D01*
X651Y-1090D01*
X652Y-1091D01*
X653Y-1092D01*
X653Y-1092D01*
X655Y-1095D01*
X656Y-1098D01*
X657Y-1101D01*
X658Y-1103D01*
X659Y-1106D01*
X659Y-1108D01*
Y-1109D01*
Y-1109D01*
Y-1110D01*
Y-1110D01*
X659Y-1113D01*
X658Y-1116D01*
X657Y-1118D01*
X657Y-1121D01*
X656Y-1123D01*
X655Y-1124D01*
X654Y-1125D01*
X654Y-1125D01*
X652Y-1128D01*
X650Y-1130D01*
X648Y-1132D01*
X646Y-1134D01*
X644Y-1135D01*
X643Y-1136D01*
X642Y-1136D01*
X642Y-1137D01*
X642D01*
X639Y-1138D01*
X635Y-1139D01*
X632Y-1140D01*
X630Y-1141D01*
X627Y-1141D01*
X625Y-1141D01*
X624D01*
X619Y-1141D01*
X615Y-1140D01*
X611Y-1139D01*
X607Y-1137D01*
X605Y-1136D01*
X604Y-1135D01*
X603Y-1135D01*
X602Y-1134D01*
X601Y-1134D01*
X601Y-1134D01*
X601D01*
X598Y-1131D01*
X595Y-1128D01*
X593Y-1125D01*
X591Y-1122D01*
X590Y-1119D01*
X589Y-1117D01*
X589Y-1116D01*
X588Y-1116D01*
X588Y-1115D01*
Y-1115D01*
X600Y-1112D01*
X601Y-1115D01*
X602Y-1118D01*
X603Y-1120D01*
X605Y-1121D01*
X606Y-1123D01*
X607Y-1124D01*
X608Y-1125D01*
X608Y-1125D01*
X611Y-1126D01*
X614Y-1128D01*
X616Y-1128D01*
X618Y-1129D01*
X620Y-1129D01*
X622Y-1129D01*
X623Y-1130D01*
X623D01*
X627Y-1129D01*
X630Y-1128D01*
X633Y-1128D01*
X636Y-1126D01*
X637Y-1125D01*
X639Y-1124D01*
X640Y-1123D01*
X640Y-1123D01*
X642Y-1121D01*
X644Y-1119D01*
X645Y-1116D01*
X646Y-1114D01*
X647Y-1112D01*
X647Y-1111D01*
X647Y-1110D01*
Y-1109D01*
X647Y-1107D01*
X647Y-1105D01*
X646Y-1102D01*
X644Y-1099D01*
X642Y-1097D01*
X641Y-1095D01*
X639Y-1094D01*
X638Y-1093D01*
X638Y-1093D01*
X638D01*
X634Y-1091D01*
X630Y-1089D01*
X626Y-1088D01*
X622Y-1087D01*
X618Y-1087D01*
X617Y-1087D01*
X615Y-1087D01*
X612D01*
X615Y-1080D01*
X618Y-1080D01*
X622Y-1079D01*
X625Y-1078D01*
X628Y-1077D01*
X630Y-1077D01*
X632Y-1076D01*
X633Y-1075D01*
X633Y-1075D01*
X635Y-1074D01*
X636Y-1073D01*
X638Y-1071D01*
X640Y-1069D01*
X641Y-1067D01*
X641Y-1065D01*
X642Y-1063D01*
X642Y-1062D01*
Y-1062D01*
Y-1062D01*
X642Y-1059D01*
X641Y-1057D01*
X640Y-1054D01*
X639Y-1053D01*
X638Y-1051D01*
X637Y-1050D01*
X636Y-1050D01*
X636Y-1049D01*
X634Y-1048D01*
X632Y-1047D01*
X630Y-1046D01*
X628Y-1045D01*
X626Y-1045D01*
X624Y-1045D01*
X623Y-1045D01*
X623D01*
X621Y-1045D01*
X618Y-1045D01*
X616Y-1046D01*
X615Y-1047D01*
X613Y-1048D01*
X612Y-1048D01*
X611Y-1049D01*
X611Y-1049D01*
X610Y-1051D01*
X608Y-1052D01*
X607Y-1054D01*
X606Y-1056D01*
X606Y-1057D01*
X605Y-1058D01*
X605Y-1059D01*
Y-1059D01*
X593Y-1057D01*
X594Y-1053D01*
X596Y-1050D01*
X597Y-1047D01*
X599Y-1045D01*
X601Y-1043D01*
X602Y-1042D01*
X603Y-1041D01*
X603Y-1040D01*
X606Y-1038D01*
X610Y-1036D01*
X613Y-1035D01*
X616Y-1034D01*
X619Y-1034D01*
X620Y-1033D01*
X621D01*
X622Y-1033D01*
X623D01*
X626Y-1033D01*
D02*
G37*
G36*
X510D02*
X512Y-1034D01*
X516Y-1035D01*
X520Y-1036D01*
X523Y-1037D01*
X526Y-1039D01*
X527Y-1039D01*
X528Y-1040D01*
X528Y-1041D01*
X529Y-1041D01*
X529Y-1041D01*
X529Y-1041D01*
X531Y-1043D01*
X532Y-1044D01*
X534Y-1047D01*
X536Y-1051D01*
X537Y-1054D01*
X537Y-1057D01*
X538Y-1058D01*
X538Y-1059D01*
X538Y-1060D01*
Y-1060D01*
Y-1061D01*
Y-1061D01*
X538Y-1064D01*
X537Y-1067D01*
X536Y-1069D01*
X536Y-1071D01*
X535Y-1073D01*
X534Y-1074D01*
X533Y-1075D01*
X533Y-1075D01*
X531Y-1077D01*
X529Y-1079D01*
X527Y-1080D01*
X526Y-1081D01*
X524Y-1082D01*
X523Y-1083D01*
X522Y-1083D01*
X522Y-1083D01*
X525Y-1084D01*
X529Y-1086D01*
X531Y-1087D01*
X534Y-1089D01*
X535Y-1090D01*
X537Y-1091D01*
X537Y-1092D01*
X538Y-1092D01*
X540Y-1095D01*
X541Y-1098D01*
X542Y-1101D01*
X543Y-1103D01*
X543Y-1106D01*
X543Y-1108D01*
Y-1109D01*
Y-1109D01*
Y-1110D01*
Y-1110D01*
X543Y-1113D01*
X543Y-1116D01*
X542Y-1118D01*
X541Y-1121D01*
X540Y-1123D01*
X539Y-1124D01*
X539Y-1125D01*
X539Y-1125D01*
X537Y-1128D01*
X535Y-1130D01*
X533Y-1132D01*
X531Y-1134D01*
X529Y-1135D01*
X527Y-1136D01*
X526Y-1136D01*
X526Y-1137D01*
X526D01*
X523Y-1138D01*
X520Y-1139D01*
X517Y-1140D01*
X514Y-1141D01*
X512Y-1141D01*
X510Y-1141D01*
X508D01*
X504Y-1141D01*
X499Y-1140D01*
X495Y-1139D01*
X492Y-1137D01*
X489Y-1136D01*
X488Y-1135D01*
X487Y-1135D01*
X486Y-1134D01*
X486Y-1134D01*
X486Y-1134D01*
X485D01*
X482Y-1131D01*
X479Y-1128D01*
X477Y-1125D01*
X475Y-1122D01*
X474Y-1119D01*
X473Y-1117D01*
X473Y-1116D01*
X473Y-1116D01*
X473Y-1115D01*
Y-1115D01*
X484Y-1112D01*
X485Y-1115D01*
X486Y-1118D01*
X488Y-1120D01*
X489Y-1121D01*
X491Y-1123D01*
X492Y-1124D01*
X492Y-1125D01*
X493Y-1125D01*
X495Y-1126D01*
X498Y-1128D01*
X501Y-1128D01*
X503Y-1129D01*
X505Y-1129D01*
X507Y-1129D01*
X508Y-1130D01*
X508D01*
X512Y-1129D01*
X515Y-1128D01*
X518Y-1128D01*
X520Y-1126D01*
X522Y-1125D01*
X523Y-1124D01*
X524Y-1123D01*
X525Y-1123D01*
X527Y-1121D01*
X528Y-1119D01*
X530Y-1116D01*
X531Y-1114D01*
X531Y-1112D01*
X531Y-1111D01*
X532Y-1110D01*
Y-1109D01*
X531Y-1107D01*
X531Y-1105D01*
X530Y-1102D01*
X529Y-1099D01*
X527Y-1097D01*
X525Y-1095D01*
X524Y-1094D01*
X523Y-1093D01*
X522Y-1093D01*
X522D01*
X518Y-1091D01*
X514Y-1089D01*
X510Y-1088D01*
X506Y-1087D01*
X503Y-1087D01*
X501Y-1087D01*
X500Y-1087D01*
X497D01*
X499Y-1080D01*
X503Y-1080D01*
X507Y-1079D01*
X510Y-1078D01*
X512Y-1077D01*
X515Y-1077D01*
X516Y-1076D01*
X517Y-1075D01*
X518Y-1075D01*
X519Y-1074D01*
X520Y-1073D01*
X523Y-1071D01*
X524Y-1069D01*
X525Y-1067D01*
X526Y-1065D01*
X526Y-1063D01*
X526Y-1062D01*
Y-1062D01*
Y-1062D01*
X526Y-1059D01*
X525Y-1057D01*
X524Y-1054D01*
X523Y-1053D01*
X523Y-1051D01*
X522Y-1050D01*
X521Y-1050D01*
X521Y-1049D01*
X519Y-1048D01*
X517Y-1047D01*
X514Y-1046D01*
X512Y-1045D01*
X510Y-1045D01*
X509Y-1045D01*
X508Y-1045D01*
X508D01*
X505Y-1045D01*
X503Y-1045D01*
X501Y-1046D01*
X499Y-1047D01*
X498Y-1048D01*
X497Y-1048D01*
X496Y-1049D01*
X496Y-1049D01*
X494Y-1051D01*
X493Y-1052D01*
X492Y-1054D01*
X491Y-1056D01*
X490Y-1057D01*
X490Y-1058D01*
X490Y-1059D01*
Y-1059D01*
X478Y-1057D01*
X479Y-1053D01*
X480Y-1050D01*
X482Y-1047D01*
X483Y-1045D01*
X485Y-1043D01*
X486Y-1042D01*
X487Y-1041D01*
X488Y-1040D01*
X491Y-1038D01*
X494Y-1036D01*
X498Y-1035D01*
X501Y-1034D01*
X503Y-1034D01*
X505Y-1033D01*
X506D01*
X507Y-1033D01*
X508D01*
X510Y-1033D01*
D02*
G37*
G36*
X1009Y-1100D02*
X1009Y-1103D01*
X1009Y-1107D01*
X1008Y-1110D01*
X1007Y-1113D01*
X1007Y-1115D01*
X1006Y-1118D01*
X1005Y-1120D01*
X1004Y-1122D01*
X1003Y-1124D01*
X1002Y-1125D01*
X1001Y-1127D01*
X1000Y-1128D01*
X999Y-1129D01*
X999Y-1130D01*
X998Y-1130D01*
X998Y-1130D01*
X996Y-1132D01*
X994Y-1134D01*
X992Y-1135D01*
X990Y-1137D01*
X987Y-1138D01*
X985Y-1139D01*
X981Y-1140D01*
X979Y-1141D01*
X977Y-1141D01*
X975Y-1142D01*
X974Y-1142D01*
X972D01*
X971Y-1142D01*
X971D01*
X968Y-1142D01*
X965Y-1141D01*
X962Y-1141D01*
X959Y-1140D01*
X957Y-1139D01*
X954Y-1138D01*
X952Y-1137D01*
X951Y-1136D01*
X949Y-1135D01*
X947Y-1134D01*
X946Y-1133D01*
X945Y-1132D01*
X944Y-1131D01*
X943Y-1131D01*
X943Y-1130D01*
X943Y-1130D01*
X941Y-1128D01*
X939Y-1126D01*
X938Y-1123D01*
X937Y-1121D01*
X936Y-1118D01*
X935Y-1116D01*
X933Y-1111D01*
X933Y-1109D01*
X933Y-1106D01*
X932Y-1105D01*
X932Y-1103D01*
Y-1102D01*
X932Y-1101D01*
Y-1100D01*
Y-1100D01*
Y-1036D01*
X944D01*
Y-1100D01*
X944Y-1105D01*
X945Y-1109D01*
X946Y-1113D01*
X948Y-1116D01*
X949Y-1118D01*
X950Y-1119D01*
X950Y-1120D01*
X951Y-1121D01*
X951Y-1121D01*
X951Y-1122D01*
Y-1122D01*
X953Y-1123D01*
X954Y-1125D01*
X958Y-1126D01*
X961Y-1128D01*
X964Y-1129D01*
X966Y-1130D01*
X968Y-1130D01*
X969Y-1130D01*
X969D01*
X970Y-1130D01*
X971D01*
X973Y-1130D01*
X975Y-1130D01*
X979Y-1129D01*
X982Y-1128D01*
X985Y-1126D01*
X987Y-1124D01*
X988Y-1123D01*
X990Y-1122D01*
X990Y-1122D01*
X992Y-1118D01*
X994Y-1115D01*
X995Y-1111D01*
X997Y-1108D01*
X997Y-1105D01*
X997Y-1103D01*
X997Y-1102D01*
X998Y-1101D01*
Y-1100D01*
Y-1100D01*
Y-1100D01*
Y-1036D01*
X1009D01*
Y-1100D01*
D02*
G37*
G36*
X1095Y-1048D02*
X1065D01*
Y-1141D01*
X1053D01*
Y-1048D01*
X1023D01*
Y-1036D01*
X1095D01*
Y-1048D01*
D02*
G37*
G36*
X319Y-1047D02*
X269D01*
Y-1081D01*
X312D01*
Y-1092D01*
X269D01*
Y-1129D01*
X319D01*
Y-1141D01*
X258D01*
Y-1036D01*
X319D01*
Y-1047D01*
D02*
G37*
G36*
X146Y-1141D02*
X134D01*
X126Y-1123D01*
X69D01*
X61Y-1141D01*
X48D01*
X97Y-1034D01*
X98D01*
X146Y-1141D01*
D02*
G37*
G36*
X43Y-1047D02*
X-7D01*
Y-1082D01*
X37D01*
Y-1094D01*
X-7D01*
Y-1141D01*
X-18D01*
Y-1036D01*
X43D01*
Y-1047D01*
D02*
G37*
G36*
X-72Y-1036D02*
X-70Y-1036D01*
X-65Y-1038D01*
X-61Y-1039D01*
X-59Y-1040D01*
X-57Y-1041D01*
X-55Y-1042D01*
X-54Y-1043D01*
X-53Y-1044D01*
X-52Y-1044D01*
X-51Y-1045D01*
X-51Y-1045D01*
X-50Y-1046D01*
X-50Y-1046D01*
X-48Y-1048D01*
X-47Y-1049D01*
X-45Y-1051D01*
X-44Y-1053D01*
X-42Y-1057D01*
X-41Y-1061D01*
X-40Y-1064D01*
X-40Y-1066D01*
X-40Y-1067D01*
Y-1068D01*
X-40Y-1069D01*
Y-1069D01*
Y-1069D01*
X-40Y-1073D01*
X-41Y-1077D01*
X-42Y-1080D01*
X-43Y-1082D01*
X-44Y-1085D01*
X-45Y-1086D01*
X-46Y-1087D01*
X-46Y-1087D01*
Y-1088D01*
X-48Y-1090D01*
X-51Y-1093D01*
X-53Y-1094D01*
X-56Y-1096D01*
X-58Y-1097D01*
X-60Y-1098D01*
X-61Y-1098D01*
X-61Y-1098D01*
X-62Y-1099D01*
X-62D01*
X-31Y-1141D01*
X-45D01*
X-74Y-1100D01*
X-94D01*
Y-1141D01*
X-106D01*
X-106Y-1036D01*
X-75D01*
X-72Y-1036D01*
D02*
G37*
G36*
X-125Y-1047D02*
X-175D01*
Y-1081D01*
X-131D01*
Y-1092D01*
X-175D01*
Y-1129D01*
X-125D01*
Y-1141D01*
X-186D01*
Y-1036D01*
X-125D01*
Y-1047D01*
D02*
G37*
G36*
X-201Y-1048D02*
X-231D01*
Y-1141D01*
X-243D01*
Y-1048D01*
X-273D01*
Y-1036D01*
X-201D01*
Y-1048D01*
D02*
G37*
G36*
X-394Y-1141D02*
X-406D01*
Y-1036D01*
X-394D01*
Y-1141D01*
D02*
G37*
G36*
X-499Y-1036D02*
X-496Y-1036D01*
X-491Y-1038D01*
X-487Y-1039D01*
X-485Y-1040D01*
X-483Y-1041D01*
X-482Y-1042D01*
X-480Y-1043D01*
X-479Y-1044D01*
X-478Y-1044D01*
X-478Y-1045D01*
X-477Y-1045D01*
X-477Y-1046D01*
X-477Y-1046D01*
X-475Y-1048D01*
X-473Y-1049D01*
X-472Y-1051D01*
X-471Y-1053D01*
X-469Y-1057D01*
X-468Y-1061D01*
X-467Y-1064D01*
X-467Y-1066D01*
X-466Y-1067D01*
Y-1068D01*
X-466Y-1069D01*
Y-1069D01*
Y-1069D01*
X-467Y-1073D01*
X-467Y-1077D01*
X-468Y-1080D01*
X-469Y-1082D01*
X-470Y-1085D01*
X-471Y-1086D01*
X-472Y-1087D01*
X-472Y-1087D01*
Y-1088D01*
X-475Y-1090D01*
X-477Y-1093D01*
X-480Y-1094D01*
X-483Y-1096D01*
X-485Y-1097D01*
X-487Y-1098D01*
X-487Y-1098D01*
X-488Y-1098D01*
X-488Y-1099D01*
X-488D01*
X-457Y-1141D01*
X-472D01*
X-501Y-1100D01*
X-521D01*
Y-1141D01*
X-532D01*
X-532Y-1036D01*
X-502D01*
X-499Y-1036D01*
D02*
G37*
G36*
X-857Y-1047D02*
X-907D01*
Y-1081D01*
X-864D01*
Y-1092D01*
X-907D01*
Y-1129D01*
X-857D01*
Y-1141D01*
X-919D01*
Y-1036D01*
X-857D01*
Y-1047D01*
D02*
G37*
G36*
X-1093Y-1036D02*
X-1090Y-1036D01*
X-1085Y-1038D01*
X-1081Y-1039D01*
X-1079Y-1040D01*
X-1078Y-1041D01*
X-1076Y-1042D01*
X-1075Y-1043D01*
X-1074Y-1044D01*
X-1073Y-1044D01*
X-1072Y-1045D01*
X-1071Y-1045D01*
X-1071Y-1046D01*
X-1071Y-1046D01*
X-1069Y-1048D01*
X-1067Y-1049D01*
X-1066Y-1051D01*
X-1065Y-1053D01*
X-1063Y-1057D01*
X-1062Y-1061D01*
X-1061Y-1064D01*
X-1061Y-1066D01*
X-1061Y-1067D01*
Y-1068D01*
X-1060Y-1069D01*
Y-1069D01*
Y-1069D01*
X-1061Y-1073D01*
X-1062Y-1077D01*
X-1062Y-1080D01*
X-1064Y-1082D01*
X-1065Y-1085D01*
X-1066Y-1086D01*
X-1066Y-1087D01*
X-1067Y-1087D01*
Y-1088D01*
X-1069Y-1090D01*
X-1072Y-1093D01*
X-1074Y-1094D01*
X-1077Y-1096D01*
X-1079Y-1097D01*
X-1081Y-1098D01*
X-1082Y-1098D01*
X-1082Y-1098D01*
X-1082Y-1099D01*
X-1082D01*
X-1051Y-1141D01*
X-1066D01*
X-1095Y-1100D01*
X-1115D01*
Y-1141D01*
X-1127D01*
X-1127Y-1036D01*
X-1096D01*
X-1093Y-1036D01*
D02*
G37*
G36*
X868Y-1035D02*
X873Y-1036D01*
X878Y-1037D01*
X882Y-1038D01*
X884Y-1039D01*
X885Y-1039D01*
X886Y-1040D01*
X888Y-1041D01*
X888Y-1041D01*
X889Y-1041D01*
X890Y-1042D01*
X890D01*
X894Y-1045D01*
X898Y-1048D01*
X901Y-1051D01*
X904Y-1054D01*
X906Y-1057D01*
X907Y-1058D01*
X908Y-1059D01*
X908Y-1060D01*
X909Y-1061D01*
X909Y-1061D01*
Y-1061D01*
X911Y-1066D01*
X913Y-1070D01*
X914Y-1075D01*
X915Y-1079D01*
X916Y-1081D01*
X916Y-1083D01*
X916Y-1084D01*
Y-1086D01*
X916Y-1087D01*
Y-1088D01*
Y-1088D01*
Y-1088D01*
X916Y-1094D01*
X915Y-1099D01*
X914Y-1103D01*
X913Y-1107D01*
X912Y-1109D01*
X911Y-1111D01*
X911Y-1112D01*
X910Y-1113D01*
X910Y-1114D01*
X909Y-1115D01*
X909Y-1115D01*
Y-1115D01*
X906Y-1120D01*
X903Y-1123D01*
X900Y-1127D01*
X897Y-1129D01*
X894Y-1132D01*
X893Y-1133D01*
X892Y-1133D01*
X891Y-1134D01*
X890Y-1134D01*
X890Y-1135D01*
X890D01*
X885Y-1137D01*
X880Y-1139D01*
X876Y-1140D01*
X872Y-1141D01*
X870Y-1141D01*
X868Y-1141D01*
X866Y-1142D01*
X865D01*
X864Y-1142D01*
X862D01*
X857Y-1141D01*
X852Y-1141D01*
X847Y-1139D01*
X843Y-1138D01*
X842Y-1137D01*
X840Y-1137D01*
X839Y-1136D01*
X837Y-1136D01*
X837Y-1135D01*
X836Y-1135D01*
X836Y-1135D01*
X835D01*
X831Y-1132D01*
X827Y-1129D01*
X824Y-1125D01*
X821Y-1122D01*
X819Y-1120D01*
X818Y-1118D01*
X818Y-1117D01*
X817Y-1117D01*
X817Y-1116D01*
X816Y-1116D01*
X816Y-1115D01*
X814Y-1111D01*
X812Y-1106D01*
X811Y-1102D01*
X810Y-1097D01*
X810Y-1095D01*
X809Y-1094D01*
X809Y-1092D01*
X809Y-1091D01*
X809Y-1090D01*
Y-1089D01*
Y-1089D01*
Y-1088D01*
X809Y-1083D01*
X810Y-1078D01*
X811Y-1073D01*
X812Y-1071D01*
X813Y-1069D01*
X813Y-1067D01*
X814Y-1066D01*
X814Y-1064D01*
X815Y-1063D01*
X816Y-1062D01*
X816Y-1062D01*
X816Y-1061D01*
Y-1061D01*
X819Y-1057D01*
X822Y-1053D01*
X826Y-1050D01*
X829Y-1047D01*
X831Y-1045D01*
X833Y-1044D01*
X834Y-1043D01*
X834Y-1042D01*
X835Y-1042D01*
X835Y-1042D01*
X836D01*
X840Y-1039D01*
X845Y-1038D01*
X849Y-1036D01*
X854Y-1035D01*
X856Y-1035D01*
X857Y-1035D01*
X859Y-1035D01*
X860D01*
X861Y-1034D01*
X863D01*
X868Y-1035D01*
D02*
G37*
G36*
X-597D02*
X-592Y-1036D01*
X-588Y-1037D01*
X-584Y-1038D01*
X-582Y-1039D01*
X-580Y-1039D01*
X-579Y-1040D01*
X-578Y-1041D01*
X-577Y-1041D01*
X-576Y-1041D01*
X-576Y-1042D01*
X-576D01*
X-571Y-1045D01*
X-568Y-1048D01*
X-564Y-1051D01*
X-561Y-1054D01*
X-559Y-1057D01*
X-558Y-1058D01*
X-558Y-1059D01*
X-557Y-1060D01*
X-557Y-1061D01*
X-556Y-1061D01*
Y-1061D01*
X-554Y-1066D01*
X-552Y-1070D01*
X-551Y-1075D01*
X-550Y-1079D01*
X-550Y-1081D01*
X-549Y-1083D01*
X-549Y-1084D01*
Y-1086D01*
X-549Y-1087D01*
Y-1088D01*
Y-1088D01*
Y-1088D01*
X-549Y-1094D01*
X-550Y-1099D01*
X-551Y-1103D01*
X-553Y-1107D01*
X-553Y-1109D01*
X-554Y-1111D01*
X-555Y-1112D01*
X-555Y-1113D01*
X-556Y-1114D01*
X-556Y-1115D01*
X-556Y-1115D01*
Y-1115D01*
X-559Y-1120D01*
X-562Y-1123D01*
X-566Y-1127D01*
X-569Y-1129D01*
X-571Y-1132D01*
X-573Y-1133D01*
X-574Y-1133D01*
X-574Y-1134D01*
X-575Y-1134D01*
X-576Y-1135D01*
X-576D01*
X-580Y-1137D01*
X-585Y-1139D01*
X-590Y-1140D01*
X-594Y-1141D01*
X-596Y-1141D01*
X-597Y-1141D01*
X-599Y-1142D01*
X-600D01*
X-602Y-1142D01*
X-603D01*
X-608Y-1141D01*
X-613Y-1141D01*
X-618Y-1139D01*
X-622Y-1138D01*
X-624Y-1137D01*
X-625Y-1137D01*
X-627Y-1136D01*
X-628Y-1136D01*
X-629Y-1135D01*
X-629Y-1135D01*
X-630Y-1135D01*
X-630D01*
X-634Y-1132D01*
X-638Y-1129D01*
X-641Y-1125D01*
X-644Y-1122D01*
X-646Y-1120D01*
X-647Y-1118D01*
X-648Y-1117D01*
X-648Y-1117D01*
X-649Y-1116D01*
X-649Y-1116D01*
X-649Y-1115D01*
X-652Y-1111D01*
X-653Y-1106D01*
X-655Y-1102D01*
X-655Y-1097D01*
X-656Y-1095D01*
X-656Y-1094D01*
X-656Y-1092D01*
X-656Y-1091D01*
X-657Y-1090D01*
Y-1089D01*
Y-1089D01*
Y-1088D01*
X-656Y-1083D01*
X-655Y-1078D01*
X-654Y-1073D01*
X-653Y-1071D01*
X-653Y-1069D01*
X-652Y-1067D01*
X-651Y-1066D01*
X-651Y-1064D01*
X-650Y-1063D01*
X-650Y-1062D01*
X-650Y-1062D01*
X-649Y-1061D01*
Y-1061D01*
X-646Y-1057D01*
X-643Y-1053D01*
X-640Y-1050D01*
X-637Y-1047D01*
X-634Y-1045D01*
X-633Y-1044D01*
X-632Y-1043D01*
X-631Y-1042D01*
X-630Y-1042D01*
X-630Y-1042D01*
X-630D01*
X-625Y-1039D01*
X-621Y-1038D01*
X-616Y-1036D01*
X-612Y-1035D01*
X-610Y-1035D01*
X-608Y-1035D01*
X-607Y-1035D01*
X-605D01*
X-604Y-1034D01*
X-603D01*
X-597Y-1035D01*
D02*
G37*
G36*
X-299Y-1114D02*
Y-1036D01*
X-288D01*
Y-1142D01*
X-288D01*
X-360Y-1063D01*
Y-1141D01*
X-372D01*
Y-1034D01*
X-371D01*
X-299Y-1114D01*
D02*
G37*
G36*
X-766D02*
Y-1036D01*
X-754D01*
Y-1142D01*
X-755D01*
X-827Y-1063D01*
Y-1141D01*
X-838D01*
Y-1034D01*
X-838D01*
X-766Y-1114D01*
D02*
G37*
G36*
X567Y-1126D02*
X568Y-1126D01*
X570Y-1127D01*
X571Y-1128D01*
X572Y-1128D01*
X572Y-1128D01*
X572Y-1129D01*
X573Y-1129D01*
X573Y-1131D01*
X574Y-1133D01*
X574Y-1134D01*
X574Y-1134D01*
Y-1135D01*
Y-1135D01*
X574Y-1136D01*
X574Y-1137D01*
X573Y-1139D01*
X573Y-1140D01*
X572Y-1140D01*
X572Y-1140D01*
X572Y-1141D01*
X571Y-1141D01*
X570Y-1142D01*
X568Y-1143D01*
X567Y-1143D01*
X566Y-1143D01*
X566D01*
X565Y-1143D01*
X563Y-1143D01*
X562Y-1142D01*
X561Y-1141D01*
X560Y-1141D01*
X560Y-1141D01*
X560Y-1141D01*
X559Y-1140D01*
X558Y-1139D01*
X558Y-1137D01*
X557Y-1136D01*
X557Y-1135D01*
Y-1135D01*
Y-1135D01*
X557Y-1133D01*
X558Y-1132D01*
X559Y-1130D01*
X559Y-1130D01*
X559Y-1129D01*
X560Y-1129D01*
X560Y-1129D01*
X561Y-1128D01*
X562Y-1127D01*
X564Y-1126D01*
X565Y-1126D01*
X565Y-1126D01*
X566D01*
X567Y-1126D01*
D02*
G37*
G36*
X-1084Y136D02*
X-1150D01*
Y103D01*
X-1166D01*
Y152D01*
X-1084D01*
Y136D01*
D02*
G37*
G36*
X-1223Y98D02*
X-1219Y97D01*
X-1215Y96D01*
X-1213Y96D01*
X-1212Y95D01*
X-1211Y95D01*
X-1209Y94D01*
X-1208Y94D01*
X-1207Y93D01*
X-1206Y93D01*
X-1206Y92D01*
X-1206Y92D01*
X-1206D01*
X-1202Y90D01*
X-1199Y87D01*
X-1196Y85D01*
X-1194Y82D01*
X-1192Y80D01*
X-1192Y79D01*
X-1191Y78D01*
X-1191Y78D01*
X-1190Y77D01*
X-1190Y77D01*
Y77D01*
X-1188Y73D01*
X-1187Y69D01*
X-1186Y66D01*
X-1185Y62D01*
X-1185Y61D01*
X-1184Y59D01*
X-1184Y58D01*
Y57D01*
X-1184Y56D01*
Y55D01*
X-1184Y51D01*
X-1185Y47D01*
X-1186Y43D01*
X-1187Y41D01*
X-1187Y40D01*
X-1188Y38D01*
X-1188Y37D01*
X-1189Y36D01*
X-1189Y35D01*
X-1190Y34D01*
X-1190Y34D01*
X-1190Y34D01*
X-1190Y33D01*
X-1192Y30D01*
X-1195Y27D01*
X-1197Y24D01*
X-1200Y22D01*
X-1202Y20D01*
X-1203Y20D01*
X-1204Y19D01*
X-1205Y19D01*
X-1205Y18D01*
X-1205Y18D01*
X-1206D01*
X-1209Y16D01*
X-1213Y15D01*
X-1217Y14D01*
X-1220Y13D01*
X-1221Y13D01*
X-1223Y12D01*
X-1224Y12D01*
X-1225D01*
X-1226Y12D01*
X-1227D01*
X-1227D01*
X-1227D01*
X-1231Y12D01*
X-1236Y13D01*
X-1239Y14D01*
X-1241Y15D01*
X-1242Y15D01*
X-1244Y16D01*
X-1245Y16D01*
X-1246Y17D01*
X-1247Y17D01*
X-1248Y18D01*
X-1248Y18D01*
X-1249Y18D01*
X-1249Y18D01*
X-1252Y20D01*
X-1255Y23D01*
X-1258Y25D01*
X-1260Y28D01*
X-1262Y30D01*
X-1262Y31D01*
X-1263Y32D01*
X-1263Y33D01*
X-1264Y33D01*
X-1264Y33D01*
X-1264Y34D01*
X-1266Y37D01*
X-1267Y41D01*
X-1268Y45D01*
X-1269Y48D01*
X-1269Y49D01*
X-1269Y51D01*
X-1270Y52D01*
Y53D01*
X-1270Y54D01*
Y55D01*
X-1269Y59D01*
X-1269Y64D01*
X-1268Y67D01*
X-1267Y69D01*
X-1267Y70D01*
X-1266Y72D01*
X-1266Y73D01*
X-1265Y74D01*
X-1265Y75D01*
X-1265Y76D01*
X-1264Y76D01*
X-1264Y77D01*
Y77D01*
X-1262Y80D01*
X-1259Y83D01*
X-1257Y86D01*
X-1254Y88D01*
X-1252Y90D01*
X-1251Y91D01*
X-1250Y91D01*
X-1250Y92D01*
X-1249Y92D01*
X-1249Y92D01*
X-1249Y92D01*
X-1245Y94D01*
X-1241Y96D01*
X-1238Y96D01*
X-1234Y97D01*
X-1233Y97D01*
X-1231Y98D01*
X-1230Y98D01*
X-1229Y98D01*
X-1228Y98D01*
X-1228D01*
X-1227D01*
X-1227D01*
X-1223Y98D01*
D02*
G37*
G36*
X-1121Y97D02*
X-1116Y96D01*
X-1113Y95D01*
X-1111Y94D01*
X-1110Y94D01*
X-1108Y93D01*
X-1107Y93D01*
X-1106Y92D01*
X-1105Y92D01*
X-1104Y92D01*
X-1104Y91D01*
X-1103Y91D01*
X-1103D01*
X-1100Y89D01*
X-1097Y86D01*
X-1094Y84D01*
X-1092Y81D01*
X-1090Y79D01*
X-1090Y78D01*
X-1089Y77D01*
X-1088Y77D01*
X-1088Y76D01*
X-1088Y76D01*
Y76D01*
X-1086Y72D01*
X-1085Y68D01*
X-1083Y65D01*
X-1083Y61D01*
X-1082Y60D01*
X-1082Y58D01*
X-1082Y57D01*
Y56D01*
X-1082Y55D01*
Y54D01*
X-1082Y50D01*
X-1083Y46D01*
X-1084Y42D01*
X-1084Y40D01*
X-1085Y39D01*
X-1086Y37D01*
X-1086Y36D01*
X-1087Y35D01*
X-1087Y34D01*
X-1087Y33D01*
X-1088Y33D01*
X-1088Y32D01*
X-1088Y32D01*
X-1090Y29D01*
X-1093Y26D01*
X-1095Y23D01*
X-1098Y21D01*
X-1100Y19D01*
X-1101Y18D01*
X-1102Y18D01*
X-1102Y17D01*
X-1103Y17D01*
X-1103Y17D01*
X-1103D01*
X-1107Y15D01*
X-1111Y13D01*
X-1114Y13D01*
X-1118Y12D01*
X-1119Y12D01*
X-1121Y11D01*
X-1122Y11D01*
X-1123D01*
X-1124Y11D01*
X-1124D01*
X-1125D01*
X-1125D01*
X-1129Y11D01*
X-1133Y12D01*
X-1137Y13D01*
X-1139Y13D01*
X-1140Y14D01*
X-1142Y15D01*
X-1143Y15D01*
X-1144Y16D01*
X-1145Y16D01*
X-1146Y16D01*
X-1146Y17D01*
X-1146Y17D01*
X-1147Y17D01*
X-1150Y19D01*
X-1153Y22D01*
X-1156Y24D01*
X-1158Y27D01*
X-1159Y29D01*
X-1160Y30D01*
X-1161Y31D01*
X-1161Y31D01*
X-1162Y32D01*
X-1162Y32D01*
X-1162Y32D01*
X-1164Y36D01*
X-1165Y40D01*
X-1166Y43D01*
X-1167Y47D01*
X-1167Y48D01*
X-1167Y50D01*
X-1167Y51D01*
Y52D01*
X-1168Y53D01*
Y54D01*
X-1167Y58D01*
X-1167Y62D01*
X-1166Y66D01*
X-1165Y68D01*
X-1165Y69D01*
X-1164Y71D01*
X-1164Y72D01*
X-1163Y73D01*
X-1163Y74D01*
X-1162Y75D01*
X-1162Y75D01*
X-1162Y75D01*
Y76D01*
X-1159Y79D01*
X-1157Y82D01*
X-1154Y85D01*
X-1152Y87D01*
X-1150Y89D01*
X-1149Y89D01*
X-1148Y90D01*
X-1148Y90D01*
X-1147Y91D01*
X-1147Y91D01*
X-1147Y91D01*
X-1143Y93D01*
X-1139Y94D01*
X-1135Y95D01*
X-1132Y96D01*
X-1131Y96D01*
X-1129Y96D01*
X-1128Y97D01*
X-1127Y97D01*
X-1126Y97D01*
X-1125D01*
X-1125D01*
X-1125D01*
X-1121Y97D01*
D02*
G37*
G36*
X-1186Y-15D02*
X-1238D01*
X-1240Y-15D01*
X-1243Y-15D01*
X-1244Y-16D01*
X-1246Y-17D01*
X-1247Y-18D01*
X-1248Y-18D01*
X-1249Y-19D01*
X-1249Y-19D01*
X-1250Y-21D01*
X-1252Y-23D01*
X-1252Y-24D01*
X-1253Y-26D01*
X-1253Y-28D01*
X-1253Y-29D01*
X-1253Y-30D01*
Y-30D01*
X-1253Y-32D01*
X-1253Y-34D01*
X-1252Y-36D01*
X-1251Y-37D01*
X-1250Y-39D01*
X-1250Y-40D01*
X-1249Y-40D01*
X-1249Y-40D01*
X-1247Y-42D01*
X-1245Y-43D01*
X-1244Y-44D01*
X-1242Y-44D01*
X-1240Y-45D01*
X-1239Y-45D01*
X-1238Y-45D01*
X-1238D01*
X-1238D01*
X-1186D01*
Y-62D01*
X-1238D01*
X-1240Y-62D01*
X-1243Y-61D01*
X-1245Y-61D01*
X-1248Y-60D01*
X-1250Y-60D01*
X-1252Y-59D01*
X-1253Y-58D01*
X-1255Y-57D01*
X-1256Y-56D01*
X-1258Y-55D01*
X-1259Y-55D01*
X-1259Y-54D01*
X-1260Y-53D01*
X-1261Y-53D01*
X-1261Y-53D01*
X-1261Y-52D01*
X-1263Y-51D01*
X-1264Y-49D01*
X-1265Y-47D01*
X-1266Y-45D01*
X-1267Y-43D01*
X-1268Y-41D01*
X-1269Y-38D01*
X-1269Y-36D01*
X-1269Y-35D01*
X-1270Y-33D01*
X-1270Y-32D01*
Y-31D01*
X-1270Y-30D01*
Y-30D01*
X-1270Y-27D01*
X-1270Y-25D01*
X-1269Y-23D01*
X-1269Y-21D01*
X-1268Y-19D01*
X-1267Y-17D01*
X-1266Y-15D01*
X-1266Y-13D01*
X-1265Y-12D01*
X-1264Y-11D01*
X-1263Y-10D01*
X-1263Y-9D01*
X-1262Y-8D01*
X-1262Y-8D01*
X-1261Y-7D01*
X-1261Y-7D01*
X-1259Y-6D01*
X-1258Y-4D01*
X-1256Y-3D01*
X-1254Y-2D01*
X-1252Y-1D01*
X-1250Y-0D01*
X-1246Y1D01*
X-1244Y1D01*
X-1243Y1D01*
X-1241Y2D01*
X-1240Y2D01*
X-1239D01*
X-1239Y2D01*
X-1238D01*
X-1238D01*
X-1186D01*
Y-15D01*
D02*
G37*
G36*
X-1121Y3D02*
X-1116Y3D01*
X-1113Y2D01*
X-1111Y1D01*
X-1110Y1D01*
X-1108Y0D01*
X-1107Y-0D01*
X-1106Y-1D01*
X-1105Y-1D01*
X-1104Y-2D01*
X-1104Y-2D01*
X-1103Y-2D01*
X-1103D01*
X-1100Y-5D01*
X-1097Y-7D01*
X-1094Y-10D01*
X-1092Y-12D01*
X-1090Y-14D01*
X-1090Y-15D01*
X-1089Y-16D01*
X-1088Y-17D01*
X-1088Y-17D01*
X-1088Y-17D01*
Y-18D01*
X-1086Y-21D01*
X-1085Y-25D01*
X-1083Y-29D01*
X-1083Y-32D01*
X-1082Y-34D01*
X-1082Y-35D01*
X-1082Y-36D01*
Y-37D01*
X-1082Y-38D01*
Y-39D01*
X-1082Y-42D01*
X-1082Y-45D01*
X-1083Y-48D01*
X-1084Y-50D01*
X-1084Y-52D01*
X-1085Y-53D01*
X-1085Y-54D01*
X-1085Y-54D01*
X-1085Y-55D01*
X-1085Y-55D01*
Y-55D01*
X-1087Y-58D01*
X-1088Y-61D01*
X-1090Y-63D01*
X-1091Y-65D01*
X-1093Y-67D01*
X-1094Y-68D01*
X-1094Y-69D01*
X-1095Y-69D01*
X-1095D01*
X-1109Y-60D01*
X-1107Y-58D01*
X-1105Y-57D01*
X-1104Y-55D01*
X-1103Y-53D01*
X-1102Y-52D01*
X-1102Y-51D01*
X-1101Y-50D01*
X-1101Y-50D01*
X-1100Y-48D01*
X-1100Y-46D01*
X-1099Y-44D01*
X-1099Y-42D01*
X-1099Y-41D01*
X-1099Y-40D01*
Y-39D01*
X-1099Y-37D01*
X-1099Y-34D01*
X-1100Y-32D01*
X-1100Y-30D01*
X-1101Y-29D01*
X-1101Y-28D01*
X-1102Y-27D01*
X-1102Y-27D01*
X-1103Y-25D01*
X-1105Y-23D01*
X-1106Y-21D01*
X-1108Y-20D01*
X-1109Y-19D01*
X-1110Y-18D01*
X-1111Y-17D01*
X-1111Y-17D01*
X-1111D01*
X-1114Y-16D01*
X-1116Y-15D01*
X-1118Y-14D01*
X-1120Y-14D01*
X-1122Y-13D01*
X-1124Y-13D01*
X-1124Y-13D01*
X-1125D01*
X-1125D01*
X-1125D01*
X-1127Y-13D01*
X-1129Y-14D01*
X-1133Y-14D01*
X-1136Y-16D01*
X-1138Y-17D01*
X-1139Y-18D01*
X-1141Y-18D01*
X-1141Y-19D01*
X-1142Y-20D01*
X-1143Y-20D01*
X-1143Y-20D01*
X-1143Y-21D01*
X-1144Y-21D01*
X-1145Y-22D01*
X-1146Y-24D01*
X-1147Y-25D01*
X-1148Y-27D01*
X-1149Y-30D01*
X-1150Y-33D01*
X-1151Y-36D01*
X-1151Y-37D01*
X-1151Y-38D01*
Y-39D01*
X-1151Y-40D01*
Y-40D01*
X-1151Y-44D01*
X-1150Y-47D01*
X-1150Y-49D01*
X-1149Y-51D01*
X-1148Y-53D01*
X-1148Y-54D01*
X-1147Y-55D01*
X-1147Y-55D01*
X-1145Y-57D01*
X-1143Y-58D01*
X-1141Y-60D01*
X-1139Y-60D01*
X-1138Y-61D01*
X-1136Y-61D01*
X-1136D01*
X-1135Y-61D01*
X-1135D01*
X-1135D01*
Y-40D01*
X-1120D01*
Y-79D01*
X-1122Y-79D01*
X-1124D01*
X-1125Y-79D01*
X-1125D01*
X-1126D01*
X-1127D01*
X-1127D01*
X-1131Y-79D01*
X-1136Y-78D01*
X-1139Y-77D01*
X-1141Y-77D01*
X-1143Y-76D01*
X-1144Y-76D01*
X-1145Y-75D01*
X-1146Y-75D01*
X-1147Y-75D01*
X-1148Y-74D01*
X-1149Y-74D01*
X-1149Y-74D01*
X-1149D01*
X-1152Y-72D01*
X-1155Y-69D01*
X-1157Y-67D01*
X-1159Y-65D01*
X-1161Y-63D01*
X-1162Y-61D01*
X-1162Y-60D01*
X-1163Y-60D01*
X-1163Y-60D01*
Y-60D01*
X-1164Y-56D01*
X-1166Y-53D01*
X-1167Y-49D01*
X-1167Y-46D01*
X-1167Y-45D01*
X-1167Y-44D01*
X-1168Y-43D01*
Y-42D01*
X-1168Y-41D01*
Y-40D01*
X-1167Y-35D01*
X-1167Y-31D01*
X-1166Y-27D01*
X-1165Y-26D01*
X-1165Y-24D01*
X-1164Y-23D01*
X-1164Y-21D01*
X-1163Y-20D01*
X-1163Y-20D01*
X-1163Y-19D01*
X-1162Y-18D01*
X-1162Y-18D01*
Y-18D01*
X-1160Y-14D01*
X-1157Y-11D01*
X-1155Y-8D01*
X-1152Y-6D01*
X-1150Y-4D01*
X-1149Y-4D01*
X-1148Y-3D01*
X-1148Y-3D01*
X-1147Y-2D01*
X-1147Y-2D01*
X-1147Y-2D01*
X-1143Y-0D01*
X-1139Y1D01*
X-1135Y2D01*
X-1132Y3D01*
X-1131Y3D01*
X-1129Y3D01*
X-1128Y4D01*
X-1127D01*
X-1126Y4D01*
X-1125D01*
X-1125D01*
X-1125D01*
X-1121Y3D01*
D02*
G37*
G36*
X-1084Y-107D02*
X-1166D01*
Y-90D01*
X-1084D01*
Y-107D01*
D02*
G37*
G36*
X-1186Y-128D02*
X-1202D01*
Y-107D01*
X-1268D01*
Y-91D01*
X-1202D01*
Y-70D01*
X-1186D01*
Y-128D01*
D02*
G37*
G36*
X-1121Y-118D02*
X-1117Y-118D01*
X-1113Y-119D01*
X-1110Y-120D01*
X-1108Y-121D01*
X-1107Y-121D01*
X-1106Y-122D01*
X-1105Y-122D01*
X-1104Y-123D01*
X-1104Y-123D01*
X-1104Y-123D01*
X-1103D01*
X-1100Y-126D01*
X-1097Y-128D01*
X-1094Y-131D01*
X-1092Y-133D01*
X-1090Y-135D01*
X-1090Y-136D01*
X-1089Y-137D01*
X-1088Y-138D01*
X-1088Y-138D01*
X-1088Y-139D01*
Y-139D01*
X-1086Y-143D01*
X-1085Y-146D01*
X-1083Y-150D01*
X-1083Y-153D01*
X-1082Y-155D01*
X-1082Y-156D01*
X-1082Y-157D01*
Y-158D01*
X-1082Y-159D01*
Y-160D01*
X-1082Y-163D01*
X-1082Y-166D01*
X-1083Y-169D01*
X-1083Y-171D01*
X-1084Y-173D01*
X-1085Y-174D01*
X-1085Y-175D01*
X-1085Y-175D01*
X-1085Y-175D01*
Y-176D01*
X-1086Y-178D01*
X-1088Y-181D01*
X-1090Y-183D01*
X-1091Y-185D01*
X-1092Y-187D01*
X-1094Y-188D01*
X-1094Y-189D01*
X-1094Y-189D01*
X-1095Y-189D01*
X-1108Y-180D01*
X-1106Y-178D01*
X-1105Y-176D01*
X-1104Y-175D01*
X-1103Y-173D01*
X-1102Y-172D01*
X-1102Y-171D01*
X-1101Y-171D01*
X-1101Y-170D01*
X-1100Y-169D01*
X-1100Y-167D01*
X-1099Y-165D01*
X-1099Y-163D01*
X-1099Y-162D01*
X-1099Y-161D01*
Y-160D01*
X-1099Y-158D01*
X-1099Y-155D01*
X-1100Y-153D01*
X-1101Y-151D01*
X-1101Y-150D01*
X-1102Y-148D01*
X-1102Y-148D01*
X-1102Y-148D01*
Y-147D01*
X-1104Y-145D01*
X-1105Y-143D01*
X-1107Y-142D01*
X-1108Y-140D01*
X-1110Y-139D01*
X-1111Y-139D01*
X-1112Y-138D01*
X-1112Y-138D01*
X-1112D01*
X-1114Y-137D01*
X-1116Y-136D01*
X-1119Y-135D01*
X-1121Y-135D01*
X-1122Y-134D01*
X-1124Y-134D01*
X-1124Y-134D01*
X-1125D01*
X-1125D01*
X-1125D01*
X-1128Y-134D01*
X-1130Y-135D01*
X-1132Y-135D01*
X-1135Y-136D01*
X-1136Y-137D01*
X-1137Y-137D01*
X-1138Y-138D01*
X-1138Y-138D01*
X-1138D01*
X-1140Y-139D01*
X-1142Y-141D01*
X-1144Y-143D01*
X-1145Y-144D01*
X-1146Y-145D01*
X-1147Y-147D01*
X-1148Y-147D01*
X-1148Y-148D01*
X-1149Y-150D01*
X-1150Y-152D01*
X-1150Y-154D01*
X-1151Y-156D01*
X-1151Y-158D01*
X-1151Y-159D01*
X-1151Y-160D01*
Y-160D01*
X-1151Y-162D01*
X-1151Y-164D01*
X-1150Y-166D01*
X-1150Y-167D01*
X-1149Y-169D01*
X-1149Y-170D01*
X-1149Y-170D01*
X-1148Y-171D01*
X-1147Y-172D01*
X-1146Y-174D01*
X-1145Y-176D01*
X-1144Y-177D01*
X-1143Y-178D01*
X-1142Y-179D01*
X-1142Y-180D01*
X-1142Y-180D01*
X-1155Y-189D01*
X-1157Y-187D01*
X-1159Y-185D01*
X-1160Y-183D01*
X-1162Y-181D01*
X-1163Y-179D01*
X-1163Y-178D01*
X-1164Y-177D01*
X-1164Y-177D01*
X-1164Y-177D01*
Y-177D01*
X-1165Y-174D01*
X-1166Y-171D01*
X-1167Y-169D01*
X-1167Y-166D01*
X-1167Y-164D01*
Y-163D01*
X-1168Y-162D01*
Y-161D01*
X-1167Y-156D01*
X-1167Y-152D01*
X-1166Y-148D01*
X-1165Y-147D01*
X-1165Y-145D01*
X-1164Y-144D01*
X-1163Y-143D01*
X-1163Y-141D01*
X-1163Y-140D01*
X-1162Y-140D01*
X-1162Y-139D01*
X-1162Y-139D01*
Y-139D01*
X-1159Y-135D01*
X-1157Y-132D01*
X-1154Y-130D01*
X-1152Y-127D01*
X-1150Y-126D01*
X-1149Y-125D01*
X-1148Y-124D01*
X-1147Y-124D01*
X-1147Y-124D01*
X-1147Y-123D01*
X-1146Y-123D01*
X-1143Y-121D01*
X-1139Y-120D01*
X-1135Y-119D01*
X-1132Y-118D01*
X-1130Y-118D01*
X-1129Y-118D01*
X-1128Y-118D01*
X-1127Y-118D01*
X-1126Y-117D01*
X-1125D01*
X-1125D01*
X-1125D01*
X-1121Y-118D01*
D02*
G37*
G36*
X124Y346D02*
X125Y346D01*
X128Y345D01*
X129Y344D01*
X131Y344D01*
X133Y343D01*
X133Y343D01*
X133Y342D01*
X134Y342D01*
X134Y342D01*
X134Y342D01*
X134Y342D01*
X135Y341D01*
X136Y340D01*
X137Y338D01*
X138Y337D01*
X138Y335D01*
X139Y334D01*
X139Y333D01*
X139Y332D01*
X139Y332D01*
Y332D01*
Y332D01*
Y331D01*
X139Y330D01*
X138Y328D01*
X138Y327D01*
X138Y326D01*
X137Y325D01*
X137Y324D01*
X136Y324D01*
X136Y324D01*
X135Y323D01*
X134Y322D01*
X133Y321D01*
X132Y321D01*
X132Y320D01*
X131Y320D01*
X131Y320D01*
X130Y320D01*
X132Y319D01*
X134Y318D01*
X135Y318D01*
X137Y317D01*
X138Y316D01*
X138Y315D01*
X139Y315D01*
X139Y315D01*
X140Y313D01*
X140Y312D01*
X141Y310D01*
X141Y309D01*
X142Y308D01*
X142Y307D01*
Y306D01*
Y306D01*
Y306D01*
Y306D01*
X142Y304D01*
X141Y302D01*
X141Y301D01*
X141Y300D01*
X140Y299D01*
X140Y298D01*
X139Y298D01*
X139Y297D01*
X138Y296D01*
X137Y295D01*
X136Y294D01*
X135Y293D01*
X134Y292D01*
X133Y292D01*
X133Y292D01*
X133Y291D01*
X133D01*
X131Y291D01*
X129Y290D01*
X128Y290D01*
X126Y289D01*
X125Y289D01*
X124Y289D01*
X123D01*
X121Y289D01*
X118Y290D01*
X116Y290D01*
X115Y291D01*
X113Y292D01*
X113Y292D01*
X112Y292D01*
X112Y293D01*
X112Y293D01*
X111Y293D01*
X111D01*
X110Y295D01*
X108Y296D01*
X107Y298D01*
X106Y299D01*
X105Y301D01*
X105Y302D01*
X105Y302D01*
X105Y302D01*
X105Y303D01*
Y303D01*
X111Y304D01*
X111Y303D01*
X112Y302D01*
X113Y300D01*
X113Y300D01*
X114Y299D01*
X115Y298D01*
X115Y298D01*
X115Y298D01*
X117Y297D01*
X118Y296D01*
X119Y296D01*
X120Y296D01*
X122Y295D01*
X122Y295D01*
X123Y295D01*
X123D01*
X125Y295D01*
X127Y296D01*
X128Y296D01*
X129Y297D01*
X130Y297D01*
X131Y298D01*
X132Y298D01*
X132Y298D01*
X133Y300D01*
X134Y301D01*
X135Y302D01*
X135Y303D01*
X135Y304D01*
X135Y305D01*
X136Y306D01*
Y306D01*
X135Y307D01*
X135Y308D01*
X135Y310D01*
X134Y311D01*
X133Y312D01*
X132Y313D01*
X131Y314D01*
X131Y314D01*
X131Y315D01*
X131D01*
X129Y316D01*
X127Y316D01*
X124Y317D01*
X122Y317D01*
X120Y318D01*
X119Y318D01*
X119Y318D01*
X117D01*
X118Y321D01*
X121Y322D01*
X122Y322D01*
X124Y322D01*
X125Y323D01*
X127Y323D01*
X128Y323D01*
X128Y324D01*
X128Y324D01*
X129Y324D01*
X130Y325D01*
X131Y326D01*
X132Y327D01*
X132Y328D01*
X133Y329D01*
X133Y330D01*
X133Y331D01*
Y331D01*
Y331D01*
X133Y332D01*
X132Y334D01*
X132Y335D01*
X131Y336D01*
X131Y336D01*
X130Y337D01*
X130Y337D01*
X130Y337D01*
X129Y338D01*
X128Y339D01*
X126Y339D01*
X125Y339D01*
X124Y340D01*
X124Y340D01*
X123Y340D01*
X123D01*
X122Y340D01*
X121Y339D01*
X119Y339D01*
X118Y339D01*
X118Y338D01*
X117Y338D01*
X117Y338D01*
X117Y338D01*
X116Y337D01*
X115Y336D01*
X115Y335D01*
X114Y334D01*
X114Y333D01*
X114Y333D01*
X113Y332D01*
Y332D01*
X107Y334D01*
X108Y335D01*
X108Y337D01*
X109Y338D01*
X110Y340D01*
X111Y341D01*
X112Y341D01*
X112Y342D01*
X112Y342D01*
X114Y343D01*
X116Y344D01*
X118Y345D01*
X119Y345D01*
X121Y346D01*
X121Y346D01*
X122D01*
X122Y346D01*
X123D01*
X124Y346D01*
D02*
G37*
G36*
X79Y344D02*
X81Y344D01*
X83Y344D01*
X85Y343D01*
X86Y342D01*
X87Y342D01*
X88Y341D01*
X89Y341D01*
X89Y340D01*
X90Y340D01*
X90Y340D01*
X91Y339D01*
X91Y339D01*
X91Y339D01*
X92Y338D01*
X93Y337D01*
X93Y336D01*
X94Y335D01*
X95Y333D01*
X96Y331D01*
X96Y329D01*
X96Y329D01*
X96Y328D01*
Y328D01*
X96Y327D01*
Y327D01*
Y327D01*
X96Y325D01*
X96Y323D01*
X95Y321D01*
X95Y320D01*
X94Y319D01*
X94Y318D01*
X93Y317D01*
X93Y317D01*
Y317D01*
X92Y316D01*
X90Y315D01*
X89Y314D01*
X88Y313D01*
X87Y312D01*
X86Y312D01*
X85Y312D01*
X85Y312D01*
X85Y312D01*
X85D01*
X101Y289D01*
X93D01*
X78Y311D01*
X68D01*
Y289D01*
X62D01*
X61Y344D01*
X78D01*
X79Y344D01*
D02*
G37*
G36*
X-566Y-348D02*
X-572D01*
Y-295D01*
X-582Y-298D01*
Y-291D01*
X-568Y-287D01*
X-566D01*
Y-348D01*
D02*
G37*
G36*
X-610Y-287D02*
X-609Y-287D01*
X-606Y-288D01*
X-603Y-289D01*
X-602Y-290D01*
X-601Y-290D01*
X-600Y-291D01*
X-599Y-291D01*
X-599Y-292D01*
X-598Y-292D01*
X-598Y-292D01*
X-598Y-293D01*
X-597Y-293D01*
X-597Y-293D01*
X-596Y-294D01*
X-595Y-295D01*
X-594Y-296D01*
X-594Y-297D01*
X-593Y-300D01*
X-592Y-302D01*
X-592Y-304D01*
X-591Y-304D01*
X-591Y-305D01*
Y-306D01*
X-591Y-306D01*
Y-306D01*
Y-307D01*
X-591Y-309D01*
X-592Y-311D01*
X-592Y-313D01*
X-593Y-314D01*
X-594Y-315D01*
X-594Y-316D01*
X-595Y-317D01*
X-595Y-317D01*
Y-317D01*
X-596Y-319D01*
X-598Y-320D01*
X-599Y-321D01*
X-601Y-322D01*
X-602Y-323D01*
X-603Y-323D01*
X-603Y-323D01*
X-604Y-323D01*
X-604Y-323D01*
X-604D01*
X-586Y-348D01*
X-594D01*
X-611Y-324D01*
X-623D01*
Y-348D01*
X-630D01*
X-630Y-287D01*
X-612D01*
X-610Y-287D01*
D02*
G37*
G36*
X-541Y-311D02*
X-540Y-310D01*
X-538Y-310D01*
X-538Y-309D01*
X-537Y-309D01*
X-537Y-309D01*
X-537D01*
X-536Y-309D01*
X-534Y-309D01*
X-534Y-309D01*
X-533D01*
X-531Y-309D01*
X-529Y-309D01*
X-528Y-310D01*
X-526Y-310D01*
X-525Y-310D01*
X-524Y-311D01*
X-524Y-311D01*
X-523Y-311D01*
X-522Y-312D01*
X-520Y-313D01*
X-519Y-314D01*
X-518Y-315D01*
X-517Y-316D01*
X-517Y-317D01*
X-516Y-318D01*
X-516Y-318D01*
Y-318D01*
X-515Y-320D01*
X-515Y-321D01*
X-514Y-323D01*
X-514Y-325D01*
X-514Y-326D01*
X-513Y-327D01*
X-513Y-328D01*
Y-328D01*
Y-328D01*
Y-328D01*
X-513Y-330D01*
X-514Y-332D01*
X-514Y-334D01*
X-515Y-335D01*
X-515Y-336D01*
X-516Y-337D01*
X-516Y-338D01*
X-516Y-338D01*
Y-338D01*
X-517Y-340D01*
X-519Y-341D01*
X-520Y-343D01*
X-521Y-344D01*
X-522Y-344D01*
X-523Y-345D01*
X-524Y-345D01*
X-524Y-346D01*
X-524D01*
X-526Y-346D01*
X-528Y-347D01*
X-529Y-348D01*
X-531Y-348D01*
X-533Y-348D01*
X-534Y-348D01*
X-535D01*
X-536Y-348D01*
X-538Y-348D01*
X-541Y-347D01*
X-544Y-346D01*
X-545Y-346D01*
X-546Y-345D01*
X-547Y-345D01*
X-548Y-344D01*
X-548Y-344D01*
X-549Y-343D01*
X-549Y-343D01*
X-550Y-343D01*
X-550Y-343D01*
X-550Y-343D01*
X-551Y-342D01*
X-552Y-340D01*
X-553Y-339D01*
X-553Y-338D01*
X-554Y-337D01*
X-554Y-336D01*
X-555Y-333D01*
X-556Y-332D01*
X-556Y-331D01*
X-556Y-330D01*
Y-329D01*
X-556Y-329D01*
Y-329D01*
Y-329D01*
X-556Y-326D01*
X-556Y-325D01*
X-556Y-325D01*
X-556Y-324D01*
X-555Y-323D01*
X-555Y-323D01*
Y-323D01*
X-555Y-322D01*
X-554Y-321D01*
X-554Y-319D01*
X-553Y-318D01*
X-553Y-317D01*
X-552Y-317D01*
X-552Y-316D01*
X-552Y-316D01*
X-551Y-314D01*
X-550Y-313D01*
X-549Y-311D01*
X-548Y-309D01*
X-547Y-308D01*
X-546Y-307D01*
X-546Y-306D01*
X-546Y-306D01*
X-546Y-305D01*
X-545Y-305D01*
Y-305D01*
X-545Y-304D01*
X-544Y-302D01*
X-542Y-299D01*
X-540Y-297D01*
X-538Y-294D01*
X-538Y-292D01*
X-537Y-291D01*
X-536Y-290D01*
X-536Y-289D01*
X-535Y-288D01*
X-535Y-288D01*
X-535Y-287D01*
X-535Y-287D01*
X-527D01*
X-541Y-311D01*
D02*
G37*
G36*
X-491Y361D02*
X-489Y360D01*
X-486Y360D01*
X-485Y359D01*
X-483Y359D01*
X-482Y358D01*
X-482Y358D01*
X-481Y358D01*
X-481Y358D01*
X-481Y357D01*
X-481D01*
X-479Y356D01*
X-477Y355D01*
X-476Y353D01*
X-475Y352D01*
X-474Y350D01*
X-473Y349D01*
X-473Y349D01*
X-473Y348D01*
X-473Y348D01*
Y348D01*
X-479Y346D01*
X-480Y347D01*
X-481Y349D01*
X-482Y349D01*
X-483Y350D01*
X-484Y351D01*
X-484Y351D01*
X-485Y352D01*
X-485Y352D01*
X-487Y353D01*
X-488Y353D01*
X-489Y354D01*
X-490Y354D01*
X-491Y354D01*
X-492Y354D01*
X-493Y354D01*
X-493D01*
X-495Y354D01*
X-497Y354D01*
X-499Y353D01*
X-501Y352D01*
X-502Y351D01*
X-503Y351D01*
X-503Y350D01*
X-503Y350D01*
X-505Y349D01*
X-506Y347D01*
X-507Y345D01*
X-508Y343D01*
X-508Y342D01*
X-508Y341D01*
X-508Y340D01*
Y340D01*
X-508Y340D01*
Y339D01*
Y339D01*
X-508Y337D01*
X-508Y335D01*
X-507Y333D01*
X-506Y332D01*
X-505Y331D01*
X-505Y330D01*
X-504Y329D01*
X-504Y329D01*
X-502Y328D01*
X-501Y327D01*
X-499Y326D01*
X-497Y325D01*
X-496Y325D01*
X-495Y325D01*
X-494Y325D01*
X-493D01*
X-492Y325D01*
X-490Y325D01*
X-488Y326D01*
X-487Y326D01*
X-486Y327D01*
X-485Y327D01*
X-484Y328D01*
X-484Y328D01*
X-483Y329D01*
X-482Y330D01*
X-481Y331D01*
X-480Y332D01*
X-479Y333D01*
X-479Y334D01*
X-479Y334D01*
X-479Y334D01*
X-475Y331D01*
X-479Y300D01*
X-510D01*
Y307D01*
X-484D01*
X-482Y324D01*
X-483Y323D01*
X-484Y322D01*
X-485Y321D01*
X-486Y321D01*
X-486Y320D01*
X-487Y320D01*
X-488Y320D01*
X-488Y320D01*
X-489Y319D01*
X-490Y319D01*
X-491Y319D01*
X-492Y318D01*
X-493Y318D01*
X-494D01*
X-496Y318D01*
X-498Y319D01*
X-499Y319D01*
X-501Y319D01*
X-502Y320D01*
X-503Y320D01*
X-505Y321D01*
X-506Y321D01*
X-507Y322D01*
X-507Y322D01*
X-508Y323D01*
X-509Y323D01*
X-509Y324D01*
X-509Y324D01*
X-510Y324D01*
X-510Y324D01*
X-511Y325D01*
X-512Y327D01*
X-512Y328D01*
X-513Y329D01*
X-514Y332D01*
X-515Y334D01*
X-515Y335D01*
X-515Y336D01*
X-515Y337D01*
X-515Y338D01*
X-515Y338D01*
Y339D01*
Y339D01*
Y339D01*
X-515Y341D01*
X-515Y343D01*
X-515Y344D01*
X-514Y346D01*
X-514Y347D01*
X-513Y348D01*
X-513Y350D01*
X-512Y351D01*
X-511Y352D01*
X-511Y353D01*
X-510Y353D01*
X-510Y354D01*
X-510Y354D01*
X-509Y355D01*
X-509Y355D01*
X-509Y355D01*
X-508Y356D01*
X-506Y357D01*
X-505Y358D01*
X-504Y358D01*
X-502Y359D01*
X-501Y359D01*
X-499Y360D01*
X-498Y360D01*
X-497Y361D01*
X-496Y361D01*
X-495Y361D01*
X-494D01*
X-494Y361D01*
X-493D01*
X-491Y361D01*
D02*
G37*
G36*
X-399Y300D02*
X-417D01*
X-419Y300D01*
X-420Y300D01*
X-423Y301D01*
X-425Y302D01*
X-426Y302D01*
X-427Y303D01*
X-428Y303D01*
X-429Y304D01*
X-430Y304D01*
X-430Y305D01*
X-431Y305D01*
X-431Y305D01*
X-431Y306D01*
X-431Y306D01*
X-432Y307D01*
X-433Y308D01*
X-434Y309D01*
X-435Y310D01*
X-436Y312D01*
X-437Y315D01*
X-437Y316D01*
X-437Y317D01*
X-437Y318D01*
Y318D01*
X-437Y319D01*
Y319D01*
Y319D01*
X-437Y321D01*
X-437Y323D01*
X-436Y325D01*
X-436Y327D01*
X-435Y328D01*
X-434Y329D01*
X-434Y330D01*
X-434Y330D01*
Y330D01*
X-432Y331D01*
X-431Y333D01*
X-429Y334D01*
X-428Y335D01*
X-427Y335D01*
X-426Y336D01*
X-425Y336D01*
X-425Y336D01*
X-425Y336D01*
X-425D01*
X-443Y361D01*
X-434D01*
X-417Y337D01*
X-406D01*
Y361D01*
X-399D01*
X-399Y300D01*
D02*
G37*
G36*
X-456Y308D02*
X-447Y311D01*
Y304D01*
X-461Y300D01*
X-463D01*
Y361D01*
X-456D01*
Y308D01*
D02*
G37*
G36*
X-3Y434D02*
X20D01*
Y456D01*
X27D01*
Y434D01*
X34D01*
Y427D01*
X27D01*
Y414D01*
X20D01*
Y427D01*
X-14D01*
X11Y475D01*
X18D01*
X-3Y434D01*
D02*
G37*
G36*
X-21Y414D02*
X-28D01*
Y466D01*
X-37Y463D01*
Y471D01*
X-23Y475D01*
X-21D01*
Y414D01*
D02*
G37*
G36*
X-65Y474D02*
X-64Y474D01*
X-61Y474D01*
X-59Y473D01*
X-57Y472D01*
X-57Y472D01*
X-56Y471D01*
X-55Y471D01*
X-54Y470D01*
X-54Y470D01*
X-53Y469D01*
X-53Y469D01*
X-53Y469D01*
X-53Y469D01*
X-52Y468D01*
X-51Y467D01*
X-50Y466D01*
X-49Y465D01*
X-48Y462D01*
X-47Y460D01*
X-47Y458D01*
X-47Y457D01*
X-47Y457D01*
Y456D01*
X-47Y456D01*
Y455D01*
Y455D01*
X-47Y453D01*
X-47Y451D01*
X-48Y449D01*
X-48Y448D01*
X-49Y446D01*
X-50Y445D01*
X-50Y445D01*
X-50Y445D01*
Y445D01*
X-52Y443D01*
X-53Y442D01*
X-54Y441D01*
X-56Y440D01*
X-57Y439D01*
X-58Y439D01*
X-59Y439D01*
X-59Y438D01*
X-59Y438D01*
X-59D01*
X-41Y414D01*
X-50D01*
X-67Y438D01*
X-78D01*
Y414D01*
X-85D01*
X-85Y475D01*
X-67D01*
X-65Y474D01*
D02*
G37*
G36*
X406Y133D02*
X408Y133D01*
X410Y132D01*
X412Y131D01*
X414Y130D01*
X415Y130D01*
X416Y129D01*
X416Y129D01*
X417Y129D01*
X417Y128D01*
X417Y128D01*
X417Y128D01*
X418Y127D01*
X419Y127D01*
X420Y125D01*
X421Y123D01*
X422Y121D01*
X422Y119D01*
X422Y119D01*
X422Y118D01*
X422Y118D01*
Y117D01*
Y117D01*
Y117D01*
X422Y115D01*
X422Y113D01*
X421Y112D01*
X421Y111D01*
X420Y110D01*
X420Y109D01*
X420Y109D01*
X420Y108D01*
X419Y107D01*
X417Y106D01*
X416Y106D01*
X415Y105D01*
X414Y105D01*
X414Y104D01*
X413Y104D01*
X413Y104D01*
X415Y103D01*
X417Y103D01*
X419Y102D01*
X420Y101D01*
X421Y100D01*
X422Y99D01*
X422Y99D01*
X422Y99D01*
X423Y97D01*
X424Y96D01*
X425Y94D01*
X425Y92D01*
X425Y91D01*
X426Y90D01*
Y89D01*
Y89D01*
Y89D01*
Y88D01*
X425Y87D01*
X425Y85D01*
X425Y84D01*
X424Y82D01*
X424Y81D01*
X423Y80D01*
X423Y80D01*
X423Y80D01*
X422Y78D01*
X421Y77D01*
X419Y76D01*
X418Y75D01*
X417Y74D01*
X416Y73D01*
X416Y73D01*
X416Y73D01*
X415D01*
X414Y72D01*
X412Y72D01*
X410Y71D01*
X409Y71D01*
X407Y70D01*
X406Y70D01*
X405D01*
X402Y71D01*
X400Y71D01*
X398Y72D01*
X396Y73D01*
X394Y73D01*
X393Y74D01*
X393Y74D01*
X393Y74D01*
X392Y74D01*
X392Y75D01*
X392D01*
X390Y76D01*
X388Y78D01*
X387Y80D01*
X386Y82D01*
X385Y83D01*
X385Y84D01*
X385Y85D01*
X385Y85D01*
X385Y85D01*
Y85D01*
X391Y87D01*
X392Y85D01*
X393Y84D01*
X393Y83D01*
X394Y82D01*
X395Y81D01*
X396Y80D01*
X396Y80D01*
X396Y80D01*
X398Y79D01*
X399Y78D01*
X401Y78D01*
X402Y77D01*
X403Y77D01*
X404Y77D01*
X405Y77D01*
X405D01*
X407Y77D01*
X409Y78D01*
X411Y78D01*
X412Y79D01*
X413Y80D01*
X414Y80D01*
X414Y81D01*
X415Y81D01*
X416Y82D01*
X417Y83D01*
X418Y85D01*
X418Y86D01*
X418Y87D01*
X419Y88D01*
X419Y89D01*
Y89D01*
X419Y90D01*
X418Y91D01*
X418Y93D01*
X417Y95D01*
X416Y96D01*
X415Y97D01*
X414Y98D01*
X413Y98D01*
X413Y98D01*
X413D01*
X411Y100D01*
X409Y100D01*
X406Y101D01*
X404Y101D01*
X402Y102D01*
X401Y102D01*
X400Y102D01*
X399D01*
X400Y106D01*
X402Y106D01*
X404Y106D01*
X406Y107D01*
X408Y107D01*
X409Y108D01*
X410Y108D01*
X410Y108D01*
X411Y109D01*
X411Y109D01*
X412Y110D01*
X413Y111D01*
X414Y112D01*
X415Y113D01*
X415Y115D01*
X416Y116D01*
X416Y116D01*
Y116D01*
Y116D01*
X415Y118D01*
X415Y119D01*
X415Y121D01*
X414Y122D01*
X413Y122D01*
X413Y123D01*
X413Y123D01*
X412Y123D01*
X411Y124D01*
X410Y125D01*
X409Y125D01*
X407Y126D01*
X406Y126D01*
X406Y126D01*
X405Y126D01*
X405D01*
X403Y126D01*
X402Y126D01*
X401Y125D01*
X400Y125D01*
X399Y124D01*
X398Y124D01*
X398Y124D01*
X398Y124D01*
X397Y123D01*
X396Y122D01*
X396Y121D01*
X395Y120D01*
X395Y119D01*
X395Y118D01*
X394Y118D01*
Y118D01*
X387Y119D01*
X388Y121D01*
X389Y123D01*
X390Y125D01*
X391Y126D01*
X392Y127D01*
X393Y128D01*
X393Y129D01*
X393Y129D01*
X395Y130D01*
X397Y131D01*
X399Y132D01*
X401Y132D01*
X402Y133D01*
X403Y133D01*
X404D01*
X404Y133D01*
X405D01*
X406Y133D01*
D02*
G37*
G36*
X375Y71D02*
X368D01*
Y123D01*
X359Y120D01*
Y127D01*
X373Y132D01*
X375D01*
Y71D01*
D02*
G37*
G36*
X331Y131D02*
X332Y131D01*
X335Y130D01*
X337Y129D01*
X339Y129D01*
X339Y128D01*
X340Y128D01*
X341Y127D01*
X342Y127D01*
X342Y127D01*
X343Y126D01*
X343Y126D01*
X343Y126D01*
X343Y126D01*
X344Y125D01*
X345Y123D01*
X346Y122D01*
X347Y121D01*
X348Y119D01*
X349Y117D01*
X349Y115D01*
X349Y114D01*
X349Y113D01*
Y113D01*
X349Y112D01*
Y112D01*
Y112D01*
X349Y110D01*
X349Y108D01*
X348Y106D01*
X348Y104D01*
X347Y103D01*
X346Y102D01*
X346Y102D01*
X346Y101D01*
Y101D01*
X344Y100D01*
X343Y98D01*
X342Y97D01*
X340Y97D01*
X339Y96D01*
X338Y95D01*
X337Y95D01*
X337Y95D01*
X337Y95D01*
X337D01*
X355Y71D01*
X346D01*
X329Y94D01*
X318D01*
Y71D01*
X311D01*
X311Y131D01*
X329D01*
X331Y131D01*
D02*
G37*
G36*
X-117Y-404D02*
X-115Y-404D01*
X-113Y-405D01*
X-111Y-405D01*
X-110Y-406D01*
X-109Y-406D01*
X-108Y-407D01*
X-107Y-407D01*
X-107Y-408D01*
X-106Y-408D01*
X-105Y-409D01*
X-105Y-409D01*
X-105Y-409D01*
X-105Y-409D01*
X-105Y-410D01*
X-104Y-411D01*
X-103Y-412D01*
X-102Y-413D01*
X-101Y-414D01*
X-101Y-415D01*
X-100Y-416D01*
X-100Y-418D01*
X-99Y-420D01*
X-99Y-421D01*
X-99Y-421D01*
X-99Y-422D01*
Y-422D01*
Y-422D01*
Y-423D01*
X-99Y-424D01*
X-99Y-425D01*
X-100Y-427D01*
X-100Y-428D01*
X-101Y-431D01*
X-103Y-433D01*
X-103Y-434D01*
X-104Y-435D01*
X-104Y-436D01*
X-105Y-436D01*
X-105Y-437D01*
X-106Y-437D01*
X-106Y-438D01*
X-106Y-438D01*
X-108Y-439D01*
X-109Y-440D01*
X-111Y-442D01*
X-112Y-443D01*
X-116Y-446D01*
X-119Y-448D01*
X-120Y-450D01*
X-122Y-450D01*
X-123Y-451D01*
X-124Y-452D01*
X-125Y-453D01*
X-126Y-453D01*
X-126Y-453D01*
X-126Y-454D01*
X-98D01*
Y-460D01*
X-140D01*
Y-458D01*
X-136Y-455D01*
X-133Y-453D01*
X-130Y-451D01*
X-128Y-449D01*
X-125Y-447D01*
X-123Y-445D01*
X-121Y-444D01*
X-119Y-442D01*
X-118Y-441D01*
X-117Y-440D01*
X-115Y-439D01*
X-115Y-438D01*
X-114Y-437D01*
X-113Y-437D01*
X-113Y-436D01*
X-113Y-436D01*
X-112Y-435D01*
X-110Y-433D01*
X-109Y-432D01*
X-108Y-431D01*
X-108Y-430D01*
X-107Y-428D01*
X-106Y-427D01*
X-106Y-427D01*
X-106Y-426D01*
X-106Y-425D01*
X-105Y-424D01*
X-105Y-424D01*
X-105Y-423D01*
Y-423D01*
Y-423D01*
Y-423D01*
X-105Y-421D01*
X-106Y-419D01*
X-106Y-418D01*
X-107Y-416D01*
X-108Y-415D01*
X-109Y-414D01*
X-109Y-414D01*
X-109Y-414D01*
X-111Y-413D01*
X-112Y-412D01*
X-114Y-411D01*
X-115Y-411D01*
X-116Y-410D01*
X-117Y-410D01*
X-118Y-410D01*
X-118D01*
X-120Y-410D01*
X-122Y-411D01*
X-124Y-411D01*
X-125Y-412D01*
X-127Y-413D01*
X-127Y-413D01*
X-128Y-414D01*
X-128Y-414D01*
X-129Y-416D01*
X-130Y-417D01*
X-131Y-419D01*
X-132Y-421D01*
X-132Y-422D01*
X-132Y-422D01*
X-132Y-423D01*
X-132Y-423D01*
Y-424D01*
Y-424D01*
Y-424D01*
X-138Y-423D01*
X-138Y-421D01*
X-137Y-420D01*
X-137Y-417D01*
X-136Y-415D01*
X-135Y-414D01*
X-135Y-413D01*
X-134Y-412D01*
X-134Y-411D01*
X-133Y-411D01*
X-133Y-410D01*
X-133Y-410D01*
X-132Y-410D01*
X-132Y-409D01*
X-132Y-409D01*
X-131Y-408D01*
X-130Y-408D01*
X-129Y-407D01*
X-128Y-406D01*
X-125Y-405D01*
X-123Y-405D01*
X-122Y-404D01*
X-121Y-404D01*
X-121Y-404D01*
X-120Y-404D01*
X-119Y-404D01*
X-118D01*
X-117Y-404D01*
D02*
G37*
G36*
X-148Y-460D02*
X-154D01*
Y-412D01*
X-163Y-415D01*
Y-408D01*
X-150Y-404D01*
X-148D01*
Y-460D01*
D02*
G37*
G36*
X-189Y-405D02*
X-187Y-405D01*
X-185Y-406D01*
X-182Y-406D01*
X-181Y-407D01*
X-181Y-407D01*
X-180Y-408D01*
X-179Y-408D01*
X-178Y-409D01*
X-178Y-409D01*
X-178Y-409D01*
X-177Y-410D01*
X-177Y-410D01*
X-177Y-410D01*
X-176Y-411D01*
X-175Y-412D01*
X-174Y-413D01*
X-174Y-414D01*
X-173Y-416D01*
X-172Y-418D01*
X-172Y-420D01*
X-172Y-420D01*
X-172Y-421D01*
Y-421D01*
X-171Y-422D01*
Y-422D01*
Y-422D01*
X-172Y-424D01*
X-172Y-426D01*
X-173Y-428D01*
X-173Y-429D01*
X-174Y-430D01*
X-174Y-431D01*
X-175Y-432D01*
X-175Y-432D01*
Y-432D01*
X-176Y-433D01*
X-177Y-434D01*
X-179Y-435D01*
X-180Y-436D01*
X-181Y-437D01*
X-182Y-437D01*
X-183Y-437D01*
X-183Y-437D01*
X-183Y-438D01*
X-183D01*
X-167Y-460D01*
X-174D01*
X-190Y-438D01*
X-200D01*
Y-460D01*
X-206D01*
X-206Y-405D01*
X-190D01*
X-189Y-405D01*
D02*
G37*
G36*
X445Y-181D02*
X438D01*
Y-129D01*
X428Y-132D01*
Y-124D01*
X443Y-120D01*
X445D01*
Y-181D01*
D02*
G37*
G36*
X419D02*
X412D01*
Y-129D01*
X402Y-132D01*
Y-124D01*
X417Y-120D01*
X419D01*
Y-181D01*
D02*
G37*
G36*
X374Y-120D02*
X376Y-121D01*
X379Y-121D01*
X381Y-122D01*
X382Y-123D01*
X383Y-123D01*
X384Y-124D01*
X385Y-124D01*
X386Y-125D01*
X386Y-125D01*
X387Y-125D01*
X387Y-126D01*
X387Y-126D01*
X387Y-126D01*
X388Y-127D01*
X389Y-128D01*
X390Y-129D01*
X391Y-130D01*
X392Y-133D01*
X392Y-135D01*
X393Y-137D01*
X393Y-138D01*
X393Y-138D01*
Y-139D01*
X393Y-139D01*
Y-139D01*
Y-140D01*
X393Y-142D01*
X393Y-144D01*
X392Y-146D01*
X391Y-147D01*
X391Y-148D01*
X390Y-149D01*
X390Y-150D01*
X390Y-150D01*
Y-150D01*
X388Y-152D01*
X387Y-153D01*
X385Y-154D01*
X384Y-155D01*
X382Y-156D01*
X381Y-156D01*
X381Y-156D01*
X381Y-156D01*
X381Y-156D01*
X380D01*
X398Y-181D01*
X390D01*
X373Y-157D01*
X362D01*
Y-181D01*
X355D01*
X355Y-120D01*
X373D01*
X374Y-120D01*
D02*
G37*
G36*
X435Y-382D02*
X428D01*
Y-329D01*
X418Y-332D01*
Y-325D01*
X433Y-321D01*
X435D01*
Y-382D01*
D02*
G37*
G36*
X390Y-321D02*
X392Y-321D01*
X395Y-322D01*
X397Y-323D01*
X398Y-323D01*
X399Y-324D01*
X400Y-324D01*
X401Y-325D01*
X401Y-325D01*
X402Y-326D01*
X402Y-326D01*
X403Y-326D01*
X403Y-327D01*
X403Y-327D01*
X404Y-328D01*
X405Y-329D01*
X406Y-330D01*
X406Y-331D01*
X407Y-333D01*
X408Y-336D01*
X409Y-337D01*
X409Y-338D01*
X409Y-339D01*
Y-340D01*
X409Y-340D01*
Y-340D01*
Y-340D01*
X409Y-342D01*
X408Y-345D01*
X408Y-346D01*
X407Y-348D01*
X407Y-349D01*
X406Y-350D01*
X406Y-351D01*
X405Y-351D01*
Y-351D01*
X404Y-352D01*
X403Y-354D01*
X401Y-355D01*
X400Y-356D01*
X398Y-356D01*
X397Y-357D01*
X397Y-357D01*
X397Y-357D01*
X396Y-357D01*
X396D01*
X414Y-382D01*
X406D01*
X389Y-358D01*
X378D01*
Y-382D01*
X371D01*
X371Y-321D01*
X389D01*
X390Y-321D01*
D02*
G37*
G36*
X471Y-320D02*
X472Y-321D01*
X474Y-321D01*
X476Y-322D01*
X478Y-322D01*
X479Y-323D01*
X480Y-324D01*
X482Y-325D01*
X483Y-326D01*
X484Y-326D01*
X484Y-327D01*
X485Y-328D01*
X485Y-328D01*
X486Y-329D01*
X486Y-329D01*
X486Y-329D01*
X487Y-331D01*
X488Y-332D01*
X489Y-334D01*
X490Y-336D01*
X491Y-338D01*
X491Y-340D01*
X492Y-343D01*
X492Y-345D01*
X493Y-347D01*
X493Y-348D01*
X493Y-349D01*
X493Y-350D01*
Y-351D01*
Y-351D01*
Y-351D01*
X493Y-354D01*
X493Y-356D01*
X492Y-359D01*
X492Y-361D01*
X491Y-363D01*
X491Y-364D01*
X490Y-366D01*
X490Y-368D01*
X489Y-369D01*
X488Y-370D01*
X488Y-371D01*
X487Y-372D01*
X487Y-373D01*
X487Y-373D01*
X486Y-374D01*
X486Y-374D01*
X485Y-375D01*
X484Y-376D01*
X482Y-378D01*
X481Y-379D01*
X479Y-379D01*
X478Y-380D01*
X476Y-381D01*
X475Y-381D01*
X474Y-381D01*
X472Y-382D01*
X471Y-382D01*
X470Y-382D01*
X470Y-382D01*
X469Y-382D01*
X469D01*
X467Y-382D01*
X465Y-382D01*
X463Y-381D01*
X461Y-381D01*
X460Y-380D01*
X458Y-379D01*
X457Y-379D01*
X456Y-378D01*
X455Y-377D01*
X454Y-376D01*
X453Y-376D01*
X452Y-375D01*
X452Y-374D01*
X451Y-374D01*
X451Y-374D01*
X451Y-374D01*
X450Y-372D01*
X449Y-370D01*
X448Y-368D01*
X447Y-367D01*
X446Y-365D01*
X446Y-363D01*
X445Y-359D01*
X445Y-358D01*
X445Y-356D01*
X444Y-355D01*
X444Y-354D01*
Y-353D01*
X444Y-352D01*
Y-352D01*
Y-351D01*
X444Y-349D01*
X445Y-346D01*
X445Y-344D01*
X445Y-342D01*
X446Y-340D01*
X446Y-338D01*
X447Y-336D01*
X448Y-335D01*
X448Y-334D01*
X449Y-332D01*
X449Y-331D01*
X450Y-331D01*
X450Y-330D01*
X451Y-329D01*
X451Y-329D01*
X451Y-329D01*
X452Y-327D01*
X454Y-326D01*
X455Y-325D01*
X456Y-324D01*
X458Y-323D01*
X459Y-323D01*
X461Y-322D01*
X462Y-321D01*
X464Y-321D01*
X465Y-321D01*
X466Y-321D01*
X467Y-320D01*
X468Y-320D01*
X468Y-320D01*
X469D01*
X471Y-320D01*
D02*
G37*
G36*
X-514Y-449D02*
X-521D01*
Y-397D01*
X-530Y-400D01*
Y-393D01*
X-516Y-388D01*
X-514D01*
Y-449D01*
D02*
G37*
G36*
X-558Y-389D02*
X-557Y-389D01*
X-554Y-390D01*
X-551Y-391D01*
X-550Y-391D01*
X-549Y-392D01*
X-549Y-392D01*
X-548Y-393D01*
X-547Y-393D01*
X-546Y-394D01*
X-546Y-394D01*
X-546Y-394D01*
X-546Y-394D01*
X-545Y-395D01*
X-544Y-396D01*
X-544Y-397D01*
X-543Y-398D01*
X-542Y-399D01*
X-541Y-401D01*
X-540Y-403D01*
X-540Y-405D01*
X-540Y-406D01*
X-540Y-407D01*
Y-407D01*
X-539Y-408D01*
Y-408D01*
Y-408D01*
X-540Y-410D01*
X-540Y-412D01*
X-541Y-414D01*
X-541Y-416D01*
X-542Y-417D01*
X-542Y-418D01*
X-543Y-419D01*
X-543Y-419D01*
Y-419D01*
X-544Y-420D01*
X-546Y-422D01*
X-547Y-423D01*
X-549Y-424D01*
X-550Y-424D01*
X-551Y-425D01*
X-552Y-425D01*
X-552Y-425D01*
X-552Y-425D01*
X-552D01*
X-534Y-449D01*
X-543D01*
X-560Y-426D01*
X-571D01*
Y-449D01*
X-578D01*
X-578Y-389D01*
X-560D01*
X-558Y-389D01*
D02*
G37*
G36*
X-481Y-388D02*
X-479Y-389D01*
X-477Y-390D01*
X-475Y-390D01*
X-473Y-391D01*
X-472Y-392D01*
X-472Y-392D01*
X-472Y-392D01*
X-472Y-392D01*
X-472Y-393D01*
X-471Y-393D01*
X-470Y-394D01*
X-469Y-396D01*
X-468Y-398D01*
X-467Y-399D01*
X-467Y-401D01*
X-467Y-402D01*
X-467Y-402D01*
Y-403D01*
Y-403D01*
Y-403D01*
X-467Y-405D01*
X-467Y-406D01*
X-468Y-408D01*
X-468Y-409D01*
X-469Y-410D01*
X-469Y-411D01*
X-470Y-411D01*
X-470Y-411D01*
X-471Y-412D01*
X-472Y-413D01*
X-473Y-414D01*
X-474Y-415D01*
X-475Y-415D01*
X-476Y-415D01*
X-476Y-415D01*
X-477D01*
X-476Y-416D01*
X-474Y-416D01*
X-473Y-416D01*
X-473Y-417D01*
X-472Y-417D01*
X-471Y-418D01*
X-471Y-418D01*
X-471Y-418D01*
X-470Y-419D01*
X-469Y-420D01*
X-468Y-421D01*
X-467Y-422D01*
X-466Y-422D01*
X-466Y-423D01*
X-466Y-423D01*
X-466Y-424D01*
X-465Y-425D01*
X-464Y-426D01*
X-464Y-428D01*
X-464Y-429D01*
X-464Y-430D01*
X-464Y-431D01*
Y-431D01*
Y-431D01*
Y-432D01*
X-464Y-433D01*
X-464Y-434D01*
X-464Y-437D01*
X-465Y-439D01*
X-467Y-441D01*
X-468Y-443D01*
X-468Y-443D01*
X-468Y-444D01*
X-469Y-444D01*
X-469Y-444D01*
X-469Y-445D01*
X-469Y-445D01*
X-470Y-446D01*
X-472Y-446D01*
X-473Y-447D01*
X-474Y-448D01*
X-476Y-449D01*
X-479Y-449D01*
X-481Y-450D01*
X-482Y-450D01*
X-482Y-450D01*
X-483D01*
X-484Y-450D01*
X-484D01*
X-486Y-450D01*
X-487Y-450D01*
X-490Y-449D01*
X-492Y-448D01*
X-494Y-448D01*
X-495Y-447D01*
X-496Y-447D01*
X-496Y-446D01*
X-497Y-446D01*
X-498Y-445D01*
X-498Y-445D01*
X-498Y-445D01*
X-498Y-445D01*
X-499Y-445D01*
X-500Y-444D01*
X-500Y-443D01*
X-501Y-442D01*
X-502Y-440D01*
X-503Y-438D01*
X-504Y-436D01*
X-504Y-434D01*
X-504Y-433D01*
X-504Y-433D01*
X-504Y-432D01*
Y-432D01*
Y-432D01*
Y-432D01*
X-504Y-429D01*
X-504Y-427D01*
X-503Y-425D01*
X-502Y-423D01*
X-501Y-422D01*
X-501Y-421D01*
X-500Y-421D01*
X-500Y-420D01*
X-498Y-419D01*
X-497Y-418D01*
X-495Y-417D01*
X-494Y-416D01*
X-493Y-416D01*
X-492Y-416D01*
X-491Y-415D01*
X-491D01*
X-492Y-415D01*
X-494Y-414D01*
X-495Y-414D01*
X-496Y-413D01*
X-497Y-412D01*
X-498Y-412D01*
X-498Y-411D01*
X-498Y-411D01*
X-499Y-410D01*
X-500Y-409D01*
X-500Y-407D01*
X-501Y-406D01*
X-501Y-405D01*
X-501Y-404D01*
X-501Y-403D01*
Y-403D01*
X-501Y-402D01*
X-501Y-401D01*
X-500Y-399D01*
X-500Y-397D01*
X-499Y-396D01*
X-498Y-394D01*
X-497Y-393D01*
X-496Y-393D01*
X-496Y-393D01*
X-494Y-391D01*
X-492Y-390D01*
X-490Y-389D01*
X-488Y-389D01*
X-486Y-388D01*
X-486Y-388D01*
X-485Y-388D01*
X-485Y-388D01*
X-484D01*
X-481Y-388D01*
D02*
G37*
G36*
X-275Y406D02*
X-300Y347D01*
X-308D01*
X-284Y401D01*
X-316D01*
Y407D01*
X-275D01*
Y406D01*
D02*
G37*
G36*
X-324Y347D02*
X-331D01*
Y399D01*
X-341Y396D01*
Y403D01*
X-326Y408D01*
X-324D01*
Y347D01*
D02*
G37*
G36*
X-369Y407D02*
X-367Y407D01*
X-364Y406D01*
X-362Y405D01*
X-361Y405D01*
X-360Y404D01*
X-359Y404D01*
X-358Y403D01*
X-358Y403D01*
X-357Y402D01*
X-357Y402D01*
X-356Y402D01*
X-356Y402D01*
X-356Y402D01*
X-355Y401D01*
X-354Y399D01*
X-353Y398D01*
X-353Y397D01*
X-352Y395D01*
X-351Y393D01*
X-350Y391D01*
X-350Y390D01*
X-350Y389D01*
Y389D01*
X-350Y388D01*
Y388D01*
Y388D01*
X-350Y386D01*
X-351Y384D01*
X-351Y382D01*
X-352Y380D01*
X-352Y379D01*
X-353Y378D01*
X-353Y378D01*
X-354Y377D01*
Y377D01*
X-355Y376D01*
X-356Y374D01*
X-358Y373D01*
X-359Y373D01*
X-361Y372D01*
X-362Y371D01*
X-362Y371D01*
X-362Y371D01*
X-363Y371D01*
X-363D01*
X-345Y347D01*
X-353D01*
X-370Y370D01*
X-381D01*
Y347D01*
X-388D01*
X-388Y407D01*
X-370D01*
X-369Y407D01*
D02*
G37*
G36*
X-537Y-490D02*
X-535Y-490D01*
X-533Y-490D01*
X-532Y-491D01*
X-530Y-491D01*
X-529Y-492D01*
X-529Y-492D01*
X-528Y-492D01*
X-528Y-492D01*
X-528D01*
X-526Y-493D01*
X-524Y-494D01*
X-523Y-495D01*
X-521Y-496D01*
X-520Y-497D01*
X-519Y-498D01*
X-519Y-499D01*
X-519Y-499D01*
X-523Y-504D01*
X-524Y-503D01*
X-525Y-502D01*
X-527Y-501D01*
X-528Y-500D01*
X-529Y-499D01*
X-530Y-499D01*
X-530Y-499D01*
X-530Y-499D01*
X-530D01*
X-532Y-498D01*
X-534Y-497D01*
X-535Y-497D01*
X-537Y-497D01*
X-538Y-497D01*
X-539Y-496D01*
X-540D01*
X-542Y-497D01*
X-544Y-497D01*
X-546Y-498D01*
X-548Y-498D01*
X-549Y-499D01*
X-551Y-499D01*
X-551Y-499D01*
X-551Y-500D01*
X-551Y-500D01*
X-551D01*
X-553Y-501D01*
X-555Y-502D01*
X-557Y-504D01*
X-558Y-505D01*
X-559Y-506D01*
X-560Y-508D01*
X-560Y-508D01*
X-560Y-508D01*
X-560Y-508D01*
Y-508D01*
X-561Y-510D01*
X-562Y-513D01*
X-563Y-515D01*
X-563Y-517D01*
X-564Y-518D01*
X-564Y-519D01*
Y-520D01*
X-564Y-520D01*
Y-521D01*
Y-521D01*
Y-521D01*
X-564Y-523D01*
X-563Y-526D01*
X-563Y-528D01*
X-562Y-530D01*
X-561Y-531D01*
X-561Y-532D01*
X-561Y-532D01*
X-561Y-533D01*
X-560Y-533D01*
X-560Y-533D01*
Y-533D01*
X-559Y-535D01*
X-557Y-537D01*
X-556Y-538D01*
X-555Y-540D01*
X-553Y-541D01*
X-552Y-541D01*
X-552Y-542D01*
X-552Y-542D01*
X-552Y-542D01*
X-551D01*
X-549Y-543D01*
X-547Y-544D01*
X-545Y-544D01*
X-544Y-545D01*
X-542Y-545D01*
X-541Y-545D01*
X-541D01*
X-540Y-545D01*
X-540D01*
X-538Y-545D01*
X-536Y-545D01*
X-534Y-544D01*
X-533Y-544D01*
X-532Y-544D01*
X-531Y-543D01*
X-530Y-543D01*
X-530Y-543D01*
X-529Y-542D01*
X-527Y-541D01*
X-526Y-540D01*
X-525Y-539D01*
X-524Y-539D01*
X-523Y-538D01*
X-523Y-538D01*
X-523Y-538D01*
X-519Y-543D01*
X-520Y-544D01*
X-522Y-546D01*
X-523Y-547D01*
X-525Y-548D01*
X-526Y-548D01*
X-527Y-549D01*
X-527Y-549D01*
X-527Y-549D01*
X-528Y-549D01*
X-528D01*
X-530Y-550D01*
X-532Y-551D01*
X-534Y-551D01*
X-535Y-551D01*
X-537Y-552D01*
X-538Y-552D01*
X-538D01*
X-539Y-552D01*
X-539D01*
X-543Y-552D01*
X-545Y-551D01*
X-548Y-550D01*
X-550Y-550D01*
X-551Y-549D01*
X-552Y-549D01*
X-553Y-549D01*
X-554Y-548D01*
X-554Y-548D01*
X-555Y-548D01*
X-555Y-548D01*
X-555D01*
X-558Y-546D01*
X-560Y-544D01*
X-562Y-542D01*
X-563Y-541D01*
X-565Y-539D01*
X-565Y-538D01*
X-566Y-538D01*
X-566Y-537D01*
X-566Y-537D01*
X-566Y-537D01*
X-566Y-537D01*
X-568Y-534D01*
X-569Y-531D01*
X-569Y-528D01*
X-570Y-526D01*
X-570Y-525D01*
X-570Y-524D01*
X-570Y-523D01*
X-571Y-522D01*
X-571Y-522D01*
Y-521D01*
Y-521D01*
Y-521D01*
X-570Y-518D01*
X-570Y-515D01*
X-569Y-512D01*
X-568Y-510D01*
X-568Y-509D01*
X-568Y-508D01*
X-567Y-507D01*
X-567Y-506D01*
X-567Y-506D01*
X-567Y-505D01*
X-566Y-505D01*
Y-505D01*
X-565Y-503D01*
X-563Y-500D01*
X-561Y-498D01*
X-559Y-497D01*
X-558Y-496D01*
X-557Y-495D01*
X-556Y-495D01*
X-556Y-494D01*
X-555Y-494D01*
X-555Y-494D01*
X-555D01*
X-552Y-492D01*
X-550Y-491D01*
X-547Y-491D01*
X-545Y-490D01*
X-544Y-490D01*
X-543Y-490D01*
X-542Y-490D01*
X-541D01*
X-540Y-490D01*
X-539D01*
X-537Y-490D01*
D02*
G37*
G36*
X-490Y-490D02*
X-488Y-490D01*
X-486Y-491D01*
X-484Y-491D01*
X-483Y-492D01*
X-482Y-492D01*
X-481Y-493D01*
X-481Y-493D01*
X-481D01*
X-480Y-494D01*
X-478Y-495D01*
X-477Y-496D01*
X-476Y-498D01*
X-475Y-499D01*
X-474Y-499D01*
X-474Y-500D01*
X-474Y-500D01*
Y-500D01*
X-473Y-502D01*
X-472Y-504D01*
X-472Y-505D01*
X-471Y-507D01*
X-471Y-508D01*
X-471Y-509D01*
Y-510D01*
Y-510D01*
Y-510D01*
Y-510D01*
Y-512D01*
X-471Y-513D01*
X-471Y-514D01*
X-471Y-515D01*
X-471Y-515D01*
X-472Y-516D01*
X-472Y-516D01*
Y-516D01*
X-472Y-518D01*
X-473Y-519D01*
X-473Y-520D01*
X-474Y-521D01*
X-474Y-522D01*
X-475Y-523D01*
X-475Y-523D01*
X-475Y-523D01*
X-476Y-525D01*
X-477Y-527D01*
X-478Y-528D01*
X-479Y-530D01*
X-480Y-531D01*
X-481Y-533D01*
X-481Y-533D01*
X-481Y-533D01*
X-481Y-534D01*
Y-534D01*
X-483Y-536D01*
X-485Y-539D01*
X-487Y-542D01*
X-488Y-545D01*
X-489Y-546D01*
X-490Y-547D01*
X-490Y-548D01*
X-491Y-549D01*
X-491Y-550D01*
X-492Y-551D01*
X-492Y-551D01*
X-492Y-551D01*
X-500D01*
X-486Y-528D01*
X-487Y-529D01*
X-489Y-529D01*
X-489Y-529D01*
X-490Y-529D01*
X-490Y-530D01*
X-490D01*
X-491Y-530D01*
X-493Y-530D01*
X-493Y-530D01*
X-494D01*
X-496Y-530D01*
X-498Y-530D01*
X-499Y-529D01*
X-501Y-529D01*
X-502Y-528D01*
X-503Y-528D01*
X-503Y-528D01*
X-503Y-527D01*
X-503D01*
X-505Y-526D01*
X-506Y-525D01*
X-508Y-524D01*
X-509Y-523D01*
X-509Y-522D01*
X-510Y-521D01*
X-511Y-521D01*
X-511Y-521D01*
X-512Y-519D01*
X-512Y-517D01*
X-513Y-515D01*
X-513Y-514D01*
X-513Y-512D01*
X-513Y-511D01*
Y-511D01*
Y-511D01*
Y-510D01*
Y-510D01*
X-513Y-508D01*
X-513Y-506D01*
X-512Y-505D01*
X-512Y-503D01*
X-511Y-502D01*
X-511Y-501D01*
X-511Y-500D01*
X-511Y-500D01*
X-509Y-499D01*
X-508Y-497D01*
X-507Y-496D01*
X-506Y-495D01*
X-505Y-494D01*
X-504Y-493D01*
X-503Y-493D01*
X-503Y-493D01*
X-503D01*
X-501Y-492D01*
X-499Y-491D01*
X-497Y-491D01*
X-496Y-490D01*
X-494Y-490D01*
X-493Y-490D01*
X-492D01*
X-490Y-490D01*
D02*
G37*
G36*
X-587Y-591D02*
X-585Y-592D01*
X-583Y-592D01*
X-581Y-593D01*
X-580Y-593D01*
X-579Y-593D01*
X-579Y-594D01*
X-578Y-594D01*
X-578Y-594D01*
X-578D01*
X-576Y-595D01*
X-574Y-596D01*
X-573Y-597D01*
X-571Y-598D01*
X-570Y-599D01*
X-569Y-600D01*
X-569Y-600D01*
X-568Y-600D01*
X-572Y-606D01*
X-574Y-605D01*
X-575Y-603D01*
X-576Y-602D01*
X-578Y-602D01*
X-579Y-601D01*
X-579Y-601D01*
X-580Y-600D01*
X-580Y-600D01*
X-580D01*
X-582Y-600D01*
X-583Y-599D01*
X-585Y-599D01*
X-587Y-598D01*
X-588Y-598D01*
X-589Y-598D01*
X-590D01*
X-592Y-598D01*
X-594Y-599D01*
X-596Y-599D01*
X-598Y-600D01*
X-599Y-600D01*
X-600Y-601D01*
X-601Y-601D01*
X-601Y-601D01*
X-601Y-601D01*
X-601D01*
X-603Y-603D01*
X-605Y-604D01*
X-606Y-605D01*
X-608Y-607D01*
X-609Y-608D01*
X-610Y-609D01*
X-610Y-610D01*
X-610Y-610D01*
X-610Y-610D01*
Y-610D01*
X-611Y-612D01*
X-612Y-614D01*
X-613Y-616D01*
X-613Y-618D01*
X-613Y-620D01*
X-614Y-621D01*
Y-621D01*
X-614Y-622D01*
Y-622D01*
Y-622D01*
Y-622D01*
X-613Y-625D01*
X-613Y-627D01*
X-612Y-629D01*
X-612Y-631D01*
X-611Y-633D01*
X-611Y-633D01*
X-611Y-634D01*
X-610Y-634D01*
X-610Y-635D01*
X-610Y-635D01*
Y-635D01*
X-609Y-637D01*
X-607Y-638D01*
X-606Y-640D01*
X-604Y-641D01*
X-603Y-642D01*
X-602Y-643D01*
X-602Y-643D01*
X-601Y-643D01*
X-601Y-643D01*
X-601D01*
X-599Y-644D01*
X-597Y-645D01*
X-595Y-646D01*
X-593Y-646D01*
X-592Y-646D01*
X-591Y-647D01*
X-590D01*
X-590Y-647D01*
X-589D01*
X-588Y-647D01*
X-586Y-646D01*
X-584Y-646D01*
X-583Y-646D01*
X-582Y-645D01*
X-581Y-645D01*
X-580Y-645D01*
X-580Y-645D01*
X-578Y-644D01*
X-577Y-643D01*
X-576Y-642D01*
X-575Y-641D01*
X-574Y-640D01*
X-573Y-640D01*
X-572Y-639D01*
X-572Y-639D01*
X-568Y-645D01*
X-570Y-646D01*
X-571Y-647D01*
X-573Y-648D01*
X-574Y-649D01*
X-576Y-650D01*
X-577Y-650D01*
X-577Y-651D01*
X-577Y-651D01*
X-577Y-651D01*
X-577D01*
X-579Y-652D01*
X-581Y-652D01*
X-583Y-653D01*
X-585Y-653D01*
X-587Y-653D01*
X-588Y-653D01*
X-588D01*
X-589Y-653D01*
X-589D01*
X-592Y-653D01*
X-595Y-653D01*
X-598Y-652D01*
X-600Y-651D01*
X-601Y-651D01*
X-602Y-651D01*
X-603Y-650D01*
X-604Y-650D01*
X-604Y-650D01*
X-605Y-649D01*
X-605Y-649D01*
X-605D01*
X-607Y-648D01*
X-610Y-646D01*
X-611Y-644D01*
X-613Y-642D01*
X-614Y-641D01*
X-615Y-640D01*
X-615Y-639D01*
X-616Y-639D01*
X-616Y-638D01*
X-616Y-638D01*
X-616Y-638D01*
X-618Y-635D01*
X-619Y-633D01*
X-619Y-630D01*
X-620Y-628D01*
X-620Y-627D01*
X-620Y-626D01*
X-620Y-625D01*
X-620Y-624D01*
X-620Y-623D01*
Y-623D01*
Y-623D01*
Y-622D01*
X-620Y-619D01*
X-620Y-616D01*
X-619Y-614D01*
X-618Y-611D01*
X-618Y-610D01*
X-617Y-609D01*
X-617Y-609D01*
X-617Y-608D01*
X-617Y-607D01*
X-616Y-607D01*
X-616Y-607D01*
Y-607D01*
X-614Y-604D01*
X-613Y-602D01*
X-611Y-600D01*
X-609Y-598D01*
X-607Y-597D01*
X-607Y-597D01*
X-606Y-596D01*
X-606Y-596D01*
X-605Y-596D01*
X-605Y-595D01*
X-605D01*
X-602Y-594D01*
X-600Y-593D01*
X-597Y-592D01*
X-594Y-592D01*
X-593Y-592D01*
X-592Y-591D01*
X-592Y-591D01*
X-591D01*
X-590Y-591D01*
X-589D01*
X-587Y-591D01*
D02*
G37*
G36*
X-540Y-592D02*
X-538Y-592D01*
X-536Y-593D01*
X-534Y-594D01*
X-532Y-594D01*
X-531Y-595D01*
X-531Y-595D01*
X-531Y-596D01*
X-531Y-596D01*
X-531Y-596D01*
X-530Y-597D01*
X-529Y-597D01*
X-528Y-599D01*
X-527Y-601D01*
X-526Y-603D01*
X-526Y-604D01*
X-526Y-605D01*
X-526Y-606D01*
Y-606D01*
Y-606D01*
Y-606D01*
X-526Y-608D01*
X-526Y-610D01*
X-527Y-611D01*
X-527Y-612D01*
X-528Y-613D01*
X-528Y-614D01*
X-529Y-614D01*
X-529Y-615D01*
X-530Y-616D01*
X-531Y-617D01*
X-532Y-617D01*
X-533Y-618D01*
X-534Y-618D01*
X-535Y-618D01*
X-535Y-619D01*
X-536D01*
X-535Y-619D01*
X-533Y-619D01*
X-532Y-620D01*
X-532Y-620D01*
X-531Y-621D01*
X-530Y-621D01*
X-530Y-621D01*
X-530Y-621D01*
X-529Y-622D01*
X-528Y-623D01*
X-527Y-624D01*
X-526Y-625D01*
X-525Y-626D01*
X-525Y-626D01*
X-525Y-627D01*
X-525Y-627D01*
X-524Y-628D01*
X-523Y-629D01*
X-523Y-631D01*
X-523Y-632D01*
X-523Y-633D01*
X-523Y-634D01*
Y-635D01*
Y-635D01*
Y-635D01*
X-523Y-636D01*
X-523Y-638D01*
X-523Y-640D01*
X-524Y-642D01*
X-526Y-644D01*
X-527Y-646D01*
X-527Y-646D01*
X-527Y-647D01*
X-528Y-647D01*
X-528Y-648D01*
X-528Y-648D01*
X-528Y-648D01*
X-529Y-649D01*
X-531Y-650D01*
X-532Y-650D01*
X-533Y-651D01*
X-535Y-652D01*
X-538Y-653D01*
X-540Y-653D01*
X-541Y-653D01*
X-541Y-653D01*
X-542D01*
X-543Y-653D01*
X-543D01*
X-545Y-653D01*
X-546Y-653D01*
X-549Y-652D01*
X-551Y-651D01*
X-553Y-651D01*
X-554Y-651D01*
X-555Y-650D01*
X-555Y-650D01*
X-556Y-649D01*
X-557Y-649D01*
X-557Y-648D01*
X-557Y-648D01*
X-557Y-648D01*
X-558Y-648D01*
X-559Y-647D01*
X-559Y-646D01*
X-560Y-645D01*
X-561Y-644D01*
X-562Y-641D01*
X-563Y-639D01*
X-563Y-638D01*
X-563Y-637D01*
X-563Y-636D01*
X-563Y-635D01*
Y-635D01*
Y-635D01*
Y-635D01*
X-563Y-632D01*
X-563Y-630D01*
X-562Y-628D01*
X-561Y-627D01*
X-560Y-625D01*
X-560Y-624D01*
X-559Y-624D01*
X-559Y-624D01*
X-557Y-622D01*
X-556Y-621D01*
X-554Y-620D01*
X-553Y-619D01*
X-552Y-619D01*
X-551Y-619D01*
X-550Y-619D01*
X-550D01*
X-551Y-618D01*
X-553Y-618D01*
X-554Y-617D01*
X-555Y-616D01*
X-556Y-616D01*
X-557Y-615D01*
X-557Y-615D01*
X-557Y-615D01*
X-558Y-613D01*
X-559Y-612D01*
X-559Y-610D01*
X-560Y-609D01*
X-560Y-608D01*
X-560Y-607D01*
X-560Y-607D01*
Y-606D01*
X-560Y-605D01*
X-560Y-604D01*
X-559Y-602D01*
X-559Y-600D01*
X-558Y-599D01*
X-557Y-597D01*
X-556Y-597D01*
X-555Y-596D01*
X-555Y-596D01*
X-553Y-594D01*
X-551Y-593D01*
X-549Y-593D01*
X-547Y-592D01*
X-545Y-592D01*
X-545Y-592D01*
X-544Y-591D01*
X-544Y-591D01*
X-543D01*
X-540Y-592D01*
D02*
G37*
G36*
X-41Y564D02*
X-39Y564D01*
X-37Y564D01*
X-35Y563D01*
X-34Y563D01*
X-33Y562D01*
X-32Y562D01*
X-32Y562D01*
X-32Y562D01*
X-32D01*
X-30Y561D01*
X-28Y560D01*
X-26Y559D01*
X-25Y558D01*
X-24Y557D01*
X-23Y556D01*
X-22Y556D01*
X-22Y555D01*
X-26Y550D01*
X-27Y551D01*
X-29Y552D01*
X-30Y553D01*
X-31Y554D01*
X-32Y555D01*
X-33Y555D01*
X-34Y555D01*
X-34Y555D01*
X-34D01*
X-35Y556D01*
X-37Y557D01*
X-39Y557D01*
X-40Y557D01*
X-41Y558D01*
X-42Y558D01*
X-43D01*
X-45Y557D01*
X-48Y557D01*
X-50Y557D01*
X-51Y556D01*
X-53Y555D01*
X-54Y555D01*
X-54Y555D01*
X-55Y554D01*
X-55Y554D01*
X-55D01*
X-57Y553D01*
X-59Y552D01*
X-60Y550D01*
X-61Y549D01*
X-62Y548D01*
X-63Y547D01*
X-63Y546D01*
X-64Y546D01*
X-64Y546D01*
Y546D01*
X-65Y544D01*
X-66Y541D01*
X-66Y539D01*
X-67Y537D01*
X-67Y536D01*
X-67Y535D01*
Y534D01*
X-67Y534D01*
Y534D01*
Y533D01*
Y533D01*
X-67Y531D01*
X-67Y528D01*
X-66Y526D01*
X-66Y524D01*
X-65Y523D01*
X-65Y522D01*
X-64Y522D01*
X-64Y521D01*
X-64Y521D01*
X-64Y521D01*
Y521D01*
X-62Y519D01*
X-61Y517D01*
X-59Y516D01*
X-58Y515D01*
X-57Y514D01*
X-56Y513D01*
X-55Y513D01*
X-55Y512D01*
X-55Y512D01*
X-55D01*
X-53Y511D01*
X-51Y510D01*
X-49Y510D01*
X-47Y509D01*
X-45Y509D01*
X-45Y509D01*
X-44D01*
X-44Y509D01*
X-43D01*
X-41Y509D01*
X-39Y509D01*
X-38Y510D01*
X-36Y510D01*
X-35Y511D01*
X-34Y511D01*
X-34Y511D01*
X-34Y511D01*
X-32Y512D01*
X-31Y513D01*
X-29Y514D01*
X-28Y515D01*
X-27Y515D01*
X-27Y516D01*
X-26Y516D01*
X-26Y517D01*
X-22Y511D01*
X-24Y510D01*
X-25Y508D01*
X-27Y507D01*
X-28Y507D01*
X-29Y506D01*
X-30Y505D01*
X-31Y505D01*
X-31Y505D01*
X-31Y505D01*
X-31D01*
X-33Y504D01*
X-35Y503D01*
X-37Y503D01*
X-39Y503D01*
X-40Y502D01*
X-41Y502D01*
X-42D01*
X-42Y502D01*
X-43D01*
X-46Y502D01*
X-49Y503D01*
X-52Y504D01*
X-54Y504D01*
X-55Y505D01*
X-56Y505D01*
X-57Y506D01*
X-57Y506D01*
X-58Y506D01*
X-58Y506D01*
X-58Y506D01*
X-59D01*
X-61Y508D01*
X-63Y510D01*
X-65Y512D01*
X-67Y514D01*
X-68Y515D01*
X-69Y516D01*
X-69Y516D01*
X-69Y517D01*
X-70Y517D01*
X-70Y517D01*
X-70Y518D01*
X-71Y520D01*
X-72Y523D01*
X-73Y526D01*
X-73Y528D01*
X-74Y529D01*
X-74Y530D01*
X-74Y531D01*
X-74Y532D01*
X-74Y532D01*
Y533D01*
Y533D01*
Y533D01*
X-74Y536D01*
X-73Y539D01*
X-73Y542D01*
X-72Y544D01*
X-72Y545D01*
X-71Y546D01*
X-71Y547D01*
X-70Y548D01*
X-70Y548D01*
X-70Y549D01*
X-70Y549D01*
Y549D01*
X-68Y551D01*
X-66Y554D01*
X-64Y556D01*
X-63Y557D01*
X-61Y559D01*
X-60Y559D01*
X-60Y560D01*
X-59Y560D01*
X-59Y560D01*
X-59Y560D01*
X-59D01*
X-56Y562D01*
X-53Y563D01*
X-51Y563D01*
X-48Y564D01*
X-47Y564D01*
X-46Y564D01*
X-45Y564D01*
X-44D01*
X-44Y565D01*
X-43D01*
X-41Y564D01*
D02*
G37*
G36*
X23Y562D02*
X-2Y503D01*
X-10D01*
X14Y557D01*
X-18D01*
Y564D01*
X23D01*
Y562D01*
D02*
G37*
G36*
X-93Y679D02*
X-91Y678D01*
X-89Y678D01*
X-87Y677D01*
X-86Y677D01*
X-85Y677D01*
X-84Y676D01*
X-84Y676D01*
X-84Y676D01*
X-84D01*
X-82Y675D01*
X-80Y674D01*
X-78Y673D01*
X-77Y672D01*
X-76Y671D01*
X-75Y670D01*
X-74Y670D01*
X-74Y670D01*
X-78Y664D01*
X-79Y665D01*
X-81Y667D01*
X-82Y668D01*
X-83Y668D01*
X-84Y669D01*
X-85Y669D01*
X-86Y670D01*
X-86Y670D01*
X-86D01*
X-88Y670D01*
X-89Y671D01*
X-91Y671D01*
X-92Y672D01*
X-93Y672D01*
X-94Y672D01*
X-95D01*
X-97Y672D01*
X-100Y671D01*
X-102Y671D01*
X-103Y670D01*
X-105Y670D01*
X-106Y669D01*
X-106Y669D01*
X-107Y669D01*
X-107Y669D01*
X-107D01*
X-109Y667D01*
X-111Y666D01*
X-112Y665D01*
X-113Y663D01*
X-114Y662D01*
X-115Y661D01*
X-115Y660D01*
X-116Y660D01*
X-116Y660D01*
Y660D01*
X-117Y658D01*
X-118Y656D01*
X-118Y654D01*
X-119Y652D01*
X-119Y650D01*
X-119Y649D01*
Y649D01*
X-119Y648D01*
Y648D01*
Y648D01*
Y648D01*
X-119Y645D01*
X-119Y643D01*
X-118Y641D01*
X-118Y639D01*
X-117Y637D01*
X-117Y637D01*
X-116Y636D01*
X-116Y636D01*
X-116Y635D01*
X-116Y635D01*
Y635D01*
X-114Y633D01*
X-113Y632D01*
X-111Y630D01*
X-110Y629D01*
X-109Y628D01*
X-108Y627D01*
X-107Y627D01*
X-107Y627D01*
X-107Y627D01*
X-107D01*
X-105Y626D01*
X-103Y625D01*
X-101Y624D01*
X-99Y624D01*
X-97Y624D01*
X-97Y623D01*
X-96D01*
X-96Y623D01*
X-95D01*
X-93Y623D01*
X-91Y624D01*
X-90Y624D01*
X-88Y624D01*
X-87Y625D01*
X-86Y625D01*
X-86Y625D01*
X-86Y625D01*
X-84Y626D01*
X-83Y627D01*
X-81Y628D01*
X-80Y629D01*
X-79Y630D01*
X-79Y630D01*
X-78Y631D01*
X-78Y631D01*
X-74Y625D01*
X-76Y624D01*
X-77Y623D01*
X-79Y622D01*
X-80Y621D01*
X-81Y620D01*
X-82Y620D01*
X-83Y619D01*
X-83Y619D01*
X-83Y619D01*
X-83D01*
X-85Y618D01*
X-87Y618D01*
X-89Y617D01*
X-91Y617D01*
X-92Y617D01*
X-93Y617D01*
X-94D01*
X-94Y617D01*
X-95D01*
X-98Y617D01*
X-101Y617D01*
X-104Y618D01*
X-106Y619D01*
X-107Y619D01*
X-108Y619D01*
X-109Y620D01*
X-109Y620D01*
X-110Y620D01*
X-110Y621D01*
X-110Y621D01*
X-111D01*
X-113Y622D01*
X-115Y624D01*
X-117Y626D01*
X-119Y628D01*
X-120Y629D01*
X-121Y630D01*
X-121Y631D01*
X-121Y631D01*
X-122Y632D01*
X-122Y632D01*
X-122Y632D01*
X-123Y635D01*
X-124Y637D01*
X-125Y640D01*
X-125Y642D01*
X-126Y643D01*
X-126Y644D01*
X-126Y645D01*
X-126Y646D01*
X-126Y647D01*
Y647D01*
Y647D01*
Y648D01*
X-126Y651D01*
X-125Y654D01*
X-125Y656D01*
X-124Y659D01*
X-124Y660D01*
X-123Y661D01*
X-123Y661D01*
X-122Y662D01*
X-122Y663D01*
X-122Y663D01*
X-122Y663D01*
Y663D01*
X-120Y666D01*
X-118Y668D01*
X-116Y670D01*
X-115Y672D01*
X-113Y673D01*
X-112Y673D01*
X-112Y674D01*
X-111Y674D01*
X-111Y674D01*
X-111Y675D01*
X-111D01*
X-108Y676D01*
X-105Y677D01*
X-103Y678D01*
X-100Y678D01*
X-99Y678D01*
X-98Y679D01*
X-97Y679D01*
X-96D01*
X-96Y679D01*
X-95D01*
X-93Y679D01*
D02*
G37*
G36*
X-54Y654D02*
X-53Y655D01*
X-51Y655D01*
X-51Y656D01*
X-50Y656D01*
X-50Y656D01*
X-50D01*
X-48Y656D01*
X-47Y656D01*
X-47Y656D01*
X-46D01*
X-44Y656D01*
X-42Y656D01*
X-41Y655D01*
X-39Y655D01*
X-38Y655D01*
X-37Y654D01*
X-37Y654D01*
X-36Y654D01*
X-35Y653D01*
X-33Y652D01*
X-32Y651D01*
X-31Y650D01*
X-30Y649D01*
X-30Y648D01*
X-29Y647D01*
X-29Y647D01*
Y647D01*
X-28Y646D01*
X-28Y644D01*
X-27Y642D01*
X-27Y640D01*
X-26Y639D01*
X-26Y638D01*
X-26Y637D01*
Y637D01*
Y637D01*
Y637D01*
X-26Y635D01*
X-27Y633D01*
X-27Y631D01*
X-28Y630D01*
X-28Y629D01*
X-29Y628D01*
X-29Y627D01*
X-29Y627D01*
Y627D01*
X-30Y625D01*
X-32Y624D01*
X-33Y622D01*
X-34Y621D01*
X-35Y621D01*
X-36Y620D01*
X-37Y620D01*
X-37Y620D01*
X-37D01*
X-39Y619D01*
X-41Y618D01*
X-42Y618D01*
X-44Y617D01*
X-46Y617D01*
X-47Y617D01*
X-48D01*
X-49Y617D01*
X-51Y617D01*
X-54Y618D01*
X-56Y619D01*
X-58Y619D01*
X-59Y620D01*
X-60Y620D01*
X-60Y621D01*
X-61Y621D01*
X-62Y622D01*
X-62Y622D01*
X-62Y622D01*
X-63Y622D01*
X-63Y622D01*
X-64Y623D01*
X-65Y625D01*
X-66Y626D01*
X-66Y627D01*
X-67Y628D01*
X-67Y629D01*
X-68Y632D01*
X-69Y633D01*
X-69Y634D01*
X-69Y635D01*
Y636D01*
X-69Y636D01*
Y636D01*
Y637D01*
X-69Y639D01*
X-69Y640D01*
X-69Y641D01*
X-68Y641D01*
X-68Y642D01*
X-68Y642D01*
Y642D01*
X-68Y643D01*
X-67Y644D01*
X-67Y646D01*
X-66Y647D01*
X-66Y648D01*
X-65Y648D01*
X-65Y649D01*
X-65Y649D01*
X-64Y651D01*
X-63Y652D01*
X-62Y654D01*
X-61Y656D01*
X-60Y658D01*
X-59Y658D01*
X-59Y659D01*
X-59Y659D01*
X-59Y660D01*
X-58Y660D01*
Y660D01*
X-58Y661D01*
X-57Y663D01*
X-55Y666D01*
X-53Y669D01*
X-51Y671D01*
X-51Y673D01*
X-50Y674D01*
X-49Y675D01*
X-49Y676D01*
X-48Y677D01*
X-48Y677D01*
X-48Y678D01*
X-48Y678D01*
X-40D01*
X-54Y654D01*
D02*
G37*
G36*
X141Y-329D02*
X118Y-383D01*
X112D01*
X133Y-334D01*
X104D01*
Y-328D01*
X141D01*
Y-329D01*
D02*
G37*
G36*
X80Y-328D02*
X81Y-328D01*
X83Y-329D01*
X86Y-330D01*
X87Y-330D01*
X88Y-331D01*
X88Y-331D01*
X89Y-332D01*
X90Y-332D01*
X90Y-332D01*
X91Y-333D01*
X91Y-333D01*
X91Y-333D01*
X91Y-333D01*
X92Y-334D01*
X93Y-335D01*
X94Y-336D01*
X94Y-337D01*
X95Y-339D01*
X96Y-341D01*
X96Y-343D01*
X96Y-344D01*
X97Y-344D01*
Y-345D01*
X97Y-345D01*
Y-346D01*
Y-346D01*
X96Y-348D01*
X96Y-349D01*
X96Y-351D01*
X95Y-353D01*
X94Y-354D01*
X94Y-355D01*
X93Y-355D01*
X93Y-355D01*
Y-355D01*
X92Y-357D01*
X91Y-358D01*
X89Y-359D01*
X88Y-360D01*
X87Y-360D01*
X86Y-361D01*
X86Y-361D01*
X85Y-361D01*
X85Y-361D01*
X85D01*
X101Y-383D01*
X94D01*
X78Y-362D01*
X68D01*
Y-383D01*
X62D01*
X62Y-328D01*
X78D01*
X80Y-328D01*
D02*
G37*
G36*
X972Y188D02*
X974Y188D01*
X977Y187D01*
X980Y186D01*
X983Y184D01*
X985Y183D01*
X986Y182D01*
X987Y181D01*
X987Y181D01*
X988Y180D01*
X988Y180D01*
X988Y180D01*
X989Y179D01*
X990Y177D01*
X991Y175D01*
X992Y174D01*
X993Y170D01*
X994Y167D01*
X995Y164D01*
X995Y163D01*
X995Y162D01*
Y161D01*
X995Y160D01*
Y160D01*
X995Y158D01*
X995Y156D01*
X994Y151D01*
X993Y148D01*
X992Y147D01*
X992Y145D01*
X991Y144D01*
X990Y143D01*
X990Y142D01*
X989Y141D01*
X989Y140D01*
X988Y140D01*
X988Y140D01*
X988Y140D01*
X986Y138D01*
X985Y137D01*
X984Y136D01*
X982Y135D01*
X979Y134D01*
X976Y133D01*
X974Y132D01*
X972Y132D01*
X972Y132D01*
X971Y132D01*
X970D01*
X970D01*
X970D01*
X966Y132D01*
X963Y133D01*
X961Y134D01*
X959Y135D01*
X957Y136D01*
X955Y137D01*
X955Y137D01*
X954Y138D01*
X952Y140D01*
X951Y142D01*
X949Y144D01*
X948Y146D01*
X948Y148D01*
X948Y149D01*
X947Y150D01*
Y150D01*
X947Y148D01*
X946Y146D01*
X945Y145D01*
X944Y143D01*
X943Y142D01*
X942Y141D01*
X942Y140D01*
X942Y140D01*
X940Y139D01*
X938Y138D01*
X936Y137D01*
X934Y137D01*
X933Y137D01*
X931Y136D01*
X931Y136D01*
X930D01*
X929Y136D01*
X927Y137D01*
X924Y137D01*
X922Y138D01*
X920Y140D01*
X918Y141D01*
X917Y142D01*
X916Y143D01*
X916Y143D01*
X914Y146D01*
X912Y148D01*
X911Y151D01*
X910Y154D01*
X910Y156D01*
X910Y157D01*
X910Y158D01*
X910Y159D01*
Y160D01*
X910Y164D01*
X911Y167D01*
X912Y170D01*
X913Y173D01*
X914Y175D01*
X915Y176D01*
X915Y176D01*
X915Y177D01*
X916Y177D01*
X916Y177D01*
X917Y178D01*
X918Y179D01*
X920Y181D01*
X923Y182D01*
X925Y183D01*
X927Y183D01*
X929Y184D01*
X930Y184D01*
X930D01*
X930D01*
X930D01*
X933Y184D01*
X935Y183D01*
X937Y182D01*
X939Y182D01*
X940Y181D01*
X941Y180D01*
X942Y180D01*
X942Y180D01*
X943Y178D01*
X945Y176D01*
X945Y175D01*
X946Y173D01*
X947Y172D01*
X947Y171D01*
X947Y170D01*
Y170D01*
X948Y171D01*
X948Y173D01*
X949Y174D01*
X949Y176D01*
X950Y177D01*
X951Y178D01*
X951Y178D01*
X951Y178D01*
X952Y180D01*
X953Y181D01*
X955Y182D01*
X956Y183D01*
X957Y184D01*
X958Y185D01*
X958Y185D01*
X959Y185D01*
X961Y186D01*
X962Y187D01*
X964Y187D01*
X966Y188D01*
X967Y188D01*
X969Y188D01*
X969D01*
X970D01*
X970D01*
X972Y188D01*
D02*
G37*
G36*
X995Y115D02*
X962Y91D01*
Y75D01*
X995D01*
Y66D01*
X911Y66D01*
Y91D01*
X911Y93D01*
X911Y95D01*
X912Y99D01*
X913Y102D01*
X914Y104D01*
X915Y105D01*
X915Y106D01*
X916Y108D01*
X917Y108D01*
X917Y109D01*
X918Y110D01*
X918Y110D01*
X918Y111D01*
X919Y111D01*
X920Y112D01*
X921Y113D01*
X923Y115D01*
X925Y115D01*
X928Y117D01*
X931Y118D01*
X933Y118D01*
X935Y119D01*
X935Y119D01*
X936D01*
X937Y119D01*
X937D01*
X937D01*
X940Y119D01*
X943Y118D01*
X946Y117D01*
X948Y116D01*
X950Y116D01*
X951Y115D01*
X952Y114D01*
X952Y114D01*
X952D01*
X954Y112D01*
X956Y110D01*
X958Y108D01*
X959Y106D01*
X960Y104D01*
X960Y103D01*
X961Y102D01*
X961Y102D01*
X961Y102D01*
Y101D01*
X995Y126D01*
Y115D01*
D02*
G37*
G36*
X875Y188D02*
X893D01*
Y179D01*
X875D01*
Y132D01*
X809Y165D01*
Y175D01*
X866Y146D01*
Y179D01*
X835D01*
Y188D01*
X866D01*
Y198D01*
X875D01*
Y188D01*
D02*
G37*
G36*
X884Y126D02*
X885Y124D01*
X887Y122D01*
X888Y120D01*
X889Y118D01*
X890Y117D01*
X890Y116D01*
X890Y116D01*
X890Y116D01*
Y115D01*
X892Y113D01*
X892Y110D01*
X893Y107D01*
X893Y105D01*
X894Y102D01*
X894Y101D01*
Y101D01*
X894Y100D01*
Y99D01*
X894Y95D01*
X893Y91D01*
X892Y87D01*
X891Y84D01*
X890Y82D01*
X890Y81D01*
X889Y80D01*
X889Y79D01*
X889Y79D01*
X888Y78D01*
X888Y78D01*
Y78D01*
X886Y74D01*
X883Y71D01*
X881Y68D01*
X878Y66D01*
X876Y64D01*
X875Y64D01*
X874Y63D01*
X874Y62D01*
X873Y62D01*
X873Y62D01*
X873Y62D01*
X869Y60D01*
X865Y58D01*
X862Y58D01*
X858Y57D01*
X857Y57D01*
X855Y56D01*
X854Y56D01*
X853Y56D01*
X852Y56D01*
X852D01*
X851D01*
X851D01*
X847Y56D01*
X843Y57D01*
X839Y58D01*
X836Y59D01*
X834Y59D01*
X833Y60D01*
X832Y60D01*
X831Y61D01*
X830Y61D01*
X830Y62D01*
X830Y62D01*
X829D01*
X826Y64D01*
X823Y67D01*
X820Y69D01*
X818Y72D01*
X816Y74D01*
X815Y75D01*
X815Y76D01*
X814Y76D01*
X814Y77D01*
X814Y77D01*
Y77D01*
X812Y81D01*
X810Y85D01*
X809Y89D01*
X809Y92D01*
X808Y93D01*
X808Y95D01*
X808Y96D01*
Y97D01*
X808Y98D01*
Y99D01*
X808Y102D01*
X808Y105D01*
X809Y108D01*
X810Y110D01*
X810Y112D01*
X811Y113D01*
X811Y114D01*
X811Y114D01*
X811Y114D01*
Y115D01*
X813Y117D01*
X814Y120D01*
X816Y122D01*
X817Y124D01*
X818Y126D01*
X820Y127D01*
X820Y128D01*
X821Y128D01*
X828Y122D01*
X826Y121D01*
X825Y119D01*
X823Y117D01*
X822Y115D01*
X822Y114D01*
X821Y113D01*
X821Y112D01*
X820Y112D01*
Y112D01*
X819Y109D01*
X819Y107D01*
X818Y105D01*
X818Y103D01*
X817Y101D01*
X817Y100D01*
Y99D01*
X818Y96D01*
X818Y92D01*
X819Y90D01*
X820Y87D01*
X821Y85D01*
X821Y84D01*
X822Y83D01*
X822Y83D01*
X822Y83D01*
Y82D01*
X824Y80D01*
X826Y77D01*
X828Y75D01*
X830Y74D01*
X831Y72D01*
X833Y71D01*
X833Y71D01*
X834Y70D01*
X834Y70D01*
X834D01*
X837Y69D01*
X840Y68D01*
X843Y67D01*
X845Y66D01*
X848Y66D01*
X849Y66D01*
X849D01*
X850Y65D01*
X851D01*
X851D01*
X851D01*
X855Y66D01*
X858Y66D01*
X861Y67D01*
X863Y68D01*
X865Y69D01*
X866Y69D01*
X867Y69D01*
X868Y70D01*
X868Y70D01*
X868Y70D01*
X868D01*
X871Y72D01*
X873Y74D01*
X875Y76D01*
X877Y78D01*
X878Y80D01*
X879Y81D01*
X880Y82D01*
X880Y82D01*
X880Y82D01*
Y82D01*
X882Y85D01*
X883Y88D01*
X884Y91D01*
X884Y93D01*
X884Y96D01*
X885Y97D01*
Y97D01*
X885Y98D01*
Y99D01*
X885Y101D01*
X884Y104D01*
X884Y106D01*
X883Y108D01*
X883Y110D01*
X882Y111D01*
X882Y112D01*
X882Y112D01*
X881Y114D01*
X879Y116D01*
X878Y118D01*
X877Y119D01*
X876Y121D01*
X875Y122D01*
X874Y122D01*
X874Y122D01*
X882Y128D01*
X884Y126D01*
D02*
G37*
G36*
X929Y-204D02*
X930Y-205D01*
X932Y-205D01*
X933Y-205D01*
X933Y-205D01*
X934Y-206D01*
X934D01*
X936Y-206D01*
X937Y-207D01*
X939Y-207D01*
X940Y-208D01*
X942Y-209D01*
X943Y-209D01*
X943Y-210D01*
X944Y-210D01*
X946Y-211D01*
X948Y-213D01*
X951Y-214D01*
X953Y-216D01*
X955Y-217D01*
X957Y-218D01*
X957Y-218D01*
X958Y-219D01*
X958Y-219D01*
X958D01*
X962Y-221D01*
X966Y-224D01*
X970Y-226D01*
X973Y-228D01*
X975Y-230D01*
X977Y-231D01*
X978Y-231D01*
X980Y-232D01*
X981Y-233D01*
X981Y-233D01*
X982Y-234D01*
X982Y-234D01*
Y-245D01*
X950Y-225D01*
X951Y-227D01*
X952Y-229D01*
X952Y-230D01*
X952Y-230D01*
X952Y-231D01*
Y-231D01*
X952Y-233D01*
X953Y-235D01*
X953Y-235D01*
Y-236D01*
X953Y-239D01*
X952Y-241D01*
X952Y-244D01*
X951Y-246D01*
X951Y-247D01*
X950Y-248D01*
X950Y-249D01*
X949Y-249D01*
Y-250D01*
X948Y-252D01*
X946Y-254D01*
X945Y-255D01*
X943Y-257D01*
X942Y-258D01*
X941Y-259D01*
X940Y-259D01*
X940Y-259D01*
X938Y-261D01*
X935Y-262D01*
X933Y-262D01*
X930Y-263D01*
X929Y-263D01*
X927Y-263D01*
X926D01*
X926D01*
X926D01*
X926D01*
X923Y-263D01*
X920Y-263D01*
X918Y-262D01*
X916Y-261D01*
X914Y-260D01*
X913Y-260D01*
X912Y-259D01*
X912Y-259D01*
X909Y-258D01*
X907Y-256D01*
X906Y-254D01*
X904Y-252D01*
X903Y-251D01*
X902Y-250D01*
X902Y-249D01*
X901Y-249D01*
Y-249D01*
X900Y-246D01*
X899Y-244D01*
X898Y-241D01*
X898Y-239D01*
X898Y-237D01*
X898Y-235D01*
Y-234D01*
X898Y-231D01*
X898Y-228D01*
X899Y-225D01*
X899Y-223D01*
X900Y-221D01*
X901Y-220D01*
X901Y-219D01*
X901Y-219D01*
Y-219D01*
X903Y-216D01*
X905Y-214D01*
X906Y-213D01*
X908Y-211D01*
X909Y-210D01*
X911Y-209D01*
X911Y-208D01*
X912Y-208D01*
X912D01*
X914Y-207D01*
X917Y-206D01*
X919Y-205D01*
X921Y-205D01*
X923Y-204D01*
X924Y-204D01*
X925D01*
X925D01*
X926D01*
X926D01*
X927D01*
X929Y-204D01*
D02*
G37*
G36*
X982Y-280D02*
X949Y-304D01*
Y-320D01*
X982D01*
Y-329D01*
X898Y-329D01*
Y-304D01*
X898Y-302D01*
X899Y-300D01*
X900Y-296D01*
X901Y-293D01*
X902Y-291D01*
X902Y-290D01*
X903Y-289D01*
X904Y-287D01*
X904Y-287D01*
X905Y-286D01*
X905Y-285D01*
X906Y-285D01*
X906Y-284D01*
X906Y-284D01*
X908Y-283D01*
X909Y-282D01*
X911Y-281D01*
X912Y-280D01*
X915Y-278D01*
X918Y-277D01*
X921Y-277D01*
X922Y-276D01*
X923Y-276D01*
X924D01*
X924Y-276D01*
X925D01*
X925D01*
X928Y-276D01*
X931Y-277D01*
X933Y-278D01*
X935Y-279D01*
X937Y-279D01*
X939Y-280D01*
X939Y-281D01*
X940Y-281D01*
X940D01*
X942Y-283D01*
X944Y-285D01*
X945Y-287D01*
X946Y-289D01*
X947Y-291D01*
X948Y-292D01*
X948Y-293D01*
X948Y-293D01*
X948Y-293D01*
Y-294D01*
X982Y-269D01*
Y-280D01*
D02*
G37*
G36*
X853Y-198D02*
X856Y-198D01*
X858Y-198D01*
X860Y-199D01*
X862Y-200D01*
X864Y-200D01*
X865Y-201D01*
X867Y-202D01*
X868Y-203D01*
X869Y-204D01*
X870Y-205D01*
X871Y-205D01*
X872Y-206D01*
X872Y-206D01*
X872Y-206D01*
X872Y-207D01*
X874Y-208D01*
X875Y-210D01*
X876Y-212D01*
X877Y-214D01*
X878Y-215D01*
X879Y-217D01*
X880Y-221D01*
X880Y-222D01*
X880Y-224D01*
X880Y-225D01*
X881Y-226D01*
Y-227D01*
X881Y-228D01*
Y-228D01*
X881Y-232D01*
X880Y-235D01*
X879Y-238D01*
X878Y-240D01*
X877Y-242D01*
X877Y-243D01*
X877Y-244D01*
X876Y-244D01*
X876Y-245D01*
X876Y-245D01*
Y-245D01*
X874Y-248D01*
X872Y-250D01*
X870Y-252D01*
X868Y-254D01*
X866Y-255D01*
X864Y-256D01*
X864Y-256D01*
X864Y-257D01*
X863Y-257D01*
X863D01*
X860Y-248D01*
X862Y-246D01*
X864Y-245D01*
X865Y-244D01*
X866Y-243D01*
X867Y-241D01*
X868Y-240D01*
X868Y-240D01*
X868Y-239D01*
X869Y-237D01*
X870Y-235D01*
X871Y-234D01*
X871Y-232D01*
X871Y-231D01*
X871Y-230D01*
X872Y-229D01*
Y-229D01*
X871Y-226D01*
X871Y-223D01*
X870Y-220D01*
X869Y-218D01*
X868Y-216D01*
X867Y-215D01*
X866Y-214D01*
X866Y-214D01*
X864Y-212D01*
X861Y-210D01*
X859Y-209D01*
X856Y-208D01*
X854Y-208D01*
X853Y-207D01*
X853Y-207D01*
X852D01*
X851Y-207D01*
X851D01*
X851D01*
X848Y-207D01*
X845Y-208D01*
X842Y-209D01*
X840Y-210D01*
X839Y-211D01*
X838Y-212D01*
X837Y-213D01*
X837Y-213D01*
X835Y-215D01*
X833Y-218D01*
X832Y-220D01*
X832Y-223D01*
X831Y-225D01*
X831Y-226D01*
X831Y-227D01*
Y-228D01*
X831Y-230D01*
X832Y-233D01*
X832Y-235D01*
X833Y-237D01*
X834Y-239D01*
X834Y-240D01*
X835Y-240D01*
X835Y-241D01*
X836Y-243D01*
X838Y-244D01*
X839Y-246D01*
X841Y-247D01*
X842Y-248D01*
X843Y-248D01*
X844Y-248D01*
X844Y-249D01*
X840Y-254D01*
X796Y-248D01*
Y-205D01*
X806D01*
Y-241D01*
X829Y-244D01*
X828Y-243D01*
X827Y-241D01*
X826Y-240D01*
X825Y-239D01*
X824Y-238D01*
X824Y-237D01*
X824Y-236D01*
X824Y-236D01*
X823Y-234D01*
X823Y-233D01*
X822Y-231D01*
X822Y-230D01*
X822Y-228D01*
Y-227D01*
X822Y-224D01*
X822Y-222D01*
X823Y-220D01*
X823Y-218D01*
X824Y-216D01*
X825Y-214D01*
X825Y-213D01*
X826Y-211D01*
X827Y-210D01*
X828Y-209D01*
X828Y-208D01*
X829Y-207D01*
X829Y-206D01*
X830Y-206D01*
X830Y-206D01*
X830Y-206D01*
X832Y-204D01*
X833Y-203D01*
X835Y-202D01*
X837Y-201D01*
X840Y-199D01*
X843Y-198D01*
X845Y-198D01*
X846Y-198D01*
X848Y-198D01*
X849Y-198D01*
X850Y-197D01*
X850D01*
X851D01*
X851D01*
X853Y-198D01*
D02*
G37*
G36*
X871Y-266D02*
X873Y-268D01*
X874Y-270D01*
X875Y-272D01*
X876Y-274D01*
X877Y-275D01*
X877Y-276D01*
X878Y-276D01*
X878Y-276D01*
Y-276D01*
X879Y-279D01*
X880Y-282D01*
X880Y-285D01*
X881Y-287D01*
X881Y-289D01*
X881Y-290D01*
Y-291D01*
X881Y-292D01*
Y-293D01*
X881Y-297D01*
X880Y-301D01*
X879Y-305D01*
X878Y-308D01*
X878Y-309D01*
X877Y-311D01*
X877Y-312D01*
X876Y-313D01*
X876Y-313D01*
X876Y-314D01*
X875Y-314D01*
Y-314D01*
X873Y-318D01*
X871Y-321D01*
X868Y-324D01*
X866Y-326D01*
X864Y-328D01*
X863Y-328D01*
X862Y-329D01*
X861Y-329D01*
X861Y-330D01*
X860Y-330D01*
X860Y-330D01*
X856Y-332D01*
X853Y-333D01*
X849Y-334D01*
X846Y-335D01*
X844Y-335D01*
X843Y-335D01*
X842Y-336D01*
X840Y-336D01*
X840Y-336D01*
X839D01*
X839D01*
X838D01*
X834Y-336D01*
X830Y-335D01*
X826Y-334D01*
X823Y-333D01*
X822Y-332D01*
X820Y-332D01*
X819Y-331D01*
X818Y-331D01*
X818Y-331D01*
X817Y-330D01*
X817Y-330D01*
X817D01*
X813Y-328D01*
X810Y-325D01*
X807Y-323D01*
X805Y-320D01*
X803Y-318D01*
X803Y-317D01*
X802Y-316D01*
X802Y-315D01*
X801Y-315D01*
X801Y-315D01*
Y-314D01*
X799Y-311D01*
X798Y-307D01*
X797Y-303D01*
X796Y-300D01*
X796Y-298D01*
X795Y-297D01*
X795Y-296D01*
Y-295D01*
X795Y-294D01*
Y-293D01*
X795Y-290D01*
X796Y-287D01*
X796Y-284D01*
X797Y-282D01*
X798Y-280D01*
X798Y-279D01*
X798Y-278D01*
X799Y-278D01*
X799Y-277D01*
Y-277D01*
X800Y-275D01*
X801Y-272D01*
X803Y-270D01*
X804Y-268D01*
X806Y-266D01*
X807Y-265D01*
X808Y-264D01*
X808Y-264D01*
X815Y-270D01*
X814Y-271D01*
X812Y-273D01*
X811Y-275D01*
X810Y-277D01*
X809Y-278D01*
X808Y-279D01*
X808Y-280D01*
X808Y-280D01*
Y-280D01*
X807Y-282D01*
X806Y-285D01*
X805Y-287D01*
X805Y-289D01*
X805Y-291D01*
X805Y-292D01*
Y-293D01*
X805Y-296D01*
X805Y-299D01*
X806Y-302D01*
X807Y-304D01*
X808Y-307D01*
X809Y-308D01*
X809Y-309D01*
X809Y-309D01*
X809Y-309D01*
Y-309D01*
X811Y-312D01*
X813Y-314D01*
X815Y-317D01*
X817Y-318D01*
X819Y-320D01*
X820Y-321D01*
X821Y-321D01*
X821Y-321D01*
X821Y-322D01*
X821D01*
X824Y-323D01*
X827Y-324D01*
X830Y-325D01*
X833Y-326D01*
X835Y-326D01*
X836Y-326D01*
X837D01*
X837Y-326D01*
X838D01*
X838D01*
X838D01*
X842Y-326D01*
X845Y-326D01*
X848Y-325D01*
X851Y-324D01*
X853Y-323D01*
X853Y-323D01*
X854Y-322D01*
X855Y-322D01*
X855Y-322D01*
X855Y-322D01*
X856D01*
X858Y-320D01*
X861Y-318D01*
X863Y-316D01*
X864Y-314D01*
X866Y-312D01*
X867Y-311D01*
X867Y-310D01*
X867Y-310D01*
X867Y-310D01*
Y-309D01*
X869Y-306D01*
X870Y-304D01*
X871Y-301D01*
X871Y-298D01*
X872Y-296D01*
X872Y-295D01*
Y-294D01*
X872Y-294D01*
Y-293D01*
X872Y-290D01*
X871Y-288D01*
X871Y-286D01*
X870Y-284D01*
X870Y-282D01*
X869Y-281D01*
X869Y-280D01*
X869Y-280D01*
X868Y-278D01*
X867Y-276D01*
X865Y-274D01*
X864Y-272D01*
X863Y-271D01*
X862Y-270D01*
X862Y-270D01*
X862Y-269D01*
X869Y-264D01*
X871Y-266D01*
D02*
G37*
G36*
X-192Y409D02*
X-190Y409D01*
X-188Y408D01*
X-187Y408D01*
X-186Y407D01*
X-185Y407D01*
X-184Y407D01*
X-184Y407D01*
X-184Y407D01*
X-184D01*
X-182Y406D01*
X-180Y405D01*
X-179Y404D01*
X-178Y403D01*
X-177Y402D01*
X-176Y401D01*
X-175Y401D01*
X-175Y401D01*
X-179Y396D01*
X-180Y397D01*
X-181Y398D01*
X-182Y399D01*
X-183Y399D01*
X-184Y400D01*
X-185Y400D01*
X-186Y401D01*
X-186Y401D01*
X-186D01*
X-187Y401D01*
X-189Y402D01*
X-190Y402D01*
X-192Y402D01*
X-193Y403D01*
X-194Y403D01*
X-194D01*
X-196Y403D01*
X-198Y402D01*
X-200Y402D01*
X-202Y401D01*
X-203Y401D01*
X-204Y400D01*
X-204Y400D01*
X-205Y400D01*
X-205Y400D01*
X-205D01*
X-207Y399D01*
X-208Y397D01*
X-210Y396D01*
X-211Y395D01*
X-212Y394D01*
X-212Y393D01*
X-213Y392D01*
X-213Y392D01*
X-213Y392D01*
Y392D01*
X-214Y390D01*
X-215Y388D01*
X-215Y386D01*
X-216Y384D01*
X-216Y383D01*
X-216Y382D01*
Y382D01*
X-216Y381D01*
Y381D01*
Y381D01*
Y381D01*
X-216Y378D01*
X-216Y376D01*
X-215Y374D01*
X-215Y373D01*
X-214Y371D01*
X-214Y371D01*
X-213Y370D01*
X-213Y370D01*
X-213Y369D01*
X-213Y369D01*
Y369D01*
X-212Y368D01*
X-210Y366D01*
X-209Y365D01*
X-208Y364D01*
X-207Y363D01*
X-206Y362D01*
X-205Y362D01*
X-205Y362D01*
X-205Y362D01*
X-205D01*
X-203Y361D01*
X-201Y360D01*
X-199Y359D01*
X-198Y359D01*
X-196Y359D01*
X-196Y359D01*
X-195D01*
X-195Y359D01*
X-194D01*
X-192Y359D01*
X-191Y359D01*
X-189Y359D01*
X-188Y360D01*
X-187Y360D01*
X-186Y360D01*
X-186Y360D01*
X-186Y361D01*
X-184Y361D01*
X-183Y362D01*
X-182Y363D01*
X-181Y364D01*
X-180Y364D01*
X-179Y365D01*
X-179Y365D01*
X-179Y365D01*
X-175Y360D01*
X-176Y359D01*
X-178Y358D01*
X-179Y357D01*
X-181Y356D01*
X-182Y356D01*
X-182Y355D01*
X-183Y355D01*
X-183Y355D01*
X-183Y355D01*
X-183D01*
X-185Y354D01*
X-187Y353D01*
X-189Y353D01*
X-190Y353D01*
X-192Y353D01*
X-192Y353D01*
X-193D01*
X-193Y352D01*
X-194D01*
X-197Y353D01*
X-199Y353D01*
X-202Y354D01*
X-204Y354D01*
X-205Y355D01*
X-206Y355D01*
X-206Y355D01*
X-207Y356D01*
X-208Y356D01*
X-208Y356D01*
X-208Y356D01*
X-208D01*
X-210Y358D01*
X-212Y359D01*
X-214Y361D01*
X-216Y363D01*
X-217Y364D01*
X-217Y365D01*
X-218Y365D01*
X-218Y366D01*
X-218Y366D01*
X-218Y366D01*
X-218Y366D01*
X-220Y369D01*
X-221Y371D01*
X-221Y374D01*
X-222Y376D01*
X-222Y377D01*
X-222Y378D01*
X-222Y379D01*
X-222Y379D01*
X-222Y380D01*
Y380D01*
Y380D01*
Y381D01*
X-222Y383D01*
X-222Y386D01*
X-221Y389D01*
X-220Y391D01*
X-220Y392D01*
X-220Y392D01*
X-219Y393D01*
X-219Y394D01*
X-219Y394D01*
X-219Y395D01*
X-218Y395D01*
Y395D01*
X-217Y397D01*
X-215Y399D01*
X-214Y401D01*
X-212Y402D01*
X-210Y404D01*
X-210Y404D01*
X-209Y404D01*
X-209Y405D01*
X-209Y405D01*
X-208Y405D01*
X-208D01*
X-206Y406D01*
X-203Y407D01*
X-201Y408D01*
X-199Y408D01*
X-198Y409D01*
X-197Y409D01*
X-196Y409D01*
X-195D01*
X-195Y409D01*
X-194D01*
X-192Y409D01*
D02*
G37*
G36*
X-151Y409D02*
X-150Y409D01*
X-148Y409D01*
X-146Y408D01*
X-144Y407D01*
X-143Y407D01*
X-142Y406D01*
X-142Y406D01*
X-141Y406D01*
X-141Y406D01*
X-141Y405D01*
X-141Y405D01*
X-140Y405D01*
X-139Y404D01*
X-138Y402D01*
X-137Y400D01*
X-137Y399D01*
X-136Y397D01*
X-136Y397D01*
X-136Y396D01*
X-136Y396D01*
Y395D01*
Y395D01*
Y395D01*
X-136Y393D01*
X-137Y392D01*
X-137Y391D01*
X-137Y389D01*
X-138Y389D01*
X-138Y388D01*
X-139Y388D01*
X-139Y387D01*
X-140Y386D01*
X-141Y386D01*
X-142Y385D01*
X-143Y384D01*
X-143Y384D01*
X-144Y384D01*
X-144Y384D01*
X-145Y383D01*
X-143Y383D01*
X-141Y382D01*
X-140Y381D01*
X-138Y380D01*
X-138Y380D01*
X-137Y379D01*
X-136Y379D01*
X-136Y379D01*
X-135Y377D01*
X-135Y376D01*
X-134Y374D01*
X-134Y373D01*
X-133Y371D01*
X-133Y370D01*
Y370D01*
Y369D01*
Y369D01*
Y369D01*
X-133Y368D01*
X-134Y366D01*
X-134Y365D01*
X-134Y364D01*
X-135Y363D01*
X-135Y362D01*
X-136Y361D01*
X-136Y361D01*
X-137Y360D01*
X-138Y359D01*
X-139Y358D01*
X-140Y357D01*
X-141Y356D01*
X-142Y356D01*
X-142Y355D01*
X-142Y355D01*
X-142D01*
X-144Y354D01*
X-146Y354D01*
X-147Y353D01*
X-149Y353D01*
X-150Y353D01*
X-151Y353D01*
X-152D01*
X-154Y353D01*
X-157Y353D01*
X-159Y354D01*
X-160Y355D01*
X-162Y356D01*
X-162Y356D01*
X-163Y356D01*
X-163Y356D01*
X-164Y357D01*
X-164Y357D01*
X-164D01*
X-166Y358D01*
X-167Y360D01*
X-168Y361D01*
X-169Y363D01*
X-170Y364D01*
X-170Y365D01*
X-170Y366D01*
X-170Y366D01*
X-170Y366D01*
Y366D01*
X-164Y368D01*
X-164Y367D01*
X-163Y365D01*
X-162Y364D01*
X-162Y363D01*
X-161Y362D01*
X-160Y362D01*
X-160Y362D01*
X-160Y361D01*
X-159Y361D01*
X-157Y360D01*
X-156Y360D01*
X-155Y359D01*
X-154Y359D01*
X-153Y359D01*
X-152Y359D01*
X-152D01*
X-150Y359D01*
X-148Y360D01*
X-147Y360D01*
X-146Y361D01*
X-145Y361D01*
X-144Y362D01*
X-143Y362D01*
X-143Y362D01*
X-142Y363D01*
X-141Y365D01*
X-140Y366D01*
X-140Y367D01*
X-140Y368D01*
X-140Y369D01*
X-139Y369D01*
Y370D01*
X-140Y371D01*
X-140Y372D01*
X-140Y373D01*
X-141Y375D01*
X-142Y376D01*
X-143Y377D01*
X-144Y378D01*
X-144Y378D01*
X-144Y378D01*
X-144D01*
X-146Y379D01*
X-149Y380D01*
X-151Y381D01*
X-153Y381D01*
X-155Y381D01*
X-156Y381D01*
X-156Y381D01*
X-158D01*
X-157Y385D01*
X-155Y385D01*
X-153Y385D01*
X-151Y386D01*
X-150Y386D01*
X-148Y387D01*
X-148Y387D01*
X-147Y387D01*
X-147Y388D01*
X-146Y388D01*
X-145Y389D01*
X-144Y390D01*
X-143Y391D01*
X-143Y392D01*
X-143Y393D01*
X-142Y394D01*
X-142Y394D01*
Y395D01*
Y395D01*
X-142Y396D01*
X-143Y397D01*
X-143Y398D01*
X-144Y399D01*
X-144Y400D01*
X-145Y401D01*
X-145Y401D01*
X-145Y401D01*
X-146Y402D01*
X-147Y402D01*
X-149Y403D01*
X-150Y403D01*
X-151Y403D01*
X-151Y403D01*
X-152Y404D01*
X-152D01*
X-153Y403D01*
X-155Y403D01*
X-156Y403D01*
X-157Y402D01*
X-157Y402D01*
X-158Y402D01*
X-158Y401D01*
X-158Y401D01*
X-159Y400D01*
X-160Y400D01*
X-160Y399D01*
X-161Y398D01*
X-161Y397D01*
X-161Y396D01*
X-162Y396D01*
Y396D01*
X-168Y397D01*
X-167Y399D01*
X-167Y401D01*
X-166Y402D01*
X-165Y403D01*
X-164Y404D01*
X-163Y405D01*
X-163Y406D01*
X-163Y406D01*
X-161Y407D01*
X-159Y408D01*
X-157Y409D01*
X-156Y409D01*
X-154Y409D01*
X-154Y409D01*
X-153D01*
X-153Y410D01*
X-152D01*
X-151Y409D01*
D02*
G37*
G36*
X449Y695D02*
X376D01*
X380Y682D01*
X370D01*
X364Y702D01*
Y705D01*
X449D01*
Y695D01*
D02*
G37*
G36*
Y665D02*
X416Y642D01*
Y626D01*
X449D01*
Y616D01*
X365Y616D01*
Y641D01*
X365Y643D01*
X365Y645D01*
X366Y649D01*
X367Y653D01*
X368Y654D01*
X369Y655D01*
X370Y657D01*
X370Y658D01*
X371Y659D01*
X371Y660D01*
X372Y660D01*
X372Y661D01*
X372Y661D01*
X373Y661D01*
X374Y662D01*
X376Y664D01*
X377Y665D01*
X379Y666D01*
X382Y667D01*
X385Y668D01*
X388Y669D01*
X389Y669D01*
X390Y669D01*
X390D01*
X391Y669D01*
X391D01*
X392D01*
X394Y669D01*
X397Y668D01*
X400Y668D01*
X402Y667D01*
X404Y666D01*
X405Y665D01*
X406Y664D01*
X406Y664D01*
X406D01*
X408Y662D01*
X410Y660D01*
X412Y658D01*
X413Y656D01*
X414Y654D01*
X414Y653D01*
X415Y652D01*
X415Y652D01*
X415Y652D01*
Y652D01*
X449Y677D01*
Y665D01*
D02*
G37*
G36*
X588Y702D02*
X516D01*
X520Y689D01*
X510D01*
X504Y709D01*
Y711D01*
X588D01*
Y702D01*
D02*
G37*
G36*
X579Y679D02*
X581Y677D01*
X582Y675D01*
X583Y673D01*
X584Y672D01*
X585Y670D01*
X585Y670D01*
X586Y669D01*
X586Y669D01*
Y669D01*
X587Y666D01*
X588Y664D01*
X588Y661D01*
X589Y658D01*
X589Y656D01*
X589Y655D01*
Y654D01*
X589Y653D01*
Y653D01*
X589Y648D01*
X588Y644D01*
X587Y641D01*
X586Y637D01*
X586Y636D01*
X585Y635D01*
X585Y634D01*
X584Y633D01*
X584Y632D01*
X584Y632D01*
X583Y631D01*
Y631D01*
X581Y628D01*
X579Y625D01*
X576Y622D01*
X574Y620D01*
X571Y618D01*
X570Y617D01*
X570Y617D01*
X569Y616D01*
X568Y616D01*
X568Y616D01*
X568Y615D01*
X564Y613D01*
X561Y612D01*
X557Y611D01*
X554Y610D01*
X552Y610D01*
X551Y610D01*
X549Y610D01*
X548Y610D01*
X547Y610D01*
X547D01*
X546D01*
X546D01*
X542Y610D01*
X538Y610D01*
X534Y611D01*
X531Y612D01*
X530Y613D01*
X528Y614D01*
X527Y614D01*
X526Y615D01*
X526Y615D01*
X525Y615D01*
X525Y615D01*
X525D01*
X521Y618D01*
X518Y620D01*
X515Y623D01*
X513Y625D01*
X511Y628D01*
X511Y629D01*
X510Y629D01*
X510Y630D01*
X509Y631D01*
X509Y631D01*
Y631D01*
X507Y635D01*
X506Y638D01*
X505Y642D01*
X504Y645D01*
X504Y647D01*
X503Y648D01*
X503Y650D01*
Y651D01*
X503Y652D01*
Y653D01*
X503Y656D01*
X504Y659D01*
X504Y661D01*
X505Y664D01*
X505Y665D01*
X506Y667D01*
X506Y667D01*
X506Y668D01*
X507Y668D01*
Y668D01*
X508Y671D01*
X509Y673D01*
X511Y676D01*
X512Y678D01*
X514Y679D01*
X515Y680D01*
X515Y681D01*
X516Y681D01*
X523Y676D01*
X522Y674D01*
X520Y672D01*
X519Y671D01*
X518Y669D01*
X517Y667D01*
X516Y666D01*
X516Y665D01*
X516Y665D01*
Y665D01*
X515Y663D01*
X514Y661D01*
X513Y658D01*
X513Y656D01*
X513Y655D01*
X512Y653D01*
Y652D01*
X513Y649D01*
X513Y646D01*
X514Y643D01*
X515Y641D01*
X516Y639D01*
X516Y637D01*
X517Y637D01*
X517Y636D01*
X517Y636D01*
Y636D01*
X519Y633D01*
X521Y631D01*
X523Y629D01*
X525Y627D01*
X526Y626D01*
X528Y625D01*
X528Y624D01*
X529Y624D01*
X529Y624D01*
X529D01*
X532Y622D01*
X535Y621D01*
X538Y620D01*
X541Y620D01*
X543Y619D01*
X544Y619D01*
X545D01*
X545Y619D01*
X546D01*
X546D01*
X546D01*
X550Y619D01*
X553Y620D01*
X556Y621D01*
X558Y621D01*
X561Y622D01*
X561Y623D01*
X562Y623D01*
X563Y623D01*
X563Y624D01*
X563Y624D01*
X564D01*
X566Y626D01*
X568Y628D01*
X571Y630D01*
X572Y632D01*
X574Y633D01*
X575Y635D01*
X575Y635D01*
X575Y636D01*
X575Y636D01*
Y636D01*
X577Y639D01*
X578Y642D01*
X579Y644D01*
X579Y647D01*
X580Y649D01*
X580Y650D01*
Y651D01*
X580Y652D01*
Y652D01*
X580Y655D01*
X579Y657D01*
X579Y660D01*
X578Y662D01*
X578Y663D01*
X577Y664D01*
X577Y665D01*
X577Y665D01*
X576Y668D01*
X575Y670D01*
X573Y671D01*
X572Y673D01*
X571Y674D01*
X570Y675D01*
X570Y676D01*
X569Y676D01*
X577Y681D01*
X579Y679D01*
D02*
G37*
G36*
X-621Y258D02*
X-622Y255D01*
X-622Y252D01*
X-622Y250D01*
X-623Y247D01*
X-624Y245D01*
X-624Y243D01*
X-625Y242D01*
X-626Y240D01*
X-627Y238D01*
X-628Y237D01*
X-628Y236D01*
X-629Y235D01*
X-630Y234D01*
X-630Y234D01*
X-630Y234D01*
X-630Y233D01*
X-632Y232D01*
X-634Y230D01*
X-636Y229D01*
X-637Y228D01*
X-639Y227D01*
X-641Y226D01*
X-645Y225D01*
X-646Y225D01*
X-648Y224D01*
X-649Y224D01*
X-650Y224D01*
X-651D01*
X-652Y224D01*
X-652D01*
X-655Y224D01*
X-657Y224D01*
X-660Y225D01*
X-662Y225D01*
X-664Y226D01*
X-666Y227D01*
X-667Y228D01*
X-669Y229D01*
X-670Y230D01*
X-671Y230D01*
X-672Y231D01*
X-673Y232D01*
X-674Y233D01*
X-674Y233D01*
X-675Y233D01*
X-675Y233D01*
X-676Y235D01*
X-678Y237D01*
X-679Y239D01*
X-680Y241D01*
X-681Y243D01*
X-681Y245D01*
X-682Y249D01*
X-683Y251D01*
X-683Y252D01*
X-683Y254D01*
X-683Y255D01*
Y256D01*
X-684Y257D01*
Y257D01*
Y258D01*
Y309D01*
X-674D01*
Y258D01*
X-674Y254D01*
X-673Y250D01*
X-672Y247D01*
X-671Y245D01*
X-670Y243D01*
X-669Y242D01*
X-669Y241D01*
X-669Y241D01*
X-668Y240D01*
X-668Y240D01*
Y240D01*
X-667Y239D01*
X-666Y238D01*
X-663Y236D01*
X-661Y235D01*
X-658Y234D01*
X-656Y234D01*
X-655Y234D01*
X-654Y233D01*
X-653D01*
X-653Y233D01*
X-652D01*
X-651Y233D01*
X-649Y234D01*
X-646Y234D01*
X-643Y235D01*
X-641Y237D01*
X-640Y238D01*
X-638Y239D01*
X-637Y240D01*
X-637Y240D01*
X-635Y243D01*
X-634Y246D01*
X-633Y249D01*
X-632Y251D01*
X-631Y254D01*
X-631Y255D01*
X-631Y256D01*
X-631Y257D01*
Y257D01*
Y257D01*
Y258D01*
Y309D01*
X-621D01*
Y258D01*
D02*
G37*
G36*
X-586Y225D02*
X-596D01*
Y297D01*
X-609Y293D01*
Y303D01*
X-589Y309D01*
X-586D01*
Y225D01*
D02*
G37*
G36*
X-853Y112D02*
X-851Y112D01*
X-847Y111D01*
X-845Y110D01*
X-843Y109D01*
X-841Y109D01*
X-840Y108D01*
X-839Y107D01*
X-838Y106D01*
X-837Y106D01*
X-836Y105D01*
X-835Y104D01*
X-835Y104D01*
X-834Y104D01*
X-834Y104D01*
X-833Y102D01*
X-832Y101D01*
X-830Y99D01*
X-830Y97D01*
X-829Y95D01*
X-828Y94D01*
X-827Y91D01*
X-826Y88D01*
X-826Y87D01*
X-826Y86D01*
X-826Y85D01*
Y84D01*
Y84D01*
Y84D01*
X-826Y82D01*
X-826Y80D01*
X-827Y78D01*
X-828Y75D01*
X-829Y72D01*
X-831Y68D01*
X-832Y67D01*
X-833Y65D01*
X-834Y64D01*
X-835Y63D01*
X-836Y62D01*
X-836Y61D01*
X-837Y61D01*
X-837Y61D01*
X-839Y59D01*
X-841Y56D01*
X-843Y54D01*
X-846Y52D01*
X-851Y48D01*
X-856Y44D01*
X-859Y43D01*
X-861Y41D01*
X-863Y40D01*
X-864Y39D01*
X-866Y38D01*
X-867Y37D01*
X-867Y37D01*
X-868Y37D01*
X-825D01*
Y27D01*
X-888D01*
Y30D01*
X-883Y34D01*
X-878Y37D01*
X-873Y40D01*
X-869Y44D01*
X-866Y47D01*
X-862Y49D01*
X-860Y52D01*
X-857Y54D01*
X-855Y56D01*
X-853Y58D01*
X-851Y59D01*
X-850Y60D01*
X-849Y61D01*
X-848Y62D01*
X-847Y63D01*
X-847Y63D01*
X-845Y65D01*
X-843Y67D01*
X-842Y69D01*
X-840Y71D01*
X-839Y73D01*
X-838Y75D01*
X-837Y76D01*
X-837Y78D01*
X-836Y79D01*
X-836Y80D01*
X-836Y81D01*
X-835Y82D01*
X-835Y82D01*
Y83D01*
Y83D01*
Y83D01*
X-836Y86D01*
X-836Y89D01*
X-837Y91D01*
X-838Y93D01*
X-839Y95D01*
X-840Y96D01*
X-841Y97D01*
X-841Y97D01*
X-843Y99D01*
X-846Y100D01*
X-848Y101D01*
X-850Y102D01*
X-852Y102D01*
X-854Y103D01*
X-854Y103D01*
X-855D01*
X-858Y103D01*
X-861Y102D01*
X-864Y101D01*
X-866Y100D01*
X-868Y98D01*
X-869Y98D01*
X-870Y97D01*
X-870Y97D01*
X-872Y94D01*
X-874Y92D01*
X-875Y89D01*
X-875Y87D01*
X-876Y85D01*
X-876Y84D01*
X-876Y83D01*
X-876Y82D01*
Y82D01*
Y82D01*
Y81D01*
X-885Y83D01*
X-885Y86D01*
X-884Y88D01*
X-884Y92D01*
X-882Y95D01*
X-881Y97D01*
X-881Y98D01*
X-880Y100D01*
X-879Y101D01*
X-878Y102D01*
X-878Y103D01*
X-877Y103D01*
X-877Y103D01*
X-877Y104D01*
X-876Y104D01*
X-875Y105D01*
X-873Y107D01*
X-871Y108D01*
X-870Y109D01*
X-866Y110D01*
X-863Y111D01*
X-861Y111D01*
X-860Y112D01*
X-859Y112D01*
X-858Y112D01*
X-857Y112D01*
X-855D01*
X-853Y112D01*
D02*
G37*
G36*
X-926Y111D02*
X-924Y111D01*
X-920Y110D01*
X-917Y108D01*
X-915Y108D01*
X-914Y107D01*
X-913Y106D01*
X-912Y106D01*
X-911Y105D01*
X-910Y104D01*
X-910Y104D01*
X-909Y103D01*
X-909Y103D01*
X-909Y103D01*
X-907Y102D01*
X-906Y100D01*
X-905Y99D01*
X-904Y97D01*
X-903Y94D01*
X-902Y91D01*
X-901Y88D01*
X-901Y87D01*
X-901Y86D01*
Y85D01*
X-900Y85D01*
Y84D01*
Y84D01*
X-901Y81D01*
X-901Y79D01*
X-902Y76D01*
X-903Y74D01*
X-904Y72D01*
X-905Y71D01*
X-905Y70D01*
X-905Y70D01*
Y70D01*
X-907Y68D01*
X-909Y66D01*
X-911Y64D01*
X-914Y63D01*
X-915Y62D01*
X-917Y61D01*
X-917Y61D01*
X-918Y61D01*
X-918Y61D01*
X-918D01*
X-893Y27D01*
X-905D01*
X-928Y60D01*
X-944D01*
Y27D01*
X-953D01*
X-954Y111D01*
X-929D01*
X-926Y111D01*
D02*
G37*
G36*
X-876Y-91D02*
X-844D01*
Y-60D01*
X-835D01*
Y-91D01*
X-825D01*
Y-100D01*
X-835D01*
Y-118D01*
X-844D01*
Y-100D01*
X-891D01*
X-857Y-34D01*
X-847D01*
X-876Y-91D01*
D02*
G37*
G36*
X-926Y-34D02*
X-924Y-35D01*
X-920Y-36D01*
X-917Y-37D01*
X-915Y-38D01*
X-914Y-38D01*
X-913Y-39D01*
X-912Y-40D01*
X-911Y-40D01*
X-910Y-41D01*
X-909Y-42D01*
X-909Y-42D01*
X-909Y-42D01*
X-909Y-42D01*
X-907Y-44D01*
X-906Y-45D01*
X-905Y-47D01*
X-904Y-48D01*
X-902Y-52D01*
X-901Y-54D01*
X-901Y-57D01*
X-901Y-58D01*
X-900Y-59D01*
Y-60D01*
X-900Y-61D01*
Y-61D01*
Y-61D01*
X-901Y-64D01*
X-901Y-67D01*
X-902Y-69D01*
X-903Y-72D01*
X-904Y-73D01*
X-905Y-75D01*
X-905Y-75D01*
X-905Y-76D01*
Y-76D01*
X-907Y-78D01*
X-909Y-80D01*
X-911Y-81D01*
X-913Y-82D01*
X-915Y-83D01*
X-917Y-84D01*
X-917Y-84D01*
X-917Y-84D01*
X-918Y-85D01*
X-918D01*
X-893Y-118D01*
X-905D01*
X-928Y-86D01*
X-944D01*
Y-118D01*
X-953D01*
X-953Y-34D01*
X-929D01*
X-926Y-34D01*
D02*
G37*
G36*
X679Y-466D02*
X681Y-466D01*
X683Y-467D01*
X685Y-467D01*
X687Y-468D01*
X689Y-469D01*
X691Y-470D01*
X692Y-470D01*
X694Y-471D01*
X695Y-472D01*
X696Y-473D01*
X696Y-473D01*
X697Y-474D01*
X698Y-474D01*
X698Y-475D01*
X698Y-475D01*
X699Y-476D01*
X701Y-478D01*
X702Y-480D01*
X703Y-482D01*
X703Y-484D01*
X704Y-486D01*
X705Y-489D01*
X706Y-490D01*
X706Y-492D01*
X706Y-493D01*
X706Y-494D01*
Y-495D01*
X706Y-496D01*
Y-497D01*
X706Y-500D01*
X706Y-503D01*
X705Y-506D01*
X704Y-508D01*
X703Y-511D01*
X703Y-511D01*
X702Y-512D01*
X702Y-513D01*
X702Y-513D01*
X702Y-513D01*
Y-514D01*
X700Y-516D01*
X698Y-519D01*
X695Y-521D01*
X693Y-522D01*
X692Y-524D01*
X690Y-524D01*
X689Y-525D01*
X689Y-525D01*
X689Y-525D01*
X689D01*
X686Y-516D01*
X688Y-515D01*
X689Y-513D01*
X690Y-512D01*
X692Y-511D01*
X693Y-510D01*
X693Y-509D01*
X694Y-508D01*
X694Y-508D01*
X695Y-506D01*
X696Y-504D01*
X696Y-502D01*
X697Y-500D01*
X697Y-499D01*
X697Y-498D01*
X697Y-497D01*
Y-497D01*
X697Y-494D01*
X696Y-491D01*
X695Y-489D01*
X694Y-486D01*
X693Y-485D01*
X692Y-483D01*
X692Y-483D01*
X691Y-482D01*
X689Y-480D01*
X687Y-478D01*
X684Y-477D01*
X682Y-476D01*
X680Y-476D01*
X679Y-476D01*
X678Y-476D01*
X677D01*
X677Y-476D01*
X677D01*
X677D01*
X673Y-476D01*
X670Y-476D01*
X668Y-477D01*
X666Y-479D01*
X664Y-480D01*
X663Y-481D01*
X662Y-481D01*
X662Y-481D01*
X660Y-484D01*
X659Y-486D01*
X658Y-489D01*
X657Y-491D01*
X657Y-493D01*
X657Y-495D01*
X657Y-495D01*
Y-496D01*
X657Y-499D01*
X657Y-501D01*
X658Y-503D01*
X658Y-505D01*
X659Y-507D01*
X660Y-508D01*
X660Y-509D01*
X660Y-509D01*
X662Y-511D01*
X663Y-513D01*
X665Y-514D01*
X666Y-515D01*
X668Y-516D01*
X668Y-516D01*
X669Y-517D01*
X669Y-517D01*
X666Y-522D01*
X622Y-516D01*
Y-473D01*
X631D01*
Y-509D01*
X655Y-512D01*
X653Y-511D01*
X652Y-510D01*
X651Y-508D01*
X650Y-507D01*
X650Y-506D01*
X649Y-505D01*
X649Y-504D01*
X649Y-504D01*
X649Y-503D01*
X648Y-501D01*
X648Y-499D01*
X648Y-498D01*
X647Y-497D01*
Y-495D01*
X648Y-493D01*
X648Y-490D01*
X648Y-488D01*
X649Y-486D01*
X649Y-484D01*
X650Y-482D01*
X651Y-481D01*
X652Y-479D01*
X652Y-478D01*
X653Y-477D01*
X654Y-476D01*
X654Y-475D01*
X655Y-475D01*
X655Y-474D01*
X656Y-474D01*
X656Y-474D01*
X657Y-472D01*
X659Y-471D01*
X660Y-470D01*
X662Y-469D01*
X666Y-468D01*
X669Y-467D01*
X671Y-466D01*
X672Y-466D01*
X673Y-466D01*
X674Y-466D01*
X675Y-466D01*
X676D01*
X676D01*
X677D01*
X679Y-466D01*
D02*
G37*
G36*
X706Y-542D02*
X673Y-566D01*
Y-581D01*
X706D01*
Y-591D01*
X622Y-591D01*
Y-566D01*
X622Y-564D01*
X622Y-562D01*
X623Y-558D01*
X625Y-554D01*
X625Y-553D01*
X626Y-552D01*
X627Y-550D01*
X627Y-549D01*
X628Y-548D01*
X629Y-548D01*
X629Y-547D01*
X630Y-547D01*
X630Y-546D01*
X630Y-546D01*
X631Y-545D01*
X633Y-543D01*
X634Y-542D01*
X636Y-541D01*
X639Y-540D01*
X642Y-539D01*
X645Y-538D01*
X646Y-538D01*
X647Y-538D01*
X648D01*
X648Y-538D01*
X649D01*
X649D01*
X652Y-538D01*
X655Y-539D01*
X657Y-539D01*
X659Y-540D01*
X661Y-541D01*
X662Y-542D01*
X663Y-543D01*
X663Y-543D01*
X663D01*
X666Y-545D01*
X667Y-547D01*
X669Y-549D01*
X670Y-551D01*
X671Y-553D01*
X672Y-554D01*
X672Y-555D01*
X672Y-555D01*
X672Y-555D01*
Y-555D01*
X706Y-530D01*
Y-542D01*
D02*
G37*
G36*
X447Y294D02*
X448Y294D01*
X451Y294D01*
X453Y293D01*
X454Y292D01*
X455Y292D01*
X456Y291D01*
X456Y291D01*
X457Y290D01*
X457Y290D01*
X458Y290D01*
X458Y289D01*
X458Y289D01*
X458Y289D01*
X459Y288D01*
X460Y287D01*
X461Y286D01*
X461Y285D01*
X462Y283D01*
X463Y281D01*
X463Y279D01*
X464Y279D01*
X464Y278D01*
Y278D01*
X464Y277D01*
Y277D01*
Y277D01*
X464Y275D01*
X463Y273D01*
X463Y271D01*
X462Y270D01*
X462Y269D01*
X461Y268D01*
X461Y267D01*
X461Y267D01*
Y267D01*
X459Y266D01*
X458Y265D01*
X457Y264D01*
X455Y263D01*
X454Y262D01*
X453Y262D01*
X453Y262D01*
X453Y262D01*
X452Y262D01*
X452D01*
X469Y239D01*
X461D01*
X446Y261D01*
X435D01*
Y239D01*
X429D01*
X429Y294D01*
X445D01*
X447Y294D01*
D02*
G37*
G36*
X486Y273D02*
X487Y274D01*
X488Y274D01*
X489Y274D01*
X489Y274D01*
X489Y274D01*
X489D01*
X491Y275D01*
X492Y275D01*
X492Y275D01*
X493D01*
X495Y275D01*
X496Y274D01*
X498Y274D01*
X499Y274D01*
X500Y273D01*
X501Y273D01*
X502Y273D01*
X502Y273D01*
X503Y272D01*
X504Y271D01*
X506Y270D01*
X507Y269D01*
X507Y268D01*
X508Y267D01*
X508Y267D01*
X508Y267D01*
Y267D01*
X509Y265D01*
X510Y263D01*
X510Y262D01*
X510Y260D01*
X511Y259D01*
X511Y258D01*
X511Y258D01*
Y257D01*
Y257D01*
Y257D01*
X511Y255D01*
X510Y254D01*
X510Y252D01*
X510Y251D01*
X509Y250D01*
X509Y249D01*
X508Y248D01*
X508Y248D01*
Y248D01*
X507Y247D01*
X506Y245D01*
X505Y244D01*
X504Y243D01*
X503Y242D01*
X502Y242D01*
X501Y242D01*
X501Y241D01*
X501D01*
X500Y241D01*
X498Y240D01*
X496Y240D01*
X495Y239D01*
X493Y239D01*
X492Y239D01*
X491D01*
X490Y239D01*
X488Y239D01*
X486Y240D01*
X483Y241D01*
X482Y241D01*
X482Y242D01*
X481Y242D01*
X480Y242D01*
X479Y243D01*
X479Y243D01*
X478Y244D01*
X478Y244D01*
X478Y244D01*
X478Y244D01*
X477Y245D01*
X476Y246D01*
X475Y247D01*
X475Y248D01*
X474Y249D01*
X474Y250D01*
X473Y252D01*
X472Y254D01*
X472Y255D01*
X472Y256D01*
Y256D01*
X472Y257D01*
Y257D01*
Y257D01*
X472Y259D01*
X472Y260D01*
X472Y261D01*
X473Y261D01*
X473Y262D01*
X473Y262D01*
Y262D01*
X473Y263D01*
X474Y264D01*
X474Y265D01*
X475Y266D01*
X475Y267D01*
X475Y268D01*
X476Y268D01*
X476Y268D01*
X477Y270D01*
X478Y271D01*
X479Y273D01*
X480Y275D01*
X480Y276D01*
X481Y277D01*
X481Y277D01*
X481Y278D01*
X482Y278D01*
X482Y278D01*
Y278D01*
X482Y279D01*
X483Y281D01*
X485Y283D01*
X487Y286D01*
X488Y289D01*
X489Y290D01*
X490Y291D01*
X490Y292D01*
X491Y293D01*
X491Y293D01*
X491Y294D01*
X491Y294D01*
X492Y294D01*
X499D01*
X486Y273D01*
D02*
G37*
G36*
X329Y-519D02*
X327D01*
X323Y-514D01*
X319Y-509D01*
X316Y-505D01*
X313Y-501D01*
X310Y-497D01*
X307Y-494D01*
X305Y-491D01*
X302Y-488D01*
X300Y-486D01*
X299Y-484D01*
X297Y-482D01*
X296Y-481D01*
X295Y-480D01*
X294Y-479D01*
X294Y-479D01*
X294Y-479D01*
X291Y-476D01*
X289Y-474D01*
X287Y-473D01*
X285Y-471D01*
X283Y-470D01*
X282Y-469D01*
X280Y-469D01*
X279Y-468D01*
X277Y-467D01*
X276Y-467D01*
X275Y-467D01*
X275Y-467D01*
X274Y-467D01*
X274D01*
X273D01*
X273D01*
X270Y-467D01*
X267Y-468D01*
X265Y-469D01*
X263Y-470D01*
X261Y-471D01*
X260Y-472D01*
X260Y-472D01*
X259Y-472D01*
X257Y-475D01*
X256Y-477D01*
X255Y-479D01*
X254Y-481D01*
X254Y-483D01*
X254Y-485D01*
X254Y-486D01*
Y-486D01*
X254Y-490D01*
X255Y-493D01*
X256Y-495D01*
X257Y-497D01*
X258Y-499D01*
X259Y-500D01*
X260Y-501D01*
X260Y-502D01*
X262Y-503D01*
X265Y-505D01*
X267Y-506D01*
X270Y-507D01*
X272Y-507D01*
X273Y-507D01*
X273Y-507D01*
X274Y-508D01*
X275D01*
X275D01*
X275D01*
X273Y-516D01*
X271Y-516D01*
X268Y-516D01*
X264Y-515D01*
X261Y-513D01*
X259Y-513D01*
X258Y-512D01*
X257Y-511D01*
X256Y-510D01*
X255Y-510D01*
X254Y-509D01*
X253Y-508D01*
X253Y-508D01*
X253Y-508D01*
X253Y-508D01*
X251Y-506D01*
X250Y-504D01*
X249Y-503D01*
X248Y-501D01*
X246Y-497D01*
X245Y-494D01*
X245Y-493D01*
X245Y-491D01*
X245Y-490D01*
X244Y-489D01*
X244Y-488D01*
Y-487D01*
X244Y-484D01*
X245Y-482D01*
X246Y-478D01*
X246Y-476D01*
X247Y-474D01*
X248Y-473D01*
X249Y-471D01*
X249Y-470D01*
X250Y-469D01*
X251Y-468D01*
X252Y-467D01*
X252Y-466D01*
X252Y-466D01*
X253Y-466D01*
X253Y-466D01*
X254Y-464D01*
X256Y-463D01*
X258Y-462D01*
X259Y-461D01*
X261Y-460D01*
X263Y-459D01*
X266Y-458D01*
X268Y-458D01*
X270Y-458D01*
X271Y-457D01*
X272Y-457D01*
X272D01*
X273D01*
X273D01*
X275Y-457D01*
X277Y-458D01*
X279Y-458D01*
X281Y-459D01*
X285Y-461D01*
X288Y-463D01*
X290Y-464D01*
X291Y-465D01*
X293Y-465D01*
X294Y-466D01*
X295Y-467D01*
X295Y-468D01*
X296Y-468D01*
X296Y-468D01*
X298Y-470D01*
X300Y-472D01*
X302Y-475D01*
X304Y-477D01*
X308Y-482D01*
X312Y-487D01*
X314Y-490D01*
X315Y-492D01*
X317Y-494D01*
X318Y-496D01*
X319Y-497D01*
X319Y-498D01*
X320Y-499D01*
X320Y-499D01*
Y-456D01*
X329D01*
Y-519D01*
D02*
G37*
G36*
X320Y-528D02*
X322Y-530D01*
X323Y-532D01*
X324Y-534D01*
X325Y-536D01*
X326Y-537D01*
X326Y-538D01*
X327Y-538D01*
X327Y-538D01*
Y-539D01*
X328Y-541D01*
X329Y-544D01*
X329Y-547D01*
X330Y-549D01*
X330Y-552D01*
X330Y-553D01*
Y-553D01*
X330Y-554D01*
Y-555D01*
X330Y-559D01*
X329Y-563D01*
X328Y-567D01*
X327Y-570D01*
X327Y-572D01*
X326Y-573D01*
X326Y-574D01*
X325Y-575D01*
X325Y-576D01*
X325Y-576D01*
X324Y-576D01*
Y-577D01*
X322Y-580D01*
X320Y-583D01*
X317Y-586D01*
X315Y-588D01*
X312Y-590D01*
X311Y-590D01*
X311Y-591D01*
X310Y-592D01*
X309Y-592D01*
X309Y-592D01*
X309Y-592D01*
X305Y-594D01*
X302Y-596D01*
X298Y-597D01*
X295Y-597D01*
X293Y-598D01*
X292Y-598D01*
X290Y-598D01*
X289Y-598D01*
X288Y-598D01*
X288D01*
X287D01*
X287D01*
X283Y-598D01*
X279Y-597D01*
X275Y-596D01*
X272Y-595D01*
X271Y-595D01*
X269Y-594D01*
X268Y-594D01*
X267Y-593D01*
X267Y-593D01*
X266Y-592D01*
X266Y-592D01*
X266D01*
X262Y-590D01*
X259Y-587D01*
X256Y-585D01*
X254Y-582D01*
X252Y-580D01*
X252Y-579D01*
X251Y-578D01*
X251Y-578D01*
X250Y-577D01*
X250Y-577D01*
Y-577D01*
X248Y-573D01*
X247Y-569D01*
X246Y-566D01*
X245Y-562D01*
X245Y-561D01*
X244Y-559D01*
X244Y-558D01*
Y-557D01*
X244Y-556D01*
Y-555D01*
X244Y-552D01*
X245Y-549D01*
X245Y-546D01*
X246Y-544D01*
X246Y-542D01*
X247Y-541D01*
X247Y-540D01*
X247Y-540D01*
X248Y-540D01*
Y-539D01*
X249Y-537D01*
X250Y-534D01*
X252Y-532D01*
X253Y-530D01*
X255Y-528D01*
X256Y-527D01*
X256Y-526D01*
X257Y-526D01*
X264Y-532D01*
X263Y-533D01*
X261Y-535D01*
X260Y-537D01*
X259Y-539D01*
X258Y-540D01*
X257Y-541D01*
X257Y-542D01*
X257Y-542D01*
Y-542D01*
X256Y-545D01*
X255Y-547D01*
X254Y-549D01*
X254Y-551D01*
X254Y-553D01*
X254Y-554D01*
Y-555D01*
X254Y-558D01*
X254Y-562D01*
X255Y-564D01*
X256Y-567D01*
X257Y-569D01*
X257Y-570D01*
X258Y-571D01*
X258Y-571D01*
X258Y-571D01*
Y-572D01*
X260Y-574D01*
X262Y-577D01*
X264Y-579D01*
X266Y-580D01*
X267Y-582D01*
X269Y-583D01*
X269Y-583D01*
X270Y-584D01*
X270Y-584D01*
X270D01*
X273Y-585D01*
X276Y-587D01*
X279Y-587D01*
X282Y-588D01*
X284Y-588D01*
X285Y-588D01*
X286D01*
X286Y-589D01*
X287D01*
X287D01*
X287D01*
X291Y-588D01*
X294Y-588D01*
X297Y-587D01*
X299Y-586D01*
X302Y-585D01*
X302Y-585D01*
X303Y-585D01*
X304Y-584D01*
X304Y-584D01*
X304Y-584D01*
X305D01*
X307Y-582D01*
X309Y-580D01*
X312Y-578D01*
X313Y-576D01*
X315Y-574D01*
X316Y-573D01*
X316Y-572D01*
X316Y-572D01*
X316Y-572D01*
Y-572D01*
X318Y-569D01*
X319Y-566D01*
X320Y-563D01*
X320Y-561D01*
X321Y-558D01*
X321Y-557D01*
Y-557D01*
X321Y-556D01*
Y-555D01*
X321Y-553D01*
X320Y-550D01*
X320Y-548D01*
X319Y-546D01*
X319Y-544D01*
X318Y-543D01*
X318Y-542D01*
X318Y-542D01*
X317Y-540D01*
X316Y-538D01*
X314Y-536D01*
X313Y-535D01*
X312Y-533D01*
X311Y-532D01*
X311Y-532D01*
X310Y-532D01*
X318Y-526D01*
X320Y-528D01*
D02*
G37*
%LPC*%
G36*
X-1204Y-594D02*
X-1225D01*
Y-604D01*
X-1225Y-606D01*
X-1224Y-607D01*
X-1224Y-609D01*
X-1223Y-610D01*
X-1223Y-610D01*
X-1222Y-611D01*
X-1222Y-612D01*
X-1222Y-612D01*
X-1221Y-613D01*
X-1219Y-614D01*
X-1218Y-614D01*
X-1217Y-615D01*
X-1216Y-615D01*
X-1215Y-615D01*
X-1214D01*
X-1214D01*
X-1213Y-615D01*
X-1211Y-615D01*
X-1210Y-614D01*
X-1209Y-613D01*
X-1208Y-613D01*
X-1207Y-612D01*
X-1207Y-612D01*
X-1207Y-612D01*
X-1206Y-610D01*
X-1205Y-609D01*
X-1205Y-608D01*
X-1204Y-607D01*
X-1204Y-606D01*
X-1204Y-605D01*
Y-594D01*
D02*
G37*
G36*
X1073Y31D02*
X1073D01*
X1073D01*
X1070Y31D01*
X1068Y30D01*
X1066Y29D01*
X1064Y28D01*
X1063Y27D01*
X1062Y27D01*
X1061Y26D01*
X1061Y26D01*
X1059Y24D01*
X1058Y22D01*
X1057Y20D01*
X1057Y18D01*
X1056Y16D01*
X1056Y14D01*
X1056Y14D01*
Y-2D01*
X1089D01*
X1089Y13D01*
X1089Y16D01*
X1088Y18D01*
X1088Y21D01*
X1087Y22D01*
X1086Y24D01*
X1085Y25D01*
X1085Y26D01*
X1084Y26D01*
X1083Y27D01*
X1081Y29D01*
X1079Y30D01*
X1077Y30D01*
X1075Y31D01*
X1074Y31D01*
X1073Y31D01*
D02*
G37*
G36*
X85Y1235D02*
X84D01*
X84D01*
X84D01*
X81Y1235D01*
X79Y1235D01*
X76Y1234D01*
X72Y1233D01*
X70Y1231D01*
X69Y1231D01*
X68Y1230D01*
X67Y1229D01*
X66Y1229D01*
X66Y1229D01*
X65Y1228D01*
X65Y1228D01*
X65Y1228D01*
X64Y1226D01*
X63Y1225D01*
X61Y1222D01*
X60Y1218D01*
X59Y1215D01*
X59Y1213D01*
X58Y1211D01*
X58Y1210D01*
X58Y1209D01*
Y1201D01*
X109D01*
Y1208D01*
X109Y1211D01*
X108Y1213D01*
X108Y1217D01*
X107Y1218D01*
X107Y1220D01*
X106Y1221D01*
X105Y1223D01*
X105Y1224D01*
X104Y1225D01*
X104Y1226D01*
X103Y1227D01*
X103Y1227D01*
X102Y1228D01*
X102Y1228D01*
Y1228D01*
X101Y1229D01*
X99Y1230D01*
X98Y1231D01*
X96Y1232D01*
X93Y1233D01*
X90Y1234D01*
X88Y1235D01*
X87Y1235D01*
X86Y1235D01*
X85Y1235D01*
D02*
G37*
G36*
X465Y1233D02*
X464D01*
X464D01*
X464D01*
X460Y1233D01*
X456Y1232D01*
X453Y1231D01*
X450Y1230D01*
X449Y1230D01*
X448Y1230D01*
X447Y1229D01*
X446Y1229D01*
X446Y1228D01*
X445Y1228D01*
X445Y1228D01*
X445D01*
X444Y1227D01*
X442Y1226D01*
X441Y1225D01*
X441Y1224D01*
X439Y1222D01*
X438Y1220D01*
X438Y1218D01*
X438Y1216D01*
X437Y1216D01*
Y1215D01*
X438Y1213D01*
X438Y1212D01*
X439Y1209D01*
X440Y1207D01*
X441Y1205D01*
X443Y1204D01*
X444Y1203D01*
X445Y1202D01*
X445Y1202D01*
X445D01*
X448Y1200D01*
X451Y1199D01*
X454Y1198D01*
X457Y1198D01*
X460Y1197D01*
X461Y1197D01*
X462D01*
X463Y1197D01*
X463D01*
X464D01*
X464D01*
X468Y1197D01*
X472Y1198D01*
X475Y1199D01*
X478Y1199D01*
X479Y1200D01*
X480Y1200D01*
X481Y1201D01*
X482Y1201D01*
X482Y1201D01*
X483Y1202D01*
X483Y1202D01*
X483D01*
X484Y1203D01*
X485Y1204D01*
X486Y1205D01*
X487Y1206D01*
X488Y1208D01*
X489Y1210D01*
X490Y1212D01*
X490Y1213D01*
Y1214D01*
X490Y1214D01*
Y1215D01*
X490Y1216D01*
X490Y1218D01*
X489Y1220D01*
X488Y1223D01*
X487Y1225D01*
X485Y1226D01*
X484Y1227D01*
X483Y1228D01*
X483Y1228D01*
X483D01*
X480Y1230D01*
X477Y1231D01*
X474Y1232D01*
X471Y1232D01*
X468Y1233D01*
X467Y1233D01*
X466D01*
X465Y1233D01*
D02*
G37*
G36*
X824Y-490D02*
X823D01*
X823D01*
X821Y-490D01*
X819Y-491D01*
X817Y-492D01*
X816Y-492D01*
X815Y-493D01*
X814Y-494D01*
X814Y-494D01*
X813Y-495D01*
X812Y-496D01*
X811Y-498D01*
X811Y-500D01*
X810Y-502D01*
X810Y-503D01*
X809Y-504D01*
Y-520D01*
X837D01*
Y-505D01*
X837Y-503D01*
X836Y-501D01*
X836Y-499D01*
X835Y-498D01*
X835Y-496D01*
X834Y-495D01*
X834Y-495D01*
X833Y-495D01*
X832Y-493D01*
X830Y-492D01*
X829Y-491D01*
X827Y-491D01*
X826Y-490D01*
X824Y-490D01*
D02*
G37*
G36*
X97Y-1059D02*
X73Y-1113D01*
X121D01*
X97Y-1059D01*
D02*
G37*
G36*
X-74Y-1048D02*
X-94D01*
Y-1090D01*
X-75Y-1090D01*
X-71Y-1090D01*
X-68Y-1089D01*
X-65Y-1088D01*
X-63Y-1087D01*
X-61Y-1086D01*
X-60Y-1085D01*
X-59Y-1084D01*
X-59Y-1084D01*
X-56Y-1081D01*
X-55Y-1079D01*
X-53Y-1076D01*
X-53Y-1074D01*
X-52Y-1072D01*
X-52Y-1070D01*
X-52Y-1069D01*
Y-1069D01*
Y-1069D01*
X-52Y-1066D01*
X-53Y-1063D01*
X-54Y-1060D01*
X-55Y-1058D01*
X-56Y-1056D01*
X-58Y-1055D01*
X-58Y-1054D01*
X-59Y-1054D01*
X-61Y-1052D01*
X-64Y-1050D01*
X-66Y-1049D01*
X-69Y-1048D01*
X-71Y-1048D01*
X-73Y-1048D01*
X-74Y-1048D01*
D02*
G37*
G36*
X-500D02*
X-521D01*
Y-1090D01*
X-501Y-1090D01*
X-497Y-1090D01*
X-494Y-1089D01*
X-492Y-1088D01*
X-489Y-1087D01*
X-487Y-1086D01*
X-486Y-1085D01*
X-485Y-1084D01*
X-485Y-1084D01*
X-483Y-1081D01*
X-481Y-1079D01*
X-480Y-1076D01*
X-479Y-1074D01*
X-479Y-1072D01*
X-478Y-1070D01*
X-478Y-1069D01*
Y-1069D01*
Y-1069D01*
X-478Y-1066D01*
X-479Y-1063D01*
X-480Y-1060D01*
X-482Y-1058D01*
X-483Y-1056D01*
X-484Y-1055D01*
X-485Y-1054D01*
X-485Y-1054D01*
X-488Y-1052D01*
X-490Y-1050D01*
X-493Y-1049D01*
X-495Y-1048D01*
X-498Y-1048D01*
X-499Y-1048D01*
X-500Y-1048D01*
D02*
G37*
G36*
X-1094D02*
X-1115D01*
Y-1090D01*
X-1095Y-1090D01*
X-1092Y-1090D01*
X-1089Y-1089D01*
X-1086Y-1088D01*
X-1084Y-1087D01*
X-1082Y-1086D01*
X-1080Y-1085D01*
X-1080Y-1084D01*
X-1079Y-1084D01*
X-1077Y-1081D01*
X-1075Y-1079D01*
X-1074Y-1076D01*
X-1073Y-1074D01*
X-1073Y-1072D01*
X-1073Y-1070D01*
X-1072Y-1069D01*
Y-1069D01*
Y-1069D01*
X-1073Y-1066D01*
X-1074Y-1063D01*
X-1075Y-1060D01*
X-1076Y-1058D01*
X-1077Y-1056D01*
X-1078Y-1055D01*
X-1079Y-1054D01*
X-1079Y-1054D01*
X-1082Y-1052D01*
X-1085Y-1050D01*
X-1087Y-1049D01*
X-1090Y-1048D01*
X-1092Y-1048D01*
X-1094Y-1048D01*
X-1094Y-1048D01*
D02*
G37*
G36*
X864Y-1046D02*
X862D01*
X858Y-1047D01*
X854Y-1047D01*
X851Y-1048D01*
X848Y-1049D01*
X845Y-1050D01*
X844Y-1051D01*
X843Y-1051D01*
X842Y-1051D01*
X842Y-1052D01*
X842Y-1052D01*
X841D01*
X838Y-1054D01*
X835Y-1057D01*
X833Y-1059D01*
X830Y-1062D01*
X829Y-1064D01*
X827Y-1065D01*
X827Y-1066D01*
X827Y-1067D01*
X826Y-1067D01*
Y-1067D01*
X824Y-1071D01*
X823Y-1074D01*
X822Y-1078D01*
X821Y-1081D01*
X821Y-1084D01*
X821Y-1085D01*
Y-1086D01*
X821Y-1087D01*
Y-1088D01*
Y-1088D01*
Y-1088D01*
X821Y-1093D01*
X822Y-1097D01*
X823Y-1100D01*
X824Y-1103D01*
X825Y-1106D01*
X825Y-1107D01*
X826Y-1108D01*
X826Y-1109D01*
X826Y-1109D01*
X826Y-1109D01*
Y-1109D01*
X829Y-1113D01*
X831Y-1116D01*
X834Y-1118D01*
X836Y-1120D01*
X838Y-1122D01*
X840Y-1123D01*
X840Y-1124D01*
X841Y-1124D01*
X841Y-1124D01*
X841D01*
X845Y-1126D01*
X849Y-1128D01*
X852Y-1129D01*
X855Y-1129D01*
X858Y-1130D01*
X859Y-1130D01*
X861D01*
X861Y-1130D01*
X862D01*
X867Y-1130D01*
X871Y-1129D01*
X874Y-1128D01*
X878Y-1127D01*
X880Y-1126D01*
X881Y-1126D01*
X882Y-1125D01*
X883Y-1125D01*
X883Y-1125D01*
X884Y-1124D01*
X884D01*
X887Y-1122D01*
X890Y-1120D01*
X893Y-1117D01*
X895Y-1115D01*
X897Y-1113D01*
X898Y-1111D01*
X898Y-1110D01*
X899Y-1110D01*
X899Y-1110D01*
Y-1109D01*
X901Y-1106D01*
X902Y-1102D01*
X903Y-1099D01*
X904Y-1095D01*
X904Y-1093D01*
X904Y-1091D01*
Y-1090D01*
X905Y-1089D01*
Y-1089D01*
Y-1089D01*
Y-1088D01*
X904Y-1084D01*
X904Y-1080D01*
X903Y-1076D01*
X902Y-1073D01*
X901Y-1071D01*
X900Y-1070D01*
X900Y-1069D01*
X899Y-1068D01*
X899Y-1067D01*
X899Y-1067D01*
Y-1067D01*
X897Y-1064D01*
X894Y-1061D01*
X892Y-1058D01*
X889Y-1056D01*
X887Y-1054D01*
X885Y-1053D01*
X885Y-1052D01*
X884Y-1052D01*
X884Y-1052D01*
X884D01*
X880Y-1050D01*
X876Y-1049D01*
X873Y-1048D01*
X869Y-1047D01*
X867Y-1047D01*
X865Y-1046D01*
X864D01*
X864Y-1046D01*
D02*
G37*
G36*
X-602D02*
X-603D01*
X-607Y-1047D01*
X-611Y-1047D01*
X-615Y-1048D01*
X-618Y-1049D01*
X-620Y-1050D01*
X-621Y-1051D01*
X-622Y-1051D01*
X-623Y-1051D01*
X-624Y-1052D01*
X-624Y-1052D01*
X-624D01*
X-627Y-1054D01*
X-630Y-1057D01*
X-633Y-1059D01*
X-635Y-1062D01*
X-637Y-1064D01*
X-638Y-1065D01*
X-638Y-1066D01*
X-639Y-1067D01*
X-639Y-1067D01*
Y-1067D01*
X-641Y-1071D01*
X-642Y-1074D01*
X-643Y-1078D01*
X-644Y-1081D01*
X-644Y-1084D01*
X-645Y-1085D01*
Y-1086D01*
X-645Y-1087D01*
Y-1088D01*
Y-1088D01*
Y-1088D01*
X-644Y-1093D01*
X-644Y-1097D01*
X-643Y-1100D01*
X-642Y-1103D01*
X-641Y-1106D01*
X-640Y-1107D01*
X-640Y-1108D01*
X-639Y-1109D01*
X-639Y-1109D01*
X-639Y-1109D01*
Y-1109D01*
X-637Y-1113D01*
X-634Y-1116D01*
X-632Y-1118D01*
X-629Y-1120D01*
X-627Y-1122D01*
X-626Y-1123D01*
X-625Y-1124D01*
X-624Y-1124D01*
X-624Y-1124D01*
X-624D01*
X-620Y-1126D01*
X-617Y-1128D01*
X-613Y-1129D01*
X-610Y-1129D01*
X-607Y-1130D01*
X-606Y-1130D01*
X-605D01*
X-604Y-1130D01*
X-603D01*
X-599Y-1130D01*
X-595Y-1129D01*
X-591Y-1128D01*
X-588Y-1127D01*
X-585Y-1126D01*
X-584Y-1126D01*
X-583Y-1125D01*
X-583Y-1125D01*
X-582Y-1125D01*
X-582Y-1124D01*
X-582D01*
X-578Y-1122D01*
X-575Y-1120D01*
X-573Y-1117D01*
X-571Y-1115D01*
X-569Y-1113D01*
X-568Y-1111D01*
X-567Y-1110D01*
X-567Y-1110D01*
X-567Y-1110D01*
Y-1109D01*
X-565Y-1106D01*
X-563Y-1102D01*
X-562Y-1099D01*
X-561Y-1095D01*
X-561Y-1093D01*
X-561Y-1091D01*
Y-1090D01*
X-561Y-1089D01*
Y-1089D01*
Y-1089D01*
Y-1088D01*
X-561Y-1084D01*
X-562Y-1080D01*
X-563Y-1076D01*
X-564Y-1073D01*
X-565Y-1071D01*
X-565Y-1070D01*
X-566Y-1069D01*
X-566Y-1068D01*
X-566Y-1067D01*
X-567Y-1067D01*
Y-1067D01*
X-569Y-1064D01*
X-571Y-1061D01*
X-574Y-1058D01*
X-576Y-1056D01*
X-578Y-1054D01*
X-580Y-1053D01*
X-581Y-1052D01*
X-581Y-1052D01*
X-581Y-1052D01*
X-582D01*
X-585Y-1050D01*
X-589Y-1049D01*
X-593Y-1048D01*
X-596Y-1047D01*
X-599Y-1047D01*
X-600Y-1046D01*
X-601D01*
X-602Y-1046D01*
D02*
G37*
G36*
X-1227Y81D02*
X-1227D01*
X-1227D01*
X-1229Y81D01*
X-1231Y81D01*
X-1235Y80D01*
X-1238Y79D01*
X-1240Y77D01*
X-1242Y77D01*
X-1243Y76D01*
X-1244Y75D01*
X-1244Y75D01*
X-1245Y74D01*
X-1245Y74D01*
X-1245Y74D01*
X-1246Y74D01*
X-1247Y72D01*
X-1248Y71D01*
X-1249Y69D01*
X-1250Y68D01*
X-1251Y65D01*
X-1252Y62D01*
X-1253Y59D01*
X-1253Y58D01*
X-1253Y57D01*
Y56D01*
X-1253Y56D01*
Y55D01*
X-1253Y53D01*
X-1253Y51D01*
X-1252Y48D01*
X-1251Y44D01*
X-1249Y42D01*
X-1249Y41D01*
X-1248Y39D01*
X-1247Y39D01*
X-1247Y38D01*
X-1246Y37D01*
X-1246Y37D01*
X-1246Y37D01*
X-1246Y37D01*
X-1244Y35D01*
X-1243Y34D01*
X-1241Y33D01*
X-1239Y32D01*
X-1236Y31D01*
X-1234Y30D01*
X-1231Y29D01*
X-1230Y29D01*
X-1229Y29D01*
X-1228D01*
X-1228Y29D01*
X-1227D01*
X-1227D01*
X-1225Y29D01*
X-1223Y29D01*
X-1220Y30D01*
X-1216Y31D01*
X-1214Y33D01*
X-1212Y34D01*
X-1211Y34D01*
X-1211Y35D01*
X-1210Y35D01*
X-1209Y36D01*
X-1209Y36D01*
X-1209Y36D01*
X-1209Y37D01*
X-1207Y38D01*
X-1206Y39D01*
X-1205Y41D01*
X-1204Y43D01*
X-1203Y46D01*
X-1202Y49D01*
X-1201Y51D01*
X-1201Y52D01*
X-1201Y53D01*
Y54D01*
X-1201Y55D01*
Y55D01*
X-1201Y57D01*
X-1201Y59D01*
X-1202Y63D01*
X-1203Y66D01*
X-1205Y69D01*
X-1206Y70D01*
X-1206Y71D01*
X-1207Y72D01*
X-1207Y72D01*
X-1208Y73D01*
X-1208Y73D01*
X-1208Y74D01*
X-1209Y74D01*
X-1210Y75D01*
X-1211Y76D01*
X-1213Y77D01*
X-1215Y78D01*
X-1218Y79D01*
X-1221Y80D01*
X-1223Y81D01*
X-1224Y81D01*
X-1225Y81D01*
X-1226D01*
X-1227Y81D01*
D02*
G37*
G36*
X-1124Y80D02*
X-1125D01*
X-1125D01*
X-1127Y80D01*
X-1129Y80D01*
X-1132Y79D01*
X-1136Y78D01*
X-1138Y76D01*
X-1139Y76D01*
X-1140Y75D01*
X-1141Y74D01*
X-1142Y74D01*
X-1143Y73D01*
X-1143Y73D01*
X-1143Y73D01*
X-1143Y73D01*
X-1145Y71D01*
X-1146Y70D01*
X-1147Y68D01*
X-1148Y66D01*
X-1149Y63D01*
X-1150Y61D01*
X-1151Y58D01*
X-1151Y57D01*
X-1151Y56D01*
Y55D01*
X-1151Y55D01*
Y54D01*
X-1151Y52D01*
X-1151Y50D01*
X-1150Y46D01*
X-1149Y43D01*
X-1147Y41D01*
X-1146Y39D01*
X-1146Y38D01*
X-1145Y37D01*
X-1144Y37D01*
X-1144Y36D01*
X-1144Y36D01*
X-1144Y36D01*
X-1143Y35D01*
X-1142Y34D01*
X-1140Y33D01*
X-1139Y32D01*
X-1137Y31D01*
X-1134Y30D01*
X-1131Y29D01*
X-1129Y28D01*
X-1128Y28D01*
X-1127Y28D01*
X-1126D01*
X-1125Y28D01*
X-1125D01*
X-1125D01*
X-1123Y28D01*
X-1121Y28D01*
X-1117Y29D01*
X-1114Y30D01*
X-1111Y32D01*
X-1110Y32D01*
X-1109Y33D01*
X-1108Y34D01*
X-1108Y34D01*
X-1107Y35D01*
X-1107Y35D01*
X-1106Y35D01*
X-1106Y35D01*
X-1105Y37D01*
X-1104Y38D01*
X-1103Y40D01*
X-1102Y42D01*
X-1101Y45D01*
X-1100Y47D01*
X-1099Y50D01*
X-1099Y51D01*
X-1099Y52D01*
Y53D01*
X-1099Y53D01*
Y54D01*
X-1099Y56D01*
X-1099Y58D01*
X-1100Y62D01*
X-1101Y65D01*
X-1103Y67D01*
X-1103Y69D01*
X-1104Y70D01*
X-1105Y70D01*
X-1105Y71D01*
X-1106Y72D01*
X-1106Y72D01*
X-1106Y72D01*
X-1106Y73D01*
X-1108Y74D01*
X-1109Y75D01*
X-1111Y76D01*
X-1112Y77D01*
X-1116Y78D01*
X-1118Y79D01*
X-1121Y80D01*
X-1122Y80D01*
X-1123Y80D01*
X-1124D01*
X-1124Y80D01*
D02*
G37*
G36*
X78Y338D02*
X68D01*
Y316D01*
X78Y316D01*
X80Y316D01*
X81Y317D01*
X83Y317D01*
X84Y318D01*
X85Y318D01*
X86Y319D01*
X86Y319D01*
X86Y319D01*
X88Y321D01*
X88Y322D01*
X89Y323D01*
X89Y324D01*
X90Y325D01*
X90Y326D01*
X90Y327D01*
Y327D01*
Y327D01*
X90Y329D01*
X89Y330D01*
X89Y332D01*
X88Y333D01*
X88Y334D01*
X87Y334D01*
X87Y335D01*
X86Y335D01*
X85Y336D01*
X84Y337D01*
X82Y337D01*
X81Y338D01*
X80Y338D01*
X79Y338D01*
X78Y338D01*
D02*
G37*
G36*
X-611Y-294D02*
X-623D01*
Y-318D01*
X-611Y-318D01*
X-609Y-318D01*
X-608Y-318D01*
X-606Y-317D01*
X-605Y-317D01*
X-604Y-316D01*
X-603Y-315D01*
X-602Y-315D01*
X-602Y-315D01*
X-601Y-314D01*
X-600Y-312D01*
X-599Y-311D01*
X-599Y-309D01*
X-598Y-308D01*
X-598Y-307D01*
X-598Y-307D01*
Y-306D01*
Y-306D01*
X-598Y-304D01*
X-599Y-303D01*
X-599Y-301D01*
X-600Y-300D01*
X-601Y-299D01*
X-601Y-298D01*
X-602Y-298D01*
X-602Y-298D01*
X-604Y-296D01*
X-605Y-295D01*
X-607Y-295D01*
X-608Y-294D01*
X-609Y-294D01*
X-610Y-294D01*
X-611Y-294D01*
D02*
G37*
G36*
X-534Y-314D02*
X-535D01*
X-537Y-314D01*
X-539Y-315D01*
X-541Y-315D01*
X-542Y-316D01*
X-543Y-317D01*
X-544Y-318D01*
X-545Y-318D01*
X-545Y-318D01*
X-546Y-320D01*
X-547Y-321D01*
X-548Y-323D01*
X-549Y-325D01*
X-549Y-326D01*
X-549Y-327D01*
X-549Y-327D01*
Y-328D01*
Y-328D01*
Y-328D01*
X-549Y-330D01*
X-549Y-332D01*
X-548Y-333D01*
X-547Y-335D01*
X-546Y-336D01*
X-546Y-337D01*
X-545Y-337D01*
X-545Y-337D01*
X-543Y-339D01*
X-542Y-340D01*
X-540Y-341D01*
X-538Y-341D01*
X-537Y-341D01*
X-536Y-342D01*
X-535Y-342D01*
X-535D01*
X-532Y-341D01*
X-531Y-341D01*
X-529Y-340D01*
X-527Y-339D01*
X-526Y-339D01*
X-525Y-338D01*
X-525Y-338D01*
X-524Y-337D01*
X-523Y-336D01*
X-522Y-334D01*
X-521Y-333D01*
X-521Y-331D01*
X-520Y-330D01*
X-520Y-329D01*
X-520Y-329D01*
Y-328D01*
Y-328D01*
Y-328D01*
X-520Y-326D01*
X-521Y-324D01*
X-522Y-322D01*
X-522Y-321D01*
X-523Y-320D01*
X-524Y-319D01*
X-524Y-318D01*
X-524Y-318D01*
X-526Y-317D01*
X-528Y-316D01*
X-529Y-315D01*
X-531Y-315D01*
X-533Y-314D01*
X-534Y-314D01*
X-534Y-314D01*
D02*
G37*
G36*
X-417Y331D02*
X-419Y331D01*
X-421Y331D01*
X-423Y330D01*
X-424Y329D01*
X-425Y329D01*
X-426Y328D01*
X-426Y328D01*
X-426Y328D01*
X-428Y326D01*
X-429Y325D01*
X-429Y323D01*
X-430Y322D01*
X-430Y321D01*
X-430Y320D01*
X-430Y319D01*
Y319D01*
Y319D01*
X-430Y317D01*
X-430Y316D01*
X-429Y314D01*
X-428Y313D01*
X-428Y312D01*
X-427Y311D01*
X-427Y311D01*
X-426Y310D01*
X-425Y309D01*
X-423Y308D01*
X-422Y308D01*
X-420Y307D01*
X-419Y307D01*
X-418Y307D01*
X-418Y307D01*
X-406D01*
Y331D01*
X-417Y331D01*
D02*
G37*
G36*
X-66Y468D02*
X-78D01*
Y443D01*
X-67Y443D01*
X-65Y444D01*
X-63Y444D01*
X-61Y445D01*
X-60Y445D01*
X-59Y446D01*
X-58Y446D01*
X-58Y447D01*
X-57Y447D01*
X-56Y448D01*
X-55Y450D01*
X-54Y451D01*
X-54Y452D01*
X-54Y454D01*
X-54Y455D01*
X-53Y455D01*
Y455D01*
Y455D01*
X-54Y457D01*
X-54Y459D01*
X-55Y461D01*
X-55Y462D01*
X-56Y463D01*
X-57Y464D01*
X-57Y464D01*
X-57Y464D01*
X-59Y465D01*
X-60Y466D01*
X-62Y467D01*
X-63Y467D01*
X-65Y468D01*
X-66Y468D01*
X-66Y468D01*
D02*
G37*
G36*
X330Y125D02*
X318D01*
Y100D01*
X329Y100D01*
X331Y100D01*
X333Y101D01*
X335Y101D01*
X336Y102D01*
X337Y102D01*
X338Y103D01*
X338Y103D01*
X339Y104D01*
X340Y105D01*
X341Y106D01*
X342Y108D01*
X342Y109D01*
X342Y110D01*
X342Y111D01*
X343Y112D01*
Y112D01*
Y112D01*
X342Y114D01*
X342Y116D01*
X341Y117D01*
X340Y119D01*
X340Y120D01*
X339Y120D01*
X339Y121D01*
X339Y121D01*
X337Y122D01*
X336Y123D01*
X334Y124D01*
X333Y124D01*
X331Y124D01*
X330Y124D01*
X330Y125D01*
D02*
G37*
G36*
X-189Y-411D02*
X-200D01*
Y-433D01*
X-190Y-433D01*
X-188Y-433D01*
X-186Y-432D01*
X-185Y-432D01*
X-184Y-431D01*
X-183Y-431D01*
X-182Y-430D01*
X-182Y-430D01*
X-181Y-430D01*
X-180Y-429D01*
X-179Y-427D01*
X-179Y-426D01*
X-178Y-425D01*
X-178Y-424D01*
X-178Y-423D01*
X-178Y-422D01*
Y-422D01*
Y-422D01*
X-178Y-420D01*
X-178Y-419D01*
X-179Y-417D01*
X-180Y-416D01*
X-180Y-415D01*
X-181Y-415D01*
X-181Y-414D01*
X-181Y-414D01*
X-183Y-413D01*
X-184Y-412D01*
X-186Y-412D01*
X-187Y-411D01*
X-188Y-411D01*
X-189Y-411D01*
X-189Y-411D01*
D02*
G37*
G36*
X374Y-127D02*
X362D01*
Y-151D01*
X373Y-151D01*
X375Y-151D01*
X377Y-151D01*
X378Y-150D01*
X380Y-150D01*
X381Y-149D01*
X382Y-148D01*
X382Y-148D01*
X382Y-148D01*
X384Y-147D01*
X385Y-145D01*
X385Y-144D01*
X386Y-142D01*
X386Y-141D01*
X386Y-140D01*
X386Y-140D01*
Y-139D01*
Y-139D01*
X386Y-137D01*
X386Y-136D01*
X385Y-134D01*
X384Y-133D01*
X384Y-132D01*
X383Y-131D01*
X382Y-131D01*
X382Y-131D01*
X381Y-129D01*
X379Y-129D01*
X378Y-128D01*
X376Y-127D01*
X375Y-127D01*
X374Y-127D01*
X374Y-127D01*
D02*
G37*
G36*
X389Y-328D02*
X377D01*
Y-352D01*
X389Y-352D01*
X391Y-352D01*
X393Y-352D01*
X394Y-351D01*
X396Y-350D01*
X397Y-350D01*
X397Y-349D01*
X398Y-349D01*
X398Y-349D01*
X399Y-347D01*
X400Y-346D01*
X401Y-344D01*
X401Y-343D01*
X402Y-342D01*
X402Y-341D01*
X402Y-340D01*
Y-340D01*
Y-340D01*
X402Y-338D01*
X401Y-337D01*
X401Y-335D01*
X400Y-334D01*
X399Y-333D01*
X399Y-332D01*
X398Y-332D01*
X398Y-331D01*
X397Y-330D01*
X395Y-329D01*
X394Y-329D01*
X392Y-328D01*
X391Y-328D01*
X390Y-328D01*
X389Y-328D01*
D02*
G37*
G36*
X469Y-327D02*
X469D01*
X467Y-327D01*
X466Y-327D01*
X465Y-328D01*
X463Y-328D01*
X461Y-329D01*
X459Y-331D01*
X458Y-332D01*
X457Y-332D01*
X457Y-333D01*
X456Y-333D01*
X456Y-334D01*
X456Y-334D01*
X456Y-334D01*
X455Y-335D01*
X454Y-337D01*
X453Y-339D01*
X452Y-342D01*
X452Y-345D01*
X451Y-346D01*
X451Y-348D01*
X451Y-349D01*
X451Y-349D01*
Y-350D01*
X451Y-351D01*
Y-351D01*
Y-351D01*
X451Y-353D01*
X451Y-355D01*
X451Y-357D01*
X452Y-359D01*
X452Y-360D01*
X453Y-362D01*
X453Y-363D01*
X453Y-364D01*
X454Y-365D01*
X454Y-366D01*
X455Y-367D01*
X455Y-368D01*
X455Y-368D01*
X456Y-368D01*
X456Y-369D01*
Y-369D01*
X457Y-370D01*
X458Y-371D01*
X459Y-372D01*
X460Y-373D01*
X461Y-373D01*
X462Y-374D01*
X464Y-375D01*
X466Y-375D01*
X467Y-375D01*
X467Y-375D01*
X468D01*
X468Y-375D01*
X469D01*
X470Y-375D01*
X471Y-375D01*
X473Y-375D01*
X474Y-374D01*
X476Y-373D01*
X478Y-372D01*
X479Y-371D01*
X480Y-370D01*
X481Y-369D01*
X481Y-369D01*
X481Y-369D01*
X481Y-369D01*
X482Y-367D01*
X483Y-366D01*
X484Y-363D01*
X485Y-360D01*
X485Y-358D01*
X486Y-356D01*
X486Y-355D01*
X486Y-354D01*
X486Y-353D01*
X486Y-352D01*
Y-352D01*
Y-351D01*
Y-351D01*
X486Y-349D01*
X486Y-347D01*
X486Y-346D01*
X485Y-344D01*
X485Y-342D01*
X485Y-341D01*
X484Y-340D01*
X484Y-339D01*
X483Y-337D01*
X483Y-337D01*
X482Y-336D01*
X482Y-335D01*
X482Y-335D01*
X481Y-334D01*
X481Y-334D01*
X481Y-334D01*
X480Y-333D01*
X479Y-332D01*
X478Y-331D01*
X477Y-330D01*
X476Y-329D01*
X475Y-329D01*
X473Y-328D01*
X471Y-327D01*
X471Y-327D01*
X470Y-327D01*
X469D01*
X469Y-327D01*
D02*
G37*
G36*
X-559Y-396D02*
X-571D01*
Y-420D01*
X-560Y-420D01*
X-558Y-420D01*
X-556Y-420D01*
X-554Y-419D01*
X-553Y-418D01*
X-552Y-418D01*
X-551Y-417D01*
X-551Y-417D01*
X-550Y-417D01*
X-549Y-415D01*
X-548Y-414D01*
X-547Y-412D01*
X-547Y-411D01*
X-547Y-410D01*
X-546Y-409D01*
X-546Y-408D01*
Y-408D01*
Y-408D01*
X-547Y-406D01*
X-547Y-404D01*
X-548Y-403D01*
X-548Y-402D01*
X-549Y-401D01*
X-550Y-400D01*
X-550Y-399D01*
X-550Y-399D01*
X-552Y-398D01*
X-553Y-397D01*
X-555Y-397D01*
X-556Y-396D01*
X-558Y-396D01*
X-559Y-396D01*
X-559Y-396D01*
D02*
G37*
G36*
X-483Y-394D02*
X-484D01*
X-485Y-395D01*
X-487Y-395D01*
X-488Y-395D01*
X-489Y-396D01*
X-490Y-396D01*
X-491Y-397D01*
X-491Y-397D01*
X-491Y-397D01*
X-492Y-398D01*
X-493Y-399D01*
X-494Y-400D01*
X-494Y-401D01*
X-494Y-402D01*
X-494Y-403D01*
X-495Y-403D01*
Y-404D01*
X-494Y-405D01*
X-494Y-406D01*
X-493Y-407D01*
X-493Y-408D01*
X-492Y-409D01*
X-492Y-409D01*
X-491Y-410D01*
X-491Y-410D01*
X-490Y-411D01*
X-489Y-411D01*
X-488Y-412D01*
X-486Y-412D01*
X-485Y-412D01*
X-485Y-412D01*
X-484Y-412D01*
X-484D01*
X-482Y-412D01*
X-481Y-412D01*
X-480Y-411D01*
X-478Y-411D01*
X-478Y-411D01*
X-477Y-410D01*
X-476Y-410D01*
X-476Y-410D01*
X-475Y-409D01*
X-475Y-408D01*
X-474Y-407D01*
X-474Y-406D01*
X-473Y-405D01*
X-473Y-404D01*
X-473Y-404D01*
Y-404D01*
X-473Y-402D01*
X-474Y-401D01*
X-474Y-400D01*
X-475Y-399D01*
X-475Y-398D01*
X-476Y-397D01*
X-476Y-397D01*
X-476Y-397D01*
X-477Y-396D01*
X-479Y-396D01*
X-480Y-395D01*
X-481Y-395D01*
X-482Y-395D01*
X-483Y-394D01*
D02*
G37*
G36*
X-483Y-419D02*
X-484D01*
X-486Y-419D01*
X-488Y-420D01*
X-489Y-420D01*
X-491Y-421D01*
X-492Y-422D01*
X-493Y-422D01*
X-493Y-423D01*
X-493Y-423D01*
X-495Y-424D01*
X-496Y-426D01*
X-496Y-427D01*
X-497Y-428D01*
X-497Y-429D01*
X-497Y-430D01*
X-497Y-431D01*
Y-431D01*
Y-431D01*
X-497Y-433D01*
X-497Y-435D01*
X-496Y-436D01*
X-495Y-438D01*
X-495Y-439D01*
X-494Y-439D01*
X-494Y-440D01*
X-494Y-440D01*
X-492Y-441D01*
X-490Y-442D01*
X-489Y-443D01*
X-487Y-443D01*
X-486Y-443D01*
X-485Y-443D01*
X-484Y-443D01*
X-484D01*
X-482Y-443D01*
X-480Y-443D01*
X-478Y-442D01*
X-477Y-442D01*
X-476Y-441D01*
X-475Y-440D01*
X-475Y-440D01*
X-474Y-440D01*
X-473Y-439D01*
X-472Y-437D01*
X-471Y-436D01*
X-471Y-434D01*
X-471Y-433D01*
X-470Y-432D01*
X-470Y-432D01*
Y-431D01*
Y-431D01*
Y-431D01*
X-470Y-429D01*
X-471Y-428D01*
X-472Y-426D01*
X-472Y-425D01*
X-473Y-424D01*
X-474Y-423D01*
X-474Y-423D01*
X-474Y-423D01*
X-476Y-422D01*
X-477Y-421D01*
X-479Y-420D01*
X-480Y-420D01*
X-482Y-419D01*
X-483Y-419D01*
X-483Y-419D01*
D02*
G37*
G36*
X-370Y401D02*
X-382D01*
Y376D01*
X-370Y376D01*
X-368Y376D01*
X-366Y377D01*
X-365Y377D01*
X-363Y378D01*
X-362Y378D01*
X-362Y379D01*
X-361Y379D01*
X-361Y380D01*
X-360Y381D01*
X-359Y382D01*
X-358Y384D01*
X-358Y385D01*
X-357Y386D01*
X-357Y387D01*
X-357Y388D01*
Y388D01*
Y388D01*
X-357Y390D01*
X-358Y392D01*
X-358Y393D01*
X-359Y395D01*
X-360Y396D01*
X-360Y396D01*
X-361Y397D01*
X-361Y397D01*
X-362Y398D01*
X-364Y399D01*
X-365Y400D01*
X-367Y400D01*
X-368Y400D01*
X-369Y400D01*
X-370Y401D01*
D02*
G37*
G36*
X-491Y-497D02*
X-492D01*
X-494Y-497D01*
X-496Y-497D01*
X-498Y-498D01*
X-500Y-499D01*
X-501Y-500D01*
X-502Y-500D01*
X-502Y-501D01*
X-502Y-501D01*
X-504Y-502D01*
X-505Y-504D01*
X-506Y-506D01*
X-506Y-507D01*
X-506Y-508D01*
X-507Y-509D01*
X-507Y-510D01*
Y-510D01*
Y-510D01*
Y-510D01*
X-506Y-512D01*
X-506Y-514D01*
X-505Y-516D01*
X-504Y-517D01*
X-504Y-519D01*
X-503Y-519D01*
X-503Y-520D01*
X-502Y-520D01*
X-501Y-521D01*
X-499Y-522D01*
X-497Y-523D01*
X-496Y-524D01*
X-494Y-524D01*
X-493Y-524D01*
X-493Y-524D01*
X-492D01*
X-490Y-524D01*
X-488Y-524D01*
X-486Y-523D01*
X-485Y-522D01*
X-484Y-521D01*
X-483Y-521D01*
X-482Y-520D01*
X-482Y-520D01*
X-480Y-519D01*
X-479Y-517D01*
X-479Y-515D01*
X-478Y-514D01*
X-478Y-512D01*
X-478Y-511D01*
X-478Y-511D01*
Y-511D01*
Y-510D01*
Y-510D01*
X-478Y-508D01*
X-478Y-507D01*
X-479Y-505D01*
X-480Y-504D01*
X-481Y-502D01*
X-481Y-502D01*
X-482Y-501D01*
X-482Y-501D01*
X-484Y-500D01*
X-485Y-499D01*
X-487Y-498D01*
X-489Y-497D01*
X-490Y-497D01*
X-491Y-497D01*
X-491Y-497D01*
D02*
G37*
G36*
X-542Y-598D02*
X-543D01*
X-544Y-598D01*
X-546Y-598D01*
X-547Y-599D01*
X-548Y-599D01*
X-549Y-599D01*
X-550Y-600D01*
X-550Y-600D01*
X-550Y-600D01*
X-551Y-601D01*
X-552Y-602D01*
X-553Y-603D01*
X-553Y-604D01*
X-553Y-605D01*
X-553Y-606D01*
X-554Y-607D01*
Y-607D01*
X-553Y-608D01*
X-553Y-609D01*
X-552Y-610D01*
X-552Y-611D01*
X-551Y-612D01*
X-551Y-613D01*
X-550Y-613D01*
X-550Y-613D01*
X-549Y-614D01*
X-548Y-614D01*
X-547Y-615D01*
X-545Y-615D01*
X-544Y-615D01*
X-544Y-615D01*
X-543Y-616D01*
X-543D01*
X-541Y-615D01*
X-540Y-615D01*
X-539Y-615D01*
X-537Y-614D01*
X-537Y-614D01*
X-536Y-613D01*
X-535Y-613D01*
X-535Y-613D01*
X-534Y-612D01*
X-534Y-611D01*
X-533Y-610D01*
X-533Y-609D01*
X-532Y-608D01*
X-532Y-607D01*
X-532Y-607D01*
Y-607D01*
X-532Y-605D01*
X-533Y-604D01*
X-533Y-603D01*
X-534Y-602D01*
X-534Y-601D01*
X-535Y-601D01*
X-535Y-600D01*
X-535Y-600D01*
X-536Y-599D01*
X-538Y-599D01*
X-539Y-598D01*
X-540Y-598D01*
X-541Y-598D01*
X-542Y-598D01*
D02*
G37*
G36*
X-542Y-622D02*
X-543D01*
X-545Y-623D01*
X-547Y-623D01*
X-548Y-624D01*
X-550Y-624D01*
X-551Y-625D01*
X-552Y-626D01*
X-552Y-626D01*
X-552Y-626D01*
X-554Y-627D01*
X-555Y-629D01*
X-555Y-630D01*
X-556Y-632D01*
X-556Y-633D01*
X-556Y-634D01*
X-556Y-634D01*
Y-634D01*
Y-634D01*
X-556Y-636D01*
X-556Y-638D01*
X-555Y-639D01*
X-554Y-641D01*
X-554Y-642D01*
X-553Y-643D01*
X-553Y-643D01*
X-553Y-643D01*
X-551Y-644D01*
X-549Y-645D01*
X-548Y-646D01*
X-546Y-646D01*
X-545Y-646D01*
X-544Y-647D01*
X-543Y-647D01*
X-543D01*
X-541Y-646D01*
X-539Y-646D01*
X-537Y-645D01*
X-536Y-645D01*
X-535Y-644D01*
X-534Y-644D01*
X-534Y-643D01*
X-533Y-643D01*
X-532Y-642D01*
X-531Y-640D01*
X-530Y-639D01*
X-530Y-637D01*
X-530Y-636D01*
X-529Y-635D01*
X-529Y-635D01*
Y-635D01*
Y-634D01*
Y-634D01*
X-529Y-633D01*
X-530Y-631D01*
X-531Y-629D01*
X-531Y-628D01*
X-532Y-627D01*
X-533Y-627D01*
X-533Y-626D01*
X-533Y-626D01*
X-535Y-625D01*
X-536Y-624D01*
X-538Y-623D01*
X-539Y-623D01*
X-541Y-623D01*
X-542Y-622D01*
X-542Y-622D01*
D02*
G37*
G36*
X-47Y651D02*
X-48D01*
X-50Y651D01*
X-52Y650D01*
X-53Y650D01*
X-55Y649D01*
X-56Y648D01*
X-57Y647D01*
X-58Y647D01*
X-58Y647D01*
X-59Y645D01*
X-60Y644D01*
X-61Y642D01*
X-62Y641D01*
X-62Y639D01*
X-62Y638D01*
X-62Y638D01*
Y637D01*
Y637D01*
Y637D01*
X-62Y635D01*
X-61Y633D01*
X-61Y632D01*
X-60Y630D01*
X-59Y629D01*
X-58Y628D01*
X-58Y628D01*
X-58Y628D01*
X-56Y626D01*
X-55Y625D01*
X-53Y625D01*
X-51Y624D01*
X-50Y624D01*
X-49Y624D01*
X-48Y623D01*
X-48D01*
X-45Y624D01*
X-43Y624D01*
X-42Y625D01*
X-40Y626D01*
X-39Y626D01*
X-38Y627D01*
X-38Y627D01*
X-37Y628D01*
X-36Y629D01*
X-35Y631D01*
X-34Y632D01*
X-34Y634D01*
X-33Y635D01*
X-33Y636D01*
X-33Y637D01*
Y637D01*
Y637D01*
Y637D01*
X-33Y639D01*
X-34Y641D01*
X-34Y643D01*
X-35Y644D01*
X-36Y645D01*
X-37Y646D01*
X-37Y647D01*
X-37Y647D01*
X-39Y648D01*
X-41Y649D01*
X-42Y650D01*
X-44Y650D01*
X-45Y651D01*
X-47Y651D01*
X-47Y651D01*
D02*
G37*
G36*
X79Y-334D02*
X68D01*
Y-356D01*
X78Y-356D01*
X80Y-356D01*
X82Y-356D01*
X83Y-355D01*
X84Y-355D01*
X85Y-354D01*
X86Y-354D01*
X87Y-353D01*
X87Y-353D01*
X88Y-352D01*
X89Y-351D01*
X89Y-349D01*
X90Y-348D01*
X90Y-347D01*
X90Y-346D01*
X90Y-346D01*
Y-346D01*
Y-345D01*
X90Y-344D01*
X90Y-342D01*
X89Y-341D01*
X88Y-340D01*
X88Y-339D01*
X87Y-338D01*
X87Y-338D01*
X87Y-338D01*
X85Y-337D01*
X84Y-336D01*
X83Y-335D01*
X81Y-335D01*
X80Y-334D01*
X79Y-334D01*
X79Y-334D01*
D02*
G37*
G36*
X931Y175D02*
X931D01*
X929Y175D01*
X927Y174D01*
X926Y173D01*
X924Y173D01*
X923Y172D01*
X922Y171D01*
X922Y171D01*
X922Y170D01*
X921Y169D01*
X920Y167D01*
X919Y165D01*
X919Y164D01*
X919Y162D01*
X918Y161D01*
Y160D01*
X919Y158D01*
X919Y156D01*
X920Y154D01*
X920Y152D01*
X921Y151D01*
X921Y150D01*
X922Y150D01*
X922Y149D01*
X923Y148D01*
X925Y147D01*
X926Y146D01*
X928Y146D01*
X929Y146D01*
X930Y145D01*
X931Y145D01*
X931D01*
X933Y146D01*
X935Y146D01*
X936Y147D01*
X937Y148D01*
X938Y148D01*
X939Y149D01*
X940Y149D01*
X940Y150D01*
X941Y151D01*
X942Y153D01*
X942Y155D01*
X943Y156D01*
X943Y158D01*
X943Y159D01*
X943Y160D01*
Y160D01*
X943Y162D01*
X942Y164D01*
X942Y166D01*
X941Y168D01*
X941Y169D01*
X940Y170D01*
X940Y170D01*
X940Y170D01*
X939Y172D01*
X937Y173D01*
X936Y174D01*
X934Y174D01*
X933Y175D01*
X932Y175D01*
X931Y175D01*
D02*
G37*
G36*
X970Y179D02*
X969D01*
X969D01*
X969D01*
X967Y179D01*
X964Y178D01*
X962Y177D01*
X961Y176D01*
X959Y175D01*
X958Y174D01*
X958Y173D01*
X958Y173D01*
X956Y171D01*
X955Y169D01*
X954Y167D01*
X953Y165D01*
X953Y163D01*
X953Y161D01*
X952Y161D01*
Y160D01*
X953Y157D01*
X953Y155D01*
X954Y152D01*
X955Y150D01*
X956Y149D01*
X957Y148D01*
X957Y147D01*
X958Y147D01*
X959Y145D01*
X961Y144D01*
X963Y143D01*
X965Y142D01*
X967Y142D01*
X968Y141D01*
X969Y141D01*
X969D01*
X969D01*
X972Y141D01*
X974Y142D01*
X976Y143D01*
X978Y144D01*
X979Y145D01*
X980Y146D01*
X981Y146D01*
X981Y147D01*
X983Y149D01*
X984Y151D01*
X985Y153D01*
X985Y155D01*
X986Y157D01*
X986Y159D01*
X986Y159D01*
Y160D01*
X986Y163D01*
X985Y165D01*
X985Y168D01*
X984Y170D01*
X983Y171D01*
X982Y172D01*
X981Y173D01*
X981Y173D01*
X979Y175D01*
X977Y176D01*
X975Y177D01*
X973Y178D01*
X972Y178D01*
X970Y179D01*
X970Y179D01*
D02*
G37*
G36*
X937Y109D02*
X937D01*
X937D01*
X934Y109D01*
X932Y108D01*
X930Y108D01*
X928Y107D01*
X927Y106D01*
X926Y105D01*
X925Y104D01*
X925Y104D01*
X923Y102D01*
X922Y100D01*
X921Y98D01*
X921Y96D01*
X920Y94D01*
X920Y92D01*
X920Y92D01*
Y75D01*
X954D01*
X954Y91D01*
X954Y94D01*
X953Y96D01*
X952Y99D01*
X951Y100D01*
X951Y102D01*
X950Y103D01*
X949Y104D01*
X949Y104D01*
X947Y106D01*
X945Y107D01*
X943Y108D01*
X941Y109D01*
X940Y109D01*
X938Y109D01*
X937Y109D01*
D02*
G37*
G36*
X926Y-214D02*
X926D01*
X926D01*
X926D01*
X923Y-214D01*
X920Y-215D01*
X918Y-216D01*
X916Y-217D01*
X915Y-218D01*
X914Y-219D01*
X913Y-219D01*
X913Y-220D01*
X911Y-222D01*
X909Y-224D01*
X908Y-227D01*
X908Y-229D01*
X907Y-231D01*
X907Y-232D01*
X907Y-233D01*
Y-234D01*
X907Y-237D01*
X908Y-239D01*
X909Y-242D01*
X910Y-244D01*
X911Y-246D01*
X912Y-247D01*
X912Y-248D01*
X913Y-248D01*
X915Y-250D01*
X917Y-251D01*
X919Y-252D01*
X921Y-253D01*
X923Y-253D01*
X924Y-254D01*
X925Y-254D01*
X925D01*
X926D01*
X926D01*
X929Y-254D01*
X931Y-253D01*
X933Y-252D01*
X935Y-251D01*
X937Y-250D01*
X938Y-249D01*
X939Y-248D01*
X939Y-248D01*
X941Y-246D01*
X942Y-243D01*
X943Y-241D01*
X944Y-239D01*
X944Y-237D01*
X945Y-235D01*
X945Y-235D01*
Y-234D01*
X945Y-231D01*
X944Y-228D01*
X943Y-226D01*
X942Y-223D01*
X941Y-222D01*
X940Y-221D01*
X940Y-220D01*
X939Y-220D01*
X937Y-218D01*
X935Y-216D01*
X932Y-215D01*
X930Y-214D01*
X929Y-214D01*
X927Y-214D01*
X926Y-214D01*
D02*
G37*
G36*
X925Y-286D02*
X925D01*
X925D01*
X922Y-286D01*
X920Y-287D01*
X918Y-287D01*
X916Y-288D01*
X914Y-289D01*
X913Y-290D01*
X913Y-291D01*
X913Y-291D01*
X911Y-293D01*
X910Y-295D01*
X909Y-297D01*
X908Y-299D01*
X908Y-301D01*
X908Y-303D01*
X908Y-303D01*
Y-320D01*
X941D01*
X941Y-304D01*
X941Y-301D01*
X941Y-299D01*
X940Y-296D01*
X939Y-295D01*
X938Y-293D01*
X937Y-292D01*
X937Y-291D01*
X937Y-291D01*
X935Y-289D01*
X933Y-288D01*
X931Y-287D01*
X929Y-286D01*
X927Y-286D01*
X926Y-286D01*
X925Y-286D01*
D02*
G37*
G36*
X392Y660D02*
X391D01*
X391D01*
X389Y659D01*
X386Y659D01*
X384Y658D01*
X382Y657D01*
X381Y656D01*
X380Y655D01*
X379Y654D01*
X379Y654D01*
X378Y652D01*
X376Y650D01*
X375Y648D01*
X375Y646D01*
X374Y644D01*
X374Y643D01*
X374Y642D01*
Y626D01*
X408D01*
X408Y641D01*
X408Y644D01*
X407Y647D01*
X406Y649D01*
X405Y651D01*
X405Y652D01*
X404Y653D01*
X403Y654D01*
X403Y654D01*
X401Y656D01*
X399Y657D01*
X397Y658D01*
X395Y659D01*
X394Y659D01*
X392Y660D01*
X392Y660D01*
D02*
G37*
G36*
X-928Y102D02*
X-944D01*
Y68D01*
X-928Y68D01*
X-926Y68D01*
X-923Y69D01*
X-921Y70D01*
X-919Y70D01*
X-917Y71D01*
X-916Y72D01*
X-916Y73D01*
X-915Y73D01*
X-914Y75D01*
X-912Y77D01*
X-911Y79D01*
X-911Y81D01*
X-910Y82D01*
X-910Y83D01*
X-910Y84D01*
Y84D01*
Y85D01*
X-910Y87D01*
X-911Y90D01*
X-912Y92D01*
X-913Y93D01*
X-914Y95D01*
X-915Y96D01*
X-915Y96D01*
X-915Y97D01*
X-918Y98D01*
X-920Y100D01*
X-922Y100D01*
X-924Y101D01*
X-926Y102D01*
X-927Y102D01*
X-928Y102D01*
D02*
G37*
G36*
X-927Y-44D02*
X-944D01*
Y-77D01*
X-928Y-78D01*
X-925Y-77D01*
X-923Y-77D01*
X-921Y-76D01*
X-919Y-75D01*
X-917Y-74D01*
X-916Y-73D01*
X-916Y-73D01*
X-915Y-73D01*
X-914Y-71D01*
X-912Y-69D01*
X-911Y-67D01*
X-911Y-65D01*
X-910Y-63D01*
X-910Y-62D01*
X-910Y-61D01*
Y-61D01*
Y-61D01*
X-910Y-58D01*
X-911Y-56D01*
X-912Y-54D01*
X-913Y-52D01*
X-914Y-51D01*
X-915Y-50D01*
X-915Y-49D01*
X-915Y-49D01*
X-917Y-47D01*
X-920Y-46D01*
X-922Y-45D01*
X-924Y-44D01*
X-926Y-44D01*
X-927Y-44D01*
X-927Y-44D01*
D02*
G37*
G36*
X649Y-547D02*
X649D01*
X648D01*
X646Y-548D01*
X644Y-548D01*
X641Y-549D01*
X640Y-550D01*
X638Y-551D01*
X637Y-552D01*
X637Y-553D01*
X636Y-553D01*
X635Y-555D01*
X634Y-557D01*
X633Y-559D01*
X632Y-561D01*
X632Y-563D01*
X631Y-564D01*
X631Y-565D01*
Y-582D01*
X665D01*
X665Y-566D01*
X665Y-563D01*
X664Y-561D01*
X664Y-558D01*
X663Y-556D01*
X662Y-555D01*
X661Y-554D01*
X660Y-553D01*
X660Y-553D01*
X658Y-551D01*
X656Y-550D01*
X654Y-549D01*
X653Y-548D01*
X651Y-548D01*
X650Y-548D01*
X649Y-547D01*
D02*
G37*
G36*
X446Y288D02*
X435D01*
Y266D01*
X445Y266D01*
X447Y266D01*
X449Y267D01*
X450Y267D01*
X452Y268D01*
X453Y268D01*
X453Y269D01*
X454Y269D01*
X454Y269D01*
X455Y270D01*
X456Y272D01*
X457Y273D01*
X457Y274D01*
X457Y275D01*
X457Y276D01*
X458Y277D01*
Y277D01*
Y277D01*
X457Y279D01*
X457Y280D01*
X456Y282D01*
X456Y283D01*
X455Y284D01*
X454Y284D01*
X454Y285D01*
X454Y285D01*
X453Y286D01*
X451Y287D01*
X450Y287D01*
X448Y288D01*
X447Y288D01*
X446Y288D01*
X446Y288D01*
D02*
G37*
G36*
X492Y270D02*
X492D01*
X490Y270D01*
X488Y269D01*
X486Y269D01*
X485Y268D01*
X484Y267D01*
X483Y267D01*
X482Y266D01*
X482Y266D01*
X481Y265D01*
X480Y263D01*
X479Y262D01*
X479Y261D01*
X479Y259D01*
X478Y258D01*
X478Y258D01*
Y258D01*
Y257D01*
Y257D01*
X478Y256D01*
X479Y254D01*
X480Y252D01*
X480Y251D01*
X481Y250D01*
X482Y249D01*
X482Y249D01*
X482Y249D01*
X484Y248D01*
X485Y247D01*
X487Y246D01*
X488Y246D01*
X490Y245D01*
X491Y245D01*
X491Y245D01*
X492D01*
X494Y245D01*
X495Y246D01*
X497Y246D01*
X498Y247D01*
X499Y248D01*
X500Y248D01*
X501Y249D01*
X501Y249D01*
X502Y250D01*
X503Y252D01*
X504Y253D01*
X504Y254D01*
X504Y256D01*
X505Y257D01*
X505Y257D01*
Y257D01*
Y257D01*
Y257D01*
X505Y259D01*
X504Y261D01*
X503Y263D01*
X503Y264D01*
X502Y265D01*
X501Y266D01*
X501Y266D01*
X501Y266D01*
X499Y267D01*
X498Y268D01*
X496Y269D01*
X495Y269D01*
X493Y270D01*
X492Y270D01*
X492Y270D01*
D02*
G37*
%LPD*%
D10*
X-519Y251D02*
G03*
X-519Y251I-10J0D01*
G01*
D11*
X-301Y-287D02*
X98D01*
X-301Y262D02*
X98D01*
M02*
