G04*
G04 #@! TF.GenerationSoftware,Altium Limited,Altium Designer,26.5.0 (11)*
G04*
G04 Layer_Physical_Order=1*
G04 Layer_Color=255*
G04 Board_Origin=60650000|23450000*
%FSLAX42Y42*%
%MOMM*%
G71*
G04*
G04 #@! TF.SameCoordinates,357383C9-4DCA-45AE-B43C-52B22ACF1663*
G04*
G04*
G04 #@! TF.FilePolarity,Positive*
G04*
G01*
G75*
%ADD12R,0.60X0.70*%
%ADD13R,0.70X0.60*%
%ADD14R,0.95X1.00*%
G04:AMPARAMS|DCode=15|XSize=1.64mm|YSize=0.41mm|CornerRadius=0.05mm|HoleSize=0mm|Usage=FLASHONLY|Rotation=0.000|XOffset=0mm|YOffset=0mm|HoleType=Round|Shape=RoundedRectangle|*
%AMROUNDEDRECTD15*
21,1,1.64,0.31,0,0,0.0*
21,1,1.54,0.41,0,0,0.0*
1,1,0.10,0.77,-0.15*
1,1,0.10,-0.77,-0.15*
1,1,0.10,-0.77,0.15*
1,1,0.10,0.77,0.15*
%
%ADD15ROUNDEDRECTD15*%
%ADD16O,4.00X2.00*%
%ADD17R,1.00X0.95*%
%ADD18O,2.00X4.00*%
%ADD25C,0.60*%
%ADD26C,0.40*%
%ADD27C,0.50*%
%ADD28C,0.30*%
%ADD29C,0.25*%
G36*
X1038Y1272D02*
X1074Y1257D01*
X1107Y1235D01*
X1135Y1207D01*
X1156Y1174D01*
X1172Y1138D01*
X1179Y1099D01*
Y972D01*
X1028D01*
X994Y967D01*
X962Y954D01*
X934Y933D01*
X913Y905D01*
X899Y873D01*
X895Y838D01*
X899Y804D01*
X903Y795D01*
X858Y751D01*
X552D01*
X552Y751D01*
X530Y746D01*
X511Y734D01*
X511Y734D01*
X390Y613D01*
X385Y605D01*
X324D01*
Y444D01*
Y400D01*
X304Y396D01*
X287Y385D01*
X253D01*
Y499D01*
X151D01*
Y601D01*
X140D01*
Y730D01*
X-20D01*
Y565D01*
X26D01*
Y480D01*
X-26D01*
Y482D01*
X-36Y505D01*
X-53Y523D01*
X-76Y532D01*
X-101D01*
X-124Y523D01*
X-142Y505D01*
X-151Y482D01*
Y457D01*
X-142Y434D01*
X-124Y417D01*
X-101Y407D01*
X-95D01*
X-85Y398D01*
X-69Y387D01*
X-51Y383D01*
X-50Y359D01*
Y275D01*
X-50Y275D01*
X-50D01*
X-54Y260D01*
X-79Y251D01*
X-79Y251D01*
X-98Y264D01*
X-121Y268D01*
X-121Y268D01*
X-191D01*
Y381D01*
X-191Y381D01*
Y406D01*
X-201Y429D01*
X-219Y447D01*
X-242Y456D01*
X-266D01*
X-289Y447D01*
X-307Y429D01*
X-317Y406D01*
Y385D01*
X-418D01*
Y333D01*
X-435Y317D01*
X-457D01*
X-480Y307D01*
X-498Y289D01*
X-507Y266D01*
Y242D01*
X-499Y221D01*
X-497Y212D01*
X-484Y193D01*
X-479Y188D01*
X-477Y179D01*
X-476Y178D01*
X-477Y176D01*
X-480Y161D01*
Y151D01*
X-522D01*
Y161D01*
X-531Y184D01*
X-549Y202D01*
X-572Y211D01*
X-597D01*
X-620Y202D01*
X-637Y184D01*
X-645Y165D01*
X-661Y157D01*
X-672Y155D01*
X-674Y156D01*
Y161D01*
X-684Y184D01*
X-701Y202D01*
X-724Y211D01*
X-749D01*
X-772Y202D01*
X-790Y184D01*
X-799Y161D01*
X-799Y131D01*
D01*
X-804Y107D01*
X-807Y105D01*
X-820Y86D01*
X-824Y63D01*
Y-76D01*
X-820Y-99D01*
X-807Y-118D01*
X-799Y-123D01*
Y-144D01*
X-659D01*
Y-152D01*
X-650Y-175D01*
X-632Y-193D01*
X-609Y-202D01*
X-584D01*
X-561Y-193D01*
X-544Y-175D01*
X-534Y-152D01*
Y-127D01*
X-539Y-117D01*
X-531Y-112D01*
X-518Y-98D01*
X-480D01*
Y-123D01*
X-477Y-138D01*
X-476Y-140D01*
X-477Y-141D01*
X-480Y-156D01*
Y-166D01*
X-482D01*
X-505Y-176D01*
X-523Y-193D01*
X-532Y-216D01*
Y-241D01*
X-523Y-264D01*
X-520Y-267D01*
Y-385D01*
X-380D01*
Y-487D01*
Y-588D01*
X-368D01*
Y-718D01*
X-208D01*
Y-552D01*
X-254D01*
Y-531D01*
X-255Y-526D01*
Y-457D01*
X-239Y-454D01*
X-222Y-442D01*
X-190Y-410D01*
X-39D01*
Y-344D01*
X21Y-283D01*
X67D01*
X70Y-286D01*
X85Y-289D01*
X108D01*
Y-335D01*
X112Y-355D01*
X115Y-359D01*
Y-423D01*
X226D01*
Y-559D01*
X230Y-579D01*
X242Y-597D01*
X301Y-656D01*
X319Y-668D01*
X324Y-669D01*
Y-695D01*
X489D01*
Y-693D01*
X629D01*
Y-512D01*
X683D01*
X771Y-600D01*
X771Y-600D01*
X790Y-613D01*
X813Y-617D01*
X839D01*
X903Y-681D01*
X899Y-689D01*
X895Y-724D01*
X899Y-759D01*
X913Y-791D01*
X934Y-818D01*
X962Y-840D01*
X994Y-853D01*
X1028Y-858D01*
X1179D01*
Y-1040D01*
X1172Y-1079D01*
X1156Y-1115D01*
X1135Y-1148D01*
X1107Y-1176D01*
X1074Y-1198D01*
X1038Y-1213D01*
X999Y-1220D01*
X-1140D01*
X-1179Y-1213D01*
X-1216Y-1198D01*
X-1248Y-1176D01*
X-1276Y-1148D01*
X-1298Y-1115D01*
X-1313Y-1079D01*
X-1321Y-1040D01*
Y-1020D01*
Y-526D01*
X-1308Y-515D01*
X-1108D01*
X-1074Y-510D01*
X-1042Y-497D01*
X-1014Y-476D01*
X-993Y-448D01*
X-979Y-416D01*
X-975Y-381D01*
X-979Y-346D01*
X-993Y-314D01*
X-1014Y-286D01*
X-1042Y-265D01*
X-1074Y-252D01*
X-1108Y-247D01*
X-1308D01*
X-1321Y-236D01*
Y211D01*
X-1308Y222D01*
X-1108D01*
X-1074Y226D01*
X-1042Y240D01*
X-1014Y261D01*
X-993Y289D01*
X-979Y321D01*
X-975Y356D01*
X-979Y390D01*
X-993Y422D01*
X-1014Y450D01*
X-1042Y471D01*
X-1074Y485D01*
X-1108Y489D01*
X-1308D01*
X-1321Y500D01*
Y1080D01*
Y1099D01*
X-1313Y1138D01*
X-1298Y1174D01*
X-1276Y1207D01*
X-1248Y1235D01*
X-1216Y1257D01*
X-1179Y1272D01*
X-1140Y1280D01*
X-580D01*
Y1081D01*
X-576Y1046D01*
X-562Y1014D01*
X-541Y986D01*
X-513Y965D01*
X-481Y952D01*
X-446Y947D01*
X-412Y952D01*
X-380Y965D01*
X-352Y986D01*
X-331Y1014D01*
X-317Y1046D01*
X-313Y1081D01*
Y1280D01*
X157D01*
Y1081D01*
X161Y1046D01*
X174Y1014D01*
X196Y986D01*
X223Y965D01*
X256Y952D01*
X290Y947D01*
X325Y952D01*
X357Y965D01*
X385Y986D01*
X406Y1014D01*
X419Y1046D01*
X424Y1081D01*
Y1280D01*
X999D01*
X1038Y1272D01*
D02*
G37*
G36*
X994Y709D02*
X1028Y705D01*
X1179D01*
Y489D01*
X1028D01*
X994Y485D01*
X962Y471D01*
X934Y450D01*
X913Y422D01*
X899Y390D01*
X895Y356D01*
X899Y321D01*
X903Y313D01*
X835Y245D01*
X832Y241D01*
X806Y248D01*
Y249D01*
X502D01*
Y245D01*
X378D01*
X355Y250D01*
Y283D01*
X393D01*
X393Y283D01*
X398Y284D01*
X464D01*
Y284D01*
X629D01*
Y445D01*
X489D01*
Y503D01*
X490Y509D01*
Y547D01*
X577Y633D01*
X882D01*
X882Y633D01*
X905Y638D01*
X924Y651D01*
X986Y712D01*
X994Y709D01*
D02*
G37*
G36*
Y226D02*
X1028Y222D01*
X1179D01*
Y-120D01*
X1028D01*
X994Y-125D01*
X962Y-138D01*
X958Y-141D01*
X934Y-117D01*
X915Y-104D01*
X892Y-100D01*
X892Y-100D01*
X806D01*
Y-68D01*
X822Y-50D01*
X844Y-45D01*
X863Y-33D01*
X918Y22D01*
X918Y22D01*
X931Y41D01*
X935Y63D01*
X935Y64D01*
Y179D01*
X986Y230D01*
X994Y226D01*
D02*
G37*
G36*
X-70Y76D02*
X-66Y66D01*
X-48Y49D01*
X-34Y43D01*
X-32Y41D01*
X-13Y28D01*
X9Y24D01*
X21Y26D01*
X43Y12D01*
X47Y8D01*
Y4D01*
X50Y-11D01*
X51Y-13D01*
X50Y-14D01*
X47Y-29D01*
Y-60D01*
X50Y-75D01*
X58Y-87D01*
X70Y-95D01*
X70Y-99D01*
Y-117D01*
X70Y-121D01*
X58Y-129D01*
X50Y-141D01*
X47Y-156D01*
Y-186D01*
X1D01*
X1Y-186D01*
X-17Y-190D01*
X-33Y-201D01*
X-33Y-201D01*
X-108Y-275D01*
X-150D01*
Y-178D01*
X-154Y-157D01*
X-165Y-140D01*
X-235Y-71D01*
X-250Y-60D01*
X-250Y-60D01*
Y-29D01*
X-253Y-14D01*
X-254Y-13D01*
X-253Y-11D01*
X-250Y4D01*
Y28D01*
X-231Y36D01*
X-214Y53D01*
X-204Y76D01*
Y101D01*
X-214Y124D01*
X-215Y125D01*
X-204Y151D01*
X-145D01*
X-70Y76D01*
D02*
G37*
G36*
X896Y-245D02*
X895Y-254D01*
X899Y-289D01*
X913Y-321D01*
X934Y-349D01*
X962Y-370D01*
X994Y-383D01*
X1028Y-388D01*
X1179D01*
Y-590D01*
X1028D01*
X994Y-595D01*
X986Y-598D01*
X905Y-517D01*
X886Y-505D01*
X863Y-500D01*
X863Y-500D01*
X837D01*
X749Y-412D01*
X733Y-401D01*
X733Y-389D01*
X737Y-376D01*
X806D01*
Y-217D01*
X868D01*
X896Y-245D01*
D02*
G37*
D12*
X292Y317D02*
D03*
X190D02*
D03*
X-317Y-521D02*
D03*
X-419D02*
D03*
X89Y533D02*
D03*
X190D02*
D03*
X13Y343D02*
D03*
X-89D02*
D03*
X-356Y-317D02*
D03*
X-457D02*
D03*
X-254Y317D02*
D03*
X-356D02*
D03*
X89Y432D02*
D03*
X190D02*
D03*
X317Y34D02*
D03*
X419D02*
D03*
X-203Y-343D02*
D03*
X-102D02*
D03*
X317Y-68D02*
D03*
X419D02*
D03*
X470Y-262D02*
D03*
X368D02*
D03*
X-317Y-419D02*
D03*
X-419D02*
D03*
X279Y-356D02*
D03*
X178D02*
D03*
X483Y178D02*
D03*
X381D02*
D03*
X-737Y-76D02*
D03*
X-635D02*
D03*
X-737Y63D02*
D03*
X-635D02*
D03*
D13*
X-508Y89D02*
D03*
Y190D02*
D03*
D14*
X-448Y-635D02*
D03*
X-288D02*
D03*
X220Y648D02*
D03*
X60D02*
D03*
D15*
X162Y210D02*
D03*
Y146D02*
D03*
Y83D02*
D03*
Y19D02*
D03*
Y-44D02*
D03*
Y-108D02*
D03*
Y-171D02*
D03*
Y-235D02*
D03*
X-365D02*
D03*
Y-171D02*
D03*
Y-108D02*
D03*
Y-44D02*
D03*
Y19D02*
D03*
Y83D02*
D03*
Y146D02*
D03*
Y210D02*
D03*
D16*
X1128Y356D02*
D03*
Y-724D02*
D03*
Y-254D02*
D03*
Y838D02*
D03*
X-1208Y-381D02*
D03*
Y356D02*
D03*
D17*
X724Y9D02*
D03*
Y-136D02*
D03*
Y169D02*
D03*
X584Y9D02*
D03*
Y169D02*
D03*
X724Y-296D02*
D03*
X584Y-136D02*
D03*
Y-296D02*
D03*
X406Y524D02*
D03*
Y364D02*
D03*
X546Y524D02*
D03*
Y364D02*
D03*
Y-453D02*
D03*
Y-613D02*
D03*
X406Y-454D02*
D03*
Y-614D02*
D03*
D18*
X290Y1181D02*
D03*
X-78D02*
D03*
X-446D02*
D03*
D25*
X445Y-381D02*
D03*
X-1067Y1092D02*
D03*
X874Y479D02*
D03*
X1092Y584D02*
D03*
X749Y356D02*
D03*
X647Y551D02*
D03*
X521Y-136D02*
D03*
X521Y38D02*
D03*
X-43Y-101D02*
D03*
X-140Y25D02*
D03*
X795Y844D02*
D03*
Y-756D02*
D03*
X595Y-1156D02*
D03*
X395Y844D02*
D03*
Y-756D02*
D03*
X195Y-1156D02*
D03*
X-5Y844D02*
D03*
Y-756D02*
D03*
X-205Y-1156D02*
D03*
X-605Y444D02*
D03*
Y-356D02*
D03*
X-405Y-756D02*
D03*
X-605Y-1156D02*
D03*
X-805Y844D02*
D03*
Y-756D02*
D03*
X-1005Y-1156D02*
D03*
X1041Y-216D02*
D03*
Y-305D02*
D03*
X-254Y394D02*
D03*
X-470Y-229D02*
D03*
X-445Y254D02*
D03*
X-267Y89D02*
D03*
X-89Y470D02*
D03*
X-166Y314D02*
D03*
X991Y394D02*
D03*
Y305D02*
D03*
X1003Y889D02*
D03*
Y800D02*
D03*
Y-686D02*
D03*
Y-775D02*
D03*
X-1092Y-330D02*
D03*
Y-432D02*
D03*
X-1105Y305D02*
D03*
Y406D02*
D03*
X-737Y149D02*
D03*
X-584D02*
D03*
X-597Y-140D02*
D03*
X-13Y102D02*
D03*
X-445Y1054D02*
D03*
X-76Y1041D02*
D03*
X279Y1054D02*
D03*
D26*
X-37Y-101D02*
X-31Y-108D01*
X-43Y-101D02*
X-37D01*
X-31Y-108D02*
X162D01*
X-365Y-108D02*
X-273D01*
X-365Y-108D02*
X-365Y-108D01*
X-273D02*
X-203Y-178D01*
X-317Y-521D02*
Y-419D01*
Y-521D02*
X-308Y-531D01*
Y-616D02*
Y-531D01*
Y-616D02*
X-288Y-635D01*
X-317Y-414D02*
X-308Y-404D01*
X-259D01*
X-203Y-348D01*
Y-343D01*
X-203Y-344D02*
Y-178D01*
X470Y-267D02*
X480Y-277D01*
X566D02*
X584Y-296D01*
X480Y-277D02*
X566D01*
X470Y-267D02*
Y-262D01*
X190Y210D02*
Y317D01*
X190Y210D02*
X190Y210D01*
X162Y210D02*
X190D01*
X402Y-618D02*
X407Y-614D01*
X339Y-618D02*
X402D01*
X279Y-559D02*
X339Y-618D01*
X279Y-559D02*
Y-356D01*
X178D02*
Y-351D01*
X162Y-335D02*
X178Y-351D01*
X162Y-335D02*
Y-235D01*
X-601Y-136D02*
X-597Y-140D01*
X-601Y-136D02*
Y-115D01*
X-635Y-81D02*
X-601Y-115D01*
X-635Y-81D02*
Y-76D01*
X-633Y-74D02*
X-569D01*
X-635Y-76D02*
X-633Y-74D01*
X-569D02*
X-540Y-44D01*
X-365D01*
X-588Y145D02*
X-584Y149D01*
X-588Y115D02*
Y145D01*
X-635Y69D02*
X-588Y115D01*
X-635Y63D02*
Y69D01*
X-606Y61D02*
X-564Y19D01*
X-365D01*
X546Y-614D02*
X546Y-613D01*
X407Y-614D02*
X546D01*
X9Y83D02*
X164D01*
D27*
X-121Y210D02*
X-13Y102D01*
X-365Y210D02*
X-121D01*
X393Y342D02*
X415Y364D01*
X537D02*
X546Y356D01*
X415Y364D02*
X537D01*
X312Y328D02*
X326Y342D01*
X292Y322D02*
X297Y328D01*
X292Y317D02*
Y322D01*
X326Y342D02*
X393D01*
X297Y328D02*
X312D01*
X892Y-158D02*
X965Y-231D01*
X746Y-158D02*
X892D01*
X965Y-231D02*
X1041D01*
Y-216D02*
X1103D01*
X1141Y-254D01*
X-445Y254D02*
X-443Y256D01*
X-412D01*
X-356Y312D01*
Y317D01*
X-452Y-270D02*
X-422Y-239D01*
X-457Y-317D02*
X-452Y-312D01*
Y-270D01*
X-470Y-229D02*
X-467D01*
X-461Y-235D02*
X-422D01*
X-467Y-229D02*
X-461Y-235D01*
X-445Y254D02*
X-443Y252D01*
Y235D02*
Y252D01*
Y235D02*
X-418Y210D01*
X-365D01*
X724Y9D02*
X822D01*
X876Y63D01*
Y204D01*
X1028Y356D01*
X1128D01*
X724Y-136D02*
X746Y-158D01*
X552Y692D02*
X882D01*
X1028Y838D01*
X1128D01*
X1028Y-724D02*
X1128D01*
X863Y-559D02*
X1028Y-724D01*
X813Y-559D02*
X863D01*
X707Y-453D02*
X813Y-559D01*
X546Y-453D02*
X707D01*
X431Y571D02*
X552Y692D01*
X431Y509D02*
Y571D01*
X409Y486D02*
X431Y509D01*
X406Y486D02*
X409D01*
X-766Y-76D02*
Y63D01*
X-13Y102D02*
Y104D01*
X9Y126D01*
Y356D01*
X-13Y102D02*
X-10D01*
X9Y83D01*
D28*
X584Y-296D02*
X724D01*
X483Y178D02*
X575D01*
X-368Y86D02*
X-365Y83D01*
X-505Y86D02*
X-368D01*
X-508Y89D02*
X-505Y86D01*
X419Y34D02*
X419Y34D01*
Y114D01*
X387Y146D02*
X419Y114D01*
X162Y146D02*
X387D01*
X314Y22D02*
X317Y25D01*
X165Y22D02*
X314D01*
X162Y19D02*
X165Y22D01*
X381Y-254D02*
Y-152D01*
X419Y-114D01*
Y-51D01*
X162Y-44D02*
X223D01*
X230Y-51D01*
X317D01*
X-254Y317D02*
Y394D01*
X-254Y317D02*
X-254Y317D01*
X1Y-235D02*
X162D01*
X-102Y-338D02*
X1Y-235D01*
X-102Y-343D02*
Y-338D01*
X-308Y-397D02*
Y-370D01*
X-356Y-322D02*
X-308Y-370D01*
X-356Y-322D02*
Y-317D01*
X298Y-171D02*
X381Y-254D01*
X162Y-171D02*
X298D01*
X60Y648D02*
X89Y618D01*
Y533D02*
Y618D01*
X89Y432D02*
Y530D01*
X190Y317D02*
X190Y317D01*
X190Y317D02*
Y432D01*
X-365Y83D02*
X-362Y86D01*
X-270D01*
X-267Y89D01*
X-89Y470D02*
X-51Y432D01*
X89D01*
D29*
X575Y178D02*
X584Y169D01*
X724D01*
X587Y-136D02*
X622Y-171D01*
X584Y-136D02*
X587D01*
X582Y9D02*
X584D01*
X-166Y314D02*
X-165Y314D01*
X-121D02*
X-115Y321D01*
X-84Y343D02*
Y348D01*
X-106Y321D02*
X-84Y343D01*
X-165Y314D02*
X-121D01*
X-115Y321D02*
X-106D01*
X-737Y101D02*
Y149D01*
X-766Y72D02*
X-737Y101D01*
X-766Y63D02*
Y72D01*
X-597Y-76D02*
X-597Y-76D01*
X-594Y-74D02*
X-569D01*
X-597Y-76D02*
X-594Y-74D01*
M02*
