G04*
G04 #@! TF.GenerationSoftware,Altium Limited,Altium Designer,26.9.1 (10)*
G04*
G04 Layer_Physical_Order=1*
G04 Layer_Color=255*
G04 Board_Origin=38150000|32450000*
%FSLAX43Y43*%
%MOMM*%
G71*
G04*
G04 #@! TF.SameCoordinates,BC6CFFDF-CA4D-4417-9368-BABEC544F825*
G04*
G04*
G04 #@! TF.FilePolarity,Positive*
G04*
G01*
G75*
%ADD10C,0.250*%
%ADD11C,0.200*%
%ADD17C,0.400*%
%ADD18C,2.000*%
%ADD24R,7.000X7.000*%
%ADD25R,2.500X1.500*%
%ADD26R,1.000X0.950*%
%ADD27R,3.300X1.270*%
%ADD28R,2.000X4.000*%
%ADD29R,0.800X0.500*%
%ADD30R,1.000X1.250*%
%ADD31R,1.250X1.000*%
%ADD32R,0.700X0.700*%
%ADD33C,1.000*%
%ADD34R,0.950X1.000*%
%ADD35R,0.600X0.700*%
%ADD36R,1.050X1.000*%
G04:AMPARAMS|DCode=37|XSize=0.881mm|YSize=0.242mm|CornerRadius=0.121mm|HoleSize=0mm|Usage=FLASHONLY|Rotation=180.000|XOffset=0mm|YOffset=0mm|HoleType=Round|Shape=RoundedRectangle|*
%AMROUNDEDRECTD37*
21,1,0.881,0.000,0,0,180.0*
21,1,0.639,0.242,0,0,180.0*
1,1,0.242,-0.319,0.000*
1,1,0.242,0.319,0.000*
1,1,0.242,0.319,0.000*
1,1,0.242,-0.319,0.000*
%
%ADD37ROUNDEDRECTD37*%
%ADD38R,2.500X2.200*%
%ADD39R,0.881X0.242*%
%ADD40R,1.305X2.608*%
%ADD41R,1.400X1.200*%
%ADD48R,6.400X5.800*%
%ADD49R,2.200X1.200*%
%ADD50R,1.650X2.480*%
%ADD53C,3.250*%
%ADD54C,1.400*%
%ADD56C,0.600*%
%ADD57C,0.800*%
%ADD58C,0.500*%
%ADD59C,0.550*%
%ADD60C,0.450*%
%ADD62C,0.254*%
%ADD63C,0.600*%
%ADD64C,0.300*%
%ADD65C,1.000*%
%ADD66C,0.500*%
%ADD67C,0.350*%
%ADD68C,1.800*%
%ADD69R,1.800X1.800*%
%ADD70C,2.000*%
%ADD71R,0.110X0.010*%
G36*
X-29658Y26416D02*
X-28575Y24981D01*
Y11430D01*
X-26162Y9017D01*
Y3810D01*
X-26670Y3302D01*
X-29083D01*
X-30607Y1778D01*
Y-635D01*
X-31623Y-1651D01*
X-33909D01*
Y25356D01*
X-32689Y26416D01*
X-29658Y26416D01*
D02*
G37*
G36*
X33401Y25448D02*
Y3302D01*
X33020Y2921D01*
Y-762D01*
X31877Y-1905D01*
X29083D01*
X28448Y-1270D01*
Y889D01*
X26035Y3302D01*
Y9779D01*
X28448Y12192D01*
X28448Y25019D01*
X29591Y26162D01*
X32560D01*
X33401Y25448D01*
D02*
G37*
G36*
X35559Y-7643D02*
X35414Y-7883D01*
X35259Y-7883D01*
X34836D01*
X34368Y-7415D01*
X34159Y-7254D01*
X33916Y-7154D01*
X33655Y-7119D01*
X32295D01*
X28056Y-2881D01*
X28146Y-2560D01*
X28286Y-2534D01*
X28370Y-2618D01*
X28579Y-2779D01*
X28822Y-2879D01*
X29083Y-2914D01*
X31877D01*
X32138Y-2879D01*
X32381Y-2779D01*
X32590Y-2618D01*
X33733Y-1475D01*
X33894Y-1266D01*
X33960Y-1105D01*
X33974Y-1084D01*
X34087Y-811D01*
X34145Y-521D01*
Y-226D01*
X34087Y64D01*
X34029Y206D01*
Y1385D01*
X34230Y1626D01*
X34410D01*
X34575Y1695D01*
X34701Y1821D01*
X34770Y1987D01*
Y2166D01*
X34701Y2331D01*
X34575Y2458D01*
X34436Y2515D01*
X34392Y2562D01*
X34356Y2633D01*
X34286Y2826D01*
X34375Y3041D01*
X34410Y3302D01*
Y25448D01*
X34404Y25489D01*
X34406Y25530D01*
X34387Y25619D01*
X34375Y25709D01*
X34359Y25747D01*
X34351Y25787D01*
X34309Y25868D01*
X34275Y25952D01*
X34249Y25985D01*
X34231Y26022D01*
X34170Y26089D01*
X34114Y26161D01*
X34081Y26186D01*
X34054Y26217D01*
X33213Y26931D01*
X33136Y26980D01*
X33064Y27035D01*
X33026Y27051D01*
X32992Y27074D01*
X32905Y27101D01*
X32821Y27136D01*
X32780Y27142D01*
X32741Y27154D01*
X32650Y27159D01*
X32560Y27171D01*
X29591D01*
X29330Y27136D01*
X29087Y27035D01*
X28878Y26875D01*
X27735Y25732D01*
X27574Y25523D01*
X27474Y25280D01*
X27439Y25019D01*
X27439Y12610D01*
X25322Y10492D01*
X25162Y10283D01*
X25061Y10040D01*
X25026Y9779D01*
Y9489D01*
X24872Y9253D01*
X24726Y9253D01*
X22372D01*
Y9253D01*
X22072Y9239D01*
X21878Y9432D01*
X21746Y9521D01*
X21590Y9552D01*
X21590Y9552D01*
X21237D01*
Y9794D01*
X19987D01*
Y8494D01*
X19987Y8494D01*
Y8270D01*
X19987D01*
X19987Y8194D01*
Y6970D01*
X21237D01*
Y7462D01*
X21788D01*
X21788Y7462D01*
X21945Y7493D01*
X21947Y7495D01*
X22259Y7385D01*
X22278Y7365D01*
X22295Y7279D01*
X21494Y6478D01*
X20066D01*
X19968Y6458D01*
X19886Y6403D01*
X19124Y5641D01*
X19069Y5559D01*
X19049Y5461D01*
Y4794D01*
X18905Y4711D01*
X18784Y4590D01*
X18698Y4442D01*
X18654Y4277D01*
Y4105D01*
X18698Y3940D01*
X18784Y3792D01*
X18905Y3671D01*
X19049Y3588D01*
Y889D01*
X19069Y791D01*
X19124Y709D01*
X19811Y21D01*
Y-6158D01*
X19688Y-6281D01*
X19595D01*
X19430Y-6350D01*
X19304Y-6476D01*
X19235Y-6641D01*
Y-6821D01*
X19304Y-6986D01*
X19430Y-7112D01*
X19595Y-7181D01*
X19775D01*
X19940Y-7112D01*
X20066Y-6986D01*
X20135Y-6821D01*
Y-6641D01*
X20110Y-6580D01*
X20246Y-6444D01*
X20301Y-6361D01*
X20321Y-6263D01*
Y127D01*
X20301Y225D01*
X20246Y307D01*
X19559Y995D01*
Y3588D01*
X19703Y3671D01*
X19824Y3792D01*
X19910Y3940D01*
X19954Y4105D01*
Y4277D01*
X19910Y4442D01*
X19824Y4590D01*
X19703Y4711D01*
X19559Y4794D01*
Y5355D01*
X20172Y5968D01*
X21600D01*
X21697Y5988D01*
X21780Y6043D01*
X22892Y7154D01*
X22947Y7237D01*
X22966Y7335D01*
Y7753D01*
X24726D01*
X24872Y7753D01*
X25026Y7517D01*
Y3302D01*
X25026Y3302D01*
X25061Y3041D01*
X25162Y2798D01*
X25322Y2589D01*
X25736Y2175D01*
X25621Y1898D01*
X24257D01*
X24257Y1898D01*
X23996Y1863D01*
X23753Y1763D01*
X23696Y1719D01*
X23214D01*
Y1272D01*
X22782Y840D01*
X22782Y840D01*
X22622Y631D01*
X22521Y388D01*
X22486Y127D01*
Y-6223D01*
X22521Y-6484D01*
X22622Y-6727D01*
X22782Y-6936D01*
X22782Y-6936D01*
X27227Y-11381D01*
X27436Y-11542D01*
X27679Y-11642D01*
X27940Y-11677D01*
X30687D01*
X30964Y-11733D01*
X30964Y-11977D01*
Y-13303D01*
X34564D01*
Y-11919D01*
X34666Y-11673D01*
X34805Y-11590D01*
X34921Y-11542D01*
X35130Y-11381D01*
X35202Y-11288D01*
X35517Y-11323D01*
X35559Y-11393D01*
Y-29886D01*
X35259Y-30059D01*
X35225Y-30040D01*
X34869Y-29944D01*
X34501D01*
X34145Y-30040D01*
X33825Y-30224D01*
X33711Y-30338D01*
X33577Y-30331D01*
X33373Y-30252D01*
X33262Y-29985D01*
X33060Y-29682D01*
X32802Y-29424D01*
X32499Y-29222D01*
X32163Y-29082D01*
X31805Y-29011D01*
X31441D01*
X31083Y-29082D01*
X30747Y-29222D01*
X30444Y-29424D01*
X30186Y-29682D01*
X29984Y-29985D01*
X29844Y-30321D01*
X29773Y-30679D01*
Y-31043D01*
X29844Y-31401D01*
X29984Y-31737D01*
X30186Y-32040D01*
X30444Y-32298D01*
X30747Y-32500D01*
X30948Y-32584D01*
X30889Y-32884D01*
X30485D01*
Y-34177D01*
X30483Y-34180D01*
X30366Y-34353D01*
X30326Y-34558D01*
Y-34676D01*
X30090D01*
Y-34926D01*
X28689D01*
Y-35575D01*
X28223Y-36042D01*
X26815D01*
X26708Y-36063D01*
X26617Y-36124D01*
X25923Y-36817D01*
X25416D01*
X25291Y-36517D01*
X25444Y-36364D01*
X25505Y-36273D01*
X25526Y-36166D01*
Y-35939D01*
X25653Y-35813D01*
X26531D01*
Y-34563D01*
X25231Y-34563D01*
X25200Y-34276D01*
Y-33545D01*
X23900D01*
Y-34795D01*
X24204D01*
Y-35356D01*
X24210Y-35390D01*
Y-35865D01*
X23649D01*
X23542Y-35886D01*
X23491Y-35920D01*
X23330D01*
X23243Y-35937D01*
X23202Y-35965D01*
X23200Y-35966D01*
Y-35966D01*
X23170Y-35986D01*
X23170Y-35986D01*
X23121Y-36059D01*
Y-36059D01*
X23104Y-36145D01*
X23121Y-36231D01*
Y-36231D01*
X23121Y-36232D01*
X23170Y-36314D01*
Y-36477D01*
X23121Y-36559D01*
X23121Y-36559D01*
Y-36559D01*
X23117Y-36581D01*
X23104Y-36645D01*
X23121Y-36731D01*
Y-36731D01*
X23121Y-36731D01*
X23170Y-36814D01*
Y-36977D01*
X23121Y-37059D01*
X23121Y-37059D01*
X23117Y-37081D01*
X23104Y-37145D01*
X23108Y-37424D01*
X23108Y-37424D01*
Y-37866D01*
X23478D01*
X23546Y-37912D01*
X23655Y-37933D01*
X23790Y-38176D01*
X23797Y-38212D01*
X23797D01*
Y-39512D01*
X23948D01*
Y-40753D01*
X25198D01*
Y-39453D01*
X25047D01*
Y-38626D01*
X25147Y-38367D01*
X25283Y-38367D01*
X26447D01*
Y-37087D01*
X26931Y-36602D01*
X28169D01*
X28357Y-36654D01*
X28439Y-36888D01*
Y-38476D01*
X32140D01*
Y-36776D01*
X32140Y-36476D01*
X32140Y-36376D01*
Y-35534D01*
X33286D01*
X33381Y-35675D01*
X33423Y-35768D01*
X33428Y-35834D01*
X33422Y-35840D01*
X33334Y-36052D01*
Y-36084D01*
X33322Y-36114D01*
Y-36343D01*
X33334Y-36373D01*
Y-36405D01*
X33422Y-36617D01*
X33445Y-36640D01*
X33457Y-36670D01*
X33619Y-36832D01*
X33649Y-36844D01*
X33672Y-36867D01*
X33883Y-36955D01*
X33916D01*
X33946Y-36967D01*
X34175D01*
X34205Y-36955D01*
X34237D01*
X34449Y-36867D01*
X34471Y-36844D01*
X34501Y-36832D01*
X34663Y-36670D01*
X34676Y-36640D01*
X34698Y-36617D01*
X34786Y-36405D01*
Y-36373D01*
X34799Y-36343D01*
Y-36114D01*
X34786Y-36084D01*
Y-36052D01*
X34698Y-35840D01*
X34692Y-35834D01*
X34697Y-35768D01*
X34739Y-35675D01*
X34834Y-35534D01*
X34885D01*
Y-33892D01*
X35259Y-33518D01*
X35559Y-33642D01*
Y-42418D01*
X-35941D01*
Y-34391D01*
X-33777D01*
Y-35569D01*
X-32077D01*
X-31777Y-35569D01*
X-31677Y-35569D01*
X-29977D01*
Y-33791D01*
X-29945D01*
Y-31741D01*
X-31637D01*
X-31937Y-31741D01*
X-32045Y-31741D01*
X-33337D01*
Y-31141D01*
X-33928D01*
X-33968Y-30994D01*
X-34139Y-30698D01*
X-34381Y-30456D01*
X-34677Y-30285D01*
X-35008Y-30196D01*
X-35350D01*
X-35641Y-30274D01*
X-35918Y-30148D01*
X-35941Y-30135D01*
Y-11393D01*
X-35865Y-11268D01*
X-35528Y-11238D01*
X-35384Y-11381D01*
X-35384Y-11381D01*
X-35175Y-11542D01*
X-35167Y-11545D01*
X-34945Y-11733D01*
X-34945Y-11943D01*
Y-13303D01*
X-31345D01*
Y-11977D01*
X-31345Y-11733D01*
X-31068Y-11677D01*
X-30353D01*
X-30353Y-11677D01*
X-30092Y-11642D01*
X-29849Y-11542D01*
X-29640Y-11381D01*
X-29640Y-11381D01*
X-25703Y-7444D01*
X-25542Y-7235D01*
X-25442Y-6992D01*
X-25407Y-6731D01*
Y508D01*
X-25442Y769D01*
X-25542Y1012D01*
X-25626Y1121D01*
Y1719D01*
X-28848D01*
X-28962Y1996D01*
X-28665Y2293D01*
X-26670D01*
X-26670Y2293D01*
X-26409Y2328D01*
X-26406Y2329D01*
X-25849D01*
Y2697D01*
X-25449Y3097D01*
X-25299Y3292D01*
X-25268Y3294D01*
X-24999Y3199D01*
Y3199D01*
X-24157D01*
Y2670D01*
X-24269Y2558D01*
X-24355Y2410D01*
X-24399Y2245D01*
Y2073D01*
X-24355Y1908D01*
X-24269Y1760D01*
X-24148Y1639D01*
X-24031Y1572D01*
Y1016D01*
X-24031Y1016D01*
X-24010Y908D01*
X-23949Y816D01*
X-20403Y-2730D01*
Y-3383D01*
X-20502Y-3482D01*
X-20570Y-3648D01*
Y-3827D01*
X-20502Y-3992D01*
X-20375Y-4119D01*
X-20210Y-4187D01*
X-20031D01*
X-19865Y-4119D01*
X-19739Y-3992D01*
X-19670Y-3827D01*
Y-3648D01*
X-19739Y-3482D01*
X-19838Y-3383D01*
Y-2613D01*
X-19838Y-2613D01*
X-19859Y-2505D01*
X-19921Y-2413D01*
X-23467Y1133D01*
Y1572D01*
X-23350Y1639D01*
X-23229Y1760D01*
X-23143Y1908D01*
X-23099Y2073D01*
Y2245D01*
X-23143Y2410D01*
X-23229Y2558D01*
X-23341Y2670D01*
Y3115D01*
X-23041Y3164D01*
X-22636Y2760D01*
X-22636Y2760D01*
X-22504Y2671D01*
X-22348Y2640D01*
X-21745D01*
Y2398D01*
X-20495D01*
Y3698D01*
X-20495D01*
Y3922D01*
X-20495D01*
Y5222D01*
X-21745D01*
Y4980D01*
X-22626D01*
X-22626Y4980D01*
X-22782Y4949D01*
X-22914Y4860D01*
X-22914Y4860D01*
X-23076Y4699D01*
X-24853D01*
X-24999Y4699D01*
X-25153Y4935D01*
Y9017D01*
X-25153Y9017D01*
X-25188Y9278D01*
X-25288Y9521D01*
X-25449Y9730D01*
X-27566Y11848D01*
Y24981D01*
X-27574Y25043D01*
X-27574Y25105D01*
X-27592Y25173D01*
X-27601Y25242D01*
X-27625Y25300D01*
X-27640Y25360D01*
X-27675Y25421D01*
X-27701Y25486D01*
X-27739Y25535D01*
X-27770Y25589D01*
X-28853Y27024D01*
X-28903Y27074D01*
X-28945Y27129D01*
X-28994Y27167D01*
X-29038Y27211D01*
X-29098Y27247D01*
X-29154Y27289D01*
X-29212Y27313D01*
X-29265Y27345D01*
X-29333Y27363D01*
X-29397Y27390D01*
X-29459Y27398D01*
X-29519Y27415D01*
X-29589Y27415D01*
X-29658Y27425D01*
X-32689Y27425D01*
X-32785Y27412D01*
X-32881Y27406D01*
X-32915Y27395D01*
X-32950Y27390D01*
X-33040Y27353D01*
X-33131Y27323D01*
X-33161Y27303D01*
X-33194Y27289D01*
X-33270Y27231D01*
X-33351Y27177D01*
X-34571Y26118D01*
X-34594Y26091D01*
X-34622Y26070D01*
X-34681Y25993D01*
X-34745Y25921D01*
X-34761Y25889D01*
X-34783Y25861D01*
X-34819Y25771D01*
X-34863Y25685D01*
X-34870Y25650D01*
X-34883Y25617D01*
X-34896Y25522D01*
X-34915Y25427D01*
X-34913Y25392D01*
X-34918Y25356D01*
Y2008D01*
X-35073D01*
X-35363Y1950D01*
X-35636Y1837D01*
X-35641Y1834D01*
X-35941Y1994D01*
Y42418D01*
X35559D01*
Y-7643D01*
D02*
G37*
G36*
X-35590Y-1131D02*
Y-1441D01*
X-35501Y-1772D01*
X-35330Y-2068D01*
X-35088Y-2310D01*
X-34826Y-2462D01*
Y-2481D01*
X-34792D01*
X-34792Y-2481D01*
X-34461Y-2570D01*
X-34303D01*
X-34170Y-2625D01*
X-33909Y-2660D01*
X-31623D01*
X-31362Y-2625D01*
X-31210Y-2562D01*
X-31040Y-2817D01*
X-35638Y-7415D01*
X-35641Y-7418D01*
X-35941Y-7317D01*
Y-1233D01*
X-35743Y-1095D01*
X-35641Y-1079D01*
X-35590Y-1131D01*
D02*
G37*
G36*
X26924Y381D02*
Y-3175D01*
X31877Y-8128D01*
X33655D01*
X34417Y-8890D01*
Y-10668D01*
X27940D01*
X23495Y-6223D01*
Y127D01*
X24257Y889D01*
X26797D01*
X26924Y381D01*
D02*
G37*
G36*
X-26416Y-6731D02*
X-30353Y-10668D01*
X-34671D01*
X-34925Y-10414D01*
Y-8128D01*
X-29337Y-2540D01*
Y381D01*
X-29210Y508D01*
X-26416D01*
Y-6731D01*
D02*
G37*
%LPC*%
G36*
X26289Y42072D02*
X21971D01*
X21856Y42025D01*
X21809Y41910D01*
Y39497D01*
X21856Y39382D01*
X22491Y38747D01*
X22606Y38700D01*
X22844D01*
Y37485D01*
X25144D01*
Y38700D01*
X25781D01*
X25896Y38747D01*
X26404Y39255D01*
X26451Y39370D01*
Y41910D01*
X26404Y42025D01*
X26289Y42072D01*
D02*
G37*
G36*
X-23810Y41785D02*
X-26110D01*
Y41437D01*
X-27051D01*
X-27166Y41390D01*
X-27213Y41275D01*
Y38862D01*
X-27166Y38747D01*
X-26531Y38112D01*
X-26416Y38065D01*
X-26110D01*
Y37485D01*
X-23810D01*
Y38065D01*
X-23241D01*
X-23126Y38112D01*
X-22618Y38620D01*
X-22571Y38735D01*
Y41275D01*
X-22618Y41390D01*
X-22733Y41437D01*
X-23810D01*
Y41785D01*
D02*
G37*
G36*
X32091Y41450D02*
X31637D01*
X31193Y41362D01*
X30775Y41188D01*
X30398Y40937D01*
X30077Y40616D01*
X29826Y40239D01*
X29652Y39821D01*
X29564Y39377D01*
Y38923D01*
X29652Y38479D01*
X29826Y38061D01*
X30077Y37684D01*
X30398Y37363D01*
X30775Y37112D01*
X31193Y36938D01*
X31637Y36850D01*
X32091D01*
X32535Y36938D01*
X32953Y37112D01*
X33330Y37363D01*
X33651Y37684D01*
X33902Y38061D01*
X34076Y38479D01*
X34164Y38923D01*
Y39377D01*
X34076Y39821D01*
X33902Y40239D01*
X33651Y40616D01*
X33330Y40937D01*
X32953Y41188D01*
X32535Y41362D01*
X32091Y41450D01*
D02*
G37*
G36*
X-32158D02*
X-32612D01*
X-33056Y41362D01*
X-33474Y41188D01*
X-33851Y40937D01*
X-34172Y40616D01*
X-34423Y40239D01*
X-34597Y39821D01*
X-34685Y39377D01*
Y38923D01*
X-34597Y38479D01*
X-34423Y38061D01*
X-34172Y37684D01*
X-33851Y37363D01*
X-33474Y37112D01*
X-33056Y36938D01*
X-32612Y36850D01*
X-32158D01*
X-31714Y36938D01*
X-31296Y37112D01*
X-30919Y37363D01*
X-30598Y37684D01*
X-30347Y38061D01*
X-30173Y38479D01*
X-30085Y38923D01*
Y39377D01*
X-30173Y39821D01*
X-30347Y40239D01*
X-30598Y40616D01*
X-30919Y40937D01*
X-31296Y41188D01*
X-31714Y41362D01*
X-32158Y41450D01*
D02*
G37*
G36*
X9488Y39947D02*
X9308D01*
X9143Y39878D01*
X9017Y39752D01*
X8948Y39587D01*
Y39407D01*
X9017Y39242D01*
X9070Y39188D01*
X8967Y38888D01*
X-9144D01*
X-9251Y38867D01*
X-9342Y38806D01*
X-10231Y37917D01*
X-10292Y37826D01*
X-10313Y37719D01*
Y36195D01*
X-10452Y36157D01*
X-10692Y36019D01*
X-10887Y35824D01*
X-11025Y35584D01*
X-11026Y35582D01*
X-11128Y35491D01*
X-11309Y35406D01*
X-11324Y35401D01*
X-11526Y35397D01*
X-11541Y35390D01*
X-11557Y35393D01*
X-11952Y35307D01*
X-11966Y35298D01*
X-11983Y35298D01*
X-12353Y35136D01*
X-12365Y35124D01*
X-12381Y35121D01*
X-12713Y34890D01*
X-12722Y34876D01*
X-12737Y34869D01*
X-13018Y34578D01*
X-13024Y34563D01*
X-13037Y34553D01*
X-13256Y34213D01*
X-13259Y34197D01*
X-13270Y34185D01*
X-13418Y33809D01*
X-13418Y33792D01*
X-13427Y33778D01*
X-13498Y33380D01*
X-13495Y33364D01*
X-13501Y33349D01*
X-13497Y33148D01*
X-13497Y21971D01*
X-13497Y21721D01*
X-13491Y21705D01*
X-13494Y21689D01*
X-13397Y21198D01*
X-13387Y21185D01*
Y21168D01*
X-13196Y20706D01*
X-13184Y20694D01*
X-13181Y20678D01*
X-12903Y20262D01*
X-12889Y20252D01*
X-12883Y20237D01*
X-12529Y19883D01*
X-12514Y19877D01*
X-12504Y19863D01*
X-12088Y19585D01*
X-12072Y19582D01*
X-12060Y19570D01*
X-11598Y19379D01*
X-11581D01*
X-11568Y19369D01*
X-11077Y19272D01*
X-11061Y19275D01*
X-11045Y19269D01*
X-10795Y19269D01*
X-8730Y19269D01*
X-8606Y18969D01*
X-10195Y17380D01*
X-10200Y17381D01*
X-10472Y17527D01*
Y17616D01*
X-10541Y17781D01*
X-10667Y17907D01*
X-10832Y17976D01*
X-11012D01*
X-11177Y17907D01*
X-11303Y17781D01*
X-11372Y17616D01*
Y17436D01*
X-11303Y17271D01*
X-11177Y17145D01*
X-11012Y17076D01*
X-10923D01*
X-10777Y16804D01*
X-10776Y16799D01*
X-12136Y15438D01*
X-12197Y15347D01*
X-12218Y15240D01*
Y12730D01*
X-12483Y12515D01*
X-12663D01*
X-12828Y12446D01*
X-12954Y12320D01*
X-13023Y12155D01*
X-13095Y11952D01*
X-13298Y11885D01*
X-13463Y11816D01*
X-13589Y11689D01*
X-13658Y11524D01*
Y11345D01*
X-13589Y11180D01*
X-13463Y11053D01*
X-13298Y10985D01*
X-13118Y10985D01*
X-12976Y10719D01*
X-12954Y10667D01*
X-12828Y10541D01*
X-12663Y10472D01*
X-12483D01*
X-12218Y10257D01*
Y8178D01*
X-12518Y8075D01*
X-12572Y8128D01*
X-12737Y8197D01*
X-12917D01*
X-13082Y8128D01*
X-13208Y8002D01*
X-13277Y7837D01*
Y7657D01*
X-13208Y7492D01*
X-13082Y7366D01*
X-12917Y7297D01*
X-12737D01*
X-12572Y7366D01*
X-12518Y7419D01*
X-12218Y7316D01*
Y6562D01*
X-12515Y6435D01*
X-12718Y6519D01*
X-12936D01*
X-13139Y6435D01*
X-13293Y6281D01*
X-13377Y6078D01*
Y5860D01*
X-13293Y5657D01*
X-13139Y5503D01*
X-13107Y5490D01*
Y-2159D01*
X-13086Y-2266D01*
X-13025Y-2357D01*
X-9977Y-5405D01*
X-9886Y-5466D01*
X-9779Y-5487D01*
X-8734D01*
X-8721Y-5519D01*
X-8567Y-5673D01*
X-8364Y-5757D01*
X-8146D01*
X-7943Y-5673D01*
X-7789Y-5519D01*
X-7705Y-5316D01*
Y-5098D01*
X-7789Y-4895D01*
X-7943Y-4741D01*
X-8146Y-4657D01*
X-8364D01*
X-8567Y-4741D01*
X-8721Y-4895D01*
X-8734Y-4927D01*
X-9663D01*
X-12547Y-2043D01*
Y-1066D01*
X-12247Y-963D01*
X-12193Y-1016D01*
X-12028Y-1085D01*
X-11848D01*
X-11683Y-1016D01*
X-11639Y-972D01*
X-11339Y-1089D01*
Y-1918D01*
X-11312Y-2054D01*
X-11245Y-2154D01*
Y-2249D01*
X-11176Y-2414D01*
X-11050Y-2540D01*
X-10885Y-2609D01*
X-10705D01*
X-10540Y-2540D01*
X-10414Y-2414D01*
X-10345Y-2249D01*
Y-2069D01*
X-10414Y-1904D01*
X-10540Y-1778D01*
X-10625Y-1742D01*
Y-1683D01*
X-10610Y-1389D01*
X-9710D01*
Y-1389D01*
X-9594D01*
Y-1389D01*
X-8694D01*
Y-1389D01*
X-8415Y-1339D01*
X-8292D01*
X-8127Y-1270D01*
X-8001Y-1144D01*
X-7932Y-979D01*
Y-799D01*
X-8001Y-634D01*
X-8102Y-533D01*
Y7504D01*
X-5853Y9753D01*
X-2032D01*
X-1925Y9774D01*
X-1834Y9835D01*
X-56Y11613D01*
X5Y11704D01*
X26Y11811D01*
Y12471D01*
X127Y12572D01*
X196Y12737D01*
Y12917D01*
X127Y13082D01*
X1Y13208D01*
X-164Y13277D01*
X-344D01*
X-509Y13208D01*
X-635Y13082D01*
X-649Y13049D01*
X-840Y13045D01*
X-962Y13079D01*
X-1016Y13209D01*
X-1142Y13335D01*
X-1307Y13404D01*
X-1487D01*
X-1652Y13335D01*
X-1778Y13209D01*
X-1847Y13044D01*
Y12864D01*
X-1778Y12699D01*
X-1717Y12638D01*
Y11888D01*
X-2783Y10821D01*
X-3632D01*
X-3645Y10830D01*
X-3657Y11133D01*
X-3555Y11176D01*
X-3429Y11302D01*
X-3360Y11467D01*
Y11647D01*
X-3429Y11812D01*
X-3555Y11938D01*
X-3720Y12007D01*
X-3900D01*
X-4065Y11938D01*
X-4141Y11863D01*
X-4318Y11833D01*
X-4495Y11863D01*
X-4571Y11938D01*
X-4736Y12007D01*
X-4916D01*
X-5081Y11938D01*
X-5207Y11812D01*
X-5276Y11647D01*
Y11467D01*
X-5207Y11302D01*
X-5081Y11176D01*
X-4979Y11133D01*
X-4990Y10830D01*
X-5004Y10821D01*
X-6731D01*
X-6838Y10800D01*
X-6929Y10739D01*
X-9386Y8282D01*
X-9447Y8191D01*
X-9468Y8084D01*
Y879D01*
X-9516Y599D01*
X-10416D01*
Y599D01*
X-10532D01*
Y599D01*
X-11358D01*
X-11432Y599D01*
X-11658Y778D01*
Y1412D01*
X-11358Y1599D01*
X-11354Y1597D01*
X-11175D01*
X-11009Y1666D01*
X-10883Y1792D01*
X-10814Y1958D01*
Y2137D01*
X-10883Y2302D01*
X-11009Y2429D01*
X-11047Y2445D01*
Y7066D01*
X-10934Y7143D01*
X-10747Y7218D01*
X-10631Y7170D01*
X-10451D01*
X-10286Y7239D01*
X-10160Y7365D01*
X-10091Y7530D01*
Y7710D01*
X-10160Y7875D01*
X-10286Y8001D01*
X-10451Y8070D01*
X-10631D01*
X-10747Y8022D01*
X-10934Y8097D01*
X-11047Y8174D01*
Y13293D01*
X-10934Y13371D01*
X-10747Y13446D01*
X-10631Y13398D01*
X-10451D01*
X-10286Y13466D01*
X-10160Y13593D01*
X-10091Y13758D01*
Y13937D01*
X-10160Y14102D01*
X-10286Y14229D01*
X-10451Y14298D01*
X-10631D01*
X-10881Y14507D01*
X-10890Y14537D01*
X-10868Y14643D01*
X-8512Y17000D01*
X-8415Y16995D01*
X-8180Y16907D01*
X-8143Y16819D01*
X-8017Y16693D01*
X-7851Y16624D01*
X-7672D01*
X-7507Y16693D01*
X-7380Y16819D01*
X-7312Y16985D01*
Y17164D01*
X-7380Y17329D01*
X-7507Y17456D01*
X-7595Y17492D01*
X-7683Y17727D01*
X-7685Y17783D01*
X-7468Y18008D01*
X-5426D01*
X-5337Y17853D01*
X-5284Y17708D01*
X-5328Y17601D01*
Y17451D01*
X-5271Y17314D01*
X-5165Y17208D01*
X-5028Y17151D01*
X-4878D01*
X-4741Y17208D01*
X-4635Y17314D01*
X-4578Y17451D01*
Y17601D01*
X-4622Y17708D01*
X-4569Y17853D01*
X-4480Y18008D01*
X-4445D01*
X-4338Y18029D01*
X-4247Y18090D01*
X-2469Y19868D01*
X-2408Y19959D01*
X-2387Y20066D01*
Y21855D01*
X1214Y25456D01*
X1275Y25547D01*
X1296Y25654D01*
Y30626D01*
X1936Y31265D01*
X2048Y31201D01*
X2315Y31129D01*
X2591D01*
X2858Y31201D01*
X3098Y31339D01*
X3293Y31534D01*
X3431Y31774D01*
X3503Y32041D01*
Y32317D01*
X3431Y32584D01*
X3293Y32824D01*
X3098Y33019D01*
X2858Y33157D01*
X2591Y33229D01*
X2315D01*
X2048Y33157D01*
X1808Y33019D01*
X1613Y32824D01*
X1475Y32584D01*
X1403Y32317D01*
Y32041D01*
X1475Y31774D01*
X1539Y31662D01*
X818Y30940D01*
X757Y30849D01*
X736Y30742D01*
Y25770D01*
X-2849Y22186D01*
X-2920Y22191D01*
X-3149Y22285D01*
Y22998D01*
X151Y26298D01*
X212Y26389D01*
X233Y26496D01*
Y31167D01*
X358Y31201D01*
X598Y31339D01*
X793Y31534D01*
X931Y31774D01*
X1003Y32041D01*
Y32317D01*
X931Y32584D01*
X793Y32824D01*
X598Y33019D01*
X358Y33157D01*
X91Y33229D01*
X-185D01*
X-452Y33157D01*
X-692Y33019D01*
X-887Y32824D01*
X-1025Y32584D01*
X-1097Y32317D01*
Y32041D01*
X-1025Y31774D01*
X-887Y31534D01*
X-692Y31339D01*
X-452Y31201D01*
X-327Y31167D01*
Y26612D01*
X-3627Y23312D01*
X-3688Y23221D01*
X-3709Y23114D01*
Y20690D01*
X-5196Y19203D01*
X-6666D01*
X-6725Y19503D01*
X-6423Y19629D01*
X-6415Y19637D01*
X-6404Y19638D01*
X-6014Y19863D01*
X-6007Y19872D01*
X-5996Y19875D01*
X-5639Y20149D01*
X-5633Y20159D01*
X-5623Y20163D01*
X-5304Y20482D01*
X-5300Y20492D01*
X-5290Y20498D01*
X-5016Y20855D01*
X-5013Y20866D01*
X-5004Y20873D01*
X-4779Y21263D01*
X-4778Y21274D01*
X-4770Y21282D01*
X-4597Y21698D01*
Y21709D01*
X-4590Y21718D01*
X-4474Y22153D01*
X-4475Y22165D01*
X-4470Y22174D01*
X-4411Y22621D01*
X-4414Y22632D01*
X-4410Y22642D01*
X-4410Y22867D01*
X-4410Y27142D01*
X-4410Y27142D01*
X-4410Y27392D01*
X-4416Y27407D01*
X-4413Y27424D01*
X-4510Y27914D01*
X-4519Y27928D01*
Y27945D01*
X-4711Y28407D01*
X-4723Y28419D01*
X-4726Y28435D01*
X-5004Y28851D01*
X-5018Y28861D01*
X-5024Y28876D01*
X-5201Y29053D01*
X-6257Y30109D01*
X-6267Y30113D01*
X-6273Y30123D01*
X-6307Y30149D01*
X-6364Y30207D01*
X-6406Y30272D01*
X-6436Y30348D01*
X-6446Y30390D01*
X-6457Y30406D01*
X-6459Y30426D01*
X-6586Y30680D01*
X-6600Y30692D01*
X-6605Y30709D01*
X-6642Y30755D01*
X-6661Y30765D01*
X-6673Y30784D01*
X-6768Y30853D01*
X-6790Y30859D01*
X-6806Y30874D01*
X-6916Y30916D01*
X-6938Y30915D01*
X-6958Y30925D01*
X-7035Y30933D01*
X-7063Y31003D01*
X-7100Y31136D01*
X-7110Y31219D01*
X-6902Y31339D01*
X-6707Y31534D01*
X-6569Y31774D01*
X-6497Y32041D01*
Y32317D01*
X-6569Y32584D01*
X-6707Y32824D01*
X-6902Y33019D01*
X-7142Y33157D01*
X-7409Y33229D01*
X-7685D01*
X-7952Y33157D01*
X-8174Y33030D01*
X-8253Y33050D01*
X-8474Y33162D01*
Y33909D01*
X-8521Y34024D01*
X-8636Y34071D01*
X-9266D01*
X-9349Y34234D01*
X-9370Y34371D01*
X-9207Y34534D01*
X-9069Y34774D01*
X-8997Y35041D01*
Y35317D01*
X-9069Y35584D01*
X-9207Y35824D01*
X-9402Y36019D01*
X-9642Y36157D01*
X-9753Y36187D01*
Y37603D01*
X-9028Y38328D01*
X10171D01*
X11909Y36590D01*
X11896Y36558D01*
Y36340D01*
X11980Y36137D01*
X12134Y35983D01*
X12337Y35899D01*
X12555D01*
X12758Y35983D01*
X12912Y36137D01*
X12996Y36340D01*
Y36558D01*
X12912Y36761D01*
X12758Y36915D01*
X12555Y36999D01*
X12337D01*
X12305Y36986D01*
X10485Y38806D01*
X10394Y38867D01*
X10287Y38888D01*
X9829D01*
X9726Y39188D01*
X9779Y39242D01*
X9848Y39407D01*
Y39587D01*
X9779Y39752D01*
X9653Y39878D01*
X9488Y39947D01*
D02*
G37*
G36*
X15628Y38454D02*
X15278D01*
X14935Y38386D01*
X14612Y38252D01*
X14321Y38058D01*
X14074Y37811D01*
X13880Y37520D01*
X13746Y37197D01*
X13678Y36854D01*
Y36504D01*
X13746Y36161D01*
X13880Y35838D01*
X14074Y35548D01*
X14321Y35300D01*
X14612Y35106D01*
X14935Y34972D01*
X15278Y34904D01*
X15628D01*
X15971Y34972D01*
X16294Y35106D01*
X16584Y35300D01*
X16832Y35548D01*
X17026Y35838D01*
X17160Y36161D01*
X17228Y36504D01*
Y36854D01*
X17160Y37197D01*
X17026Y37520D01*
X16832Y37811D01*
X16584Y38058D01*
X16294Y38252D01*
X15971Y38386D01*
X15628Y38454D01*
D02*
G37*
G36*
X-15372D02*
X-15722D01*
X-16065Y38386D01*
X-16388Y38252D01*
X-16678Y38058D01*
X-16926Y37811D01*
X-17120Y37520D01*
X-17254Y37197D01*
X-17322Y36854D01*
Y36504D01*
X-17254Y36161D01*
X-17120Y35838D01*
X-16926Y35548D01*
X-16678Y35300D01*
X-16388Y35106D01*
X-16065Y34972D01*
X-15722Y34904D01*
X-15372D01*
X-15029Y34972D01*
X-14706Y35106D01*
X-14415Y35300D01*
X-14168Y35548D01*
X-13974Y35838D01*
X-13840Y36161D01*
X-13772Y36504D01*
Y36854D01*
X-13840Y37197D01*
X-13974Y37520D01*
X-14168Y37811D01*
X-14415Y38058D01*
X-14706Y38252D01*
X-15029Y38386D01*
X-15372Y38454D01*
D02*
G37*
G36*
X19118Y36131D02*
X18947D01*
X18782Y36086D01*
X18634Y36001D01*
X18513Y35880D01*
X18427Y35732D01*
X18383Y35566D01*
Y35395D01*
X18427Y35230D01*
X18513Y35082D01*
X18634Y34961D01*
X18782Y34875D01*
X18947Y34831D01*
X19118D01*
X19284Y34875D01*
X19432Y34961D01*
X19553Y35082D01*
X19639Y35230D01*
X19683Y35395D01*
Y35566D01*
X19639Y35732D01*
X19553Y35880D01*
X19432Y36001D01*
X19284Y36086D01*
X19118Y36131D01*
D02*
G37*
G36*
X10091Y36229D02*
X9815D01*
X9548Y36157D01*
X9308Y36019D01*
X9113Y35824D01*
X8975Y35584D01*
X8903Y35317D01*
Y35041D01*
X8975Y34774D01*
X9060Y34625D01*
X8952Y34377D01*
X8899Y34325D01*
X8579Y34325D01*
X8573D01*
X8573D01*
X8509Y34325D01*
X8506Y34324D01*
X8358Y34470D01*
X8313Y34569D01*
X8431Y34774D01*
X8503Y35041D01*
Y35317D01*
X8431Y35584D01*
X8293Y35824D01*
X8098Y36019D01*
X7858Y36157D01*
X7591Y36229D01*
X7315D01*
X7048Y36157D01*
X6808Y36019D01*
X6613Y35824D01*
X6475Y35584D01*
X6403Y35317D01*
Y35041D01*
X6475Y34774D01*
X6613Y34534D01*
X6808Y34339D01*
X7048Y34201D01*
X7315Y34129D01*
X7591D01*
X7858Y34201D01*
X8094Y34337D01*
X8105Y34334D01*
X8347Y34164D01*
X8347Y34163D01*
X8347Y34093D01*
Y33195D01*
X8225Y33109D01*
X8047Y33049D01*
X7858Y33157D01*
X7591Y33229D01*
X7315D01*
X7048Y33157D01*
X6808Y33019D01*
X6613Y32824D01*
X6475Y32584D01*
X6403Y32317D01*
Y32041D01*
X6475Y31774D01*
X6466Y31749D01*
X6397Y31720D01*
X6349Y31605D01*
X6349Y30902D01*
X6344Y30798D01*
X6303Y30590D01*
X6223Y30397D01*
X6105Y30220D01*
X6035Y30143D01*
X4982Y29090D01*
X4978Y29080D01*
X4968Y29075D01*
X4811Y28872D01*
X4807Y28856D01*
X4794Y28845D01*
X4565Y28385D01*
X4564Y28369D01*
X4554Y28356D01*
X4419Y27860D01*
X4421Y27844D01*
X4413Y27829D01*
X4378Y27317D01*
X4383Y27301D01*
X4379Y27285D01*
X4410Y27041D01*
X4410Y23396D01*
X4381Y23179D01*
X4384Y23169D01*
X4380Y23158D01*
X4380Y22701D01*
X4384Y22690D01*
X4381Y22680D01*
X4441Y22226D01*
X4446Y22216D01*
X4445Y22205D01*
X4563Y21763D01*
X4570Y21754D01*
X4570Y21743D01*
X4745Y21320D01*
X4753Y21312D01*
X4754Y21301D01*
X4983Y20905D01*
X4992Y20898D01*
X4995Y20887D01*
X5273Y20524D01*
X5283Y20519D01*
X5287Y20508D01*
X5610Y20185D01*
X5621Y20180D01*
X5626Y20171D01*
X5989Y19892D01*
X6000Y19889D01*
X6007Y19880D01*
X6403Y19651D01*
X6414Y19650D01*
X6422Y19642D01*
X6845Y19467D01*
X6856Y19467D01*
X6865Y19460D01*
X7307Y19341D01*
X7318Y19343D01*
X7328Y19337D01*
X7554Y19307D01*
X7565Y19310D01*
X7576Y19306D01*
X10826D01*
X10841Y19312D01*
X10858Y19309D01*
X11348Y19407D01*
X11362Y19416D01*
X11379D01*
X11841Y19607D01*
X11853Y19619D01*
X11869Y19622D01*
X12285Y19900D01*
X12294Y19914D01*
X12310Y19921D01*
X12664Y20274D01*
X12670Y20290D01*
X12684Y20299D01*
X12962Y20715D01*
X12965Y20731D01*
X12977Y20743D01*
X13168Y21205D01*
Y21222D01*
X13177Y21236D01*
X13275Y21726D01*
X13272Y21743D01*
X13278Y21758D01*
Y22008D01*
X13278Y32983D01*
X13278Y33167D01*
X13273Y33180D01*
X13276Y33193D01*
X13218Y33557D01*
X13211Y33568D01*
X13212Y33582D01*
X13098Y33932D01*
X13090Y33942D01*
X13088Y33956D01*
X12921Y34284D01*
X12910Y34293D01*
X12907Y34306D01*
X12690Y34604D01*
X12679Y34611D01*
X12674Y34623D01*
X12412Y34883D01*
X12400Y34888D01*
X12393Y34900D01*
X12094Y35116D01*
X12081Y35119D01*
X12072Y35129D01*
X11744Y35295D01*
X11730Y35297D01*
X11720Y35305D01*
X11544Y35362D01*
X11538Y35361D01*
X11533Y35365D01*
X11500Y35360D01*
X11467Y35367D01*
X11445Y35353D01*
X11421Y35351D01*
X11417Y35347D01*
X11410Y35346D01*
X11320Y35291D01*
X11304Y35268D01*
X11303Y35268D01*
X11183Y35288D01*
X10988Y35373D01*
X10931Y35584D01*
X10793Y35824D01*
X10598Y36019D01*
X10358Y36157D01*
X10091Y36229D01*
D02*
G37*
G36*
X5091D02*
X4815D01*
X4548Y36157D01*
X4308Y36019D01*
X4113Y35824D01*
X3975Y35584D01*
X3903Y35317D01*
Y35041D01*
X3975Y34774D01*
X4113Y34534D01*
X4308Y34339D01*
X4548Y34201D01*
X4815Y34129D01*
X5091D01*
X5358Y34201D01*
X5598Y34339D01*
X5793Y34534D01*
X5931Y34774D01*
X6003Y35041D01*
Y35317D01*
X5931Y35584D01*
X5793Y35824D01*
X5598Y36019D01*
X5358Y36157D01*
X5091Y36229D01*
D02*
G37*
G36*
X2591D02*
X2315D01*
X2048Y36157D01*
X1808Y36019D01*
X1613Y35824D01*
X1475Y35584D01*
X1403Y35317D01*
Y35041D01*
X1475Y34774D01*
X1613Y34534D01*
X1808Y34339D01*
X2048Y34201D01*
X2315Y34129D01*
X2591D01*
X2858Y34201D01*
X3098Y34339D01*
X3293Y34534D01*
X3431Y34774D01*
X3503Y35041D01*
Y35317D01*
X3431Y35584D01*
X3293Y35824D01*
X3098Y36019D01*
X2858Y36157D01*
X2591Y36229D01*
D02*
G37*
G36*
X91D02*
X-185D01*
X-452Y36157D01*
X-692Y36019D01*
X-887Y35824D01*
X-1025Y35584D01*
X-1097Y35317D01*
Y35041D01*
X-1025Y34774D01*
X-887Y34534D01*
X-692Y34339D01*
X-452Y34201D01*
X-185Y34129D01*
X91D01*
X358Y34201D01*
X598Y34339D01*
X793Y34534D01*
X931Y34774D01*
X1003Y35041D01*
Y35317D01*
X931Y35584D01*
X793Y35824D01*
X598Y36019D01*
X358Y36157D01*
X91Y36229D01*
D02*
G37*
G36*
X-2409D02*
X-2685D01*
X-2952Y36157D01*
X-3192Y36019D01*
X-3387Y35824D01*
X-3525Y35584D01*
X-3597Y35317D01*
Y35041D01*
X-3525Y34774D01*
X-3387Y34534D01*
X-3192Y34339D01*
X-2952Y34201D01*
X-2685Y34129D01*
X-2409D01*
X-2142Y34201D01*
X-1902Y34339D01*
X-1707Y34534D01*
X-1569Y34774D01*
X-1497Y35041D01*
Y35317D01*
X-1569Y35584D01*
X-1707Y35824D01*
X-1902Y36019D01*
X-2142Y36157D01*
X-2409Y36229D01*
D02*
G37*
G36*
X-4909D02*
X-5185D01*
X-5452Y36157D01*
X-5692Y36019D01*
X-5887Y35824D01*
X-6025Y35584D01*
X-6097Y35317D01*
Y35041D01*
X-6025Y34774D01*
X-5887Y34534D01*
X-5692Y34339D01*
X-5452Y34201D01*
X-5185Y34129D01*
X-4909D01*
X-4642Y34201D01*
X-4402Y34339D01*
X-4207Y34534D01*
X-4069Y34774D01*
X-3997Y35041D01*
Y35317D01*
X-4069Y35584D01*
X-4207Y35824D01*
X-4402Y36019D01*
X-4642Y36157D01*
X-4909Y36229D01*
D02*
G37*
G36*
X-7409D02*
X-7685D01*
X-7952Y36157D01*
X-8192Y36019D01*
X-8387Y35824D01*
X-8525Y35584D01*
X-8597Y35317D01*
Y35041D01*
X-8525Y34774D01*
X-8387Y34534D01*
X-8192Y34339D01*
X-7952Y34201D01*
X-7685Y34129D01*
X-7409D01*
X-7142Y34201D01*
X-6902Y34339D01*
X-6707Y34534D01*
X-6569Y34774D01*
X-6497Y35041D01*
Y35317D01*
X-6569Y35584D01*
X-6707Y35824D01*
X-6902Y36019D01*
X-7142Y36157D01*
X-7409Y36229D01*
D02*
G37*
G36*
X20994Y34824D02*
X20823D01*
X20657Y34779D01*
X20509Y34694D01*
X20388Y34573D01*
X20302Y34425D01*
X20258Y34259D01*
Y34088D01*
X20302Y33923D01*
X20388Y33775D01*
X20509Y33654D01*
X20657Y33568D01*
X20823Y33524D01*
X20994D01*
X21159Y33568D01*
X21307Y33654D01*
X21428Y33775D01*
X21514Y33923D01*
X21558Y34088D01*
Y34259D01*
X21514Y34425D01*
X21428Y34573D01*
X21307Y34694D01*
X21159Y34779D01*
X20994Y34824D01*
D02*
G37*
G36*
X-34022Y33112D02*
X-34251D01*
X-34281Y33100D01*
X-34313D01*
X-34525Y33012D01*
X-34548Y32989D01*
X-34578Y32977D01*
X-34740Y32815D01*
X-34752Y32785D01*
X-34775Y32762D01*
X-34863Y32551D01*
Y32518D01*
X-34875Y32489D01*
Y32259D01*
X-34863Y32230D01*
Y32197D01*
X-34775Y31986D01*
X-34752Y31963D01*
X-34740Y31933D01*
X-34578Y31771D01*
X-34548Y31759D01*
X-34525Y31736D01*
X-34313Y31648D01*
X-34281D01*
X-34251Y31636D01*
X-34022D01*
X-33992Y31648D01*
X-33960D01*
X-33748Y31736D01*
X-33725Y31759D01*
X-33696Y31771D01*
X-33534Y31933D01*
X-33521Y31963D01*
X-33498Y31986D01*
X-33411Y32197D01*
Y32230D01*
X-33398Y32259D01*
Y32489D01*
X-33411Y32518D01*
Y32551D01*
X-33498Y32762D01*
X-33521Y32785D01*
X-33534Y32815D01*
X-33696Y32977D01*
X-33725Y32989D01*
X-33748Y33012D01*
X-33960Y33100D01*
X-33992D01*
X-34022Y33112D01*
D02*
G37*
G36*
X19862Y32842D02*
X19691D01*
X19525Y32798D01*
X19377Y32712D01*
X19256Y32591D01*
X19171Y32443D01*
X19126Y32277D01*
Y32106D01*
X19171Y31941D01*
X19256Y31793D01*
X19377Y31672D01*
X19525Y31586D01*
X19691Y31542D01*
X19862D01*
X20027Y31586D01*
X20175Y31672D01*
X20297Y31793D01*
X20382Y31941D01*
X20426Y32106D01*
Y32277D01*
X20382Y32443D01*
X20297Y32591D01*
X20175Y32712D01*
X20027Y32798D01*
X19862Y32842D01*
D02*
G37*
G36*
X-2409Y33229D02*
X-2685D01*
X-2952Y33157D01*
X-3192Y33019D01*
X-3387Y32824D01*
X-3525Y32584D01*
X-3597Y32317D01*
Y32041D01*
X-3525Y31774D01*
X-3387Y31534D01*
X-3192Y31339D01*
X-2952Y31201D01*
X-2685Y31129D01*
X-2409D01*
X-2142Y31201D01*
X-1902Y31339D01*
X-1707Y31534D01*
X-1569Y31774D01*
X-1497Y32041D01*
Y32317D01*
X-1569Y32584D01*
X-1707Y32824D01*
X-1902Y33019D01*
X-2142Y33157D01*
X-2409Y33229D01*
D02*
G37*
G36*
X-4909D02*
X-5185D01*
X-5452Y33157D01*
X-5692Y33019D01*
X-5887Y32824D01*
X-6025Y32584D01*
X-6097Y32317D01*
Y32041D01*
X-6025Y31774D01*
X-5887Y31534D01*
X-5692Y31339D01*
X-5452Y31201D01*
X-5185Y31129D01*
X-4909D01*
X-4642Y31201D01*
X-4402Y31339D01*
X-4207Y31534D01*
X-4069Y31774D01*
X-3997Y32041D01*
Y32317D01*
X-4069Y32584D01*
X-4207Y32824D01*
X-4402Y33019D01*
X-4642Y33157D01*
X-4909Y33229D01*
D02*
G37*
G36*
X25740Y27193D02*
X25568D01*
X25403Y27149D01*
X25255Y27063D01*
X25134Y26942D01*
X25048Y26794D01*
X25004Y26629D01*
Y26457D01*
X25048Y26292D01*
X25134Y26144D01*
X25255Y26023D01*
X25403Y25937D01*
X25568Y25893D01*
X25740D01*
X25905Y25937D01*
X26053Y26023D01*
X26174Y26144D01*
X26260Y26292D01*
X26304Y26457D01*
Y26629D01*
X26260Y26794D01*
X26174Y26942D01*
X26053Y27063D01*
X25905Y27149D01*
X25740Y27193D01*
D02*
G37*
G36*
X26375Y24907D02*
X26203D01*
X26038Y24863D01*
X25890Y24777D01*
X25769Y24656D01*
X25683Y24508D01*
X25639Y24343D01*
Y24171D01*
X25683Y24006D01*
X25769Y23858D01*
X25890Y23737D01*
X26038Y23651D01*
X26203Y23607D01*
X26375D01*
X26540Y23651D01*
X26688Y23737D01*
X26809Y23858D01*
X26895Y24006D01*
X26939Y24171D01*
Y24343D01*
X26895Y24508D01*
X26809Y24656D01*
X26688Y24777D01*
X26540Y24863D01*
X26375Y24907D01*
D02*
G37*
G36*
X-25908Y34833D02*
X-26023Y34786D01*
X-26045Y34733D01*
X-26110Y34685D01*
X-26110Y34643D01*
Y30385D01*
X-26070D01*
Y29102D01*
X-26023Y28987D01*
X-25181Y28146D01*
Y24511D01*
X-25134Y24396D01*
X-24118Y23380D01*
X-24003Y23333D01*
X-22479Y23333D01*
X-22364Y23380D01*
X-21348Y24396D01*
X-21301Y24511D01*
Y31242D01*
X-21348Y31357D01*
X-22825Y32833D01*
Y34544D01*
X-22872Y34659D01*
X-22987Y34706D01*
X-25714D01*
X-25793Y34786D01*
X-25793D01*
X-25908Y34833D01*
D02*
G37*
G36*
X24617Y34706D02*
X22860D01*
X22745Y34659D01*
X22364Y34278D01*
X22317Y34163D01*
X22317Y31944D01*
X21142Y30769D01*
X18288D01*
X18173Y30722D01*
X15887Y28436D01*
X15840Y28321D01*
Y22352D01*
X15887Y22237D01*
X16522Y21602D01*
X16637Y21555D01*
X21971D01*
X22086Y21602D01*
X23610Y23126D01*
X23657Y23241D01*
Y26730D01*
X25134Y28206D01*
X25181Y28321D01*
Y31475D01*
X31369D01*
X31412Y31481D01*
X31455D01*
X31496Y31492D01*
X31539Y31498D01*
X31578Y31514D01*
X31620Y31525D01*
X31657Y31547D01*
X31697Y31563D01*
X31731Y31589D01*
X31768Y31611D01*
X31799Y31641D01*
X31833Y31667D01*
X31859Y31701D01*
X31889Y31732D01*
X31911Y31769D01*
X31937Y31803D01*
X31953Y31843D01*
X31975Y31880D01*
X31986Y31922D01*
X32002Y31961D01*
X32008Y32004D01*
X32019Y32045D01*
Y32088D01*
X32025Y32131D01*
X32019Y32174D01*
Y32217D01*
X32008Y32258D01*
X32002Y32301D01*
X31986Y32340D01*
X31975Y32382D01*
X31953Y32419D01*
X31937Y32459D01*
X31911Y32493D01*
X31889Y32530D01*
X31859Y32561D01*
X31833Y32595D01*
X31799Y32621D01*
X31768Y32651D01*
X31731Y32673D01*
X31697Y32699D01*
X31657Y32715D01*
X31620Y32737D01*
X31578Y32748D01*
X31539Y32764D01*
X31496Y32770D01*
X31455Y32781D01*
X31412D01*
X31369Y32787D01*
X25181D01*
Y34061D01*
X25160Y34112D01*
X25144Y34165D01*
Y34685D01*
X24671D01*
X24632Y34706D01*
X24624Y34703D01*
X24617Y34706D01*
D02*
G37*
G36*
X25867Y22621D02*
X25695D01*
X25530Y22577D01*
X25382Y22491D01*
X25261Y22370D01*
X25175Y22222D01*
X25131Y22057D01*
Y21885D01*
X25175Y21720D01*
X25261Y21572D01*
X25382Y21451D01*
X25530Y21365D01*
X25695Y21321D01*
X25867D01*
X26032Y21365D01*
X26180Y21451D01*
X26301Y21572D01*
X26387Y21720D01*
X26431Y21885D01*
Y22057D01*
X26387Y22222D01*
X26301Y22370D01*
X26180Y22491D01*
X26032Y22577D01*
X25867Y22621D01*
D02*
G37*
G36*
X-15931Y20137D02*
X-16102D01*
X-16268Y20093D01*
X-16416Y20007D01*
X-16537Y19886D01*
X-16623Y19738D01*
X-16667Y19573D01*
Y19402D01*
X-16623Y19236D01*
X-16537Y19088D01*
X-16416Y18967D01*
X-16268Y18881D01*
X-16102Y18837D01*
X-15931D01*
X-15766Y18881D01*
X-15618Y18967D01*
X-15497Y19088D01*
X-15411Y19236D01*
X-15367Y19402D01*
Y19573D01*
X-15411Y19738D01*
X-15497Y19886D01*
X-15618Y20007D01*
X-15766Y20093D01*
X-15931Y20137D01*
D02*
G37*
G36*
X710Y20441D02*
X560D01*
X423Y20384D01*
X317Y20278D01*
X260Y20141D01*
Y19991D01*
X317Y19854D01*
X423Y19748D01*
X483Y19723D01*
X520Y19703D01*
X533Y19611D01*
Y19505D01*
X520Y19413D01*
X483Y19393D01*
X423Y19368D01*
X317Y19262D01*
X260Y19125D01*
Y18975D01*
X317Y18838D01*
X423Y18732D01*
X560Y18675D01*
X710D01*
X847Y18732D01*
X953Y18838D01*
X1010Y18975D01*
Y19125D01*
X953Y19262D01*
X847Y19368D01*
X787Y19393D01*
X750Y19413D01*
X737Y19505D01*
Y19611D01*
X750Y19703D01*
X787Y19723D01*
X847Y19748D01*
X953Y19854D01*
X1010Y19991D01*
Y20141D01*
X953Y20278D01*
X847Y20384D01*
X710Y20441D01*
D02*
G37*
G36*
X21699Y18965D02*
X21481D01*
X21278Y18881D01*
X21124Y18727D01*
X21040Y18524D01*
Y18306D01*
X21124Y18103D01*
X21278Y17949D01*
X21481Y17865D01*
X21699D01*
X21902Y17949D01*
X22056Y18103D01*
X22140Y18306D01*
Y18524D01*
X22056Y18727D01*
X21902Y18881D01*
X21699Y18965D01*
D02*
G37*
G36*
X16746D02*
X16528D01*
X16325Y18881D01*
X16171Y18727D01*
X16087Y18524D01*
Y18306D01*
X16171Y18103D01*
X16325Y17949D01*
X16528Y17865D01*
X16746D01*
X16949Y17949D01*
X17103Y18103D01*
X17187Y18306D01*
Y18524D01*
X17103Y18727D01*
X16949Y18881D01*
X16746Y18965D01*
D02*
G37*
G36*
X471Y15817D02*
X291D01*
X126Y15748D01*
X-0Y15622D01*
X-69Y15457D01*
Y15277D01*
X-0Y15112D01*
X126Y14986D01*
X291Y14917D01*
X471D01*
X636Y14986D01*
X762Y15112D01*
X831Y15277D01*
Y15457D01*
X762Y15622D01*
X636Y15748D01*
X471Y15817D01*
D02*
G37*
G36*
X-1434D02*
X-1614D01*
X-1779Y15748D01*
X-1905Y15622D01*
X-1974Y15457D01*
Y15277D01*
X-1905Y15112D01*
X-1779Y14986D01*
X-1614Y14917D01*
X-1434D01*
X-1269Y14986D01*
X-1143Y15112D01*
X-1074Y15277D01*
Y15457D01*
X-1143Y15622D01*
X-1269Y15748D01*
X-1434Y15817D01*
D02*
G37*
G36*
X-18583Y16017D02*
X-18755D01*
X-18920Y15973D01*
X-19068Y15887D01*
X-19189Y15766D01*
X-19275Y15618D01*
X-19319Y15453D01*
Y15281D01*
X-19275Y15116D01*
X-19189Y14968D01*
X-19068Y14847D01*
X-18920Y14761D01*
X-18755Y14717D01*
X-18583D01*
X-18418Y14761D01*
X-18270Y14847D01*
X-18149Y14968D01*
X-18063Y15116D01*
X-18019Y15281D01*
Y15453D01*
X-18063Y15618D01*
X-18149Y15766D01*
X-18270Y15887D01*
X-18418Y15973D01*
X-18583Y16017D01*
D02*
G37*
G36*
X-9181Y14420D02*
X-9361D01*
X-9526Y14351D01*
X-9652Y14225D01*
X-9721Y14060D01*
Y13880D01*
X-9652Y13715D01*
X-9526Y13589D01*
X-9361Y13520D01*
X-9181D01*
X-9016Y13589D01*
X-8890Y13715D01*
X-8821Y13880D01*
Y14060D01*
X-8890Y14225D01*
X-9016Y14351D01*
X-9181Y14420D01*
D02*
G37*
G36*
X4401Y14794D02*
X4222D01*
X4057Y14725D01*
X3930Y14599D01*
X3861Y14434D01*
Y14254D01*
X3930Y14089D01*
X4029Y13906D01*
X3937Y13717D01*
X3868Y13552D01*
Y13372D01*
X3937Y13207D01*
X4063Y13081D01*
X4228Y13012D01*
X4408D01*
X4573Y13081D01*
X4699Y13207D01*
X4768Y13372D01*
Y13552D01*
X4699Y13717D01*
X4600Y13900D01*
X4693Y14089D01*
X4761Y14254D01*
Y14434D01*
X4693Y14599D01*
X4566Y14725D01*
X4401Y14794D01*
D02*
G37*
G36*
X-2704Y13150D02*
X-2884D01*
X-3049Y13081D01*
X-3175Y12955D01*
X-3244Y12790D01*
Y12610D01*
X-3175Y12445D01*
X-3049Y12319D01*
X-2884Y12250D01*
X-2704D01*
X-2539Y12319D01*
X-2413Y12445D01*
X-2344Y12610D01*
Y12790D01*
X-2413Y12955D01*
X-2539Y13081D01*
X-2704Y13150D01*
D02*
G37*
G36*
X1736Y12998D02*
X1566D01*
X1410Y12933D01*
X1291Y12814D01*
X1226Y12658D01*
Y12488D01*
X1291Y12332D01*
X1410Y12213D01*
X1566Y12148D01*
X1736D01*
X1892Y12213D01*
X2011Y12332D01*
X2076Y12488D01*
Y12658D01*
X2011Y12814D01*
X1892Y12933D01*
X1736Y12998D01*
D02*
G37*
G36*
X-18583Y13350D02*
X-18755D01*
X-18920Y13306D01*
X-19068Y13220D01*
X-19189Y13099D01*
X-19275Y12951D01*
X-19319Y12786D01*
Y12614D01*
X-19275Y12449D01*
X-19189Y12301D01*
X-19068Y12180D01*
X-18920Y12094D01*
X-18755Y12050D01*
X-18583D01*
X-18418Y12094D01*
X-18270Y12180D01*
X-18149Y12301D01*
X-18063Y12449D01*
X-18019Y12614D01*
Y12786D01*
X-18063Y12951D01*
X-18149Y13099D01*
X-18270Y13220D01*
X-18418Y13306D01*
X-18583Y13350D01*
D02*
G37*
G36*
X-9689Y12266D02*
X-9869D01*
X-10034Y12197D01*
X-10160Y12071D01*
X-10229Y11905D01*
Y11726D01*
X-10160Y11561D01*
X-10034Y11434D01*
X-9869Y11366D01*
X-9689D01*
X-9524Y11434D01*
X-9398Y11561D01*
X-9329Y11726D01*
Y11905D01*
X-9398Y12071D01*
X-9524Y12197D01*
X-9689Y12266D01*
D02*
G37*
G36*
X3265Y10864D02*
X3085D01*
X2920Y10795D01*
X2794Y10669D01*
X2725Y10504D01*
Y10324D01*
X2794Y10159D01*
X2920Y10033D01*
X3085Y9964D01*
X3265D01*
X3430Y10033D01*
X3556Y10159D01*
X3625Y10324D01*
Y10504D01*
X3556Y10669D01*
X3430Y10795D01*
X3265Y10864D01*
D02*
G37*
G36*
X19637Y9794D02*
X18387D01*
Y9181D01*
X17371D01*
Y9224D01*
X16271D01*
X16271Y8349D01*
X16271Y8124D01*
X16271Y7504D01*
X16271Y7496D01*
X16269Y7459D01*
X16239Y7187D01*
X15885Y6512D01*
X15266D01*
X14971Y6524D01*
X14971Y6812D01*
Y7324D01*
X13871D01*
Y7204D01*
X10541D01*
X10433Y7183D01*
X10342Y7122D01*
X10140Y6920D01*
X10123Y6927D01*
X9943D01*
X9778Y6858D01*
X9652Y6732D01*
X9583Y6567D01*
Y6387D01*
X9652Y6222D01*
X9778Y6096D01*
X9943Y6027D01*
X10123D01*
X10288Y6096D01*
X10414Y6222D01*
X10483Y6387D01*
Y6470D01*
X10657Y6644D01*
X13871D01*
Y6524D01*
X13901D01*
X14112Y6224D01*
X14082Y6124D01*
D01*
X14062Y5969D01*
Y5080D01*
X14082Y5031D01*
Y4874D01*
X15382D01*
Y4874D01*
X15479D01*
Y4874D01*
X18049D01*
Y5031D01*
X18069Y5080D01*
Y6731D01*
X18022Y6846D01*
X17650Y7217D01*
X17653Y7269D01*
X17724Y7517D01*
X18387D01*
Y6970D01*
X19637D01*
Y8194D01*
X19637Y8270D01*
Y8494D01*
X19637Y8570D01*
Y9794D01*
D02*
G37*
G36*
X5091Y33229D02*
X4815D01*
X4548Y33157D01*
X4308Y33019D01*
X4113Y32824D01*
X3975Y32584D01*
X3903Y32317D01*
Y32041D01*
X3975Y31774D01*
X4113Y31534D01*
X4308Y31339D01*
X4548Y31201D01*
X4596Y31188D01*
Y30628D01*
X2923Y28954D01*
X2845Y28839D01*
X2818Y28702D01*
Y20955D01*
X2845Y20818D01*
X2923Y20703D01*
X6882Y16743D01*
Y11938D01*
X6909Y11801D01*
X6987Y11686D01*
X10472Y8200D01*
Y8165D01*
X10541Y8000D01*
X10667Y7874D01*
X10832Y7805D01*
X11012D01*
X11177Y7874D01*
X11303Y8000D01*
X11361Y8139D01*
X11372Y8165D01*
X11553Y8352D01*
X11649Y8356D01*
X12029D01*
X12042Y8324D01*
X12196Y8170D01*
X12398Y8086D01*
X12617D01*
X12819Y8170D01*
X12974Y8324D01*
X13058Y8527D01*
Y8745D01*
X12974Y8948D01*
X12819Y9102D01*
X12617Y9186D01*
X12603D01*
X12385Y9435D01*
X12383Y9480D01*
Y9656D01*
X12299Y9858D01*
X12144Y10013D01*
X12113Y10026D01*
Y10900D01*
X12092Y11008D01*
X12031Y11099D01*
X10104Y13025D01*
X10013Y13086D01*
X9906Y13107D01*
X9623D01*
X9610Y13139D01*
X9456Y13293D01*
X9253Y13377D01*
X9035D01*
X8832Y13293D01*
X8678Y13139D01*
X8594Y12936D01*
Y12718D01*
X8678Y12515D01*
X8832Y12361D01*
X9035Y12277D01*
X9253D01*
X9456Y12361D01*
X9610Y12515D01*
X9900Y12436D01*
X10133Y12203D01*
X9963Y11949D01*
X9888Y11980D01*
X9670D01*
X9467Y11896D01*
X9313Y11742D01*
X9229Y11539D01*
Y11321D01*
X9313Y11118D01*
X9467Y10964D01*
X9499Y10951D01*
Y10607D01*
X9199Y10483D01*
X7596Y12086D01*
Y16891D01*
X7569Y17028D01*
X7491Y17143D01*
X3532Y21103D01*
Y28554D01*
X5205Y30228D01*
X5283Y30343D01*
X5310Y30480D01*
Y31188D01*
X5358Y31201D01*
X5598Y31339D01*
X5793Y31534D01*
X5931Y31774D01*
X6003Y32041D01*
Y32317D01*
X5931Y32584D01*
X5793Y32824D01*
X5598Y33019D01*
X5358Y33157D01*
X5091Y33229D01*
D02*
G37*
G36*
X-18651Y10296D02*
X-19651D01*
Y9801D01*
X-19764Y9687D01*
X-19842Y9572D01*
X-19869Y9435D01*
Y9172D01*
X-20462D01*
Y7922D01*
X-19162D01*
Y8788D01*
X-19155Y8822D01*
Y9287D01*
X-19146Y9296D01*
X-18651D01*
Y10296D01*
D02*
G37*
G36*
X1360Y8451D02*
X1180D01*
X1015Y8382D01*
X889Y8256D01*
X820Y8091D01*
Y7911D01*
X889Y7746D01*
X1015Y7620D01*
X1180Y7551D01*
X1360D01*
X1525Y7620D01*
X1651Y7746D01*
X1720Y7911D01*
Y8091D01*
X1651Y8256D01*
X1525Y8382D01*
X1360Y8451D01*
D02*
G37*
G36*
X-2704Y8070D02*
X-2884D01*
X-3049Y8001D01*
X-3175Y7875D01*
X-3244Y7710D01*
Y7530D01*
X-3175Y7365D01*
X-3049Y7239D01*
X-2884Y7170D01*
X-2704D01*
X-2539Y7239D01*
X-2413Y7365D01*
X-2344Y7530D01*
Y7710D01*
X-2413Y7875D01*
X-2539Y8001D01*
X-2704Y8070D01*
D02*
G37*
G36*
X-1317Y7946D02*
X-1496D01*
X-1662Y7878D01*
X-1788Y7751D01*
X-1857Y7586D01*
Y7407D01*
X-1788Y7242D01*
X-1662Y7115D01*
X-1496Y7046D01*
X-1317D01*
X-1152Y7115D01*
X-1025Y7242D01*
X-957Y7407D01*
Y7586D01*
X-1025Y7751D01*
X-1152Y7878D01*
X-1317Y7946D01*
D02*
G37*
G36*
X-4209Y7662D02*
X-4427D01*
X-4630Y7578D01*
X-4784Y7424D01*
X-4868Y7221D01*
Y7003D01*
X-4784Y6800D01*
X-4630Y6646D01*
X-4427Y6562D01*
X-4209D01*
X-4006Y6646D01*
X-3852Y6800D01*
X-3768Y7003D01*
Y7221D01*
X-3852Y7424D01*
X-4006Y7578D01*
X-4209Y7662D01*
D02*
G37*
G36*
X-14887Y5795D02*
X-15987D01*
Y4995D01*
X-14887D01*
Y4995D01*
X-14847Y5002D01*
X-14547Y4863D01*
X-14478Y4698D01*
X-14352Y4572D01*
X-14187Y4503D01*
X-14007D01*
X-13842Y4572D01*
X-13716Y4698D01*
X-13647Y4863D01*
Y5043D01*
X-13716Y5208D01*
X-13842Y5334D01*
X-14007Y5403D01*
X-14152D01*
X-14342Y5593D01*
X-14433Y5654D01*
X-14540Y5675D01*
X-14887D01*
Y5795D01*
D02*
G37*
G36*
X-19059Y7594D02*
X-19162Y7572D01*
X-19162Y7572D01*
X-20462D01*
Y6322D01*
X-20211D01*
X-20193Y6315D01*
X-19387D01*
X-18945Y5698D01*
X-18803Y5457D01*
X-18974Y5222D01*
X-19164Y5222D01*
X-20145D01*
Y3998D01*
X-20145Y3922D01*
Y3698D01*
X-20145Y3622D01*
Y2398D01*
X-18895D01*
Y2767D01*
X-18307D01*
X-18307Y2767D01*
X-18151Y2798D01*
X-18019Y2887D01*
X-17813Y3092D01*
X-17798Y3095D01*
X-17287D01*
X-17287Y3970D01*
X-17287Y4195D01*
X-17287Y4794D01*
X-17286Y4849D01*
X-17248Y5129D01*
X-16395Y5981D01*
X-16348Y6096D01*
Y7366D01*
X-16362Y7400D01*
Y7594D01*
X-17662D01*
Y7594D01*
X-17759D01*
Y7594D01*
X-18871D01*
X-19059Y7594D01*
D02*
G37*
G36*
X3392Y6673D02*
X3212D01*
X3047Y6604D01*
X2921Y6478D01*
X2852Y6313D01*
Y6133D01*
X2921Y5968D01*
X3022Y5867D01*
Y3658D01*
X2921Y3557D01*
X2852Y3392D01*
Y3212D01*
X2921Y3047D01*
X2974Y2993D01*
X2871Y2693D01*
X-2286D01*
X-2393Y2672D01*
X-2484Y2611D01*
X-3291Y1804D01*
X-5207D01*
X-5314Y1783D01*
X-5405Y1722D01*
X-6659Y469D01*
X-6959Y593D01*
Y3938D01*
X-6149Y4747D01*
X-6006D01*
X-5841Y4816D01*
X-5715Y4942D01*
X-5646Y5107D01*
Y5287D01*
X-5715Y5452D01*
X-5841Y5578D01*
X-6006Y5647D01*
X-6186D01*
X-6351Y5578D01*
X-6477Y5452D01*
X-6546Y5287D01*
Y5144D01*
X-7437Y4252D01*
X-7498Y4161D01*
X-7519Y4054D01*
Y-2311D01*
X-7620Y-2412D01*
X-7689Y-2577D01*
Y-2757D01*
X-7620Y-2922D01*
X-7494Y-3048D01*
X-7329Y-3117D01*
X-7149D01*
X-6880Y-3330D01*
Y-4449D01*
X-6859Y-4557D01*
X-6798Y-4647D01*
X-6419Y-5027D01*
Y-5170D01*
X-6350Y-5335D01*
X-6224Y-5461D01*
X-6059Y-5530D01*
X-5879D01*
X-5714Y-5461D01*
X-5588Y-5335D01*
X-5519Y-5170D01*
X-5424Y-5022D01*
X-5244Y-5022D01*
X-5079Y-4953D01*
X-4953Y-4827D01*
X-4884Y-4662D01*
Y-4482D01*
X-4953Y-4317D01*
X-5079Y-4191D01*
X-5244Y-4122D01*
X-5387D01*
X-5816Y-3694D01*
Y-1663D01*
X-5516Y-1544D01*
X-5473Y-1586D01*
X-5308Y-1655D01*
X-5129D01*
X-4964Y-1586D01*
X-4859Y-1482D01*
X-4757Y-1492D01*
X-4559Y-1572D01*
Y-2542D01*
X-4859Y-2726D01*
X-4868Y-2722D01*
X-5047D01*
X-5213Y-2790D01*
X-5339Y-2917D01*
X-5408Y-3082D01*
Y-3261D01*
X-5339Y-3427D01*
X-5213Y-3553D01*
X-5047Y-3622D01*
X-4868D01*
X-4660Y-3804D01*
X-4533Y-3930D01*
X-4368Y-3999D01*
X-4189D01*
X-4024Y-3930D01*
X-3897Y-3804D01*
X-3829Y-3638D01*
Y-3459D01*
X-3897Y-3294D01*
X-3998Y-3193D01*
Y-712D01*
X-3186Y101D01*
X-2794D01*
X-2687Y122D01*
X-2596Y183D01*
X-1829Y950D01*
X-675D01*
X-612Y885D01*
X-501Y650D01*
X-527Y588D01*
Y428D01*
X-466Y281D01*
X-354Y169D01*
X-207Y108D01*
X-205D01*
X-81Y-192D01*
X-370Y-482D01*
X-2667D01*
X-2774Y-503D01*
X-2865Y-564D01*
X-3335Y-1034D01*
X-3396Y-1125D01*
X-3418Y-1232D01*
Y-1304D01*
X-3421Y-1305D01*
X-3547Y-1432D01*
X-3616Y-1597D01*
Y-1776D01*
X-3547Y-1942D01*
X-3421Y-2068D01*
X-3255Y-2137D01*
X-3076D01*
X-2911Y-2068D01*
X-2784Y-1942D01*
X-2716Y-1776D01*
Y-1597D01*
X-2784Y-1432D01*
X-2857Y-1359D01*
Y-1348D01*
X-2551Y-1042D01*
X-254D01*
X-147Y-1021D01*
X-56Y-960D01*
X1386Y482D01*
X1996D01*
X2063Y405D01*
X2163Y182D01*
X2125Y90D01*
Y-90D01*
X2194Y-255D01*
X2320Y-381D01*
X2486Y-450D01*
X2665D01*
X2830Y-381D01*
X2957Y-255D01*
X3025Y-90D01*
Y90D01*
X2987Y182D01*
X3087Y405D01*
X3154Y482D01*
X12190D01*
X12212Y473D01*
X13391Y-706D01*
X13482Y-767D01*
X13589Y-788D01*
X18233D01*
X18334Y-889D01*
X18499Y-958D01*
X18679D01*
X18844Y-889D01*
X18970Y-763D01*
X19039Y-598D01*
Y-418D01*
X18970Y-253D01*
X18844Y-127D01*
X18679Y-58D01*
X18578D01*
X18469Y-20D01*
X18301Y184D01*
Y217D01*
X18232Y382D01*
X18106Y508D01*
X17941Y577D01*
X17761D01*
X17596Y508D01*
X17495Y407D01*
X15651D01*
X15436Y672D01*
Y852D01*
X15367Y1017D01*
X15241Y1143D01*
X15076Y1212D01*
X14896D01*
X14755Y1153D01*
X14677Y1194D01*
X14511Y1348D01*
X14547Y1434D01*
Y1614D01*
X14478Y1779D01*
X14390Y1867D01*
X14423Y2049D01*
X14482Y2167D01*
X15114D01*
Y3167D01*
X15370Y3274D01*
X15382D01*
Y4524D01*
X14082D01*
Y3454D01*
X14082Y3274D01*
X14082D01*
X14114Y3167D01*
X14114Y3167D01*
Y2328D01*
X13814Y2204D01*
X13406Y2611D01*
X13315Y2672D01*
X13208Y2693D01*
X3733D01*
X3630Y2993D01*
X3683Y3047D01*
X3752Y3212D01*
Y3392D01*
X3683Y3557D01*
X3582Y3658D01*
Y5867D01*
X3683Y5968D01*
X3752Y6133D01*
Y6313D01*
X3683Y6478D01*
X3557Y6604D01*
X3392Y6673D01*
D02*
G37*
G36*
X11139Y-947D02*
X10959D01*
X10794Y-1016D01*
X10668Y-1142D01*
X10599Y-1307D01*
Y-1487D01*
X10635Y-1573D01*
X10469Y-1727D01*
X10391Y-1768D01*
X10250Y-1709D01*
X10070D01*
X9905Y-1778D01*
X9779Y-1904D01*
X9710Y-2069D01*
Y-2249D01*
X9779Y-2414D01*
X9905Y-2540D01*
X10070Y-2609D01*
X10250D01*
X10415Y-2540D01*
X10692Y-2688D01*
Y-4419D01*
X10668Y-4444D01*
X10599Y-4609D01*
Y-4789D01*
X10668Y-4954D01*
X10794Y-5080D01*
X10959Y-5149D01*
X11139D01*
X11304Y-5080D01*
X11430Y-4954D01*
X11499Y-4789D01*
Y-4609D01*
X11430Y-4444D01*
X11406Y-4419D01*
Y-2688D01*
X11683Y-2540D01*
X11848Y-2609D01*
X12028D01*
X12193Y-2540D01*
X12319Y-2414D01*
X12388Y-2249D01*
Y-2069D01*
X12319Y-1904D01*
X12193Y-1778D01*
X12028Y-1709D01*
X11848D01*
X11707Y-1768D01*
X11629Y-1727D01*
X11463Y-1573D01*
X11499Y-1487D01*
Y-1307D01*
X11430Y-1142D01*
X11304Y-1016D01*
X11139Y-947D01*
D02*
G37*
G36*
X4398Y-616D02*
X4238D01*
X4091Y-677D01*
X3979Y-789D01*
X3918Y-936D01*
Y-1096D01*
X3979Y-1243D01*
X3985Y-1249D01*
X4051Y-1456D01*
X3979Y-1633D01*
X3187Y-2425D01*
X3186Y-2428D01*
X3146D01*
X3140Y-2540D01*
X3146Y-2555D01*
Y-3728D01*
X3146Y-3928D01*
X3146Y-4228D01*
Y-5378D01*
X3113D01*
Y-6628D01*
X4413D01*
Y-6210D01*
X4713Y-6103D01*
X4809Y-6222D01*
X4778Y-6371D01*
Y-6550D01*
X4847Y-6716D01*
X4973Y-6842D01*
X5139Y-6911D01*
X5318D01*
X5483Y-6842D01*
X5610Y-6716D01*
X5678Y-6550D01*
Y-6371D01*
X5904Y-6131D01*
X6223D01*
X6338Y-6084D01*
X6894Y-5528D01*
X7046D01*
Y-4228D01*
X7046Y-4028D01*
X7046Y-3728D01*
Y-2933D01*
X7391Y-2588D01*
X7468Y-2472D01*
X7495Y-2335D01*
Y-1953D01*
X7938D01*
Y-653D01*
X6688D01*
Y-1953D01*
X6688D01*
X6711Y-2198D01*
X6495Y-2428D01*
X6014D01*
X6004Y-2413D01*
Y-1953D01*
X6338D01*
Y-653D01*
X5088D01*
Y-1352D01*
X4852Y-1408D01*
X4697Y-1147D01*
X4718Y-1096D01*
Y-936D01*
X4657Y-789D01*
X4545Y-677D01*
X4398Y-616D01*
D02*
G37*
G36*
X2280Y-2480D02*
X2120D01*
X1973Y-2541D01*
X1861Y-2653D01*
X1800Y-2800D01*
Y-2960D01*
X1861Y-3107D01*
X1973Y-3219D01*
X2120Y-3280D01*
X2280D01*
X2427Y-3219D01*
X2539Y-3107D01*
X2600Y-2960D01*
Y-2800D01*
X2539Y-2653D01*
X2427Y-2541D01*
X2280Y-2480D01*
D02*
G37*
G36*
X1180D02*
X1020D01*
X873Y-2541D01*
X761Y-2653D01*
X700Y-2800D01*
Y-2960D01*
X761Y-3107D01*
X873Y-3219D01*
X1020Y-3280D01*
X1180D01*
X1327Y-3219D01*
X1439Y-3107D01*
X1500Y-2960D01*
Y-2800D01*
X1439Y-2653D01*
X1327Y-2541D01*
X1180Y-2480D01*
D02*
G37*
G36*
X80D02*
X-80D01*
X-227Y-2541D01*
X-339Y-2653D01*
X-400Y-2800D01*
Y-2960D01*
X-339Y-3107D01*
X-227Y-3219D01*
X-80Y-3280D01*
X80D01*
X227Y-3219D01*
X339Y-3107D01*
X400Y-2960D01*
Y-2800D01*
X339Y-2653D01*
X227Y-2541D01*
X80Y-2480D01*
D02*
G37*
G36*
X-1020D02*
X-1180D01*
X-1327Y-2541D01*
X-1439Y-2653D01*
X-1500Y-2800D01*
Y-2960D01*
X-1439Y-3107D01*
X-1327Y-3219D01*
X-1180Y-3280D01*
X-1020D01*
X-873Y-3219D01*
X-761Y-3107D01*
X-700Y-2960D01*
Y-2800D01*
X-761Y-2653D01*
X-873Y-2541D01*
X-1020Y-2480D01*
D02*
G37*
G36*
X-2120D02*
X-2280D01*
X-2427Y-2541D01*
X-2539Y-2653D01*
X-2600Y-2800D01*
Y-2960D01*
X-2539Y-3107D01*
X-2427Y-3219D01*
X-2280Y-3280D01*
X-2120D01*
X-1973Y-3219D01*
X-1861Y-3107D01*
X-1800Y-2960D01*
Y-2800D01*
X-1861Y-2653D01*
X-1973Y-2541D01*
X-2120Y-2480D01*
D02*
G37*
G36*
X18251Y-3487D02*
X18071D01*
X17906Y-3556D01*
X17805Y-3657D01*
X15850D01*
X15749Y-3556D01*
X15584Y-3487D01*
X15404D01*
X15239Y-3556D01*
X15113Y-3682D01*
X15044Y-3847D01*
Y-4027D01*
X15113Y-4192D01*
X15239Y-4318D01*
X15404Y-4387D01*
X15584D01*
X15749Y-4318D01*
X15850Y-4217D01*
X17805D01*
X17906Y-4318D01*
X18071Y-4387D01*
X18251D01*
X18416Y-4318D01*
X18542Y-4192D01*
X18611Y-4027D01*
Y-3847D01*
X18542Y-3682D01*
X18416Y-3556D01*
X18251Y-3487D01*
D02*
G37*
G36*
X-8673Y-2979D02*
X-8853D01*
X-9018Y-3048D01*
X-9144Y-3174D01*
X-9213Y-3339D01*
Y-3519D01*
X-9144Y-3684D01*
X-9018Y-3810D01*
X-8853Y-3879D01*
X-8673D01*
X-8508Y-3810D01*
X-8382Y-3684D01*
X-8313Y-3519D01*
Y-3339D01*
X-8382Y-3174D01*
X-8508Y-3048D01*
X-8673Y-2979D01*
D02*
G37*
G36*
X2280Y-3580D02*
X2120D01*
X1973Y-3641D01*
X1861Y-3753D01*
X1800Y-3900D01*
Y-4060D01*
X1861Y-4207D01*
X1973Y-4319D01*
X2120Y-4380D01*
X2280D01*
X2427Y-4319D01*
X2539Y-4207D01*
X2600Y-4060D01*
Y-3900D01*
X2539Y-3753D01*
X2427Y-3641D01*
X2280Y-3580D01*
D02*
G37*
G36*
X1180D02*
X1020D01*
X873Y-3641D01*
X761Y-3753D01*
X700Y-3900D01*
Y-4060D01*
X761Y-4207D01*
X873Y-4319D01*
X1020Y-4380D01*
X1180D01*
X1327Y-4319D01*
X1439Y-4207D01*
X1500Y-4060D01*
Y-3900D01*
X1439Y-3753D01*
X1327Y-3641D01*
X1180Y-3580D01*
D02*
G37*
G36*
X80D02*
X-80D01*
X-227Y-3641D01*
X-339Y-3753D01*
X-400Y-3900D01*
Y-4060D01*
X-339Y-4207D01*
X-227Y-4319D01*
X-80Y-4380D01*
X80D01*
X227Y-4319D01*
X339Y-4207D01*
X400Y-4060D01*
Y-3900D01*
X339Y-3753D01*
X227Y-3641D01*
X80Y-3580D01*
D02*
G37*
G36*
X-1020D02*
X-1180D01*
X-1327Y-3641D01*
X-1439Y-3753D01*
X-1500Y-3900D01*
Y-4060D01*
X-1439Y-4207D01*
X-1327Y-4319D01*
X-1180Y-4380D01*
X-1020D01*
X-873Y-4319D01*
X-761Y-4207D01*
X-700Y-4060D01*
Y-3900D01*
X-761Y-3753D01*
X-873Y-3641D01*
X-1020Y-3580D01*
D02*
G37*
G36*
X-2120D02*
X-2280D01*
X-2427Y-3641D01*
X-2539Y-3753D01*
X-2600Y-3900D01*
Y-4060D01*
X-2539Y-4207D01*
X-2427Y-4319D01*
X-2280Y-4380D01*
X-2120D01*
X-1973Y-4319D01*
X-1861Y-4207D01*
X-1800Y-4060D01*
Y-3900D01*
X-1861Y-3753D01*
X-1973Y-3641D01*
X-2120Y-3580D01*
D02*
G37*
G36*
X2280Y-4680D02*
X2120D01*
X1973Y-4741D01*
X1861Y-4853D01*
X1800Y-5000D01*
Y-5160D01*
X1861Y-5307D01*
X1973Y-5419D01*
X2120Y-5480D01*
X2280D01*
X2427Y-5419D01*
X2539Y-5307D01*
X2600Y-5160D01*
Y-5000D01*
X2539Y-4853D01*
X2427Y-4741D01*
X2280Y-4680D01*
D02*
G37*
G36*
X1180D02*
X1020D01*
X873Y-4741D01*
X761Y-4853D01*
X700Y-5000D01*
Y-5160D01*
X761Y-5307D01*
X873Y-5419D01*
X1020Y-5480D01*
X1180D01*
X1327Y-5419D01*
X1439Y-5307D01*
X1500Y-5160D01*
Y-5000D01*
X1439Y-4853D01*
X1327Y-4741D01*
X1180Y-4680D01*
D02*
G37*
G36*
X80D02*
X-80D01*
X-227Y-4741D01*
X-339Y-4853D01*
X-400Y-5000D01*
Y-5160D01*
X-339Y-5307D01*
X-227Y-5419D01*
X-80Y-5480D01*
X80D01*
X227Y-5419D01*
X339Y-5307D01*
X400Y-5160D01*
Y-5000D01*
X339Y-4853D01*
X227Y-4741D01*
X80Y-4680D01*
D02*
G37*
G36*
X-1020D02*
X-1180D01*
X-1327Y-4741D01*
X-1439Y-4853D01*
X-1500Y-5000D01*
Y-5160D01*
X-1439Y-5307D01*
X-1327Y-5419D01*
X-1180Y-5480D01*
X-1020D01*
X-873Y-5419D01*
X-761Y-5307D01*
X-700Y-5160D01*
Y-5000D01*
X-761Y-4853D01*
X-873Y-4741D01*
X-1020Y-4680D01*
D02*
G37*
G36*
X-2120D02*
X-2280D01*
X-2427Y-4741D01*
X-2539Y-4853D01*
X-2600Y-5000D01*
Y-5160D01*
X-2539Y-5307D01*
X-2427Y-5419D01*
X-2280Y-5480D01*
X-2120D01*
X-1973Y-5419D01*
X-1861Y-5307D01*
X-1800Y-5160D01*
Y-5000D01*
X-1861Y-4853D01*
X-1973Y-4741D01*
X-2120Y-4680D01*
D02*
G37*
G36*
X2280Y-5780D02*
X2120D01*
X1973Y-5841D01*
X1861Y-5953D01*
X1800Y-6100D01*
Y-6260D01*
X1861Y-6407D01*
X1973Y-6519D01*
X2120Y-6580D01*
X2280D01*
X2427Y-6519D01*
X2539Y-6407D01*
X2600Y-6260D01*
Y-6100D01*
X2539Y-5953D01*
X2427Y-5841D01*
X2280Y-5780D01*
D02*
G37*
G36*
X1180D02*
X1020D01*
X873Y-5841D01*
X761Y-5953D01*
X700Y-6100D01*
Y-6260D01*
X761Y-6407D01*
X873Y-6519D01*
X1020Y-6580D01*
X1180D01*
X1327Y-6519D01*
X1439Y-6407D01*
X1500Y-6260D01*
Y-6100D01*
X1439Y-5953D01*
X1327Y-5841D01*
X1180Y-5780D01*
D02*
G37*
G36*
X80D02*
X-80D01*
X-227Y-5841D01*
X-339Y-5953D01*
X-400Y-6100D01*
Y-6260D01*
X-339Y-6407D01*
X-227Y-6519D01*
X-80Y-6580D01*
X80D01*
X227Y-6519D01*
X339Y-6407D01*
X400Y-6260D01*
Y-6100D01*
X339Y-5953D01*
X227Y-5841D01*
X80Y-5780D01*
D02*
G37*
G36*
X-1020D02*
X-1180D01*
X-1327Y-5841D01*
X-1439Y-5953D01*
X-1500Y-6100D01*
Y-6260D01*
X-1439Y-6407D01*
X-1327Y-6519D01*
X-1180Y-6580D01*
X-1020D01*
X-873Y-6519D01*
X-761Y-6407D01*
X-700Y-6260D01*
Y-6100D01*
X-761Y-5953D01*
X-873Y-5841D01*
X-1020Y-5780D01*
D02*
G37*
G36*
X-2120D02*
X-2280D01*
X-2427Y-5841D01*
X-2539Y-5953D01*
X-2600Y-6100D01*
Y-6260D01*
X-2539Y-6407D01*
X-2427Y-6519D01*
X-2280Y-6580D01*
X-2120D01*
X-1973Y-6519D01*
X-1861Y-6407D01*
X-1800Y-6260D01*
Y-6100D01*
X-1861Y-5953D01*
X-1973Y-5841D01*
X-2120Y-5780D01*
D02*
G37*
G36*
X8599Y-3868D02*
X8419D01*
X8254Y-3937D01*
X8128Y-4063D01*
X8059Y-4228D01*
Y-4371D01*
X8057Y-4374D01*
X7996Y-4465D01*
X7975Y-4572D01*
Y-5994D01*
X7874Y-6095D01*
X7805Y-6260D01*
Y-6440D01*
X7874Y-6605D01*
X8000Y-6731D01*
X8165Y-6800D01*
X8345D01*
X8510Y-6731D01*
X8636Y-6605D01*
X8705Y-6440D01*
Y-6260D01*
X8636Y-6095D01*
X8535Y-5994D01*
Y-4768D01*
X8599D01*
X8764Y-4699D01*
X8890Y-4573D01*
X8959Y-4408D01*
Y-4228D01*
X8890Y-4063D01*
X8764Y-3937D01*
X8599Y-3868D01*
D02*
G37*
G36*
X1180Y-6880D02*
X1020D01*
X873Y-6941D01*
X761Y-7053D01*
X700Y-7200D01*
Y-7360D01*
X761Y-7507D01*
X873Y-7619D01*
X1020Y-7680D01*
X1180D01*
X1327Y-7619D01*
X1439Y-7507D01*
X1500Y-7360D01*
Y-7200D01*
X1439Y-7053D01*
X1327Y-6941D01*
X1180Y-6880D01*
D02*
G37*
G36*
X80D02*
X-80D01*
X-227Y-6941D01*
X-339Y-7053D01*
X-400Y-7200D01*
Y-7360D01*
X-339Y-7507D01*
X-227Y-7619D01*
X-80Y-7680D01*
X80D01*
X227Y-7619D01*
X339Y-7507D01*
X400Y-7360D01*
Y-7200D01*
X339Y-7053D01*
X227Y-6941D01*
X80Y-6880D01*
D02*
G37*
G36*
X-1020D02*
X-1180D01*
X-1327Y-6941D01*
X-1439Y-7053D01*
X-1500Y-7200D01*
Y-7360D01*
X-1439Y-7507D01*
X-1327Y-7619D01*
X-1180Y-7680D01*
X-1020D01*
X-873Y-7619D01*
X-761Y-7507D01*
X-700Y-7360D01*
Y-7200D01*
X-761Y-7053D01*
X-873Y-6941D01*
X-1020Y-6880D01*
D02*
G37*
G36*
X-2120D02*
X-2280D01*
X-2427Y-6941D01*
X-2539Y-7053D01*
X-2600Y-7200D01*
Y-7360D01*
X-2539Y-7507D01*
X-2427Y-7619D01*
X-2280Y-7680D01*
X-2120D01*
X-1973Y-7619D01*
X-1861Y-7507D01*
X-1800Y-7360D01*
Y-7200D01*
X-1861Y-7053D01*
X-1973Y-6941D01*
X-2120Y-6880D01*
D02*
G37*
G36*
X2280D02*
X2120D01*
X1973Y-6941D01*
X1861Y-7053D01*
X1800Y-7200D01*
Y-7360D01*
X1861Y-7507D01*
X1973Y-7619D01*
X2120Y-7680D01*
X2122D01*
X2124Y-7681D01*
X2239Y-7759D01*
X2376Y-7786D01*
X3113D01*
Y-8228D01*
X4406D01*
X4413Y-8221D01*
Y-6978D01*
X3113D01*
Y-7072D01*
X2547D01*
X2539Y-7053D01*
X2427Y-6941D01*
X2280Y-6880D01*
D02*
G37*
G36*
X-2079Y-9633D02*
X-2239D01*
X-2386Y-9694D01*
X-2498Y-9806D01*
X-2559Y-9953D01*
Y-10113D01*
X-2498Y-10260D01*
X-2386Y-10372D01*
X-2239Y-10433D01*
X-2079D01*
X-1932Y-10372D01*
X-1820Y-10260D01*
X-1759Y-10113D01*
Y-9953D01*
X-1820Y-9806D01*
X-1932Y-9694D01*
X-2079Y-9633D01*
D02*
G37*
G36*
X13566Y-2632D02*
X13312D01*
X13197Y-2679D01*
X13150Y-2794D01*
Y-9452D01*
X8828Y-13300D01*
X7644D01*
Y-11733D01*
X4044D01*
Y-12349D01*
X3744Y-12409D01*
X3743Y-12406D01*
X3639Y-12270D01*
X3503Y-12166D01*
X3345Y-12101D01*
X3289Y-12093D01*
X3234Y-12057D01*
X3230Y-12053D01*
X3059Y-11831D01*
X3054Y-11707D01*
Y-10686D01*
X2916D01*
X2732Y-10386D01*
X2736Y-10377D01*
Y-10197D01*
X2667Y-10032D01*
X2541Y-9906D01*
X2376Y-9837D01*
X2196D01*
X2031Y-9906D01*
X1905Y-10032D01*
X1836Y-10197D01*
Y-10377D01*
X1840Y-10386D01*
X1822Y-10447D01*
X1620Y-10640D01*
X366D01*
Y-11890D01*
X1457D01*
X1473Y-11909D01*
X1333Y-12209D01*
X1016D01*
X846Y-12232D01*
X826Y-12240D01*
X366D01*
Y-12822D01*
X360Y-12865D01*
X366Y-12908D01*
Y-13490D01*
X826D01*
X846Y-13498D01*
X1016Y-13521D01*
X1754D01*
Y-13536D01*
X2214D01*
X2234Y-13544D01*
X2404Y-13566D01*
X2574Y-13544D01*
X2594Y-13536D01*
X2678D01*
X2803Y-13836D01*
X2021Y-14617D01*
X1974Y-14732D01*
Y-20574D01*
X2021Y-20689D01*
X2148Y-20816D01*
X2263Y-20863D01*
X2378Y-20816D01*
X2505Y-20689D01*
X2552Y-20574D01*
Y-20357D01*
X2798Y-20286D01*
X2852Y-20283D01*
X2969Y-20399D01*
X3063Y-20603D01*
X2963Y-20846D01*
X2928Y-21107D01*
Y-27178D01*
X2963Y-27439D01*
X3063Y-27682D01*
X3224Y-27891D01*
X3224Y-27891D01*
X3243Y-27910D01*
Y-35747D01*
X3243Y-35747D01*
X3275Y-35993D01*
Y-38814D01*
X12275D01*
Y-29814D01*
X12185D01*
Y-24638D01*
X12150Y-24377D01*
X12050Y-24134D01*
X11889Y-23925D01*
X10661Y-22696D01*
Y-16510D01*
X10661Y-16510D01*
X10626Y-16249D01*
X10566Y-16103D01*
X10778Y-15867D01*
X10832Y-15889D01*
X11012D01*
X11177Y-15820D01*
X11303Y-15694D01*
X11372Y-15529D01*
Y-15349D01*
X11303Y-15184D01*
X11177Y-15058D01*
X11012Y-14989D01*
X10832D01*
X10667Y-15058D01*
X10541Y-15184D01*
X10472Y-15349D01*
Y-15479D01*
X10337Y-15576D01*
X10195Y-15626D01*
X8743Y-14174D01*
X8867Y-13874D01*
X8999Y-13874D01*
X9052Y-13852D01*
X9106Y-13833D01*
X13674Y-9773D01*
X13676Y-9769D01*
X13681Y-9767D01*
X13703Y-9713D01*
X13728Y-9662D01*
X13726Y-9657D01*
X13728Y-9652D01*
Y-2794D01*
X13681Y-2679D01*
X13566Y-2632D01*
D02*
G37*
G36*
X16092Y-13647D02*
X15912D01*
X15747Y-13716D01*
X15621Y-13842D01*
X15552Y-14007D01*
Y-14187D01*
X15621Y-14352D01*
X15747Y-14478D01*
X15912Y-14547D01*
X16092D01*
X16257Y-14478D01*
X16383Y-14352D01*
X16452Y-14187D01*
Y-14007D01*
X16383Y-13842D01*
X16257Y-13716D01*
X16092Y-13647D01*
D02*
G37*
G36*
X16981Y-14536D02*
X16801D01*
X16636Y-14605D01*
X16510Y-14731D01*
X16441Y-14896D01*
Y-15076D01*
X16510Y-15241D01*
X16636Y-15367D01*
X16801Y-15436D01*
X16981D01*
X17146Y-15367D01*
X17272Y-15241D01*
X17341Y-15076D01*
Y-14896D01*
X17272Y-14731D01*
X17146Y-14605D01*
X16981Y-14536D01*
D02*
G37*
G36*
X-13462Y-2632D02*
X-13716D01*
X-13831Y-2679D01*
X-13878Y-2794D01*
Y-9652D01*
X-13831Y-9767D01*
X-9767Y-13831D01*
X-9652Y-13878D01*
X-9173D01*
X-9112Y-13879D01*
X-9021Y-14048D01*
X-9001Y-14178D01*
X-10873Y-16051D01*
X-11033Y-16260D01*
X-11134Y-16503D01*
X-11169Y-16764D01*
Y-22997D01*
X-14485Y-26898D01*
X-14534Y-26975D01*
X-14590Y-27047D01*
X-14605Y-27085D01*
X-14627Y-27119D01*
X-14655Y-27206D01*
X-14690Y-27290D01*
X-14696Y-27331D01*
X-14708Y-27370D01*
X-14713Y-27461D01*
X-14725Y-27552D01*
Y-30436D01*
X-14760D01*
Y-39436D01*
X-12627D01*
X-12580Y-39455D01*
X-12319Y-39490D01*
X-8001D01*
X-8001Y-39490D01*
X-7740Y-39455D01*
X-7693Y-39436D01*
X-5760D01*
Y-30436D01*
X-5760D01*
X-5734Y-30147D01*
X-3732Y-28145D01*
X-3572Y-27936D01*
X-3471Y-27693D01*
X-3436Y-27432D01*
Y-15367D01*
X-3436Y-15367D01*
X-3471Y-15106D01*
X-3563Y-14882D01*
Y-14859D01*
X-3575Y-14771D01*
Y-14446D01*
X-3298Y-14331D01*
X-2702Y-14926D01*
Y-20574D01*
X-2655Y-20689D01*
X-2528Y-20816D01*
X-2413Y-20863D01*
X-2298Y-20816D01*
X-2171Y-20689D01*
X-2124Y-20574D01*
Y-16836D01*
X-1824Y-16720D01*
X-1779Y-16764D01*
X-1614Y-16833D01*
X-1434D01*
X-1269Y-16764D01*
X-1143Y-16638D01*
X-1074Y-16473D01*
Y-16398D01*
X-1057D01*
X-892Y-16354D01*
X-744Y-16268D01*
X-623Y-16147D01*
X-537Y-15999D01*
X-493Y-15834D01*
Y-15762D01*
X-467Y-15633D01*
X-495Y-15497D01*
X-572Y-15381D01*
X-629Y-15343D01*
X-744Y-15228D01*
X-892Y-15142D01*
X-1057Y-15098D01*
X-1229D01*
X-1394Y-15142D01*
X-1542Y-15228D01*
X-1663Y-15349D01*
X-1749Y-15497D01*
X-1793Y-15662D01*
Y-15737D01*
X-1824Y-15765D01*
X-2124Y-15633D01*
Y-14732D01*
X-2171Y-14617D01*
X-3142Y-13647D01*
X-3174Y-13335D01*
X-3068Y-13230D01*
X-3048Y-13209D01*
X-2941Y-13033D01*
X-2702Y-12969D01*
X-1623D01*
Y-11669D01*
X-1808D01*
X-1869Y-11521D01*
X-1996Y-11394D01*
X-2161Y-11326D01*
X-2340D01*
X-2448Y-11370D01*
X-2567Y-11323D01*
X-2614Y-11292D01*
X-2725Y-11189D01*
Y-11081D01*
X-2794Y-10916D01*
X-2920Y-10789D01*
X-3085Y-10721D01*
X-3265D01*
X-3430Y-10789D01*
X-3556Y-10916D01*
X-3625Y-11081D01*
Y-11260D01*
X-3580Y-11369D01*
X-3663Y-11570D01*
X-3737Y-11669D01*
X-4473D01*
Y-11733D01*
X-7782D01*
X-7907Y-11728D01*
X-8128Y-11556D01*
X-8185Y-11499D01*
X-8254Y-11430D01*
X-8419Y-11361D01*
X-8599D01*
X-8764Y-11430D01*
X-8890Y-11556D01*
X-8959Y-11721D01*
Y-11901D01*
X-8890Y-12066D01*
X-8764Y-12192D01*
X-8599Y-12261D01*
X-8419D01*
X-8325Y-12222D01*
X-8104Y-12320D01*
X-8025Y-12388D01*
Y-13300D01*
X-9458D01*
X-13300Y-9458D01*
Y-2794D01*
X-13347Y-2679D01*
X-13462Y-2632D01*
D02*
G37*
G36*
X17616Y-17330D02*
X17436D01*
X17271Y-17399D01*
X17145Y-17525D01*
X17076Y-17690D01*
Y-17870D01*
X17145Y-18035D01*
X17271Y-18161D01*
X17436Y-18230D01*
X17616D01*
X17781Y-18161D01*
X17907Y-18035D01*
X17976Y-17870D01*
Y-17690D01*
X17907Y-17525D01*
X17781Y-17399D01*
X17616Y-17330D01*
D02*
G37*
G36*
X12028Y-17910D02*
X11848D01*
X11683Y-17979D01*
X11557Y-18105D01*
X11488Y-18270D01*
Y-18450D01*
X11557Y-18615D01*
X11683Y-18741D01*
X11848Y-18810D01*
X12028D01*
X12193Y-18741D01*
X12319Y-18615D01*
X12388Y-18450D01*
Y-18270D01*
X12319Y-18105D01*
X12193Y-17979D01*
X12028Y-17910D01*
D02*
G37*
G36*
X-21627Y-21267D02*
X-21807D01*
X-21972Y-21336D01*
X-22098Y-21462D01*
X-22167Y-21627D01*
Y-21807D01*
X-22098Y-21972D01*
X-21972Y-22098D01*
X-21807Y-22167D01*
X-21627D01*
X-21462Y-22098D01*
X-21336Y-21972D01*
X-21267Y-21807D01*
Y-21627D01*
X-21336Y-21462D01*
X-21462Y-21336D01*
X-21627Y-21267D01*
D02*
G37*
G36*
X-18071Y-21394D02*
X-18251D01*
X-18416Y-21463D01*
X-18542Y-21589D01*
X-18611Y-21754D01*
Y-21934D01*
X-18542Y-22099D01*
X-18416Y-22225D01*
X-18251Y-22294D01*
X-18071D01*
X-17906Y-22225D01*
X-17780Y-22099D01*
X-17711Y-21934D01*
Y-21754D01*
X-17780Y-21589D01*
X-17906Y-21463D01*
X-18071Y-21394D01*
D02*
G37*
G36*
X28448Y-14443D02*
X28333Y-14490D01*
X26174Y-16649D01*
X26127Y-16764D01*
Y-23368D01*
X26174Y-23483D01*
X28206Y-25515D01*
X28321Y-25562D01*
X34925D01*
X35040Y-25515D01*
X35087Y-25400D01*
Y-14859D01*
X35040Y-14744D01*
X35040Y-14744D01*
X34786Y-14490D01*
X34671Y-14443D01*
X28448Y-14443D01*
D02*
G37*
G36*
X-28702D02*
X-34925Y-14443D01*
X-35040Y-14490D01*
X-35294Y-14744D01*
X-35341Y-14859D01*
Y-25400D01*
X-35294Y-25515D01*
X-35179Y-25562D01*
X-28575D01*
X-28460Y-25515D01*
X-26428Y-23483D01*
X-26381Y-23368D01*
Y-16764D01*
X-26428Y-16649D01*
X-28587Y-14490D01*
X-28702Y-14443D01*
D02*
G37*
G36*
X-20992Y-25712D02*
X-21172D01*
X-21337Y-25781D01*
X-21463Y-25907D01*
X-21532Y-26072D01*
Y-26252D01*
X-21463Y-26417D01*
X-21337Y-26543D01*
X-21172Y-26612D01*
X-20992D01*
X-20827Y-26543D01*
X-20701Y-26417D01*
X-20632Y-26252D01*
Y-26072D01*
X-20701Y-25907D01*
X-20827Y-25781D01*
X-20992Y-25712D01*
D02*
G37*
G36*
X-22019Y-29703D02*
X-23269D01*
Y-29812D01*
X-23405Y-29903D01*
X-23585D01*
X-23750Y-29972D01*
X-23876Y-30098D01*
X-23945Y-30263D01*
Y-30443D01*
X-23876Y-30608D01*
X-23750Y-30734D01*
X-23585Y-30803D01*
X-23405D01*
X-23269Y-30894D01*
Y-31003D01*
X-22019D01*
Y-29703D01*
D02*
G37*
G36*
X-20865Y-29014D02*
X-21045D01*
X-21210Y-29083D01*
X-21336Y-29209D01*
X-21405Y-29374D01*
Y-29554D01*
X-21505Y-29703D01*
X-21669D01*
Y-31003D01*
X-21108D01*
Y-31242D01*
X-21087Y-31349D01*
X-21026Y-31440D01*
X-20509Y-31957D01*
X-20539Y-32110D01*
X-20701Y-32350D01*
X-21590D01*
X-21705Y-32397D01*
X-21832Y-32524D01*
X-21879Y-32639D01*
Y-33842D01*
X-22467Y-34429D01*
X-22514Y-34544D01*
X-22478Y-34632D01*
X-22476Y-34641D01*
X-22470Y-34652D01*
X-22467Y-34659D01*
X-22427Y-34895D01*
X-22476Y-34968D01*
X-22493Y-35055D01*
X-22476Y-35141D01*
X-22476Y-35141D01*
X-22427Y-35223D01*
Y-35386D01*
X-22476Y-35468D01*
X-22476Y-35468D01*
Y-35468D01*
X-22481Y-35491D01*
X-22493Y-35555D01*
X-22476Y-35641D01*
Y-35641D01*
X-22476Y-35641D01*
X-22427Y-35723D01*
Y-35886D01*
X-22476Y-35968D01*
X-22476Y-35968D01*
X-22481Y-35991D01*
X-22493Y-36055D01*
X-22476Y-36141D01*
X-22476Y-36141D01*
X-22427Y-36223D01*
Y-36386D01*
X-22476Y-36468D01*
X-22476Y-36468D01*
X-22476Y-36468D01*
X-22481Y-36491D01*
X-22493Y-36555D01*
X-22493Y-36555D01*
X-22493Y-36555D01*
X-22476Y-36641D01*
X-22427Y-36714D01*
X-22427Y-36714D01*
X-22387Y-36741D01*
Y-36957D01*
X-22340Y-37072D01*
X-21879Y-37532D01*
Y-39370D01*
X-21832Y-39485D01*
X-20816Y-40501D01*
X-20701Y-40548D01*
X-20315D01*
Y-40576D01*
X-18710D01*
Y-40548D01*
X-17653D01*
X-17626Y-40537D01*
X-17538Y-40501D01*
X-15887Y-38850D01*
X-15840Y-38735D01*
Y-38136D01*
X-15760D01*
Y-36336D01*
X-16139D01*
X-16141Y-36334D01*
X-16256Y-36287D01*
X-17762D01*
X-18010Y-36162D01*
Y-35879D01*
X-17972Y-35788D01*
Y-35026D01*
X-18010Y-34912D01*
D01*
X-18022Y-34879D01*
X-17811Y-34579D01*
X-17145D01*
X-17030Y-34532D01*
X-16034Y-33536D01*
X-15760D01*
Y-31736D01*
X-15950D01*
X-16002Y-31715D01*
X-18415D01*
X-18467Y-31736D01*
X-18560D01*
Y-31792D01*
X-19292Y-32524D01*
X-19339Y-32639D01*
Y-34417D01*
X-19310Y-34488D01*
Y-34562D01*
X-19310D01*
X-19261Y-34862D01*
X-19310Y-34912D01*
X-19310D01*
X-19573Y-34822D01*
X-19574Y-34820D01*
X-19700Y-34694D01*
X-19840Y-34443D01*
X-19826Y-34341D01*
X-19824Y-34328D01*
Y-31966D01*
X-19835Y-31844D01*
X-19684Y-31623D01*
X-19558Y-31497D01*
X-19489Y-31332D01*
Y-31152D01*
X-19398Y-31016D01*
X-19035D01*
Y-29766D01*
X-20268D01*
X-20467Y-29587D01*
X-20505Y-29536D01*
Y-29374D01*
X-20574Y-29209D01*
X-20700Y-29083D01*
X-20865Y-29014D01*
D02*
G37*
G36*
X-26655Y-29817D02*
X-27955D01*
Y-31067D01*
X-27273D01*
X-27240Y-31117D01*
X-27400Y-31417D01*
X-27955D01*
Y-31846D01*
X-28195Y-31991D01*
X-29495D01*
Y-33541D01*
X-28497D01*
X-28470Y-33546D01*
X-28377D01*
X-28337Y-33554D01*
X-27929D01*
X-27672Y-33812D01*
X-27635Y-33866D01*
X-27336Y-34166D01*
Y-35319D01*
X-27600Y-35405D01*
X-28082D01*
Y-36655D01*
X-26811D01*
Y-37155D01*
X-25511D01*
Y-36443D01*
X-25491Y-36439D01*
X-25400Y-36378D01*
X-25357Y-36335D01*
X-24780D01*
X-24672Y-36314D01*
X-24622Y-36280D01*
X-24460D01*
X-24374Y-36263D01*
X-24332Y-36235D01*
X-24331Y-36234D01*
Y-36234D01*
X-24301Y-36214D01*
X-24301Y-36214D01*
X-24252Y-36141D01*
Y-36141D01*
X-24235Y-36055D01*
X-24252Y-35968D01*
Y-35968D01*
X-24252Y-35968D01*
X-24301Y-35886D01*
Y-35723D01*
X-24252Y-35641D01*
X-24252Y-35641D01*
Y-35641D01*
X-24248Y-35619D01*
X-24235Y-35555D01*
X-24252Y-35468D01*
Y-35468D01*
X-24252Y-35468D01*
X-24301Y-35386D01*
Y-35223D01*
X-24252Y-35141D01*
X-24252Y-35141D01*
X-24248Y-35119D01*
X-24235Y-35055D01*
X-24239Y-34776D01*
X-24239Y-34776D01*
Y-34333D01*
X-24288D01*
X-24497Y-34148D01*
X-24519Y-34040D01*
X-24580Y-33949D01*
X-24580Y-33949D01*
X-24940Y-33589D01*
Y-32370D01*
X-24940D01*
Y-32273D01*
X-24940D01*
Y-30973D01*
X-25888D01*
X-25915Y-30968D01*
X-26358D01*
X-26655Y-30670D01*
Y-29817D01*
D02*
G37*
G36*
X17018Y-35525D02*
X16884Y-35525D01*
X13716D01*
X13601Y-35572D01*
X13459Y-35714D01*
X13275D01*
Y-37514D01*
X16075D01*
Y-37500D01*
X16129D01*
X16244Y-37453D01*
X16831Y-36865D01*
X17018D01*
X17032Y-36859D01*
X17275D01*
Y-35892D01*
X17307Y-35814D01*
X17275Y-35559D01*
X17170D01*
X17170Y-35559D01*
X17170D01*
X17094Y-35542D01*
X17018Y-35525D01*
D02*
G37*
G36*
X17526Y-31080D02*
X13335D01*
X13220Y-31127D01*
X13173Y-31242D01*
Y-33909D01*
X13220Y-34024D01*
X13728Y-34532D01*
X13843Y-34579D01*
X17840D01*
X18543Y-35282D01*
X18428Y-35559D01*
X17625D01*
Y-36859D01*
X18578D01*
X18646Y-36859D01*
X18903Y-37131D01*
X18902Y-37217D01*
X18210Y-37909D01*
X17736D01*
X17709Y-37914D01*
X16761D01*
Y-39214D01*
X17983D01*
Y-40232D01*
X17983D01*
X18052Y-40336D01*
X18039Y-40369D01*
Y-40548D01*
X18107Y-40713D01*
X18234Y-40840D01*
X18399Y-40908D01*
X18578D01*
X18744Y-40840D01*
X18870Y-40713D01*
X18939Y-40548D01*
Y-40369D01*
X19030Y-40232D01*
X19233D01*
Y-38932D01*
X19122D01*
X18997Y-38632D01*
X19350Y-38280D01*
X19650Y-38404D01*
Y-38932D01*
X19583D01*
Y-40232D01*
X19691D01*
X19697Y-40247D01*
X19812Y-40294D01*
X21717D01*
X21832Y-40247D01*
X21897Y-40182D01*
X22046D01*
Y-38932D01*
X21983D01*
X21959Y-38874D01*
X21844Y-38827D01*
X21530D01*
X21371Y-38668D01*
Y-38347D01*
X21383Y-38318D01*
Y-38139D01*
X21371Y-38110D01*
Y-37719D01*
X21355Y-37681D01*
X21362Y-37645D01*
X21345Y-37559D01*
X21345Y-37559D01*
X21296Y-37477D01*
Y-37314D01*
X21345Y-37232D01*
X21345Y-37231D01*
Y-37231D01*
X21350Y-37209D01*
X21362Y-37145D01*
X21345Y-37059D01*
Y-37059D01*
X21345Y-37059D01*
X21296Y-36977D01*
Y-36814D01*
X21345Y-36731D01*
X21345Y-36731D01*
Y-36731D01*
X21350Y-36709D01*
X21362Y-36645D01*
X21345Y-36559D01*
Y-36559D01*
X21345Y-36559D01*
X21296Y-36477D01*
Y-36314D01*
X21345Y-36232D01*
X21345Y-36231D01*
Y-36231D01*
X21350Y-36209D01*
X21362Y-36145D01*
X21345Y-36059D01*
X21345Y-36059D01*
X21345Y-36059D01*
X21324Y-35875D01*
X21371Y-35761D01*
Y-35179D01*
X21324Y-35064D01*
X20785Y-34526D01*
X20671Y-34478D01*
X20611D01*
X18704Y-32572D01*
Y-32258D01*
X18657Y-32143D01*
X18187Y-31673D01*
Y-31566D01*
X18079D01*
X17641Y-31127D01*
X17526Y-31080D01*
D02*
G37*
G36*
X16896Y-39700D02*
X16717D01*
X16552Y-39768D01*
X16426Y-39895D01*
X16357Y-40060D01*
Y-40239D01*
X16426Y-40405D01*
X16552Y-40531D01*
X16717Y-40600D01*
X16896D01*
X17062Y-40531D01*
X17188Y-40405D01*
X17257Y-40239D01*
Y-40060D01*
X17188Y-39895D01*
X17062Y-39768D01*
X16896Y-39700D01*
D02*
G37*
G36*
X27992Y-39453D02*
X25548D01*
Y-40753D01*
X27992D01*
Y-39453D01*
D02*
G37*
G36*
X2388Y-22301D02*
X2134D01*
X2019Y-22348D01*
X1972Y-22463D01*
Y-40624D01*
X2019Y-40739D01*
X2134Y-40786D01*
X2388D01*
X2503Y-40739D01*
X2550Y-40624D01*
Y-22463D01*
X2503Y-22348D01*
X2388Y-22301D01*
D02*
G37*
G36*
X-2286D02*
X-2540D01*
X-2655Y-22348D01*
X-2702Y-22463D01*
Y-40624D01*
X-2655Y-40739D01*
X-2540Y-40786D01*
X-2286D01*
X-2171Y-40739D01*
X-2124Y-40624D01*
Y-22463D01*
X-2171Y-22348D01*
X-2286Y-22301D01*
D02*
G37*
G36*
X-32158Y-36435D02*
X-32612D01*
X-33056Y-36523D01*
X-33474Y-36697D01*
X-33851Y-36948D01*
X-34172Y-37269D01*
X-34423Y-37646D01*
X-34597Y-38064D01*
X-34685Y-38508D01*
Y-38962D01*
X-34597Y-39406D01*
X-34423Y-39824D01*
X-34172Y-40201D01*
X-33851Y-40522D01*
X-33474Y-40773D01*
X-33056Y-40947D01*
X-32612Y-41035D01*
X-32158D01*
X-31714Y-40947D01*
X-31296Y-40773D01*
X-30919Y-40522D01*
X-30598Y-40201D01*
X-30347Y-39824D01*
X-30173Y-39406D01*
X-30085Y-38962D01*
Y-38508D01*
X-30173Y-38064D01*
X-30347Y-37646D01*
X-30598Y-37269D01*
X-30919Y-36948D01*
X-31296Y-36697D01*
X-31714Y-36523D01*
X-32158Y-36435D01*
D02*
G37*
%LPD*%
G36*
X26289Y39370D02*
X25781Y38862D01*
X22606D01*
X21971Y39497D01*
Y41910D01*
X26289D01*
Y39370D01*
D02*
G37*
G36*
X-22733Y38735D02*
X-23241Y38227D01*
X-26416D01*
X-27051Y38862D01*
Y41275D01*
X-22733D01*
Y38735D01*
D02*
G37*
G36*
X-25781Y34544D02*
X-22987D01*
Y32766D01*
X-21463Y31242D01*
Y24511D01*
X-22479Y23495D01*
X-24003Y23495D01*
X-25019Y24511D01*
Y28213D01*
X-25908Y29102D01*
Y34671D01*
X-25781Y34544D01*
D02*
G37*
G36*
X25019Y34061D02*
Y28321D01*
X23495Y26797D01*
Y23241D01*
X21971Y21717D01*
X16637D01*
X16002Y22352D01*
Y28321D01*
X18288Y30607D01*
X21209D01*
X22479Y31877D01*
X22479Y34163D01*
X22860Y34544D01*
X24617D01*
X25019Y34061D01*
D02*
G37*
G36*
X17907Y6731D02*
Y5080D01*
X14224D01*
Y5969D01*
X14605Y6350D01*
X15983D01*
X16383Y7112D01*
X17526D01*
X17907Y6731D01*
D02*
G37*
G36*
X-16510Y6096D02*
X-17399Y5207D01*
X-18394D01*
X-19304Y6477D01*
X-20193D01*
Y7366D01*
X-16510D01*
Y6096D01*
D02*
G37*
G36*
X5842Y-2413D02*
X5179D01*
X4191Y-3683D01*
X3937D01*
X3302Y-2540D01*
X4191Y-1651D01*
X5842D01*
Y-2413D01*
D02*
G37*
G36*
X6604Y-4953D02*
X6858Y-5334D01*
X6223Y-5969D01*
X4953D01*
X4826Y-5842D01*
Y-5461D01*
X5334Y-4953D01*
Y-4445D01*
X5537Y-4242D01*
X6604Y-4953D01*
D02*
G37*
G36*
X9652Y-16510D02*
Y-23114D01*
X11176Y-24638D01*
Y-37175D01*
X10317Y-37700D01*
X6204D01*
X4251Y-35747D01*
Y-27492D01*
X3937Y-27178D01*
Y-21107D01*
X4022Y-21058D01*
X4264Y-20816D01*
X4435Y-20520D01*
X4524Y-20189D01*
Y-19847D01*
X4435Y-19516D01*
X4264Y-19220D01*
X4022Y-18978D01*
X3937Y-18929D01*
Y-17802D01*
X4119Y-17620D01*
X4290Y-17323D01*
X4379Y-16993D01*
Y-16650D01*
X4290Y-16320D01*
X4119Y-16023D01*
X3937Y-15841D01*
Y-15113D01*
X4064Y-14986D01*
Y-14725D01*
X6839D01*
X6843Y-14724D01*
X6848Y-14725D01*
X6849Y-14724D01*
X6850Y-14725D01*
X7864Y-14722D01*
X9652Y-16510D01*
D02*
G37*
G36*
X-4572Y-15240D02*
X-4445Y-15367D01*
Y-27432D01*
X-6922Y-29909D01*
Y-37402D01*
X-8001Y-38481D01*
X-12319D01*
X-13716Y-37084D01*
Y-27552D01*
X-10160Y-23368D01*
Y-16764D01*
X-8255Y-14859D01*
X-4572D01*
Y-15240D01*
D02*
G37*
%LPC*%
G36*
X-7345Y-25551D02*
X-7641D01*
X-7931Y-25609D01*
X-8204Y-25722D01*
X-8449Y-25886D01*
X-8658Y-26095D01*
X-8822Y-26340D01*
X-8935Y-26613D01*
X-8993Y-26903D01*
Y-27199D01*
X-8935Y-27489D01*
X-8822Y-27762D01*
X-8658Y-28007D01*
X-8449Y-28216D01*
X-8204Y-28380D01*
X-7931Y-28493D01*
X-7641Y-28551D01*
X-7345D01*
X-7055Y-28493D01*
X-6782Y-28380D01*
X-6604Y-28261D01*
X-6531D01*
X-6247Y-28224D01*
X-6179D01*
X-5848Y-28135D01*
X-5552Y-27964D01*
X-5310Y-27722D01*
X-5139Y-27426D01*
X-5050Y-27095D01*
Y-26753D01*
X-5139Y-26422D01*
X-5310Y-26126D01*
X-5552Y-25884D01*
X-5848Y-25713D01*
X-6179Y-25624D01*
X-6521D01*
X-6823Y-25705D01*
X-7055Y-25609D01*
X-7345Y-25551D01*
D02*
G37*
%LPD*%
G36*
X34671Y-14605D02*
X34925Y-14859D01*
Y-25400D01*
X28321D01*
X26289Y-23368D01*
Y-16764D01*
X28448Y-14605D01*
X34671Y-14605D01*
D02*
G37*
G36*
X-26543Y-16764D02*
Y-23368D01*
X-28575Y-25400D01*
X-35179D01*
Y-14859D01*
X-34925Y-14605D01*
X-28702Y-14605D01*
X-26543Y-16764D01*
D02*
G37*
G36*
X-16002Y-33274D02*
X-17145Y-34417D01*
X-19177Y-34417D01*
Y-32639D01*
X-18415Y-31877D01*
X-16002D01*
Y-33274D01*
D02*
G37*
G36*
X-20574Y-32639D02*
Y-33909D01*
X-21336Y-34671D01*
X-22225D01*
X-22352Y-34544D01*
X-21717Y-33909D01*
Y-32639D01*
X-21590Y-32512D01*
X-20701D01*
X-20574Y-32639D01*
D02*
G37*
G36*
X-18135Y-35788D02*
X-18333Y-35986D01*
X-18841D01*
X-19239Y-36185D01*
X-20092Y-36094D01*
X-19024Y-35026D01*
X-18135D01*
Y-35788D01*
D02*
G37*
G36*
X-16002Y-36703D02*
Y-38735D01*
X-17653Y-40386D01*
X-20701D01*
X-21717Y-39370D01*
Y-37465D01*
X-22225Y-36957D01*
Y-36449D01*
X-16256D01*
X-16002Y-36703D01*
D02*
G37*
G36*
X17145Y-35814D02*
X17018Y-35941D01*
Y-36703D01*
X16764D01*
X16129Y-37338D01*
X13589D01*
X13462Y-35941D01*
X13716Y-35687D01*
X17018D01*
X17145Y-35814D01*
D02*
G37*
G36*
X18542Y-32258D02*
Y-32639D01*
X20544Y-34641D01*
X20671D01*
X21209Y-35179D01*
Y-35761D01*
X19251D01*
X17907Y-34417D01*
X13843D01*
X13335Y-33909D01*
Y-31242D01*
X17526D01*
X18542Y-32258D01*
D02*
G37*
G36*
X21209Y-37719D02*
Y-38735D01*
X21463Y-38989D01*
X21844D01*
Y-40005D01*
X21717Y-40132D01*
X19812D01*
Y-40005D01*
Y-38100D01*
X20320Y-37592D01*
X21082D01*
X21209Y-37719D01*
D02*
G37*
D10*
X12392Y689D02*
G03*
X12215Y762I-177J-177D01*
G01*
X12392Y689D02*
G03*
X12215Y762I-177J-177D01*
G01*
X9144Y12827D02*
X9906D01*
X11833Y9547D02*
Y10900D01*
X9906Y12827D02*
X11833Y10900D01*
X9779Y10414D02*
Y11430D01*
X11557Y8636D02*
X12508D01*
X9779Y10414D02*
X11557Y8636D01*
X-12827Y-2159D02*
X-9779Y-5207D01*
X-8255D01*
X-12827Y-2159D02*
Y5969D01*
X-3429Y23114D02*
X-47Y26496D01*
X-3429Y20574D02*
Y23114D01*
X-10047Y35179D02*
X-10033Y35193D01*
Y37719D01*
X-9144Y38608D01*
X10287D01*
X12446Y36449D01*
X-26686Y-34544D02*
Y-34419D01*
X-27437Y-33668D02*
X-26686Y-34419D01*
X-27437Y-33668D02*
Y-33650D01*
X-27813Y-33274D02*
X-27437Y-33650D01*
X-28337Y-33274D02*
X-27813D01*
X-28345Y-33266D02*
X-28337Y-33274D01*
X-28470Y-33266D02*
X-28345D01*
X-28845Y-32891D02*
X-28470Y-33266D01*
X-28845Y-32891D02*
Y-32766D01*
X-1945Y1230D02*
X12476D01*
X12891Y815D01*
X-2794Y381D02*
X-1945Y1230D01*
X-2159Y1778D02*
X12765D01*
X-3048Y889D02*
X-2159Y1778D01*
X-27432Y-36030D02*
X-27407D01*
X-26932Y-35555D01*
X-24780D01*
X-26686Y-34669D02*
X-26300Y-35055D01*
X-24780D01*
X25797Y-37592D02*
Y-37520D01*
X25422Y-37145D02*
X25797Y-37520D01*
X23649Y-37145D02*
X25422D01*
X25733Y-37403D02*
X26815Y-36322D01*
X23649Y-36145D02*
X24344D01*
X24491Y-35999D02*
Y-35363D01*
X23649Y-36645D02*
X24767D01*
X24344Y-36145D02*
X24491Y-35999D01*
X24767Y-36645D02*
X25246Y-36166D01*
X31385Y-34034D02*
Y-33909D01*
X30861Y-34558D02*
X31385Y-34034D01*
X30861Y-35576D02*
Y-34558D01*
X29085Y-35576D02*
X29210D01*
X28339Y-36322D02*
X29085Y-35576D01*
X26815Y-36322D02*
X28339D01*
X12891Y815D02*
X13698Y127D01*
X-254Y-762D02*
X1270Y762D01*
X12392Y689D02*
X13589Y-508D01*
X1270Y762D02*
X12215D01*
X-2667Y-762D02*
X-254D01*
X-2251Y-11782D02*
Y-11776D01*
X-2413Y-11944D02*
X-2251Y-11782D01*
X13698Y127D02*
X13802Y127D01*
X17851D01*
X12765Y1778D02*
X13812Y731D01*
X-3175Y1524D02*
X-2286Y2413D01*
X13208D02*
X14097Y1524D01*
X-2286Y2413D02*
X13208D01*
X-11938Y-635D02*
Y15240D01*
X-8255Y18923D01*
X-11328Y2111D02*
Y14580D01*
X-7620Y18288D01*
X-11328Y2111D02*
X-11264Y2047D01*
X-1437Y12914D02*
X-1397Y12954D01*
X-1437Y11771D02*
Y12914D01*
X-2667Y10541D02*
X-1437Y11771D01*
X-254Y11811D02*
Y12827D01*
X-2032Y10033D02*
X-254Y11811D01*
X-7620Y18288D02*
X-4445D01*
X18489Y-39701D02*
X18608Y-39582D01*
X18489Y-40458D02*
Y-39701D01*
X-9218Y85D02*
X-9188Y115D01*
X-8382Y-889D02*
Y7620D01*
X-7239Y-2667D02*
Y4054D01*
X-9188Y8084D02*
X-6731Y10541D01*
X-9966Y99D02*
X-9959Y92D01*
X-6731Y10541D02*
X-2667D01*
X-7239Y4054D02*
X-6096Y5197D01*
X-9959Y92D02*
X-9225D01*
X-9188Y115D02*
Y8084D01*
X-8382Y7620D02*
X-5969Y10033D01*
X-9225Y92D02*
X-9218Y85D01*
X3302Y3302D02*
Y6223D01*
X-5080Y18923D02*
X-3429Y20574D01*
X-8255Y18923D02*
X-5080D01*
X-5969Y10033D02*
X-2032D01*
X10541Y6924D02*
X14421D01*
X10033Y6477D02*
X10094D01*
X10541Y6924D01*
X-6600Y131D02*
X-5207Y1524D01*
X-4953Y889D02*
X-3048D01*
X-6096Y-254D02*
X-4953Y889D01*
X-5207Y1524D02*
X-3175D01*
X-6600Y-4449D02*
X-5969Y-5080D01*
X-6600Y-4449D02*
Y131D01*
X-6096Y-3810D02*
X-5334Y-4572D01*
X-6096Y-3810D02*
Y-254D01*
X-4279Y-3549D02*
Y-596D01*
X-3302Y381D01*
X-2794D01*
X-30877Y-34544D02*
X-30845Y-34512D01*
Y-32766D01*
X-14097Y4953D02*
X-14097Y4953D01*
X-14098Y4953D02*
X-14097D01*
X-14540Y5395D02*
X-14098Y4953D01*
X-15437Y5395D02*
X-14540D01*
X-9144Y-889D02*
X-8382D01*
X-2413Y-11944D02*
X-2181Y-12319D01*
X13589Y-508D02*
X18589D01*
X-4445Y18288D02*
X-2667Y20066D01*
X1016Y30742D02*
X2453Y32179D01*
X1016Y25654D02*
Y30742D01*
X-2667Y21971D02*
X1016Y25654D01*
X-2667Y20066D02*
Y21971D01*
X-47Y26496D02*
Y32179D01*
X-21320Y-33430D02*
X-21155Y-33055D01*
X-21320Y-34022D02*
Y-33430D01*
X-21222Y-34140D02*
Y-34022D01*
X-21637Y-34555D02*
X-21222Y-34140D01*
X-21949Y-34555D02*
X-21637D01*
X21396Y-41157D02*
X21771Y-41148D01*
X22225D01*
X15494Y-3937D02*
X18161D01*
X3763Y-6003D02*
X3996Y-5770D01*
X6196Y-3178D02*
X6296D01*
X8255Y-4572D02*
X8509Y-4318D01*
X8255Y-6350D02*
Y-4572D01*
X18250Y-36209D02*
X18314Y-36145D01*
X18608Y-38625D02*
X20088Y-37145D01*
X18608Y-39582D02*
Y-38625D01*
X19870Y-36645D02*
X20818D01*
X18326Y-38189D02*
X19870Y-36645D01*
X17736Y-38189D02*
X18326D01*
X17386Y-38539D02*
X17736Y-38189D01*
X17386Y-38564D02*
Y-38539D01*
X-21044Y-30353D02*
X-20828Y-30569D01*
Y-31242D02*
Y-30569D01*
Y-31242D02*
X-20104Y-31966D01*
Y-34328D02*
Y-31966D01*
X-20955Y-29978D02*
Y-29464D01*
X-21044Y-30353D02*
X-20955Y-29978D01*
X20088Y-37145D02*
X20818D01*
X-20831Y-35055D02*
X-20104Y-34328D01*
X-21949Y-35055D02*
X-20831D01*
X24484Y-35356D02*
Y-34345D01*
Y-35356D02*
X24491Y-35363D01*
X25856Y-35188D02*
X25881D01*
X25506Y-35538D02*
X25856Y-35188D01*
X25506Y-35563D02*
Y-35538D01*
X25246Y-35823D02*
X25506Y-35563D01*
X25246Y-36166D02*
Y-35823D01*
X-25565Y-31623D02*
Y-31598D01*
X-25915Y-31248D02*
X-25565Y-31598D01*
X-26474Y-31248D02*
X-25915D01*
X-27280Y-30442D02*
X-26474Y-31248D01*
X-27305Y-30442D02*
X-27280D01*
X-26161Y-36530D02*
X-25811Y-36180D01*
X-25598D01*
X-25473Y-36055D01*
X-24780D01*
X-3137Y-1232D02*
X-2667Y-762D01*
X-3137Y-1658D02*
Y-1232D01*
X-3166Y-1687D02*
X-3137Y-1658D01*
X13812Y731D02*
X14955D01*
X14986Y762D01*
D11*
X19685Y-6731D02*
Y-6644D01*
X20066Y-6263D01*
Y127D01*
X19304Y889D02*
X20066Y127D01*
X19304Y889D02*
Y4191D01*
Y5461D02*
X20066Y6223D01*
X21600D01*
X19304Y4191D02*
Y5461D01*
X21600Y6223D02*
X22711Y7335D01*
Y8003D02*
X23211Y8503D01*
X22711Y7335D02*
Y8003D01*
D17*
X5461Y-2032D02*
G03*
X5630Y-1781I-222J333D01*
G01*
X5719Y-1532D02*
G03*
X5630Y-1781I837J-437D01*
G01*
X7239Y11938D02*
X10922Y8255D01*
X7239Y11938D02*
Y16891D01*
X-14770Y4026D02*
X-14732Y4064D01*
X-15381Y4026D02*
X-14770D01*
X29210Y-37576D02*
X30861D01*
X-18409Y8569D02*
X-18334Y8644D01*
X-10982Y-910D02*
Y99D01*
Y-1918D02*
Y-910D01*
Y-1918D02*
X-10795Y-2105D01*
X-10982Y-910D02*
X-10181D01*
X-10160Y-889D01*
X-10795Y-2159D02*
Y-2105D01*
X-16802Y9309D02*
Y9597D01*
X-17001Y9796D02*
X-16802Y9597D01*
Y9309D02*
X-16764Y9271D01*
X-19512Y9435D02*
X-19151Y9796D01*
X-19512Y8822D02*
Y9435D01*
X-19787Y8547D02*
X-19512Y8822D01*
X-19812Y8547D02*
X-19787D01*
X16853Y2070D02*
X16891Y2032D01*
X16853Y2070D02*
Y2578D01*
X16764Y2667D02*
X16853Y2578D01*
X16092Y3212D02*
X16110Y3231D01*
Y3624D01*
X17399Y3798D02*
Y3899D01*
X16110Y3624D02*
X16129Y3643D01*
X17399Y3798D02*
X17573Y3624D01*
Y3323D02*
Y3624D01*
Y3323D02*
X17611Y3284D01*
X16129Y3643D02*
Y3899D01*
X14614Y2667D02*
X14673Y2726D01*
Y3840D01*
X14732Y3899D01*
X13843Y8382D02*
X13881Y8344D01*
X14332D01*
X14421Y8255D01*
X14421D02*
Y8824D01*
X14421Y7874D02*
X14421Y7874D01*
X14421Y7874D02*
Y8255D01*
X-15437Y3970D02*
X-15381Y4026D01*
X-15437Y3970D02*
Y4445D01*
Y3495D02*
Y3970D01*
X14371Y8874D02*
X14421Y8824D01*
X-17015Y8572D02*
Y9395D01*
Y8572D02*
X-17012Y8569D01*
X19012Y9119D02*
Y9144D01*
X18717Y8824D02*
X19012Y9119D01*
X16821Y8824D02*
X18717D01*
X18758Y7874D02*
X19012Y7620D01*
X16821Y7874D02*
X18758D01*
X-1524Y-16383D02*
X-1486Y-16345D01*
Y-16253D01*
X-1143Y-15910D01*
Y-15748D01*
X-1028Y-15633D01*
X-824D01*
X11049Y-4699D02*
Y-1397D01*
X3175Y20955D02*
X7239Y16891D01*
X3175Y20955D02*
Y28702D01*
X4953Y30480D01*
Y32179D01*
X2286Y-11193D02*
Y-10287D01*
Y-11193D02*
X2404Y-11311D01*
X2381Y-11288D02*
X2404Y-11311D01*
X1039Y-11288D02*
X2381D01*
X1016Y-11265D02*
X1039Y-11288D01*
X-3798Y-12319D02*
X-3473Y-12619D01*
X-3429Y-12954D01*
X-23495Y-30353D02*
X-22644D01*
X5719Y-1532D02*
X5887Y-1303D01*
X5461Y-2032D02*
X5461Y-2032D01*
X6296Y-3178D02*
X7139Y-2335D01*
Y-1303D01*
X2200Y-7280D02*
X2227D01*
X2376Y-7429D01*
X3763D01*
X-6404Y-26924D02*
X-6350D01*
X-6531Y-27051D02*
X-6404Y-26924D01*
X-7493Y-27051D02*
X-6531D01*
X3996Y-3178D02*
X4096D01*
X-19685Y-28791D02*
X-19385Y-29066D01*
X-19050Y-29210D01*
X-25125Y-36555D02*
X-23983D01*
X-23745Y-36317D01*
D18*
X-30179Y23485D02*
G03*
X-30179Y23485I-1000J0D01*
G01*
X-7679D02*
G03*
X-7679Y23485I-1000J0D01*
G01*
X31717D02*
G03*
X31717Y23485I-1000J0D01*
G01*
X9217D02*
G03*
X9217Y23485I-1000J0D01*
G01*
X-10047Y24853D02*
X-8679Y23485D01*
X-10047Y24853D02*
Y32179D01*
X9906Y32132D02*
X9953Y32179D01*
X9906Y25715D02*
Y32132D01*
X8217Y24026D02*
X9906Y25715D01*
X8217Y23485D02*
Y24026D01*
D24*
X-10260Y-34936D02*
D03*
X7775Y-34314D02*
D03*
D25*
X-17160Y-37236D02*
D03*
Y-32636D02*
D03*
X14675Y-36614D02*
D03*
Y-32014D02*
D03*
D26*
X-18660Y-33937D02*
D03*
X2404Y-12911D02*
D03*
X1016Y-12865D02*
D03*
X16129Y5499D02*
D03*
Y3899D02*
D03*
X-18409Y6969D02*
D03*
Y8569D02*
D03*
X-17012Y6969D02*
D03*
Y8569D02*
D03*
X17399Y5499D02*
D03*
Y3899D02*
D03*
X-19812Y6947D02*
D03*
Y8547D02*
D03*
X14732Y5499D02*
D03*
Y3899D02*
D03*
X1016Y-11265D02*
D03*
X21396Y-39557D02*
D03*
X3763Y-6003D02*
D03*
Y-7603D02*
D03*
X24550Y-32570D02*
D03*
X25881Y-33588D02*
D03*
X21396Y-41157D02*
D03*
X-19685Y-28791D02*
D03*
X-27432Y-37630D02*
D03*
X-26161Y-38130D02*
D03*
X2404Y-11311D02*
D03*
X-18660Y-35537D02*
D03*
X-19685Y-30391D02*
D03*
X-27305Y-32042D02*
D03*
Y-30442D02*
D03*
X-26161Y-36530D02*
D03*
X25881Y-35188D02*
D03*
X-27432Y-36030D02*
D03*
X24550Y-34170D02*
D03*
D27*
X-6225Y-24518D02*
D03*
Y-21518D02*
D03*
Y-18518D02*
D03*
Y-15518D02*
D03*
X-33145D02*
D03*
Y-18518D02*
D03*
Y-21518D02*
D03*
Y-24518D02*
D03*
X-6225Y-9518D02*
D03*
Y-12518D02*
D03*
X-33145D02*
D03*
Y-9518D02*
D03*
X32764Y-15518D02*
D03*
Y-18518D02*
D03*
Y-21518D02*
D03*
Y-24518D02*
D03*
X5844Y-12518D02*
D03*
Y-15518D02*
D03*
Y-18518D02*
D03*
Y-21518D02*
D03*
Y-24518D02*
D03*
X32764Y-9518D02*
D03*
Y-12518D02*
D03*
X5844Y-9518D02*
D03*
D28*
X-24960Y39635D02*
D03*
X23994D02*
D03*
Y32535D02*
D03*
X-24960D02*
D03*
D29*
X-15437Y5395D02*
D03*
Y4445D02*
D03*
Y3495D02*
D03*
X-17837D02*
D03*
Y4445D02*
D03*
Y5395D02*
D03*
X14421Y6924D02*
D03*
Y7874D02*
D03*
Y8824D02*
D03*
X16821D02*
D03*
Y7874D02*
D03*
Y6924D02*
D03*
D30*
X27797Y-37592D02*
D03*
X25797D02*
D03*
X31385Y-33909D02*
D03*
X33385D02*
D03*
X-28686Y-34544D02*
D03*
X-26686D02*
D03*
X-28845Y-32766D02*
D03*
X-30845D02*
D03*
X-30877Y-34544D02*
D03*
X-32877D02*
D03*
X-32837Y-32766D02*
D03*
X-34837D02*
D03*
D31*
X29464Y-35576D02*
D03*
Y-37576D02*
D03*
X31115D02*
D03*
Y-35576D02*
D03*
D32*
X14614Y2667D02*
D03*
X16764D02*
D03*
X-19151Y9796D02*
D03*
X-17001D02*
D03*
D33*
X-23749Y2159D02*
D03*
X31369Y32131D02*
D03*
X-1143Y-15748D02*
D03*
X32645Y-374D02*
D03*
X-7493Y-27051D02*
D03*
X19304Y4191D02*
D03*
X-34925Y508D02*
D03*
X-18669Y12700D02*
D03*
Y15367D02*
D03*
X-16017Y19487D02*
D03*
X-23495Y38989D02*
D03*
Y40513D02*
D03*
X-26416Y39243D02*
D03*
Y40513D02*
D03*
X25527Y39624D02*
D03*
Y41148D02*
D03*
X22606D02*
D03*
Y39878D02*
D03*
X25654Y26543D02*
D03*
X25781Y21971D02*
D03*
X26289Y24257D02*
D03*
X21844Y26416D02*
D03*
X19033Y35481D02*
D03*
X20908Y34174D02*
D03*
X19776Y32192D02*
D03*
X20320Y23368D02*
D03*
X18669D02*
D03*
X17145D02*
D03*
X20320Y25400D02*
D03*
X18669D02*
D03*
X17145D02*
D03*
Y27432D02*
D03*
X18669D02*
D03*
X20320D02*
D03*
X-22479Y24765D02*
D03*
Y26162D02*
D03*
X-24003D02*
D03*
X-24048Y24745D02*
D03*
X29591Y-15487D02*
D03*
X28194Y-16002D02*
D03*
X29591Y-20059D02*
D03*
Y-18535D02*
D03*
Y-17011D02*
D03*
Y-24384D02*
D03*
Y-22991D02*
D03*
Y-21610D02*
D03*
X28112Y-23568D02*
D03*
X27559Y-20447D02*
D03*
Y-18923D02*
D03*
Y-21971D02*
D03*
Y-17399D02*
D03*
X-28448Y-16002D02*
D03*
X-29845Y-17011D02*
D03*
X-27813Y-17399D02*
D03*
X-29845Y-15487D02*
D03*
X-27813Y-18923D02*
D03*
X-29845Y-20059D02*
D03*
X-27813Y-20447D02*
D03*
X-29845Y-18535D02*
D03*
X-27813Y-21971D02*
D03*
X-29845Y-21610D02*
D03*
Y-22991D02*
D03*
X-28366Y-23568D02*
D03*
X-29845Y-24384D02*
D03*
D34*
X-19520Y3048D02*
D03*
X-21120D02*
D03*
X-19520Y4572D02*
D03*
X-21120D02*
D03*
X19012Y9144D02*
D03*
X20612D02*
D03*
X19012Y7620D02*
D03*
X20612D02*
D03*
X20208Y-39582D02*
D03*
X-21073Y-33055D02*
D03*
X-22644Y-30353D02*
D03*
X7313Y-1303D02*
D03*
X5713D02*
D03*
X22822Y-38862D02*
D03*
X28967Y-40103D02*
D03*
X15786Y-38564D02*
D03*
X-22673Y-33055D02*
D03*
X-23965Y-33020D02*
D03*
Y-31623D02*
D03*
X18250Y-36209D02*
D03*
X16650D02*
D03*
X18608Y-39582D02*
D03*
X-21044Y-30353D02*
D03*
X17386Y-38564D02*
D03*
X26173Y-40103D02*
D03*
X24573D02*
D03*
X27367D02*
D03*
X24422Y-38862D02*
D03*
X-25565Y-31623D02*
D03*
Y-33020D02*
D03*
D35*
X-9966Y99D02*
D03*
X-10982D02*
D03*
X-10160Y-889D02*
D03*
X-9144D02*
D03*
D36*
X-2298Y-12319D02*
D03*
X-3798D02*
D03*
D37*
X20818Y-37645D02*
D03*
X-21949Y-34555D02*
D03*
X-24780Y-35055D02*
D03*
Y-35555D02*
D03*
Y-36055D02*
D03*
X-21949Y-35555D02*
D03*
Y-36055D02*
D03*
Y-36555D02*
D03*
Y-35055D02*
D03*
X-24780Y-36555D02*
D03*
X23649Y-35645D02*
D03*
X20818Y-37145D02*
D03*
Y-36645D02*
D03*
X23649Y-37145D02*
D03*
Y-36645D02*
D03*
Y-36145D02*
D03*
X20818D02*
D03*
Y-35645D02*
D03*
D38*
X30164Y-381D02*
D03*
X-32576D02*
D03*
X25464D02*
D03*
X-27876D02*
D03*
D39*
X-24780Y-34555D02*
D03*
X23649Y-37645D02*
D03*
D40*
X21986Y-33020D02*
D03*
X-24114Y-39122D02*
D03*
X-19512D02*
D03*
X17384Y-33020D02*
D03*
D41*
X3996Y-3178D02*
D03*
X6196D02*
D03*
Y-4778D02*
D03*
X3996D02*
D03*
D48*
X29922Y6223D02*
D03*
X-30049Y6229D02*
D03*
D49*
X23622Y3943D02*
D03*
Y8503D02*
D03*
X-23749Y8509D02*
D03*
Y3949D02*
D03*
D50*
X-23364Y-35555D02*
D03*
X22233Y-36645D02*
D03*
D53*
X15453Y36679D02*
D03*
X-15547D02*
D03*
D54*
X32055Y13208D02*
D03*
X22055D02*
D03*
X-22559D02*
D03*
X-32559D02*
D03*
D56*
X10160Y-2159D02*
D03*
X11938D02*
D03*
X-8763Y-3429D02*
D03*
X10922Y8255D02*
D03*
X22098Y3683D02*
D03*
X21209D02*
D03*
X27432Y4445D02*
D03*
X-14732Y4064D02*
D03*
X-10541Y7620D02*
D03*
X27940Y-38608D02*
D03*
X3302Y3302D02*
D03*
X2575Y0D02*
D03*
X32035Y223D02*
D03*
X34320Y2076D02*
D03*
X-8069Y-32360D02*
D03*
X-12383Y-37435D02*
D03*
X-10986Y-36165D02*
D03*
X-9593Y-32360D02*
D03*
X-12383Y-33625D02*
D03*
X-8065Y-37435D02*
D03*
Y-34895D02*
D03*
X-12383D02*
D03*
X-8065Y-33625D02*
D03*
X-10986D02*
D03*
X-9589Y-34895D02*
D03*
X-10986Y-37435D02*
D03*
X-9589D02*
D03*
Y-36165D02*
D03*
X-10990Y-32360D02*
D03*
X-8065Y-36165D02*
D03*
X-10986Y-34895D02*
D03*
X-9589Y-33625D02*
D03*
X-12383Y-36165D02*
D03*
X-12387Y-32360D02*
D03*
X2975Y-12434D02*
D03*
X381Y15367D02*
D03*
X-2794Y12700D02*
D03*
X-10541Y13848D02*
D03*
X-9271Y13970D02*
D03*
X-1524Y15367D02*
D03*
X4311Y14344D02*
D03*
X4318Y13462D02*
D03*
X-3810Y11557D02*
D03*
X-4826D02*
D03*
X9398Y39497D02*
D03*
X1270Y8001D02*
D03*
X-7762Y17074D02*
D03*
X-12827Y7747D02*
D03*
X-10922Y17526D02*
D03*
X3175Y10414D02*
D03*
X-2794Y7620D02*
D03*
X-1407Y7496D02*
D03*
X4318Y-4572D02*
D03*
X-2251Y-11776D02*
D03*
X-12573Y12065D02*
D03*
Y10922D02*
D03*
X-1397Y12954D02*
D03*
X-254Y12827D02*
D03*
X-14732Y-2921D02*
D03*
X14986Y13589D02*
D03*
X3224Y-20018D02*
D03*
X3079Y-16822D02*
D03*
X-11264Y2047D02*
D03*
X17526Y-17780D02*
D03*
X-21082Y-26162D02*
D03*
X-18728Y8951D02*
D03*
X16764Y13335D02*
D03*
X-9779Y11816D02*
D03*
X-13208Y11435D02*
D03*
X18489Y-40458D02*
D03*
X16891Y-14986D02*
D03*
X16002Y-14097D02*
D03*
X19685Y-6731D02*
D03*
X-9218Y85D02*
D03*
X-11938Y-635D02*
D03*
X-6096Y5197D02*
D03*
X3302Y6223D02*
D03*
X-16764Y9271D02*
D03*
X-22098Y9652D02*
D03*
Y8636D02*
D03*
Y7366D02*
D03*
X16891Y2032D02*
D03*
X16092Y3212D02*
D03*
X17611Y3284D02*
D03*
X13843Y8382D02*
D03*
X10033Y6477D02*
D03*
X-5219Y-1205D02*
D03*
X28194Y10414D02*
D03*
X-27178Y-38481D02*
D03*
X-27813D02*
D03*
X-35179Y-31496D02*
D03*
X-14097Y4953D02*
D03*
X9906Y-10541D02*
D03*
Y-9652D02*
D03*
Y-8763D02*
D03*
X10922D02*
D03*
Y-9652D02*
D03*
Y-10541D02*
D03*
X-8382Y-889D02*
D03*
X-7239Y-2667D02*
D03*
X-23241Y9652D02*
D03*
X-24384D02*
D03*
X-23241Y7366D02*
D03*
X-24384D02*
D03*
X24257Y4826D02*
D03*
X23241D02*
D03*
X21209D02*
D03*
X22225D02*
D03*
X-1524Y-16383D02*
D03*
X5228Y-6461D02*
D03*
X10922Y-15439D02*
D03*
X-10795Y-2159D02*
D03*
X-3175Y-11171D02*
D03*
X18589Y-508D02*
D03*
X11049Y-4699D02*
D03*
Y-1397D02*
D03*
X2286Y-10287D02*
D03*
X-3429Y-12954D02*
D03*
X-8509Y-11811D02*
D03*
X20933Y-38228D02*
D03*
X20277Y-38644D02*
D03*
X-21320Y-34022D02*
D03*
X-23495Y-30353D02*
D03*
X22225Y-41148D02*
D03*
X24126Y-31628D02*
D03*
X24888D02*
D03*
X23109Y-33778D02*
D03*
Y-34540D02*
D03*
Y-32254D02*
D03*
Y-33016D02*
D03*
X22483Y-34920D02*
D03*
X21721D02*
D03*
X-25650Y-39111D02*
D03*
X-26412D02*
D03*
X-23745Y-40889D02*
D03*
X-24507D02*
D03*
X-22983Y-37333D02*
D03*
X-23745D02*
D03*
X-22983Y-36317D02*
D03*
X-23745D02*
D03*
X-22983Y-35555D02*
D03*
X-23745D02*
D03*
X-20120Y-3737D02*
D03*
X32512Y8382D02*
D03*
Y7112D02*
D03*
Y5715D02*
D03*
Y4445D02*
D03*
X31242Y8382D02*
D03*
Y7112D02*
D03*
Y5715D02*
D03*
Y4445D02*
D03*
X29972Y8382D02*
D03*
Y7112D02*
D03*
Y5715D02*
D03*
Y4445D02*
D03*
X28702Y8382D02*
D03*
Y7112D02*
D03*
Y5715D02*
D03*
Y4445D02*
D03*
X27432Y5715D02*
D03*
Y7112D02*
D03*
Y8382D02*
D03*
X-21717Y-21717D02*
D03*
X-18161Y-21844D02*
D03*
X15494Y-3937D02*
D03*
X18161D02*
D03*
X17851Y127D02*
D03*
X-6350Y-26924D02*
D03*
X5461Y-2032D02*
D03*
X25881Y-32737D02*
D03*
X22695Y-36614D02*
D03*
Y-37503D02*
D03*
X29945Y-40103D02*
D03*
X22695Y-35725D02*
D03*
X21848Y-35704D02*
D03*
X21819Y-37464D02*
D03*
Y-36575D02*
D03*
X15156Y-38245D02*
D03*
X-16256Y-2540D02*
D03*
X-10541Y-8636D02*
D03*
X-10668Y-10160D02*
D03*
X-10922Y-9398D02*
D03*
X-11303Y-8636D02*
D03*
X-11430Y-10160D02*
D03*
X-11684Y-9398D02*
D03*
X-19050Y-29210D02*
D03*
X-22860Y-32004D02*
D03*
X-23745Y-34793D02*
D03*
X-22983D02*
D03*
X-29443Y-34431D02*
D03*
X6725Y-35598D02*
D03*
X8286Y-37065D02*
D03*
X8325Y-34201D02*
D03*
Y-32931D02*
D03*
Y-35598D02*
D03*
Y-31661D02*
D03*
X9810Y-37065D02*
D03*
X9849Y-35598D02*
D03*
Y-34201D02*
D03*
X5289Y-37065D02*
D03*
X5328Y-35598D02*
D03*
Y-34201D02*
D03*
Y-32931D02*
D03*
X5454Y-31640D02*
D03*
X6686Y-37065D02*
D03*
X6725Y-34201D02*
D03*
Y-31661D02*
D03*
Y-32931D02*
D03*
X9908Y-31650D02*
D03*
Y-33047D02*
D03*
X8509Y-4318D02*
D03*
X8255Y-6350D02*
D03*
X5873Y-3229D02*
D03*
X5201Y-5579D02*
D03*
X23214Y-41373D02*
D03*
X24130Y-41529D02*
D03*
X26670Y-41402D02*
D03*
X11938Y-18360D02*
D03*
X16807Y-40150D02*
D03*
X-4958Y-3172D02*
D03*
X-5334Y-4572D02*
D03*
X-5969Y-5080D02*
D03*
X-19955Y-35075D02*
D03*
X-19939Y-31242D02*
D03*
X-20955Y-29464D02*
D03*
X-27813Y8255D02*
D03*
Y6985D02*
D03*
Y5588D02*
D03*
Y4318D02*
D03*
X-29083Y8255D02*
D03*
Y6985D02*
D03*
Y5588D02*
D03*
Y4318D02*
D03*
X-30353Y8255D02*
D03*
Y6985D02*
D03*
Y5588D02*
D03*
Y4318D02*
D03*
X-31623Y8255D02*
D03*
Y6985D02*
D03*
Y5588D02*
D03*
Y4318D02*
D03*
X-32893D02*
D03*
Y5588D02*
D03*
Y6985D02*
D03*
Y8255D02*
D03*
X-31242Y1397D02*
D03*
X-34290Y-1270D02*
D03*
X-4279Y-3549D02*
D03*
X-3166Y-1687D02*
D03*
X14986Y762D02*
D03*
X14097Y1524D02*
D03*
D57*
X9779Y11430D02*
D03*
X9144Y12827D02*
D03*
X12508Y8636D02*
D03*
X11833Y9547D02*
D03*
X-8255Y-5207D02*
D03*
X-12827Y5969D02*
D03*
X12446Y36449D02*
D03*
X34685Y-31344D02*
D03*
X16637Y18415D02*
D03*
X21590D02*
D03*
X-4318Y7112D02*
D03*
D58*
X-127Y508D02*
D03*
X16383Y6223D02*
D03*
X17526Y6350D02*
D03*
X-17153Y6220D02*
D03*
X-18550D02*
D03*
X4318Y-1016D02*
D03*
X-2159Y-10033D02*
D03*
X2200Y-3980D02*
D03*
Y-2880D02*
D03*
Y-5080D02*
D03*
Y-7280D02*
D03*
Y-6180D02*
D03*
X1100Y-2880D02*
D03*
X0Y-3980D02*
D03*
X1100D02*
D03*
X0Y-2880D02*
D03*
X-1100D02*
D03*
Y-3980D02*
D03*
X-2200Y-2880D02*
D03*
Y-3980D02*
D03*
X1100Y-5080D02*
D03*
X0Y-6180D02*
D03*
X1100D02*
D03*
X0Y-5080D02*
D03*
X-1100D02*
D03*
Y-6180D02*
D03*
X0Y-7280D02*
D03*
X-1100D02*
D03*
X1100D02*
D03*
X-2200Y-6180D02*
D03*
Y-5080D02*
D03*
Y-7280D02*
D03*
D59*
X1651Y12573D02*
D03*
D60*
X-4953Y17526D02*
D03*
X635Y19050D02*
D03*
Y20066D02*
D03*
D62*
X23655Y-37651D02*
X24318D01*
X24484Y-37817D01*
Y-38845D02*
Y-37817D01*
Y-40014D02*
Y-38845D01*
X23649Y-37645D02*
X23655Y-37651D01*
X33385Y-33909D02*
Y-33784D01*
X34685Y-32484D01*
Y-31344D01*
X31914Y102D02*
X32397Y-381D01*
X30314D02*
X30797Y102D01*
X31914D01*
X31914D02*
X32035Y223D01*
X32397Y-381D02*
X32645Y-374D01*
X30314Y-381D02*
X31287Y-1354D01*
X-23749Y1016D02*
Y2413D01*
Y1016D02*
X-20120Y-2613D01*
X-35179Y-32268D02*
X-34928D01*
X-35179D02*
Y-31496D01*
X-34557Y-32639D02*
X-34464D01*
X-34928Y-32268D02*
X-34557Y-32639D01*
X-32877Y-34925D02*
X-32837Y-34885D01*
Y-34631D02*
Y-32766D01*
X-20120Y-3610D02*
Y-2613D01*
X30164Y-381D02*
X30314D01*
X-20438Y-35557D02*
X-19955Y-35075D01*
X-21946Y-35557D02*
X-20438D01*
X-21949Y-35555D02*
X-21946Y-35557D01*
X-19939Y-30645D02*
X-19685Y-30391D01*
X-19939Y-31242D02*
Y-30645D01*
X-33465Y508D02*
X-32576Y-381D01*
X-34925Y508D02*
X-33465D01*
Y-1270D02*
X-32576Y-381D01*
X-34290Y-1270D02*
X-33465D01*
X26173Y-40103D02*
X27367D01*
X24484Y-40014D02*
X24573Y-40103D01*
X-26327Y-33020D02*
X-25565D01*
X-26573Y-32774D02*
X-26327Y-33020D01*
X-26573Y-32774D02*
Y-32749D01*
X-27280Y-32042D02*
X-26573Y-32749D01*
X-27305Y-32042D02*
X-27280D01*
X-25819Y-33109D02*
X-24780Y-34148D01*
Y-34555D02*
Y-34148D01*
D63*
X27940Y-38608D02*
Y-38062D01*
X25881Y-33588D02*
Y-32737D01*
X28967Y-40103D02*
X29945D01*
X-28627Y-34431D02*
X-28486Y-34290D01*
X-29443Y-34431D02*
X-28627D01*
D64*
X-21949Y-36055D02*
X-19403D01*
D65*
X1016Y-12865D02*
X2358D01*
X2404Y-12911D01*
X2581Y-12734D01*
X3175D01*
X23994Y32535D02*
X24398Y32131D01*
X31369D01*
D66*
X-23749Y2413D02*
Y3949D01*
X23211Y8503D02*
X23622D01*
X22081D02*
X23211D01*
X21788Y7870D02*
X22081Y8163D01*
X20837Y7870D02*
X21788D01*
X22081Y8163D02*
Y8653D01*
X20612Y7645D02*
X20837Y7870D01*
X21590Y9144D02*
X22081Y8653D01*
X20612Y9144D02*
X21590D01*
X-23249Y3949D02*
X-22348Y3048D01*
X-21120D01*
X-23249Y3949D02*
X-22626Y4572D01*
X-21120D01*
X-19520D02*
X-19393Y4445D01*
X-17837D01*
X-19520Y3048D02*
X-19393Y3175D01*
X-18307D01*
X-17987Y3495D01*
X-17837D01*
X20612Y7620D02*
Y7645D01*
X6096Y-4778D02*
X6196D01*
X5201Y-5579D02*
X5220Y-5560D01*
X-18685Y-35337D02*
X-18660D01*
D67*
X3996Y-5770D02*
Y-4778D01*
X18314Y-36145D02*
X20818D01*
D68*
X4953Y35179D02*
D03*
X2453D02*
D03*
X-47D02*
D03*
X-2547D02*
D03*
X-5047D02*
D03*
X-7547D02*
D03*
Y32179D02*
D03*
X-5047D02*
D03*
X-2547D02*
D03*
X-47D02*
D03*
X2453D02*
D03*
X4953D02*
D03*
X7453D02*
D03*
X9953D02*
D03*
X-10047Y35179D02*
D03*
X7453D02*
D03*
X9953D02*
D03*
D69*
X-10047Y32179D02*
D03*
D70*
X-31179Y23485D02*
D03*
X-8679D02*
D03*
X30717D02*
D03*
X8217D02*
D03*
D71*
X-32385Y39150D02*
D03*
X31864D02*
D03*
X31623Y-30861D02*
D03*
X-32385Y-38735D02*
D03*
M02*
