M48
;Layer_Color=9474304
;FILE_FORMAT=4:4
METRIC,LZ
;TYPE=PLATED
T01F00S00C0.2000
T02F00S00C0.3000
T03F00S00C0.4000
T04F00S00C0.5000
T05F00S00C0.9000
T06F00S00C1.2000
T07F00S00C2.0000
;TYPE=NON_PLATED
T08F00S00C3.2500
T09F00S00C3.4000
T10F00S00C4.3000
%
T01
X-00022Y-000728
X-00011
Y-000618
X-00022
Y-000508
X-00011
Y-000398
X-00022
X0
X00011
X00022
Y-000508
X00011
Y-000618
X00022
Y-000728
X00011
X0
Y-000618
Y-000508
Y-000288
X00011
X00022
X-00011
X-00022
T02
X0022225Y-0041148
X0023214Y-00413729
X002413Y-0041529
X002667Y-0041402
X002794Y-0038608
X0029945Y-00401029
X0022695Y-00375031
Y-00366141
Y-00357251
X00224829Y-00349197
X00231087Y-00345401
Y-00337781
Y-00330161
Y-00322541
X00241261Y-00316283
X00248881
X0025881Y-00327369
X00217209Y-00349197
X00218481Y-00357038
X00218191Y-00365754
Y-00374644
X00209333Y-00382285
X0020277Y-00386438
X00184886Y-0040458
X0016807Y-00401499
X0015156Y-00382449
X000981Y-0037065
X0009849Y-0035598
Y-0034201
X0009908Y-0033047
Y-003165
X0008325Y-0031661
Y-0032931
Y-0034201
Y-0035598
X0008286Y-0037065
X0006686
X0005289
X0005328Y-0035598
X0006725
Y-0034201
Y-0032931
Y-0031661
X0005454Y-003164
X0005328Y-0032931
Y-0034201
X-00080646Y-0033625
X-00080685Y-003236
X-00095925
X-00095886Y-0033625
Y-0034895
Y-0036165
Y-0037435
X-00109856
Y-0036165
Y-0034895
Y-0033625
X-00109895Y-003236
X-00123865
X-00123826Y-0033625
Y-0034895
Y-0036165
Y-0037435
X-00080646
Y-0036165
Y-0034895
X-000635Y-0026924
X-0001524Y-0016383
X00030791Y-00168215
X00032236Y-0020018
X0002975Y-0012434
X0002286Y-0010287
X-0002159Y-0010033
X-00022506Y-00117757
X-0003175Y-00111705
X-0003429Y-0012954
X-0008509Y-0011811
X-0010668Y-001016
X-001143
X-0011684Y-0009398
X-0010922
X-0010541Y-0008636
X-0011303
X-0008763Y-0003429
X-00049579Y-00031719
X-00042786Y-0003549
X-0005334Y-0004572
X-0005969Y-000508
X0004318Y-0004572
X00052012Y-00055788
X00052282Y-00064607
X0008255Y-000635
X0008509Y-0004318
X0011049Y-0004699
X0010922Y-0008763
Y-0009652
Y-0010541
X0009906
Y-0009652
Y-0008763
X0010922Y-0015439
X0011938Y-001836
X0017526Y-001778
X0016891Y-0014986
X0016002Y-0014097
X0015494Y-0003937
X0018161
X0019685Y-0006731
X00058726Y-00032292
X-00201204Y-00037374
X-0021717Y-0021717
X-0018161Y-0021844
X-0021082Y-0026162
X-0020955Y-0029464
X-001905Y-002921
X-0019939Y-0031242
X-002286Y-0032004
X-0023495Y-0030353
X-00237451Y-00347927
Y-00355547
Y-00363167
X-00229831
Y-00355547
Y-00347927
X-00213203Y-00340221
X-00199552Y-0035075
X-00229831Y-00373327
X-00237451
Y-00408887
X-00245071
X-00256501Y-00391107
X-00264121
X-0027178Y-0038481
X-0027813
X-0029443Y-00344312
X-0035179Y-0031496
X-003429Y-000127
X-0031242Y0001397
X-0031623Y0004318
X-0030353
X-0029083
X-0027813
Y0005588
X-0029083
X-0030353
X-0031623
X-0032893
Y0004318
Y0006985
X-0031623
X-0030353
X-0029083
X-0027813
Y0008255
X-0029083
X-0030353
X-0031623
X-0032893
X-0024384Y0007366
X-0023241
X-0022098
Y0008636
Y0009652
X-0023241
X-0024384
X-00187277Y00089514
X-00185502Y00062199
X-00171532
X-0016764Y0009271
X-0012827Y0007747
X-0010541Y000762
X-0009779Y00118156
X-0009271Y001397
X-0010541Y00138476
X-0012573Y0012065
Y0010922
X-0013208Y00114346
X-0014097Y0004953
X-0014732Y0004064
X-00112641Y00020472
X-0011938Y-0000635
X-0010795Y-0002159
X-0008382Y-0000889
X-00092177Y00000851
X-0007239Y-0002667
X-00052185Y-00012048
X-00031659Y-00016866
X-0000127Y0000508
X0002575Y0
X0004318Y-0001016
X0005461Y-0002032
X001016Y-0002159
X0011049Y-0001397
X0011938Y-0002159
X0014097Y0001524
X0014986Y0000762
X0016891Y0002032
X00176111Y00032842
X00160916Y00032125
X0016383Y0006223
X0017526Y000635
X0021209Y0004826
Y0003683
X0022098
X0018589Y-0000508
X0017851Y0000127
X0013843Y0008382
X0010922Y0008255
X0010033Y0006477
X0003302Y0006223
Y0003302
X000127Y0008001
X-00014068Y00074964
X-0002794Y000762
X-000381Y0011557
X-0004826
X-0002794Y00127
X-0001397Y0012954
X-0000254Y0012827
X0001651Y0012573
X0004318Y0013462
X00043114Y0014344
X0000381Y0015367
X-0001524
X-0004953Y0017526
X-00077619Y00170741
X-0010922Y0017526
X0000635Y001905
Y0020066
X0003175Y0010414
X-0006096Y0005197
X-0014732Y-0002921
X-0016256Y-000254
X0014986Y0013589
X0016764Y0013335
X0022225Y0004826
X0023241
X0024257
X0027432Y0004445
X0028702
X0029972
X0031242
X0032512
Y0005715
X0031242
X0029972
X0028702
X0027432
Y0007112
X0028702
X0029972
X0031242
X0032512
Y0008382
X0031242
X0029972
X0028702
X0027432
X0028194Y0010414
X0032035Y0000223
X003432Y00020763
X0009398Y0039497
T03
X00346851Y-00313445
X-0008255Y-0005207
X-0012827Y0005969
X-0004318Y0007112
X00125078Y0008636
X00118328Y00095468
X0009779Y001143
X0009144Y0012827
X0016637Y0018415
X002159
X0012446Y0036449
T04
X0028112Y-00235681
X0029591Y-00229909
Y-00216099
Y-00200588
Y-00185348
Y-00170108
Y-00154868
X0028194Y-0016002
X0027559Y-0017399
Y-0018923
Y-0020447
Y-0021971
X0029591Y-0024384
X-0028366Y-00235681
X-0029845Y-00229909
Y-00216099
Y-00200588
Y-00185348
Y-00170108
Y-00154868
X-0028448Y-0016002
X-0027813Y-0017399
Y-0018923
Y-0020447
Y-0021971
X-0029845Y-0024384
X-0018669Y00127
Y0015367
X-0022479Y0024765
Y0026162
X-0024003
X-0024048Y00247446
X-00160169Y00194871
X0017145Y0023368
X0018669
X002032
Y00254
X0018669
X0017145
Y0027432
X0018669
X002032
X0021844Y0026416
X00197764Y00321919
X00209081Y00341738
X00190329Y00354808
X0025654Y0026543
X0026289Y0024257
X0025781Y0021971
X0025527Y0039624
Y0041148
X0022606
Y0039878
X-0023495Y0040513
Y0038989
X-0026416Y0039243
Y0040513
T05
X-0032559Y0013208
X-0022559
X0022055
X0032055
T06
X-0010047Y0032179
X-0007547
X-0005047
X-0002547
X-0000047
X0002453
X0004953
X0007453
X0009953
Y0035179
X0007453
X0004953
X0002453
X-0000047
X-0002547
X-0005047
X-0007547
X-0010047
T07
X-00311795Y0023485
X-00086795
X0008217
X0030717
T08
X-0015547Y0036679
X0015453
T09
X0031623Y-0030861
T10
X-0032385Y-0038735
X0031864Y003915
X-0032385
M30
