G04*
G04 #@! TF.GenerationSoftware,Altium Limited,Altium Designer,26.9.1 (10)*
G04*
G04 Layer_Physical_Order=4*
G04 Layer_Color=16711680*
G04 Board_Origin=38150000|32450000*
%FSLAX43Y43*%
%MOMM*%
G71*
G04*
G04 #@! TF.SameCoordinates,BC6CFFDF-CA4D-4417-9368-BABEC544F825*
G04*
G04*
G04 #@! TF.FilePolarity,Positive*
G04*
G01*
G75*
%ADD10C,0.250*%
%ADD11C,0.200*%
%ADD17C,0.400*%
%ADD18C,2.000*%
%ADD26R,1.000X0.950*%
%ADD30R,1.000X1.250*%
%ADD31R,1.250X1.000*%
%ADD32R,0.700X0.700*%
%ADD33C,1.000*%
%ADD34R,0.950X1.000*%
%ADD35R,0.600X0.700*%
%ADD53C,3.250*%
%ADD54C,1.400*%
%ADD56C,0.600*%
%ADD57C,0.800*%
%ADD58C,0.500*%
%ADD59C,0.550*%
%ADD60C,0.450*%
%ADD62C,0.254*%
%ADD63C,0.600*%
%ADD64C,0.300*%
%ADD65C,1.000*%
%ADD66C,0.500*%
%ADD68C,1.800*%
%ADD69R,1.800X1.800*%
%ADD70C,2.000*%
%ADD71R,0.110X0.010*%
%ADD72C,1.300*%
%ADD76R,0.700X0.600*%
G04:AMPARAMS|DCode=77|XSize=2.18mm|YSize=2.12mm|CornerRadius=0.244mm|HoleSize=0mm|Usage=FLASHONLY|Rotation=180.000|XOffset=0mm|YOffset=0mm|HoleType=Round|Shape=RoundedRectangle|*
%AMROUNDEDRECTD77*
21,1,2.180,1.632,0,0,180.0*
21,1,1.692,2.120,0,0,180.0*
1,1,0.488,-0.846,0.816*
1,1,0.488,0.846,0.816*
1,1,0.488,0.846,-0.816*
1,1,0.488,-0.846,-0.816*
%
%ADD77ROUNDEDRECTD77*%
%ADD78R,1.456X1.255*%
G04:AMPARAMS|DCode=79|XSize=1.004mm|YSize=0.872mm|CornerRadius=0.436mm|HoleSize=0mm|Usage=FLASHONLY|Rotation=0.000|XOffset=0mm|YOffset=0mm|HoleType=Round|Shape=RoundedRectangle|*
%AMROUNDEDRECTD79*
21,1,1.004,0.000,0,0,0.0*
21,1,0.132,0.872,0,0,0.0*
1,1,0.872,0.066,0.000*
1,1,0.872,-0.066,0.000*
1,1,0.872,-0.066,0.000*
1,1,0.872,0.066,0.000*
%
%ADD79ROUNDEDRECTD79*%
G04:AMPARAMS|DCode=80|XSize=1.64mm|YSize=0.41mm|CornerRadius=0.051mm|HoleSize=0mm|Usage=FLASHONLY|Rotation=90.000|XOffset=0mm|YOffset=0mm|HoleType=Round|Shape=RoundedRectangle|*
%AMROUNDEDRECTD80*
21,1,1.640,0.308,0,0,90.0*
21,1,1.538,0.410,0,0,90.0*
1,1,0.103,0.154,0.769*
1,1,0.103,0.154,-0.769*
1,1,0.103,-0.154,-0.769*
1,1,0.103,-0.154,0.769*
%
%ADD80ROUNDEDRECTD80*%
%ADD81R,1.499X0.991*%
%ADD82R,1.499X3.277*%
%ADD83R,1.356X1.105*%
%ADD84R,1.220X1.860*%
%ADD85R,1.860X1.220*%
%ADD86R,1.000X0.600*%
%ADD87R,0.700X0.700*%
%ADD88R,5.400X6.200*%
%ADD89R,1.000X1.600*%
%ADD90R,2.790X0.740*%
%ADD91O,0.250X0.800*%
%ADD92O,0.800X0.250*%
%ADD93R,1.450X1.350*%
G04:AMPARAMS|DCode=94|XSize=1.004mm|YSize=3.182mm|CornerRadius=0.437mm|HoleSize=0mm|Usage=FLASHONLY|Rotation=0.000|XOffset=0mm|YOffset=0mm|HoleType=Round|Shape=RoundedRectangle|*
%AMROUNDEDRECTD94*
21,1,1.004,2.308,0,0,0.0*
21,1,0.131,3.182,0,0,0.0*
1,1,0.874,0.065,-1.154*
1,1,0.874,-0.065,-1.154*
1,1,0.874,-0.065,1.154*
1,1,0.874,0.065,1.154*
%
%ADD94ROUNDEDRECTD94*%
%ADD95R,1.004X0.872*%
%ADD96R,5.600X5.600*%
%ADD97R,1.300X1.100*%
%ADD98R,0.800X0.900*%
%ADD99R,0.550X0.550*%
G36*
X35497Y-701D02*
X35219Y-816D01*
X33966Y438D01*
X33730Y618D01*
X33456Y732D01*
X33487Y1030D01*
X33631D01*
X33767Y1057D01*
X33883Y1135D01*
X34375Y1626D01*
X34410D01*
X34575Y1695D01*
X34701Y1821D01*
X34770Y1987D01*
Y2166D01*
X34701Y2331D01*
X34575Y2458D01*
X34410Y2526D01*
X34230D01*
X34065Y2458D01*
X33939Y2331D01*
X33870Y2166D01*
Y2131D01*
X33483Y1744D01*
X33387Y1744D01*
X32821Y2039D01*
X32806Y2044D01*
X32793Y2053D01*
X32740Y2063D01*
X32688Y2078D01*
X32672Y2077D01*
X32656Y2080D01*
X31414D01*
X31359Y2069D01*
X31304Y2063D01*
X31185Y2024D01*
X30885Y2243D01*
Y2884D01*
X31047Y3112D01*
X31150Y3145D01*
X31413D01*
X31744Y3234D01*
X31877Y3311D01*
X32010Y3234D01*
X32341Y3145D01*
X32683D01*
X33014Y3234D01*
X33310Y3405D01*
X33552Y3647D01*
X33723Y3943D01*
X33812Y4274D01*
Y4616D01*
X33723Y4947D01*
X33646Y5080D01*
X33723Y5213D01*
X33812Y5544D01*
Y5886D01*
X33723Y6217D01*
X33610Y6413D01*
X33723Y6610D01*
X33812Y6941D01*
Y7283D01*
X33723Y7614D01*
X33646Y7747D01*
X33723Y7880D01*
X33812Y8211D01*
Y8553D01*
X33723Y8884D01*
X33552Y9180D01*
X33310Y9422D01*
X33014Y9593D01*
X32683Y9682D01*
X32341D01*
X32010Y9593D01*
X31877Y9516D01*
X31744Y9593D01*
X31413Y9682D01*
X31071D01*
X30740Y9593D01*
X30607Y9516D01*
X30474Y9593D01*
X30143Y9682D01*
X29801D01*
X29586Y9624D01*
X29386Y9878D01*
X29405Y9912D01*
X29494Y10243D01*
Y10585D01*
X29405Y10916D01*
X29234Y11212D01*
X29101Y11345D01*
X29225Y11645D01*
X29985D01*
X29993Y11646D01*
X30805D01*
X30938Y11537D01*
X31286Y11351D01*
X31663Y11237D01*
X32055Y11198D01*
X32447Y11237D01*
X32824Y11351D01*
X33172Y11537D01*
X33476Y11787D01*
X33726Y12091D01*
X33912Y12439D01*
X34026Y12816D01*
X34065Y13208D01*
X34026Y13600D01*
X33912Y13977D01*
X33726Y14325D01*
X33476Y14629D01*
X33028Y15077D01*
X32724Y15327D01*
X32376Y15513D01*
X31999Y15627D01*
X31607Y15666D01*
X30499D01*
X30310Y15744D01*
X29985Y15787D01*
X28293D01*
X27968Y15744D01*
X27666Y15619D01*
X27406Y15419D01*
X27206Y15159D01*
X27081Y14857D01*
X27038Y14532D01*
Y12900D01*
X27081Y12575D01*
X27179Y12339D01*
X27048Y12039D01*
X25281D01*
Y11439D01*
X22717D01*
X22417Y11439D01*
X22317Y11439D01*
X19404D01*
Y10897D01*
X19254Y10744D01*
X18954Y10856D01*
Y11189D01*
X17654D01*
X17539Y10953D01*
X15989D01*
Y10859D01*
X15486D01*
Y11109D01*
X14486D01*
Y10859D01*
X11214D01*
X11106Y10838D01*
X11015Y10777D01*
X7504Y7265D01*
X4064D01*
X3957Y7244D01*
X3866Y7183D01*
X3355Y6673D01*
X3212D01*
X3047Y6604D01*
X2921Y6478D01*
X2852Y6313D01*
Y6133D01*
X2921Y5968D01*
X2974Y5914D01*
X2871Y5614D01*
X-5296D01*
X-5403Y5593D01*
X-5494Y5532D01*
X-5537Y5489D01*
X-5752D01*
X-5841Y5578D01*
X-6006Y5647D01*
X-6186D01*
X-6351Y5578D01*
X-6477Y5452D01*
X-6546Y5287D01*
Y5107D01*
X-6765Y4852D01*
X-13600D01*
X-13647Y4900D01*
Y5043D01*
X-13716Y5208D01*
X-13842Y5334D01*
X-14007Y5403D01*
X-14187D01*
X-14352Y5334D01*
X-14478Y5208D01*
X-14547Y5043D01*
Y4863D01*
X-14515Y4786D01*
X-14572Y4665D01*
X-14660Y4549D01*
X-14702Y4514D01*
X-14822D01*
X-14987Y4445D01*
X-15113Y4319D01*
X-15182Y4154D01*
Y3974D01*
X-15113Y3809D01*
X-14987Y3683D01*
X-14822Y3614D01*
X-14642D01*
X-14477Y3683D01*
X-14351Y3809D01*
X-14282Y3974D01*
Y4154D01*
X-14056Y4365D01*
X-13914Y4374D01*
X-13823Y4313D01*
X-13716Y4292D01*
X5345D01*
X8229Y1408D01*
Y-3962D01*
X8128Y-4063D01*
X8059Y-4228D01*
Y-4408D01*
X8128Y-4573D01*
X8254Y-4699D01*
X8419Y-4768D01*
X8599D01*
X8764Y-4699D01*
X8926Y-4933D01*
X8677Y-5181D01*
X8117D01*
X7310Y-4374D01*
X7219Y-4313D01*
X7112Y-4292D01*
X5631D01*
X5507Y-3992D01*
X5819Y-3679D01*
X5962D01*
X6128Y-3611D01*
X6254Y-3484D01*
X6323Y-3319D01*
Y-3140D01*
X6254Y-2974D01*
X6128Y-2848D01*
X5962Y-2779D01*
X5783D01*
X5618Y-2848D01*
X5491Y-2974D01*
X5423Y-3140D01*
Y-3283D01*
X5049Y-3657D01*
X4148D01*
X4049Y-3560D01*
X4042Y-3553D01*
X3940Y-3406D01*
X3955Y-3330D01*
X3934Y-3223D01*
X3889Y-3080D01*
X3933Y-2941D01*
X4044Y-2797D01*
X4240Y-2725D01*
X5000D01*
Y-1725D01*
X4866D01*
X4751Y-1448D01*
X4814Y-1385D01*
X4861Y-1270D01*
Y-381D01*
X4814Y-266D01*
X4734Y-187D01*
Y635D01*
X4687Y750D01*
X4306Y1131D01*
X4191Y1178D01*
X3556D01*
X3441Y1131D01*
X3394Y1016D01*
Y988D01*
X3350D01*
Y-12D01*
X3350D01*
Y-611D01*
X3108Y-854D01*
X2966D01*
X2851Y-901D01*
X2511Y-1242D01*
X2503Y-1261D01*
X2487Y-1273D01*
X2480Y-1316D01*
X2463Y-1356D01*
X2471Y-1375D01*
X2468Y-1396D01*
X2470Y-1403D01*
X2470Y-1405D01*
Y-1955D01*
X2491Y-2062D01*
X2552Y-2153D01*
X2643Y-2214D01*
X2750Y-2235D01*
X2845Y-2330D01*
X2866Y-2437D01*
Y-2437D01*
X2866Y-2437D01*
X2911Y-2580D01*
X2866Y-2723D01*
X2845Y-2830D01*
X2866Y-2937D01*
X2911Y-3080D01*
X2866Y-3223D01*
X2845Y-3330D01*
X2866Y-3437D01*
X2911Y-3580D01*
X2866Y-3723D01*
X2845Y-3830D01*
X2866Y-3937D01*
X2911Y-4080D01*
X2866Y-4223D01*
X2845Y-4330D01*
X2866Y-4437D01*
X2911Y-4580D01*
X2866Y-4723D01*
X2845Y-4830D01*
X2866Y-4937D01*
X2911Y-5080D01*
X2866Y-5223D01*
X2845Y-5330D01*
X2866Y-5437D01*
X2927Y-5528D01*
X3018Y-5589D01*
X3125Y-5610D01*
X3590D01*
X3591Y-5612D01*
X3699Y-5633D01*
X4426D01*
X4534Y-5612D01*
X4625Y-5551D01*
X5323Y-4852D01*
X6996D01*
X7585Y-5442D01*
X7585Y-5442D01*
X7803Y-5659D01*
X7871Y-5705D01*
X7897Y-5758D01*
X7900Y-5771D01*
X7935Y-6034D01*
X7874Y-6095D01*
X7805Y-6260D01*
Y-6351D01*
X7652Y-6473D01*
X7358Y-6342D01*
Y-6083D01*
X6358D01*
X6358Y-6083D01*
Y-6083D01*
X6062Y-6074D01*
X6014Y-6064D01*
X5426Y-6056D01*
X5318Y-6011D01*
X5139D01*
X4973Y-6079D01*
X4953Y-6100D01*
X4939Y-6091D01*
X4939Y-6091D01*
X4939Y-6091D01*
X4885Y-6080D01*
X4832Y-6070D01*
X4399D01*
X4298Y-6050D01*
X3125D01*
X3018Y-6071D01*
X2927Y-6132D01*
X2866Y-6223D01*
X2845Y-6330D01*
X2866Y-6437D01*
X2911Y-6580D01*
X2866Y-6723D01*
X2845Y-6830D01*
X2866Y-6937D01*
X2911Y-7080D01*
X2866Y-7223D01*
X2845Y-7330D01*
X2866Y-7437D01*
X2911Y-7580D01*
X2866Y-7723D01*
X2866Y-7723D01*
Y-7723D01*
X2845Y-7830D01*
X2750Y-7925D01*
X2643Y-7946D01*
X2500Y-7991D01*
X2357Y-7946D01*
X2250Y-7925D01*
X2143Y-7946D01*
X2000Y-7991D01*
X1857Y-7946D01*
X1750Y-7925D01*
X1643Y-7946D01*
X1500Y-7991D01*
X1357Y-7946D01*
X1250Y-7925D01*
X1143Y-7946D01*
X1000Y-7991D01*
X857Y-7946D01*
X750Y-7925D01*
X643Y-7946D01*
X500Y-7991D01*
X357Y-7946D01*
X250Y-7925D01*
X143Y-7946D01*
X0Y-7991D01*
X-143Y-7946D01*
X-250Y-7925D01*
X-357Y-7946D01*
X-500Y-7991D01*
X-643Y-7946D01*
X-750Y-7925D01*
X-857Y-7946D01*
X-1000Y-7991D01*
X-1143Y-7946D01*
X-1250Y-7925D01*
X-1357Y-7946D01*
X-1500Y-7991D01*
X-1643Y-7946D01*
X-1750Y-7925D01*
X-1857Y-7946D01*
X-1948Y-8007D01*
X-2009Y-8098D01*
X-2030Y-8205D01*
Y-9426D01*
X-2009Y-9533D01*
X-1948Y-9624D01*
X-1686Y-9886D01*
X-1677Y-9908D01*
Y-10806D01*
X-2197Y-11326D01*
X-2340D01*
X-2448Y-11370D01*
X-2567Y-11323D01*
X-2614Y-11292D01*
X-2725Y-11189D01*
Y-11081D01*
X-2794Y-10916D01*
X-2920Y-10789D01*
X-2978Y-10765D01*
Y-10059D01*
X-2978D01*
Y-9344D01*
X-2650Y-9015D01*
X-2643Y-9014D01*
X-2552Y-8953D01*
X-2491Y-8862D01*
X-2470Y-8755D01*
Y-8205D01*
X-2491Y-8098D01*
X-2552Y-8007D01*
X-2643Y-7946D01*
X-2750Y-7925D01*
X-2845Y-7830D01*
X-2866Y-7723D01*
Y-7723D01*
X-2866Y-7723D01*
X-2911Y-7580D01*
X-2866Y-7437D01*
X-2845Y-7330D01*
X-2866Y-7223D01*
X-2911Y-7080D01*
X-2866Y-6937D01*
X-2845Y-6830D01*
X-2866Y-6723D01*
X-2927Y-6632D01*
X-2866Y-6437D01*
X-2845Y-6330D01*
X-2866Y-6223D01*
X-2911Y-6080D01*
X-2866Y-5937D01*
X-2845Y-5830D01*
X-2866Y-5723D01*
X-2911Y-5580D01*
X-2866Y-5437D01*
X-2845Y-5330D01*
X-2866Y-5223D01*
X-2911Y-5080D01*
X-2866Y-4937D01*
X-2845Y-4830D01*
X-2866Y-4723D01*
X-2911Y-4580D01*
X-2866Y-4437D01*
X-2845Y-4330D01*
X-2866Y-4223D01*
X-2911Y-4080D01*
X-2866Y-3937D01*
X-2845Y-3830D01*
X-2866Y-3723D01*
X-2911Y-3580D01*
X-2866Y-3437D01*
X-2845Y-3330D01*
X-2866Y-3223D01*
X-2927Y-3132D01*
X-3018Y-3071D01*
X-3125Y-3050D01*
X-4060D01*
X-4060Y-3050D01*
X-4060Y-3050D01*
X-4111Y-3060D01*
X-4167Y-3071D01*
X-4167Y-3071D01*
X-4167Y-3071D01*
X-4209Y-3099D01*
X-4368D01*
X-4533Y-3168D01*
X-4660Y-3294D01*
X-4729Y-3459D01*
Y-3638D01*
X-4660Y-3804D01*
X-4533Y-3930D01*
X-4368Y-3999D01*
X-4189D01*
X-4122Y-3983D01*
X-3931Y-4214D01*
X-3934Y-4223D01*
X-3955Y-4330D01*
X-4191Y-4548D01*
X-4194Y-4550D01*
X-4884D01*
Y-4482D01*
X-4953Y-4317D01*
X-5079Y-4191D01*
X-5244Y-4122D01*
X-5424D01*
X-5589Y-4191D01*
X-5715Y-4317D01*
X-5784Y-4482D01*
X-5879Y-4630D01*
X-6059Y-4630D01*
X-6224Y-4699D01*
X-6350Y-4825D01*
X-6408Y-4963D01*
X-6537Y-5024D01*
X-6719Y-5076D01*
X-6959Y-4837D01*
Y-3023D01*
X-6858Y-2922D01*
X-6789Y-2757D01*
Y-2577D01*
X-6858Y-2412D01*
X-6984Y-2286D01*
X-7149Y-2217D01*
X-7329D01*
X-7494Y-2286D01*
X-7620Y-2412D01*
X-7689Y-2577D01*
Y-2757D01*
X-7620Y-2922D01*
X-7519Y-3023D01*
Y-3840D01*
X-7755Y-3995D01*
X-8755D01*
Y-4165D01*
X-9117D01*
X-9152Y-3879D01*
X-9152Y-3695D01*
Y-2979D01*
X-9575D01*
X-10345Y-2209D01*
Y-2069D01*
X-10412Y-1908D01*
X-10437Y-1780D01*
X-10472Y-1728D01*
Y-1278D01*
X-11372D01*
X-11372Y-1278D01*
X-11583Y-1252D01*
X-11625Y-958D01*
X-11557Y-890D01*
X-11488Y-725D01*
Y-545D01*
X-11557Y-380D01*
X-11658Y-279D01*
Y265D01*
X-10552Y1371D01*
X-8879D01*
X-8407Y899D01*
X-8532Y599D01*
X-8812D01*
X-8812Y599D01*
X-9112Y528D01*
X-9128Y535D01*
X-9307D01*
X-9473Y467D01*
X-9599Y340D01*
X-9668Y175D01*
Y-4D01*
X-9599Y-170D01*
X-9473Y-296D01*
X-9307Y-365D01*
X-9128D01*
X-9112Y-358D01*
X-8812Y-401D01*
X-8791Y-701D01*
X-8832Y-799D01*
Y-979D01*
X-8763Y-1144D01*
X-8637Y-1270D01*
X-8472Y-1339D01*
X-8360D01*
X-8093Y-1420D01*
X-8093Y-1420D01*
X-8093Y-1420D01*
X-7377D01*
X-7193Y-1420D01*
X-6893Y-1420D01*
X-6177Y-1420D01*
X-6136Y-1702D01*
Y-2151D01*
X-4378D01*
X-4153Y-2375D01*
X-4153Y-2375D01*
X-4054Y-2442D01*
X-3937Y-2465D01*
X-3923D01*
X-3901Y-2486D01*
X-3873Y-2528D01*
X-3782Y-2589D01*
X-3775Y-2590D01*
X-3742Y-2613D01*
X-3625Y-2636D01*
X-3625Y-2636D01*
X-3400D01*
X-3283Y-2613D01*
X-3280Y-2610D01*
X-3125D01*
X-3018Y-2589D01*
X-2927Y-2528D01*
X-2866Y-2437D01*
Y-2437D01*
X-2845Y-2330D01*
X-2750Y-2235D01*
X-2643Y-2214D01*
X-2643D01*
X-2643Y-2214D01*
X-2500Y-2169D01*
X-2357Y-2214D01*
X-2250Y-2235D01*
X-2143Y-2214D01*
X-2000Y-2169D01*
X-1857Y-2214D01*
X-1750Y-2235D01*
X-1643Y-2214D01*
X-1500Y-2169D01*
X-1357Y-2214D01*
X-1250Y-2235D01*
X-1143Y-2214D01*
X-1000Y-2169D01*
X-857Y-2214D01*
X-750Y-2235D01*
X-643Y-2214D01*
X-500Y-2169D01*
X-357Y-2214D01*
X-250Y-2235D01*
X-143Y-2214D01*
X0Y-2169D01*
X143Y-2214D01*
X250Y-2235D01*
X357Y-2214D01*
X500Y-2169D01*
X643Y-2214D01*
X750Y-2235D01*
X857Y-2214D01*
X1000Y-2169D01*
X1143Y-2214D01*
X1250Y-2235D01*
X1357Y-2214D01*
X1448Y-2153D01*
X1552D01*
X1643Y-2214D01*
X1750Y-2235D01*
X1857Y-2214D01*
X1948Y-2153D01*
X2009Y-2062D01*
X2030Y-1955D01*
Y-1405D01*
Y1634D01*
X3249Y2852D01*
X3392D01*
X3557Y2921D01*
X3683Y3047D01*
X3752Y3212D01*
Y3392D01*
X3683Y3557D01*
X3557Y3683D01*
X3392Y3752D01*
X3212D01*
X3047Y3683D01*
X2921Y3557D01*
X2852Y3392D01*
Y3249D01*
X1830Y2227D01*
X1631Y2280D01*
X1523Y2344D01*
X1509Y2413D01*
X1448Y2504D01*
X579Y3373D01*
X488Y3434D01*
X381Y3455D01*
X-2286D01*
X-2393Y3434D01*
X-2484Y3373D01*
X-3545Y2312D01*
X-7377D01*
X-8184Y3119D01*
X-8275Y3180D01*
X-8382Y3201D01*
X-11557D01*
X-11664Y3180D01*
X-11755Y3119D01*
X-14570Y305D01*
X-15232D01*
X-15481Y428D01*
Y634D01*
X-17031D01*
Y634D01*
X-17257Y521D01*
X-18557D01*
Y-1029D01*
X-17257D01*
Y-845D01*
X-17031Y-666D01*
X-15481D01*
Y-666D01*
X-15232Y-695D01*
Y-695D01*
X-15193Y-695D01*
X-14232D01*
Y-151D01*
X-13145Y936D01*
X-13068Y924D01*
X-12853Y804D01*
Y-2294D01*
X-13023D01*
Y-2678D01*
X-13323Y-2738D01*
X-13347Y-2679D01*
X-13462Y-2632D01*
X-13716D01*
X-13831Y-2679D01*
X-13878Y-2794D01*
Y-9652D01*
X-13831Y-9767D01*
X-9767Y-13831D01*
X-9652Y-13878D01*
X-6998D01*
X-6993Y-13876D01*
X-6989Y-13878D01*
X-3750D01*
X-2702Y-14926D01*
Y-20574D01*
X-2655Y-20689D01*
X-2528Y-20816D01*
X-2413Y-20863D01*
X-2298Y-20816D01*
X-2171Y-20689D01*
X-2124Y-20574D01*
Y-19662D01*
X-2015Y-19624D01*
X-1824Y-19613D01*
X-1776Y-19683D01*
X129Y-21588D01*
X244Y-21666D01*
X381Y-21693D01*
X3429D01*
X3566Y-21666D01*
X3681Y-21588D01*
X4961Y-20308D01*
X4964Y-20304D01*
X5081Y-20152D01*
X5157Y-19969D01*
X5182Y-19779D01*
X5183Y-19773D01*
X5183Y-16122D01*
X5188Y-16116D01*
X5483Y-15983D01*
X5514Y-16007D01*
X5672Y-16072D01*
X5842Y-16095D01*
X9489D01*
Y-16212D01*
X9535Y-16441D01*
X9665Y-16635D01*
X9859Y-16765D01*
X10088Y-16811D01*
X10218D01*
X10447Y-16765D01*
X10641Y-16635D01*
X10771Y-16441D01*
X10789Y-16353D01*
X11080Y-16332D01*
Y-16332D01*
X12830D01*
Y-14682D01*
X11080D01*
Y-14682D01*
X10817Y-14594D01*
Y-13904D01*
X10771Y-13675D01*
X10641Y-13481D01*
X10447Y-13351D01*
X10218Y-13305D01*
X10151D01*
X10058Y-13151D01*
X10031Y-13011D01*
X13674Y-9773D01*
X13676Y-9769D01*
X13681Y-9767D01*
X13703Y-9713D01*
X13728Y-9662D01*
X13726Y-9657D01*
X13728Y-9652D01*
Y-2794D01*
X13681Y-2679D01*
X13600Y-2646D01*
X13551Y-2599D01*
X13428Y-2332D01*
X13438Y-2312D01*
X14235D01*
X15214Y-3291D01*
Y-3581D01*
X15113Y-3682D01*
X15044Y-3847D01*
Y-4027D01*
X15113Y-4192D01*
X15239Y-4318D01*
X15404Y-4387D01*
X15584D01*
X15870Y-4552D01*
X15931Y-4643D01*
X17328Y-6040D01*
X17419Y-6101D01*
X17526Y-6122D01*
X19254D01*
X19357Y-6422D01*
X19304Y-6476D01*
X19235Y-6641D01*
Y-6821D01*
X19304Y-6986D01*
X19430Y-7112D01*
X19595Y-7181D01*
X19775D01*
X19775Y-7181D01*
X21007Y-8414D01*
Y-11167D01*
X20117Y-12056D01*
X19815D01*
X19717Y-12076D01*
X19635Y-12131D01*
X18666Y-13100D01*
X17926D01*
Y-14300D01*
X17926D01*
X18033Y-14457D01*
Y-15457D01*
X18033D01*
X18006Y-15606D01*
X18006Y-15606D01*
X18006Y-15746D01*
Y-16906D01*
X19256D01*
Y-15606D01*
X19171D01*
X18933Y-15457D01*
Y-14457D01*
X19026Y-14300D01*
X19026D01*
Y-13460D01*
X19921Y-12566D01*
X20223D01*
X20321Y-12547D01*
X20403Y-12491D01*
X21442Y-11452D01*
X21497Y-11370D01*
X21517Y-11272D01*
Y-8308D01*
X21497Y-8210D01*
X21442Y-8128D01*
X20135Y-6821D01*
X20135Y-6821D01*
Y-6641D01*
X20066Y-6476D01*
X20013Y-6422D01*
X20116Y-6122D01*
X29468D01*
X29575Y-6101D01*
X29666Y-6040D01*
X29813Y-5894D01*
X29873Y-5803D01*
X29895Y-5696D01*
Y-5600D01*
X30885D01*
Y-4630D01*
X30885Y-4560D01*
Y-4330D01*
X31115Y-4090D01*
X31545D01*
Y-4193D01*
X32845D01*
Y-2943D01*
X31545D01*
Y-3530D01*
X31097D01*
X30885Y-3317D01*
Y-3060D01*
X30885Y-2990D01*
Y-2020D01*
X27795D01*
Y-2990D01*
X27795Y-3060D01*
Y-3290D01*
X27795Y-3360D01*
Y-4260D01*
X27795Y-4330D01*
Y-4560D01*
X27795Y-4630D01*
Y-5562D01*
X26815D01*
Y-4630D01*
X26815Y-4560D01*
Y-4330D01*
X26815Y-4260D01*
Y-3360D01*
X26815Y-3290D01*
Y-3060D01*
X26815Y-2990D01*
Y-2090D01*
X26815Y-2020D01*
Y-1790D01*
X26815Y-1720D01*
Y-820D01*
X26815Y-750D01*
Y-520D01*
X26815Y-450D01*
Y450D01*
X26815Y520D01*
Y750D01*
X26815Y820D01*
Y1790D01*
X23725D01*
Y1550D01*
X19177D01*
X19070Y1529D01*
X18979Y1468D01*
X18044Y534D01*
X17941Y577D01*
X17761D01*
X17596Y508D01*
X17471Y384D01*
X17460Y384D01*
X17171Y446D01*
Y889D01*
X17150Y996D01*
X17089Y1087D01*
X16895Y1282D01*
X16947Y1464D01*
X17008Y1593D01*
X17146Y1651D01*
X17272Y1777D01*
X17341Y1942D01*
Y2122D01*
X17272Y2287D01*
X17146Y2413D01*
X16981Y2482D01*
X16801D01*
X16636Y2413D01*
X16510Y2287D01*
X16441Y2122D01*
Y2064D01*
X16304Y1872D01*
X16173Y1804D01*
X14453D01*
X14352Y1905D01*
X14187Y1974D01*
X14044D01*
X12726Y3291D01*
Y8131D01*
X12819Y8170D01*
X12974Y8324D01*
X13058Y8527D01*
Y8745D01*
X12974Y8948D01*
X12819Y9102D01*
X12617Y9186D01*
X12603D01*
X12384Y9436D01*
X12383Y9463D01*
Y9656D01*
X12299Y9858D01*
X12159Y9998D01*
X12164Y10073D01*
X12240Y10298D01*
X14486D01*
Y10109D01*
X15486D01*
Y10298D01*
X15989D01*
Y9653D01*
X17539D01*
Y9653D01*
X17654Y9639D01*
Y9639D01*
X17833Y9639D01*
X18954D01*
Y9972D01*
X19254Y10084D01*
X19404Y9931D01*
Y9389D01*
X22317D01*
X22617Y9389D01*
X22717Y9389D01*
X25281D01*
Y8789D01*
X25951D01*
X26132Y8553D01*
Y8211D01*
X26221Y7880D01*
X26298Y7747D01*
X26221Y7614D01*
X26132Y7283D01*
Y6941D01*
X26221Y6610D01*
X26334Y6413D01*
X26221Y6217D01*
X26132Y5886D01*
Y5544D01*
X26221Y5213D01*
X26298Y5080D01*
X26221Y4947D01*
X26132Y4616D01*
Y4274D01*
X26221Y3943D01*
X26392Y3647D01*
X26634Y3405D01*
X26930Y3234D01*
X27261Y3145D01*
X27530D01*
X27626Y3114D01*
X27795Y2886D01*
Y2090D01*
X27795Y2020D01*
Y1790D01*
X27795Y1720D01*
Y750D01*
X30520D01*
X30750Y450D01*
X30735Y394D01*
Y52D01*
X30824Y-279D01*
X30995Y-575D01*
X31237Y-817D01*
X31533Y-988D01*
X31677Y-1027D01*
X31820Y-1170D01*
X32056Y-1351D01*
X32330Y-1464D01*
X32624Y-1503D01*
X32691D01*
X33788Y-2600D01*
Y-6768D01*
X33359Y-7197D01*
X33179Y-7433D01*
X33065Y-7707D01*
X33026Y-8001D01*
Y-27559D01*
X33065Y-27853D01*
X33179Y-28127D01*
X33359Y-28363D01*
X33548Y-28552D01*
Y-29810D01*
X33280Y-29968D01*
X33248Y-29964D01*
X33060Y-29682D01*
X32802Y-29424D01*
X32499Y-29222D01*
X32163Y-29082D01*
X31805Y-29011D01*
X31441D01*
X31083Y-29082D01*
X30747Y-29222D01*
X30444Y-29424D01*
X30186Y-29682D01*
X29984Y-29985D01*
X29844Y-30321D01*
X29773Y-30679D01*
Y-31043D01*
X29844Y-31401D01*
X29984Y-31737D01*
X30186Y-32040D01*
X30444Y-32298D01*
X30747Y-32500D01*
X31083Y-32640D01*
X31441Y-32711D01*
X31805D01*
X32163Y-32640D01*
X32499Y-32500D01*
X32802Y-32298D01*
X33060Y-32040D01*
X33102Y-31977D01*
X33136Y-31966D01*
X33447Y-32001D01*
X33565Y-32204D01*
X33825Y-32465D01*
X34145Y-32649D01*
X34501Y-32744D01*
X34869D01*
X35197Y-32657D01*
X35292Y-32675D01*
X35497Y-32792D01*
Y-43673D01*
X-36006D01*
X-36218Y-43460D01*
X-36193Y-32710D01*
X-35893Y-32585D01*
X-35681Y-32707D01*
X-35350Y-32796D01*
X-35008D01*
X-34677Y-32707D01*
X-34381Y-32536D01*
X-34139Y-32294D01*
X-33968Y-31998D01*
X-33879Y-31667D01*
Y-31325D01*
X-33968Y-30994D01*
X-34042Y-30865D01*
Y-3646D01*
X-33486Y-3090D01*
X-33306Y-2854D01*
X-33192Y-2580D01*
X-33153Y-2286D01*
Y-1901D01*
X-33079Y-1772D01*
X-32990Y-1441D01*
Y-1099D01*
X-33079Y-768D01*
X-33250Y-472D01*
X-33492Y-230D01*
X-33788Y-59D01*
X-34119Y30D01*
X-34461D01*
X-34792Y-59D01*
X-35088Y-230D01*
X-35330Y-472D01*
X-35501Y-768D01*
X-35590Y-1099D01*
Y-1441D01*
X-35501Y-1772D01*
X-35458Y-1847D01*
X-35823Y-2211D01*
X-36122Y-2086D01*
X-36016Y43576D01*
X35497D01*
Y-701D01*
D02*
G37*
G36*
X11209Y10125D02*
X11266Y10028D01*
X11341Y9797D01*
X11283Y9656D01*
Y9437D01*
X11366Y9235D01*
X11521Y9080D01*
X11552Y9068D01*
Y8653D01*
X11493Y8619D01*
X11252Y8561D01*
X11177Y8636D01*
X11012Y8705D01*
X10832D01*
X10667Y8636D01*
X10541Y8510D01*
X10472Y8345D01*
Y8165D01*
X10541Y8000D01*
X10667Y7874D01*
X10692Y7863D01*
Y6846D01*
X10496Y6765D01*
X10392Y6754D01*
X10288Y6858D01*
X10123Y6927D01*
X9943D01*
X9778Y6858D01*
X9652Y6732D01*
X9583Y6567D01*
Y6424D01*
X8774Y5614D01*
X3733D01*
X3630Y5914D01*
X3683Y5968D01*
X3752Y6133D01*
Y6276D01*
X4180Y6705D01*
X7620D01*
X7727Y6726D01*
X7818Y6787D01*
X11165Y10133D01*
X11209Y10125D01*
D02*
G37*
G36*
X23725Y777D02*
Y520D01*
X23495Y280D01*
X19097D01*
X18990Y259D01*
X18981Y253D01*
X18790Y486D01*
X19293Y990D01*
X23513D01*
X23725Y777D01*
D02*
G37*
G36*
X581Y2578D02*
X457Y2278D01*
X-196D01*
Y1278D01*
X215D01*
Y225D01*
X-85Y101D01*
X-727Y742D01*
X-785Y781D01*
X-1584Y1580D01*
X-1675Y1641D01*
X-1782Y1662D01*
X-2978D01*
X-3102Y1962D01*
X-2170Y2895D01*
X265D01*
X581Y2578D01*
D02*
G37*
G36*
X4572Y635D02*
Y-254D01*
X4699Y-381D01*
Y-1270D01*
X4064Y-1905D01*
Y-2159D01*
X3810Y-2413D01*
X3048D01*
Y-2032D01*
X2794D01*
X2626Y-1356D01*
X2966Y-1016D01*
X3175D01*
X3556Y-635D01*
Y1016D01*
X4191D01*
X4572Y635D01*
D02*
G37*
G36*
X13583Y564D02*
X13674Y503D01*
X13781Y482D01*
X14630D01*
X14731Y381D01*
X14896Y312D01*
X15076D01*
X15241Y381D01*
X15302Y442D01*
X15545D01*
X15849Y138D01*
Y-2709D01*
X15549Y-2833D01*
X14549Y-1834D01*
X14458Y-1773D01*
X14351Y-1752D01*
X13081D01*
X12974Y-1773D01*
X12883Y-1834D01*
X12676Y-2040D01*
X12641Y-2044D01*
X12340Y-1953D01*
X12319Y-1904D01*
X12193Y-1778D01*
X12028Y-1709D01*
X11848D01*
X11707Y-1768D01*
X11629Y-1727D01*
X11463Y-1573D01*
X11499Y-1487D01*
Y-1307D01*
X11430Y-1142D01*
X11406Y-1117D01*
Y2332D01*
X11424Y2346D01*
X11706Y2441D01*
X13583Y564D01*
D02*
G37*
G36*
X-10152Y-3556D02*
X-10152Y-3879D01*
X-10152Y-4179D01*
Y-4895D01*
X-9152D01*
Y-4895D01*
X-9041Y-4892D01*
X-8976Y-4949D01*
X-8805Y-5170D01*
Y-5316D01*
X-8721Y-5519D01*
X-8567Y-5673D01*
X-8364Y-5757D01*
X-8146D01*
X-8114Y-5744D01*
X-7330Y-6528D01*
X-7239Y-6589D01*
X-7132Y-6610D01*
X-4389D01*
X-4119Y-6879D01*
X-4119Y-6979D01*
X-4193Y-7047D01*
X-4195Y-7048D01*
X-7780D01*
X-7888Y-7069D01*
X-7980Y-7130D01*
X-7980Y-7130D01*
X-8610Y-7761D01*
X-9061D01*
X-9061Y-8611D01*
X-9061Y-8911D01*
Y-9511D01*
X-9186Y-9759D01*
X-9458D01*
Y-11159D01*
X-7858D01*
Y-9759D01*
X-8086D01*
X-8211Y-9511D01*
X-8211Y-8661D01*
X-8211Y-8160D01*
X-7663Y-7612D01*
X-7267D01*
X-7029Y-7761D01*
X-7029Y-8611D01*
X-7029Y-8911D01*
Y-9511D01*
X-7154Y-9759D01*
X-7404D01*
Y-11159D01*
X-5804D01*
Y-9759D01*
X-6054D01*
X-6179Y-9511D01*
X-6179Y-8661D01*
X-6179Y-8393D01*
X-5899Y-8112D01*
X-3400D01*
X-3390Y-8110D01*
X-3317D01*
X-3102Y-8182D01*
X-3030Y-8397D01*
Y-8603D01*
X-3487Y-9059D01*
X-3878D01*
Y-9994D01*
X-3878D01*
Y-10994D01*
X-3818D01*
X-3766Y-11120D01*
X-3645Y-11277D01*
X-3605Y-11308D01*
X-3556Y-11425D01*
X-3430Y-11552D01*
X-3265Y-11621D01*
X-3085D01*
X-2978Y-11576D01*
X-2858Y-11623D01*
X-2811Y-11654D01*
X-2701Y-11757D01*
Y-11865D01*
X-2632Y-12031D01*
X-2506Y-12157D01*
X-2340Y-12226D01*
X-2161D01*
X-1996Y-12157D01*
X-1869Y-12031D01*
X-1801Y-11865D01*
Y-11722D01*
X-1199Y-11120D01*
X-1138Y-11029D01*
X-1117Y-10922D01*
Y-9883D01*
X-1112D01*
X-1152Y-9678D01*
X-1194Y-9615D01*
X-1268Y-9504D01*
X-1470Y-9287D01*
Y-9274D01*
X-1468Y-9271D01*
X-1250Y-9035D01*
X-1143Y-9014D01*
X-1000Y-8969D01*
X-857Y-9014D01*
X-750Y-9035D01*
X-643Y-9014D01*
X-500Y-8969D01*
X-357Y-9014D01*
X-250Y-9035D01*
X-143Y-9014D01*
X0Y-8969D01*
X143Y-9014D01*
X250Y-9035D01*
X357Y-9014D01*
X500Y-8969D01*
X643Y-9014D01*
X750Y-9035D01*
X960Y-9241D01*
X974Y-9273D01*
X991Y-9358D01*
X1052Y-9449D01*
X1326Y-9723D01*
X1417Y-9784D01*
X1524Y-9805D01*
X2724D01*
Y-10590D01*
X4666D01*
Y-10086D01*
X4878Y-9875D01*
X4902Y-9870D01*
X5500Y-9870D01*
X5800Y-9870D01*
X6516D01*
Y-9727D01*
X6966D01*
X7103Y-9700D01*
X7218Y-9622D01*
X8404Y-8436D01*
X8482Y-8321D01*
X8509Y-8184D01*
Y-8125D01*
X11263Y-5371D01*
X11340Y-5255D01*
X11368Y-5118D01*
Y-5017D01*
X11430Y-4954D01*
X11499Y-4789D01*
Y-4609D01*
X11430Y-4444D01*
X11419Y-4433D01*
X11544Y-4133D01*
X12184D01*
Y-3963D01*
X12192D01*
X12299Y-3942D01*
X12390Y-3881D01*
X12835Y-3437D01*
X12850Y-3414D01*
X13150Y-3489D01*
Y-9452D01*
X11621Y-10813D01*
X11370Y-10635D01*
X11372Y-10631D01*
Y-10451D01*
X11303Y-10286D01*
X11208Y-10097D01*
X11303Y-9907D01*
X11372Y-9742D01*
Y-9562D01*
X11303Y-9397D01*
X11208Y-9208D01*
X11303Y-9018D01*
X11372Y-8853D01*
Y-8673D01*
X11303Y-8508D01*
X11177Y-8382D01*
X11012Y-8313D01*
X10832D01*
X10667Y-8382D01*
X10591Y-8457D01*
X10414Y-8487D01*
X10237Y-8457D01*
X10161Y-8382D01*
X9996Y-8313D01*
X9816D01*
X9651Y-8382D01*
X9525Y-8508D01*
X9456Y-8673D01*
Y-8853D01*
X9525Y-9018D01*
X9620Y-9208D01*
X9525Y-9397D01*
X9456Y-9562D01*
Y-9742D01*
X9525Y-9907D01*
X9620Y-10097D01*
X9525Y-10286D01*
X9456Y-10451D01*
Y-10631D01*
X9525Y-10796D01*
X9651Y-10922D01*
X9816Y-10991D01*
X9996D01*
X10161Y-10922D01*
X10237Y-10847D01*
X10414Y-10817D01*
X10591Y-10847D01*
X10667Y-10922D01*
X10832Y-10991D01*
X10970D01*
X11051Y-11102D01*
X11110Y-11268D01*
X8828Y-13300D01*
X4340D01*
X4179Y-13000D01*
X4181Y-12997D01*
X4227Y-12768D01*
X4181Y-12539D01*
X4052Y-12345D01*
X3858Y-12216D01*
X3629Y-12170D01*
X3497D01*
X3364Y-12197D01*
X3356Y-12179D01*
X3230Y-12053D01*
X3065Y-11984D01*
X2885D01*
X2720Y-12053D01*
X2594Y-12179D01*
X2525Y-12344D01*
Y-12524D01*
X2594Y-12689D01*
X2720Y-12815D01*
X2885Y-12884D01*
X2922D01*
X2945Y-12997D01*
X3074Y-13191D01*
X3082Y-13556D01*
X2021Y-14617D01*
X1974Y-14732D01*
Y-20574D01*
X2021Y-20689D01*
X1887Y-20979D01*
X529D01*
X-1167Y-19283D01*
Y-16663D01*
X-1143Y-16638D01*
X-1074Y-16473D01*
Y-16293D01*
X-1143Y-16128D01*
X-1269Y-16002D01*
X-1434Y-15933D01*
X-1614D01*
X-1779Y-16002D01*
X-1824Y-16046D01*
X-2124Y-15930D01*
Y-14732D01*
X-2171Y-14617D01*
X-3441Y-13347D01*
X-3556Y-13300D01*
X-9458D01*
X-13300Y-9458D01*
Y-3350D01*
X-13023Y-3294D01*
X-13000Y-3294D01*
X-12123D01*
Y-3294D01*
X-12007D01*
Y-3294D01*
X-11107D01*
Y-3025D01*
X-10807Y-2901D01*
X-10152Y-3556D01*
D02*
G37*
G36*
X17596Y-254D02*
X17761Y-323D01*
X17862D01*
X17971Y-361D01*
X18139Y-566D01*
Y-598D01*
X18208Y-763D01*
X18334Y-889D01*
X18499Y-958D01*
X18679D01*
X18844Y-889D01*
X18970Y-763D01*
X19039Y-598D01*
Y-455D01*
X19213Y-280D01*
X23513D01*
X23725Y-493D01*
Y-750D01*
X23725Y-820D01*
Y-1720D01*
X23725Y-1790D01*
Y-2020D01*
X23725Y-2090D01*
Y-2990D01*
X23725Y-3060D01*
Y-3290D01*
X23725Y-3357D01*
X23717Y-3657D01*
X18517D01*
X18416Y-3556D01*
X18251Y-3487D01*
X18071D01*
X17906Y-3556D01*
X17780Y-3682D01*
X17711Y-3847D01*
Y-4027D01*
X17737Y-4089D01*
X17483Y-4259D01*
X17171Y-3948D01*
Y-192D01*
X17460Y-130D01*
X17471Y-130D01*
X17596Y-254D01*
D02*
G37*
G36*
X10496Y6189D02*
X10692Y6108D01*
Y-1117D01*
X10668Y-1142D01*
X10599Y-1307D01*
Y-1487D01*
X10668Y-1652D01*
X10794Y-1778D01*
X10959Y-1847D01*
X11139D01*
X11353Y-1983D01*
X11206Y-2217D01*
X11184D01*
X11184Y-2992D01*
X11082Y-3164D01*
X10932Y-3233D01*
X10041D01*
Y-3817D01*
X9124Y-4735D01*
X8890Y-4573D01*
X8959Y-4408D01*
Y-4228D01*
X8890Y-4063D01*
X8789Y-3962D01*
Y1524D01*
X8768Y1631D01*
X8707Y1722D01*
X5676Y4754D01*
X5681Y4825D01*
X5775Y5054D01*
X8890D01*
X8997Y5075D01*
X9088Y5136D01*
X9980Y6027D01*
X10123D01*
X10288Y6096D01*
X10392Y6200D01*
X10496Y6189D01*
D02*
G37*
G36*
X23725Y-4330D02*
Y-4560D01*
X23495Y-4800D01*
X18062D01*
X17956Y-4664D01*
X18019Y-4513D01*
X18120Y-4387D01*
X18251D01*
X18416Y-4318D01*
X18517Y-4217D01*
X23612D01*
X23725Y-4330D01*
D02*
G37*
G36*
X8368Y-6832D02*
X8495Y-7129D01*
X7900Y-7725D01*
X7822Y-7840D01*
X7795Y-7977D01*
Y-8036D01*
X6818Y-9013D01*
X6516D01*
Y-8870D01*
X5800D01*
X5616Y-8870D01*
X5316Y-8870D01*
X4600D01*
Y-9245D01*
X3052D01*
X2964Y-8998D01*
X2954Y-8945D01*
X3009Y-8862D01*
X3030Y-8755D01*
Y-8397D01*
X3102Y-8182D01*
X3317Y-8110D01*
X3675D01*
X3782Y-8089D01*
X3873Y-8028D01*
X3934Y-7937D01*
X3955Y-7830D01*
X3934Y-7723D01*
X3889Y-7580D01*
X3934Y-7437D01*
X3955Y-7330D01*
X4191Y-7112D01*
X4194Y-7110D01*
X4428D01*
X4882Y-7564D01*
X4973Y-7625D01*
X5080Y-7646D01*
X7239D01*
X7346Y-7625D01*
X7437Y-7564D01*
X8171Y-6831D01*
X8368Y-6832D01*
D02*
G37*
G36*
X9492Y-13892D02*
X9489Y-13904D01*
Y-14784D01*
X6114D01*
X5925Y-14595D01*
X5789Y-14490D01*
X5631Y-14425D01*
X5461Y-14403D01*
X3563D01*
X3491Y-14412D01*
X3347Y-14132D01*
X3600Y-13878D01*
X6839D01*
X6843Y-13876D01*
X6848Y-13878D01*
X6848Y-13878D01*
X6848Y-13878D01*
X8999Y-13874D01*
X9052Y-13852D01*
X9106Y-13833D01*
X9217Y-13734D01*
X9492Y-13892D01*
D02*
G37*
G36*
X2865Y-15158D02*
X2912Y-15192D01*
X2928Y-15218D01*
X2930Y-15228D01*
X2936Y-15244D01*
X2945Y-15287D01*
X2969Y-15323D01*
X2995Y-15386D01*
X3099Y-15522D01*
X3235Y-15626D01*
X3393Y-15691D01*
X3563Y-15714D01*
X4469D01*
X4469Y-19474D01*
X4466Y-19773D01*
X4455Y-19802D01*
X4245Y-20015D01*
X3281Y-20979D01*
X2639D01*
X2505Y-20689D01*
X2552Y-20574D01*
Y-15130D01*
X2613Y-15078D01*
X2865Y-15158D01*
D02*
G37*
%LPC*%
G36*
X22692Y41798D02*
X22520D01*
X22355Y41754D01*
X22207Y41668D01*
X22086Y41547D01*
X22000Y41399D01*
X21956Y41234D01*
Y41062D01*
X22000Y40897D01*
X22086Y40749D01*
X22133Y40702D01*
X22179Y40513D01*
X22133Y40324D01*
X22086Y40277D01*
X22000Y40129D01*
X21956Y39964D01*
Y39792D01*
X22000Y39627D01*
X22086Y39479D01*
X22207Y39358D01*
X22355Y39272D01*
X22520Y39228D01*
X22692D01*
X22857Y39272D01*
X23005Y39358D01*
X23126Y39479D01*
X23212Y39627D01*
X23256Y39792D01*
Y39964D01*
X23212Y40129D01*
X23126Y40277D01*
X23079Y40324D01*
X23033Y40513D01*
X23079Y40702D01*
X23126Y40749D01*
X23212Y40897D01*
X23256Y41062D01*
Y41234D01*
X23212Y41399D01*
X23126Y41547D01*
X23005Y41668D01*
X22857Y41754D01*
X22692Y41798D01*
D02*
G37*
G36*
X9488Y39947D02*
X9308D01*
X9143Y39878D01*
X9017Y39752D01*
X8948Y39587D01*
Y39407D01*
X9017Y39242D01*
X9143Y39116D01*
X9308Y39047D01*
X9383D01*
Y39042D01*
X10683D01*
Y39942D01*
X9500D01*
X9488Y39947D01*
D02*
G37*
G36*
X25613Y41798D02*
X25441D01*
X25276Y41754D01*
X25128Y41668D01*
X25007Y41547D01*
X24921Y41399D01*
X24877Y41234D01*
Y41062D01*
X24921Y40897D01*
X25007Y40749D01*
X25128Y40628D01*
X25276Y40542D01*
X25280Y40541D01*
Y40231D01*
X25276Y40230D01*
X25128Y40144D01*
X25007Y40023D01*
X24921Y39875D01*
X24877Y39710D01*
Y39538D01*
X24921Y39373D01*
X25007Y39225D01*
X25128Y39104D01*
X25276Y39018D01*
X25441Y38974D01*
X25613D01*
X25778Y39018D01*
X25926Y39104D01*
X26047Y39225D01*
X26133Y39373D01*
X26177Y39538D01*
Y39710D01*
X26133Y39875D01*
X26047Y40023D01*
X25926Y40144D01*
X25778Y40230D01*
X25774Y40231D01*
Y40541D01*
X25778Y40542D01*
X25926Y40628D01*
X26047Y40749D01*
X26133Y40897D01*
X26177Y41062D01*
Y41234D01*
X26133Y41399D01*
X26047Y41547D01*
X25926Y41668D01*
X25778Y41754D01*
X25613Y41798D01*
D02*
G37*
G36*
X-26330Y41163D02*
X-26502D01*
X-26667Y41119D01*
X-26815Y41033D01*
X-26936Y40912D01*
X-27022Y40764D01*
X-27066Y40599D01*
Y40427D01*
X-27022Y40262D01*
X-26936Y40114D01*
X-26889Y40067D01*
X-26843Y39878D01*
X-26889Y39689D01*
X-26936Y39642D01*
X-27022Y39494D01*
X-27066Y39329D01*
Y39157D01*
X-27022Y38992D01*
X-26936Y38844D01*
X-26815Y38723D01*
X-26667Y38637D01*
X-26502Y38593D01*
X-26330D01*
X-26165Y38637D01*
X-26017Y38723D01*
X-25896Y38844D01*
X-25810Y38992D01*
X-25766Y39157D01*
Y39329D01*
X-25810Y39494D01*
X-25896Y39642D01*
X-25943Y39689D01*
X-25989Y39878D01*
X-25943Y40067D01*
X-25896Y40114D01*
X-25810Y40262D01*
X-25766Y40427D01*
Y40599D01*
X-25810Y40764D01*
X-25896Y40912D01*
X-26017Y41033D01*
X-26165Y41119D01*
X-26330Y41163D01*
D02*
G37*
G36*
X-23409D02*
X-23581D01*
X-23746Y41119D01*
X-23894Y41033D01*
X-24015Y40912D01*
X-24101Y40764D01*
X-24145Y40599D01*
Y40427D01*
X-24101Y40262D01*
X-24015Y40114D01*
X-23894Y39993D01*
X-23746Y39907D01*
X-23742Y39906D01*
Y39596D01*
X-23746Y39595D01*
X-23894Y39509D01*
X-24015Y39388D01*
X-24101Y39240D01*
X-24145Y39075D01*
Y38903D01*
X-24101Y38738D01*
X-24015Y38590D01*
X-23894Y38469D01*
X-23746Y38383D01*
X-23581Y38339D01*
X-23409D01*
X-23244Y38383D01*
X-23096Y38469D01*
X-22975Y38590D01*
X-22889Y38738D01*
X-22845Y38903D01*
Y39075D01*
X-22889Y39240D01*
X-22975Y39388D01*
X-23096Y39509D01*
X-23244Y39595D01*
X-23248Y39596D01*
Y39906D01*
X-23244Y39907D01*
X-23096Y39993D01*
X-22975Y40114D01*
X-22889Y40262D01*
X-22845Y40427D01*
Y40599D01*
X-22889Y40764D01*
X-22975Y40912D01*
X-23096Y41033D01*
X-23244Y41119D01*
X-23409Y41163D01*
D02*
G37*
G36*
X32091Y41450D02*
X31637D01*
X31193Y41362D01*
X30775Y41188D01*
X30398Y40937D01*
X30077Y40616D01*
X29826Y40239D01*
X29652Y39821D01*
X29564Y39377D01*
Y38923D01*
X29652Y38479D01*
X29826Y38061D01*
X30077Y37684D01*
X30398Y37363D01*
X30775Y37112D01*
X31193Y36938D01*
X31637Y36850D01*
X32091D01*
X32535Y36938D01*
X32953Y37112D01*
X33330Y37363D01*
X33651Y37684D01*
X33902Y38061D01*
X34076Y38479D01*
X34164Y38923D01*
Y39377D01*
X34076Y39821D01*
X33902Y40239D01*
X33651Y40616D01*
X33330Y40937D01*
X32953Y41188D01*
X32535Y41362D01*
X32091Y41450D01*
D02*
G37*
G36*
X-32158D02*
X-32612D01*
X-33056Y41362D01*
X-33474Y41188D01*
X-33851Y40937D01*
X-34172Y40616D01*
X-34423Y40239D01*
X-34597Y39821D01*
X-34685Y39377D01*
Y38923D01*
X-34597Y38479D01*
X-34423Y38061D01*
X-34172Y37684D01*
X-33851Y37363D01*
X-33474Y37112D01*
X-33056Y36938D01*
X-32612Y36850D01*
X-32158D01*
X-31714Y36938D01*
X-31296Y37112D01*
X-30919Y37363D01*
X-30598Y37684D01*
X-30347Y38061D01*
X-30173Y38479D01*
X-30085Y38923D01*
Y39377D01*
X-30173Y39821D01*
X-30347Y40239D01*
X-30598Y40616D01*
X-30919Y40937D01*
X-31296Y41188D01*
X-31714Y41362D01*
X-32158Y41450D01*
D02*
G37*
G36*
X17808Y40020D02*
X16558D01*
Y38720D01*
X17409D01*
X17752Y38377D01*
Y35359D01*
X17460Y35067D01*
X16868D01*
X16762Y35067D01*
X16734Y35104D01*
X16651Y35367D01*
X16832Y35548D01*
X17026Y35838D01*
X17160Y36161D01*
X17228Y36504D01*
Y36854D01*
X17160Y37197D01*
X17026Y37520D01*
X16832Y37811D01*
X16584Y38058D01*
X16294Y38252D01*
X15971Y38386D01*
X15799Y38420D01*
X15828Y38720D01*
X16208D01*
Y40020D01*
X14958D01*
Y39652D01*
X13111D01*
X13111Y39652D01*
X13003Y39631D01*
X12911Y39570D01*
X12334Y38992D01*
X11433D01*
Y38092D01*
X12733D01*
Y38593D01*
X13228Y39088D01*
X14958D01*
Y38720D01*
X15078D01*
X15107Y38420D01*
X14935Y38386D01*
X14612Y38252D01*
X14321Y38058D01*
X14074Y37811D01*
X13880Y37520D01*
X13746Y37197D01*
X13678Y36854D01*
Y36504D01*
X13746Y36161D01*
X13880Y35838D01*
X13885Y35831D01*
X13652Y35640D01*
X12983Y36308D01*
X12996Y36340D01*
Y36558D01*
X12912Y36761D01*
X12758Y36915D01*
X12555Y36999D01*
X12337D01*
X12134Y36915D01*
X11980Y36761D01*
X11896Y36558D01*
Y36340D01*
X11980Y36137D01*
X12011Y36106D01*
X11887Y35806D01*
X11131D01*
X11024Y35785D01*
X10793Y35824D01*
X10598Y36019D01*
X10358Y36157D01*
X10091Y36229D01*
X9815D01*
X9548Y36157D01*
X9308Y36019D01*
X9113Y35824D01*
X8975Y35584D01*
X8903Y35317D01*
Y35041D01*
X8975Y34774D01*
X9060Y34625D01*
X8952Y34377D01*
X8899Y34325D01*
X8579Y34325D01*
X8573D01*
X8573D01*
X8509Y34325D01*
X8506Y34324D01*
X8358Y34470D01*
X8313Y34569D01*
X8431Y34774D01*
X8503Y35041D01*
Y35317D01*
X8431Y35584D01*
X8293Y35824D01*
X8098Y36019D01*
X7858Y36157D01*
X7810Y36170D01*
Y36556D01*
X7783Y36693D01*
X7705Y36808D01*
X7504Y37010D01*
X7804Y37310D01*
X9383D01*
Y37142D01*
X10683D01*
Y38042D01*
X9383D01*
Y37874D01*
X7687D01*
X7579Y37853D01*
X7487Y37792D01*
X7487Y37792D01*
X7009Y37314D01*
X6124D01*
Y37607D01*
X4874D01*
Y36550D01*
X4824Y36512D01*
X4732Y36535D01*
X4524Y36736D01*
Y37607D01*
X3274D01*
Y36740D01*
X2727Y36193D01*
X2591Y36229D01*
X2315D01*
X2048Y36157D01*
X1808Y36019D01*
X1613Y35824D01*
X1475Y35584D01*
X1403Y35317D01*
Y35041D01*
X1475Y34774D01*
X1613Y34534D01*
X1808Y34339D01*
X2048Y34201D01*
X2315Y34129D01*
X2591D01*
X2858Y34201D01*
X3098Y34339D01*
X3293Y34534D01*
X3431Y34774D01*
X3503Y35041D01*
Y35317D01*
X3431Y35584D01*
X3293Y35824D01*
X3258Y35859D01*
X3707Y36307D01*
X4207D01*
X4293Y36063D01*
X4296Y36007D01*
X4113Y35824D01*
X3975Y35584D01*
X3903Y35317D01*
Y35041D01*
X3975Y34774D01*
X4113Y34534D01*
X4308Y34339D01*
X4548Y34201D01*
X4815Y34129D01*
X5091D01*
X5358Y34201D01*
X5598Y34339D01*
X5793Y34534D01*
X5931Y34774D01*
X6003Y35041D01*
Y35317D01*
X5931Y35584D01*
X5793Y35824D01*
X5610Y36007D01*
X5613Y36063D01*
X5699Y36307D01*
X6124D01*
Y36600D01*
X6808D01*
X6991Y36416D01*
X6949Y36101D01*
X6808Y36019D01*
X6613Y35824D01*
X6475Y35584D01*
X6403Y35317D01*
Y35041D01*
X6475Y34774D01*
X6613Y34534D01*
X6808Y34339D01*
X7048Y34201D01*
X7315Y34129D01*
X7591D01*
X7858Y34201D01*
X8094Y34337D01*
X8105Y34334D01*
X8347Y34164D01*
X8347Y34163D01*
X8347Y34093D01*
Y33195D01*
X8225Y33109D01*
X8047Y33049D01*
X7858Y33157D01*
X7591Y33229D01*
X7315D01*
X7048Y33157D01*
X6808Y33019D01*
X6613Y32824D01*
X6475Y32584D01*
X6403Y32317D01*
Y32041D01*
X6475Y31774D01*
X6466Y31749D01*
X6397Y31720D01*
X6349Y31605D01*
X6349Y30902D01*
X6344Y30798D01*
X6303Y30590D01*
X6223Y30397D01*
X6105Y30220D01*
X6035Y30143D01*
X4982Y29090D01*
X4978Y29080D01*
X4968Y29075D01*
X4811Y28872D01*
X4807Y28856D01*
X4794Y28845D01*
X4565Y28385D01*
X4564Y28369D01*
X4554Y28356D01*
X4419Y27860D01*
X4421Y27844D01*
X4413Y27829D01*
X4378Y27317D01*
X4383Y27301D01*
X4379Y27285D01*
X4410Y27041D01*
X4410Y23396D01*
X4381Y23179D01*
X4384Y23169D01*
X4380Y23158D01*
X4380Y22701D01*
X4384Y22690D01*
X4381Y22680D01*
X4441Y22226D01*
X4446Y22216D01*
X4445Y22205D01*
X4563Y21763D01*
X4570Y21754D01*
X4570Y21743D01*
X4745Y21320D01*
X4753Y21312D01*
X4754Y21301D01*
X4983Y20905D01*
X4992Y20898D01*
X4995Y20887D01*
X5273Y20524D01*
X5283Y20519D01*
X5287Y20508D01*
X5610Y20185D01*
X5621Y20180D01*
X5626Y20171D01*
X5989Y19892D01*
X6000Y19889D01*
X6007Y19880D01*
X6403Y19651D01*
X6414Y19650D01*
X6422Y19642D01*
X6845Y19467D01*
X6856Y19467D01*
X6865Y19460D01*
X7307Y19341D01*
X7318Y19343D01*
X7328Y19337D01*
X7554Y19307D01*
X7565Y19310D01*
X7576Y19306D01*
X10826D01*
X10841Y19312D01*
X10858Y19309D01*
X11348Y19407D01*
X11362Y19416D01*
X11379D01*
X11458Y19449D01*
X11628Y19195D01*
X8946Y16512D01*
X8885Y16421D01*
X8864Y16314D01*
Y13306D01*
X8832Y13293D01*
X8678Y13139D01*
X8594Y12936D01*
Y12718D01*
X8678Y12515D01*
X8832Y12361D01*
X9035Y12277D01*
X9143D01*
X9379Y12029D01*
X9375Y11804D01*
X9313Y11742D01*
X9229Y11539D01*
Y11321D01*
X9313Y11118D01*
X9467Y10964D01*
X9670Y10880D01*
X9888D01*
X10091Y10964D01*
X10245Y11118D01*
X10329Y11321D01*
Y11539D01*
X10245Y11742D01*
X10091Y11896D01*
X10059Y11909D01*
Y12412D01*
X10078Y12440D01*
X10099Y12547D01*
Y13107D01*
X10078Y13214D01*
X10059Y13242D01*
Y15759D01*
X14676Y20376D01*
X14737Y20467D01*
X14758Y20574D01*
Y34417D01*
X14737Y34524D01*
X14676Y34615D01*
X14414Y34878D01*
X14605Y35111D01*
X14612Y35106D01*
X14935Y34972D01*
X15278Y34904D01*
X15628D01*
X15971Y34972D01*
X16294Y35106D01*
X16337Y35135D01*
X16609Y34956D01*
X16609Y34835D01*
X16609Y34835D01*
X16609Y34830D01*
Y34096D01*
X16604Y34069D01*
X16604Y34069D01*
Y33563D01*
X15739D01*
Y31663D01*
X17039D01*
Y33164D01*
X17086Y33210D01*
X17086Y33210D01*
X17147Y33302D01*
X17168Y33410D01*
X17168Y33410D01*
Y33767D01*
X17859D01*
Y34446D01*
X17882Y34461D01*
X17956Y34450D01*
X18193Y34308D01*
X18201Y34247D01*
X18209Y34227D01*
Y33767D01*
X18791D01*
X18834Y33761D01*
X18877Y33767D01*
X19459D01*
Y34119D01*
X19493Y34164D01*
X19789Y34232D01*
X19807Y34232D01*
X19865Y34216D01*
X20293Y33788D01*
Y32899D01*
X19828D01*
X19658Y32877D01*
X19500Y32811D01*
X19364Y32707D01*
X19313Y32655D01*
X19287Y32621D01*
X19256Y32591D01*
X19235Y32554D01*
X19209Y32520D01*
X19192Y32480D01*
X19171Y32443D01*
X19160Y32401D01*
X19143Y32362D01*
X19138Y32319D01*
X19126Y32277D01*
Y32234D01*
X19121Y32192D01*
X19126Y32149D01*
Y32106D01*
X19138Y32065D01*
X19143Y32022D01*
X19160Y31982D01*
X19171Y31941D01*
X19192Y31904D01*
X19209Y31864D01*
X19235Y31830D01*
X19256Y31793D01*
X19287Y31762D01*
X19313Y31728D01*
X19347Y31702D01*
X19377Y31672D01*
X19414Y31650D01*
X19449Y31624D01*
X19488Y31608D01*
X19525Y31586D01*
X19567Y31575D01*
X19607Y31559D01*
X19649Y31553D01*
X19691Y31542D01*
X19734D01*
X19776Y31536D01*
X19819Y31542D01*
X19862D01*
X19903Y31553D01*
X19946Y31559D01*
X19986Y31575D01*
X20027Y31586D01*
X20030Y31588D01*
X20880D01*
X21049Y31610D01*
X21177Y31663D01*
X21599D01*
Y32270D01*
X21605Y32313D01*
X21599Y32356D01*
Y32570D01*
X21605Y32613D01*
Y34133D01*
X21582Y34303D01*
X21517Y34461D01*
X21413Y34596D01*
X21372Y34637D01*
X21338Y34664D01*
X21307Y34694D01*
X21270Y34715D01*
X21236Y34742D01*
X21196Y34758D01*
X21159Y34779D01*
X21156Y34780D01*
X20043Y35893D01*
X19907Y35997D01*
X19749Y36062D01*
X19580Y36085D01*
X19287D01*
X19284Y36086D01*
X19242Y36098D01*
X19203Y36114D01*
X19160Y36120D01*
X19118Y36131D01*
X19075D01*
X19033Y36136D01*
X18990Y36131D01*
X18947D01*
X18906Y36120D01*
X18863Y36114D01*
X18823Y36098D01*
X18782Y36086D01*
X18745Y36065D01*
X18705Y36049D01*
X18671Y36022D01*
X18634Y36001D01*
X18616Y35984D01*
X18549Y35988D01*
X18468Y36013D01*
X18316Y36116D01*
Y38494D01*
X18316Y38494D01*
X18295Y38602D01*
X18234Y38694D01*
X18234Y38694D01*
X17808Y39119D01*
Y40020D01*
D02*
G37*
G36*
X-15372Y38454D02*
X-15722D01*
X-16065Y38386D01*
X-16388Y38252D01*
X-16678Y38058D01*
X-16926Y37811D01*
X-17120Y37520D01*
X-17254Y37197D01*
X-17322Y36854D01*
Y36504D01*
X-17254Y36161D01*
X-17120Y35838D01*
X-16926Y35548D01*
X-16678Y35300D01*
X-16388Y35106D01*
X-16065Y34972D01*
X-15722Y34904D01*
X-15372D01*
X-15029Y34972D01*
X-14706Y35106D01*
X-14415Y35300D01*
X-14168Y35548D01*
X-13974Y35838D01*
X-13840Y36161D01*
X-13772Y36504D01*
Y36854D01*
X-13840Y37197D01*
X-13974Y37520D01*
X-14168Y37811D01*
X-14415Y38058D01*
X-14706Y38252D01*
X-15029Y38386D01*
X-15372Y38454D01*
D02*
G37*
G36*
X91Y36229D02*
X-185D01*
X-452Y36157D01*
X-692Y36019D01*
X-887Y35824D01*
X-1025Y35584D01*
X-1097Y35317D01*
Y35041D01*
X-1025Y34774D01*
X-887Y34534D01*
X-692Y34339D01*
X-452Y34201D01*
X-185Y34129D01*
X91D01*
X358Y34201D01*
X598Y34339D01*
X793Y34534D01*
X931Y34774D01*
X1003Y35041D01*
Y35317D01*
X931Y35584D01*
X793Y35824D01*
X598Y36019D01*
X358Y36157D01*
X91Y36229D01*
D02*
G37*
G36*
X-7409D02*
X-7685D01*
X-7952Y36157D01*
X-8192Y36019D01*
X-8387Y35824D01*
X-8525Y35584D01*
X-8597Y35317D01*
Y35041D01*
X-8525Y34774D01*
X-8387Y34534D01*
X-8192Y34339D01*
X-7952Y34201D01*
X-7685Y34129D01*
X-7409D01*
X-7142Y34201D01*
X-6902Y34339D01*
X-6707Y34534D01*
X-6569Y34774D01*
X-6497Y35041D01*
Y35317D01*
X-6569Y35584D01*
X-6707Y35824D01*
X-6902Y36019D01*
X-7142Y36157D01*
X-7409Y36229D01*
D02*
G37*
G36*
X-2409D02*
X-2685D01*
X-2952Y36157D01*
X-3192Y36019D01*
X-3387Y35824D01*
X-3525Y35584D01*
X-3597Y35317D01*
Y35041D01*
X-3525Y34774D01*
X-3505Y34738D01*
X-4240Y34003D01*
X-4347Y34024D01*
X-4402Y34339D01*
X-4207Y34534D01*
X-4069Y34774D01*
X-3997Y35041D01*
Y35317D01*
X-4069Y35584D01*
X-4207Y35824D01*
X-4402Y36019D01*
X-4642Y36157D01*
X-4909Y36229D01*
X-5185D01*
X-5452Y36157D01*
X-5692Y36019D01*
X-5887Y35824D01*
X-6025Y35584D01*
X-6097Y35317D01*
Y35041D01*
X-6025Y34774D01*
X-5887Y34534D01*
X-5692Y34339D01*
X-5452Y34201D01*
X-5422Y34192D01*
X-5397Y34106D01*
X-5398Y33875D01*
X-5431Y33853D01*
X-6397Y32887D01*
X-6490Y32861D01*
X-6736Y32863D01*
X-6751Y32868D01*
X-6902Y33019D01*
X-7142Y33157D01*
X-7409Y33229D01*
X-7685D01*
X-7952Y33157D01*
X-8174Y33030D01*
X-8253Y33050D01*
X-8474Y33162D01*
Y33909D01*
X-8521Y34024D01*
X-8636Y34071D01*
X-9266D01*
X-9349Y34234D01*
X-9370Y34371D01*
X-9207Y34534D01*
X-9069Y34774D01*
X-8997Y35041D01*
Y35317D01*
X-9069Y35584D01*
X-9207Y35824D01*
X-9402Y36019D01*
X-9642Y36157D01*
X-9909Y36229D01*
X-10185D01*
X-10452Y36157D01*
X-10692Y36019D01*
X-10887Y35824D01*
X-11025Y35584D01*
X-11026Y35582D01*
X-11128Y35491D01*
X-11309Y35406D01*
X-11324Y35401D01*
X-11526Y35397D01*
X-11541Y35390D01*
X-11557Y35393D01*
X-11952Y35307D01*
X-11966Y35298D01*
X-11983Y35298D01*
X-12353Y35136D01*
X-12365Y35124D01*
X-12381Y35121D01*
X-12713Y34890D01*
X-12722Y34876D01*
X-12737Y34869D01*
X-13018Y34578D01*
X-13024Y34563D01*
X-13037Y34553D01*
X-13256Y34213D01*
X-13259Y34197D01*
X-13270Y34185D01*
X-13418Y33809D01*
X-13418Y33792D01*
X-13427Y33778D01*
X-13498Y33380D01*
X-13495Y33364D01*
X-13501Y33349D01*
X-13497Y33148D01*
X-13497Y21971D01*
X-13497Y21721D01*
X-13491Y21705D01*
X-13494Y21689D01*
X-13397Y21198D01*
X-13387Y21185D01*
Y21168D01*
X-13196Y20706D01*
X-13184Y20694D01*
X-13181Y20678D01*
X-12903Y20262D01*
X-12889Y20252D01*
X-12883Y20237D01*
X-12529Y19883D01*
X-12514Y19877D01*
X-12504Y19863D01*
X-12088Y19585D01*
X-12072Y19582D01*
X-12060Y19570D01*
X-11598Y19379D01*
X-11581D01*
X-11568Y19369D01*
X-11077Y19272D01*
X-11061Y19275D01*
X-11045Y19269D01*
X-10795Y19269D01*
X-8008Y19269D01*
X-7783Y19269D01*
X-7773Y19273D01*
X-7762Y19270D01*
X-7315Y19329D01*
X-7306Y19334D01*
X-7294Y19333D01*
X-6859Y19449D01*
X-6850Y19456D01*
X-6839D01*
X-6423Y19629D01*
X-6415Y19637D01*
X-6404Y19638D01*
X-6014Y19863D01*
X-6007Y19872D01*
X-5996Y19875D01*
X-5639Y20149D01*
X-5633Y20159D01*
X-5623Y20163D01*
X-5304Y20482D01*
X-5300Y20492D01*
X-5290Y20498D01*
X-5016Y20855D01*
X-5013Y20866D01*
X-5004Y20873D01*
X-4779Y21263D01*
X-4778Y21274D01*
X-4770Y21282D01*
X-4597Y21698D01*
Y21709D01*
X-4590Y21718D01*
X-4474Y22153D01*
X-4475Y22165D01*
X-4470Y22174D01*
X-4411Y22621D01*
X-4414Y22632D01*
X-4410Y22642D01*
X-4410Y22867D01*
X-4410Y27142D01*
X-4410Y27142D01*
X-4410Y27392D01*
X-4416Y27407D01*
X-4413Y27424D01*
X-4510Y27914D01*
X-4519Y27928D01*
Y27945D01*
X-4711Y28407D01*
X-4723Y28419D01*
X-4726Y28435D01*
X-4943Y28761D01*
X-4710Y28952D01*
X-3201Y27443D01*
Y22087D01*
X-6339Y18949D01*
X-11684D01*
X-11791Y18928D01*
X-11882Y18867D01*
X-14295Y16454D01*
X-14356Y16363D01*
X-14377Y16256D01*
Y13578D01*
X-14803Y13152D01*
X-14864Y13061D01*
X-14885Y12954D01*
Y8128D01*
X-14864Y8021D01*
X-14803Y7930D01*
X-13224Y6350D01*
X-13293Y6281D01*
X-13377Y6078D01*
Y5860D01*
X-13293Y5657D01*
X-13139Y5503D01*
X-12936Y5419D01*
X-12718D01*
X-12515Y5503D01*
X-12361Y5657D01*
X-12277Y5860D01*
Y6078D01*
X-12361Y6281D01*
X-12515Y6435D01*
X-12603Y6471D01*
X-12608Y6497D01*
X-12669Y6588D01*
X-13149Y7069D01*
X-12979Y7323D01*
X-12917Y7297D01*
X-12737D01*
X-12572Y7366D01*
X-12446Y7492D01*
X-12377Y7657D01*
Y7837D01*
X-12335Y7899D01*
X-11900D01*
Y9251D01*
X-11823Y9283D01*
X-11287Y9819D01*
X-10987Y9695D01*
Y8061D01*
X-10987Y8061D01*
X-10970Y7761D01*
X-10991Y7710D01*
Y7530D01*
X-10922Y7365D01*
X-10796Y7239D01*
X-10631Y7170D01*
X-10451D01*
X-10286Y7239D01*
X-10160Y7365D01*
X-10091Y7530D01*
Y7710D01*
X-10112Y7761D01*
X-9967Y8035D01*
X-9937Y8061D01*
X-9331D01*
Y9463D01*
Y9998D01*
X-9244D01*
X-9130Y10045D01*
X-9082Y10160D01*
Y12165D01*
X-9130Y12280D01*
X-9664Y12815D01*
X-9779Y12862D01*
X-12573D01*
X-12688Y12815D01*
X-13704Y11799D01*
X-13751Y11684D01*
Y9525D01*
X-13704Y9410D01*
X-13577Y9283D01*
X-13556Y9275D01*
Y8158D01*
X-13557Y7899D01*
X-13557Y7899D01*
X-13979D01*
X-14325Y8244D01*
Y12838D01*
X-13899Y13264D01*
X-13838Y13355D01*
X-13817Y13462D01*
Y16140D01*
X-11568Y18389D01*
X-6223D01*
X-6116Y18410D01*
X-6025Y18471D01*
X-2723Y21773D01*
X-2662Y21864D01*
X-2641Y21971D01*
Y27559D01*
X-2662Y27666D01*
X-2723Y27757D01*
X-5863Y30898D01*
X-5848Y31124D01*
X-5558Y31261D01*
X-5452Y31201D01*
X-5185Y31129D01*
X-4909D01*
X-4642Y31201D01*
X-4598Y31226D01*
X-1090Y27717D01*
Y22352D01*
X-2926Y20516D01*
X-3421D01*
Y19800D01*
X-3421Y19616D01*
X-3421Y19415D01*
X-3529Y19307D01*
X-3666Y19280D01*
X-3781Y19202D01*
X-4089Y18894D01*
X-4167Y18779D01*
X-4194Y18642D01*
Y18534D01*
X-4387D01*
Y17882D01*
X-4442Y17850D01*
X-4687Y17790D01*
X-4741Y17844D01*
X-4878Y17901D01*
X-5028D01*
X-5165Y17844D01*
X-5271Y17738D01*
X-5328Y17601D01*
Y17518D01*
X-5403D01*
Y16534D01*
X-5403Y16518D01*
X-5419Y16225D01*
X-5441Y16220D01*
X-5532Y16160D01*
X-6167Y15525D01*
X-6228Y15434D01*
X-6249Y15326D01*
Y10287D01*
X-6228Y10180D01*
X-6167Y10089D01*
X-5834Y9755D01*
X-5834Y9202D01*
X-5834Y8902D01*
Y8186D01*
X-5070D01*
X-4828Y8075D01*
X-4818Y7893D01*
Y7342D01*
X-4868Y7221D01*
Y7003D01*
X-4784Y6800D01*
X-4630Y6646D01*
X-4427Y6562D01*
X-4209D01*
X-4006Y6646D01*
X-3852Y6800D01*
X-3768Y7003D01*
X-3768Y7170D01*
X-3544Y7170D01*
X-2809D01*
Y6703D01*
X-1585D01*
X-1509Y6703D01*
Y6703D01*
X-1285D01*
Y6703D01*
X15D01*
Y7551D01*
X1008D01*
X1008Y7551D01*
Y7551D01*
X1360Y7551D01*
X1525Y7620D01*
X1651Y7746D01*
X1720Y7911D01*
Y8091D01*
X1651Y8256D01*
X1525Y8382D01*
X1360Y8451D01*
X1260D01*
X1144Y8504D01*
X1008Y8704D01*
Y9133D01*
X1074Y9406D01*
X1283Y9406D01*
X1974D01*
Y9617D01*
X2167Y9837D01*
X3167D01*
Y9964D01*
X3265D01*
X3430Y10033D01*
X3556Y10159D01*
X3625Y10324D01*
Y10504D01*
X3556Y10669D01*
X3430Y10795D01*
X3265Y10864D01*
X3167Y11124D01*
Y11753D01*
X2167D01*
X2073Y12014D01*
Y12104D01*
X2058Y12182D01*
X2020Y12238D01*
Y12354D01*
X2076Y12488D01*
Y12658D01*
X2011Y12814D01*
X1892Y12933D01*
X1736Y12998D01*
X1566D01*
X1410Y12933D01*
X1291Y12814D01*
X1226Y12658D01*
X926Y12495D01*
X780Y12519D01*
X750Y12562D01*
Y13145D01*
X1905Y14299D01*
X2294D01*
Y14155D01*
X2344D01*
Y13216D01*
X3060D01*
X3244Y13216D01*
X3544Y13216D01*
X3933D01*
X3937Y13207D01*
X4063Y13081D01*
X4228Y13012D01*
X4408D01*
X4573Y13081D01*
X4699Y13207D01*
X4768Y13372D01*
Y13552D01*
X4699Y13717D01*
X4600Y13900D01*
X4693Y14089D01*
X4761Y14254D01*
Y14434D01*
X4693Y14599D01*
X4566Y14725D01*
X4401Y14794D01*
X4310Y14885D01*
X4310Y15055D01*
X4310Y15355D01*
Y16071D01*
X4100D01*
Y16273D01*
X4073Y16409D01*
X3995Y16525D01*
X3879Y16642D01*
Y17076D01*
X3929D01*
Y17792D01*
X3929Y17976D01*
X3929Y18276D01*
Y18992D01*
X3786D01*
Y20955D01*
X3759Y21092D01*
X3681Y21207D01*
X1627Y23262D01*
Y28362D01*
X1600Y28499D01*
X1522Y28614D01*
X-1594Y31730D01*
X-1569Y31774D01*
X-1497Y32041D01*
Y32317D01*
X-1569Y32584D01*
X-1707Y32824D01*
X-1902Y33019D01*
X-2142Y33157D01*
X-2409Y33229D01*
X-2685D01*
X-2952Y33157D01*
X-3192Y33019D01*
X-3387Y32824D01*
X-3525Y32584D01*
X-3597Y32317D01*
Y32041D01*
X-3525Y31774D01*
X-3387Y31534D01*
X-3192Y31339D01*
X-2952Y31201D01*
X-2685Y31129D01*
X-2409D01*
X-2142Y31201D01*
X-2098Y31226D01*
X913Y28214D01*
Y23114D01*
X940Y22977D01*
X1018Y22862D01*
X3072Y20807D01*
Y18992D01*
X2929D01*
Y18276D01*
X2929Y18092D01*
X2929Y17792D01*
Y17410D01*
X2863Y17137D01*
X2261Y17137D01*
X2221Y17282D01*
X2454Y17534D01*
X2609D01*
Y18534D01*
X2609D01*
Y18550D01*
X2609D01*
Y19550D01*
X2609D01*
Y19566D01*
X2609D01*
Y20566D01*
X1893D01*
X1709Y20566D01*
X1409Y20566D01*
X693D01*
Y20441D01*
X560D01*
X423Y20384D01*
X317Y20278D01*
X260Y20141D01*
Y19991D01*
X317Y19854D01*
X371Y19800D01*
X311Y19555D01*
X279Y19500D01*
X-627D01*
Y18799D01*
X-627Y18600D01*
X-897Y18528D01*
X-1458D01*
Y18528D01*
X-1574D01*
Y18528D01*
X-2151D01*
X-2421Y18600D01*
X-2421Y18813D01*
X-2421Y19500D01*
X-2421Y20011D01*
X-481Y21951D01*
X-404Y22067D01*
X-376Y22204D01*
Y27865D01*
X-404Y28002D01*
X-481Y28118D01*
X-4094Y31730D01*
X-4069Y31774D01*
X-3997Y32041D01*
Y32317D01*
X-4069Y32584D01*
X-4207Y32824D01*
X-4402Y33019D01*
X-4498Y33075D01*
X-4418Y33375D01*
X-4191D01*
X-4084Y33396D01*
X-3993Y33457D01*
X-3140Y34309D01*
X-2952Y34201D01*
X-2685Y34129D01*
X-2409D01*
X-2142Y34201D01*
X-1902Y34339D01*
X-1707Y34534D01*
X-1569Y34774D01*
X-1497Y35041D01*
Y35317D01*
X-1569Y35584D01*
X-1707Y35824D01*
X-1902Y36019D01*
X-2142Y36157D01*
X-2409Y36229D01*
D02*
G37*
G36*
X-34022Y33112D02*
X-34251D01*
X-34281Y33100D01*
X-34313D01*
X-34525Y33012D01*
X-34548Y32989D01*
X-34578Y32977D01*
X-34740Y32815D01*
X-34752Y32785D01*
X-34775Y32762D01*
X-34863Y32551D01*
Y32518D01*
X-34875Y32489D01*
Y32259D01*
X-34863Y32230D01*
Y32197D01*
X-34775Y31986D01*
X-34752Y31963D01*
X-34740Y31933D01*
X-34578Y31771D01*
X-34548Y31759D01*
X-34525Y31736D01*
X-34313Y31648D01*
X-34281D01*
X-34251Y31636D01*
X-34022D01*
X-33992Y31648D01*
X-33960D01*
X-33748Y31736D01*
X-33725Y31759D01*
X-33696Y31771D01*
X-33534Y31933D01*
X-33521Y31963D01*
X-33498Y31986D01*
X-33411Y32197D01*
Y32230D01*
X-33398Y32259D01*
Y32489D01*
X-33411Y32518D01*
Y32551D01*
X-33498Y32762D01*
X-33521Y32785D01*
X-33534Y32815D01*
X-33696Y32977D01*
X-33725Y32989D01*
X-33748Y33012D01*
X-33960Y33100D01*
X-33992D01*
X-34022Y33112D01*
D02*
G37*
G36*
X5091Y33229D02*
X4815D01*
X4548Y33157D01*
X4308Y33019D01*
X4113Y32824D01*
X3975Y32584D01*
X3903Y32317D01*
Y32041D01*
X3975Y31774D01*
X4113Y31534D01*
X4308Y31339D01*
X4548Y31201D01*
X4815Y31129D01*
X5091D01*
X5358Y31201D01*
X5598Y31339D01*
X5793Y31534D01*
X5931Y31774D01*
X6003Y32041D01*
Y32317D01*
X5931Y32584D01*
X5793Y32824D01*
X5598Y33019D01*
X5358Y33157D01*
X5091Y33229D01*
D02*
G37*
G36*
X2591D02*
X2315D01*
X2048Y33157D01*
X1808Y33019D01*
X1613Y32824D01*
X1475Y32584D01*
X1403Y32317D01*
Y32041D01*
X1475Y31774D01*
X1613Y31534D01*
X1808Y31339D01*
X2048Y31201D01*
X2315Y31129D01*
X2591D01*
X2858Y31201D01*
X3098Y31339D01*
X3293Y31534D01*
X3431Y31774D01*
X3503Y32041D01*
Y32317D01*
X3431Y32584D01*
X3293Y32824D01*
X3098Y33019D01*
X2858Y33157D01*
X2591Y33229D01*
D02*
G37*
G36*
X91D02*
X-185D01*
X-452Y33157D01*
X-692Y33019D01*
X-887Y32824D01*
X-1025Y32584D01*
X-1097Y32317D01*
Y32041D01*
X-1025Y31774D01*
X-887Y31534D01*
X-692Y31339D01*
X-452Y31201D01*
X-185Y31129D01*
X91D01*
X358Y31201D01*
X598Y31339D01*
X793Y31534D01*
X931Y31774D01*
X1003Y32041D01*
Y32317D01*
X931Y32584D01*
X793Y32824D01*
X598Y33019D01*
X358Y33157D01*
X91Y33229D01*
D02*
G37*
G36*
X-22393Y26812D02*
X-22565D01*
X-22730Y26768D01*
X-22878Y26682D01*
X-22999Y26561D01*
X-23085Y26413D01*
X-23086Y26409D01*
X-23396D01*
X-23397Y26413D01*
X-23483Y26561D01*
X-23604Y26682D01*
X-23752Y26768D01*
X-23917Y26812D01*
X-24089D01*
X-24254Y26768D01*
X-24402Y26682D01*
X-24523Y26561D01*
X-24609Y26413D01*
X-24653Y26248D01*
Y26076D01*
X-24609Y25911D01*
X-24523Y25763D01*
X-24402Y25642D01*
X-24386Y25633D01*
X-24370Y25579D01*
X-24394Y25295D01*
X-24447Y25265D01*
X-24568Y25144D01*
X-24654Y24995D01*
X-24698Y24830D01*
Y24659D01*
X-24654Y24494D01*
X-24568Y24345D01*
X-24447Y24224D01*
X-24299Y24139D01*
X-24134Y24095D01*
X-23962D01*
X-23797Y24139D01*
X-23649Y24224D01*
X-23528Y24345D01*
X-23442Y24494D01*
X-23397Y24594D01*
X-23114Y24622D01*
X-23085Y24514D01*
X-22999Y24366D01*
X-22878Y24245D01*
X-22730Y24159D01*
X-22565Y24115D01*
X-22393D01*
X-22228Y24159D01*
X-22080Y24245D01*
X-21959Y24366D01*
X-21873Y24514D01*
X-21829Y24679D01*
Y24851D01*
X-21873Y25016D01*
X-21959Y25164D01*
X-22080Y25285D01*
X-22096Y25294D01*
Y25633D01*
X-22080Y25642D01*
X-21959Y25763D01*
X-21873Y25911D01*
X-21829Y26076D01*
Y26248D01*
X-21873Y26413D01*
X-21959Y26561D01*
X-22080Y26682D01*
X-22228Y26768D01*
X-22393Y26812D01*
D02*
G37*
G36*
X25740Y27193D02*
X25568D01*
X25403Y27149D01*
X25255Y27063D01*
X25134Y26942D01*
X25048Y26794D01*
X25004Y26629D01*
Y26493D01*
X24859D01*
Y24333D01*
X24859D01*
X24859Y24233D01*
X24859D01*
Y22073D01*
X25118D01*
X25131Y22057D01*
Y21885D01*
X25175Y21720D01*
X25261Y21572D01*
X25382Y21451D01*
X25530Y21365D01*
X25695Y21321D01*
X25867D01*
X26032Y21365D01*
X26180Y21451D01*
X26301Y21572D01*
X26387Y21720D01*
X26431Y21885D01*
Y22057D01*
X26387Y22222D01*
X26379Y22235D01*
Y23608D01*
X26540Y23651D01*
X26688Y23737D01*
X26809Y23858D01*
X26895Y24006D01*
X26939Y24171D01*
Y24343D01*
X26895Y24508D01*
X26809Y24656D01*
X26688Y24777D01*
X26540Y24863D01*
X26379Y24906D01*
Y26493D01*
X26304D01*
Y26629D01*
X26260Y26794D01*
X26174Y26942D01*
X26053Y27063D01*
X25905Y27149D01*
X25740Y27193D01*
D02*
G37*
G36*
X30717Y26494D02*
X30246Y26457D01*
X29787Y26347D01*
X29351Y26166D01*
X28948Y25920D01*
X28589Y25613D01*
X28282Y25254D01*
X28036Y24851D01*
X27855Y24415D01*
X27745Y23956D01*
X27708Y23485D01*
X27745Y23014D01*
X27855Y22555D01*
X28036Y22119D01*
X28282Y21716D01*
X28589Y21357D01*
X28948Y21050D01*
X29351Y20804D01*
X29787Y20623D01*
X30246Y20513D01*
X30717Y20476D01*
X31188Y20513D01*
X31647Y20623D01*
X32083Y20804D01*
X32486Y21050D01*
X32845Y21357D01*
X33152Y21716D01*
X33398Y22119D01*
X33579Y22555D01*
X33689Y23014D01*
X33726Y23485D01*
X33689Y23956D01*
X33579Y24415D01*
X33398Y24851D01*
X33152Y25254D01*
X32845Y25613D01*
X32486Y25920D01*
X32083Y26166D01*
X31647Y26347D01*
X31188Y26457D01*
X30717Y26494D01*
D02*
G37*
G36*
X-31179D02*
X-31650Y26457D01*
X-32109Y26347D01*
X-32546Y26166D01*
X-32948Y25920D01*
X-33307Y25613D01*
X-33614Y25254D01*
X-33861Y24851D01*
X-34041Y24415D01*
X-34152Y23956D01*
X-34189Y23485D01*
X-34152Y23014D01*
X-34041Y22555D01*
X-33861Y22119D01*
X-33614Y21716D01*
X-33307Y21357D01*
X-32948Y21050D01*
X-32546Y20804D01*
X-32109Y20623D01*
X-31650Y20513D01*
X-31179Y20476D01*
X-30709Y20513D01*
X-30250Y20623D01*
X-29813Y20804D01*
X-29411Y21050D01*
X-29052Y21357D01*
X-28745Y21716D01*
X-28498Y22119D01*
X-28317Y22555D01*
X-28207Y23014D01*
X-28170Y23485D01*
X-28207Y23956D01*
X-28317Y24415D01*
X-28498Y24851D01*
X-28745Y25254D01*
X-29052Y25613D01*
X-29411Y25920D01*
X-29813Y26166D01*
X-30250Y26347D01*
X-30709Y26457D01*
X-31179Y26494D01*
D02*
G37*
G36*
X21519Y28563D02*
X15819D01*
Y22063D01*
X15840D01*
Y21336D01*
X15887Y21221D01*
X16649Y20459D01*
X16764Y20412D01*
X22733D01*
X22848Y20459D01*
X23610Y21221D01*
X23657Y21336D01*
Y26416D01*
X23610Y26531D01*
X22467Y27674D01*
X22352Y27721D01*
X21519D01*
Y28563D01*
D02*
G37*
G36*
X19127Y19241D02*
X18927Y19241D01*
X16967D01*
Y19198D01*
X16746Y18965D01*
X16528D01*
X16325Y18881D01*
X16171Y18727D01*
X16087Y18524D01*
Y18306D01*
X16171Y18103D01*
X16325Y17949D01*
X16528Y17865D01*
X16726D01*
X16967Y17721D01*
X16967Y17721D01*
X16967Y17721D01*
X18927D01*
X19227Y17721D01*
X19427Y17721D01*
X21387D01*
Y17802D01*
X21481Y17865D01*
X21699D01*
X21902Y17949D01*
X22056Y18103D01*
X22140Y18306D01*
Y18524D01*
X22056Y18727D01*
X21902Y18881D01*
X21699Y18965D01*
X21481D01*
X21387Y19028D01*
Y19241D01*
X19415D01*
X19127Y19241D01*
D02*
G37*
G36*
X-15931Y20137D02*
X-16102D01*
X-16268Y20093D01*
X-16416Y20007D01*
X-16537Y19886D01*
X-16623Y19738D01*
X-16650Y19637D01*
X-18023D01*
Y18286D01*
X-18023Y18082D01*
X-18023Y17782D01*
Y16431D01*
X-18023D01*
X-18127Y16174D01*
X-18669D01*
X-18878Y16146D01*
X-19072Y16066D01*
X-19240Y15938D01*
X-19368Y15770D01*
X-19448Y15576D01*
X-19476Y15367D01*
X-19448Y15158D01*
X-19368Y14964D01*
X-19240Y14796D01*
X-19072Y14668D01*
X-18878Y14588D01*
X-18669Y14560D01*
X-18146D01*
Y13704D01*
X-18343Y13507D01*
X-18669D01*
X-18878Y13479D01*
X-19072Y13399D01*
X-19240Y13271D01*
X-19368Y13103D01*
X-19448Y12909D01*
X-19476Y12700D01*
X-19448Y12491D01*
X-19368Y12297D01*
X-19240Y12129D01*
X-19072Y12001D01*
X-18878Y11921D01*
X-18669Y11893D01*
X-18009D01*
X-17800Y11921D01*
X-17605Y12001D01*
X-17438Y12129D01*
X-17005Y12563D01*
X-16347D01*
Y16139D01*
X-16347D01*
X-16327Y16431D01*
X-16267D01*
Y17782D01*
X-16267Y17986D01*
X-16267Y18286D01*
Y18711D01*
X-16102Y18837D01*
X-15931D01*
X-15766Y18881D01*
X-15618Y18967D01*
X-15497Y19088D01*
X-15411Y19236D01*
X-15367Y19402D01*
Y19573D01*
X-15411Y19738D01*
X-15497Y19886D01*
X-15618Y20007D01*
X-15766Y20093D01*
X-15931Y20137D01*
D02*
G37*
G36*
X25555Y14934D02*
X23863D01*
X23709Y14903D01*
X23579Y14816D01*
X23579Y14816D01*
X22503D01*
X22503Y14816D01*
X22203Y14776D01*
X21923Y14661D01*
X21683Y14476D01*
X21683Y14476D01*
X21235Y14028D01*
X21050Y13788D01*
X20935Y13508D01*
X20895Y13208D01*
X20935Y12908D01*
X21050Y12628D01*
X21235Y12388D01*
X21475Y12203D01*
X21755Y12088D01*
X22055Y12048D01*
X22355Y12088D01*
X22635Y12203D01*
X22875Y12388D01*
X22983Y12496D01*
X24649D01*
X24649Y12496D01*
X24666Y12498D01*
X25555D01*
X25709Y12529D01*
X25839Y12616D01*
X25926Y12746D01*
X25957Y12900D01*
Y14532D01*
X25926Y14686D01*
X25839Y14816D01*
X25709Y14903D01*
X25555Y14934D01*
D02*
G37*
G36*
X-10832Y17976D02*
X-11012D01*
X-11177Y17907D01*
X-11303Y17781D01*
X-11372Y17616D01*
Y17436D01*
X-11467Y17295D01*
X-11847D01*
Y16004D01*
X-10068D01*
X-10048Y16004D01*
X-9768Y15956D01*
X-9768Y15669D01*
X-9768Y15369D01*
Y15045D01*
X-10048Y14996D01*
X-10068Y14996D01*
X-11847D01*
Y13706D01*
X-10969D01*
X-10922Y13593D01*
X-10796Y13466D01*
X-10631Y13398D01*
X-10451D01*
X-10286Y13466D01*
X-10160Y13593D01*
X-10113Y13706D01*
X-10048D01*
Y13706D01*
X-9748Y13889D01*
X-9721Y13880D01*
X-9652Y13715D01*
X-9526Y13589D01*
X-9361Y13520D01*
X-9181D01*
X-9016Y13589D01*
X-8890Y13715D01*
X-8821Y13880D01*
Y14018D01*
X-8012D01*
Y15369D01*
X-8012Y15573D01*
X-8012Y15873D01*
Y16332D01*
X-8009Y16376D01*
X-7851Y16624D01*
X-7672D01*
X-7507Y16693D01*
X-7380Y16819D01*
X-7312Y16985D01*
Y17164D01*
X-7380Y17329D01*
X-7507Y17456D01*
X-7672Y17524D01*
X-7851D01*
X-8017Y17456D01*
X-8143Y17329D01*
X-8184Y17230D01*
X-8413D01*
X-8442Y17224D01*
X-9748D01*
X-9768Y17224D01*
X-10048Y17272D01*
Y17295D01*
X-10377D01*
X-10472Y17436D01*
Y17616D01*
X-10541Y17781D01*
X-10667Y17907D01*
X-10832Y17976D01*
D02*
G37*
G36*
X15076Y14039D02*
X14896D01*
X14731Y13970D01*
X14605Y13844D01*
X14536Y13679D01*
Y13499D01*
X14486Y13259D01*
X14486Y13259D01*
Y12259D01*
X15486D01*
Y13259D01*
X15486D01*
X15436Y13538D01*
Y13679D01*
X15367Y13844D01*
X15241Y13970D01*
X15076Y14039D01*
D02*
G37*
G36*
X-24244Y14426D02*
X-25936D01*
X-26090Y14395D01*
X-26220Y14308D01*
X-26307Y14178D01*
X-26338Y14024D01*
Y12392D01*
X-26307Y12238D01*
X-26220Y12108D01*
X-26090Y12021D01*
X-25936Y11990D01*
X-24244D01*
X-24090Y12021D01*
X-24049Y12048D01*
X-22559D01*
X-22259Y12088D01*
X-21979Y12203D01*
X-21739Y12388D01*
X-21554Y12628D01*
X-21439Y12908D01*
X-21399Y13208D01*
X-21439Y13508D01*
X-21554Y13788D01*
X-21739Y14028D01*
X-21979Y14213D01*
X-22259Y14328D01*
X-22559Y14368D01*
X-24049D01*
X-24090Y14395D01*
X-24244Y14426D01*
D02*
G37*
G36*
X16854Y13785D02*
X16674D01*
X16509Y13716D01*
X16383Y13590D01*
X16314Y13425D01*
Y13245D01*
X16118Y12953D01*
X15989D01*
Y11653D01*
X17539D01*
Y12953D01*
X17410D01*
X17214Y13245D01*
Y13425D01*
X17145Y13590D01*
X17019Y13716D01*
X16854Y13785D01*
D02*
G37*
G36*
X-28674Y15279D02*
X-30366D01*
X-30691Y15236D01*
X-30735Y15218D01*
X-32559D01*
X-32951Y15179D01*
X-33328Y15065D01*
X-33676Y14879D01*
X-33980Y14629D01*
X-34230Y14325D01*
X-34416Y13977D01*
X-34530Y13600D01*
X-34569Y13208D01*
X-34530Y12816D01*
X-34416Y12439D01*
X-34230Y12091D01*
X-33980Y11787D01*
X-33676Y11537D01*
X-33328Y11351D01*
X-32951Y11237D01*
X-32559Y11198D01*
X-30735D01*
X-30691Y11180D01*
X-30366Y11137D01*
X-28674D01*
X-28349Y11180D01*
X-28047Y11305D01*
X-27787Y11505D01*
X-27587Y11765D01*
X-27462Y12067D01*
X-27419Y12392D01*
Y14024D01*
X-27462Y14349D01*
X-27587Y14651D01*
X-27787Y14911D01*
X-28047Y15111D01*
X-28349Y15236D01*
X-28674Y15279D01*
D02*
G37*
G36*
X-22008Y10102D02*
X-22188D01*
X-22353Y10033D01*
X-22479Y9907D01*
X-22514Y9824D01*
X-22825D01*
X-22860Y9907D01*
X-22986Y10033D01*
X-23151Y10102D01*
X-23331D01*
X-23496Y10033D01*
X-23622Y9907D01*
X-23657Y9824D01*
X-23968D01*
X-24003Y9907D01*
X-24129Y10033D01*
X-24294Y10102D01*
X-24474D01*
X-24639Y10033D01*
X-24765Y9907D01*
X-24834Y9742D01*
Y9562D01*
X-24765Y9397D01*
X-24639Y9271D01*
X-24474Y9202D01*
X-24294D01*
X-24129Y9271D01*
X-24003Y9397D01*
X-23968Y9480D01*
X-23657D01*
X-23622Y9397D01*
X-23496Y9271D01*
X-23331Y9202D01*
X-23151D01*
X-22986Y9271D01*
X-22860Y9397D01*
X-22825Y9480D01*
X-22514D01*
X-22479Y9397D01*
X-22404Y9321D01*
X-22374Y9144D01*
X-22404Y8967D01*
X-22479Y8891D01*
X-22548Y8726D01*
Y8546D01*
X-22479Y8381D01*
X-22353Y8255D01*
X-22188Y8186D01*
X-22008D01*
X-21843Y8255D01*
X-21717Y8381D01*
X-21648Y8546D01*
Y8726D01*
X-21717Y8891D01*
X-21792Y8967D01*
X-21822Y9144D01*
X-21792Y9321D01*
X-21717Y9397D01*
X-21648Y9562D01*
Y9742D01*
X-21717Y9907D01*
X-21843Y10033D01*
X-22008Y10102D01*
D02*
G37*
G36*
X-27642Y9555D02*
X-27984D01*
X-28315Y9466D01*
X-28448Y9389D01*
X-28581Y9466D01*
X-28912Y9555D01*
X-29254D01*
X-29585Y9466D01*
X-29718Y9389D01*
X-29851Y9466D01*
X-30182Y9555D01*
X-30524D01*
X-30855Y9466D01*
X-30988Y9389D01*
X-31121Y9466D01*
X-31452Y9555D01*
X-31794D01*
X-32125Y9466D01*
X-32258Y9389D01*
X-32391Y9466D01*
X-32722Y9555D01*
X-33064D01*
X-33395Y9466D01*
X-33691Y9295D01*
X-33933Y9053D01*
X-34104Y8757D01*
X-34193Y8426D01*
Y8084D01*
X-34104Y7753D01*
X-34027Y7620D01*
X-34104Y7487D01*
X-34193Y7156D01*
Y6814D01*
X-34104Y6483D01*
X-33991Y6286D01*
X-34104Y6090D01*
X-34193Y5759D01*
Y5417D01*
X-34104Y5086D01*
X-34027Y4953D01*
X-34104Y4820D01*
X-34193Y4489D01*
Y4147D01*
X-34104Y3816D01*
X-33933Y3520D01*
X-33691Y3278D01*
X-33395Y3107D01*
X-33064Y3018D01*
X-32722D01*
X-32391Y3107D01*
X-32258Y3184D01*
X-32125Y3107D01*
X-31794Y3018D01*
X-31452D01*
X-31121Y3107D01*
X-30988Y3184D01*
X-30855Y3107D01*
X-30524Y3018D01*
X-30182D01*
X-29851Y3107D01*
X-29718Y3184D01*
X-29585Y3107D01*
X-29254Y3018D01*
X-28912D01*
X-28581Y3107D01*
X-28448Y3184D01*
X-28315Y3107D01*
X-27984Y3018D01*
X-27642D01*
X-27311Y3107D01*
X-27015Y3278D01*
X-26773Y3520D01*
X-26602Y3816D01*
X-26513Y4147D01*
Y4489D01*
X-26602Y4820D01*
X-26679Y4953D01*
X-26602Y5086D01*
X-26513Y5417D01*
Y5759D01*
X-26602Y6090D01*
X-26715Y6286D01*
X-26602Y6483D01*
X-26513Y6814D01*
Y7156D01*
X-26602Y7487D01*
X-26679Y7620D01*
X-26602Y7753D01*
X-26513Y8084D01*
Y8426D01*
X-26602Y8757D01*
X-26773Y9053D01*
X-27015Y9295D01*
X-27311Y9466D01*
X-27642Y9555D01*
D02*
G37*
G36*
X-16674Y9721D02*
X-16854D01*
X-17019Y9652D01*
X-17145Y9526D01*
X-17214Y9361D01*
Y9181D01*
X-17145Y9016D01*
X-17019Y8890D01*
X-16854Y8821D01*
X-16674D01*
X-16509Y8890D01*
X-16383Y9016D01*
X-16314Y9181D01*
Y9361D01*
X-16383Y9526D01*
X-16509Y9652D01*
X-16674Y9721D01*
D02*
G37*
G36*
X-18638Y9401D02*
X-18817D01*
X-18983Y9333D01*
X-19109Y9206D01*
X-19178Y9041D01*
Y8862D01*
X-19109Y8696D01*
X-18983Y8570D01*
X-18817Y8501D01*
X-18638D01*
X-18473Y8570D01*
X-18346Y8696D01*
X-18278Y8862D01*
Y9041D01*
X-18346Y9206D01*
X-18473Y9333D01*
X-18638Y9401D01*
D02*
G37*
G36*
X13933Y8832D02*
X13753D01*
X13588Y8763D01*
X13462Y8637D01*
X13393Y8472D01*
Y8292D01*
X13462Y8127D01*
X13588Y8001D01*
X13753Y7932D01*
X13933D01*
X14098Y8001D01*
X14224Y8127D01*
X14293Y8292D01*
Y8472D01*
X14224Y8637D01*
X14098Y8763D01*
X13933Y8832D01*
D02*
G37*
G36*
X-22008Y7816D02*
X-22188D01*
X-22353Y7747D01*
X-22479Y7621D01*
X-22514Y7538D01*
X-22825D01*
X-22860Y7621D01*
X-22986Y7747D01*
X-23151Y7816D01*
X-23331D01*
X-23496Y7747D01*
X-23622Y7621D01*
X-23657Y7538D01*
X-23968D01*
X-24003Y7621D01*
X-24129Y7747D01*
X-24294Y7816D01*
X-24474D01*
X-24639Y7747D01*
X-24765Y7621D01*
X-24834Y7456D01*
Y7276D01*
X-24765Y7111D01*
X-24639Y6985D01*
X-24474Y6916D01*
X-24294D01*
X-24129Y6985D01*
X-24003Y7111D01*
X-23968Y7194D01*
X-23657D01*
X-23622Y7111D01*
X-23496Y6985D01*
X-23331Y6916D01*
X-23151D01*
X-22986Y6985D01*
X-22860Y7111D01*
X-22825Y7194D01*
X-22514D01*
X-22479Y7111D01*
X-22353Y6985D01*
X-22188Y6916D01*
X-22008D01*
X-21843Y6985D01*
X-21717Y7111D01*
X-21648Y7276D01*
Y7456D01*
X-21717Y7621D01*
X-21843Y7747D01*
X-22008Y7816D01*
D02*
G37*
G36*
X17606Y6750D02*
X17446D01*
X17299Y6689D01*
X17187Y6577D01*
X17126Y6430D01*
Y6270D01*
X17187Y6123D01*
X17299Y6011D01*
X17446Y5950D01*
X17606D01*
X17753Y6011D01*
X17865Y6123D01*
X17926Y6270D01*
Y6430D01*
X17865Y6577D01*
X17753Y6689D01*
X17606Y6750D01*
D02*
G37*
G36*
X16463Y6623D02*
X16303D01*
X16156Y6562D01*
X16044Y6450D01*
X15983Y6303D01*
Y6143D01*
X16044Y5996D01*
X16156Y5884D01*
X16303Y5823D01*
X16463D01*
X16610Y5884D01*
X16722Y5996D01*
X16783Y6143D01*
Y6303D01*
X16722Y6450D01*
X16610Y6562D01*
X16463Y6623D01*
D02*
G37*
G36*
X-17074Y6620D02*
X-17233D01*
X-17380Y6559D01*
X-17492Y6446D01*
X-17553Y6299D01*
Y6140D01*
X-17492Y5993D01*
X-17380Y5881D01*
X-17233Y5820D01*
X-17074D01*
X-16927Y5881D01*
X-16814Y5993D01*
X-16753Y6140D01*
Y6299D01*
X-16814Y6446D01*
X-16927Y6559D01*
X-17074Y6620D01*
D02*
G37*
G36*
X-18471D02*
X-18630D01*
X-18777Y6559D01*
X-18889Y6446D01*
X-18950Y6299D01*
Y6140D01*
X-18889Y5993D01*
X-18777Y5881D01*
X-18630Y5820D01*
X-18471D01*
X-18324Y5881D01*
X-18211Y5993D01*
X-18150Y6140D01*
Y6299D01*
X-18211Y6446D01*
X-18324Y6559D01*
X-18471Y6620D01*
D02*
G37*
G36*
X24347Y5276D02*
X24167D01*
X24002Y5207D01*
X23926Y5132D01*
X23749Y5102D01*
X23572Y5132D01*
X23496Y5207D01*
X23331Y5276D01*
X23151D01*
X22986Y5207D01*
X22910Y5132D01*
X22733Y5102D01*
X22556Y5132D01*
X22480Y5207D01*
X22315Y5276D01*
X22135D01*
X21970Y5207D01*
X21894Y5132D01*
X21717Y5102D01*
X21540Y5132D01*
X21464Y5207D01*
X21299Y5276D01*
X21119D01*
X20954Y5207D01*
X20828Y5081D01*
X20759Y4916D01*
Y4736D01*
X20828Y4571D01*
X20954Y4445D01*
X21037Y4410D01*
Y4099D01*
X20954Y4064D01*
X20828Y3938D01*
X20759Y3773D01*
Y3593D01*
X20828Y3428D01*
X20954Y3302D01*
X21119Y3233D01*
X21299D01*
X21464Y3302D01*
X21653Y3397D01*
X21843Y3302D01*
X22008Y3233D01*
X22188D01*
X22353Y3302D01*
X22479Y3428D01*
X22548Y3593D01*
Y3773D01*
X22479Y3938D01*
X22353Y4064D01*
X22320Y4078D01*
X22316Y4269D01*
X22350Y4391D01*
X22480Y4445D01*
X22556Y4520D01*
X22733Y4550D01*
X22910Y4520D01*
X22986Y4445D01*
X23151Y4376D01*
X23331D01*
X23496Y4445D01*
X23572Y4520D01*
X23749Y4550D01*
X23926Y4520D01*
X24002Y4445D01*
X24167Y4376D01*
X24347D01*
X24512Y4445D01*
X24638Y4571D01*
X24707Y4736D01*
Y4916D01*
X24638Y5081D01*
X24512Y5207D01*
X24347Y5276D01*
D02*
G37*
G36*
X17701Y3734D02*
X17522D01*
X17356Y3666D01*
X17230Y3539D01*
X17161Y3374D01*
Y3195D01*
X17230Y3029D01*
X17356Y2903D01*
X17522Y2834D01*
X17701D01*
X17866Y2903D01*
X17993Y3029D01*
X18061Y3195D01*
Y3374D01*
X17993Y3539D01*
X17866Y3666D01*
X17701Y3734D01*
D02*
G37*
G36*
X16181Y3662D02*
X16002D01*
X15837Y3594D01*
X15710Y3467D01*
X15642Y3302D01*
Y3123D01*
X15710Y2958D01*
X15837Y2831D01*
X16002Y2762D01*
X16181D01*
X16346Y2831D01*
X16473Y2958D01*
X16542Y3123D01*
Y3302D01*
X16473Y3467D01*
X16346Y3594D01*
X16181Y3662D01*
D02*
G37*
G36*
X-31071Y2697D02*
X-31413D01*
X-31744Y2608D01*
X-32040Y2437D01*
X-32282Y2195D01*
X-32453Y1899D01*
X-32542Y1568D01*
Y1226D01*
X-32453Y895D01*
X-32282Y599D01*
X-32040Y357D01*
X-31744Y186D01*
X-31599Y147D01*
X-30440Y-1012D01*
X-30205Y-1193D01*
X-30067Y-1250D01*
X-29931Y-1306D01*
X-29637Y-1345D01*
X-28027D01*
Y-1879D01*
X-25027D01*
Y-1279D01*
X-22425D01*
X-22125Y-1279D01*
X-22025Y-1279D01*
X-19007D01*
Y771D01*
X-22025D01*
X-22325Y771D01*
X-22425Y771D01*
X-25027D01*
Y1371D01*
X-28027D01*
Y928D01*
X-29166D01*
X-29992Y1755D01*
X-30031Y1899D01*
X-30202Y2195D01*
X-30444Y2437D01*
X-30740Y2608D01*
X-31071Y2697D01*
D02*
G37*
G36*
X-15481Y-1366D02*
X-17031D01*
Y-2666D01*
X-16691D01*
X-16637Y-2795D01*
X-16511Y-2921D01*
X-16346Y-2990D01*
X-16166D01*
X-16001Y-2921D01*
X-15875Y-2795D01*
X-15821Y-2666D01*
X-15532D01*
X-15481Y-2666D01*
X-15232Y-2789D01*
Y-2845D01*
X-15182D01*
Y-3011D01*
X-15113Y-3176D01*
X-14987Y-3302D01*
X-14822Y-3371D01*
X-14642D01*
X-14477Y-3302D01*
X-14351Y-3176D01*
X-14282Y-3011D01*
Y-2845D01*
X-14232D01*
Y-1845D01*
X-15181D01*
X-15232Y-1845D01*
X-15481Y-1722D01*
Y-1366D01*
D02*
G37*
G36*
X18076Y-11100D02*
X16976D01*
Y-11420D01*
X16240D01*
X16133Y-11441D01*
X16042Y-11502D01*
X14534Y-13010D01*
X14473Y-13101D01*
X14452Y-13208D01*
Y-34036D01*
X14473Y-34143D01*
X14534Y-34234D01*
X17246Y-36946D01*
Y-39342D01*
X17267Y-39449D01*
X17328Y-39540D01*
X18073Y-40285D01*
X18039Y-40369D01*
Y-40548D01*
X18107Y-40713D01*
X18234Y-40840D01*
X18399Y-40908D01*
X18578D01*
X18744Y-40840D01*
X18870Y-40713D01*
X18939Y-40548D01*
Y-40369D01*
X18870Y-40203D01*
X18744Y-40077D01*
X18596Y-40016D01*
X17806Y-39226D01*
Y-36830D01*
X17785Y-36723D01*
X17724Y-36632D01*
X15012Y-33920D01*
Y-13324D01*
X16356Y-11980D01*
X16976D01*
Y-12300D01*
X18076D01*
Y-11100D01*
D02*
G37*
G36*
X29677Y-14837D02*
X29505D01*
X29340Y-14881D01*
X29192Y-14967D01*
X29071Y-15088D01*
X28985Y-15236D01*
X28941Y-15401D01*
Y-15426D01*
X28641Y-15530D01*
X28593Y-15482D01*
X28445Y-15396D01*
X28280Y-15352D01*
X28108D01*
X27943Y-15396D01*
X27795Y-15482D01*
X27674Y-15603D01*
X27588Y-15751D01*
X27544Y-15916D01*
Y-16088D01*
X27588Y-16253D01*
X27674Y-16401D01*
X27736Y-16463D01*
X27670Y-16669D01*
X27618Y-16749D01*
X27473D01*
X27308Y-16793D01*
X27160Y-16879D01*
X27039Y-17000D01*
X26953Y-17148D01*
X26909Y-17313D01*
Y-17485D01*
X26953Y-17650D01*
X27039Y-17798D01*
X27160Y-17919D01*
X27308Y-18005D01*
X27312Y-18006D01*
Y-18316D01*
X27308Y-18317D01*
X27160Y-18403D01*
X27039Y-18524D01*
X26953Y-18672D01*
X26909Y-18837D01*
Y-19009D01*
X26953Y-19174D01*
X27039Y-19322D01*
X27160Y-19443D01*
X27308Y-19529D01*
X27312Y-19530D01*
Y-19840D01*
X27308Y-19841D01*
X27160Y-19927D01*
X27039Y-20048D01*
X26953Y-20196D01*
X26909Y-20361D01*
Y-20533D01*
X26953Y-20698D01*
X27039Y-20846D01*
X27160Y-20967D01*
X27308Y-21053D01*
X27312Y-21054D01*
Y-21364D01*
X27308Y-21365D01*
X27160Y-21451D01*
X27039Y-21572D01*
X26953Y-21720D01*
X26909Y-21885D01*
Y-22057D01*
X26953Y-22222D01*
X27039Y-22370D01*
X27160Y-22491D01*
X27308Y-22577D01*
X27473Y-22621D01*
X27645D01*
X27810Y-22577D01*
X27958Y-22491D01*
X28079Y-22370D01*
X28165Y-22222D01*
X28209Y-22057D01*
Y-21885D01*
X28165Y-21720D01*
X28079Y-21572D01*
X27958Y-21451D01*
X27810Y-21365D01*
X27806Y-21364D01*
Y-21054D01*
X27810Y-21053D01*
X27958Y-20967D01*
X28079Y-20846D01*
X28165Y-20698D01*
X28209Y-20533D01*
Y-20361D01*
X28165Y-20196D01*
X28079Y-20048D01*
X27958Y-19927D01*
X27810Y-19841D01*
X27806Y-19840D01*
Y-19530D01*
X27810Y-19529D01*
X27958Y-19443D01*
X28079Y-19322D01*
X28165Y-19174D01*
X28209Y-19009D01*
Y-18837D01*
X28165Y-18672D01*
X28079Y-18524D01*
X27958Y-18403D01*
X27810Y-18317D01*
X27806Y-18316D01*
Y-18006D01*
X27810Y-18005D01*
X27958Y-17919D01*
X28079Y-17798D01*
X28165Y-17650D01*
X28209Y-17485D01*
Y-17313D01*
X28165Y-17148D01*
X28079Y-17000D01*
X28017Y-16938D01*
X28083Y-16732D01*
X28135Y-16652D01*
X28280D01*
X28445Y-16608D01*
X28593Y-16522D01*
X28714Y-16401D01*
X28800Y-16253D01*
X28841Y-16099D01*
X29024Y-16025D01*
X29115Y-15993D01*
X29295Y-16118D01*
X29309Y-16207D01*
X29302Y-16427D01*
X29192Y-16491D01*
X29071Y-16612D01*
X28985Y-16760D01*
X28941Y-16925D01*
Y-17096D01*
X28985Y-17262D01*
X29071Y-17410D01*
X29192Y-17531D01*
X29340Y-17616D01*
X29344Y-17617D01*
Y-17928D01*
X29340Y-17929D01*
X29192Y-18015D01*
X29071Y-18136D01*
X28985Y-18284D01*
X28941Y-18449D01*
Y-18620D01*
X28985Y-18786D01*
X29071Y-18934D01*
X29192Y-19055D01*
X29340Y-19140D01*
X29344Y-19141D01*
Y-19452D01*
X29340Y-19453D01*
X29192Y-19539D01*
X29071Y-19660D01*
X28985Y-19808D01*
X28941Y-19973D01*
Y-20144D01*
X28985Y-20310D01*
X29071Y-20458D01*
X29192Y-20579D01*
X29340Y-20664D01*
X29395Y-20679D01*
Y-20990D01*
X29340Y-21004D01*
X29192Y-21090D01*
X29071Y-21211D01*
X28985Y-21359D01*
X28941Y-21524D01*
Y-21696D01*
X28985Y-21861D01*
X29071Y-22009D01*
X29192Y-22130D01*
X29192Y-22471D01*
X29071Y-22592D01*
X28985Y-22740D01*
X28941Y-22905D01*
Y-23038D01*
X28941Y-23076D01*
X28935Y-23136D01*
X28675Y-23244D01*
X28632Y-23169D01*
X28511Y-23048D01*
X28363Y-22962D01*
X28198Y-22918D01*
X28026D01*
X27861Y-22962D01*
X27713Y-23048D01*
X27592Y-23169D01*
X27506Y-23317D01*
X27462Y-23483D01*
Y-23654D01*
X27506Y-23819D01*
X27592Y-23967D01*
X27713Y-24088D01*
X27861Y-24174D01*
X28026Y-24218D01*
X28198D01*
X28363Y-24174D01*
X28511Y-24088D01*
X28632Y-23967D01*
X28718Y-23819D01*
X28762Y-23654D01*
Y-23527D01*
X28795Y-23501D01*
X28884Y-23448D01*
X29051Y-23401D01*
X29202Y-23533D01*
Y-23858D01*
X29192Y-23864D01*
X29071Y-23985D01*
X28985Y-24133D01*
X28941Y-24298D01*
Y-24470D01*
X28985Y-24635D01*
X29071Y-24783D01*
X29192Y-24904D01*
X29340Y-24990D01*
X29505Y-25034D01*
X29677D01*
X29842Y-24990D01*
X29990Y-24904D01*
X30111Y-24783D01*
X30197Y-24635D01*
X30241Y-24470D01*
Y-24298D01*
X30197Y-24133D01*
X30111Y-23985D01*
X29990Y-23864D01*
X29980Y-23858D01*
Y-23517D01*
X29990Y-23511D01*
X30111Y-23390D01*
X30197Y-23242D01*
X30241Y-23076D01*
Y-22905D01*
X30197Y-22740D01*
X30111Y-22592D01*
X29990Y-22471D01*
Y-22130D01*
X30111Y-22009D01*
X30197Y-21861D01*
X30241Y-21696D01*
Y-21524D01*
X30197Y-21359D01*
X30111Y-21211D01*
X29990Y-21090D01*
X29842Y-21004D01*
X29787Y-20990D01*
Y-20679D01*
X29842Y-20664D01*
X29990Y-20579D01*
X30111Y-20458D01*
X30197Y-20310D01*
X30241Y-20144D01*
Y-19973D01*
X30197Y-19808D01*
X30111Y-19660D01*
X29990Y-19539D01*
X29842Y-19453D01*
X29838Y-19452D01*
Y-19141D01*
X29842Y-19140D01*
X29990Y-19055D01*
X30111Y-18934D01*
X30197Y-18786D01*
X30241Y-18620D01*
Y-18449D01*
X30197Y-18284D01*
X30111Y-18136D01*
X29990Y-18015D01*
X29842Y-17929D01*
X29838Y-17928D01*
Y-17617D01*
X29842Y-17616D01*
X29990Y-17531D01*
X30111Y-17410D01*
X30197Y-17262D01*
X30241Y-17096D01*
Y-16925D01*
X30197Y-16760D01*
X30111Y-16612D01*
X29990Y-16491D01*
X29842Y-16405D01*
X29838Y-16404D01*
Y-16093D01*
X29842Y-16092D01*
X29990Y-16007D01*
X30111Y-15886D01*
X30197Y-15738D01*
X30241Y-15572D01*
Y-15401D01*
X30197Y-15236D01*
X30111Y-15088D01*
X29990Y-14967D01*
X29842Y-14881D01*
X29677Y-14837D01*
D02*
G37*
G36*
X20856Y-15606D02*
X19606D01*
Y-16906D01*
X19976D01*
Y-17378D01*
X19996Y-17476D01*
X20051Y-17558D01*
X20133Y-17640D01*
Y-18280D01*
X21133D01*
Y-17280D01*
X20493D01*
X20486Y-17272D01*
Y-16906D01*
X20856D01*
Y-15606D01*
D02*
G37*
G36*
X-29759Y-14837D02*
X-29931D01*
X-30096Y-14881D01*
X-30244Y-14967D01*
X-30365Y-15088D01*
X-30451Y-15236D01*
X-30495Y-15401D01*
Y-15572D01*
X-30451Y-15738D01*
X-30365Y-15886D01*
X-30244Y-16007D01*
X-30096Y-16092D01*
X-30092Y-16093D01*
Y-16404D01*
X-30096Y-16405D01*
X-30244Y-16491D01*
X-30365Y-16612D01*
X-30451Y-16760D01*
X-30495Y-16925D01*
Y-17096D01*
X-30451Y-17262D01*
X-30365Y-17410D01*
X-30244Y-17531D01*
X-30096Y-17616D01*
X-30092Y-17617D01*
Y-17928D01*
X-30096Y-17929D01*
X-30244Y-18015D01*
X-30365Y-18136D01*
X-30451Y-18284D01*
X-30495Y-18449D01*
Y-18620D01*
X-30451Y-18786D01*
X-30365Y-18934D01*
X-30244Y-19055D01*
X-30096Y-19140D01*
X-30092Y-19141D01*
Y-19452D01*
X-30096Y-19453D01*
X-30244Y-19539D01*
X-30365Y-19660D01*
X-30451Y-19808D01*
X-30495Y-19973D01*
Y-20144D01*
X-30451Y-20310D01*
X-30365Y-20458D01*
X-30244Y-20579D01*
X-30096Y-20664D01*
X-30041Y-20679D01*
Y-20990D01*
X-30096Y-21004D01*
X-30244Y-21090D01*
X-30365Y-21211D01*
X-30451Y-21359D01*
X-30495Y-21524D01*
Y-21696D01*
X-30451Y-21861D01*
X-30365Y-22009D01*
X-30244Y-22130D01*
X-30244Y-22471D01*
X-30365Y-22592D01*
X-30451Y-22740D01*
X-30495Y-22905D01*
Y-23076D01*
X-30451Y-23242D01*
X-30365Y-23390D01*
X-30244Y-23511D01*
X-30234Y-23517D01*
Y-23858D01*
X-30244Y-23864D01*
X-30365Y-23985D01*
X-30451Y-24133D01*
X-30495Y-24298D01*
Y-24470D01*
X-30451Y-24635D01*
X-30365Y-24783D01*
X-30244Y-24904D01*
X-30096Y-24990D01*
X-29931Y-25034D01*
X-29759D01*
X-29594Y-24990D01*
X-29446Y-24904D01*
X-29325Y-24783D01*
X-29239Y-24635D01*
X-29195Y-24470D01*
Y-24298D01*
X-29239Y-24133D01*
X-29325Y-23985D01*
X-29446Y-23864D01*
X-29456Y-23858D01*
Y-23533D01*
X-29305Y-23401D01*
X-29138Y-23448D01*
X-29049Y-23501D01*
X-29016Y-23527D01*
Y-23654D01*
X-28972Y-23819D01*
X-28886Y-23967D01*
X-28765Y-24088D01*
X-28617Y-24174D01*
X-28452Y-24218D01*
X-28280D01*
X-28115Y-24174D01*
X-27967Y-24088D01*
X-27846Y-23967D01*
X-27760Y-23819D01*
X-27716Y-23654D01*
Y-23483D01*
X-27760Y-23317D01*
X-27846Y-23169D01*
X-27967Y-23048D01*
X-28115Y-22962D01*
X-28280Y-22918D01*
X-28452D01*
X-28617Y-22962D01*
X-28765Y-23048D01*
X-28886Y-23169D01*
X-28929Y-23244D01*
X-29189Y-23136D01*
X-29195Y-23076D01*
X-29195Y-23059D01*
X-29195Y-22905D01*
X-29239Y-22740D01*
X-29325Y-22592D01*
X-29446Y-22471D01*
Y-22130D01*
X-29325Y-22009D01*
X-29239Y-21861D01*
X-29195Y-21696D01*
Y-21524D01*
X-29239Y-21359D01*
X-29325Y-21211D01*
X-29446Y-21090D01*
X-29594Y-21004D01*
X-29649Y-20990D01*
Y-20679D01*
X-29594Y-20664D01*
X-29446Y-20579D01*
X-29325Y-20458D01*
X-29239Y-20310D01*
X-29195Y-20144D01*
Y-19973D01*
X-29239Y-19808D01*
X-29325Y-19660D01*
X-29446Y-19539D01*
X-29594Y-19453D01*
X-29598Y-19452D01*
Y-19141D01*
X-29594Y-19140D01*
X-29446Y-19055D01*
X-29325Y-18934D01*
X-29239Y-18786D01*
X-29195Y-18620D01*
Y-18449D01*
X-29239Y-18284D01*
X-29325Y-18136D01*
X-29446Y-18015D01*
X-29594Y-17929D01*
X-29598Y-17928D01*
Y-17617D01*
X-29594Y-17616D01*
X-29446Y-17531D01*
X-29325Y-17410D01*
X-29239Y-17262D01*
X-29195Y-17096D01*
Y-16925D01*
X-29239Y-16760D01*
X-29325Y-16612D01*
X-29446Y-16491D01*
X-29556Y-16427D01*
X-29563Y-16207D01*
X-29549Y-16118D01*
X-29369Y-15993D01*
X-29278Y-16025D01*
X-29095Y-16099D01*
X-29054Y-16253D01*
X-28968Y-16401D01*
X-28847Y-16522D01*
X-28699Y-16608D01*
X-28534Y-16652D01*
X-28389D01*
X-28337Y-16732D01*
X-28271Y-16938D01*
X-28333Y-17000D01*
X-28419Y-17148D01*
X-28463Y-17313D01*
Y-17485D01*
X-28419Y-17650D01*
X-28333Y-17798D01*
X-28212Y-17919D01*
X-28064Y-18005D01*
X-28060Y-18006D01*
Y-18316D01*
X-28064Y-18317D01*
X-28212Y-18403D01*
X-28333Y-18524D01*
X-28419Y-18672D01*
X-28463Y-18837D01*
Y-19009D01*
X-28419Y-19174D01*
X-28333Y-19322D01*
X-28212Y-19443D01*
X-28064Y-19529D01*
X-28060Y-19530D01*
Y-19840D01*
X-28064Y-19841D01*
X-28212Y-19927D01*
X-28333Y-20048D01*
X-28419Y-20196D01*
X-28463Y-20361D01*
Y-20533D01*
X-28419Y-20698D01*
X-28333Y-20846D01*
X-28212Y-20967D01*
X-28064Y-21053D01*
X-28060Y-21054D01*
Y-21364D01*
X-28064Y-21365D01*
X-28212Y-21451D01*
X-28333Y-21572D01*
X-28419Y-21720D01*
X-28463Y-21885D01*
Y-22057D01*
X-28419Y-22222D01*
X-28333Y-22370D01*
X-28212Y-22491D01*
X-28064Y-22577D01*
X-27899Y-22621D01*
X-27727D01*
X-27562Y-22577D01*
X-27414Y-22491D01*
X-27293Y-22370D01*
X-27207Y-22222D01*
X-27163Y-22057D01*
Y-21885D01*
X-27207Y-21720D01*
X-27293Y-21572D01*
X-27414Y-21451D01*
X-27562Y-21365D01*
X-27566Y-21364D01*
Y-21054D01*
X-27562Y-21053D01*
X-27414Y-20967D01*
X-27293Y-20846D01*
X-27207Y-20698D01*
X-27163Y-20533D01*
Y-20361D01*
X-27207Y-20196D01*
X-27293Y-20048D01*
X-27414Y-19927D01*
X-27562Y-19841D01*
X-27566Y-19840D01*
Y-19530D01*
X-27562Y-19529D01*
X-27414Y-19443D01*
X-27293Y-19322D01*
X-27207Y-19174D01*
X-27163Y-19009D01*
Y-18837D01*
X-27207Y-18672D01*
X-27293Y-18524D01*
X-27414Y-18403D01*
X-27562Y-18317D01*
X-27566Y-18316D01*
Y-18006D01*
X-27562Y-18005D01*
X-27414Y-17919D01*
X-27293Y-17798D01*
X-27207Y-17650D01*
X-27163Y-17485D01*
Y-17313D01*
X-27207Y-17148D01*
X-27293Y-17000D01*
X-27414Y-16879D01*
X-27562Y-16793D01*
X-27727Y-16749D01*
X-27872D01*
X-27924Y-16669D01*
X-27990Y-16463D01*
X-27928Y-16401D01*
X-27842Y-16253D01*
X-27798Y-16088D01*
Y-15916D01*
X-27842Y-15751D01*
X-27928Y-15603D01*
X-28049Y-15482D01*
X-28197Y-15396D01*
X-28362Y-15352D01*
X-28534D01*
X-28699Y-15396D01*
X-28847Y-15482D01*
X-28895Y-15530D01*
X-29195Y-15426D01*
Y-15401D01*
X-29239Y-15236D01*
X-29325Y-15088D01*
X-29446Y-14967D01*
X-29594Y-14881D01*
X-29759Y-14837D01*
D02*
G37*
G36*
X-20031Y-3287D02*
X-20210D01*
X-20375Y-3356D01*
X-20502Y-3482D01*
X-20570Y-3648D01*
Y-3827D01*
X-20502Y-3992D01*
X-20403Y-4091D01*
Y-21174D01*
X-20570D01*
Y-21630D01*
X-20579Y-21674D01*
Y-21697D01*
X-20586Y-21731D01*
Y-22149D01*
X-20677D01*
Y-22700D01*
X-21194Y-23217D01*
X-21377D01*
X-21421Y-23226D01*
X-22177D01*
Y-24526D01*
X-20927D01*
Y-24119D01*
X-20828Y-24100D01*
X-20680Y-24000D01*
X-20028Y-23349D01*
X-19577D01*
Y-22149D01*
X-19668D01*
Y-21757D01*
X-19662Y-21724D01*
Y-21674D01*
X-19670Y-21630D01*
Y-21174D01*
X-19838D01*
Y-4091D01*
X-19739Y-3992D01*
X-19670Y-3827D01*
Y-3648D01*
X-19739Y-3482D01*
X-19865Y-3356D01*
X-20031Y-3287D01*
D02*
G37*
G36*
X-22527Y-23226D02*
X-23777D01*
Y-24526D01*
X-23611D01*
Y-25154D01*
X-23927D01*
Y-26154D01*
X-22927D01*
Y-25803D01*
X-22828Y-25703D01*
X-22728Y-25555D01*
X-22693Y-25379D01*
Y-24526D01*
X-22527D01*
Y-23226D01*
D02*
G37*
G36*
X-18960Y-28760D02*
X-19140D01*
X-19305Y-28829D01*
X-19431Y-28955D01*
X-19500Y-29120D01*
Y-29300D01*
X-19431Y-29465D01*
X-19305Y-29591D01*
X-19140Y-29660D01*
X-18960D01*
X-18795Y-29591D01*
X-18669Y-29465D01*
X-18600Y-29300D01*
Y-29120D01*
X-18669Y-28955D01*
X-18795Y-28829D01*
X-18960Y-28760D01*
D02*
G37*
G36*
X-18627Y-24149D02*
X-19727D01*
Y-24952D01*
X-20264Y-25490D01*
X-20325Y-25581D01*
X-20346Y-25688D01*
Y-28459D01*
X-20902Y-29014D01*
X-21045D01*
X-21210Y-29083D01*
X-21336Y-29209D01*
X-21405Y-29374D01*
Y-29554D01*
X-21336Y-29719D01*
X-21210Y-29845D01*
X-21045Y-29914D01*
X-20865D01*
X-20700Y-29845D01*
X-20574Y-29719D01*
X-20505Y-29554D01*
Y-29411D01*
X-19868Y-28773D01*
X-19807Y-28682D01*
X-19786Y-28575D01*
Y-25804D01*
X-19330Y-25349D01*
X-18627D01*
Y-24149D01*
D02*
G37*
G36*
X-23405Y-29903D02*
X-23585D01*
X-23750Y-29972D01*
X-23876Y-30098D01*
X-23945Y-30263D01*
Y-30443D01*
X-23876Y-30608D01*
X-23750Y-30734D01*
X-23585Y-30803D01*
X-23405D01*
X-23240Y-30734D01*
X-23114Y-30608D01*
X-23045Y-30443D01*
Y-30263D01*
X-23114Y-30098D01*
X-23240Y-29972D01*
X-23405Y-29903D01*
D02*
G37*
G36*
X-7897Y-31060D02*
X-8240D01*
X-8570Y-31149D01*
X-8831Y-31299D01*
X-9091Y-31149D01*
X-9421Y-31060D01*
X-9764D01*
X-10094Y-31149D01*
X-10291Y-31262D01*
X-10488Y-31149D01*
X-10818Y-31060D01*
X-11161D01*
X-11491Y-31149D01*
X-11688Y-31262D01*
X-11885Y-31149D01*
X-12215Y-31060D01*
X-12558D01*
X-12888Y-31149D01*
X-13185Y-31320D01*
X-13427Y-31562D01*
X-13598Y-31858D01*
X-13687Y-32189D01*
Y-32531D01*
X-13598Y-32862D01*
X-13521Y-32996D01*
X-13594Y-33123D01*
X-13683Y-33454D01*
Y-33796D01*
X-13594Y-34127D01*
X-13517Y-34260D01*
X-13594Y-34393D01*
X-13683Y-34724D01*
Y-35066D01*
X-13594Y-35397D01*
X-13517Y-35530D01*
X-13594Y-35663D01*
X-13683Y-35994D01*
Y-36336D01*
X-13594Y-36667D01*
X-13517Y-36800D01*
X-13594Y-36933D01*
X-13683Y-37264D01*
Y-37606D01*
X-13594Y-37937D01*
X-13423Y-38233D01*
X-13181Y-38475D01*
X-12884Y-38646D01*
X-12554Y-38735D01*
X-12211D01*
X-11881Y-38646D01*
X-11684Y-38533D01*
X-11487Y-38646D01*
X-11157Y-38735D01*
X-10814D01*
X-10484Y-38646D01*
X-10287Y-38533D01*
X-10090Y-38646D01*
X-9760Y-38735D01*
X-9417D01*
X-9087Y-38646D01*
X-8827Y-38496D01*
X-8566Y-38646D01*
X-8236Y-38735D01*
X-7893D01*
X-7563Y-38646D01*
X-7266Y-38475D01*
X-7024Y-38233D01*
X-6853Y-37937D01*
X-6765Y-37606D01*
Y-37264D01*
X-6853Y-36933D01*
X-6930Y-36800D01*
X-6853Y-36667D01*
X-6765Y-36336D01*
Y-35994D01*
X-6853Y-35663D01*
X-6930Y-35530D01*
X-6853Y-35397D01*
X-6765Y-35066D01*
Y-34724D01*
X-6853Y-34393D01*
X-6930Y-34260D01*
X-6853Y-34127D01*
X-6765Y-33796D01*
Y-33454D01*
X-6853Y-33123D01*
X-6931Y-32989D01*
X-6857Y-32862D01*
X-6769Y-32531D01*
Y-32189D01*
X-6857Y-31858D01*
X-7028Y-31562D01*
X-7270Y-31320D01*
X-7567Y-31149D01*
X-7897Y-31060D01*
D02*
G37*
G36*
X24978Y-31178D02*
X24799D01*
X24633Y-31247D01*
X24507Y-31373D01*
X24381Y-31247D01*
X24216Y-31178D01*
X24037D01*
X23871Y-31247D01*
X23745Y-31373D01*
X23676Y-31539D01*
X23676Y-31651D01*
X23503Y-31840D01*
X23326Y-31857D01*
X23198Y-31804D01*
X23019D01*
X22854Y-31873D01*
X22727Y-31999D01*
X22659Y-32165D01*
Y-32344D01*
X22727Y-32509D01*
X22853Y-32635D01*
X22727Y-32761D01*
X22659Y-32927D01*
Y-33106D01*
X22727Y-33271D01*
X22853Y-33397D01*
X22727Y-33523D01*
X22659Y-33689D01*
Y-33868D01*
X22727Y-34033D01*
X22853Y-34159D01*
X22727Y-34285D01*
X22572Y-34470D01*
X22393D01*
X22228Y-34538D01*
X22102Y-34664D01*
X21976Y-34538D01*
X21810Y-34470D01*
X21631D01*
X21466Y-34538D01*
X21339Y-34665D01*
X21271Y-34830D01*
Y-35009D01*
X21339Y-35175D01*
X21467Y-35449D01*
X21398Y-35614D01*
Y-35793D01*
X21467Y-35959D01*
X21548Y-36154D01*
X21438Y-36320D01*
X21369Y-36486D01*
Y-36665D01*
X21438Y-36830D01*
X21533Y-37020D01*
X21438Y-37209D01*
X21369Y-37375D01*
Y-37554D01*
X21396Y-37620D01*
X21404Y-37639D01*
X21245Y-37792D01*
X21163Y-37836D01*
X21023Y-37778D01*
X20844D01*
X20678Y-37847D01*
X20552Y-37974D01*
X20367Y-38194D01*
X20188D01*
X20022Y-38262D01*
X19896Y-38389D01*
X19827Y-38554D01*
Y-38733D01*
X19896Y-38899D01*
X20022Y-39025D01*
X20188Y-39094D01*
X20367D01*
X20532Y-39025D01*
X20659Y-38899D01*
X20844Y-38678D01*
X21023D01*
X21188Y-38610D01*
X21315Y-38483D01*
X21383Y-38318D01*
Y-38139D01*
X21356Y-38073D01*
X21348Y-38054D01*
X21507Y-37901D01*
X21590Y-37856D01*
X21730Y-37914D01*
X21909D01*
X22032Y-37863D01*
X22277Y-37772D01*
X22434Y-37878D01*
X22440Y-37885D01*
X22606Y-37953D01*
X22785D01*
X22950Y-37885D01*
X23077Y-37758D01*
X23145Y-37593D01*
Y-37414D01*
X23077Y-37248D01*
X22982Y-37059D01*
X23077Y-36869D01*
X23145Y-36704D01*
Y-36525D01*
X23077Y-36359D01*
X22982Y-36170D01*
X23077Y-35980D01*
X23145Y-35815D01*
Y-35636D01*
X23077Y-35470D01*
X22950Y-35344D01*
X22897Y-35240D01*
X23075Y-34990D01*
X23198D01*
X23364Y-34922D01*
X23490Y-34795D01*
X23559Y-34630D01*
Y-34451D01*
X23490Y-34285D01*
X23364Y-34159D01*
X23490Y-34033D01*
X23559Y-33868D01*
Y-33689D01*
X23490Y-33523D01*
X23364Y-33397D01*
X23490Y-33271D01*
X23559Y-33106D01*
Y-32927D01*
X23490Y-32761D01*
X23364Y-32635D01*
X23490Y-32509D01*
X23559Y-32344D01*
X23559Y-32231D01*
X23732Y-32043D01*
X23909Y-32025D01*
X24037Y-32078D01*
X24216D01*
X24381Y-32010D01*
X24507Y-31884D01*
X24633Y-32010D01*
X24799Y-32078D01*
X24978D01*
X25143Y-32010D01*
X25270Y-31883D01*
X25338Y-31718D01*
Y-31539D01*
X25270Y-31373D01*
X25143Y-31247D01*
X24978Y-31178D01*
D02*
G37*
G36*
X-22770Y-31554D02*
X-22950D01*
X-23115Y-31623D01*
X-23241Y-31749D01*
X-23310Y-31914D01*
Y-32094D01*
X-23241Y-32259D01*
X-23115Y-32385D01*
X-22950Y-32454D01*
X-22770D01*
X-22605Y-32385D01*
X-22479Y-32259D01*
X-22410Y-32094D01*
Y-31914D01*
X-22479Y-31749D01*
X-22605Y-31623D01*
X-22770Y-31554D01*
D02*
G37*
G36*
X25971Y-32287D02*
X25791D01*
X25626Y-32355D01*
X25500Y-32482D01*
X25431Y-32647D01*
Y-32826D01*
X25500Y-32992D01*
X25626Y-33118D01*
X25791Y-33187D01*
X25971D01*
X26136Y-33118D01*
X26262Y-32992D01*
X26331Y-32826D01*
Y-32647D01*
X26262Y-32482D01*
X26136Y-32355D01*
X25971Y-32287D01*
D02*
G37*
G36*
X-21231Y-33572D02*
X-21410D01*
X-21575Y-33641D01*
X-21702Y-33767D01*
X-21770Y-33933D01*
Y-34112D01*
X-21702Y-34277D01*
X-21575Y-34404D01*
X-21410Y-34472D01*
X-21231D01*
X-21065Y-34404D01*
X-20939Y-34277D01*
X-20870Y-34112D01*
Y-33933D01*
X-20939Y-33767D01*
X-21065Y-33641D01*
X-21231Y-33572D01*
D02*
G37*
G36*
X-22894Y-34343D02*
X-23073D01*
X-23238Y-34411D01*
X-23364Y-34537D01*
X-23490Y-34411D01*
X-23656Y-34343D01*
X-23835D01*
X-24000Y-34411D01*
X-24127Y-34538D01*
X-24195Y-34703D01*
Y-34882D01*
X-24127Y-35048D01*
X-24000Y-35174D01*
X-24127Y-35300D01*
X-24195Y-35465D01*
Y-35644D01*
X-24127Y-35810D01*
X-24000Y-35936D01*
X-24127Y-36062D01*
X-24195Y-36227D01*
Y-36406D01*
X-24127Y-36572D01*
X-24051Y-36647D01*
X-24021Y-36825D01*
X-24051Y-37002D01*
X-24127Y-37078D01*
X-24195Y-37243D01*
Y-37422D01*
X-24127Y-37588D01*
X-24000Y-37714D01*
X-23835Y-37783D01*
X-23656D01*
X-23490Y-37714D01*
X-23364Y-37588D01*
X-23238Y-37714D01*
X-23073Y-37783D01*
X-22894D01*
X-22728Y-37714D01*
X-22602Y-37588D01*
X-22533Y-37422D01*
Y-37243D01*
X-22602Y-37078D01*
X-22677Y-37002D01*
X-22707Y-36825D01*
X-22677Y-36647D01*
X-22602Y-36572D01*
X-22533Y-36406D01*
Y-36227D01*
X-22602Y-36062D01*
X-22728Y-35936D01*
X-22602Y-35810D01*
X-22533Y-35644D01*
Y-35465D01*
X-22602Y-35300D01*
X-22728Y-35174D01*
X-22602Y-35048D01*
X-22533Y-34882D01*
Y-34703D01*
X-22602Y-34538D01*
X-22728Y-34411D01*
X-22894Y-34343D01*
D02*
G37*
G36*
X-29353Y-33981D02*
X-29533D01*
X-29698Y-34050D01*
X-29824Y-34176D01*
X-29893Y-34342D01*
Y-34521D01*
X-29824Y-34686D01*
X-29698Y-34813D01*
X-29533Y-34881D01*
X-29353D01*
X-29188Y-34813D01*
X-29062Y-34686D01*
X-28993Y-34521D01*
Y-34342D01*
X-29062Y-34176D01*
X-29188Y-34050D01*
X-29353Y-33981D01*
D02*
G37*
G36*
X-19849Y-30792D02*
X-20029D01*
X-20194Y-30861D01*
X-20320Y-30987D01*
X-20389Y-31152D01*
Y-31332D01*
X-20320Y-31497D01*
X-20230Y-31588D01*
Y-34713D01*
X-20337Y-34820D01*
X-20405Y-34986D01*
Y-35165D01*
X-20337Y-35330D01*
X-20210Y-35457D01*
X-20045Y-35525D01*
X-19866D01*
X-19700Y-35457D01*
X-19574Y-35330D01*
X-19505Y-35165D01*
Y-34986D01*
X-19574Y-34820D01*
X-19665Y-34729D01*
Y-31604D01*
X-19558Y-31497D01*
X-19489Y-31332D01*
Y-31152D01*
X-19558Y-30987D01*
X-19684Y-30861D01*
X-19849Y-30792D01*
D02*
G37*
G36*
X34175Y-35490D02*
X33946D01*
X33916Y-35503D01*
X33883D01*
X33672Y-35590D01*
X33649Y-35613D01*
X33619Y-35625D01*
X33457Y-35787D01*
X33445Y-35817D01*
X33422Y-35840D01*
X33334Y-36052D01*
Y-36084D01*
X33322Y-36114D01*
Y-36343D01*
X33334Y-36373D01*
Y-36405D01*
X33422Y-36617D01*
X33445Y-36640D01*
X33457Y-36670D01*
X33619Y-36832D01*
X33649Y-36844D01*
X33672Y-36867D01*
X33883Y-36955D01*
X33916D01*
X33946Y-36967D01*
X34175D01*
X34205Y-36955D01*
X34237D01*
X34449Y-36867D01*
X34471Y-36844D01*
X34501Y-36832D01*
X34663Y-36670D01*
X34676Y-36640D01*
X34698Y-36617D01*
X34786Y-36405D01*
Y-36373D01*
X34799Y-36343D01*
Y-36114D01*
X34786Y-36084D01*
Y-36052D01*
X34698Y-35840D01*
X34676Y-35817D01*
X34663Y-35787D01*
X34501Y-35625D01*
X34471Y-35613D01*
X34449Y-35590D01*
X34237Y-35503D01*
X34205D01*
X34175Y-35490D01*
D02*
G37*
G36*
X-27088Y-38031D02*
X-27268D01*
X-27433Y-38100D01*
X-27496Y-38162D01*
X-27558Y-38100D01*
X-27723Y-38031D01*
X-27903D01*
X-28068Y-38100D01*
X-28194Y-38226D01*
X-28263Y-38391D01*
Y-38571D01*
X-28194Y-38736D01*
X-28068Y-38862D01*
X-27903Y-38931D01*
X-27723D01*
X-27558Y-38862D01*
X-27496Y-38800D01*
X-27433Y-38862D01*
X-27268Y-38931D01*
X-27139D01*
X-27065Y-38955D01*
X-26862Y-39162D01*
Y-39200D01*
X-26794Y-39366D01*
X-26667Y-39492D01*
X-26502Y-39561D01*
X-26323D01*
X-26157Y-39492D01*
X-26031Y-39366D01*
X-25905Y-39492D01*
X-25740Y-39561D01*
X-25561D01*
X-25395Y-39492D01*
X-25269Y-39366D01*
X-25200Y-39200D01*
Y-39021D01*
X-25269Y-38856D01*
X-25395Y-38729D01*
X-25561Y-38661D01*
X-25740D01*
X-25905Y-38729D01*
X-26031Y-38855D01*
X-26157Y-38729D01*
X-26323Y-38661D01*
X-26451D01*
X-26525Y-38636D01*
X-26728Y-38430D01*
Y-38391D01*
X-26797Y-38226D01*
X-26923Y-38100D01*
X-27088Y-38031D01*
D02*
G37*
G36*
X5625Y-30340D02*
X5283D01*
X4952Y-30429D01*
X4656Y-30600D01*
X4414Y-30842D01*
X4243Y-31138D01*
X4154Y-31469D01*
Y-31811D01*
X4243Y-32142D01*
X4263Y-32176D01*
X4117Y-32429D01*
X4028Y-32760D01*
Y-33102D01*
X4117Y-33433D01*
X4194Y-33566D01*
X4117Y-33699D01*
X4028Y-34030D01*
Y-34372D01*
X4117Y-34703D01*
X4230Y-34900D01*
X4117Y-35096D01*
X4028Y-35427D01*
Y-35769D01*
X4117Y-36100D01*
X4231Y-36298D01*
X4078Y-36563D01*
X3989Y-36894D01*
Y-37236D01*
X4078Y-37567D01*
X4249Y-37863D01*
X4491Y-38105D01*
X4787Y-38276D01*
X5118Y-38365D01*
X5460D01*
X5791Y-38276D01*
X5988Y-38163D01*
X6184Y-38276D01*
X6515Y-38365D01*
X6857D01*
X7188Y-38276D01*
X7484Y-38105D01*
X7486Y-38103D01*
X7488Y-38105D01*
X7784Y-38276D01*
X8115Y-38365D01*
X8457D01*
X8788Y-38276D01*
X9048Y-38126D01*
X9308Y-38276D01*
X9639Y-38365D01*
X9981D01*
X10312Y-38276D01*
X10608Y-38105D01*
X10850Y-37863D01*
X11021Y-37567D01*
X11110Y-37236D01*
Y-36894D01*
X11021Y-36563D01*
X10907Y-36365D01*
X11060Y-36100D01*
X11149Y-35769D01*
Y-35427D01*
X11060Y-35096D01*
X10947Y-34900D01*
X11060Y-34703D01*
X11149Y-34372D01*
Y-34030D01*
X11060Y-33699D01*
X11046Y-33675D01*
X11119Y-33549D01*
X11208Y-33218D01*
Y-32876D01*
X11119Y-32545D01*
X11006Y-32348D01*
X11119Y-32152D01*
X11208Y-31821D01*
Y-31479D01*
X11119Y-31148D01*
X10948Y-30852D01*
X10706Y-30610D01*
X10410Y-30439D01*
X10079Y-30350D01*
X9737D01*
X9406Y-30439D01*
X9110Y-30610D01*
X9108Y-30612D01*
X8827Y-30450D01*
X8496Y-30361D01*
X8154D01*
X7823Y-30450D01*
X7527Y-30621D01*
X7525Y-30623D01*
X7523Y-30621D01*
X7227Y-30450D01*
X6896Y-30361D01*
X6554D01*
X6223Y-30450D01*
X6108Y-30516D01*
X5956Y-30429D01*
X5625Y-30340D01*
D02*
G37*
G36*
X15245Y-37795D02*
X15066D01*
X14901Y-37863D01*
X14774Y-37990D01*
X14706Y-38155D01*
Y-38334D01*
X14774Y-38500D01*
X14901Y-38626D01*
X15066Y-38695D01*
X15245D01*
X15411Y-38626D01*
X15537Y-38500D01*
X15606Y-38334D01*
Y-38155D01*
X15537Y-37990D01*
X15411Y-37863D01*
X15245Y-37795D01*
D02*
G37*
G36*
X28030Y-38158D02*
X27850D01*
X27685Y-38227D01*
X27559Y-38353D01*
X27490Y-38518D01*
Y-38698D01*
X27559Y-38863D01*
X27685Y-38989D01*
X27850Y-39058D01*
X28030D01*
X28195Y-38989D01*
X28321Y-38863D01*
X28390Y-38698D01*
Y-38518D01*
X28321Y-38353D01*
X28195Y-38227D01*
X28030Y-38158D01*
D02*
G37*
G36*
X30035Y-39653D02*
X29855D01*
X29690Y-39721D01*
X29564Y-39848D01*
X29495Y-40013D01*
Y-40192D01*
X29564Y-40358D01*
X29690Y-40484D01*
X29855Y-40553D01*
X30035D01*
X30200Y-40484D01*
X30326Y-40358D01*
X30395Y-40192D01*
Y-40013D01*
X30326Y-39848D01*
X30200Y-39721D01*
X30035Y-39653D01*
D02*
G37*
G36*
X-23656Y-40439D02*
X-23835D01*
X-24000Y-40507D01*
X-24126Y-40633D01*
X-24252Y-40507D01*
X-24418Y-40439D01*
X-24597D01*
X-24762Y-40507D01*
X-24889Y-40634D01*
X-24957Y-40799D01*
Y-40978D01*
X-24889Y-41144D01*
X-24762Y-41270D01*
X-24597Y-41339D01*
X-24418D01*
X-24252Y-41270D01*
X-24126Y-41144D01*
X-24000Y-41270D01*
X-23835Y-41339D01*
X-23656D01*
X-23490Y-41270D01*
X-23364Y-41144D01*
X-23295Y-40978D01*
Y-40799D01*
X-23364Y-40634D01*
X-23490Y-40507D01*
X-23656Y-40439D01*
D02*
G37*
G36*
X2388Y-22301D02*
X2134D01*
X2019Y-22348D01*
X1972Y-22463D01*
Y-40624D01*
X2019Y-40739D01*
X2134Y-40786D01*
X2388D01*
X2503Y-40739D01*
X2550Y-40624D01*
Y-22463D01*
X2503Y-22348D01*
X2388Y-22301D01*
D02*
G37*
G36*
X-2286D02*
X-2540D01*
X-2655Y-22348D01*
X-2702Y-22463D01*
Y-40624D01*
X-2655Y-40739D01*
X-2540Y-40786D01*
X-2286D01*
X-2171Y-40739D01*
X-2124Y-40624D01*
Y-22463D01*
X-2171Y-22348D01*
X-2286Y-22301D01*
D02*
G37*
G36*
X-32158Y-36435D02*
X-32612D01*
X-33056Y-36523D01*
X-33474Y-36697D01*
X-33851Y-36948D01*
X-34172Y-37269D01*
X-34423Y-37646D01*
X-34597Y-38064D01*
X-34685Y-38508D01*
Y-38962D01*
X-34597Y-39406D01*
X-34423Y-39824D01*
X-34172Y-40201D01*
X-33851Y-40522D01*
X-33474Y-40773D01*
X-33056Y-40947D01*
X-32612Y-41035D01*
X-32158D01*
X-31714Y-40947D01*
X-31296Y-40773D01*
X-30919Y-40522D01*
X-30598Y-40201D01*
X-30347Y-39824D01*
X-30173Y-39406D01*
X-30085Y-38962D01*
Y-38508D01*
X-30173Y-38064D01*
X-30347Y-37646D01*
X-30598Y-37269D01*
X-30919Y-36948D01*
X-31296Y-36697D01*
X-31714Y-36523D01*
X-32158Y-36435D01*
D02*
G37*
G36*
X26760Y-40952D02*
X26580D01*
X26415Y-41021D01*
X26289Y-41147D01*
X26220Y-41312D01*
Y-41492D01*
X26289Y-41657D01*
X26415Y-41783D01*
X26580Y-41852D01*
X26760D01*
X26925Y-41783D01*
X27051Y-41657D01*
X27120Y-41492D01*
Y-41312D01*
X27051Y-41147D01*
X26925Y-41021D01*
X26760Y-40952D01*
D02*
G37*
G36*
X22315Y-40698D02*
X22135D01*
X21970Y-40767D01*
X21844Y-40893D01*
X21775Y-41058D01*
Y-41238D01*
X21844Y-41403D01*
X21970Y-41529D01*
X22135Y-41598D01*
X22315D01*
X22480Y-41529D01*
X22487Y-41523D01*
X22823Y-41605D01*
X22833Y-41628D01*
X22959Y-41754D01*
X23124Y-41823D01*
X23304D01*
X23420Y-41775D01*
X23469Y-41754D01*
X23469Y-41754D01*
X23749Y-41784D01*
X23806Y-41841D01*
X23875Y-41910D01*
X24040Y-41979D01*
X24220D01*
X24385Y-41910D01*
X24511Y-41784D01*
X24580Y-41619D01*
Y-41439D01*
X24511Y-41274D01*
X24385Y-41148D01*
X24220Y-41079D01*
X24040D01*
X23924Y-41127D01*
X23875Y-41148D01*
X23875Y-41147D01*
X23595Y-41118D01*
X23538Y-41060D01*
X23469Y-40991D01*
X23304Y-40923D01*
X23124D01*
X22959Y-40991D01*
X22952Y-40998D01*
X22616Y-40916D01*
X22606Y-40893D01*
X22480Y-40767D01*
X22315Y-40698D01*
D02*
G37*
%LPD*%
G36*
X1482Y15647D02*
X1561Y15631D01*
X1868D01*
X1947Y15647D01*
X2039Y15679D01*
X2294Y15530D01*
X2294Y15171D01*
X2198Y14911D01*
X1778D01*
X1661Y14888D01*
X1562Y14821D01*
X228Y13488D01*
X190Y13430D01*
X150Y13384D01*
X-127Y13275D01*
X-160Y13275D01*
X-164Y13277D01*
X-344D01*
X-509Y13208D01*
X-635Y13082D01*
X-850Y13048D01*
X-962Y13079D01*
X-1016Y13209D01*
X-1142Y13335D01*
X-1307Y13404D01*
X-1487D01*
X-1652Y13335D01*
X-1778Y13209D01*
X-1847Y13044D01*
Y12864D01*
X-1778Y12699D01*
X-1857Y12374D01*
X-1942Y12309D01*
X-2157D01*
X-2319Y12506D01*
X-2351Y12595D01*
X-2344Y12610D01*
Y12790D01*
X-2413Y12955D01*
X-2539Y13081D01*
X-2704Y13150D01*
X-2884D01*
X-3010Y13098D01*
X-3177Y13161D01*
X-3310Y13245D01*
Y14236D01*
X-3310Y14420D01*
X-3270Y14704D01*
X-2794D01*
X-2794Y14704D01*
X-2686Y14725D01*
X-2594Y14786D01*
X-2241Y15139D01*
X-1945Y15115D01*
X-1875Y15081D01*
X-1779Y14986D01*
X-1614Y14917D01*
X-1434D01*
X-1269Y14986D01*
X-1143Y15112D01*
X-1074Y15277D01*
Y15344D01*
X-1026Y15490D01*
X-822Y15631D01*
X-672D01*
X-593Y15647D01*
X-527Y15691D01*
X-489D01*
X-423Y15647D01*
X-344Y15631D01*
X-321D01*
X-69Y15457D01*
Y15277D01*
X-0Y15112D01*
X126Y14986D01*
X291Y14917D01*
X471D01*
X636Y14986D01*
X762Y15112D01*
X831Y15277D01*
Y15344D01*
X879Y15490D01*
X1083Y15631D01*
X1233D01*
X1312Y15647D01*
X1378Y15691D01*
X1416D01*
X1482Y15647D01*
D02*
G37*
G36*
X-9244Y12165D02*
Y10160D01*
X-11176D01*
X-11938Y9398D01*
X-13462Y9398D01*
X-13589Y9525D01*
Y11684D01*
X-12573Y12700D01*
X-9779D01*
X-9244Y12165D01*
D02*
G37*
G36*
X-4310Y15436D02*
Y14720D01*
X-4310Y14536D01*
X-4310Y14236D01*
Y13824D01*
X-4326Y13531D01*
X-5326D01*
Y12815D01*
X-5326Y12631D01*
X-5326Y12331D01*
Y11615D01*
X-5276D01*
Y11467D01*
X-5207Y11302D01*
X-5081Y11176D01*
X-4916Y11107D01*
X-4736D01*
X-4571Y11176D01*
X-4495Y11251D01*
X-4318Y11281D01*
X-4156Y11254D01*
X-4056Y11118D01*
Y10218D01*
X-4056D01*
Y10102D01*
X-4056D01*
Y9202D01*
X-4308Y9086D01*
X-4582D01*
X-4824Y9197D01*
X-4834Y9379D01*
Y10102D01*
X-5387D01*
X-5689Y10403D01*
Y15210D01*
X-5218Y15681D01*
X-4443D01*
X-4310Y15436D01*
D02*
G37*
G36*
X23495Y26416D02*
Y21336D01*
X22733Y20574D01*
X16764D01*
X16002Y21336D01*
Y27559D01*
X22352D01*
X23495Y26416D01*
D02*
G37*
%LPC*%
G36*
X-10451Y-8186D02*
X-10631D01*
X-10796Y-8255D01*
X-10922Y-8381D01*
X-11048Y-8255D01*
X-11213Y-8186D01*
X-11393D01*
X-11558Y-8255D01*
X-11684Y-8381D01*
X-11753Y-8546D01*
Y-8726D01*
X-11772Y-8934D01*
X-11933Y-9014D01*
X-11939Y-9017D01*
X-12065Y-9143D01*
X-12134Y-9308D01*
Y-9488D01*
X-12065Y-9653D01*
X-11939Y-9779D01*
X-11811Y-9905D01*
X-11880Y-10070D01*
Y-10250D01*
X-11811Y-10415D01*
X-11685Y-10541D01*
X-11520Y-10610D01*
X-11340D01*
X-11175Y-10541D01*
X-11049Y-10415D01*
X-10923Y-10541D01*
X-10758Y-10610D01*
X-10578D01*
X-10413Y-10541D01*
X-10287Y-10415D01*
X-10218Y-10250D01*
Y-10070D01*
X-10287Y-9905D01*
X-10413Y-9779D01*
X-10541Y-9653D01*
X-10472Y-9488D01*
Y-9308D01*
X-10453Y-9100D01*
X-10292Y-9020D01*
X-10286Y-9017D01*
X-10160Y-8891D01*
X-10091Y-8726D01*
Y-8546D01*
X-10160Y-8381D01*
X-10286Y-8255D01*
X-10451Y-8186D01*
D02*
G37*
%LPD*%
D10*
X4264Y-4702D02*
G03*
X4318Y-4572I-130J130D01*
G01*
X-1397Y-9883D02*
G03*
X-1470Y-9706I-250J0D01*
G01*
X4846Y-5830D02*
G03*
X5023Y-5757I0J250D01*
G01*
X-14798Y-216D02*
G03*
X-14621Y-143I0J250D01*
G01*
X12637Y-2477D02*
X13081Y-2032D01*
X12637Y-3239D02*
Y-2477D01*
X12192Y-3683D02*
X12637Y-3239D01*
X10572Y-3683D02*
X12192D01*
X8794Y-5461D02*
X10572Y-3683D01*
X13081Y-2032D02*
X14351D01*
X-9652Y-4445D02*
X-8255D01*
Y-5207D02*
Y-4445D01*
X-6222Y30860D02*
X-2921Y27559D01*
X-6222Y30860D02*
Y32666D01*
X-2667Y35179D02*
X-2547D01*
X-4191Y33655D02*
X-2667Y35179D01*
X-5233Y33655D02*
X-4191D01*
X-6222Y32666D02*
X-5233Y33655D01*
X9779Y11430D02*
Y12507D01*
X9819Y12547D01*
Y13107D01*
X9779Y13147D02*
X9819Y13107D01*
X9144Y12827D02*
Y16314D01*
X9779Y13147D02*
Y15875D01*
X12446Y8574D02*
X12508Y8636D01*
X11833Y2711D02*
Y9547D01*
X12446Y3175D02*
Y8574D01*
X11833Y2711D02*
X13781Y762D01*
X14986D01*
X12446Y3175D02*
X14097Y1524D01*
X14986Y10579D02*
X15289D01*
X11214D02*
X14986D01*
X7620Y6985D02*
X11214Y10579D01*
X16891Y-4064D02*
Y889D01*
X14097Y1524D02*
X16256D01*
X16891Y889D01*
X19177Y1270D02*
X25270D01*
X18101Y194D02*
X19177Y1270D01*
X19097Y0D02*
X25270D01*
X17918Y194D02*
X18101D01*
X17851Y127D02*
X17918Y194D01*
X9779Y15875D02*
X14478Y20574D01*
Y34417D01*
X9144Y16314D02*
X13716Y20886D01*
Y34036D01*
X12226Y35526D02*
X13716Y34036D01*
X11131Y35526D02*
X12226D01*
X11081Y35476D02*
X11131Y35526D01*
X10250Y35476D02*
X11081D01*
X9953Y35179D02*
X10250Y35476D01*
X-2921Y21971D02*
Y27559D01*
X-11684Y18669D02*
X-6223D01*
X-2921Y21971D01*
X-14097Y16256D02*
X-11684Y18669D01*
X-14605Y12954D02*
X-14097Y13462D01*
X-14605Y8128D02*
X-12867Y6390D01*
X-14605Y8128D02*
Y12954D01*
X-14097Y13462D02*
Y16256D01*
X-8255Y-5207D02*
X-7132Y-6330D01*
X-3400D01*
Y-6430D02*
X-3175D01*
X-12867Y6009D02*
X-12827Y5969D01*
X-12867Y6009D02*
Y6390D01*
X-13716Y4572D02*
X5461D01*
X8509Y1524D01*
X-14097Y4953D02*
X-13716Y4572D01*
X-16256Y-216D02*
X-14798D01*
X-14621Y-143D02*
X-11557Y2921D01*
X-14832Y-260D02*
X-14732D01*
X12446Y36449D02*
X14478Y34417D01*
X4064Y6985D02*
X7620D01*
X-944Y544D02*
X-925D01*
X-1782Y1382D02*
X-944Y544D01*
X-11318Y2101D02*
X-8481D01*
X-11339Y2123D02*
X-11318Y2101D01*
X-925Y544D02*
X250Y-631D01*
X-7762Y1382D02*
X-1782D01*
X250Y-1680D02*
Y-631D01*
X495Y-119D02*
Y1524D01*
X2609Y34D02*
Y263D01*
X2575Y0D02*
X2609Y34D01*
X5165Y-3937D02*
X5873Y-3229D01*
X4140Y-3937D02*
X5165D01*
X3847Y-4230D02*
X4140Y-3937D01*
X3775Y-4230D02*
X3847D01*
X3675Y-4330D02*
X3775Y-4230D01*
X3400Y-4330D02*
X3675D01*
X4136Y-4830D02*
X4264Y-4702D01*
X3400Y-4830D02*
X4136D01*
X7112Y-4572D02*
X7784Y-5244D01*
X5207Y-4572D02*
X7112D01*
X4426Y-5352D02*
X5207Y-4572D01*
X7784Y-5244D02*
X8001Y-5461D01*
X-1397Y-10922D02*
Y-9883D01*
X-2251Y-11776D02*
X-1397Y-10922D01*
X381Y3175D02*
X1250Y2306D01*
X-2286Y3175D02*
X381D01*
X-3429Y2032D02*
X-2286Y3175D01*
X-6627Y-870D02*
X-6266Y-508D01*
X-2159D01*
X-1750Y-917D01*
X1250Y-1680D02*
Y2306D01*
X1750Y-1680D02*
Y1750D01*
X3302Y3302D01*
X29468Y-5842D02*
X29614Y-5696D01*
X16129Y-4445D02*
X17526Y-5842D01*
X29614Y-5696D02*
Y-5325D01*
X17526Y-5842D02*
X29468D01*
X29340Y-5080D02*
X29369D01*
X29614Y-5325D01*
X-1198Y12887D02*
X-826Y12515D01*
X-1330Y12887D02*
X-1198D01*
X-1397Y12954D02*
X-1330Y12887D01*
X-826Y11335D02*
Y12515D01*
X-11557Y2921D02*
X-8382D01*
X-7493Y2032D01*
X-11877Y1435D02*
X-11264Y2047D01*
X-12027Y1435D02*
X-11877D01*
X-8481Y2101D02*
X-7762Y1382D01*
X-12573Y889D02*
X-12027Y1435D01*
X-5969Y15326D02*
X-5334Y15961D01*
X-5969Y10287D02*
Y15326D01*
Y10287D02*
X-5559Y9877D01*
Y9827D02*
Y9877D01*
Y9827D02*
X-5384Y9652D01*
X-5334D01*
Y15961D02*
X-2810D01*
X18422Y-40391D02*
X18489Y-40458D01*
X18422Y-40391D02*
Y-40237D01*
X17526Y-39342D02*
X18422Y-40237D01*
X17526Y-39342D02*
Y-36830D01*
X14732Y-34036D02*
X17526Y-36830D01*
X14732Y-34036D02*
Y-13208D01*
X16240Y-11700D01*
X17526D01*
X-11938Y-1778D02*
Y-635D01*
X-9218Y85D02*
X-9166Y136D01*
X-12573Y-2794D02*
Y889D01*
X-9166Y136D02*
X-8580D01*
X8509Y-4318D02*
Y1524D01*
X-5421Y5209D02*
X-5296Y5334D01*
X8890D01*
X-6096Y5197D02*
X-6084Y5209D01*
X-5421D01*
X8890Y5334D02*
X10033Y6477D01*
X3302Y6223D02*
X4064Y6985D01*
X-6627Y-920D02*
Y-870D01*
X23517Y10414D02*
X24781D01*
X16488Y10579D02*
X16764Y10303D01*
X15289Y10579D02*
X16488D01*
X16828Y10303D02*
X18193D01*
X18304Y10414D01*
X15494Y-3937D02*
Y-3175D01*
X14351Y-2032D02*
X15494Y-3175D01*
X-1750Y-1680D02*
Y-917D01*
X-7346Y99D02*
X-1877D01*
X-1250Y-528D01*
Y-1680D02*
Y-528D01*
X-8763Y1651D02*
X-8001Y889D01*
X-2028D01*
X-250Y-889D01*
X-7658Y-904D02*
X-7643Y-920D01*
X-8367Y-904D02*
X-7658D01*
X-8382Y-889D02*
X-8367Y-904D01*
X-11938Y-635D02*
Y381D01*
X-10668Y1651D01*
X-8763D01*
X-7493Y2032D02*
X-3429D01*
X-7239Y-4953D02*
Y-2667D01*
Y-4953D02*
X-6362Y-5830D01*
X-4826Y13081D02*
X-3810D01*
Y13970D01*
X-2810Y15961D02*
X-2730Y16041D01*
Y16605D01*
X18589Y-508D02*
X19097Y0D01*
X4455Y-2330D02*
X4550Y-2425D01*
X4832Y-6350D02*
X4954Y-6472D01*
X4318Y-6350D02*
X4832D01*
X3400Y-2330D02*
X4455D01*
X2750Y-1680D02*
Y-1405D01*
X3400Y-6330D02*
X4298D01*
X4318Y-6350D01*
X-2750Y-8719D02*
Y-8480D01*
X-3340Y-9309D02*
X-2750Y-8719D01*
X-2921Y17984D02*
Y18034D01*
Y17984D02*
X-2730Y17794D01*
Y16605D02*
Y17794D01*
X1111Y16637D02*
Y18002D01*
X1079Y16605D02*
X1111Y16637D01*
X-1750Y-9426D02*
X-1470Y-9706D01*
X-1750Y-9426D02*
Y-8480D01*
X1250Y-9251D02*
Y-8480D01*
Y-9251D02*
X1524Y-9525D01*
X4761D01*
X5050Y-9420D02*
Y-9370D01*
X4875Y-9595D02*
X5050Y-9420D01*
X4761Y-9595D02*
X4875D01*
X4216Y-10139D02*
X4761Y-9595D01*
X4166Y-10139D02*
X4216D01*
X3224D02*
X4166D01*
X750Y-8755D02*
Y-8480D01*
X16129Y-4445D02*
Y254D01*
X15661Y722D02*
X16129Y254D01*
X16891Y-4064D02*
X17907Y-5080D01*
X25270D01*
X24000Y-3937D02*
X25270Y-3810D01*
X18161Y-3937D02*
X24000D01*
X15026Y722D02*
X15661D01*
X14986Y762D02*
X15026Y722D01*
X31953Y-3810D02*
X32195Y-3568D01*
X29340Y-3810D02*
X31953D01*
X7239Y-7366D02*
X8255Y-6350D01*
X5023Y-5757D02*
X5201Y-5579D01*
X3400Y-5830D02*
X4846D01*
X2250Y-894D02*
X2843Y-301D01*
X2250Y-1680D02*
Y-894D01*
X-3910Y-2830D02*
X-3400D01*
X-2265Y-9140D02*
X-2234Y-9110D01*
X-2250Y-9094D02*
Y-8480D01*
X-2265Y-9364D02*
Y-9140D01*
X-2438Y-9585D02*
X-2412Y-9559D01*
X-2460Y-9559D02*
X-2265Y-9364D01*
X-2412Y-10494D02*
X-2386Y-10468D01*
X3699Y-5352D02*
X4426D01*
X8001Y-5461D02*
X8794D01*
X-5334Y-4572D02*
X-5076Y-4830D01*
X-3400D01*
X-5624Y-5330D02*
X-3400D01*
X-5874Y-5080D02*
X-5624Y-5330D01*
X-5969Y-5080D02*
X-5874D01*
X-6362Y-5830D02*
X-3400D01*
X-20955Y-29464D02*
X-20066Y-28575D01*
Y-25688D01*
X-19177Y-24799D01*
X-17488Y-254D02*
X-16294D01*
X-250Y-1680D02*
Y-889D01*
X-20901Y-254D02*
X-19707D01*
X-4060Y-3330D02*
X-3400D01*
X-4279Y-3549D02*
X-4060Y-3330D01*
X-3166Y-1687D02*
X-2750Y-1680D01*
X4544Y-6830D02*
X5080Y-7366D01*
X7239D01*
X3400Y-6830D02*
X4544D01*
D11*
X20231Y-17378D02*
X20633Y-17780D01*
X20231Y-17378D02*
Y-16256D01*
X18483Y-16108D02*
X18631Y-16256D01*
X18483Y-16108D02*
Y-14957D01*
X18476Y-14950D02*
X18483Y-14957D01*
X18476Y-14950D02*
Y-13700D01*
X20223Y-12311D02*
X21262Y-11272D01*
X18476Y-13650D02*
X19815Y-12311D01*
X21262Y-11272D02*
Y-8308D01*
X19685Y-6731D02*
X21262Y-8308D01*
X19815Y-12311D02*
X20223D01*
D17*
X4826Y-15560D02*
G03*
X4618Y-15058I-710J0D01*
G01*
X4709Y-20056D02*
G03*
X4826Y-19773I-283J283D01*
G01*
X-3511Y-10742D02*
G03*
X-3318Y-11084I400J0D01*
G01*
X-5680Y-1701D02*
X-4713D01*
X10922Y8201D02*
X11049Y8074D01*
X10922Y8201D02*
Y8255D01*
X11049Y-1397D02*
Y8074D01*
X22987Y2159D02*
X23368Y2540D01*
X25270D01*
X-5047Y32179D02*
X-733Y27865D01*
Y22204D02*
Y27865D01*
X-2871Y20066D02*
X-733Y22204D01*
X-2921Y20066D02*
X-2871D01*
X1270Y23114D02*
Y28362D01*
X-2547Y32179D02*
X1270Y28362D01*
X29340Y1270D02*
X30535Y1440D01*
X33631Y1387D02*
X34320Y2076D01*
X31414Y1723D02*
X32656D01*
X30535Y1440D02*
X31414Y1723D01*
X32656D02*
X33299Y1387D01*
X33631Y1387D01*
X31626Y-1693D02*
X31920D01*
X32195Y-1968D01*
X31203Y-1270D02*
X31626Y-1693D01*
X29340Y-1270D02*
X31203D01*
X3369Y-12768D02*
X3563D01*
X3073Y-12472D02*
X3369Y-12768D01*
X3013Y-12472D02*
X3073D01*
X2975Y-12434D02*
X3013Y-12472D01*
X-14732Y-2921D02*
Y-2345D01*
X14986Y12759D02*
Y13589D01*
X3563Y-19624D02*
Y-17414D01*
X3224Y-19964D02*
X3563Y-19624D01*
X3224Y-20018D02*
Y-19964D01*
X3497Y-17348D02*
X3563D01*
X3497D02*
X3563Y-17414D01*
X3261Y-17112D02*
Y-17057D01*
X3079Y-16876D02*
X3261Y-17057D01*
X3079Y-16876D02*
Y-16822D01*
X3261Y-17112D02*
X3497Y-17348D01*
X17526Y-17780D02*
X18483D01*
X-21082Y-26162D02*
Y-26108D01*
X-21127Y-26063D02*
X-21082Y-26108D01*
X-21127Y-26063D02*
Y-25804D01*
X-21277Y-25654D02*
X-21127Y-25804D01*
X1270Y23114D02*
X3429Y20955D01*
Y18542D02*
Y20955D01*
X-3021Y18950D02*
X-2921Y19050D01*
X-3529Y18950D02*
X-3021D01*
X-3837Y18642D02*
X-3529Y18950D01*
X-3837Y18134D02*
Y18642D01*
X-3937Y18034D02*
X-3837Y18134D01*
X16764Y12103D02*
Y13335D01*
X16906Y-14972D02*
X17452D01*
X17467Y-14957D01*
X16891Y-14986D02*
X16906Y-14972D01*
X16002Y-14097D02*
X16513Y-13587D01*
X16639D01*
X8152Y-8184D02*
Y-7977D01*
X11011Y-4737D02*
X11049Y-4699D01*
X11011Y-5118D02*
Y-4737D01*
X8152Y-7977D02*
X11011Y-5118D01*
X6966Y-9370D02*
X8152Y-8184D01*
X6066Y-9370D02*
X6966D01*
X-1524Y-19431D02*
Y-16383D01*
Y-19431D02*
X381Y-21336D01*
X-5334Y8636D02*
X-4318D01*
X-1465Y11340D02*
X-1461Y11335D01*
X-3352Y8636D02*
X-3302D01*
X-3556Y8840D02*
X-3352Y8636D01*
X-3556Y8840D02*
Y9652D01*
X-4318Y8636D02*
X-3302D01*
X-2351Y8736D02*
X-2159Y8928D01*
X-3202Y8736D02*
X-2351D01*
X-3302Y8636D02*
X-3202Y8736D01*
X-2134Y8928D02*
X-1859Y9203D01*
Y9571D02*
X-1461Y9969D01*
X-1859Y9203D02*
Y9571D01*
X-1461Y9969D02*
Y11335D01*
X7052Y36957D02*
X7453Y36556D01*
X5499Y36957D02*
X7052D01*
X4826Y-15560D02*
X4826Y-19773D01*
X3429Y-21336D02*
X4709Y-20056D01*
X381Y-21336D02*
X3429D01*
X-3454Y-10344D02*
X-3349Y-10461D01*
X-3318Y-11084D02*
X-3175Y-11171D01*
X-3454Y-9709D02*
X-3428Y-9559D01*
X-3454Y-10344D02*
Y-9709D01*
X-3511Y-10644D02*
X-3428Y-10494D01*
X-3511Y-10742D02*
Y-10644D01*
X1714Y16605D02*
Y16632D01*
X1719Y16637D01*
X2413D01*
X3752Y15712D02*
X3810D01*
X3743Y15721D02*
X3752Y15712D01*
X3743Y15721D02*
Y16273D01*
X3429Y16587D02*
X3743Y16273D01*
X3429Y16587D02*
Y16637D01*
X2159Y19050D02*
Y19939D01*
Y18034D02*
Y18923D01*
X3429Y16465D02*
Y17526D01*
X-3937Y17018D02*
Y18034D01*
X-2438Y-10487D02*
Y-9585D01*
X3124Y-11056D02*
X3224Y-11156D01*
X2602Y-11056D02*
X3124D01*
X2286Y-10740D02*
X2602Y-11056D01*
X2286Y-10740D02*
Y-10287D01*
X3224Y-11156D02*
X4166D01*
X7453Y35179D02*
Y36556D01*
X-21717Y-21717D02*
X-21695Y-21695D01*
X-21158D01*
X-21136Y-21674D01*
X-18227Y-21910D02*
X-18161Y-21844D01*
X-18227Y-22749D02*
Y-21910D01*
X-16256Y-2091D02*
X-16250Y-1807D01*
X-16256Y-2540D02*
Y-2091D01*
X-4559Y-2710D02*
X-4539D01*
X-4419Y-2830D01*
X-5680Y-2717D02*
X-4713D01*
X-4419Y-2830D02*
X-3910D01*
X-4713Y-2717D02*
X-4713Y-2717D01*
X-5680Y-2717D02*
X-5680Y-2717D01*
D18*
X-30179Y23485D02*
G03*
X-30179Y23485I-1000J0D01*
G01*
X-7679D02*
G03*
X-7679Y23485I-1000J0D01*
G01*
X31717D02*
G03*
X31717Y23485I-1000J0D01*
G01*
X9217D02*
G03*
X9217Y23485I-1000J0D01*
G01*
X-32559Y13208D02*
X-29520D01*
X-25090D02*
X-22559D01*
X31607Y13656D02*
X32055Y13208D01*
X29199Y13656D02*
X31607D01*
X29139Y13716D02*
X29199Y13656D01*
X22055Y13208D02*
X22503Y13656D01*
X24649D01*
X24709Y13716D01*
D26*
X-2159Y7328D02*
D03*
X-635D02*
D03*
Y8928D02*
D03*
X-2159D02*
D03*
X32195Y-1968D02*
D03*
Y-3568D02*
D03*
D30*
X24781Y10414D02*
D03*
X26781D02*
D03*
X18304D02*
D03*
X20304D02*
D03*
X21517D02*
D03*
X23517D02*
D03*
X-17907Y-254D02*
D03*
X-19907D02*
D03*
X-21225D02*
D03*
X-23225D02*
D03*
X-24527D02*
D03*
X-26527D02*
D03*
D31*
X16764Y12303D02*
D03*
Y10303D02*
D03*
X-16256Y-2016D02*
D03*
Y-16D02*
D03*
D32*
X20633Y-17780D02*
D03*
X18483D02*
D03*
X-23427Y-25654D02*
D03*
X-21277D02*
D03*
D33*
X-18669Y12700D02*
D03*
Y15367D02*
D03*
X-16017Y19487D02*
D03*
X-23495Y38989D02*
D03*
Y40513D02*
D03*
X-26416Y39243D02*
D03*
Y40513D02*
D03*
X25527Y39624D02*
D03*
Y41148D02*
D03*
X22606D02*
D03*
Y39878D02*
D03*
X25654Y26543D02*
D03*
X25781Y21971D02*
D03*
X26289Y24257D02*
D03*
X21844Y26416D02*
D03*
X19033Y35481D02*
D03*
X20908Y34174D02*
D03*
X19776Y32192D02*
D03*
X20320Y23368D02*
D03*
X18669D02*
D03*
X17145D02*
D03*
X20320Y25400D02*
D03*
X18669D02*
D03*
X17145D02*
D03*
Y27432D02*
D03*
X18669D02*
D03*
X20320D02*
D03*
X-22479Y24765D02*
D03*
Y26162D02*
D03*
X-24003D02*
D03*
X-24048Y24745D02*
D03*
X29591Y-15487D02*
D03*
X28194Y-16002D02*
D03*
X29591Y-20059D02*
D03*
Y-18535D02*
D03*
Y-17011D02*
D03*
Y-24384D02*
D03*
Y-22991D02*
D03*
Y-21610D02*
D03*
X28112Y-23568D02*
D03*
X27559Y-20447D02*
D03*
Y-18923D02*
D03*
Y-21971D02*
D03*
Y-17399D02*
D03*
X-28448Y-16002D02*
D03*
X-29845Y-17011D02*
D03*
X-27813Y-17399D02*
D03*
X-29845Y-15487D02*
D03*
X-27813Y-18923D02*
D03*
X-29845Y-20059D02*
D03*
X-27813Y-20447D02*
D03*
X-29845Y-18535D02*
D03*
X-27813Y-21971D02*
D03*
X-29845Y-21610D02*
D03*
Y-22991D02*
D03*
X-28366Y-23568D02*
D03*
X-29845Y-24384D02*
D03*
D34*
X3899Y36957D02*
D03*
X18631Y-16256D02*
D03*
X20231D02*
D03*
X-21552Y-23876D02*
D03*
X-23152D02*
D03*
X17183Y39370D02*
D03*
X15583D02*
D03*
X18834Y34417D02*
D03*
X5499Y36957D02*
D03*
X17234Y34417D02*
D03*
D35*
X1524Y9906D02*
D03*
X3810Y13716D02*
D03*
X1143Y20066D02*
D03*
X-4953Y17018D02*
D03*
X1143Y19050D02*
D03*
X-7346Y99D02*
D03*
X-8362D02*
D03*
X4550Y-2225D02*
D03*
X3800Y-412D02*
D03*
X3800Y488D02*
D03*
X-10922Y-1778D02*
D03*
X-11557Y-2794D02*
D03*
X-3428Y-9559D02*
D03*
X-3428Y-10494D02*
D03*
X-2024Y18028D02*
D03*
X508Y9906D02*
D03*
X2794Y13716D02*
D03*
X-2921Y18034D02*
D03*
X1143D02*
D03*
X2413Y16637D02*
D03*
X-1008Y18028D02*
D03*
X-7643Y-920D02*
D03*
X-11938Y-1778D02*
D03*
X-12573Y-2794D02*
D03*
X2159Y19050D02*
D03*
X3429Y16637D02*
D03*
X-3937Y17018D02*
D03*
X-6627Y-920D02*
D03*
X2159Y20066D02*
D03*
X-3937Y18034D02*
D03*
X2159D02*
D03*
X5566Y-2225D02*
D03*
X2784Y488D02*
D03*
X2784Y-412D02*
D03*
X-762Y1778D02*
D03*
X-2412Y-9559D02*
D03*
X-2412Y-10494D02*
D03*
X18483Y-14957D02*
D03*
X-20120Y-21674D02*
D03*
X17467Y-14957D02*
D03*
X-21136Y-21674D02*
D03*
X5050Y-9370D02*
D03*
X6066D02*
D03*
X254Y1778D02*
D03*
D53*
X15453Y36679D02*
D03*
X-15547D02*
D03*
D54*
X32055Y13208D02*
D03*
X22055D02*
D03*
X-22559D02*
D03*
X-32559D02*
D03*
D56*
X10160Y-2159D02*
D03*
X11938D02*
D03*
X-8763Y-3429D02*
D03*
X10922Y8255D02*
D03*
X22098Y3683D02*
D03*
X21209D02*
D03*
X27432Y4445D02*
D03*
X-14732Y4064D02*
D03*
X-10541Y7620D02*
D03*
X27940Y-38608D02*
D03*
X3302Y3302D02*
D03*
X2575Y0D02*
D03*
X32035Y223D02*
D03*
X34320Y2076D02*
D03*
X-8069Y-32360D02*
D03*
X-12383Y-37435D02*
D03*
X-10986Y-36165D02*
D03*
X-9593Y-32360D02*
D03*
X-12383Y-33625D02*
D03*
X-8065Y-37435D02*
D03*
Y-34895D02*
D03*
X-12383D02*
D03*
X-8065Y-33625D02*
D03*
X-10986D02*
D03*
X-9589Y-34895D02*
D03*
X-10986Y-37435D02*
D03*
X-9589D02*
D03*
Y-36165D02*
D03*
X-10990Y-32360D02*
D03*
X-8065Y-36165D02*
D03*
X-10986Y-34895D02*
D03*
X-9589Y-33625D02*
D03*
X-12383Y-36165D02*
D03*
X-12387Y-32360D02*
D03*
X2975Y-12434D02*
D03*
X381Y15367D02*
D03*
X-2794Y12700D02*
D03*
X-10541Y13848D02*
D03*
X-9271Y13970D02*
D03*
X-1524Y15367D02*
D03*
X4311Y14344D02*
D03*
X4318Y13462D02*
D03*
X-3810Y11557D02*
D03*
X-4826D02*
D03*
X9398Y39497D02*
D03*
X1270Y8001D02*
D03*
X-7762Y17074D02*
D03*
X-12827Y7747D02*
D03*
X-10922Y17526D02*
D03*
X3175Y10414D02*
D03*
X-2794Y7620D02*
D03*
X-1407Y7496D02*
D03*
X4318Y-4572D02*
D03*
X-2251Y-11776D02*
D03*
X-12573Y12065D02*
D03*
Y10922D02*
D03*
X-1397Y12954D02*
D03*
X-254Y12827D02*
D03*
X-14732Y-2921D02*
D03*
X14986Y13589D02*
D03*
X3224Y-20018D02*
D03*
X3079Y-16822D02*
D03*
X-11264Y2047D02*
D03*
X17526Y-17780D02*
D03*
X-21082Y-26162D02*
D03*
X-18728Y8951D02*
D03*
X16764Y13335D02*
D03*
X-9779Y11816D02*
D03*
X-13208Y11435D02*
D03*
X18489Y-40458D02*
D03*
X16891Y-14986D02*
D03*
X16002Y-14097D02*
D03*
X19685Y-6731D02*
D03*
X-9218Y85D02*
D03*
X-11938Y-635D02*
D03*
X-6096Y5197D02*
D03*
X3302Y6223D02*
D03*
X-16764Y9271D02*
D03*
X-22098Y9652D02*
D03*
Y8636D02*
D03*
Y7366D02*
D03*
X16891Y2032D02*
D03*
X16092Y3212D02*
D03*
X17611Y3284D02*
D03*
X13843Y8382D02*
D03*
X10033Y6477D02*
D03*
X-5219Y-1205D02*
D03*
X28194Y10414D02*
D03*
X-27178Y-38481D02*
D03*
X-27813D02*
D03*
X-35179Y-31496D02*
D03*
X-14097Y4953D02*
D03*
X9906Y-10541D02*
D03*
Y-9652D02*
D03*
Y-8763D02*
D03*
X10922D02*
D03*
Y-9652D02*
D03*
Y-10541D02*
D03*
X-8382Y-889D02*
D03*
X-7239Y-2667D02*
D03*
X-23241Y9652D02*
D03*
X-24384D02*
D03*
X-23241Y7366D02*
D03*
X-24384D02*
D03*
X24257Y4826D02*
D03*
X23241D02*
D03*
X21209D02*
D03*
X22225D02*
D03*
X-1524Y-16383D02*
D03*
X5228Y-6461D02*
D03*
X10922Y-15439D02*
D03*
X-10795Y-2159D02*
D03*
X-3175Y-11171D02*
D03*
X18589Y-508D02*
D03*
X11049Y-4699D02*
D03*
Y-1397D02*
D03*
X2286Y-10287D02*
D03*
X-3429Y-12954D02*
D03*
X-8509Y-11811D02*
D03*
X20933Y-38228D02*
D03*
X20277Y-38644D02*
D03*
X-21320Y-34022D02*
D03*
X-23495Y-30353D02*
D03*
X22225Y-41148D02*
D03*
X24126Y-31628D02*
D03*
X24888D02*
D03*
X23109Y-33778D02*
D03*
Y-34540D02*
D03*
Y-32254D02*
D03*
Y-33016D02*
D03*
X22483Y-34920D02*
D03*
X21721D02*
D03*
X-25650Y-39111D02*
D03*
X-26412D02*
D03*
X-23745Y-40889D02*
D03*
X-24507D02*
D03*
X-22983Y-37333D02*
D03*
X-23745D02*
D03*
X-22983Y-36317D02*
D03*
X-23745D02*
D03*
X-22983Y-35555D02*
D03*
X-23745D02*
D03*
X-20120Y-3737D02*
D03*
X32512Y8382D02*
D03*
Y7112D02*
D03*
Y5715D02*
D03*
Y4445D02*
D03*
X31242Y8382D02*
D03*
Y7112D02*
D03*
Y5715D02*
D03*
Y4445D02*
D03*
X29972Y8382D02*
D03*
Y7112D02*
D03*
Y5715D02*
D03*
Y4445D02*
D03*
X28702Y8382D02*
D03*
Y7112D02*
D03*
Y5715D02*
D03*
Y4445D02*
D03*
X27432Y5715D02*
D03*
Y7112D02*
D03*
Y8382D02*
D03*
X-21717Y-21717D02*
D03*
X-18161Y-21844D02*
D03*
X15494Y-3937D02*
D03*
X18161D02*
D03*
X17851Y127D02*
D03*
X-6350Y-26924D02*
D03*
X5461Y-2032D02*
D03*
X25881Y-32737D02*
D03*
X22695Y-36614D02*
D03*
Y-37503D02*
D03*
X29945Y-40103D02*
D03*
X22695Y-35725D02*
D03*
X21848Y-35704D02*
D03*
X21819Y-37464D02*
D03*
Y-36575D02*
D03*
X15156Y-38245D02*
D03*
X-16256Y-2540D02*
D03*
X-10541Y-8636D02*
D03*
X-10668Y-10160D02*
D03*
X-10922Y-9398D02*
D03*
X-11303Y-8636D02*
D03*
X-11430Y-10160D02*
D03*
X-11684Y-9398D02*
D03*
X-19050Y-29210D02*
D03*
X-22860Y-32004D02*
D03*
X-23745Y-34793D02*
D03*
X-22983D02*
D03*
X-29443Y-34431D02*
D03*
X6725Y-35598D02*
D03*
X8286Y-37065D02*
D03*
X8325Y-34201D02*
D03*
Y-32931D02*
D03*
Y-35598D02*
D03*
Y-31661D02*
D03*
X9810Y-37065D02*
D03*
X9849Y-35598D02*
D03*
Y-34201D02*
D03*
X5289Y-37065D02*
D03*
X5328Y-35598D02*
D03*
Y-34201D02*
D03*
Y-32931D02*
D03*
X5454Y-31640D02*
D03*
X6686Y-37065D02*
D03*
X6725Y-34201D02*
D03*
Y-31661D02*
D03*
Y-32931D02*
D03*
X9908Y-31650D02*
D03*
Y-33047D02*
D03*
X8509Y-4318D02*
D03*
X8255Y-6350D02*
D03*
X5873Y-3229D02*
D03*
X5201Y-5579D02*
D03*
X23214Y-41373D02*
D03*
X24130Y-41529D02*
D03*
X26670Y-41402D02*
D03*
X11938Y-18360D02*
D03*
X16807Y-40150D02*
D03*
X-4958Y-3172D02*
D03*
X-5334Y-4572D02*
D03*
X-5969Y-5080D02*
D03*
X-19955Y-35075D02*
D03*
X-19939Y-31242D02*
D03*
X-20955Y-29464D02*
D03*
X-27813Y8255D02*
D03*
Y6985D02*
D03*
Y5588D02*
D03*
Y4318D02*
D03*
X-29083Y8255D02*
D03*
Y6985D02*
D03*
Y5588D02*
D03*
Y4318D02*
D03*
X-30353Y8255D02*
D03*
Y6985D02*
D03*
Y5588D02*
D03*
Y4318D02*
D03*
X-31623Y8255D02*
D03*
Y6985D02*
D03*
Y5588D02*
D03*
Y4318D02*
D03*
X-32893D02*
D03*
Y5588D02*
D03*
Y6985D02*
D03*
Y8255D02*
D03*
X-31242Y1397D02*
D03*
X-34290Y-1270D02*
D03*
X-4279Y-3549D02*
D03*
X-3166Y-1687D02*
D03*
X14986Y762D02*
D03*
X14097Y1524D02*
D03*
D57*
X9779Y11430D02*
D03*
X9144Y12827D02*
D03*
X12508Y8636D02*
D03*
X11833Y9547D02*
D03*
X-8255Y-5207D02*
D03*
X-12827Y5969D02*
D03*
X12446Y36449D02*
D03*
X34685Y-31344D02*
D03*
X16637Y18415D02*
D03*
X21590D02*
D03*
X-4318Y7112D02*
D03*
D58*
X-127Y508D02*
D03*
X16383Y6223D02*
D03*
X17526Y6350D02*
D03*
X-17153Y6220D02*
D03*
X-18550D02*
D03*
X4318Y-1016D02*
D03*
X-2159Y-10033D02*
D03*
X2200Y-3980D02*
D03*
Y-2880D02*
D03*
Y-5080D02*
D03*
Y-7280D02*
D03*
Y-6180D02*
D03*
X1100Y-2880D02*
D03*
X0Y-3980D02*
D03*
X1100D02*
D03*
X0Y-2880D02*
D03*
X-1100D02*
D03*
Y-3980D02*
D03*
X-2200Y-2880D02*
D03*
Y-3980D02*
D03*
X1100Y-5080D02*
D03*
X0Y-6180D02*
D03*
X1100D02*
D03*
X0Y-5080D02*
D03*
X-1100D02*
D03*
Y-6180D02*
D03*
X0Y-7280D02*
D03*
X-1100D02*
D03*
X1100D02*
D03*
X-2200Y-6180D02*
D03*
Y-5080D02*
D03*
Y-7280D02*
D03*
D59*
X1651Y12573D02*
D03*
D60*
X-4953Y17526D02*
D03*
X635Y19050D02*
D03*
Y20066D02*
D03*
D62*
X34685Y-31344D02*
Y-28081D01*
X34163Y-27559D02*
X34685Y-28081D01*
X32035Y223D02*
X32624Y-366D01*
X33162D01*
X34925Y-2129D01*
Y-7239D02*
Y-2129D01*
X-26573Y-208D02*
X-26527Y-254D01*
X-29637Y-208D02*
X-26573D01*
X-24527Y-254D02*
X-23225D01*
X26781Y10414D02*
X28194D01*
Y10508D01*
X34163Y-27559D02*
Y-8001D01*
X34925Y-7239D01*
X18034Y35242D02*
Y38494D01*
X17234Y34442D02*
X18034Y35242D01*
X17183Y39345D02*
X18034Y38494D01*
X7052Y36957D02*
X7687Y37592D01*
X10033D01*
X12083Y38542D02*
X12283D01*
X13111Y39370D01*
X15583D01*
X16389Y32613D02*
Y32913D01*
X16886Y33410D01*
Y34069D01*
X17234Y34417D01*
Y34442D01*
X17183Y39345D02*
Y39370D01*
X1111Y18002D02*
Y18116D01*
X970Y18257D02*
X1111Y18116D01*
X716Y18257D02*
X970D01*
X-77Y19050D02*
X716Y18257D01*
X-127Y19050D02*
X-77D01*
X-159Y18002D02*
X-127Y18034D01*
X-159Y16637D02*
Y18002D01*
X-191Y16605D02*
X-159Y16637D01*
X-3810Y14986D02*
X-2794D01*
X-2174Y15606D01*
Y16527D01*
X-2095Y16605D01*
X-2060Y16641D02*
Y17992D01*
X-2095Y16605D02*
X-2060Y16641D01*
Y17992D02*
X-2024Y18028D01*
X-904Y16683D02*
X-826Y16605D01*
X-904Y16683D02*
Y17442D01*
X-908Y17447D02*
X-904Y17442D01*
X-908Y17447D02*
Y17928D01*
X-1008Y18028D02*
X-908Y17928D01*
X-20120Y-21674D02*
Y-3737D01*
X-19947Y-35067D02*
Y-31250D01*
X-19939Y-31242D01*
X-31242Y1397D02*
X-29637Y-208D01*
X-34290Y-2286D02*
Y-1270D01*
X-35179Y-3175D02*
X-34290Y-2286D01*
X-35179Y-31496D02*
Y-3175D01*
X495Y-119D02*
X750Y-374D01*
X19723Y10414D02*
X20917D01*
X750Y-1680D02*
Y-374D01*
X-7780Y-7330D02*
X-3400D01*
X-8636Y-8186D02*
X-7780Y-7330D01*
X-6604Y-8186D02*
X-6248Y-7830D01*
X-3400D01*
D63*
X-17247Y15703D02*
Y17056D01*
X-23427Y-25654D02*
X-23152Y-25379D01*
Y-23876D01*
X-21552D02*
Y-23851D01*
X-21377Y-23676D01*
X-21004D01*
X-20127Y-22799D01*
Y-22749D01*
X-20120Y-21724D02*
Y-21674D01*
X-20127Y-21731D02*
X-20120Y-21724D01*
X-20127Y-22749D02*
Y-21731D01*
X-5222Y-2908D02*
X-4958Y-3172D01*
D64*
X10491Y-2667D02*
X10541D01*
X10217Y-2393D02*
X10491Y-2667D01*
X10217Y-2393D02*
Y-2216D01*
X10160Y-2159D02*
X10217Y-2216D01*
X-8763Y-3429D02*
X-8255D01*
X-10541Y9034D02*
X-10369Y9205D01*
X-10541Y7620D02*
Y9034D01*
X-17192Y18577D02*
Y18712D01*
X-16567Y19337D01*
X-16356D02*
X-16206Y19487D01*
X-16567Y19337D02*
X-16356D01*
X-16206Y19487D02*
X-16017D01*
X-612Y1013D02*
X-127Y528D01*
X-612Y1013D02*
Y1578D01*
X-127Y508D02*
Y528D01*
X-799Y1765D02*
Y1815D01*
Y1765D02*
X-612Y1578D01*
X381Y15367D02*
X413Y15399D01*
Y16593D01*
X444Y16625D01*
X1714Y11335D02*
Y12509D01*
X1651Y12573D02*
X1714Y12509D01*
X-2762Y11367D02*
X-2730Y11335D01*
X1524Y9906D02*
X1660Y10042D01*
Y11280D01*
X1714Y11335D01*
X-2762Y11367D02*
Y12668D01*
X-2794Y12700D02*
X-2762Y12668D01*
X1747Y11303D02*
X2667D01*
X1714Y11335D02*
X1747Y11303D01*
X-3556Y10668D02*
X-3532Y10692D01*
X-2786D01*
X-2730Y10747D01*
Y11335D01*
X-10541Y13848D02*
Y14006D01*
X-10886Y14351D02*
X-10541Y14006D01*
X-10947Y14351D02*
X-10886D01*
X-17293Y16925D02*
X-17268Y16900D01*
X-1524Y15367D02*
X-1492Y15399D01*
Y16593D01*
X-1461Y16625D01*
X-4953Y17018D02*
Y17526D01*
X635Y19050D02*
X1143D01*
X635Y20066D02*
X1143D01*
X2667Y10287D02*
X2817Y10437D01*
X3899Y36932D02*
Y36957D01*
X2453Y35486D02*
X3899Y36932D01*
X2453Y35179D02*
Y35486D01*
X4230Y14344D02*
X4311D01*
X4119Y14455D02*
X4230Y14344D01*
X3960Y14455D02*
X4119D01*
X3810Y14605D02*
X3960Y14455D01*
X3810Y13669D02*
Y13716D01*
Y13669D02*
X3960Y13519D01*
X4261D01*
X4318Y13462D01*
X-3810Y11557D02*
Y12065D01*
X-4826Y11557D02*
Y12065D01*
X10031Y39494D02*
X10033Y39492D01*
X9401Y39494D02*
X10031D01*
X9398Y39497D02*
X9401Y39494D01*
X508Y8001D02*
X1270D01*
X-8890Y16447D02*
X-8413Y16924D01*
X-7993D01*
X-7843Y17074D01*
X-7762D01*
X-12827Y8502D02*
X-12728Y8601D01*
X-12827Y7747D02*
Y8502D01*
X-10922Y16675D02*
Y17526D01*
X-10947Y16650D02*
X-10922Y16675D01*
X17981Y18415D02*
X18047Y18481D01*
X16637Y18415D02*
X17981D01*
X20307Y18481D02*
X20372Y18415D01*
X21590D01*
X3118Y10357D02*
X3175Y10414D01*
X2817Y10407D02*
X2867Y10357D01*
X3118D01*
X2817Y10407D02*
Y10437D01*
X-4318Y7112D02*
Y7620D01*
X-3302D02*
X-2794D01*
X-960Y7521D02*
Y7653D01*
X-985Y7496D02*
X-960Y7521D01*
X-1407Y7496D02*
X-985D01*
X-254Y12827D02*
X-222Y12795D01*
Y11367D02*
Y12795D01*
Y11367D02*
X-191Y11335D01*
X444D02*
Y13271D01*
X1778Y14605D01*
X444Y10720D02*
Y11335D01*
X-5680Y-1701D02*
X-5680Y-1701D01*
X2794Y13716D02*
Y14605D01*
X-4679Y-1690D02*
X-4359D01*
X-3937Y-2159D02*
X-3796D01*
X-3625Y-2330D01*
X-4359Y-1737D02*
X-3937Y-2159D01*
X-3625Y-2330D02*
X-3400D01*
X-4359Y-1737D02*
Y-1690D01*
X-4713Y-1701D02*
X-4713Y-1701D01*
X-635Y8928D02*
X-546Y9017D01*
X508D01*
Y9906D01*
X1778Y14605D02*
X2794D01*
X444Y10720D02*
X508Y10656D01*
Y9906D02*
Y10656D01*
X2413Y15952D02*
Y16637D01*
Y15952D02*
X2744Y15621D01*
X2794D01*
D65*
X10155Y-15439D02*
X11955D01*
X19033Y35481D02*
X19085Y35429D01*
X18834Y34417D02*
X18981Y34564D01*
Y35429D02*
X19033Y35481D01*
X18981Y34564D02*
Y35429D01*
X19085D02*
X19580D01*
X20835Y34174D01*
X20908D01*
X20949Y32613D02*
Y34133D01*
X20908Y34174D02*
X20949Y34133D01*
X19828Y32244D02*
X20880D01*
X20949Y32313D01*
X19776Y32192D02*
X19828Y32244D01*
X10153Y-15058D02*
X10155Y-15439D01*
X4618Y-15058D02*
X5461D01*
X5842Y-15439D01*
X3563Y-15058D02*
X4618D01*
X10151Y-15439D02*
X10153Y-15058D01*
X5842Y-15439D02*
X10151D01*
X11938Y-17174D02*
X11955Y-17157D01*
X11938Y-18360D02*
Y-17174D01*
D66*
X28844Y-628D02*
G03*
X29341Y-126I-4J500D01*
G01*
X11938Y-2186D02*
Y-2159D01*
X11784Y-2340D02*
X11938Y-2186D01*
X11784Y-2617D02*
Y-2340D01*
X11734Y-2667D02*
X11784Y-2617D01*
X11684Y-2667D02*
X11734D01*
X-10795Y-2159D02*
X-10776Y-2178D01*
Y-2355D02*
Y-2178D01*
Y-2355D02*
X-9702Y-3429D01*
X-9652D01*
X2834Y71D02*
Y438D01*
X-5222Y-1690D02*
X-5219Y-1205D01*
X6858Y-6533D02*
X6858Y-6533D01*
X5950Y-6533D02*
X6858D01*
X5950Y-6534D02*
X5950Y-6533D01*
X5274Y-6461D02*
X6008Y-6472D01*
X-10922Y-1828D02*
X-10814Y-1936D01*
X-10922Y-1828D02*
Y-1778D01*
X-10814Y-2140D02*
X-10795Y-2159D01*
X-10822D02*
X-10795D01*
X-10814Y-2140D02*
Y-1936D01*
X-10968Y-2305D02*
X-10822Y-2159D01*
X-11118Y-2305D02*
X-10968D01*
X-11557Y-2744D02*
X-11118Y-2305D01*
X-11557Y-2794D02*
Y-2744D01*
X-2216Y-10090D02*
X-2159Y-10033D01*
X-2384Y-10090D02*
X-2216D01*
X27686Y-635D02*
X28844Y-628D01*
X29340Y0D02*
X29341Y-120D01*
X29341Y-126D01*
X28195Y-1150D02*
X29340Y-1270D01*
X6808Y-5567D02*
X6858Y-5517D01*
X6033Y-5567D02*
X6808D01*
X6008Y-5592D02*
X6033Y-5567D01*
X5233Y-5592D02*
X6008D01*
X2784Y488D02*
X2834Y438D01*
Y71D02*
X2843Y61D01*
Y-301D02*
Y61D01*
X-8636Y-10437D02*
Y-9086D01*
X-6604Y-10459D02*
Y-9086D01*
D68*
X4953Y35179D02*
D03*
X2453D02*
D03*
X-47D02*
D03*
X-2547D02*
D03*
X-5047D02*
D03*
X-7547D02*
D03*
Y32179D02*
D03*
X-5047D02*
D03*
X-2547D02*
D03*
X-47D02*
D03*
X2453D02*
D03*
X4953D02*
D03*
X7453D02*
D03*
X9953D02*
D03*
X-10047Y35179D02*
D03*
X7453D02*
D03*
X9953D02*
D03*
D69*
X-10047Y32179D02*
D03*
D70*
X-31179Y23485D02*
D03*
X-8679D02*
D03*
X30717D02*
D03*
X8217D02*
D03*
D71*
X-32385Y39150D02*
D03*
X31864D02*
D03*
X31623Y-30861D02*
D03*
X-32385Y-38735D02*
D03*
D72*
X-17247Y13462D02*
Y14351D01*
X-18009Y12700D02*
X-17247Y13462D01*
X-18669Y12700D02*
X-18009D01*
X-17583Y15367D02*
X-17247Y15703D01*
X-18669Y15367D02*
X-17583D01*
D76*
X11684Y-3683D02*
D03*
Y-2667D02*
D03*
X10541Y-3683D02*
D03*
Y-2667D02*
D03*
X-8255Y-4445D02*
D03*
Y-3429D02*
D03*
X-9652Y-4445D02*
D03*
Y-3429D02*
D03*
X2667Y11303D02*
D03*
X-3556Y10668D02*
D03*
X2667Y10287D02*
D03*
X3810Y14605D02*
D03*
X508Y8001D02*
D03*
X-3302Y7620D02*
D03*
X-4318D02*
D03*
X-4826Y12065D02*
D03*
X-3810D02*
D03*
X6858Y-6533D02*
D03*
X5950Y-6534D02*
D03*
X-4713Y-1701D02*
D03*
X-5636D02*
D03*
X-3810Y14986D02*
D03*
X2794Y14605D02*
D03*
X508Y9017D02*
D03*
X-5334Y9652D02*
D03*
X-127Y19050D02*
D03*
X-3302Y8636D02*
D03*
X-3556Y9652D02*
D03*
X-5334Y8636D02*
D03*
X-4318D02*
D03*
X2794Y15621D02*
D03*
X-127Y18034D02*
D03*
X-3810Y13081D02*
D03*
X-4826D02*
D03*
X-3810Y13970D02*
D03*
X-2921Y19050D02*
D03*
Y20066D02*
D03*
X3429Y17526D02*
D03*
Y18542D02*
D03*
X3810Y15621D02*
D03*
X6858Y-5517D02*
D03*
X5950Y-5517D02*
D03*
X4166Y-11156D02*
D03*
X3224D02*
D03*
X-4713Y-2717D02*
D03*
X-5636D02*
D03*
X3224Y-10139D02*
D03*
X4166D02*
D03*
D77*
X29139Y13716D02*
D03*
X24709D02*
D03*
X-29520Y13208D02*
D03*
X-25090D02*
D03*
D78*
X-17145Y18860D02*
D03*
Y17208D02*
D03*
X-8890Y14795D02*
D03*
Y16447D02*
D03*
D79*
X3563Y-12768D02*
D03*
Y-15058D02*
D03*
D80*
X444Y16605D02*
D03*
X-2730Y11335D02*
D03*
X1714D02*
D03*
X-1461Y16605D02*
D03*
X-2095D02*
D03*
X444Y11335D02*
D03*
X-2730Y16605D02*
D03*
X1079D02*
D03*
X-1461Y11335D02*
D03*
X1714Y16605D02*
D03*
X-191D02*
D03*
X-826D02*
D03*
X-191Y11335D02*
D03*
X-826D02*
D03*
X1079D02*
D03*
X-2095D02*
D03*
D81*
X-10947Y14351D02*
D03*
Y16650D02*
D03*
Y12052D02*
D03*
D82*
X-17247Y14351D02*
D03*
D83*
X-10159Y8763D02*
D03*
X-12728Y8601D02*
D03*
Y10003D02*
D03*
X-10159Y10165D02*
D03*
D84*
X25619Y25413D02*
D03*
X25619Y23153D02*
D03*
X22839Y25413D02*
D03*
X22839Y23153D02*
D03*
D85*
X20307Y18481D02*
D03*
X18047Y18481D02*
D03*
Y21261D02*
D03*
X20307Y21261D02*
D03*
D86*
X10033Y39492D02*
D03*
Y37592D02*
D03*
X12083Y38542D02*
D03*
D87*
X14986Y10609D02*
D03*
Y12759D02*
D03*
X-14732Y-195D02*
D03*
Y-2345D02*
D03*
D88*
X18669Y25313D02*
D03*
D89*
X16389Y32613D02*
D03*
X20949D02*
D03*
D90*
X29340Y1270D02*
D03*
Y0D02*
D03*
Y-1270D02*
D03*
X25270Y2540D02*
D03*
Y1270D02*
D03*
Y0D02*
D03*
Y-3810D02*
D03*
X29340Y-5080D02*
D03*
X25270D02*
D03*
Y-2540D02*
D03*
Y-1270D02*
D03*
X29340Y-3810D02*
D03*
Y-2540D02*
D03*
Y2540D02*
D03*
D91*
X2750Y-1680D02*
D03*
X-2750Y-8480D02*
D03*
X250D02*
D03*
X-1250D02*
D03*
X-750D02*
D03*
X-250Y-1680D02*
D03*
X2750Y-8480D02*
D03*
X2250D02*
D03*
X1750D02*
D03*
X1250D02*
D03*
X750D02*
D03*
X-250D02*
D03*
X-1750D02*
D03*
X-2750Y-1680D02*
D03*
X-2250D02*
D03*
X-1750D02*
D03*
X250D02*
D03*
X750D02*
D03*
X1750D02*
D03*
X-1250D02*
D03*
X-750D02*
D03*
X2250D02*
D03*
X-2250Y-8480D02*
D03*
X1250Y-1680D02*
D03*
D92*
X3400Y-2330D02*
D03*
Y-6330D02*
D03*
X-3400Y-2330D02*
D03*
X3400Y-2830D02*
D03*
Y-3330D02*
D03*
Y-3830D02*
D03*
Y-4330D02*
D03*
Y-4830D02*
D03*
Y-5330D02*
D03*
Y-7330D02*
D03*
Y-7830D02*
D03*
X-3400D02*
D03*
Y-7330D02*
D03*
Y-6830D02*
D03*
Y-5330D02*
D03*
Y-4830D02*
D03*
Y-4330D02*
D03*
Y-3830D02*
D03*
Y-3330D02*
D03*
Y-5830D02*
D03*
X3400Y-6830D02*
D03*
X-3400Y-6330D02*
D03*
X3400Y-5830D02*
D03*
X-3400Y-2830D02*
D03*
D93*
X11955Y-15507D02*
D03*
Y-17157D02*
D03*
D94*
X10153Y-15058D02*
D03*
D95*
X3563Y-17348D02*
D03*
D96*
X0Y-5080D02*
D03*
D97*
X-6604Y-12559D02*
D03*
X-8658D02*
D03*
X-6604Y-10459D02*
D03*
X-8658D02*
D03*
D98*
X16576Y-13700D02*
D03*
X-18227Y-22749D02*
D03*
X18476Y-13700D02*
D03*
X17526Y-11700D02*
D03*
X-20127Y-22749D02*
D03*
X-19177Y-24749D02*
D03*
D99*
X-6604Y-9086D02*
D03*
Y-8186D02*
D03*
X-8636D02*
D03*
Y-9086D02*
D03*
M02*
