G04*
G04 #@! TF.GenerationSoftware,Altium Limited,Altium Designer,25.8.1 (18)*
G04*
G04 Layer_Color=0*
%FSLAX44Y44*%
%MOMM*%
G71*
G04*
G04 #@! TF.SameCoordinates,4E148589-1D32-403F-AA22-9DC0C59B02D4*
G04*
G04*
G04 #@! TF.FilePolarity,Positive*
G04*
G01*
G75*
%ADD118C,0.0254*%
G36*
X633403Y1235973D02*
Y1237119D01*
X632526Y1239236D01*
X630906Y1240856D01*
X628789Y1241733D01*
X627643D01*
X626497D01*
X624380Y1240856D01*
X622760Y1239236D01*
X621883Y1237119D01*
Y1235973D01*
Y1234827D01*
X622760Y1232710D01*
X624380Y1231090D01*
X626497Y1230213D01*
X627643D01*
X628789D01*
X630906Y1231090D01*
X632526Y1232710D01*
X633403Y1234827D01*
Y1235973D01*
D01*
D02*
G37*
G36*
X1302077Y289297D02*
Y288151D01*
X1302954Y286034D01*
X1304574Y284414D01*
X1306691Y283537D01*
X1307837D01*
X1308983D01*
X1311100Y284414D01*
X1312720Y286034D01*
X1313597Y288151D01*
Y289297D01*
Y290443D01*
X1312720Y292560D01*
X1311100Y294180D01*
X1308983Y295057D01*
X1307837D01*
X1306691D01*
X1304574Y294180D01*
X1302954Y292560D01*
X1302077Y290443D01*
Y289297D01*
D01*
D02*
G37*
D118*
X609600Y289080D02*
Y1271700D01*
D02*
G02*
X639600Y1301700I30000J0D01*
G01*
X1294600D01*
D02*
G02*
X1324600Y1271700I0J-30000D01*
G01*
Y289080D01*
D02*
G02*
X1294600Y259080I-30000J0D01*
G01*
X639600D01*
D02*
G02*
X609600Y289080I0J30000D01*
G01*
M02*
