M48
;Layer_Color=9474304
;FILE_FORMAT=4:4
METRIC,LZ
;TYPE=PLATED
T01F00S00C0.2000
T02F00S00C0.3000
T03F00S00C0.8000
T04F00S00C0.9000
T05F00S00C1.0500
T06F00S00C1.4000
;TYPE=NON_PLATED
T07F00S00C3.4000
T08F00S00C4.3000
%
T01
X0094701Y0075143
Y0076243
X0095801
Y0075143
X0096901
Y0076243
X0098001
X0099101
Y0075143
X0098001
Y0077343
X0099101
Y0078443
X0098001
X0096901
X0095801
X0094701
Y0077343
X0095801
X0096901
Y0079543
X0098001
X0099101
X0095801
X0094701
T02
X0067056Y0037592
Y0038481
Y003937
X0068199Y0039497
Y0038608
Y0037719
X0068707Y0037084
X0069723
X0070739Y0037592
Y0039116
X0076454Y0039243
X0077343
X0078232
X0079121
X0080137Y0037973
X00810639Y00354886
X00899182Y00355622
X01033857Y00280817
X01055807
X0107569Y0028067
X01100136Y00281048
X0108966Y0029337
X01111566Y00293748
X01122757Y00305865
X01135696Y00293748
X01124267Y00281048
X01148397
X01175843Y00279245
X0117729Y0030353
X0118491
X011811Y0031115
X0118921Y00311046
X0117348Y0031242
X01134361Y00319622
X01110231
X01121661Y00332322
X01143Y0037465
X0115316
X0116332
X0117348
X01182719Y00381624
X01190061Y003819
X01197585Y00381716
X01205384Y003819
X0124206Y0037211
X012573
X0127127
X0128397
X0127725Y00361431
X0126455
X0125058
X0123534
X01241119Y00351747
X01256359
X01270329
X01283029
X01275844Y00341595
X01263144
X01249174
X01233934
X0124206Y0033147
X012573
X0127127
X0128397
X01275375Y00321291
X01262675
X01248705
X01233465
X0124968Y0030226
X01238489Y00290143
X01262619
X0127381Y0030226
X0129794
X01286749Y00290143
X01275319Y00277443
X01251189
X01224103Y00279245
X01199973
X01211403Y00291945
X01198856Y00311403
X01299449Y00277443
X0126846Y00423201
X0124179Y00439711
X0119596Y00449199
Y00458089
Y00466979
X0122782Y00496861
X0126111Y0050927
X0128016
X0128778Y0049022
X0127
X01269905Y00528982
X01287685
X0126746Y0060071
X0129667Y0064008
X0126238Y0075946
X0119253Y0078613
X0119861Y00405421
X0120877
X0121893
X01187201Y00449586
Y00458476
X01187491Y00467192
X01178344Y00441945
X0117178Y00437792
X01079114Y00461578
X010795Y0047625
Y0049022
X0106426
Y0050292
Y0051562
X01048257
Y0050292
Y0049022
Y0047625
X01034287
Y0049022
Y0050292
X01035552Y00515828
X01033901Y00461578
X01047871
X01063874
X0106426Y0047625
X01035085Y00578232
X0100457Y0058547
X0100464Y00595645
X0099187Y0057277
X0099441Y0055753
X0101219Y0056007
X0097917Y0054356
X0097028Y0055245
X00946635Y00551927
X0093853Y0056642
Y0060833
X0094996Y0063246
X0098552Y0063881
Y006477
X0099568Y006604
X0100457Y0067056
X0101981Y0065151
X0102993Y0065155
X0102743Y0062865
X0103759
X0107315
X0101981Y0070866
X0100965Y0072136
X01021292Y00759623
X01021338Y00775128
X01021448Y00793578
X0101473Y0078867
X00926224Y0078874
X00919431Y00792511
X00916489Y00782081
X00906796Y00780982
X00920387Y00760651
X0088265Y0076581
X0083947Y0077089
X0088138Y006858
X0089916Y0067818
X0092329Y0069596
X0092837Y007239
X00949554Y00723864
X0096447Y0070866
X0097155Y0070231
X0095758Y0069977
X0091186Y0064643
X0090678Y0062484
X0091186Y0059563
X0089789Y0058801
X0088773Y0059217
Y0058166
X0086741Y0061595
X0087122Y0051435
X00871259Y00501703
Y00489003
Y00476303
Y00463603
X00857289
Y00476303
Y00489003
Y00501703
X0085725Y0051435
X0088519
X00885229Y00501703
Y00489003
Y00476303
Y00463603
X00900469
Y00476303
Y00489003
Y00501703
X0090043Y0051435
X0078867Y0052578
X0079121Y0049911
X0078359Y0048895
X00755807Y00484009
X00739179Y00476303
Y00468683
X00731559
Y00461063
X00739179
X00731559Y00476303
X0068199Y0047879
X0065405Y0044704
Y0043561
X006477Y0042926
X0065913Y0042672
X0065024Y0041148
X0067056Y0040386
X0069469Y0040513
X0070612Y0040386
X007112Y0042037
X0064389Y0044323
X00635Y0043942
X0065659Y008382
X0079248Y008636
X00775256Y00905325
X0076581Y0090551
X00756206Y00905325
Y00915485
X0076581Y0091567
X00775256Y00915485
X0072771Y0099314
X0080645Y0079883
X0089662Y0080772
X00916825Y00812182
X00937351Y00807364
X0096393Y0082804
X00991866Y00823964
X0101219Y0081407
X0100203Y0086741
X0100457Y0088138
X00964184Y00883084
X0096139Y0087503
X0097028Y0087249
X0093218Y0088138
X00926815Y00862795
X00914782Y00856382
X0089662Y0085725
X0108458Y0081915
X011049
X0111252Y008255
X0111887Y0083185
X0110998Y0083947
X01156414Y00857435
X0116586Y0085725
X01175464Y00857435
Y00867595
X0116586Y0086741
X01156414Y00867595
X01170386Y00952466
X0113665Y0095377
X0125095Y0092837
X0119507Y0079756
T03
X0065491Y009665
X0067991
X0125897
X0128397
T04
X012219Y0057531
X0126
Y0072771
X012219
X011457
X011076
Y0057531
X011457
X008255
Y0072771
X007874
X007112
X006731
Y0057531
X007112
X007874
T05
X0065075Y0108
X0092575
X010075
X012825
T06
X0076708Y00313918
X0081788
X0090831Y00311467
X0095911
X0100991
X0106071
X0106071Y00395367
X0100991
X0095911
X0090831
X009144Y0125222
X009652
X01016
T07
X00644402Y00526019
T08
X0129286Y0041021
X0128765Y0126873
X0064516
M30
