G04*
G04 #@! TF.GenerationSoftware,Altium Limited,Altium Designer,25.8.1 (18)*
G04*
G04 Layer_Color=16711935*
%FSLAX44Y44*%
%MOMM*%
G71*
G04*
G04 #@! TF.SameCoordinates,4E148589-1D32-403F-AA22-9DC0C59B02D4*
G04*
G04*
G04 #@! TF.FilePolarity,Negative*
G04*
G01*
G75*
%ADD31R,1.0500X1.1000*%
%ADD32R,1.1000X1.0500*%
%ADD36C,1.6032*%
%ADD37R,1.6032X1.6032*%
%ADD38R,2.1032X2.1032*%
%ADD39C,2.1032*%
%ADD40R,2.3032X2.3032*%
%ADD41C,2.3032*%
%ADD42C,1.5032*%
G04:AMPARAMS|DCode=43|XSize=1.5032mm|YSize=1.5032mm|CornerRadius=0.4266mm|HoleSize=0mm|Usage=FLASHONLY|Rotation=0.000|XOffset=0mm|YOffset=0mm|HoleType=Round|Shape=RoundedRectangle|*
%AMROUNDEDRECTD43*
21,1,1.5032,0.6500,0,0,0.0*
21,1,0.6500,1.5032,0,0,0.0*
1,1,0.8532,0.3250,-0.3250*
1,1,0.8532,-0.3250,-0.3250*
1,1,0.8532,-0.3250,0.3250*
1,1,0.8532,0.3250,0.3250*
%
%ADD43ROUNDEDRECTD43*%
%ADD44R,1.6000X1.6000*%
%ADD45C,1.6000*%
%ADD46R,0.2100X0.1100*%
%ADD47C,0.8032*%
%ADD48C,0.7032*%
%ADD72R,1.3098X0.9061*%
%ADD73R,1.4000X2.6000*%
%ADD78R,1.4562X1.2546*%
%ADD80R,2.7900X0.7400*%
G04:AMPARAMS|DCode=81|XSize=1.2565mm|YSize=0.4358mm|CornerRadius=0.2179mm|HoleSize=0mm|Usage=FLASHONLY|Rotation=180.000|XOffset=0mm|YOffset=0mm|HoleType=Round|Shape=RoundedRectangle|*
%AMROUNDEDRECTD81*
21,1,1.2565,0.0000,0,0,180.0*
21,1,0.8207,0.4358,0,0,180.0*
1,1,0.4358,-0.4103,0.0000*
1,1,0.4358,0.4103,0.0000*
1,1,0.4358,0.4103,0.0000*
1,1,0.4358,-0.4103,0.0000*
%
%ADD81ROUNDEDRECTD81*%
%ADD82R,1.8300X2.2600*%
%ADD84R,0.6000X1.2000*%
%ADD85R,1.0043X0.8721*%
%ADD88R,1.2200X1.8600*%
%ADD89R,1.1046X1.3562*%
%ADD90R,6.7000X6.7000*%
%ADD91R,6.0000X4.1000*%
%ADD92R,6.0000X1.7000*%
%ADD93R,3.0000X1.6000*%
G04:AMPARAMS|DCode=94|XSize=1.0043mm|YSize=0.8721mm|CornerRadius=0.4361mm|HoleSize=0mm|Usage=FLASHONLY|Rotation=0.000|XOffset=0mm|YOffset=0mm|HoleType=Round|Shape=RoundedRectangle|*
%AMROUNDEDRECTD94*
21,1,1.0043,0.0000,0,0,0.0*
21,1,0.1322,0.8721,0,0,0.0*
1,1,0.8721,0.0661,0.0000*
1,1,0.8721,-0.0661,0.0000*
1,1,0.8721,-0.0661,0.0000*
1,1,0.8721,0.0661,0.0000*
%
%ADD94ROUNDEDRECTD94*%
G04:AMPARAMS|DCode=95|XSize=1.0043mm|YSize=3.1821mm|CornerRadius=0.4369mm|HoleSize=0mm|Usage=FLASHONLY|Rotation=0.000|XOffset=0mm|YOffset=0mm|HoleType=Round|Shape=RoundedRectangle|*
%AMROUNDEDRECTD95*
21,1,1.0043,2.3084,0,0,0.0*
21,1,0.1306,3.1821,0,0,0.0*
1,1,0.8737,0.0653,-1.1542*
1,1,0.8737,-0.0653,-1.1542*
1,1,0.8737,-0.0653,1.1542*
1,1,0.8737,0.0653,1.1542*
%
%ADD95ROUNDEDRECTD95*%
%ADD96R,1.2565X0.4358*%
%ADD98R,0.7000X0.8000*%
%ADD99R,0.7532X0.7532*%
%ADD100O,0.4532X1.0032*%
%ADD101R,1.9032X2.7032*%
%ADD102R,0.8000X0.7000*%
%ADD103R,1.1032X1.2032*%
%ADD104R,1.0532X1.1032*%
%ADD105R,1.5532X1.6532*%
%ADD106R,1.5032X1.3032*%
G04:AMPARAMS|DCode=107|XSize=0.8532mm|YSize=1.8532mm|CornerRadius=0.1504mm|HoleSize=0mm|Usage=FLASHONLY|Rotation=180.000|XOffset=0mm|YOffset=0mm|HoleType=Round|Shape=RoundedRectangle|*
%AMROUNDEDRECTD107*
21,1,0.8532,1.5525,0,0,180.0*
21,1,0.5525,1.8532,0,0,180.0*
1,1,0.3007,-0.2763,0.7763*
1,1,0.3007,0.2763,0.7763*
1,1,0.3007,0.2763,-0.7763*
1,1,0.3007,-0.2763,-0.7763*
%
%ADD107ROUNDEDRECTD107*%
%ADD108O,1.0032X0.4532*%
%ADD109R,5.8032X5.8032*%
G36*
X1009689Y806544D02*
X1009722Y806522D01*
X1009744Y806489D01*
X1009752Y806450D01*
Y802640D01*
X1009744Y802601D01*
X1009722Y802568D01*
X1007182Y800028D01*
X1007149Y800006D01*
X1007110Y799998D01*
X999490D01*
X999451Y800006D01*
X999418Y800028D01*
X999396Y800061D01*
X999388Y800100D01*
Y803910D01*
Y806450D01*
X999396Y806489D01*
X999418Y806522D01*
X999451Y806544D01*
X999490Y806552D01*
X1009650D01*
X1009689Y806544D01*
D02*
G37*
D31*
X1166240Y928370D02*
D03*
X1150240D02*
D03*
X1194180D02*
D03*
X1178180D02*
D03*
X1223390D02*
D03*
X1207390D02*
D03*
X778130Y821690D02*
D03*
X794130D02*
D03*
X750190D02*
D03*
X766190D02*
D03*
X720980D02*
D03*
X736980D02*
D03*
D32*
X1193160Y813835D02*
D03*
X806450Y806070D02*
D03*
X1136650Y945260D02*
D03*
Y929260D02*
D03*
X806450Y822070D02*
D03*
X1193160Y829835D02*
D03*
D36*
X825500Y575310D02*
D03*
X711200D02*
D03*
X787400Y727710D02*
D03*
X673100D02*
D03*
Y575310D02*
D03*
X787400D02*
D03*
X711200Y727710D02*
D03*
X1145700D02*
D03*
X1221900Y575310D02*
D03*
X1107600D02*
D03*
X1221900Y727710D02*
D03*
X1107600D02*
D03*
X1145700Y575310D02*
D03*
X1260000D02*
D03*
D37*
X825500Y727710D02*
D03*
X1260000D02*
D03*
D38*
X817880Y313918D02*
D03*
D39*
X767080D02*
D03*
D40*
X908310Y395367D02*
D03*
X1060710Y311467D02*
D03*
X914400Y1252220D02*
D03*
D41*
X959110Y395367D02*
D03*
X1009910D02*
D03*
X1060710D02*
D03*
X1009910Y311467D02*
D03*
X959110D02*
D03*
X908310D02*
D03*
X1016000Y1252220D02*
D03*
X965200D02*
D03*
D42*
X679910Y966500D02*
D03*
X1258970D02*
D03*
D43*
X1283970D02*
D03*
X654910D02*
D03*
D44*
X1282500Y1080000D02*
D03*
X650750D02*
D03*
D45*
X1007500D02*
D03*
X925750D02*
D03*
D46*
X644402Y526019D02*
D03*
X1292860Y410210D02*
D03*
X1287650Y1268730D02*
D03*
X645160D02*
D03*
D47*
X783590Y488950D02*
D03*
X788670Y525780D02*
D03*
X755807Y484009D02*
D03*
X791210Y499110D02*
D03*
X1171780Y437792D02*
D03*
X1178344Y441945D02*
D03*
X1021448Y793578D02*
D03*
X1014730Y788670D02*
D03*
X899182Y355622D02*
D03*
X882650Y765810D02*
D03*
X801370Y379730D02*
D03*
X810639Y354886D02*
D03*
X1079114Y461578D02*
D03*
X1079500Y476250D02*
D03*
Y490220D02*
D03*
X650240Y411480D02*
D03*
X1035552Y515828D02*
D03*
X1034287Y502920D02*
D03*
X1033901Y461578D02*
D03*
X1064260Y476250D02*
D03*
Y515620D02*
D03*
X1047871Y461578D02*
D03*
X1048257Y476250D02*
D03*
X1034287D02*
D03*
X1064260Y490220D02*
D03*
Y502920D02*
D03*
X1034287Y490220D02*
D03*
X1048257Y515620D02*
D03*
X1063874Y461578D02*
D03*
X1048257Y490220D02*
D03*
Y502920D02*
D03*
X1012190Y560070D02*
D03*
X659130Y426720D02*
D03*
X647700Y429260D02*
D03*
X635000Y439420D02*
D03*
X654050Y435610D02*
D03*
X643890Y443230D02*
D03*
X654050Y447040D02*
D03*
X773430Y392430D02*
D03*
X782320D02*
D03*
X670560Y403860D02*
D03*
X764540Y392430D02*
D03*
X681990Y478790D02*
D03*
X731559Y461063D02*
D03*
Y468683D02*
D03*
X739179Y461063D02*
D03*
Y468683D02*
D03*
Y476303D02*
D03*
X731559D02*
D03*
X791210Y392430D02*
D03*
X887730Y581660D02*
D03*
X979170Y543560D02*
D03*
X887730Y592170D02*
D03*
X985520Y638810D02*
D03*
X899160Y678180D02*
D03*
X881380Y685800D02*
D03*
X919431Y792511D02*
D03*
X775256Y905325D02*
D03*
X756206D02*
D03*
Y915485D02*
D03*
X765810Y905510D02*
D03*
Y915670D02*
D03*
X775256Y915485D02*
D03*
X985520Y647700D02*
D03*
X961390Y875030D02*
D03*
X964184Y883084D02*
D03*
X970280Y872490D02*
D03*
X1100136Y281048D02*
D03*
X1075690Y280670D02*
D03*
X1124267Y281048D02*
D03*
X1111566Y293748D02*
D03*
X1122757Y305865D02*
D03*
X1089660Y293370D02*
D03*
X1110231Y319622D02*
D03*
X1121661Y332322D02*
D03*
X1175843Y279245D02*
D03*
X1148397Y281048D02*
D03*
X1224103Y279245D02*
D03*
X1199973D02*
D03*
X1211403Y291945D02*
D03*
X1135696Y293748D02*
D03*
X1134361Y319622D02*
D03*
X1198610Y405421D02*
D03*
X1218930D02*
D03*
X1208770D02*
D03*
X1187201Y449586D02*
D03*
Y458476D02*
D03*
X1195960Y458089D02*
D03*
Y449199D02*
D03*
X1238489Y290143D02*
D03*
X1249680Y302260D02*
D03*
X1251189Y277443D02*
D03*
X1262619Y290143D02*
D03*
X1262675Y321291D02*
D03*
X1233465D02*
D03*
X1242060Y331470D02*
D03*
X1248705Y321291D02*
D03*
X1257300Y331470D02*
D03*
X1271270D02*
D03*
X1299449Y277443D02*
D03*
X1275319D02*
D03*
X1273810Y302260D02*
D03*
X1275375Y321291D02*
D03*
X1275844Y341595D02*
D03*
X1286749Y290143D02*
D03*
X1283970Y331470D02*
D03*
X1297940Y302260D02*
D03*
X1233934Y341595D02*
D03*
X1235340Y361431D02*
D03*
X1241119Y351747D02*
D03*
X1242060Y372110D02*
D03*
X1249174Y341595D02*
D03*
X1256359Y351747D02*
D03*
X1263144Y341595D02*
D03*
X1270329Y351747D02*
D03*
X1283029D02*
D03*
X1264550Y361431D02*
D03*
X1250580D02*
D03*
X1257300Y372110D02*
D03*
X1277250Y361431D02*
D03*
X1271270Y372110D02*
D03*
X1283970D02*
D03*
X1004570Y585470D02*
D03*
Y670560D02*
D03*
X1004640Y595645D02*
D03*
X1035085Y578232D02*
D03*
X991866Y823964D02*
D03*
X1021338Y775128D02*
D03*
X1187491Y467192D02*
D03*
X1195070Y797560D02*
D03*
X1195960Y466979D02*
D03*
X1262380Y759460D02*
D03*
X1165860Y857250D02*
D03*
X1156414Y857435D02*
D03*
X1175464D02*
D03*
X1165860Y867410D02*
D03*
X1156414Y867595D02*
D03*
X1175464D02*
D03*
X1241790Y439711D02*
D03*
X1227820Y496861D02*
D03*
X1268460Y423201D02*
D03*
X806450Y798830D02*
D03*
X1136650Y953770D02*
D03*
X727710Y993140D02*
D03*
X1170386Y952466D02*
D03*
X1261110Y509270D02*
D03*
X1280160D02*
D03*
X1270000Y490220D02*
D03*
X1287780D02*
D03*
X1287685Y528982D02*
D03*
X1269905D02*
D03*
X1055807Y280817D02*
D03*
X1033857D02*
D03*
X857250Y514350D02*
D03*
X871220D02*
D03*
X885190D02*
D03*
X900430D02*
D03*
X1267460Y600710D02*
D03*
X1296670Y640080D02*
D03*
X906780Y624840D02*
D03*
X938530Y566420D02*
D03*
X1027430Y628650D02*
D03*
X1037590D02*
D03*
X1192530Y786130D02*
D03*
X1073150Y628650D02*
D03*
X916825Y812182D02*
D03*
X867410Y615950D02*
D03*
X1021292Y759623D02*
D03*
X839470Y770890D02*
D03*
X920387Y760651D02*
D03*
X1198856Y311403D02*
D03*
X1189210Y311046D02*
D03*
X1181100Y311150D02*
D03*
X1184910Y303530D02*
D03*
X1173480Y312420D02*
D03*
X1177290Y303530D02*
D03*
X711200Y420370D02*
D03*
X694690Y405130D02*
D03*
X706120Y403860D02*
D03*
X707390Y375920D02*
D03*
Y391160D02*
D03*
X697230Y370840D02*
D03*
X681990Y394970D02*
D03*
Y386080D02*
D03*
X670560Y393700D02*
D03*
X681990Y377190D02*
D03*
X687070Y370840D02*
D03*
X670560Y384810D02*
D03*
Y375920D02*
D03*
X792480Y863600D02*
D03*
X995680Y660400D02*
D03*
X970280Y552450D02*
D03*
X994410Y557530D02*
D03*
X926224Y788740D02*
D03*
X1112520Y825500D02*
D03*
X1104900Y819150D02*
D03*
X937351Y807364D02*
D03*
X1019810Y708660D02*
D03*
X971550Y702310D02*
D03*
X896620Y807720D02*
D03*
Y857250D02*
D03*
X1009650Y721360D02*
D03*
X964470Y708660D02*
D03*
X1118870Y831850D02*
D03*
X916489Y782081D02*
D03*
X1004570Y881380D02*
D03*
X1002030Y867410D02*
D03*
X949960Y632460D02*
D03*
X946635Y551927D02*
D03*
X938530Y608330D02*
D03*
X1250950Y928370D02*
D03*
X656590Y838200D02*
D03*
X1143000Y374650D02*
D03*
X1153160D02*
D03*
X1163320D02*
D03*
X1173480D02*
D03*
X1182719Y381624D02*
D03*
X1190061Y381900D02*
D03*
X1197585Y381716D02*
D03*
X1205384Y381900D02*
D03*
X1029930Y651550D02*
D03*
X1019810Y651510D02*
D03*
X932180Y881380D02*
D03*
X926815Y862795D02*
D03*
X906796Y780982D02*
D03*
X914782Y856382D02*
D03*
X897890Y588010D02*
D03*
X1109980Y839470D02*
D03*
X857289Y463603D02*
D03*
X871259D02*
D03*
X885229D02*
D03*
X900469D02*
D03*
X857289Y476303D02*
D03*
X871259D02*
D03*
X885229D02*
D03*
X900469D02*
D03*
X857289Y489003D02*
D03*
X871259D02*
D03*
X885229D02*
D03*
X900469D02*
D03*
Y501703D02*
D03*
X885229D02*
D03*
X871259D02*
D03*
X857289D02*
D03*
D48*
X911860Y595630D02*
D03*
Y646430D02*
D03*
X949554Y723864D02*
D03*
X963930Y828040D02*
D03*
X991870Y572770D02*
D03*
X991010Y773430D02*
D03*
Y795430D02*
D03*
X980010D02*
D03*
X969010Y784430D02*
D03*
Y795430D02*
D03*
X958010D02*
D03*
Y784430D02*
D03*
X947010Y795430D02*
D03*
Y784430D02*
D03*
X991010D02*
D03*
X980010Y773430D02*
D03*
Y762430D02*
D03*
Y784430D02*
D03*
X969010Y773430D02*
D03*
Y762430D02*
D03*
X991010Y751430D02*
D03*
Y762430D02*
D03*
X969010Y751430D02*
D03*
X980010D02*
D03*
X958010Y762430D02*
D03*
Y773430D02*
D03*
X947010Y751430D02*
D03*
Y773430D02*
D03*
Y762430D02*
D03*
X958010Y751430D02*
D03*
X928370Y723900D02*
D03*
X1012190Y814070D02*
D03*
X1084580Y819150D02*
D03*
X957580Y699770D02*
D03*
X923290Y695960D02*
D03*
D72*
X635624Y415010D02*
D03*
Y430532D02*
D03*
D73*
X650100Y387440D02*
D03*
X696100D02*
D03*
D78*
X1165520Y400478D02*
D03*
Y348302D02*
D03*
X1143420D02*
D03*
Y400478D02*
D03*
Y383962D02*
D03*
Y364818D02*
D03*
X1165520D02*
D03*
Y383962D02*
D03*
D80*
X1221710Y811530D02*
D03*
Y798830D02*
D03*
X1262410Y773430D02*
D03*
X1221710D02*
D03*
Y824230D02*
D03*
Y836930D02*
D03*
X1262410Y811530D02*
D03*
Y824230D02*
D03*
Y849630D02*
D03*
X1221710D02*
D03*
X1262410Y836930D02*
D03*
Y798830D02*
D03*
Y786130D02*
D03*
X1221710D02*
D03*
D81*
X985708Y862890D02*
D03*
X944691Y856390D02*
D03*
Y875890D02*
D03*
Y862890D02*
D03*
Y869390D02*
D03*
X985708Y856390D02*
D03*
Y869390D02*
D03*
D82*
X965200Y866140D02*
D03*
D84*
X887730Y602680D02*
D03*
X878230Y626680D02*
D03*
X897230Y602680D02*
D03*
X878230D02*
D03*
X897230Y626680D02*
D03*
D85*
X1004640Y605750D02*
D03*
D88*
X671335Y419280D02*
D03*
X666527Y443420D02*
D03*
X745929Y380116D02*
D03*
X745175Y404255D02*
D03*
X717375D02*
D03*
X718130Y380116D02*
D03*
X694327Y443420D02*
D03*
X699135Y419280D02*
D03*
D89*
X1153261Y323594D02*
D03*
Y301554D02*
D03*
X1167277D02*
D03*
Y323594D02*
D03*
D90*
X1259840Y346710D02*
D03*
D91*
X673100Y337940D02*
D03*
D92*
Y298940D02*
D03*
D93*
X1193340Y369710D02*
D03*
Y323710D02*
D03*
D94*
X1004640Y651550D02*
D03*
Y628650D02*
D03*
D95*
X1070540D02*
D03*
D96*
X985708Y875890D02*
D03*
D98*
X1024670Y799977D02*
D03*
X1014510D02*
D03*
X843280Y755650D02*
D03*
X853440D02*
D03*
X1087120Y411480D02*
D03*
X1076960D02*
D03*
X1087120Y422910D02*
D03*
X1076960D02*
D03*
X918790Y562234D02*
D03*
X918790Y571990D02*
D03*
X996850Y820110D02*
D03*
X996846Y829110D02*
D03*
X997040Y670614D02*
D03*
X979170Y535940D02*
D03*
X904900Y640720D02*
D03*
X918820Y581990D02*
D03*
X944888Y719288D02*
D03*
X944888Y728640D02*
D03*
X877928Y588890D02*
D03*
X961255Y834267D02*
D03*
X872490Y755650D02*
D03*
X882650D02*
D03*
X1015050Y743760D02*
D03*
X1025210D02*
D03*
X971415Y834267D02*
D03*
X887365Y640470D02*
D03*
X877205D02*
D03*
X867768Y588890D02*
D03*
X934728Y728640D02*
D03*
X934728Y719288D02*
D03*
X928980Y581990D02*
D03*
X894740Y640720D02*
D03*
X969746Y557660D02*
D03*
X959586D02*
D03*
X989330Y535940D02*
D03*
X963145Y545577D02*
D03*
X952985D02*
D03*
X957161Y670690D02*
D03*
X947001D02*
D03*
X986880Y670614D02*
D03*
X966470Y670560D02*
D03*
X976630D02*
D03*
X976629Y661430D02*
D03*
X986789D02*
D03*
X969746Y567930D02*
D03*
X959586D02*
D03*
X957161Y661430D02*
D03*
X947001D02*
D03*
X1007006Y829110D02*
D03*
X1007010Y820110D02*
D03*
X1000372Y729640D02*
D03*
X1010532D02*
D03*
X928950Y571990D02*
D03*
X928950Y562234D02*
D03*
D99*
X882650Y742370D02*
D03*
Y733370D02*
D03*
X902970Y742370D02*
D03*
Y733370D02*
D03*
D100*
X966510Y807430D02*
D03*
X991510D02*
D03*
X946510Y739430D02*
D03*
X961510D02*
D03*
X996510D02*
D03*
X991510D02*
D03*
X986510D02*
D03*
X981510D02*
D03*
X976510D02*
D03*
X971510D02*
D03*
X966510D02*
D03*
X956510D02*
D03*
X951510D02*
D03*
X941510Y807430D02*
D03*
X946510D02*
D03*
X951510D02*
D03*
X956510D02*
D03*
X961510D02*
D03*
X971510D02*
D03*
X976510D02*
D03*
X981510D02*
D03*
X986510D02*
D03*
X996510D02*
D03*
X941510Y739430D02*
D03*
D101*
X849630Y385130D02*
D03*
X951963Y439340D02*
D03*
Y479340D02*
D03*
X849630Y425130D02*
D03*
D102*
X912654Y797064D02*
D03*
X921880D02*
D03*
X1037590Y769060D02*
D03*
X1028505Y769055D02*
D03*
X915130Y600070D02*
D03*
X863954Y598930D02*
D03*
Y609090D02*
D03*
X915130Y610230D02*
D03*
X989330Y557530D02*
D03*
Y547370D02*
D03*
X999490Y546100D02*
D03*
Y535940D02*
D03*
X926560Y603250D02*
D03*
Y613410D02*
D03*
X1028505Y758895D02*
D03*
X1037590Y758900D02*
D03*
X921880Y807224D02*
D03*
X912654D02*
D03*
D103*
X954590Y903220D02*
D03*
X941090D02*
D03*
D104*
X954340Y888930D02*
D03*
X941340D02*
D03*
D105*
X1051310Y578610D02*
D03*
X1067809D02*
D03*
D106*
X882430Y698640D02*
D03*
X902970D02*
D03*
Y719640D02*
D03*
X882430D02*
D03*
D107*
X976630Y642930D02*
D03*
Y586430D02*
D03*
X951230Y642930D02*
D03*
X963930D02*
D03*
Y586430D02*
D03*
X951230D02*
D03*
X938530Y642930D02*
D03*
Y586430D02*
D03*
D108*
X1003010Y765930D02*
D03*
X935010Y795930D02*
D03*
X1003010Y800930D02*
D03*
Y795930D02*
D03*
Y790930D02*
D03*
Y785930D02*
D03*
Y780930D02*
D03*
Y775930D02*
D03*
Y770930D02*
D03*
Y750930D02*
D03*
Y745930D02*
D03*
X935010D02*
D03*
Y750930D02*
D03*
Y755930D02*
D03*
Y770930D02*
D03*
Y775930D02*
D03*
Y780930D02*
D03*
Y785930D02*
D03*
Y790930D02*
D03*
Y765930D02*
D03*
X1003010Y755930D02*
D03*
X935010Y760930D02*
D03*
Y800930D02*
D03*
X1003010Y760930D02*
D03*
D109*
X969010Y773430D02*
D03*
M02*
