G04*
G04 #@! TF.GenerationSoftware,Altium Limited,Altium Designer,25.8.1 (18)*
G04*
G04 Layer_Physical_Order=4*
G04 Layer_Color=16711680*
%FSLAX44Y44*%
%MOMM*%
G71*
G04*
G04 #@! TF.SameCoordinates,4E148589-1D32-403F-AA22-9DC0C59B02D4*
G04*
G04*
G04 #@! TF.FilePolarity,Positive*
G04*
G01*
G75*
%ADD11C,0.5000*%
%ADD12C,0.2000*%
%ADD13C,0.2500*%
%ADD19R,0.9500X1.0000*%
%ADD20R,1.0000X0.9500*%
%ADD44R,1.6000X1.6000*%
%ADD45C,1.6000*%
%ADD50C,0.4000*%
%ADD51C,0.2540*%
%ADD52C,0.6000*%
%ADD53C,1.0000*%
%ADD55C,1.4000*%
%ADD56R,1.4000X1.4000*%
%ADD57R,1.9000X1.9000*%
%ADD58C,1.9000*%
%ADD59R,2.1000X2.1000*%
%ADD60C,2.1000*%
%ADD61C,1.3000*%
G04:AMPARAMS|DCode=62|XSize=1.3mm|YSize=1.3mm|CornerRadius=0.325mm|HoleSize=0mm|Usage=FLASHONLY|Rotation=0.000|XOffset=0mm|YOffset=0mm|HoleType=Round|Shape=RoundedRectangle|*
%AMROUNDEDRECTD62*
21,1,1.3000,0.6500,0,0,0.0*
21,1,0.6500,1.3000,0,0,0.0*
1,1,0.6500,0.3250,-0.3250*
1,1,0.6500,-0.3250,-0.3250*
1,1,0.6500,-0.3250,0.3250*
1,1,0.6500,0.3250,0.3250*
%
%ADD62ROUNDEDRECTD62*%
%ADD63R,0.1100X0.0100*%
%ADD64C,0.6000*%
%ADD65C,0.5000*%
%ADD67C,0.3000*%
%ADD68R,0.6000X0.7000*%
%ADD69R,0.5500X0.5500*%
%ADD70O,0.2500X0.8000*%
%ADD71R,1.7000X2.5000*%
%ADD72R,1.3098X0.9061*%
%ADD73R,1.4000X2.6000*%
%ADD74R,0.7000X0.6000*%
%ADD75R,0.9000X1.0000*%
%ADD76R,0.8500X0.9000*%
%ADD77R,1.3500X1.4500*%
%ADD78R,1.4562X1.2546*%
%ADD79R,1.3000X1.1000*%
%ADD80R,2.7900X0.7400*%
G04:AMPARAMS|DCode=81|XSize=1.2565mm|YSize=0.4358mm|CornerRadius=0.2179mm|HoleSize=0mm|Usage=FLASHONLY|Rotation=180.000|XOffset=0mm|YOffset=0mm|HoleType=Round|Shape=RoundedRectangle|*
%AMROUNDEDRECTD81*
21,1,1.2565,0.0000,0,0,180.0*
21,1,0.8207,0.4358,0,0,180.0*
1,1,0.4358,-0.4103,0.0000*
1,1,0.4358,0.4103,0.0000*
1,1,0.4358,0.4103,0.0000*
1,1,0.4358,-0.4103,0.0000*
%
%ADD81ROUNDEDRECTD81*%
%ADD82R,1.8300X2.2600*%
G04:AMPARAMS|DCode=83|XSize=0.65mm|YSize=1.65mm|CornerRadius=0.0488mm|HoleSize=0mm|Usage=FLASHONLY|Rotation=180.000|XOffset=0mm|YOffset=0mm|HoleType=Round|Shape=RoundedRectangle|*
%AMROUNDEDRECTD83*
21,1,0.6500,1.5525,0,0,180.0*
21,1,0.5525,1.6500,0,0,180.0*
1,1,0.0975,-0.2763,0.7763*
1,1,0.0975,0.2763,0.7763*
1,1,0.0975,0.2763,-0.7763*
1,1,0.0975,-0.2763,-0.7763*
%
%ADD83ROUNDEDRECTD83*%
%ADD84R,0.6000X1.2000*%
%ADD85R,1.0043X0.8721*%
%ADD86O,0.8000X0.2500*%
%ADD87R,5.6000X5.6000*%
%ADD88R,1.2200X1.8600*%
%ADD89R,1.1046X1.3562*%
%ADD90R,6.7000X6.7000*%
%ADD91R,6.0000X4.1000*%
%ADD92R,6.0000X1.7000*%
%ADD93R,3.0000X1.6000*%
G04:AMPARAMS|DCode=94|XSize=1.0043mm|YSize=0.8721mm|CornerRadius=0.4361mm|HoleSize=0mm|Usage=FLASHONLY|Rotation=0.000|XOffset=0mm|YOffset=0mm|HoleType=Round|Shape=RoundedRectangle|*
%AMROUNDEDRECTD94*
21,1,1.0043,0.0000,0,0,0.0*
21,1,0.1322,0.8721,0,0,0.0*
1,1,0.8721,0.0661,0.0000*
1,1,0.8721,-0.0661,0.0000*
1,1,0.8721,-0.0661,0.0000*
1,1,0.8721,0.0661,0.0000*
%
%ADD94ROUNDEDRECTD94*%
G04:AMPARAMS|DCode=95|XSize=1.0043mm|YSize=3.1821mm|CornerRadius=0.4369mm|HoleSize=0mm|Usage=FLASHONLY|Rotation=0.000|XOffset=0mm|YOffset=0mm|HoleType=Round|Shape=RoundedRectangle|*
%AMROUNDEDRECTD95*
21,1,1.0043,2.3084,0,0,0.0*
21,1,0.1306,3.1821,0,0,0.0*
1,1,0.8737,0.0653,-1.1542*
1,1,0.8737,-0.0653,-1.1542*
1,1,0.8737,-0.0653,1.1542*
1,1,0.8737,0.0653,1.1542*
%
%ADD95ROUNDEDRECTD95*%
%ADD96R,1.2565X0.4358*%
%ADD97C,1.2000*%
G36*
X1073799Y913751D02*
X1057700Y897653D01*
X1017270D01*
X1015903Y897381D01*
X1014744Y896606D01*
X1004824Y886686D01*
X1004570Y886737D01*
X1002520Y886329D01*
X1000782Y885168D01*
X999621Y883430D01*
X999213Y881380D01*
X999621Y879330D01*
X1000107Y878603D01*
X999490D01*
X998123Y878331D01*
X996964Y877556D01*
X994245Y874837D01*
Y880323D01*
X977172D01*
Y871457D01*
X977654D01*
X977429Y871120D01*
X977301Y870476D01*
X978820Y865919D01*
X979875Y865214D01*
X981605Y864870D01*
X989812D01*
X991542Y865214D01*
X992977Y866173D01*
X994206D01*
X995573Y866445D01*
X996713Y867207D01*
X997081Y865360D01*
X998242Y863622D01*
X998457Y863478D01*
Y858730D01*
X993182Y853455D01*
X993988Y854660D01*
X994332Y856390D01*
X993988Y858120D01*
X993008Y859586D01*
X991542Y860566D01*
X989812Y860910D01*
X981605D01*
X979875Y860566D01*
X978409Y859586D01*
X977429Y858120D01*
X977217Y857054D01*
X973366Y853203D01*
X951997D01*
X952971Y854660D01*
X953315Y856390D01*
X952971Y858120D01*
X951991Y859586D01*
X951910Y859640D01*
X951991Y859694D01*
X952971Y861160D01*
X953315Y862890D01*
X952971Y864620D01*
X951991Y866086D01*
X951910Y866140D01*
X951991Y866194D01*
X952971Y867661D01*
X953315Y869390D01*
X952971Y871120D01*
X951991Y872586D01*
X951910Y872640D01*
X951991Y872694D01*
X952971Y874160D01*
X953315Y875890D01*
X952971Y877620D01*
X951991Y879086D01*
X950525Y880066D01*
X948795Y880410D01*
X943350D01*
X945116Y882176D01*
X947844D01*
Y884938D01*
X948273Y885581D01*
X948448Y886460D01*
Y906780D01*
X948273Y907660D01*
X947844Y908302D01*
Y910474D01*
X934336D01*
Y908376D01*
X929285Y903325D01*
X928787Y902579D01*
X928612Y901700D01*
Y887412D01*
X925475Y884275D01*
X924977Y883530D01*
X924802Y882650D01*
Y876300D01*
X924977Y875421D01*
X925475Y874675D01*
X926220Y874177D01*
X927100Y874002D01*
X935990D01*
X936456Y874095D01*
X937199Y872983D01*
X921460D01*
X920085Y872710D01*
X918920Y871931D01*
X914917Y867928D01*
X845820Y867513D01*
Y887730D01*
X873958Y924560D01*
X1062990D01*
X1073799Y913751D01*
D02*
G37*
G36*
X946150Y886460D02*
X935990Y876300D01*
X927100D01*
Y882650D01*
X930910Y886460D01*
Y901700D01*
X935990Y906780D01*
X946150D01*
Y886460D01*
D02*
G37*
G36*
X1099820Y887730D02*
X1261110D01*
X1281726Y867114D01*
X1281430Y867173D01*
X1194010D01*
X1179816Y881366D01*
X1178657Y882141D01*
X1177290Y882413D01*
X1154430D01*
X1153063Y882141D01*
X1151904Y881366D01*
X1143014Y872476D01*
X1142239Y871317D01*
X1141967Y869950D01*
Y857460D01*
X1133845Y849337D01*
X1133753Y849299D01*
X1106077D01*
X1104709Y849027D01*
X1103550Y848253D01*
X1093484Y838186D01*
X1092709Y837027D01*
X1092437Y835660D01*
Y832060D01*
X1084324Y823946D01*
X1082725Y823628D01*
X1081152Y822578D01*
X1080102Y821005D01*
X1079733Y819150D01*
X1080102Y817295D01*
X1081152Y815723D01*
X1082725Y814672D01*
X1084580Y814303D01*
X1086435Y814672D01*
X1088008Y815723D01*
X1089058Y817295D01*
X1089376Y818894D01*
X1098536Y828054D01*
X1099311Y829213D01*
X1099583Y830580D01*
Y834180D01*
X1104665Y839262D01*
X1105031Y837420D01*
X1106192Y835682D01*
X1107930Y834521D01*
X1109980Y834113D01*
X1112030Y834521D01*
X1113768Y835682D01*
X1113912Y835897D01*
X1115470D01*
X1115082Y835638D01*
X1113921Y833900D01*
X1113513Y831850D01*
X1113760Y830610D01*
X1112520Y830857D01*
X1110470Y830449D01*
X1108732Y829288D01*
X1107571Y827550D01*
X1107163Y825500D01*
X1107517Y823720D01*
X1106950Y824099D01*
X1104900Y824507D01*
X1102850Y824099D01*
X1101112Y822938D01*
X1099951Y821200D01*
X1099543Y819150D01*
X1099951Y817100D01*
X1101112Y815362D01*
X1102850Y814201D01*
X1104900Y813793D01*
X1106950Y814201D01*
X1108688Y815362D01*
X1108832Y815577D01*
X1117390D01*
X1178574Y754394D01*
X1179733Y753619D01*
X1181100Y753347D01*
X1184700D01*
X1197624Y740424D01*
X1198783Y739649D01*
X1200150Y739377D01*
X1286510D01*
X1287877Y739649D01*
X1289036Y740424D01*
X1301736Y753124D01*
X1302511Y754283D01*
X1302783Y755650D01*
Y782320D01*
X1302511Y783687D01*
X1301736Y784846D01*
X1285226Y801356D01*
X1284067Y802131D01*
X1282700Y802403D01*
X1278614D01*
Y804784D01*
X1246206D01*
Y792876D01*
X1278614D01*
Y795257D01*
X1281220D01*
X1295637Y780840D01*
Y780660D01*
X1295386Y781036D01*
X1287766Y788656D01*
X1286607Y789431D01*
X1285240Y789703D01*
X1278614D01*
Y792084D01*
X1246206D01*
Y780176D01*
X1278614D01*
Y782557D01*
X1283760D01*
X1289287Y777030D01*
Y759670D01*
X1282490Y752873D01*
X1205440D01*
X1192516Y765796D01*
X1191357Y766571D01*
X1189990Y766843D01*
X1187660D01*
X1126476Y828026D01*
X1126100Y828277D01*
X1179830D01*
X1181197Y828549D01*
X1182356Y829324D01*
X1185906Y832874D01*
Y822831D01*
X1200414D01*
Y831786D01*
X1201985Y833357D01*
X1205506D01*
Y830976D01*
X1237914D01*
Y842884D01*
X1205506D01*
Y840503D01*
X1200505D01*
X1199138Y840231D01*
X1197979Y839456D01*
X1195361Y836839D01*
X1189871D01*
X1199090Y846057D01*
X1205506D01*
Y843676D01*
X1237914D01*
Y852347D01*
X1244390D01*
X1246206Y850532D01*
Y843676D01*
X1278614D01*
Y855584D01*
X1251258D01*
X1248396Y858446D01*
X1247237Y859221D01*
X1245870Y859493D01*
X1193740D01*
X1192373Y859221D01*
X1191214Y858446D01*
X1175810Y843043D01*
X1137253D01*
X1138673Y843991D01*
X1138638Y844026D01*
X1148066Y853454D01*
X1148841Y854613D01*
X1149113Y855980D01*
Y868470D01*
X1155910Y875267D01*
X1175810D01*
X1190004Y861074D01*
X1191163Y860299D01*
X1192530Y860027D01*
X1279950D01*
X1286747Y853230D01*
Y846030D01*
X1281220Y840503D01*
X1278614D01*
Y842884D01*
X1246206D01*
Y830976D01*
X1278614D01*
Y833357D01*
X1282700D01*
X1284067Y833629D01*
X1285226Y834404D01*
X1292846Y842024D01*
X1293621Y843183D01*
X1293893Y844550D01*
Y854710D01*
X1293834Y855006D01*
X1306480Y842360D01*
Y748950D01*
X1286510Y728980D01*
X1269254D01*
Y736964D01*
X1250746D01*
Y728980D01*
X1231067D01*
X1230916Y730126D01*
X1229983Y732377D01*
X1228500Y734310D01*
X1226567Y735793D01*
X1224316Y736726D01*
X1221900Y737044D01*
X1219484Y736726D01*
X1217233Y735793D01*
X1215300Y734310D01*
X1213817Y732377D01*
X1212884Y730126D01*
X1212733Y728980D01*
X1172210D01*
X1141730Y759460D01*
X1082040D01*
X1070610Y748030D01*
Y711200D01*
X1099820Y681990D01*
Y683260D01*
X1289050D01*
X1313180Y659130D01*
Y544830D01*
X1290320Y521970D01*
X1198880D01*
X1182370Y505460D01*
X1102369D01*
X1101986Y506384D01*
X1135352Y539750D01*
X1168400D01*
X1184910Y556260D01*
X1277620D01*
Y637540D01*
X1270000Y645160D01*
X1116330D01*
Y578416D01*
X1115683Y579977D01*
X1114200Y581910D01*
X1112267Y583393D01*
X1110016Y584326D01*
X1107600Y584644D01*
X1105184Y584326D01*
X1102933Y583393D01*
X1101000Y581910D01*
X1099517Y579977D01*
X1098584Y577726D01*
X1098266Y575310D01*
X1098584Y572894D01*
X1099517Y570643D01*
X1101000Y568710D01*
X1102933Y567227D01*
X1105184Y566294D01*
X1107600Y565976D01*
X1110016Y566294D01*
X1112267Y567227D01*
X1114200Y568710D01*
X1115683Y570643D01*
X1116330Y572204D01*
Y544830D01*
X1111250Y539750D01*
X1123941D01*
X1124324Y538826D01*
X1090957Y505460D01*
X1068882D01*
X1068341Y506269D01*
X1067609Y507001D01*
X1066310Y507869D01*
X1064260Y508277D01*
X1062210Y507869D01*
X1060472Y506708D01*
X1059638Y505460D01*
X1052878D01*
X1052045Y506708D01*
X1050307Y507869D01*
X1048257Y508277D01*
X1046207Y507869D01*
X1044469Y506708D01*
X1043635Y505460D01*
X1038908D01*
X1038075Y506708D01*
X1036337Y507869D01*
X1034287Y508277D01*
X1032237Y507869D01*
X1030499Y506708D01*
X1029665Y505460D01*
X1016000D01*
X1009650Y499110D01*
Y436580D01*
X1018240Y427990D01*
X1081866D01*
Y417234D01*
X1071706D01*
Y415053D01*
X1026023D01*
X1024656Y414781D01*
X1023497Y414006D01*
X1016099Y406608D01*
X1013239Y407793D01*
X1009910Y408231D01*
X1006581Y407793D01*
X1003478Y406508D01*
X1000814Y404463D01*
X998769Y401799D01*
X997484Y398697D01*
X997046Y395367D01*
X997484Y392038D01*
X998769Y388935D01*
X1000814Y386271D01*
X1003478Y384226D01*
X1006581Y382941D01*
X1009910Y382503D01*
X1013239Y382941D01*
X1016342Y384226D01*
X1019006Y386271D01*
X1021051Y388935D01*
X1022336Y392038D01*
X1022774Y395367D01*
X1022336Y398697D01*
X1021151Y401556D01*
X1027503Y407907D01*
X1058251D01*
X1057381Y407793D01*
X1054278Y406508D01*
X1051614Y404463D01*
X1049569Y401799D01*
X1048284Y398697D01*
X1047846Y395367D01*
X1048284Y392038D01*
X1049569Y388935D01*
X1051614Y386271D01*
X1054278Y384226D01*
X1057381Y382941D01*
X1060710Y382503D01*
X1064039Y382941D01*
X1067142Y384226D01*
X1069806Y386271D01*
X1071851Y388935D01*
X1073136Y392038D01*
X1073574Y395367D01*
X1073136Y398697D01*
X1071851Y401799D01*
X1069806Y404463D01*
X1067142Y406508D01*
X1064039Y407793D01*
X1063169Y407907D01*
X1071706D01*
Y405726D01*
X1092374D01*
Y417156D01*
Y423611D01*
X1095996Y427234D01*
X1096501Y427990D01*
X1265911D01*
X1284462Y452120D01*
X1338264D01*
X1343660Y231140D01*
X631190D01*
X594360Y267970D01*
Y529590D01*
X615950Y551180D01*
X820420D01*
X842247Y573007D01*
Y556470D01*
X805194Y519416D01*
X804419Y518257D01*
X804147Y516890D01*
Y487890D01*
X798844Y482586D01*
X798069Y481427D01*
X797797Y480060D01*
Y383662D01*
X797582Y383518D01*
X796421Y381780D01*
X796013Y379730D01*
X796421Y377680D01*
X797582Y375942D01*
X799320Y374781D01*
X801370Y374373D01*
X803420Y374781D01*
X805158Y375942D01*
X806319Y377680D01*
X806727Y379730D01*
X806319Y381780D01*
X805158Y383518D01*
X804943Y383662D01*
Y478580D01*
X806624Y480261D01*
X807052Y358808D01*
X806851Y358674D01*
X805689Y356936D01*
X805282Y354886D01*
X805689Y352836D01*
X806851Y351098D01*
X808589Y349937D01*
X810639Y349529D01*
X812689Y349937D01*
X814426Y351098D01*
X815588Y352836D01*
X815995Y354886D01*
X815588Y356936D01*
X814426Y358674D01*
X814197Y358827D01*
X813772Y479328D01*
X818328Y483884D01*
X819103Y485043D01*
X819375Y486410D01*
Y512062D01*
X857583Y550270D01*
X858357Y551429D01*
X858629Y552797D01*
Y593676D01*
X860361D01*
Y592976D01*
X860634Y591601D01*
X861413Y590435D01*
X862514Y589335D01*
Y583136D01*
X873022D01*
Y594426D01*
X883484D01*
Y610934D01*
X872976D01*
Y602523D01*
X869708D01*
Y603836D01*
Y608710D01*
X870094Y609096D01*
X871034Y610504D01*
X871365Y612163D01*
Y612412D01*
X872359Y613900D01*
X872767Y615950D01*
X872359Y618000D01*
X871198Y619738D01*
X869460Y620899D01*
X867410Y621307D01*
X865360Y620899D01*
X863622Y619738D01*
X862461Y618000D01*
X862053Y615950D01*
X862373Y614344D01*
X858629D01*
Y637677D01*
X869936Y648984D01*
X870711Y650143D01*
X870983Y651510D01*
Y749896D01*
X885095D01*
X882573Y747374D01*
X877646D01*
Y737366D01*
Y728366D01*
X877693D01*
Y727394D01*
X873676D01*
Y711886D01*
X891184D01*
Y727394D01*
X887387D01*
Y728366D01*
X887654D01*
Y737366D01*
Y742292D01*
X892699Y747337D01*
X897966D01*
Y737366D01*
Y728366D01*
X898123D01*
Y727394D01*
X894216D01*
Y711886D01*
X911724D01*
Y727394D01*
X907817D01*
Y728366D01*
X907974D01*
Y737366D01*
Y742292D01*
X908018Y742337D01*
X935010D01*
X935113Y742357D01*
X937760D01*
X937981Y742401D01*
X937937Y742180D01*
Y739430D01*
Y738520D01*
X933811Y734394D01*
X929474D01*
Y728528D01*
X928370Y728747D01*
X926515Y728378D01*
X924942Y727327D01*
X923892Y725755D01*
X923523Y723900D01*
X923892Y722045D01*
X924942Y720472D01*
X926515Y719422D01*
X928370Y719053D01*
X929474Y719273D01*
Y713534D01*
X939982D01*
Y722886D01*
X939982D01*
Y730460D01*
X942952Y733429D01*
X944036Y734154D01*
X944811Y735313D01*
X945083Y736680D01*
Y742180D01*
X944811Y743547D01*
X944036Y744706D01*
X942877Y745481D01*
X941510Y745753D01*
X941289Y745709D01*
X941333Y745930D01*
X941061Y747297D01*
X940304Y748430D01*
X941061Y749563D01*
X941333Y750930D01*
X941061Y752297D01*
X940304Y753430D01*
X941061Y754563D01*
X941333Y755930D01*
X941061Y757297D01*
X940304Y758430D01*
X941061Y759563D01*
X941333Y760930D01*
X941061Y762297D01*
X940304Y763430D01*
X941061Y764563D01*
X941333Y765930D01*
X941061Y767297D01*
X940304Y768430D01*
X941061Y769563D01*
X941333Y770930D01*
X941061Y772297D01*
X940304Y773430D01*
X941061Y774563D01*
X941333Y775930D01*
X941061Y777297D01*
X940304Y778430D01*
X941061Y779563D01*
X941333Y780930D01*
X941061Y782297D01*
X940304Y783430D01*
X941061Y784563D01*
X941333Y785930D01*
X941061Y787297D01*
X940304Y788430D01*
X941061Y789563D01*
X941333Y790930D01*
X941061Y792297D01*
X940286Y793456D01*
X939127Y794231D01*
X937760Y794503D01*
X928414D01*
X928413Y794503D01*
X928413Y794503D01*
X927771Y794375D01*
X927047Y794231D01*
X927046Y794231D01*
X927046Y794231D01*
X926704Y794002D01*
X926224Y794097D01*
X924174Y793689D01*
X922436Y792528D01*
X921275Y790790D01*
X920867Y788740D01*
X921275Y786690D01*
X922015Y785583D01*
X920455Y785603D01*
X920277Y785869D01*
X918539Y787030D01*
X916489Y787438D01*
X914439Y787030D01*
X912701Y785869D01*
X911540Y784131D01*
X911419Y783521D01*
X910584Y784770D01*
X908846Y785931D01*
X906796Y786339D01*
X904746Y785931D01*
X903008Y784770D01*
X901847Y783032D01*
X901439Y780982D01*
X901847Y778932D01*
X903008Y777194D01*
X904746Y776033D01*
X906796Y775625D01*
X907050Y775676D01*
X909282Y773444D01*
X909658Y773193D01*
X903180D01*
X900193Y776180D01*
Y803788D01*
X900408Y803932D01*
X901569Y805670D01*
X901977Y807720D01*
X901569Y809770D01*
X900408Y811508D01*
X898670Y812669D01*
X896620Y813077D01*
X894570Y812669D01*
X892832Y811508D01*
X891671Y809770D01*
X891263Y807720D01*
X891671Y805670D01*
X892832Y803932D01*
X893047Y803788D01*
Y774700D01*
X893319Y773333D01*
X894094Y772174D01*
X899174Y767094D01*
X900333Y766319D01*
X901700Y766047D01*
X918000D01*
X918429Y765618D01*
X918337Y765600D01*
X916599Y764439D01*
X915438Y762701D01*
X915030Y760651D01*
X915438Y758601D01*
X916599Y756863D01*
X918337Y755702D01*
X920387Y755294D01*
X922437Y755702D01*
X924175Y756863D01*
X924489Y757333D01*
X928983D01*
X928959Y757297D01*
X928687Y755930D01*
X928959Y754563D01*
X928986Y754523D01*
X891210D01*
X889835Y754250D01*
X888670Y753471D01*
X887904Y752705D01*
Y761404D01*
X887051D01*
Y762941D01*
X887599Y763760D01*
X888007Y765810D01*
X887599Y767860D01*
X886438Y769598D01*
X884700Y770759D01*
X882650Y771167D01*
X880600Y770759D01*
X878862Y769598D01*
X877701Y767860D01*
X877293Y765810D01*
X877701Y763760D01*
X878862Y762022D01*
X879397Y761665D01*
Y761404D01*
X870983D01*
Y821480D01*
X875240Y825737D01*
X945940D01*
X957704Y813973D01*
X958864Y813199D01*
X959524Y813067D01*
X959010Y812724D01*
X957877Y813481D01*
X956510Y813753D01*
X955143Y813481D01*
X954010Y812724D01*
X952877Y813481D01*
X951510Y813753D01*
X950143Y813481D01*
X949010Y812724D01*
X947877Y813481D01*
X946510Y813753D01*
X945143Y813481D01*
X944010Y812724D01*
X942877Y813481D01*
X941510Y813753D01*
X940143Y813481D01*
X938984Y812706D01*
X938801Y812432D01*
X937351Y812721D01*
X935301Y812313D01*
X933563Y811152D01*
X932402Y809414D01*
X931994Y807364D01*
X932219Y806235D01*
X931269Y806424D01*
X928964Y808729D01*
X928951Y808795D01*
X928121Y810036D01*
X927634Y810362D01*
Y812478D01*
X922123D01*
X921774Y814232D01*
X920613Y815970D01*
X918875Y817131D01*
X916825Y817539D01*
X914775Y817131D01*
X913037Y815970D01*
X911876Y814232D01*
X911527Y812478D01*
X906900D01*
Y801970D01*
X924897D01*
X926934Y799933D01*
X928175Y799104D01*
X929421Y798856D01*
X929453Y798824D01*
X929734Y798404D01*
X930893Y797629D01*
X930964Y797615D01*
X931295Y797394D01*
X932760Y797103D01*
X935010D01*
X936291Y797357D01*
X937760D01*
X939127Y797629D01*
X940286Y798404D01*
X941061Y799563D01*
X941333Y800930D01*
X941289Y801151D01*
X941510Y801107D01*
X942877Y801379D01*
X944010Y802136D01*
X945143Y801379D01*
X946510Y801107D01*
X947877Y801379D01*
X949010Y802136D01*
X950143Y801379D01*
X951510Y801107D01*
X952877Y801379D01*
X954010Y802136D01*
X955143Y801379D01*
X956510Y801107D01*
X957877Y801379D01*
X959010Y802136D01*
X960143Y801379D01*
X961510Y801107D01*
X962877Y801379D01*
X964010Y802136D01*
X965143Y801379D01*
X966510Y801107D01*
X967877Y801379D01*
X969010Y802136D01*
X970143Y801379D01*
X971510Y801107D01*
X972877Y801379D01*
X974010Y802136D01*
X975143Y801379D01*
X976510Y801107D01*
X977877Y801379D01*
X979010Y802136D01*
X980143Y801379D01*
X981510Y801107D01*
X982877Y801379D01*
X984010Y802136D01*
X985143Y801379D01*
X986510Y801107D01*
X987877Y801379D01*
X989036Y802154D01*
X989811Y803313D01*
X990083Y804680D01*
Y810180D01*
Y840250D01*
X1004556Y854724D01*
X1005331Y855883D01*
X1005603Y857250D01*
Y863478D01*
X1005818Y863622D01*
X1006979Y865360D01*
X1007387Y867410D01*
X1006979Y869460D01*
X1005818Y871198D01*
X1005430Y871457D01*
X1017770D01*
X1032747Y856480D01*
Y797560D01*
X1033019Y796193D01*
X1033794Y795034D01*
X1045447Y783380D01*
Y759670D01*
X1043344Y757567D01*
Y764154D01*
X1031836D01*
Y764149D01*
X1030139D01*
X1029159Y764359D01*
X1023542Y764439D01*
X1023342Y764572D01*
X1021292Y764980D01*
X1019242Y764572D01*
X1018493Y764072D01*
X1018023Y764165D01*
X1017331Y764303D01*
X1012996D01*
X1011990Y764503D01*
X1000260D01*
X998893Y764231D01*
X997734Y763456D01*
X996959Y762297D01*
X996687Y760930D01*
X996959Y759563D01*
X997716Y758430D01*
X996959Y757297D01*
X996687Y755930D01*
X996959Y754563D01*
X997716Y753430D01*
X996959Y752297D01*
X996687Y750930D01*
X996959Y749563D01*
X997716Y748430D01*
X996959Y747297D01*
X996687Y745930D01*
X996731Y745709D01*
X996510Y745753D01*
X995143Y745481D01*
X994010Y744724D01*
X992877Y745481D01*
X991510Y745753D01*
X990143Y745481D01*
X989010Y744724D01*
X987877Y745481D01*
X986510Y745753D01*
X985143Y745481D01*
X984010Y744724D01*
X982877Y745481D01*
X981510Y745753D01*
X980143Y745481D01*
X979010Y744724D01*
X977877Y745481D01*
X976510Y745753D01*
X975143Y745481D01*
X974010Y744724D01*
X972877Y745481D01*
X971510Y745753D01*
X970143Y745481D01*
X969010Y744724D01*
X967877Y745481D01*
X966510Y745753D01*
X965143Y745481D01*
X964010Y744724D01*
X962877Y745481D01*
X961510Y745753D01*
X960143Y745481D01*
X959010Y744724D01*
X957877Y745481D01*
X956510Y745753D01*
X955143Y745481D01*
X954010Y744724D01*
X952877Y745481D01*
X951510Y745753D01*
X950143Y745481D01*
X948984Y744706D01*
X948209Y743547D01*
X947937Y742180D01*
Y739430D01*
Y736680D01*
Y729970D01*
X948209Y728603D01*
X948984Y727444D01*
X952737Y723690D01*
Y721570D01*
X949974Y718806D01*
X949199Y717647D01*
X948927Y716280D01*
Y707600D01*
X945940Y704613D01*
X928370D01*
X927003Y704341D01*
X925844Y703566D01*
X923034Y700756D01*
X921435Y700438D01*
X919863Y699388D01*
X918812Y697815D01*
X918443Y695960D01*
X918812Y694105D01*
X919863Y692533D01*
X921435Y691482D01*
X923290Y691113D01*
X925145Y691482D01*
X926718Y692533D01*
X927768Y694105D01*
X928086Y695704D01*
X929850Y697467D01*
X947420D01*
X948787Y697739D01*
X949946Y698514D01*
X953191Y701759D01*
X953102Y701625D01*
X952733Y699770D01*
X953102Y697915D01*
X954153Y696342D01*
X955725Y695292D01*
X957580Y694923D01*
X959435Y695292D01*
X961008Y696342D01*
X961740Y697439D01*
X961944Y697135D01*
X962897Y696182D01*
Y691090D01*
X959910Y688103D01*
X946150D01*
X944783Y687831D01*
X943624Y687056D01*
X928384Y671816D01*
X927609Y670657D01*
X927337Y669290D01*
Y631190D01*
X927609Y629823D01*
X928384Y628664D01*
X947657Y609390D01*
Y596827D01*
X947398Y596775D01*
X946491Y596169D01*
X945885Y595262D01*
X945672Y594193D01*
Y578668D01*
X945885Y577598D01*
X946491Y576691D01*
X947398Y576085D01*
X948467Y575872D01*
X951735D01*
X954264Y573344D01*
Y569680D01*
X954332Y569335D01*
Y562176D01*
Y551906D01*
X965031D01*
X965146Y551331D01*
X952784D01*
X951944Y552171D01*
X951584Y553977D01*
X950423Y555715D01*
X948685Y556876D01*
X946635Y557284D01*
X944585Y556876D01*
X942847Y555715D01*
X941686Y553977D01*
X941278Y551927D01*
X941686Y549877D01*
X942847Y548139D01*
X944585Y546978D01*
X946635Y546570D01*
X947306Y546704D01*
X947731Y546279D01*
Y539823D01*
X968399D01*
Y542005D01*
X973567D01*
X974934Y542276D01*
X976093Y543051D01*
X982966Y549924D01*
X983576Y550836D01*
Y542116D01*
X985757D01*
Y541694D01*
X984076D01*
Y531893D01*
X849396D01*
Y531942D01*
X847053Y531476D01*
X845067Y530149D01*
X845067Y530149D01*
X845101Y530114D01*
X822974Y507986D01*
X822199Y506827D01*
X821927Y505460D01*
Y453260D01*
X822199Y451893D01*
X822974Y450734D01*
X838876Y434832D01*
Y410376D01*
X860384D01*
Y439884D01*
X843929D01*
X829073Y454740D01*
Y503980D01*
X849840Y524747D01*
X994644D01*
Y524717D01*
X962717Y492790D01*
Y494094D01*
X941209D01*
Y464586D01*
X962717D01*
Y482685D01*
X1014716Y534684D01*
X1015491Y535843D01*
X1015763Y537210D01*
Y556138D01*
X1015978Y556282D01*
X1017139Y558020D01*
X1017547Y560070D01*
X1017139Y562120D01*
X1015978Y563858D01*
X1014240Y565019D01*
X1012190Y565427D01*
X1010140Y565019D01*
X1008402Y563858D01*
X1007241Y562120D01*
X1006833Y560070D01*
X1007241Y558020D01*
X1008402Y556282D01*
X1008617Y556138D01*
Y538690D01*
X1005244Y535317D01*
Y540846D01*
Y551354D01*
X995084D01*
Y552276D01*
Y552307D01*
X996460Y552581D01*
X998198Y553742D01*
X999359Y555480D01*
X999767Y557530D01*
X999359Y559580D01*
X998198Y561318D01*
X996460Y562479D01*
X995084Y562753D01*
Y562784D01*
X994927D01*
X994410Y562887D01*
X993893Y562784D01*
X984013D01*
Y567480D01*
X989316Y572784D01*
X990091Y573943D01*
X990363Y575310D01*
Y598170D01*
X990091Y599537D01*
X989316Y600696D01*
X984002Y606011D01*
X982843Y606785D01*
X981476Y607057D01*
X979405D01*
X978226Y606823D01*
X966665D01*
X965297Y606551D01*
X964138Y605776D01*
X961404Y603042D01*
X960629Y601883D01*
X960357Y600516D01*
Y596827D01*
X960098Y596775D01*
X959191Y596169D01*
X958585Y595262D01*
X958372Y594193D01*
Y579340D01*
X956788Y580925D01*
Y594193D01*
X956575Y595262D01*
X955969Y596169D01*
X955062Y596775D01*
X954803Y596827D01*
Y610870D01*
X954531Y612237D01*
X953756Y613396D01*
X934483Y632670D01*
Y632729D01*
X934698Y632585D01*
X935768Y632372D01*
X941292D01*
X942362Y632585D01*
X943269Y633191D01*
X943875Y634098D01*
X944088Y635167D01*
Y644855D01*
X944103Y644930D01*
Y652979D01*
X946800Y655676D01*
X957723D01*
X959644Y653756D01*
X959700Y653718D01*
X960135Y653282D01*
X960098Y653275D01*
X959191Y652669D01*
X958585Y651762D01*
X958372Y650692D01*
Y635167D01*
X958585Y634098D01*
X959191Y633191D01*
X960098Y632585D01*
X961168Y632372D01*
X966693D01*
X967762Y632585D01*
X968669Y633191D01*
X969275Y634098D01*
X969488Y635167D01*
Y650692D01*
X969275Y651762D01*
X968669Y652669D01*
X967976Y653132D01*
Y654180D01*
X967704Y655547D01*
X966930Y656706D01*
X965771Y657480D01*
X965210Y657592D01*
X964354Y658448D01*
X964299Y658485D01*
X962415Y660368D01*
Y664806D01*
X971375D01*
Y655676D01*
X992043D01*
Y656511D01*
X993630Y655451D01*
X995680Y655043D01*
X997730Y655451D01*
X999289Y656493D01*
X998304Y655208D01*
X997573Y653444D01*
X997558Y653333D01*
X997535Y653277D01*
X997308Y651550D01*
X997535Y649823D01*
X997558Y649767D01*
X997573Y649657D01*
X998304Y647892D01*
X999466Y646376D01*
X1000982Y645214D01*
X1002746Y644483D01*
X1004640Y644234D01*
X1029665D01*
X1029970Y644193D01*
X1031864Y644443D01*
X1033628Y645174D01*
X1035144Y646336D01*
X1036306Y647852D01*
X1037037Y649616D01*
X1037287Y651510D01*
X1037037Y653404D01*
X1036306Y655168D01*
X1035144Y656684D01*
X1035104Y656724D01*
X1033588Y657887D01*
X1031824Y658617D01*
X1029930Y658867D01*
X1004640D01*
X1002746Y658617D01*
X1000982Y657887D01*
X999622Y656843D01*
X1000629Y658350D01*
X1001037Y660400D01*
X1000629Y662450D01*
X999468Y664188D01*
X997730Y665349D01*
X995680Y665757D01*
X993630Y665349D01*
X993111Y665003D01*
X992134D01*
Y676368D01*
X981626D01*
Y676314D01*
X970927D01*
X974036Y679424D01*
X974810Y680583D01*
X975082Y681950D01*
Y698351D01*
X975338Y698522D01*
X976499Y700260D01*
X976907Y702310D01*
X976499Y704360D01*
X975338Y706098D01*
X975082Y706269D01*
Y733420D01*
X975143Y733379D01*
X976510Y733107D01*
X977877Y733379D01*
X977937Y733419D01*
Y716480D01*
X978209Y715113D01*
X978984Y713954D01*
X1008394Y684544D01*
X1009553Y683769D01*
X1010920Y683497D01*
X1067860D01*
X1090944Y660414D01*
X1092103Y659639D01*
X1093470Y659367D01*
X1277410D01*
X1291822Y644955D01*
X1291984Y644143D01*
X1292428Y643478D01*
Y643268D01*
X1292216Y643056D01*
X1291416Y641125D01*
Y639035D01*
X1292216Y637104D01*
X1293694Y635626D01*
X1295625Y634826D01*
X1297715D01*
X1299646Y635626D01*
X1301124Y637104D01*
X1301924Y639035D01*
Y641125D01*
X1301124Y643056D01*
X1299646Y644534D01*
X1299573Y644564D01*
Y644794D01*
X1299301Y646161D01*
X1298686Y647082D01*
X1298556Y647737D01*
X1297229Y649723D01*
X1297229Y649723D01*
X1296487Y650396D01*
X1281416Y665466D01*
X1280257Y666241D01*
X1278890Y666513D01*
X1094950D01*
X1071866Y689596D01*
X1070707Y690371D01*
X1069340Y690643D01*
X1012400D01*
X985082Y717960D01*
Y733420D01*
X985143Y733379D01*
X986510Y733107D01*
X987877Y733379D01*
X987937Y733419D01*
Y733150D01*
X988209Y731783D01*
X988984Y730624D01*
X992494Y727114D01*
X993653Y726339D01*
X995020Y726067D01*
X995118D01*
Y723886D01*
X1005019D01*
X1004701Y723410D01*
X1004293Y721360D01*
X1004701Y719310D01*
X1005862Y717572D01*
X1007600Y716411D01*
X1009650Y716003D01*
X1011700Y716411D01*
X1013438Y717572D01*
X1014599Y719310D01*
X1015007Y721360D01*
X1014599Y723410D01*
X1014281Y723886D01*
X1015786D01*
Y735394D01*
X999827D01*
X1000083Y736680D01*
Y742180D01*
X1000039Y742401D01*
X1000260Y742357D01*
X1006649D01*
X1006774Y742232D01*
X1007933Y741458D01*
X1009300Y741186D01*
X1009796D01*
Y738006D01*
X1021637D01*
Y715540D01*
X1020064Y713966D01*
X1019810Y714017D01*
X1017760Y713609D01*
X1016022Y712448D01*
X1014861Y710710D01*
X1014453Y708660D01*
X1014861Y706610D01*
X1016022Y704872D01*
X1017760Y703711D01*
X1019810Y703303D01*
X1021860Y703711D01*
X1023598Y704872D01*
X1024759Y706610D01*
X1025167Y708660D01*
X1025116Y708914D01*
X1027736Y711534D01*
X1028511Y712693D01*
X1028783Y714060D01*
Y738006D01*
X1030464D01*
Y746997D01*
X1041400D01*
X1042767Y747269D01*
X1043926Y748044D01*
X1051546Y755664D01*
X1052321Y756823D01*
X1052593Y758190D01*
Y784860D01*
X1052321Y786227D01*
X1051546Y787386D01*
X1039893Y799040D01*
Y857960D01*
X1039621Y859327D01*
X1038846Y860486D01*
X1021776Y877556D01*
X1020617Y878331D01*
X1019250Y878603D01*
X1009033D01*
X1009519Y879330D01*
X1009927Y881380D01*
X1009876Y881634D01*
X1018750Y890507D01*
X1059180D01*
X1060547Y890779D01*
X1061706Y891554D01*
X1078851Y908699D01*
X1099820Y887730D01*
D02*
G37*
G36*
X921458Y862795D02*
X921866Y860745D01*
X922379Y859977D01*
X918699Y859976D01*
X918570Y860170D01*
X917405Y860948D01*
X917789Y861024D01*
X917798Y861031D01*
X917809Y861033D01*
X918383Y861421D01*
X918955Y861803D01*
X921833Y864682D01*
X921458Y862795D01*
D02*
G37*
G36*
X910994Y860170D02*
X909833Y858432D01*
X909425Y856382D01*
X909833Y854332D01*
X910587Y853203D01*
X905720D01*
X901926Y856996D01*
X901977Y857250D01*
X901569Y859300D01*
X900663Y860656D01*
X911823Y860723D01*
X910994Y860170D01*
D02*
G37*
G36*
X891671Y859300D02*
X891263Y857250D01*
X891671Y855200D01*
X892832Y853462D01*
X894570Y852301D01*
X896620Y851893D01*
X896874Y851944D01*
X901714Y847104D01*
X902873Y846329D01*
X904240Y846057D01*
X951495D01*
X951020Y845583D01*
X845820D01*
Y860327D01*
X892545Y860608D01*
X891671Y859300D01*
D02*
G37*
G36*
X983984Y844256D02*
X983209Y843097D01*
X982986Y841976D01*
X977886Y847076D01*
X977561Y847293D01*
X982138Y851870D01*
X989812D01*
X991542Y852214D01*
X992747Y853020D01*
X983984Y844256D01*
D02*
G37*
G36*
X1195084Y852156D02*
X1178350Y835423D01*
X1122802D01*
X1122658Y835638D01*
X1122270Y835897D01*
X1177290D01*
X1178657Y836169D01*
X1179816Y836944D01*
X1195220Y852347D01*
X1195370D01*
X1195084Y852156D01*
D02*
G37*
G36*
X974837Y840021D02*
X966161D01*
Y828513D01*
X967822D01*
Y825586D01*
X967892Y825232D01*
X967740Y825263D01*
X964140D01*
X951216Y838186D01*
X950840Y838437D01*
X952500D01*
X953867Y838709D01*
X955026Y839484D01*
X956520Y840977D01*
X973880D01*
X974837Y840021D01*
D02*
G37*
G36*
X977937Y836920D02*
Y824145D01*
X975008Y827074D01*
Y828513D01*
X976669D01*
Y838189D01*
X977937Y836920D01*
D02*
G37*
G36*
X929603Y783600D02*
X928956Y784247D01*
X929104Y784346D01*
X929603Y783600D01*
D02*
G37*
G36*
X925975Y769502D02*
X924650D01*
X922006Y772146D01*
X921630Y772397D01*
X923080D01*
X925975Y769502D01*
D02*
G37*
G36*
X863614Y838186D02*
X856802Y831374D01*
X856027Y830215D01*
X855755Y828848D01*
Y761404D01*
X847107D01*
Y767080D01*
X846816Y768545D01*
X845986Y769787D01*
X845820Y769953D01*
Y838437D01*
X863990D01*
X863614Y838186D01*
D02*
G37*
G36*
X1183654Y760744D02*
X1184030Y760493D01*
X1182580D01*
X1121396Y821676D01*
X1121020Y821927D01*
X1122470D01*
X1183654Y760744D01*
D02*
G37*
G36*
X1022751Y754143D02*
X1021290D01*
X1021135Y754297D01*
X1021292Y754266D01*
X1022751Y754556D01*
Y754143D01*
D02*
G37*
G36*
X1015814Y749514D02*
X1009796D01*
Y749030D01*
X1009496Y749231D01*
X1008916Y749346D01*
X1009061Y749563D01*
X1009333Y750930D01*
X1009061Y752297D01*
X1009021Y752357D01*
X1012970D01*
X1015814Y749514D01*
D02*
G37*
G36*
X1201434Y746774D02*
X1201810Y746523D01*
X1201630D01*
X1188706Y759446D01*
X1188330Y759697D01*
X1188510D01*
X1201434Y746774D01*
D02*
G37*
G36*
X967937Y731295D02*
X966029Y733203D01*
X966510Y733107D01*
X967877Y733379D01*
X967937Y733419D01*
Y731295D01*
D02*
G37*
G36*
Y683430D02*
X966875Y682368D01*
X964280D01*
X967937Y686025D01*
Y683430D01*
D02*
G37*
G36*
X943429Y676491D02*
Y676444D01*
X943117D01*
X943495Y676822D01*
X943429Y676491D01*
D02*
G37*
G36*
X941747Y667184D02*
X941747D01*
Y660728D01*
X938004Y656985D01*
X937229Y655826D01*
X936957Y654459D01*
Y653488D01*
X935768D01*
X934698Y653275D01*
X934483Y653131D01*
Y667810D01*
X941747Y675075D01*
Y667184D01*
D02*
G37*
G36*
X855755Y656338D02*
X845820Y646403D01*
Y749896D01*
X855755D01*
Y656338D01*
D02*
G37*
G36*
X872976Y594644D02*
X869708D01*
Y595337D01*
X872976D01*
Y594644D01*
D02*
G37*
G36*
X966153Y575240D02*
Y573684D01*
X961409D01*
Y574824D01*
X961200Y575872D01*
X966279D01*
X966153Y575240D01*
D02*
G37*
G36*
X983217Y596690D02*
Y576790D01*
X977914Y571486D01*
X977139Y570327D01*
X976867Y568960D01*
Y553930D01*
X975595Y552658D01*
X975229Y554500D01*
X975000Y554843D01*
Y562176D01*
Y573684D01*
X973339D01*
Y573752D01*
X975460Y575872D01*
X979392D01*
X980462Y576085D01*
X981369Y576691D01*
X981975Y577598D01*
X982188Y578668D01*
Y594193D01*
X981975Y595262D01*
X981369Y596169D01*
X980462Y596775D01*
X979392Y596988D01*
X973867D01*
X972798Y596775D01*
X971891Y596169D01*
X971285Y595262D01*
X971072Y594193D01*
Y581647D01*
X969488Y580063D01*
Y594193D01*
X969275Y595262D01*
X968669Y596169D01*
X967762Y596775D01*
X967503Y596827D01*
Y599036D01*
X968144Y599677D01*
X979170D01*
X980054Y599853D01*
X983217Y596690D01*
D02*
G37*
G36*
X993736Y541694D02*
X992903D01*
Y542116D01*
X993736D01*
Y541694D01*
D02*
G37*
G36*
X871234Y831836D02*
X864884Y825486D01*
X864109Y824327D01*
X863837Y822960D01*
Y754380D01*
Y652990D01*
X852530Y641683D01*
X851756Y640524D01*
X851484Y639156D01*
Y554276D01*
X813276Y516068D01*
X812502Y514910D01*
X812230Y513542D01*
Y487890D01*
X811293Y486953D01*
Y515410D01*
X848346Y552464D01*
X849121Y553623D01*
X849393Y554990D01*
Y639870D01*
X861854Y652331D01*
X862628Y653491D01*
X862900Y654858D01*
Y754380D01*
Y827368D01*
X867620Y832087D01*
X871610D01*
X871234Y831836D01*
D02*
G37*
%LPC*%
G36*
X1278614Y830184D02*
X1246206D01*
Y818276D01*
X1278614D01*
Y830184D01*
D02*
G37*
G36*
X1237914D02*
X1205506D01*
Y818276D01*
X1237914D01*
Y830184D01*
D02*
G37*
G36*
X1278614Y817484D02*
X1246206D01*
Y805576D01*
X1278614D01*
Y817484D01*
D02*
G37*
G36*
X1010920Y836688D02*
X1004570D01*
X1003690Y836513D01*
X1002945Y836015D01*
X1002447Y835269D01*
X1002366Y834864D01*
X1001752D01*
Y823356D01*
X1001756D01*
Y818316D01*
X999808Y816368D01*
X998673D01*
X997793Y816193D01*
X997048Y815695D01*
X994210Y812858D01*
X993984Y812707D01*
X993833Y812480D01*
X993643Y812291D01*
X993488Y812058D01*
X993299Y811850D01*
X993241Y811689D01*
X993145Y811545D01*
X993091Y811270D01*
X992996Y811007D01*
X993004Y810835D01*
X992970Y810666D01*
X993002Y810506D01*
X992937Y810180D01*
Y810180D01*
Y807430D01*
Y804680D01*
X993209Y803313D01*
X993984Y802154D01*
X995143Y801379D01*
X996510Y801107D01*
X996731Y801151D01*
X996687Y800930D01*
X996959Y799563D01*
X997716Y798430D01*
X996959Y797297D01*
X996687Y795930D01*
X996959Y794563D01*
X997716Y793430D01*
X996959Y792297D01*
X996687Y790930D01*
X996959Y789563D01*
X997716Y788430D01*
X996959Y787297D01*
X996687Y785930D01*
X996959Y784563D01*
X997716Y783430D01*
X996959Y782297D01*
X996687Y780930D01*
X996959Y779563D01*
X997716Y778430D01*
X996959Y777297D01*
X996687Y775930D01*
X996959Y774563D01*
X997716Y773430D01*
X996959Y772297D01*
X996687Y770930D01*
X996959Y769563D01*
X997734Y768404D01*
X998893Y767629D01*
X1000260Y767357D01*
X1006114D01*
X1006115Y767357D01*
Y767308D01*
X1008457Y767774D01*
X1010424Y769088D01*
X1010391Y769122D01*
X1010402Y769129D01*
X1017256Y775984D01*
X1018031Y777143D01*
X1018303Y778510D01*
Y784738D01*
X1018518Y784882D01*
X1019679Y786620D01*
X1020087Y788670D01*
X1019679Y790720D01*
X1018518Y792458D01*
X1016780Y793619D01*
X1014730Y794027D01*
X1012680Y793619D01*
X1010942Y792458D01*
X1009781Y790720D01*
X1009373Y788670D01*
X1009781Y786620D01*
X1010942Y784882D01*
X1011157Y784738D01*
Y779990D01*
X1008822Y777654D01*
X1008304Y778430D01*
X1009061Y779563D01*
X1009333Y780930D01*
X1009061Y782297D01*
X1008304Y783430D01*
X1009061Y784563D01*
X1009333Y785930D01*
X1009061Y787297D01*
X1008304Y788430D01*
X1009061Y789563D01*
X1009333Y790930D01*
X1009061Y792297D01*
X1008304Y793430D01*
X1009061Y794563D01*
X1009256Y795545D01*
Y794223D01*
X1019764D01*
Y805731D01*
X1013451D01*
X1017625Y809905D01*
X1018123Y810650D01*
X1018298Y811530D01*
Y820420D01*
X1018123Y821300D01*
X1017625Y822045D01*
X1017028Y822642D01*
Y830580D01*
X1016853Y831460D01*
X1016355Y832205D01*
X1012545Y836015D01*
X1011799Y836513D01*
X1010920Y836688D01*
D02*
G37*
G36*
X1237914Y792084D02*
X1205506D01*
Y790977D01*
X1194733D01*
X1194580Y791079D01*
X1192530Y791487D01*
X1190480Y791079D01*
X1188742Y789918D01*
X1187581Y788180D01*
X1187173Y786130D01*
X1187581Y784080D01*
X1188742Y782342D01*
X1190480Y781181D01*
X1192530Y780773D01*
X1194580Y781181D01*
X1194733Y781283D01*
X1205506D01*
Y780176D01*
X1237914D01*
Y792084D01*
D02*
G37*
G36*
Y779384D02*
X1205506D01*
Y767476D01*
X1237914D01*
Y779384D01*
D02*
G37*
G36*
X953992Y653488D02*
X948467D01*
X947398Y653275D01*
X946491Y652669D01*
X945885Y651762D01*
X945672Y650692D01*
Y635500D01*
X945011Y634510D01*
X944603Y632460D01*
X945011Y630410D01*
X946172Y628672D01*
X947910Y627511D01*
X949960Y627103D01*
X952010Y627511D01*
X953748Y628672D01*
X954909Y630410D01*
X955317Y632460D01*
X955265Y632720D01*
X955969Y633191D01*
X956575Y634098D01*
X956788Y635167D01*
Y650692D01*
X956575Y651762D01*
X955969Y652669D01*
X955062Y653275D01*
X953992Y653488D01*
D02*
G37*
G36*
X899994Y646474D02*
X889486D01*
Y646224D01*
X871951D01*
Y634716D01*
X872976D01*
Y618426D01*
X883484D01*
Y620686D01*
X883689Y620379D01*
X893134Y610934D01*
X891976D01*
Y594426D01*
X893912D01*
Y591514D01*
X892941Y590060D01*
X892533Y588010D01*
X892941Y585960D01*
X894102Y584222D01*
X895840Y583061D01*
X897890Y582653D01*
X899940Y583061D01*
X901678Y584222D01*
X902839Y585960D01*
X903092Y587232D01*
X919480D01*
X920750Y587485D01*
X921826Y588204D01*
X928906Y595284D01*
X929625Y596360D01*
X929878Y597630D01*
Y597996D01*
X932314D01*
Y608156D01*
Y609493D01*
X933224Y608584D01*
X933173Y608330D01*
X933581Y606280D01*
X934742Y604542D01*
X936480Y603381D01*
X938530Y602973D01*
X940580Y603381D01*
X942318Y604542D01*
X943479Y606280D01*
X943887Y608330D01*
X943479Y610380D01*
X942318Y612118D01*
X940580Y613279D01*
X938530Y613687D01*
X938276Y613636D01*
X935976Y615936D01*
X934817Y616711D01*
X933450Y616983D01*
X932314D01*
Y618664D01*
X920806D01*
Y615484D01*
X918888D01*
Y620110D01*
X918713Y620990D01*
X918215Y621735D01*
X909675Y630275D01*
X908930Y630773D01*
X908050Y630948D01*
X905288D01*
X904940Y631017D01*
X902484D01*
Y634934D01*
X892619D01*
Y634966D01*
X899994D01*
Y646474D01*
D02*
G37*
G36*
X1071193Y646872D02*
X1069887D01*
X1068158Y646644D01*
X1066547Y645977D01*
X1065164Y644915D01*
X1064102Y643532D01*
X1063435Y641921D01*
X1063207Y640192D01*
Y635967D01*
X1004640D01*
X1002746Y635717D01*
X1000982Y634986D01*
X999466Y633824D01*
X998304Y632308D01*
X997573Y630544D01*
X997558Y630433D01*
X997535Y630377D01*
X997308Y628650D01*
X997535Y626923D01*
X997558Y626867D01*
X997573Y626756D01*
X998304Y624992D01*
X999466Y623476D01*
X1000982Y622314D01*
X1002746Y621583D01*
X1004640Y621333D01*
X1060493D01*
Y588114D01*
X1058805D01*
Y569106D01*
X1076813D01*
Y588114D01*
X1075126D01*
Y611778D01*
X1075916Y612385D01*
X1076978Y613768D01*
X1077645Y615379D01*
X1077872Y617108D01*
Y626261D01*
X1078099Y626600D01*
X1078507Y628650D01*
X1078099Y630700D01*
X1077872Y631039D01*
Y640192D01*
X1077645Y641921D01*
X1076978Y643532D01*
X1075916Y644915D01*
X1074533Y645977D01*
X1072922Y646644D01*
X1071193Y646872D01*
D02*
G37*
G36*
X941292Y596988D02*
X935768D01*
X934698Y596775D01*
X933791Y596169D01*
X933185Y595262D01*
X932972Y594193D01*
Y593322D01*
X927394Y587744D01*
X923726D01*
Y583838D01*
X923707Y583810D01*
X923532Y582930D01*
Y558800D01*
X923696Y557974D01*
Y556480D01*
X934204D01*
Y556859D01*
X934319Y556909D01*
X943476Y563233D01*
X943622Y563383D01*
X943795Y563499D01*
X943931Y563702D01*
X944100Y563877D01*
X944177Y564071D01*
X944294Y564244D01*
X944341Y564484D01*
X944431Y564710D01*
X944428Y564919D01*
X944468Y565124D01*
Y591820D01*
X944294Y592700D01*
X944088Y593007D01*
Y594193D01*
X943875Y595262D01*
X943269Y596169D01*
X942362Y596775D01*
X941292Y596988D01*
D02*
G37*
G36*
X1035552Y521185D02*
X1033502Y520778D01*
X1031764Y519616D01*
X1030603Y517878D01*
X1030195Y515828D01*
X1030603Y513778D01*
X1031764Y512040D01*
X1033502Y510879D01*
X1035552Y510471D01*
X1037602Y510879D01*
X1039340Y512040D01*
X1040501Y513778D01*
X1040909Y515828D01*
X1040501Y517878D01*
X1039340Y519616D01*
X1037602Y520778D01*
X1035552Y521185D01*
D02*
G37*
G36*
X1064260Y520977D02*
X1062210Y520569D01*
X1060472Y519408D01*
X1059311Y517670D01*
X1058903Y515620D01*
X1059311Y513570D01*
X1060472Y511832D01*
X1062210Y510671D01*
X1064260Y510263D01*
X1066310Y510671D01*
X1068048Y511832D01*
X1069209Y513570D01*
X1069617Y515620D01*
X1069209Y517670D01*
X1068048Y519408D01*
X1066310Y520569D01*
X1064260Y520977D01*
D02*
G37*
G36*
X1048257D02*
X1046207Y520569D01*
X1044469Y519408D01*
X1043307Y517670D01*
X1042900Y515620D01*
X1043307Y513570D01*
X1044469Y511832D01*
X1046207Y510671D01*
X1048257Y510263D01*
X1050307Y510671D01*
X1052045Y511832D01*
X1053206Y513570D01*
X1053614Y515620D01*
X1053206Y517670D01*
X1052045Y519408D01*
X1050307Y520569D01*
X1048257Y520977D01*
D02*
G37*
G36*
X900430Y519707D02*
X898380Y519299D01*
X896642Y518138D01*
X895481Y516400D01*
X895073Y514350D01*
X895481Y512300D01*
X896642Y510562D01*
X898380Y509401D01*
X900430Y508993D01*
X902480Y509401D01*
X904218Y510562D01*
X905379Y512300D01*
X905787Y514350D01*
X905379Y516400D01*
X904218Y518138D01*
X902480Y519299D01*
X900430Y519707D01*
D02*
G37*
G36*
X885190D02*
X883140Y519299D01*
X881402Y518138D01*
X880241Y516400D01*
X879833Y514350D01*
X880241Y512300D01*
X881402Y510562D01*
X883140Y509401D01*
X885190Y508993D01*
X887240Y509401D01*
X888978Y510562D01*
X890139Y512300D01*
X890547Y514350D01*
X890139Y516400D01*
X888978Y518138D01*
X887240Y519299D01*
X885190Y519707D01*
D02*
G37*
G36*
X871220D02*
X869170Y519299D01*
X867432Y518138D01*
X866271Y516400D01*
X865863Y514350D01*
X866271Y512300D01*
X867432Y510562D01*
X869170Y509401D01*
X871220Y508993D01*
X873270Y509401D01*
X875008Y510562D01*
X876169Y512300D01*
X876577Y514350D01*
X876169Y516400D01*
X875008Y518138D01*
X873270Y519299D01*
X871220Y519707D01*
D02*
G37*
G36*
X857250D02*
X855200Y519299D01*
X853462Y518138D01*
X852301Y516400D01*
X851893Y514350D01*
X852301Y512300D01*
X853462Y510562D01*
X855200Y509401D01*
X857250Y508993D01*
X859300Y509401D01*
X861038Y510562D01*
X862199Y512300D01*
X862607Y514350D01*
X862199Y516400D01*
X861038Y518138D01*
X859300Y519299D01*
X857250Y519707D01*
D02*
G37*
G36*
X644402Y544106D02*
X640873Y543759D01*
X637480Y542729D01*
X634353Y541058D01*
X631613Y538809D01*
X629363Y536068D01*
X627692Y532941D01*
X626662Y529548D01*
X626315Y526019D01*
X626662Y522491D01*
X627692Y519098D01*
X629363Y515970D01*
X631613Y513230D01*
X634353Y510980D01*
X637480Y509309D01*
X640873Y508280D01*
X644402Y507932D01*
X647931Y508280D01*
X651324Y509309D01*
X654451Y510980D01*
X657191Y513230D01*
X659441Y515970D01*
X661112Y519098D01*
X662142Y522491D01*
X662489Y526019D01*
X662142Y529548D01*
X661112Y532941D01*
X659441Y536068D01*
X657191Y538809D01*
X654451Y541058D01*
X651324Y542729D01*
X647931Y543759D01*
X644402Y544106D01*
D02*
G37*
G36*
X900469Y507060D02*
X898419Y506652D01*
X896681Y505491D01*
X895520Y503753D01*
X895112Y501703D01*
X895520Y499653D01*
X896681Y497915D01*
X898419Y496754D01*
X900469Y496346D01*
X902519Y496754D01*
X904257Y497915D01*
X905418Y499653D01*
X905826Y501703D01*
X905418Y503753D01*
X904257Y505491D01*
X902519Y506652D01*
X900469Y507060D01*
D02*
G37*
G36*
X885229D02*
X883179Y506652D01*
X881441Y505491D01*
X880280Y503753D01*
X879872Y501703D01*
X880280Y499653D01*
X881441Y497915D01*
X883179Y496754D01*
X885229Y496346D01*
X887279Y496754D01*
X889017Y497915D01*
X890178Y499653D01*
X890586Y501703D01*
X890178Y503753D01*
X889017Y505491D01*
X887279Y506652D01*
X885229Y507060D01*
D02*
G37*
G36*
X871259D02*
X869209Y506652D01*
X867471Y505491D01*
X866310Y503753D01*
X865902Y501703D01*
X866310Y499653D01*
X867471Y497915D01*
X869209Y496754D01*
X871259Y496346D01*
X873309Y496754D01*
X875047Y497915D01*
X876208Y499653D01*
X876616Y501703D01*
X876208Y503753D01*
X875047Y505491D01*
X873309Y506652D01*
X871259Y507060D01*
D02*
G37*
G36*
X857289D02*
X855239Y506652D01*
X853501Y505491D01*
X852340Y503753D01*
X851932Y501703D01*
X852340Y499653D01*
X853501Y497915D01*
X855239Y496754D01*
X857289Y496346D01*
X859339Y496754D01*
X861077Y497915D01*
X862238Y499653D01*
X862646Y501703D01*
X862238Y503753D01*
X861077Y505491D01*
X859339Y506652D01*
X857289Y507060D01*
D02*
G37*
G36*
X791210Y506427D02*
X789316Y506177D01*
X787552Y505446D01*
X786036Y504284D01*
X784874Y502768D01*
X784143Y501004D01*
X783893Y499110D01*
X784143Y497216D01*
X784874Y495452D01*
X786036Y493936D01*
X787552Y492774D01*
X789316Y492043D01*
X791210Y491793D01*
X793104Y492043D01*
X794868Y492774D01*
X796384Y493936D01*
X797546Y495452D01*
X798277Y497216D01*
X798527Y499110D01*
X798277Y501004D01*
X797546Y502768D01*
X796384Y504284D01*
X794868Y505446D01*
X793104Y506177D01*
X791210Y506427D01*
D02*
G37*
G36*
X900469Y494360D02*
X898419Y493952D01*
X896681Y492791D01*
X895520Y491053D01*
X895112Y489003D01*
X895520Y486953D01*
X896681Y485215D01*
X898419Y484054D01*
X900469Y483646D01*
X902519Y484054D01*
X904257Y485215D01*
X905418Y486953D01*
X905826Y489003D01*
X905418Y491053D01*
X904257Y492791D01*
X902519Y493952D01*
X900469Y494360D01*
D02*
G37*
G36*
X885229D02*
X883179Y493952D01*
X881441Y492791D01*
X880280Y491053D01*
X879872Y489003D01*
X880280Y486953D01*
X881441Y485215D01*
X883179Y484054D01*
X885229Y483646D01*
X887279Y484054D01*
X889017Y485215D01*
X890178Y486953D01*
X890586Y489003D01*
X890178Y491053D01*
X889017Y492791D01*
X887279Y493952D01*
X885229Y494360D01*
D02*
G37*
G36*
X871259D02*
X869209Y493952D01*
X867471Y492791D01*
X866310Y491053D01*
X865902Y489003D01*
X866310Y486953D01*
X867471Y485215D01*
X869209Y484054D01*
X871259Y483646D01*
X873309Y484054D01*
X875047Y485215D01*
X876208Y486953D01*
X876616Y489003D01*
X876208Y491053D01*
X875047Y492791D01*
X873309Y493952D01*
X871259Y494360D01*
D02*
G37*
G36*
X857289D02*
X855239Y493952D01*
X853501Y492791D01*
X852340Y491053D01*
X851932Y489003D01*
X852340Y486953D01*
X853501Y485215D01*
X855239Y484054D01*
X857289Y483646D01*
X859339Y484054D01*
X861077Y485215D01*
X862238Y486953D01*
X862646Y489003D01*
X862238Y491053D01*
X861077Y492791D01*
X859339Y493952D01*
X857289Y494360D01*
D02*
G37*
G36*
X755807Y491326D02*
X753914Y491076D01*
X752149Y490345D01*
X750634Y489183D01*
X749471Y487667D01*
X748740Y485903D01*
X748491Y484009D01*
X748740Y482115D01*
X749471Y480351D01*
X750634Y478835D01*
X752149Y477673D01*
X753914Y476942D01*
X755807Y476693D01*
X757701Y476942D01*
X759466Y477673D01*
X760981Y478835D01*
X762144Y480351D01*
X762875Y482115D01*
X763124Y484009D01*
X762875Y485903D01*
X762144Y487667D01*
X760981Y489183D01*
X759466Y490345D01*
X757701Y491076D01*
X755807Y491326D01*
D02*
G37*
G36*
X900469Y481660D02*
X898419Y481253D01*
X896681Y480091D01*
X895520Y478353D01*
X895112Y476303D01*
X895520Y474253D01*
X896681Y472515D01*
X898419Y471354D01*
X900469Y470946D01*
X902519Y471354D01*
X904257Y472515D01*
X905418Y474253D01*
X905826Y476303D01*
X905418Y478353D01*
X904257Y480091D01*
X902519Y481253D01*
X900469Y481660D01*
D02*
G37*
G36*
X885229D02*
X883179Y481253D01*
X881441Y480091D01*
X880280Y478353D01*
X879872Y476303D01*
X880280Y474253D01*
X881441Y472515D01*
X883179Y471354D01*
X885229Y470946D01*
X887279Y471354D01*
X889017Y472515D01*
X890178Y474253D01*
X890586Y476303D01*
X890178Y478353D01*
X889017Y480091D01*
X887279Y481253D01*
X885229Y481660D01*
D02*
G37*
G36*
X871259D02*
X869209Y481253D01*
X867471Y480091D01*
X866310Y478353D01*
X865902Y476303D01*
X866310Y474253D01*
X867471Y472515D01*
X869209Y471354D01*
X871259Y470946D01*
X873309Y471354D01*
X875047Y472515D01*
X876208Y474253D01*
X876616Y476303D01*
X876208Y478353D01*
X875047Y480091D01*
X873309Y481253D01*
X871259Y481660D01*
D02*
G37*
G36*
X857289D02*
X855239Y481253D01*
X853501Y480091D01*
X852340Y478353D01*
X851932Y476303D01*
X852340Y474253D01*
X853501Y472515D01*
X855239Y471354D01*
X857289Y470946D01*
X859339Y471354D01*
X861077Y472515D01*
X862238Y474253D01*
X862646Y476303D01*
X862238Y478353D01*
X861077Y480091D01*
X859339Y481253D01*
X857289Y481660D01*
D02*
G37*
G36*
X900469Y468960D02*
X898419Y468553D01*
X896681Y467391D01*
X895520Y465653D01*
X895112Y463603D01*
X895520Y461553D01*
X896681Y459815D01*
X898419Y458654D01*
X900469Y458246D01*
X902519Y458654D01*
X904257Y459815D01*
X905418Y461553D01*
X905826Y463603D01*
X905418Y465653D01*
X904257Y467391D01*
X902519Y468553D01*
X900469Y468960D01*
D02*
G37*
G36*
X885229D02*
X883179Y468553D01*
X881441Y467391D01*
X880280Y465653D01*
X879872Y463603D01*
X880280Y461553D01*
X881441Y459815D01*
X883179Y458654D01*
X885229Y458246D01*
X887279Y458654D01*
X889017Y459815D01*
X890178Y461553D01*
X890586Y463603D01*
X890178Y465653D01*
X889017Y467391D01*
X887279Y468553D01*
X885229Y468960D01*
D02*
G37*
G36*
X871259D02*
X869209Y468553D01*
X867471Y467391D01*
X866310Y465653D01*
X865902Y463603D01*
X866310Y461553D01*
X867471Y459815D01*
X869209Y458654D01*
X871259Y458246D01*
X873309Y458654D01*
X875047Y459815D01*
X876208Y461553D01*
X876616Y463603D01*
X876208Y465653D01*
X875047Y467391D01*
X873309Y468553D01*
X871259Y468960D01*
D02*
G37*
G36*
X857289D02*
X855239Y468553D01*
X853501Y467391D01*
X852340Y465653D01*
X851932Y463603D01*
X852340Y461553D01*
X853501Y459815D01*
X855239Y458654D01*
X857289Y458246D01*
X859339Y458654D01*
X861077Y459815D01*
X862238Y461553D01*
X862646Y463603D01*
X862238Y465653D01*
X861077Y467391D01*
X859339Y468553D01*
X857289Y468960D01*
D02*
G37*
G36*
X962717Y454094D02*
X941209D01*
Y433597D01*
X899160D01*
X897500Y433267D01*
X897033Y432955D01*
X896093Y432327D01*
X878313Y414547D01*
X877373Y413140D01*
X877043Y411480D01*
Y338397D01*
X877373Y336737D01*
X878313Y335330D01*
X896752Y316891D01*
X895884Y314797D01*
X895446Y311467D01*
X895884Y308138D01*
X897169Y305035D01*
X899213Y302371D01*
X901878Y300326D01*
X904980Y299041D01*
X908310Y298603D01*
X911639Y299041D01*
X914742Y300326D01*
X917406Y302371D01*
X919450Y305035D01*
X920735Y308138D01*
X921174Y311467D01*
X920735Y314797D01*
X919450Y317899D01*
X917406Y320563D01*
X914742Y322608D01*
X911639Y323893D01*
X908310Y324331D01*
X904980Y323893D01*
X902886Y323025D01*
X885717Y340193D01*
Y409683D01*
X900957Y424923D01*
X941209D01*
Y424586D01*
X962717D01*
Y454094D01*
D02*
G37*
G36*
X701040Y460267D02*
X687070D01*
X685410Y459937D01*
X684003Y458997D01*
X683063Y457590D01*
X682733Y455930D01*
Y434340D01*
X683063Y432680D01*
X683973Y431318D01*
Y429866D01*
X685410D01*
X686543Y428733D01*
Y414547D01*
X678180Y406184D01*
Y402590D01*
X674370Y398780D01*
X665480D01*
X665386Y398874D01*
D01*
X664224Y397358D01*
X663493Y395594D01*
X663243Y393700D01*
X663493Y391806D01*
X664224Y390042D01*
X664827Y389255D01*
X664224Y388468D01*
X663493Y386704D01*
X663243Y384810D01*
X663493Y382916D01*
X664224Y381152D01*
X664827Y380365D01*
X664224Y379578D01*
X663493Y377814D01*
X663243Y375920D01*
X663493Y374026D01*
X664224Y372262D01*
X665386Y370746D01*
X666902Y369584D01*
X668666Y368853D01*
X670560Y368603D01*
X672454Y368853D01*
X673571Y369315D01*
X679908Y362978D01*
X642620D01*
X641740Y362803D01*
X640995Y362305D01*
X635915Y357225D01*
X635417Y356479D01*
X635242Y355600D01*
Y289560D01*
X635417Y288680D01*
X635915Y287935D01*
X651155Y272695D01*
X651900Y272197D01*
X652780Y272022D01*
X815340D01*
X816219Y272197D01*
X816518Y272396D01*
X816965Y272695D01*
X833475Y289205D01*
X833973Y289951D01*
X834148Y290830D01*
Y339090D01*
X833973Y339969D01*
X833475Y340715D01*
X829665Y344525D01*
X828920Y345023D01*
X828040Y345198D01*
X805180D01*
X804301Y345023D01*
X803555Y344525D01*
X799745Y340715D01*
X799247Y339969D01*
X799072Y339090D01*
Y302018D01*
X731202Y302018D01*
X707148Y326072D01*
X707148Y356870D01*
X706973Y357749D01*
X706475Y358495D01*
X705354Y359616D01*
Y360694D01*
X704276D01*
X703547Y361423D01*
X719190D01*
X720850Y361753D01*
X721317Y362065D01*
X722257Y362693D01*
X726125Y366562D01*
X728484D01*
Y368920D01*
X729507Y369943D01*
X730447Y371350D01*
X730777Y373010D01*
X730777Y417830D01*
X730447Y419490D01*
X729507Y420897D01*
X714267Y436137D01*
X712860Y437077D01*
X711200Y437407D01*
X709187D01*
X705377Y441217D01*
Y455930D01*
X705047Y457590D01*
X704107Y458997D01*
X702700Y459937D01*
X701040Y460267D01*
D02*
G37*
G36*
X1175055Y392489D02*
X1155985D01*
Y388378D01*
X1152955D01*
Y392489D01*
X1133885D01*
Y384171D01*
X1133468Y383545D01*
X1133382Y383337D01*
X1133257Y383149D01*
X1133212Y382926D01*
X1133126Y382716D01*
X1133126Y382491D01*
X1133082Y382270D01*
Y361950D01*
X1133257Y361071D01*
X1133755Y360325D01*
X1133885Y360195D01*
Y356291D01*
X1137901D01*
X1138310Y356017D01*
X1139190Y355842D01*
X1207770D01*
X1208650Y356017D01*
X1209395Y356515D01*
X1211935Y359055D01*
X1212433Y359800D01*
X1212608Y360680D01*
X1212608Y383540D01*
X1212433Y384419D01*
X1212234Y384718D01*
X1211935Y385165D01*
X1209395Y387705D01*
X1208650Y388203D01*
X1207770Y388378D01*
X1207770D01*
D01*
X1175055D01*
Y392489D01*
D02*
G37*
G36*
X1292860Y432819D02*
X1288449Y432384D01*
X1284208Y431098D01*
X1280299Y429009D01*
X1276873Y426197D01*
X1274061Y422771D01*
X1271972Y418862D01*
X1270686Y414621D01*
X1270251Y410210D01*
X1270686Y405799D01*
X1271972Y401558D01*
X1274061Y397649D01*
X1276873Y394223D01*
X1280299Y391411D01*
X1284208Y389322D01*
X1288449Y388036D01*
X1292860Y387601D01*
X1297271Y388036D01*
X1301512Y389322D01*
X1305421Y391411D01*
X1308847Y394223D01*
X1311659Y397649D01*
X1313748Y401558D01*
X1315034Y405799D01*
X1315469Y410210D01*
X1315034Y414621D01*
X1313748Y418862D01*
X1311659Y422771D01*
X1308847Y426197D01*
X1305421Y429009D01*
X1301512Y431098D01*
X1297271Y432384D01*
X1292860Y432819D01*
D02*
G37*
G36*
X921064Y408121D02*
X895556D01*
Y382613D01*
X921064D01*
Y408121D01*
D02*
G37*
G36*
X959110Y408231D02*
X955780Y407793D01*
X952678Y406508D01*
X950014Y404463D01*
X947969Y401799D01*
X946684Y398697D01*
X946246Y395367D01*
X946684Y392038D01*
X947869Y389178D01*
X917885Y359195D01*
X903114D01*
X902970Y359410D01*
X901232Y360571D01*
X899182Y360979D01*
X897132Y360571D01*
X895394Y359410D01*
X894233Y357672D01*
X893825Y355622D01*
X894233Y353572D01*
X895394Y351834D01*
X897132Y350673D01*
X899182Y350265D01*
X901232Y350673D01*
X902970Y351834D01*
X903114Y352049D01*
X919365D01*
X920732Y352321D01*
X921891Y353096D01*
X952921Y384126D01*
X955780Y382941D01*
X959110Y382503D01*
X962439Y382941D01*
X965542Y384226D01*
X968206Y386271D01*
X970251Y388935D01*
X971536Y392038D01*
X971974Y395367D01*
X971536Y398697D01*
X970251Y401799D01*
X968206Y404463D01*
X965542Y406508D01*
X962439Y407793D01*
X959110Y408231D01*
D02*
G37*
G36*
X644427Y421794D02*
X626821D01*
Y408226D01*
X637188D01*
X637654Y408133D01*
X637654Y408133D01*
X645323D01*
Y402694D01*
X640846D01*
Y372186D01*
X659354D01*
Y402694D01*
X655017D01*
Y409172D01*
X655189Y409430D01*
X655597Y411480D01*
X655189Y413530D01*
X654028Y415268D01*
X652290Y416429D01*
X651684Y416550D01*
X651047Y416976D01*
X650325Y417458D01*
X650325Y417458D01*
X650324Y417458D01*
X649419Y417638D01*
X648470Y417827D01*
X648470Y417827D01*
X648470Y417827D01*
X644427D01*
Y421794D01*
D02*
G37*
G36*
X1009910Y324331D02*
X1006580Y323893D01*
X1003478Y322608D01*
X1000814Y320563D01*
X998769Y317899D01*
X997484Y314797D01*
X997046Y311467D01*
X997484Y308138D01*
X998769Y305035D01*
X1000814Y302371D01*
X1003478Y300326D01*
X1006580Y299041D01*
X1009910Y298603D01*
X1013239Y299041D01*
X1016342Y300326D01*
X1019006Y302371D01*
X1021050Y305035D01*
X1022336Y308138D01*
X1022774Y311467D01*
X1022336Y314797D01*
X1021050Y317899D01*
X1019006Y320563D01*
X1016342Y322608D01*
X1013239Y323893D01*
X1009910Y324331D01*
D02*
G37*
G36*
X860384Y399884D02*
X838876D01*
Y370376D01*
X845293D01*
Y309880D01*
X845623Y308220D01*
X846563Y306813D01*
X869423Y283953D01*
X870830Y283013D01*
X872490Y282683D01*
X934663D01*
X936323Y283013D01*
X937730Y283953D01*
X953686Y299909D01*
X955780Y299041D01*
X959110Y298603D01*
X962439Y299041D01*
X965542Y300326D01*
X968206Y302371D01*
X970250Y305035D01*
X971535Y308138D01*
X971974Y311467D01*
X971535Y314797D01*
X970250Y317899D01*
X968206Y320563D01*
X965542Y322608D01*
X962439Y323893D01*
X959110Y324331D01*
X955780Y323893D01*
X952678Y322608D01*
X950014Y320563D01*
X947969Y317899D01*
X946684Y314797D01*
X946246Y311467D01*
X946684Y308138D01*
X947552Y306043D01*
X932866Y291357D01*
X874287D01*
X853967Y311677D01*
Y370376D01*
X860384D01*
Y399884D01*
D02*
G37*
G36*
X1212594Y335964D02*
X1174086D01*
Y335807D01*
X1164590D01*
X1162930Y335477D01*
X1162463Y335165D01*
X1161661Y334629D01*
X1157500D01*
Y312559D01*
Y290519D01*
X1162233D01*
X1163320Y290303D01*
X1176020D01*
X1177680Y290633D01*
X1179087Y291573D01*
X1181627Y294113D01*
X1188720D01*
X1190380Y294443D01*
X1191787Y295383D01*
X1198137Y301733D01*
X1206500D01*
X1208160Y302063D01*
X1208627Y302375D01*
X1209567Y303003D01*
X1212107Y305543D01*
X1213047Y306950D01*
X1213377Y308610D01*
Y330200D01*
X1213047Y331860D01*
X1212594Y332538D01*
Y335964D01*
D02*
G37*
G36*
X1308983Y297355D02*
X1306691D01*
X1305812Y297180D01*
X1303695Y296303D01*
X1302949Y295805D01*
X1301329Y294185D01*
X1301329Y294185D01*
X1301030Y293738D01*
X1300831Y293439D01*
Y293439D01*
X1299954Y291322D01*
X1299954Y291322D01*
X1299779Y290443D01*
Y289297D01*
Y288151D01*
X1299954Y287272D01*
X1299954Y287272D01*
X1300831Y285155D01*
Y285155D01*
X1301329Y284409D01*
X1302949Y282789D01*
X1302949Y282789D01*
X1303396Y282490D01*
X1303695Y282291D01*
X1303695D01*
X1305812Y281414D01*
X1305812Y281414D01*
X1306691Y281239D01*
X1308983D01*
X1309862Y281414D01*
X1309862Y281414D01*
X1311979Y282291D01*
X1311979D01*
X1312725Y282789D01*
X1314345Y284409D01*
X1314345Y284409D01*
X1314644Y284856D01*
X1314843Y285155D01*
Y285155D01*
X1315720Y287272D01*
X1315895Y288151D01*
Y289297D01*
Y290443D01*
X1315720Y291322D01*
X1314843Y293439D01*
X1314345Y294185D01*
X1312725Y295805D01*
X1312725Y295805D01*
X1312278Y296104D01*
X1311979Y296303D01*
X1311979D01*
X1309862Y297180D01*
X1308983Y297355D01*
D02*
G37*
%LPD*%
G36*
X1014730Y830580D02*
Y821690D01*
X1016000Y820420D01*
Y811530D01*
X1009650Y805180D01*
Y802640D01*
X1007110Y800100D01*
X999490D01*
Y803910D01*
X996950D01*
X995268Y810666D01*
X998673Y814070D01*
X1000760D01*
X1004570Y817880D01*
Y834390D01*
X1010920D01*
X1014730Y830580D01*
D02*
G37*
G36*
X1009256Y796315D02*
X1009061Y797297D01*
X1009020Y797357D01*
X1009256D01*
Y796315D01*
D02*
G37*
G36*
X891976Y621476D02*
X889353Y624099D01*
Y634716D01*
X891976D01*
Y621476D01*
D02*
G37*
G36*
X901942Y610934D02*
X900548D01*
Y611530D01*
X900295Y612799D01*
X899576Y613876D01*
X895026Y618426D01*
X901942D01*
Y610934D01*
D02*
G37*
G36*
X916590Y620110D02*
Y607049D01*
X906791D01*
X904240Y609600D01*
Y622300D01*
Y628650D01*
X908050D01*
X916590Y620110D01*
D02*
G37*
G36*
X902615Y607975D02*
X905166Y605424D01*
X905912Y604926D01*
X906791Y604751D01*
X916590D01*
X917469Y604926D01*
X917545Y604976D01*
X920806D01*
Y597996D01*
X922234D01*
X918106Y593868D01*
X901512D01*
X900548Y593676D01*
Y594426D01*
X902484D01*
Y608171D01*
X902615Y607975D01*
D02*
G37*
G36*
X942170Y565124D02*
X933013Y558800D01*
X925830D01*
Y582930D01*
X934720Y591820D01*
X942170D01*
Y565124D01*
D02*
G37*
G36*
X701040Y439420D02*
X707390Y433070D01*
X711200D01*
X726440Y417830D01*
X726440Y373010D01*
X719190Y365760D01*
X683260D01*
X675640Y373380D01*
Y397510D01*
X690880Y412750D01*
Y430530D01*
X687070Y434340D01*
Y455930D01*
X701040D01*
Y439420D01*
D02*
G37*
G36*
X704850Y356870D02*
X704850Y325120D01*
X730250Y299720D01*
X801370Y299720D01*
Y339090D01*
X805180Y342900D01*
X828040D01*
X831850Y339090D01*
Y290830D01*
X815340Y274320D01*
X652780D01*
X637540Y289560D01*
Y355600D01*
X642620Y360680D01*
X701040D01*
X704850Y356870D01*
D02*
G37*
G36*
X1210310Y383540D02*
X1210310Y360680D01*
X1207770Y358140D01*
X1139190D01*
X1135380Y361950D01*
Y382270D01*
X1137920Y386080D01*
X1207770D01*
X1210310Y383540D01*
D02*
G37*
G36*
X1207770Y330200D02*
X1209040D01*
Y308610D01*
X1206500Y306070D01*
X1196340D01*
X1188720Y298450D01*
X1179830D01*
X1176020Y294640D01*
X1163320D01*
X1162050Y295910D01*
Y328930D01*
X1164590Y331470D01*
X1206500D01*
X1207770Y330200D01*
D02*
G37*
D11*
X648470Y412980D02*
X649969Y411480D01*
X637654Y412980D02*
X648470D01*
X649969Y411480D02*
X650240D01*
X635624Y415010D02*
X637654Y412980D01*
X650170Y411410D02*
X650240Y411480D01*
X650170Y387510D02*
Y411410D01*
X650100Y387440D02*
X650170Y387510D01*
X979170Y535940D02*
Y543560D01*
X945171Y723329D02*
X949554Y723864D01*
X997346Y824942D02*
Y828610D01*
X996846Y829110D02*
X997346Y828610D01*
X1021338Y768311D02*
X1029090D01*
X1021338D02*
Y773688D01*
X1029090Y768311D02*
X1029339Y768560D01*
X1018550Y768311D02*
X1021338D01*
X997346Y824942D02*
X997444Y824844D01*
Y821220D02*
Y824844D01*
X1029339Y768560D02*
X1037090D01*
X1037590Y769060D01*
X1192530Y786130D02*
X1221710D01*
X916790Y807330D02*
X916825Y812182D01*
X1021750Y759616D02*
X1029090Y759512D01*
X1028505Y758895D02*
X1028508Y758897D01*
X1037588D01*
X1037590Y758900D01*
X902970Y719640D02*
Y733370D01*
X882430Y719640D02*
X882540Y719750D01*
Y733260D01*
X882650Y733370D01*
D12*
X934001Y760651D02*
G03*
X935010Y760930I-10J2000D01*
G01*
X897890Y588010D02*
X898972D01*
X901512Y590550D01*
X919480D02*
X926560Y597630D01*
X901512Y590550D02*
X919480D01*
X920387Y760651D02*
X934001D01*
X963930Y642930D02*
Y654180D01*
X962008Y656102D02*
X963930Y654180D01*
X961990Y656102D02*
X962008D01*
X957161Y660930D02*
X961990Y656102D01*
X926560Y597630D02*
Y603250D01*
X886035Y640470D02*
X886160Y640595D01*
X895909D01*
X896034Y640720D01*
X897230Y602680D02*
Y611530D01*
X886035Y622725D02*
X897230Y611530D01*
X886035Y622725D02*
Y640470D01*
X897230Y588670D02*
Y602680D01*
Y588670D02*
X897890Y588010D01*
D13*
X849396Y528320D02*
G03*
X847628Y527588I0J-2500D01*
G01*
X994644Y528320D02*
G03*
X996412Y529052I0J2500D01*
G01*
X1295400Y645395D02*
G03*
X1294668Y647162I-2500J0D01*
G01*
X821034Y822070D02*
G03*
X822802Y822802I0J2500D01*
G01*
X1006115Y770930D02*
G03*
X1007876Y771656I0J2500D01*
G01*
X1134344Y845820D02*
G03*
X1136112Y846552I0J2500D01*
G01*
X1006115Y770930D02*
G03*
X1007876Y771656I0J2500D01*
G01*
X867410Y822960D02*
X873760Y829310D01*
X947420D01*
X1014730Y778510D02*
Y788670D01*
X1007876Y771656D02*
X1014730Y778510D01*
X1013557Y800930D02*
X1014510Y799977D01*
X1003010Y800930D02*
X1013557D01*
X899182Y355622D02*
X919365D01*
X959110Y395367D01*
X854710Y754380D02*
X859328D01*
X853440Y755650D02*
X854710Y754380D01*
X859328D02*
Y828848D01*
X867410Y754380D02*
X871220D01*
X872490Y755650D01*
X801370Y379730D02*
Y480060D01*
X810194Y480802D02*
X810639Y354886D01*
X810194Y480802D02*
X815802Y486410D01*
X801370Y480060D02*
X807720Y486410D01*
X971510Y807430D02*
Y817920D01*
X966510Y807430D02*
Y815340D01*
X1093470Y429760D02*
Y502920D01*
X1087120Y423410D02*
X1093470Y429760D01*
X1087120Y422910D02*
Y423410D01*
X1093470Y502920D02*
X1189990Y599440D01*
X1026023Y411480D02*
X1076960D01*
X1009910Y395367D02*
X1026023Y411480D01*
X1087120Y410210D02*
Y422910D01*
X815802Y486410D02*
Y513542D01*
X855057Y552797D02*
Y639156D01*
X815802Y513542D02*
X855057Y552797D01*
Y639156D02*
X867410Y651510D01*
Y754380D01*
Y822960D01*
X947420Y829310D02*
X960231Y816499D01*
X965351D02*
X966510Y815340D01*
X960231Y816499D02*
X965351D01*
X956310Y481330D02*
X1012190Y537210D01*
Y560070D01*
X903605Y640720D02*
X903820D01*
X909530Y646430D01*
X911860D01*
X944888Y719288D02*
X945147Y719547D01*
X944629Y728381D02*
X944888Y728640D01*
X944408Y728640D02*
X946358Y730590D01*
X929915Y795930D02*
X935010D01*
X946358Y730590D02*
Y732826D01*
X946667Y733134D01*
X946510Y733291D02*
Y739430D01*
X965200Y866140D02*
X968450Y862890D01*
X985708D01*
X1003010Y765930D02*
X1009770D01*
X1012151Y768311D01*
X1018550D01*
X991510Y807430D02*
Y815286D01*
X997444Y821220D01*
X991866Y823964D02*
X995096Y826860D01*
X997441Y830224D01*
X996412Y529052D02*
X997240Y529880D01*
X849396Y528320D02*
X994644D01*
X825500Y505460D02*
X847628Y527588D01*
X1266190Y599440D02*
X1267460Y600710D01*
X1189990Y599440D02*
X1266190D01*
X1296000Y640750D02*
X1296670Y640080D01*
X1296000Y640750D02*
Y644794D01*
X1295284Y645510D02*
X1296000Y644794D01*
X1295284Y645510D02*
Y645969D01*
X996510Y807430D02*
Y810180D01*
X1017331Y760730D02*
X1018550Y759512D01*
X1012190Y760730D02*
X1017331D01*
X1011990Y760930D02*
X1012190Y760730D01*
X1003010Y760930D02*
X1011990D01*
X941510Y737040D02*
Y739430D01*
X935609Y731139D02*
X941510Y737040D01*
X825500Y453260D02*
Y505460D01*
Y453260D02*
X849630Y429130D01*
Y425130D02*
Y429130D01*
X1193160Y829835D02*
X1193410D01*
X1200505Y836930D01*
X1221710D01*
X1278890Y662940D02*
X1294668Y647162D01*
X1136400Y929260D02*
X1136650D01*
X1126620Y919480D02*
X1136400Y929260D01*
X1136650D02*
X1137540Y928370D01*
X1150240D01*
X806450Y822070D02*
X821034D01*
X822802Y822802D02*
X842010Y842010D01*
X806070Y821690D02*
X806450Y822070D01*
X794130Y821690D02*
X806070D01*
X766190D02*
X778130D01*
X1194180Y928370D02*
X1207390D01*
X986789Y661430D02*
X994650D01*
X995680Y660400D01*
X997240Y529880D02*
Y534190D01*
X998990Y535940D01*
X999490D01*
X989330D02*
Y547370D01*
X998855Y546735D02*
X999490Y546100D01*
X989965Y546735D02*
X998855D01*
X989330Y547370D02*
X989965Y546735D01*
X967740Y821690D02*
X971510Y817920D01*
X962660Y821690D02*
X967740D01*
X866140Y835660D02*
X948690D01*
X859328Y828848D02*
X866140Y835660D01*
X948690D02*
X962660Y821690D01*
X859328Y654858D02*
Y754380D01*
X845820Y554990D02*
Y641350D01*
X859328Y654858D01*
X807720Y516890D02*
X845820Y554990D01*
X807720Y486410D02*
Y516890D01*
X1262410Y786130D02*
X1285240D01*
X1292860Y778510D01*
Y758190D02*
Y778510D01*
X1283970Y749300D02*
X1292860Y758190D01*
X1203960Y749300D02*
X1283970D01*
X1189990Y763270D02*
X1203960Y749300D01*
X1186180Y763270D02*
X1189990D01*
X928414Y790930D02*
X935010D01*
X926224Y788740D02*
X928414Y790930D01*
X1112520Y825500D02*
X1123950D01*
X1186180Y763270D01*
X1262410Y798830D02*
X1282700D01*
X1299210Y782320D01*
Y755650D02*
Y782320D01*
X1286510Y742950D02*
X1299210Y755650D01*
X1200150Y742950D02*
X1286510D01*
X1186180Y756920D02*
X1200150Y742950D01*
X1181100Y756920D02*
X1186180D01*
X1118870Y819150D02*
X1181100Y756920D01*
X1104900Y819150D02*
X1118870D01*
X937351Y807364D02*
X941510Y807430D01*
X975360Y844550D02*
X981510Y838400D01*
X952500Y842010D02*
X955040Y844550D01*
X975360D01*
X981510Y807430D02*
Y838400D01*
X842010Y842010D02*
X952500D01*
X1025210Y714060D02*
Y743760D01*
X1019810Y708660D02*
X1025210Y714060D01*
X968355Y678795D02*
X971510Y681950D01*
Y739430D01*
X949305Y678795D02*
X968355D01*
X947001Y676491D02*
X949305Y678795D01*
X947001Y668871D02*
X947781Y669651D01*
X947001Y670690D02*
Y676491D01*
Y660930D02*
Y668871D01*
X940530Y654459D02*
X947001Y660930D01*
X940530Y644930D02*
Y654459D01*
X938530Y642930D02*
X940530Y644930D01*
X1036320Y797560D02*
Y857960D01*
Y797560D02*
X1049020Y784860D01*
X1019250Y875030D02*
X1036320Y857960D01*
X1049020Y758190D02*
Y784860D01*
X1041400Y750570D02*
X1049020Y758190D01*
X1014450Y755930D02*
X1019810Y750570D01*
X1041400D01*
X994206Y869746D02*
X999490Y875030D01*
X1019250D01*
X985708Y869390D02*
X986064Y869746D01*
X994206D01*
X1003010Y755930D02*
X1014450D01*
X1262410Y836930D02*
X1282700D01*
X1290320Y844550D01*
Y854710D01*
X1281430Y863600D02*
X1290320Y854710D01*
X1192530Y863600D02*
X1281430D01*
X1177290Y878840D02*
X1192530Y863600D01*
X1154430Y878840D02*
X1177290D01*
X1145540Y869950D02*
X1154430Y878840D01*
X1145540Y855980D02*
Y869950D01*
X1136112Y846552D02*
X1145540Y855980D01*
X1003010Y770930D02*
X1006114D01*
X1106077Y845726D02*
X1134295D01*
X1096010Y835660D02*
X1106077Y845726D01*
X1096010Y830580D02*
Y835660D01*
X1084580Y819150D02*
X1096010Y830580D01*
X956510Y731320D02*
Y739430D01*
Y731320D02*
X960832Y726998D01*
Y716992D02*
Y726998D01*
X957580Y713740D02*
X960832Y716992D01*
X957580Y699770D02*
Y713740D01*
X981605Y856390D02*
X985708D01*
X974845Y849630D02*
X981605Y856390D01*
X904240Y849630D02*
X974845D01*
X923170Y765930D02*
X935010D01*
X901700Y769620D02*
X919480D01*
X923170Y765930D01*
X896620Y857250D02*
X904240Y849630D01*
X896620Y774700D02*
Y807720D01*
Y774700D02*
X901700Y769620D01*
X1010532Y722242D02*
Y729640D01*
X1009650Y721360D02*
X1010532Y722242D01*
X961510Y732670D02*
X966470Y727710D01*
X961510Y732670D02*
Y739430D01*
X966470Y714123D02*
Y727710D01*
X965140Y712793D02*
X966470Y714123D01*
Y689610D02*
Y697661D01*
X965140Y709330D02*
Y712793D01*
X964470Y708660D02*
X965140Y709330D01*
X964470Y699661D02*
X966470Y697661D01*
X964470Y699661D02*
Y708660D01*
X961390Y684530D02*
X966470Y689610D01*
X951230Y581430D02*
Y586430D01*
X946150Y684530D02*
X961390D01*
X930910Y631190D02*
Y669290D01*
X946150Y684530D01*
X951230Y586430D02*
Y610870D01*
X930910Y631190D02*
X951230Y610870D01*
X957836Y569680D02*
X959586Y567930D01*
Y557660D02*
Y567930D01*
X951230Y581430D02*
X957836Y574824D01*
Y569680D02*
Y574824D01*
X991510Y733150D02*
Y739430D01*
Y733150D02*
X995020Y729640D01*
X1000372D01*
X1197610Y849630D02*
X1221710D01*
X929680Y778510D02*
X932260Y775930D01*
X929640Y778510D02*
X929680D01*
X932260Y775930D02*
X935010D01*
X1179830Y831850D02*
X1197610Y849630D01*
X1118870Y831850D02*
X1179830D01*
X916489Y782081D02*
X926194Y781956D01*
X929640Y778510D01*
X1084580Y919480D02*
X1126620D01*
X1017270Y894080D02*
X1059180D01*
X1084580Y919480D01*
X1004570Y881380D02*
X1017270Y894080D01*
X1002030Y857250D02*
Y867410D01*
X986510Y841730D02*
X1002030Y857250D01*
X986510Y807430D02*
Y841730D01*
X976630Y670560D02*
X976657Y670587D01*
X986853D01*
X986880Y670614D01*
X976629Y661430D02*
X976630Y661430D01*
Y670560D01*
X976630Y670560D01*
X957161Y670690D02*
X957226Y670625D01*
X966405D01*
X966470Y670560D01*
X957161Y660930D02*
Y670690D01*
X964404Y643403D02*
Y654180D01*
X949960Y632460D02*
Y635930D01*
X951230Y642930D01*
X963930Y586430D02*
Y600516D01*
X966665Y603250D01*
X979170D01*
X979405Y603484D01*
X981476D01*
X986790Y598170D01*
Y575310D02*
Y598170D01*
X980440Y568960D02*
X986790Y575310D01*
X980440Y552450D02*
Y568960D01*
X973567Y545577D02*
X980440Y552450D01*
X963145Y545577D02*
X973567D01*
X946635Y551927D02*
X947135D01*
X952985Y546077D01*
Y545577D02*
Y546077D01*
X963930Y642930D02*
X964404Y643403D01*
X933450Y613410D02*
X938530Y608330D01*
X926560Y613410D02*
X933450D01*
X1009300Y744758D02*
X1016050D01*
X1008129Y745930D02*
X1009300Y744758D01*
X1003010Y745930D02*
X1008129D01*
X878171Y626739D02*
Y640161D01*
X1093470Y662940D02*
X1278890D01*
X1069340Y687070D02*
X1093470Y662940D01*
X906796Y780982D02*
X911808Y775970D01*
X924560D01*
X929600Y770930D01*
X981510Y716480D02*
X1010920Y687070D01*
X981510Y716480D02*
Y739430D01*
X1010920Y687070D02*
X1069340D01*
X878171Y626739D02*
X878230Y626680D01*
X878112Y640220D02*
X878171Y640161D01*
X929600Y770930D02*
X935010D01*
X1109980Y839470D02*
X1177290D01*
X1193740Y855920D01*
X1245870D01*
X1252160Y849630D01*
X1262410D01*
X923290Y695960D02*
X928370Y701040D01*
X947420D01*
X952500Y706120D01*
Y716280D01*
X956310Y720090D01*
Y725170D01*
X951510Y729970D02*
X956310Y725170D01*
X951510Y729970D02*
Y739430D01*
D19*
X1166240Y928370D02*
D03*
X1150240D02*
D03*
X1194180D02*
D03*
X1178180D02*
D03*
X1223390D02*
D03*
X1207390D02*
D03*
X778130Y821690D02*
D03*
X794130D02*
D03*
X750190D02*
D03*
X766190D02*
D03*
X720980D02*
D03*
X736980D02*
D03*
D20*
X1193160Y813835D02*
D03*
X806450Y806070D02*
D03*
X1136650Y945260D02*
D03*
Y929260D02*
D03*
X806450Y822070D02*
D03*
X1193160Y829835D02*
D03*
D44*
X1282500Y1080000D02*
D03*
X650750D02*
D03*
D45*
X1007500D02*
D03*
X925750D02*
D03*
D50*
X1021448Y793578D02*
X1021830Y793961D01*
Y796637D01*
X1024670Y799477D01*
Y799977D01*
X934663Y287020D02*
X959110Y311467D01*
X872490Y287020D02*
X934663D01*
X849630Y309880D02*
X872490Y287020D01*
X849630Y309880D02*
Y385130D01*
X881380Y338397D02*
X908310Y311467D01*
X881380Y338397D02*
Y411480D01*
X899160Y429260D01*
X945463D01*
X951963Y435760D01*
Y439340D01*
X907590Y601445D02*
X907630Y601404D01*
X911860Y595630D02*
X912268Y596038D01*
Y601404D01*
X915090D02*
X915130Y601364D01*
X912268Y601404D02*
X915090D01*
X907630D02*
X912268D01*
X944629Y719359D02*
Y728381D01*
X924820Y795930D02*
X929915D01*
X923620Y797130D02*
X924820Y795930D01*
X912214Y797064D02*
X912214Y797064D01*
X921880D02*
X921880Y797064D01*
X912214Y797064D02*
X921880D01*
X923420Y797130D02*
X923620D01*
X991740Y572900D02*
X991870Y572770D01*
X1195070Y797560D02*
X1197490D01*
X1262410Y759490D02*
Y773430D01*
X1262380Y759460D02*
X1262410Y759490D01*
X1197490Y797560D02*
X1211460Y811530D01*
X1221710Y798830D02*
Y811530D01*
X806450Y798830D02*
Y803320D01*
X806568Y808872D01*
X1136650Y945260D02*
Y953770D01*
X1220558Y812682D02*
X1221710Y811530D01*
X1194312Y812682D02*
X1220558D01*
X1193160Y813835D02*
X1194312Y812682D01*
X938530Y566420D02*
Y586430D01*
X904940Y626680D02*
X906780Y624840D01*
X897230Y626680D02*
X904940D01*
X867027Y615567D02*
X867410Y615950D01*
X867027Y612163D02*
Y615567D01*
X865454Y610590D02*
X867027Y612163D01*
X865454Y610090D02*
Y610590D01*
X864454Y609090D02*
X865454Y610090D01*
X863954Y609090D02*
X864454D01*
X934469Y728381D02*
X934728Y728640D01*
X934469Y719359D02*
Y723870D01*
X934210Y719100D02*
X934469Y719359D01*
Y723870D02*
Y728381D01*
X928400Y723870D02*
X934469D01*
X928370Y723900D02*
X928400Y723870D01*
X912214Y807224D02*
X921880D01*
X940588Y862890D02*
X944691D01*
X926815Y862795D02*
X940588Y862890D01*
D51*
X1138179Y348548D02*
X1138418Y348787D01*
X792480Y863600D02*
X916414Y864344D01*
X921460Y869390D01*
X736980Y821690D02*
X750190D01*
X1166240Y928370D02*
X1178180D01*
X969746Y557660D02*
X970013Y557393D01*
Y552717D02*
Y557393D01*
Y552717D02*
X970280Y552450D01*
X989330Y557530D02*
X994410D01*
X971415Y825586D02*
X976510Y820490D01*
X971415Y825586D02*
Y834267D01*
X976510Y807430D02*
Y820490D01*
X891210Y750930D02*
X935010D01*
X882650Y742370D02*
X891210Y750930D01*
X969746Y557660D02*
Y567930D01*
X976630Y581430D02*
Y586430D01*
X974650Y579450D02*
X976630Y581430D01*
X973956Y579450D02*
X974650D01*
X969746Y575240D02*
X973956Y579450D01*
X969746Y567930D02*
Y575240D01*
X1220470Y928370D02*
X1250950D01*
X878230Y600660D02*
Y602680D01*
X876500Y598930D02*
X878230Y600660D01*
X863954Y598930D02*
X876500D01*
X867904Y589026D02*
Y589254D01*
X866038Y591120D02*
X867904Y589254D01*
X865810Y591120D02*
X866038D01*
X863954Y592976D02*
X865810Y591120D01*
X863954Y592976D02*
Y598930D01*
X1250950Y928370D02*
Y929306D01*
X656590Y838200D02*
X672644Y822147D01*
X720980D01*
X914782Y856382D02*
X940588Y856390D01*
X944691D01*
X902970Y742370D02*
X906530Y745930D01*
X935010D01*
X921460Y869390D02*
X944691D01*
D52*
X887730Y581660D02*
Y592170D01*
Y602680D01*
X916790Y795152D02*
X919431Y792511D01*
D53*
X1070518Y628626D02*
G03*
X1067810Y621806I7292J-6843D01*
G01*
X1070518Y628626D02*
G03*
X1067810Y621806I7292J-6843D01*
G01*
X1004640Y628650D02*
X1027430D01*
X1037590D01*
X1070519Y628627D02*
X1070540Y628650D01*
X1070518Y628626D02*
X1070519Y628627D01*
X1067809Y578610D02*
Y621806D01*
X1037590Y628650D02*
X1070540D01*
X1004640Y651550D02*
X1029930D01*
X1029970Y651510D01*
D55*
X825500Y575310D02*
D03*
X711200D02*
D03*
X787400Y727710D02*
D03*
X673100D02*
D03*
Y575310D02*
D03*
X787400D02*
D03*
X711200Y727710D02*
D03*
X1145700D02*
D03*
X1221900Y575310D02*
D03*
X1107600D02*
D03*
X1221900Y727710D02*
D03*
X1107600D02*
D03*
X1145700Y575310D02*
D03*
X1260000D02*
D03*
D56*
X825500Y727710D02*
D03*
X1260000D02*
D03*
D57*
X817880Y313918D02*
D03*
D58*
X767080D02*
D03*
D59*
X908310Y395367D02*
D03*
X1060710Y311467D02*
D03*
X914400Y1252220D02*
D03*
D60*
X959110Y395367D02*
D03*
X1009910D02*
D03*
X1060710D02*
D03*
X1009910Y311467D02*
D03*
X959110D02*
D03*
X908310D02*
D03*
X1016000Y1252220D02*
D03*
X965200D02*
D03*
D61*
X679910Y966500D02*
D03*
X1258970D02*
D03*
D62*
X1283970D02*
D03*
X654910D02*
D03*
D63*
X644402Y526019D02*
D03*
X1292860Y410210D02*
D03*
X1287650Y1268730D02*
D03*
X645160D02*
D03*
D64*
X783590Y488950D02*
D03*
X788670Y525780D02*
D03*
X755807Y484009D02*
D03*
X791210Y499110D02*
D03*
X1171780Y437792D02*
D03*
X1178344Y441945D02*
D03*
X1021448Y793578D02*
D03*
X1014730Y788670D02*
D03*
X899182Y355622D02*
D03*
X882650Y765810D02*
D03*
X801370Y379730D02*
D03*
X810639Y354886D02*
D03*
X1079114Y461578D02*
D03*
X1079500Y476250D02*
D03*
Y490220D02*
D03*
X650240Y411480D02*
D03*
X1035552Y515828D02*
D03*
X1034287Y502920D02*
D03*
X1033901Y461578D02*
D03*
X1064260Y476250D02*
D03*
Y515620D02*
D03*
X1047871Y461578D02*
D03*
X1048257Y476250D02*
D03*
X1034287D02*
D03*
X1064260Y490220D02*
D03*
Y502920D02*
D03*
X1034287Y490220D02*
D03*
X1048257Y515620D02*
D03*
X1063874Y461578D02*
D03*
X1048257Y490220D02*
D03*
Y502920D02*
D03*
X1012190Y560070D02*
D03*
X659130Y426720D02*
D03*
X647700Y429260D02*
D03*
X635000Y439420D02*
D03*
X654050Y435610D02*
D03*
X643890Y443230D02*
D03*
X654050Y447040D02*
D03*
X773430Y392430D02*
D03*
X782320D02*
D03*
X670560Y403860D02*
D03*
X764540Y392430D02*
D03*
X681990Y478790D02*
D03*
X731559Y461063D02*
D03*
Y468683D02*
D03*
X739179Y461063D02*
D03*
Y468683D02*
D03*
Y476303D02*
D03*
X731559D02*
D03*
X791210Y392430D02*
D03*
X887730Y581660D02*
D03*
X979170Y543560D02*
D03*
X887730Y592170D02*
D03*
X985520Y638810D02*
D03*
X899160Y678180D02*
D03*
X881380Y685800D02*
D03*
X919431Y792511D02*
D03*
X775256Y905325D02*
D03*
X756206D02*
D03*
Y915485D02*
D03*
X765810Y905510D02*
D03*
Y915670D02*
D03*
X775256Y915485D02*
D03*
X985520Y647700D02*
D03*
X961390Y875030D02*
D03*
X964184Y883084D02*
D03*
X970280Y872490D02*
D03*
X1100136Y281048D02*
D03*
X1075690Y280670D02*
D03*
X1124267Y281048D02*
D03*
X1111566Y293748D02*
D03*
X1122757Y305865D02*
D03*
X1089660Y293370D02*
D03*
X1110231Y319622D02*
D03*
X1121661Y332322D02*
D03*
X1175843Y279245D02*
D03*
X1148397Y281048D02*
D03*
X1224103Y279245D02*
D03*
X1199973D02*
D03*
X1211403Y291945D02*
D03*
X1135696Y293748D02*
D03*
X1134361Y319622D02*
D03*
X1198610Y405421D02*
D03*
X1218930D02*
D03*
X1208770D02*
D03*
X1187201Y449586D02*
D03*
Y458476D02*
D03*
X1195960Y458089D02*
D03*
Y449199D02*
D03*
X1238489Y290143D02*
D03*
X1249680Y302260D02*
D03*
X1251189Y277443D02*
D03*
X1262619Y290143D02*
D03*
X1262675Y321291D02*
D03*
X1233465D02*
D03*
X1242060Y331470D02*
D03*
X1248705Y321291D02*
D03*
X1257300Y331470D02*
D03*
X1271270D02*
D03*
X1299449Y277443D02*
D03*
X1275319D02*
D03*
X1273810Y302260D02*
D03*
X1275375Y321291D02*
D03*
X1275844Y341595D02*
D03*
X1286749Y290143D02*
D03*
X1283970Y331470D02*
D03*
X1297940Y302260D02*
D03*
X1233934Y341595D02*
D03*
X1235340Y361431D02*
D03*
X1241119Y351747D02*
D03*
X1242060Y372110D02*
D03*
X1249174Y341595D02*
D03*
X1256359Y351747D02*
D03*
X1263144Y341595D02*
D03*
X1270329Y351747D02*
D03*
X1283029D02*
D03*
X1264550Y361431D02*
D03*
X1250580D02*
D03*
X1257300Y372110D02*
D03*
X1277250Y361431D02*
D03*
X1271270Y372110D02*
D03*
X1283970D02*
D03*
X1004570Y585470D02*
D03*
Y670560D02*
D03*
X1004640Y595645D02*
D03*
X1035085Y578232D02*
D03*
X991866Y823964D02*
D03*
X1021338Y775128D02*
D03*
X1187491Y467192D02*
D03*
X1195070Y797560D02*
D03*
X1195960Y466979D02*
D03*
X1262380Y759460D02*
D03*
X1165860Y857250D02*
D03*
X1156414Y857435D02*
D03*
X1175464D02*
D03*
X1165860Y867410D02*
D03*
X1156414Y867595D02*
D03*
X1175464D02*
D03*
X1241790Y439711D02*
D03*
X1227820Y496861D02*
D03*
X1268460Y423201D02*
D03*
X806450Y798830D02*
D03*
X1136650Y953770D02*
D03*
X727710Y993140D02*
D03*
X1170386Y952466D02*
D03*
X1261110Y509270D02*
D03*
X1280160D02*
D03*
X1270000Y490220D02*
D03*
X1287780D02*
D03*
X1287685Y528982D02*
D03*
X1269905D02*
D03*
X1055807Y280817D02*
D03*
X1033857D02*
D03*
X857250Y514350D02*
D03*
X871220D02*
D03*
X885190D02*
D03*
X900430D02*
D03*
X1267460Y600710D02*
D03*
X1296670Y640080D02*
D03*
X906780Y624840D02*
D03*
X938530Y566420D02*
D03*
X1027430Y628650D02*
D03*
X1037590D02*
D03*
X1192530Y786130D02*
D03*
X1073150Y628650D02*
D03*
X916825Y812182D02*
D03*
X867410Y615950D02*
D03*
X1021292Y759623D02*
D03*
X839470Y770890D02*
D03*
X920387Y760651D02*
D03*
X1198856Y311403D02*
D03*
X1189210Y311046D02*
D03*
X1181100Y311150D02*
D03*
X1184910Y303530D02*
D03*
X1173480Y312420D02*
D03*
X1177290Y303530D02*
D03*
X711200Y420370D02*
D03*
X694690Y405130D02*
D03*
X706120Y403860D02*
D03*
X707390Y375920D02*
D03*
Y391160D02*
D03*
X697230Y370840D02*
D03*
X681990Y394970D02*
D03*
Y386080D02*
D03*
X670560Y393700D02*
D03*
X681990Y377190D02*
D03*
X687070Y370840D02*
D03*
X670560Y384810D02*
D03*
Y375920D02*
D03*
X792480Y863600D02*
D03*
X995680Y660400D02*
D03*
X970280Y552450D02*
D03*
X994410Y557530D02*
D03*
X926224Y788740D02*
D03*
X1112520Y825500D02*
D03*
X1104900Y819150D02*
D03*
X937351Y807364D02*
D03*
X1019810Y708660D02*
D03*
X971550Y702310D02*
D03*
X896620Y807720D02*
D03*
Y857250D02*
D03*
X1009650Y721360D02*
D03*
X964470Y708660D02*
D03*
X1118870Y831850D02*
D03*
X916489Y782081D02*
D03*
X1004570Y881380D02*
D03*
X1002030Y867410D02*
D03*
X949960Y632460D02*
D03*
X946635Y551927D02*
D03*
X938530Y608330D02*
D03*
X1250950Y928370D02*
D03*
X656590Y838200D02*
D03*
X1143000Y374650D02*
D03*
X1153160D02*
D03*
X1163320D02*
D03*
X1173480D02*
D03*
X1182719Y381624D02*
D03*
X1190061Y381900D02*
D03*
X1197585Y381716D02*
D03*
X1205384Y381900D02*
D03*
X1029930Y651550D02*
D03*
X1019810Y651510D02*
D03*
X932180Y881380D02*
D03*
X926815Y862795D02*
D03*
X906796Y780982D02*
D03*
X914782Y856382D02*
D03*
X897890Y588010D02*
D03*
X1109980Y839470D02*
D03*
X857289Y463603D02*
D03*
X871259D02*
D03*
X885229D02*
D03*
X900469D02*
D03*
X857289Y476303D02*
D03*
X871259D02*
D03*
X885229D02*
D03*
X900469D02*
D03*
X857289Y489003D02*
D03*
X871259D02*
D03*
X885229D02*
D03*
X900469D02*
D03*
Y501703D02*
D03*
X885229D02*
D03*
X871259D02*
D03*
X857289D02*
D03*
D65*
X911860Y595630D02*
D03*
Y646430D02*
D03*
X949554Y723864D02*
D03*
X963930Y828040D02*
D03*
X991870Y572770D02*
D03*
X991010Y773430D02*
D03*
Y795430D02*
D03*
X980010D02*
D03*
X969010Y784430D02*
D03*
Y795430D02*
D03*
X958010D02*
D03*
Y784430D02*
D03*
X947010Y795430D02*
D03*
Y784430D02*
D03*
X991010D02*
D03*
X980010Y773430D02*
D03*
Y762430D02*
D03*
Y784430D02*
D03*
X969010Y773430D02*
D03*
Y762430D02*
D03*
X991010Y751430D02*
D03*
Y762430D02*
D03*
X969010Y751430D02*
D03*
X980010D02*
D03*
X958010Y762430D02*
D03*
Y773430D02*
D03*
X947010Y751430D02*
D03*
Y773430D02*
D03*
Y762430D02*
D03*
X958010Y751430D02*
D03*
X928370Y723900D02*
D03*
X1012190Y814070D02*
D03*
X1084580Y819150D02*
D03*
X957580Y699770D02*
D03*
X923290Y695960D02*
D03*
D67*
X882650Y765810D02*
X883224Y765236D01*
Y756346D02*
X883920Y755650D01*
X883224Y756346D02*
Y765236D01*
X877928Y588890D02*
X884450D01*
X887730Y592170D01*
X963379Y832721D02*
X963930Y828040D01*
X912214Y807224D02*
X912214Y807224D01*
X921880D02*
X921880Y807224D01*
X922220Y807330D02*
X925415D01*
Y806865D02*
Y807330D01*
Y806865D02*
X929640Y802640D01*
X931050D01*
X932760Y800930D01*
X935010D01*
X843280Y755650D02*
Y767080D01*
X839470Y770890D02*
X843280Y767080D01*
X928950Y571990D02*
X928995Y571945D01*
Y563035D02*
X929040Y562990D01*
D68*
X1024670Y799977D02*
D03*
X1014510D02*
D03*
X843280Y755650D02*
D03*
X853440D02*
D03*
X1087120Y411480D02*
D03*
X1076960D02*
D03*
X1087120Y422910D02*
D03*
X1076960D02*
D03*
X918790Y562234D02*
D03*
X918790Y571990D02*
D03*
X996850Y820110D02*
D03*
X996846Y829110D02*
D03*
X997040Y670614D02*
D03*
X979170Y535940D02*
D03*
X904900Y640720D02*
D03*
X918820Y581990D02*
D03*
X944888Y719288D02*
D03*
X944888Y728640D02*
D03*
X877928Y588890D02*
D03*
X961255Y834267D02*
D03*
X872490Y755650D02*
D03*
X882650D02*
D03*
X1015050Y743760D02*
D03*
X1025210D02*
D03*
X971415Y834267D02*
D03*
X887365Y640470D02*
D03*
X877205D02*
D03*
X867768Y588890D02*
D03*
X934728Y728640D02*
D03*
X934728Y719288D02*
D03*
X928980Y581990D02*
D03*
X894740Y640720D02*
D03*
X969746Y557660D02*
D03*
X959586D02*
D03*
X989330Y535940D02*
D03*
X963145Y545577D02*
D03*
X952985D02*
D03*
X957161Y670690D02*
D03*
X947001D02*
D03*
X986880Y670614D02*
D03*
X966470Y670560D02*
D03*
X976630D02*
D03*
X976629Y661430D02*
D03*
X986789D02*
D03*
X969746Y567930D02*
D03*
X959586D02*
D03*
X957161Y661430D02*
D03*
X947001D02*
D03*
X1007006Y829110D02*
D03*
X1007010Y820110D02*
D03*
X1000372Y729640D02*
D03*
X1010532D02*
D03*
X928950Y571990D02*
D03*
X928950Y562234D02*
D03*
D69*
X882650Y742370D02*
D03*
Y733370D02*
D03*
X902970Y742370D02*
D03*
Y733370D02*
D03*
D70*
X966510Y807430D02*
D03*
X991510D02*
D03*
X946510Y739430D02*
D03*
X961510D02*
D03*
X996510D02*
D03*
X991510D02*
D03*
X986510D02*
D03*
X981510D02*
D03*
X976510D02*
D03*
X971510D02*
D03*
X966510D02*
D03*
X956510D02*
D03*
X951510D02*
D03*
X941510Y807430D02*
D03*
X946510D02*
D03*
X951510D02*
D03*
X956510D02*
D03*
X961510D02*
D03*
X971510D02*
D03*
X976510D02*
D03*
X981510D02*
D03*
X986510D02*
D03*
X996510D02*
D03*
X941510Y739430D02*
D03*
D71*
X849630Y385130D02*
D03*
X951963Y439340D02*
D03*
Y479340D02*
D03*
X849630Y425130D02*
D03*
D72*
X635624Y415010D02*
D03*
Y430532D02*
D03*
D73*
X650100Y387440D02*
D03*
X696100D02*
D03*
D74*
X912654Y797064D02*
D03*
X921880D02*
D03*
X1037590Y769060D02*
D03*
X1028505Y769055D02*
D03*
X915130Y600070D02*
D03*
X863954Y598930D02*
D03*
Y609090D02*
D03*
X915130Y610230D02*
D03*
X989330Y557530D02*
D03*
Y547370D02*
D03*
X999490Y546100D02*
D03*
Y535940D02*
D03*
X926560Y603250D02*
D03*
Y613410D02*
D03*
X1028505Y758895D02*
D03*
X1037590Y758900D02*
D03*
X921880Y807224D02*
D03*
X912654D02*
D03*
D75*
X954590Y903220D02*
D03*
X941090D02*
D03*
D76*
X954340Y888930D02*
D03*
X941340D02*
D03*
D77*
X1051310Y578610D02*
D03*
X1067809D02*
D03*
D78*
X1165520Y400478D02*
D03*
Y348302D02*
D03*
X1143420D02*
D03*
Y400478D02*
D03*
Y383962D02*
D03*
Y364818D02*
D03*
X1165520D02*
D03*
Y383962D02*
D03*
D79*
X882430Y698640D02*
D03*
X902970D02*
D03*
Y719640D02*
D03*
X882430D02*
D03*
D80*
X1221710Y811530D02*
D03*
Y798830D02*
D03*
X1262410Y773430D02*
D03*
X1221710D02*
D03*
Y824230D02*
D03*
Y836930D02*
D03*
X1262410Y811530D02*
D03*
Y824230D02*
D03*
Y849630D02*
D03*
X1221710D02*
D03*
X1262410Y836930D02*
D03*
Y798830D02*
D03*
Y786130D02*
D03*
X1221710D02*
D03*
D81*
X985708Y862890D02*
D03*
X944691Y856390D02*
D03*
Y875890D02*
D03*
Y862890D02*
D03*
Y869390D02*
D03*
X985708Y856390D02*
D03*
Y869390D02*
D03*
D82*
X965200Y866140D02*
D03*
D83*
X976630Y642930D02*
D03*
Y586430D02*
D03*
X951230Y642930D02*
D03*
X963930D02*
D03*
Y586430D02*
D03*
X951230D02*
D03*
X938530Y642930D02*
D03*
Y586430D02*
D03*
D84*
X887730Y602680D02*
D03*
X878230Y626680D02*
D03*
X897230Y602680D02*
D03*
X878230D02*
D03*
X897230Y626680D02*
D03*
D85*
X1004640Y605750D02*
D03*
D86*
X1003010Y765930D02*
D03*
X935010Y795930D02*
D03*
X1003010Y800930D02*
D03*
Y795930D02*
D03*
Y790930D02*
D03*
Y785930D02*
D03*
Y780930D02*
D03*
Y775930D02*
D03*
Y770930D02*
D03*
Y750930D02*
D03*
Y745930D02*
D03*
X935010D02*
D03*
Y750930D02*
D03*
Y755930D02*
D03*
Y770930D02*
D03*
Y775930D02*
D03*
Y780930D02*
D03*
Y785930D02*
D03*
Y790930D02*
D03*
Y765930D02*
D03*
X1003010Y755930D02*
D03*
X935010Y760930D02*
D03*
Y800930D02*
D03*
X1003010Y760930D02*
D03*
D87*
X969010Y773430D02*
D03*
D88*
X671335Y419280D02*
D03*
X666527Y443420D02*
D03*
X745929Y380116D02*
D03*
X745175Y404255D02*
D03*
X717375D02*
D03*
X718130Y380116D02*
D03*
X694327Y443420D02*
D03*
X699135Y419280D02*
D03*
D89*
X1153261Y323594D02*
D03*
Y301554D02*
D03*
X1167277D02*
D03*
Y323594D02*
D03*
D90*
X1259840Y346710D02*
D03*
D91*
X673100Y337940D02*
D03*
D92*
Y298940D02*
D03*
D93*
X1193340Y369710D02*
D03*
Y323710D02*
D03*
D94*
X1004640Y651550D02*
D03*
Y628650D02*
D03*
D95*
X1070540D02*
D03*
D96*
X985708Y875890D02*
D03*
D97*
X1004570Y585470D02*
X1004640Y585540D01*
Y595645D01*
Y605750D01*
X1035085Y578232D02*
X1051310Y578610D01*
M02*
