G04*
G04 #@! TF.GenerationSoftware,Altium Limited,Altium Designer,25.8.1 (18)*
G04*
G04 Layer_Physical_Order=3*
G04 Layer_Color=16440176*
%FSLAX44Y44*%
%MOMM*%
G71*
G04*
G04 #@! TF.SameCoordinates,4E148589-1D32-403F-AA22-9DC0C59B02D4*
G04*
G04*
G04 #@! TF.FilePolarity,Positive*
G04*
G01*
G75*
%ADD44R,1.6000X1.6000*%
%ADD45C,1.6000*%
%ADD55C,1.4000*%
%ADD56R,1.4000X1.4000*%
%ADD57R,1.9000X1.9000*%
%ADD58C,1.9000*%
%ADD60C,2.1000*%
%ADD61C,1.3000*%
G04:AMPARAMS|DCode=62|XSize=1.3mm|YSize=1.3mm|CornerRadius=0.325mm|HoleSize=0mm|Usage=FLASHONLY|Rotation=0.000|XOffset=0mm|YOffset=0mm|HoleType=Round|Shape=RoundedRectangle|*
%AMROUNDEDRECTD62*
21,1,1.3000,0.6500,0,0,0.0*
21,1,0.6500,1.3000,0,0,0.0*
1,1,0.6500,0.3250,-0.3250*
1,1,0.6500,-0.3250,-0.3250*
1,1,0.6500,-0.3250,0.3250*
1,1,0.6500,0.3250,0.3250*
%
%ADD62ROUNDEDRECTD62*%
%ADD63R,0.1100X0.0100*%
%ADD64C,0.6000*%
%ADD65C,0.5000*%
G36*
X1413395Y208673D02*
X543445D01*
Y1330083D01*
X1413395D01*
Y208673D01*
D02*
G37*
%LPC*%
G36*
X1289866Y1291230D02*
X1285434D01*
X1281087Y1290365D01*
X1276992Y1288669D01*
X1273307Y1286207D01*
X1270173Y1283073D01*
X1267711Y1279388D01*
X1266015Y1275293D01*
X1265150Y1270946D01*
Y1266514D01*
X1266015Y1262167D01*
X1267711Y1258072D01*
X1270173Y1254387D01*
X1273307Y1251253D01*
X1276992Y1248791D01*
X1281087Y1247095D01*
X1285434Y1246230D01*
X1289866D01*
X1294213Y1247095D01*
X1298308Y1248791D01*
X1301993Y1251253D01*
X1305127Y1254387D01*
X1307589Y1258072D01*
X1309285Y1262167D01*
X1310150Y1266514D01*
Y1270946D01*
X1309285Y1275293D01*
X1307589Y1279388D01*
X1305127Y1283073D01*
X1301993Y1286207D01*
X1298308Y1288669D01*
X1294213Y1290365D01*
X1289866Y1291230D01*
D02*
G37*
G36*
X647376D02*
X642944D01*
X638597Y1290365D01*
X634502Y1288669D01*
X630817Y1286207D01*
X627683Y1283073D01*
X625221Y1279388D01*
X623525Y1275293D01*
X622660Y1270946D01*
Y1266514D01*
X623525Y1262167D01*
X625221Y1258072D01*
X627683Y1254387D01*
X630817Y1251253D01*
X634502Y1248791D01*
X638597Y1247095D01*
X642944Y1246230D01*
X647376D01*
X651723Y1247095D01*
X655818Y1248791D01*
X659503Y1251253D01*
X662637Y1254387D01*
X665099Y1258072D01*
X666795Y1262167D01*
X667660Y1266514D01*
Y1270946D01*
X666795Y1275293D01*
X665099Y1279388D01*
X662637Y1283073D01*
X659503Y1286207D01*
X655818Y1288669D01*
X651723Y1290365D01*
X647376Y1291230D01*
D02*
G37*
G36*
X1017679Y1264974D02*
X1014321D01*
X1011077Y1264105D01*
X1008169Y1262426D01*
X1005794Y1260051D01*
X1004115Y1257143D01*
X1003246Y1253899D01*
Y1250541D01*
X1004115Y1247297D01*
X1005794Y1244389D01*
X1008169Y1242014D01*
X1011077Y1240335D01*
X1014321Y1239466D01*
X1017679D01*
X1020923Y1240335D01*
X1023831Y1242014D01*
X1026206Y1244389D01*
X1027885Y1247297D01*
X1028754Y1250541D01*
Y1253899D01*
X1027885Y1257143D01*
X1026206Y1260051D01*
X1023831Y1262426D01*
X1020923Y1264105D01*
X1017679Y1264974D01*
D02*
G37*
G36*
X966879D02*
X963521D01*
X960277Y1264105D01*
X957369Y1262426D01*
X954994Y1260051D01*
X953315Y1257143D01*
X952446Y1253899D01*
Y1250541D01*
X953315Y1247297D01*
X954994Y1244389D01*
X957369Y1242014D01*
X960277Y1240335D01*
X963521Y1239466D01*
X966879D01*
X970123Y1240335D01*
X973031Y1242014D01*
X975406Y1244389D01*
X977085Y1247297D01*
X977954Y1250541D01*
Y1253899D01*
X977085Y1257143D01*
X975406Y1260051D01*
X973031Y1262426D01*
X970123Y1264105D01*
X966879Y1264974D01*
D02*
G37*
G36*
X916079D02*
X912721D01*
X909477Y1264105D01*
X906569Y1262426D01*
X904194Y1260051D01*
X902515Y1257143D01*
X901646Y1253899D01*
Y1250541D01*
X902515Y1247297D01*
X904194Y1244389D01*
X906569Y1242014D01*
X909477Y1240335D01*
X912721Y1239466D01*
X916079D01*
X919323Y1240335D01*
X922231Y1242014D01*
X924606Y1244389D01*
X926285Y1247297D01*
X927154Y1250541D01*
Y1253899D01*
X926285Y1257143D01*
X924606Y1260051D01*
X922231Y1262426D01*
X919323Y1264105D01*
X916079Y1264974D01*
D02*
G37*
G36*
X628789Y1244031D02*
X626497D01*
X625618Y1243856D01*
X623501Y1242979D01*
X622755Y1242481D01*
X621135Y1240861D01*
X621135Y1240861D01*
X620836Y1240414D01*
X620637Y1240115D01*
Y1240115D01*
X619760Y1237998D01*
X619760Y1237998D01*
X619585Y1237119D01*
Y1235973D01*
Y1234827D01*
X619760Y1233948D01*
X619760Y1233948D01*
X620637Y1231831D01*
Y1231831D01*
X621135Y1231085D01*
X622755Y1229465D01*
X622755Y1229465D01*
X623202Y1229166D01*
X623501Y1228967D01*
X623501D01*
X625618Y1228090D01*
X625618Y1228090D01*
X626497Y1227915D01*
X628789D01*
X629668Y1228090D01*
X629668Y1228090D01*
X631785Y1228967D01*
X631785D01*
X632531Y1229465D01*
X634151Y1231085D01*
X634151Y1231085D01*
X634450Y1231532D01*
X634649Y1231831D01*
Y1231831D01*
X635526Y1233948D01*
X635701Y1234827D01*
Y1235973D01*
Y1237119D01*
X635526Y1237998D01*
X634649Y1240115D01*
X634151Y1240861D01*
X632531Y1242481D01*
X632531Y1242481D01*
X632084Y1242780D01*
X631785Y1242979D01*
X631785D01*
X629668Y1243856D01*
X628789Y1244031D01*
D02*
G37*
G36*
X1292754Y1090254D02*
X1272246D01*
Y1069746D01*
X1292754D01*
Y1090254D01*
D02*
G37*
G36*
X1008850D02*
X1006150D01*
X1003542Y1089555D01*
X1001204Y1088205D01*
X999295Y1086296D01*
X997945Y1083958D01*
X997246Y1081350D01*
Y1078650D01*
X997945Y1076042D01*
X999295Y1073704D01*
X1001204Y1071795D01*
X1003542Y1070445D01*
X1006150Y1069746D01*
X1008850D01*
X1011458Y1070445D01*
X1013796Y1071795D01*
X1015705Y1073704D01*
X1017055Y1076042D01*
X1017754Y1078650D01*
Y1081350D01*
X1017055Y1083958D01*
X1015705Y1086296D01*
X1013796Y1088205D01*
X1011458Y1089555D01*
X1008850Y1090254D01*
D02*
G37*
G36*
X927100D02*
X924400D01*
X921792Y1089555D01*
X919454Y1088205D01*
X917545Y1086296D01*
X916195Y1083958D01*
X915496Y1081350D01*
Y1078650D01*
X916195Y1076042D01*
X917545Y1073704D01*
X919454Y1071795D01*
X921792Y1070445D01*
X924400Y1069746D01*
X927100D01*
X929708Y1070445D01*
X932046Y1071795D01*
X933956Y1073704D01*
X935305Y1076042D01*
X936004Y1078650D01*
Y1081350D01*
X935305Y1083958D01*
X933956Y1086296D01*
X932046Y1088205D01*
X929708Y1089555D01*
X927100Y1090254D01*
D02*
G37*
G36*
X661004D02*
X640496D01*
Y1069746D01*
X661004D01*
Y1090254D01*
D02*
G37*
G36*
X1287220Y975362D02*
X1280720D01*
X1278572Y974935D01*
X1276752Y973718D01*
X1275535Y971898D01*
X1275108Y969750D01*
Y963250D01*
X1275535Y961102D01*
X1276752Y959282D01*
X1278572Y958065D01*
X1280720Y957638D01*
X1287220D01*
X1289368Y958065D01*
X1291188Y959282D01*
X1292405Y961102D01*
X1292832Y963250D01*
Y969750D01*
X1292405Y971898D01*
X1291188Y973718D01*
X1289368Y974935D01*
X1287220Y975362D01*
D02*
G37*
G36*
X658160D02*
X651660D01*
X649512Y974935D01*
X647692Y973718D01*
X646475Y971898D01*
X646048Y969750D01*
Y963250D01*
X646475Y961102D01*
X647692Y959282D01*
X649512Y958065D01*
X651660Y957638D01*
X658160D01*
X660308Y958065D01*
X662128Y959282D01*
X663345Y961102D01*
X663772Y963250D01*
Y969750D01*
X663345Y971898D01*
X662128Y973718D01*
X660308Y974935D01*
X658160Y975362D01*
D02*
G37*
G36*
X1251995Y933624D02*
X1249905D01*
X1247974Y932824D01*
X1246496Y931346D01*
X1245696Y929415D01*
Y927325D01*
X1246496Y925394D01*
X1247974Y923916D01*
X1249905Y923116D01*
X1251995D01*
X1253926Y923916D01*
X1255404Y925394D01*
X1256204Y927325D01*
Y929415D01*
X1255404Y931346D01*
X1253926Y932824D01*
X1251995Y933624D01*
D02*
G37*
G36*
X1005615Y886634D02*
X1003525D01*
X1001594Y885834D01*
X1000116Y884356D01*
X999316Y882425D01*
Y880335D01*
X1000116Y878404D01*
X1001594Y876926D01*
X1003525Y876126D01*
X1005615D01*
X1007546Y876926D01*
X1009024Y878404D01*
X1009824Y880335D01*
Y882425D01*
X1009024Y884356D01*
X1007546Y885834D01*
X1005615Y886634D01*
D02*
G37*
G36*
X933225D02*
X931135D01*
X929204Y885834D01*
X927726Y884356D01*
X926926Y882425D01*
Y880335D01*
X927726Y878404D01*
X929204Y876926D01*
X931135Y876126D01*
X933225D01*
X935156Y876926D01*
X936634Y878404D01*
X937434Y880335D01*
Y882425D01*
X936634Y884356D01*
X935156Y885834D01*
X933225Y886634D01*
D02*
G37*
G36*
X1003075Y872664D02*
X1000985D01*
X999054Y871864D01*
X997576Y870386D01*
X996776Y868455D01*
Y866365D01*
X997576Y864434D01*
X999054Y862956D01*
X1000985Y862156D01*
X1003075D01*
X1005006Y862956D01*
X1006484Y864434D01*
X1007284Y866365D01*
Y868455D01*
X1006484Y870386D01*
X1005006Y871864D01*
X1003075Y872664D01*
D02*
G37*
G36*
X793525Y868854D02*
X791435D01*
X789504Y868054D01*
X788026Y866576D01*
X787226Y864645D01*
Y862555D01*
X788026Y860624D01*
X789504Y859146D01*
X791435Y858346D01*
X793525D01*
X795456Y859146D01*
X796934Y860624D01*
X797734Y862555D01*
Y864645D01*
X796934Y866576D01*
X795456Y868054D01*
X793525Y868854D01*
D02*
G37*
G36*
X927860Y868049D02*
X925770D01*
X923839Y867249D01*
X922361Y865771D01*
X921561Y863840D01*
Y861750D01*
X922361Y859819D01*
X923839Y858341D01*
X925770Y857541D01*
X927860D01*
X929791Y858341D01*
X931269Y859819D01*
X932069Y861750D01*
Y863840D01*
X931269Y865771D01*
X929791Y867249D01*
X927860Y868049D01*
D02*
G37*
G36*
X897665Y862504D02*
X895575D01*
X893644Y861704D01*
X892166Y860226D01*
X891366Y858295D01*
Y856205D01*
X892166Y854274D01*
X893644Y852796D01*
X895575Y851996D01*
X897665D01*
X899596Y852796D01*
X901074Y854274D01*
X901874Y856205D01*
Y858295D01*
X901074Y860226D01*
X899596Y861704D01*
X897665Y862504D01*
D02*
G37*
G36*
X915827Y861636D02*
X913737D01*
X911806Y860836D01*
X910328Y859358D01*
X909528Y857427D01*
Y855337D01*
X910328Y853406D01*
X911806Y851928D01*
X913737Y851128D01*
X915827D01*
X917758Y851928D01*
X919236Y853406D01*
X920036Y855337D01*
Y857427D01*
X919236Y859358D01*
X917758Y860836D01*
X915827Y861636D01*
D02*
G37*
G36*
X1111025Y844724D02*
X1108935D01*
X1107004Y843924D01*
X1105526Y842446D01*
X1104726Y840515D01*
Y838425D01*
X1105526Y836494D01*
X1107004Y835016D01*
X1108935Y834216D01*
X1111025D01*
X1112956Y835016D01*
X1114434Y836494D01*
X1115234Y838425D01*
Y840515D01*
X1114434Y842446D01*
X1112956Y843924D01*
X1111025Y844724D01*
D02*
G37*
G36*
X657635Y843454D02*
X655545D01*
X653614Y842654D01*
X652136Y841176D01*
X651336Y839245D01*
Y837155D01*
X652136Y835224D01*
X653614Y833746D01*
X655545Y832946D01*
X657635D01*
X659566Y833746D01*
X661044Y835224D01*
X661844Y837155D01*
Y839245D01*
X661044Y841176D01*
X659566Y842654D01*
X657635Y843454D01*
D02*
G37*
G36*
X1119915Y837104D02*
X1117825D01*
X1115894Y836304D01*
X1114416Y834826D01*
X1113616Y832895D01*
Y830805D01*
X1113652Y830718D01*
X1113565Y830754D01*
X1111475D01*
X1109544Y829954D01*
X1108066Y828476D01*
X1107266Y826545D01*
Y824455D01*
X1107565Y823733D01*
X1105945Y824404D01*
X1103855D01*
X1101924Y823604D01*
X1100446Y822126D01*
X1099646Y820195D01*
Y818105D01*
X1100446Y816174D01*
X1101924Y814696D01*
X1103855Y813896D01*
X1105945D01*
X1107876Y814696D01*
X1109354Y816174D01*
X1110154Y818105D01*
Y820195D01*
X1109855Y820917D01*
X1111475Y820246D01*
X1113565D01*
X1115496Y821046D01*
X1116974Y822524D01*
X1117774Y824455D01*
Y826545D01*
X1117738Y826632D01*
X1117825Y826596D01*
X1119915D01*
X1121846Y827396D01*
X1123324Y828874D01*
X1124124Y830805D01*
Y832895D01*
X1123324Y834826D01*
X1121846Y836304D01*
X1119915Y837104D01*
D02*
G37*
G36*
X1085526Y823904D02*
X1083634D01*
X1081887Y823180D01*
X1080550Y821843D01*
X1079826Y820096D01*
Y818204D01*
X1080550Y816457D01*
X1081887Y815120D01*
X1083634Y814396D01*
X1085526D01*
X1087273Y815120D01*
X1088610Y816457D01*
X1089334Y818204D01*
Y820096D01*
X1088610Y821843D01*
X1087273Y823180D01*
X1085526Y823904D01*
D02*
G37*
G36*
X1013136Y818824D02*
X1011244D01*
X1009497Y818100D01*
X1008160Y816763D01*
X1007436Y815016D01*
Y813124D01*
X1008160Y811377D01*
X1009497Y810040D01*
X1011244Y809316D01*
X1013136D01*
X1014883Y810040D01*
X1016220Y811377D01*
X1016944Y813124D01*
Y815016D01*
X1016220Y816763D01*
X1014883Y818100D01*
X1013136Y818824D01*
D02*
G37*
G36*
X917870Y817436D02*
X915780D01*
X913848Y816636D01*
X912371Y815158D01*
X911571Y813227D01*
Y811137D01*
X912371Y809206D01*
X913848Y807728D01*
X915780Y806928D01*
X917870D01*
X919801Y807728D01*
X921279Y809206D01*
X922079Y811137D01*
Y813227D01*
X921279Y815158D01*
X919801Y816636D01*
X917870Y817436D01*
D02*
G37*
G36*
X897665Y812974D02*
X895575D01*
X893644Y812174D01*
X892166Y810696D01*
X891366Y808765D01*
Y806675D01*
X892166Y804744D01*
X893644Y803266D01*
X895575Y802466D01*
X897665D01*
X899596Y803266D01*
X901074Y804744D01*
X901874Y806675D01*
Y808765D01*
X901074Y810696D01*
X899596Y812174D01*
X897665Y812974D01*
D02*
G37*
G36*
X938396Y812618D02*
X936306D01*
X934375Y811818D01*
X932897Y810340D01*
X932097Y808409D01*
Y806319D01*
X932897Y804388D01*
X934375Y802910D01*
X936306Y802110D01*
X938396D01*
X940327Y802910D01*
X941805Y804388D01*
X942605Y806319D01*
Y808409D01*
X941805Y810340D01*
X940327Y811818D01*
X938396Y812618D01*
D02*
G37*
G36*
X917534Y787335D02*
X915444D01*
X913513Y786535D01*
X912035Y785057D01*
X911415Y783560D01*
X911250Y783958D01*
X909772Y785436D01*
X907841Y786236D01*
X905751D01*
X903820Y785436D01*
X902342Y783958D01*
X901542Y782027D01*
Y779937D01*
X902342Y778006D01*
X903820Y776528D01*
X905751Y775728D01*
X907841D01*
X909772Y776528D01*
X911250Y778006D01*
X911870Y779503D01*
X912035Y779105D01*
X913513Y777627D01*
X915444Y776827D01*
X917534D01*
X919465Y777627D01*
X920944Y779105D01*
X921743Y781036D01*
Y783126D01*
X920944Y785057D01*
X919465Y786535D01*
X917534Y787335D01*
D02*
G37*
G36*
X927269Y793994D02*
X925179D01*
X923248Y793194D01*
X921770Y791716D01*
X920970Y789785D01*
Y787695D01*
X921770Y785764D01*
X923248Y784286D01*
X925179Y783486D01*
X927269D01*
X929200Y784286D01*
X930678Y785764D01*
X931478Y787695D01*
Y789785D01*
X930678Y791716D01*
X929200Y793194D01*
X927269Y793994D01*
D02*
G37*
G36*
X1015775Y793924D02*
X1013685D01*
X1011754Y793124D01*
X1010276Y791646D01*
X1009476Y789715D01*
Y787625D01*
X1010276Y785694D01*
X1011754Y784216D01*
X1013685Y783416D01*
X1015775D01*
X1017706Y784216D01*
X1019184Y785694D01*
X1019984Y787625D01*
Y789715D01*
X1019184Y791646D01*
X1017706Y793124D01*
X1015775Y793924D01*
D02*
G37*
G36*
X1193575Y791384D02*
X1191485D01*
X1189554Y790584D01*
X1188076Y789106D01*
X1187276Y787175D01*
Y785085D01*
X1188076Y783154D01*
X1189554Y781676D01*
X1191485Y780876D01*
X1193575D01*
X1195506Y781676D01*
X1196984Y783154D01*
X1197784Y785085D01*
Y787175D01*
X1196984Y789106D01*
X1195506Y790584D01*
X1193575Y791384D01*
D02*
G37*
G36*
X840515Y776144D02*
X838425D01*
X836494Y775344D01*
X835016Y773866D01*
X834216Y771935D01*
Y769845D01*
X835016Y767914D01*
X836494Y766436D01*
X838425Y765636D01*
X840515D01*
X842446Y766436D01*
X843924Y767914D01*
X844724Y769845D01*
Y771935D01*
X843924Y773866D01*
X842446Y775344D01*
X840515Y776144D01*
D02*
G37*
G36*
X883695Y771064D02*
X881605D01*
X879674Y770264D01*
X878196Y768786D01*
X877396Y766855D01*
Y764765D01*
X878196Y762834D01*
X879674Y761356D01*
X881605Y760556D01*
X883695D01*
X885626Y761356D01*
X887104Y762834D01*
X887904Y764765D01*
Y766855D01*
X887104Y768786D01*
X885626Y770264D01*
X883695Y771064D01*
D02*
G37*
G36*
X921432Y765905D02*
X919342D01*
X917411Y765105D01*
X915933Y763627D01*
X915133Y761696D01*
Y759606D01*
X915933Y757675D01*
X917411Y756197D01*
X919342Y755397D01*
X921432D01*
X923363Y756197D01*
X924841Y757675D01*
X925641Y759606D01*
Y761696D01*
X924841Y763627D01*
X923363Y765105D01*
X921432Y765905D01*
D02*
G37*
G36*
X1022337Y764877D02*
X1020247D01*
X1018316Y764077D01*
X1016838Y762599D01*
X1016038Y760668D01*
Y758578D01*
X1016838Y756647D01*
X1018316Y755169D01*
X1020247Y754369D01*
X1022337D01*
X1024268Y755169D01*
X1025746Y756647D01*
X1026546Y758578D01*
Y760668D01*
X1025746Y762599D01*
X1024268Y764077D01*
X1022337Y764877D01*
D02*
G37*
G36*
X929316Y728654D02*
X927424D01*
X925677Y727930D01*
X924340Y726593D01*
X923616Y724846D01*
Y722954D01*
X924340Y721207D01*
X925677Y719870D01*
X927424Y719146D01*
X929316D01*
X931063Y719870D01*
X932400Y721207D01*
X933124Y722954D01*
Y724846D01*
X932400Y726593D01*
X931063Y727930D01*
X929316Y728654D01*
D02*
G37*
G36*
X1269254Y736964D02*
X1250746D01*
Y718456D01*
X1269254D01*
Y736964D01*
D02*
G37*
G36*
X1223118D02*
X1220682D01*
X1218328Y736333D01*
X1216218Y735115D01*
X1214495Y733392D01*
X1213277Y731282D01*
X1212646Y728928D01*
Y726492D01*
X1213277Y724138D01*
X1214495Y722028D01*
X1216218Y720305D01*
X1218328Y719087D01*
X1220682Y718456D01*
X1223118D01*
X1225472Y719087D01*
X1227582Y720305D01*
X1229305Y722028D01*
X1230523Y724138D01*
X1231154Y726492D01*
Y728928D01*
X1230523Y731282D01*
X1229305Y733392D01*
X1227582Y735115D01*
X1225472Y736333D01*
X1223118Y736964D01*
D02*
G37*
G36*
X1108818D02*
X1106382D01*
X1104028Y736333D01*
X1101918Y735115D01*
X1100195Y733392D01*
X1098977Y731282D01*
X1098346Y728928D01*
Y726492D01*
X1098977Y724138D01*
X1100195Y722028D01*
X1101918Y720305D01*
X1104028Y719087D01*
X1106382Y718456D01*
X1108818D01*
X1111172Y719087D01*
X1113282Y720305D01*
X1115005Y722028D01*
X1116223Y724138D01*
X1116854Y726492D01*
Y728928D01*
X1116223Y731282D01*
X1115005Y733392D01*
X1113282Y735115D01*
X1111172Y736333D01*
X1108818Y736964D01*
D02*
G37*
G36*
X834754D02*
X816246D01*
Y718456D01*
X834754D01*
Y736964D01*
D02*
G37*
G36*
X788618D02*
X786182D01*
X783828Y736333D01*
X781718Y735115D01*
X779995Y733392D01*
X778777Y731282D01*
X778146Y728928D01*
Y726492D01*
X778777Y724138D01*
X779995Y722028D01*
X781718Y720305D01*
X783828Y719087D01*
X786182Y718456D01*
X788618D01*
X790972Y719087D01*
X793082Y720305D01*
X794805Y722028D01*
X796023Y724138D01*
X796654Y726492D01*
Y728928D01*
X796023Y731282D01*
X794805Y733392D01*
X793082Y735115D01*
X790972Y736333D01*
X788618Y736964D01*
D02*
G37*
G36*
X674318D02*
X671882D01*
X669528Y736333D01*
X667418Y735115D01*
X665695Y733392D01*
X664477Y731282D01*
X663846Y728928D01*
Y726492D01*
X664477Y724138D01*
X665695Y722028D01*
X667418Y720305D01*
X669528Y719087D01*
X671882Y718456D01*
X674318D01*
X676672Y719087D01*
X678782Y720305D01*
X680505Y722028D01*
X681723Y724138D01*
X682354Y726492D01*
Y728928D01*
X681723Y731282D01*
X680505Y733392D01*
X678782Y735115D01*
X676672Y736333D01*
X674318Y736964D01*
D02*
G37*
G36*
X1010695Y726614D02*
X1008605D01*
X1006674Y725814D01*
X1005196Y724336D01*
X1004396Y722405D01*
Y720315D01*
X1005196Y718384D01*
X1006674Y716906D01*
X1008605Y716106D01*
X1010695D01*
X1012626Y716906D01*
X1014104Y718384D01*
X1014904Y720315D01*
Y722405D01*
X1014104Y724336D01*
X1012626Y725814D01*
X1010695Y726614D01*
D02*
G37*
G36*
X1020855Y713914D02*
X1018765D01*
X1016834Y713114D01*
X1015356Y711636D01*
X1014556Y709705D01*
Y707615D01*
X1015356Y705684D01*
X1016834Y704206D01*
X1018765Y703406D01*
X1020855D01*
X1022786Y704206D01*
X1024264Y705684D01*
X1025064Y707615D01*
Y709705D01*
X1024264Y711636D01*
X1022786Y713114D01*
X1020855Y713914D01*
D02*
G37*
G36*
X965515D02*
X963425D01*
X961494Y713114D01*
X960016Y711636D01*
X959216Y709705D01*
Y707615D01*
X960016Y705684D01*
X961494Y704206D01*
X963425Y703406D01*
X965515D01*
X966483Y703807D01*
X966296Y703355D01*
Y701265D01*
X967096Y699334D01*
X968574Y697856D01*
X970505Y697056D01*
X972595D01*
X974526Y697856D01*
X976004Y699334D01*
X976804Y701265D01*
Y703355D01*
X976004Y705286D01*
X974526Y706764D01*
X972595Y707564D01*
X970505D01*
X969537Y707163D01*
X969724Y707615D01*
Y709705D01*
X968924Y711636D01*
X967446Y713114D01*
X965515Y713914D01*
D02*
G37*
G36*
X958526Y704524D02*
X956634D01*
X954887Y703800D01*
X953550Y702463D01*
X952826Y700716D01*
Y698824D01*
X953550Y697077D01*
X954887Y695740D01*
X956634Y695016D01*
X958526D01*
X960273Y695740D01*
X961610Y697077D01*
X962334Y698824D01*
Y700716D01*
X961610Y702463D01*
X960273Y703800D01*
X958526Y704524D01*
D02*
G37*
G36*
X924236Y700714D02*
X922344D01*
X920597Y699990D01*
X919260Y698653D01*
X918536Y696906D01*
Y695014D01*
X919260Y693267D01*
X920597Y691930D01*
X922344Y691206D01*
X924236D01*
X925983Y691930D01*
X927320Y693267D01*
X928044Y695014D01*
Y696906D01*
X927320Y698653D01*
X925983Y699990D01*
X924236Y700714D01*
D02*
G37*
G36*
X996725Y665654D02*
X994635D01*
X992704Y664854D01*
X991226Y663376D01*
X990426Y661445D01*
Y659355D01*
X991226Y657424D01*
X992704Y655946D01*
X994635Y655146D01*
X996725D01*
X998656Y655946D01*
X1000134Y657424D01*
X1000934Y659355D01*
Y661445D01*
X1000134Y663376D01*
X998656Y664854D01*
X996725Y665654D01*
D02*
G37*
G36*
X1030975Y656804D02*
X1028885D01*
X1026954Y656004D01*
X1025476Y654526D01*
X1024862Y653044D01*
X1024264Y654486D01*
X1022786Y655964D01*
X1020855Y656764D01*
X1018765D01*
X1016834Y655964D01*
X1015356Y654486D01*
X1014556Y652555D01*
Y650465D01*
X1015356Y648534D01*
X1016834Y647056D01*
X1018765Y646256D01*
X1020855D01*
X1022786Y647056D01*
X1024264Y648534D01*
X1024878Y650016D01*
X1025476Y648574D01*
X1026954Y647096D01*
X1028885Y646296D01*
X1030975D01*
X1032906Y647096D01*
X1034384Y648574D01*
X1035184Y650505D01*
Y652595D01*
X1034384Y654526D01*
X1032906Y656004D01*
X1030975Y656804D01*
D02*
G37*
G36*
X1297715Y645334D02*
X1295625D01*
X1293694Y644534D01*
X1292216Y643056D01*
X1291416Y641125D01*
Y639035D01*
X1292216Y637104D01*
X1293694Y635626D01*
X1295625Y634826D01*
X1297715D01*
X1299646Y635626D01*
X1301124Y637104D01*
X1301924Y639035D01*
Y641125D01*
X1301124Y643056D01*
X1299646Y644534D01*
X1297715Y645334D01*
D02*
G37*
G36*
X1038635Y633904D02*
X1036545D01*
X1034614Y633104D01*
X1033136Y631626D01*
X1032510Y630115D01*
X1031884Y631626D01*
X1030406Y633104D01*
X1028475Y633904D01*
X1026385D01*
X1024454Y633104D01*
X1022976Y631626D01*
X1022176Y629695D01*
Y627605D01*
X1022976Y625674D01*
X1024454Y624196D01*
X1026385Y623396D01*
X1028475D01*
X1030406Y624196D01*
X1031884Y625674D01*
X1032510Y627185D01*
X1033136Y625674D01*
X1034614Y624196D01*
X1036545Y623396D01*
X1038635D01*
X1040566Y624196D01*
X1042044Y625674D01*
X1042844Y627605D01*
Y629695D01*
X1042044Y631626D01*
X1040566Y633104D01*
X1038635Y633904D01*
D02*
G37*
G36*
X951005Y637714D02*
X948915D01*
X946984Y636914D01*
X945506Y635436D01*
X944706Y633505D01*
Y631415D01*
X945506Y629484D01*
X946984Y628006D01*
X948915Y627206D01*
X951005D01*
X952936Y628006D01*
X954414Y629484D01*
X955214Y631415D01*
Y633505D01*
X954414Y635436D01*
X952936Y636914D01*
X951005Y637714D01*
D02*
G37*
G36*
X1074195Y633904D02*
X1072105D01*
X1070174Y633104D01*
X1068696Y631626D01*
X1067896Y629695D01*
Y627605D01*
X1068696Y625674D01*
X1070174Y624196D01*
X1072105Y623396D01*
X1074195D01*
X1076126Y624196D01*
X1077604Y625674D01*
X1078404Y627605D01*
Y629695D01*
X1077604Y631626D01*
X1076126Y633104D01*
X1074195Y633904D01*
D02*
G37*
G36*
X907825Y630094D02*
X905735D01*
X903804Y629294D01*
X902326Y627816D01*
X901526Y625885D01*
Y623795D01*
X902326Y621864D01*
X903804Y620386D01*
X905735Y619586D01*
X907825D01*
X909756Y620386D01*
X911234Y621864D01*
X912034Y623795D01*
Y625885D01*
X911234Y627816D01*
X909756Y629294D01*
X907825Y630094D01*
D02*
G37*
G36*
X868455Y621204D02*
X866365D01*
X864434Y620404D01*
X862956Y618926D01*
X862156Y616995D01*
Y614905D01*
X862956Y612974D01*
X864434Y611496D01*
X866365Y610696D01*
X868455D01*
X870386Y611496D01*
X871864Y612974D01*
X872664Y614905D01*
Y616995D01*
X871864Y618926D01*
X870386Y620404D01*
X868455Y621204D01*
D02*
G37*
G36*
X939575Y613584D02*
X937485D01*
X935554Y612784D01*
X934076Y611306D01*
X933276Y609375D01*
Y607285D01*
X934076Y605354D01*
X935554Y603876D01*
X937485Y603076D01*
X939575D01*
X941506Y603876D01*
X942984Y605354D01*
X943784Y607285D01*
Y609375D01*
X942984Y611306D01*
X941506Y612784D01*
X939575Y613584D01*
D02*
G37*
G36*
X1268505Y605964D02*
X1266415D01*
X1264484Y605164D01*
X1263006Y603686D01*
X1262206Y601755D01*
Y599665D01*
X1263006Y597734D01*
X1264484Y596256D01*
X1266415Y595456D01*
X1268505D01*
X1270436Y596256D01*
X1271914Y597734D01*
X1272714Y599665D01*
Y601755D01*
X1271914Y603686D01*
X1270436Y605164D01*
X1268505Y605964D01*
D02*
G37*
G36*
X898935Y593264D02*
X896845D01*
X894914Y592464D01*
X893436Y590986D01*
X892636Y589055D01*
Y586965D01*
X893436Y585034D01*
X894914Y583556D01*
X896845Y582756D01*
X898935D01*
X900866Y583556D01*
X902344Y585034D01*
X903144Y586965D01*
Y589055D01*
X902344Y590986D01*
X900866Y592464D01*
X898935Y593264D01*
D02*
G37*
G36*
X1223118Y584564D02*
X1220682D01*
X1218328Y583933D01*
X1216218Y582715D01*
X1214495Y580992D01*
X1213277Y578882D01*
X1212646Y576528D01*
Y574092D01*
X1213277Y571738D01*
X1214495Y569628D01*
X1216218Y567905D01*
X1218328Y566687D01*
X1220682Y566056D01*
X1223118D01*
X1225472Y566687D01*
X1227582Y567905D01*
X1229305Y569628D01*
X1230523Y571738D01*
X1231154Y574092D01*
Y576528D01*
X1230523Y578882D01*
X1229305Y580992D01*
X1227582Y582715D01*
X1225472Y583933D01*
X1223118Y584564D01*
D02*
G37*
G36*
X1108818D02*
X1106382D01*
X1104028Y583933D01*
X1101918Y582715D01*
X1100195Y580992D01*
X1098977Y578882D01*
X1098346Y576528D01*
Y574092D01*
X1098977Y571738D01*
X1100195Y569628D01*
X1101918Y567905D01*
X1104028Y566687D01*
X1106382Y566056D01*
X1108818D01*
X1111172Y566687D01*
X1113282Y567905D01*
X1115005Y569628D01*
X1116223Y571738D01*
X1116854Y574092D01*
Y576528D01*
X1116223Y578882D01*
X1115005Y580992D01*
X1113282Y582715D01*
X1111172Y583933D01*
X1108818Y584564D01*
D02*
G37*
G36*
X788618D02*
X786182D01*
X783828Y583933D01*
X781718Y582715D01*
X779995Y580992D01*
X778777Y578882D01*
X778146Y576528D01*
Y574092D01*
X778777Y571738D01*
X779995Y569628D01*
X781718Y567905D01*
X783828Y566687D01*
X786182Y566056D01*
X788618D01*
X790972Y566687D01*
X793082Y567905D01*
X794805Y569628D01*
X796023Y571738D01*
X796654Y574092D01*
Y576528D01*
X796023Y578882D01*
X794805Y580992D01*
X793082Y582715D01*
X790972Y583933D01*
X788618Y584564D01*
D02*
G37*
G36*
X674318D02*
X671882D01*
X669528Y583933D01*
X667418Y582715D01*
X665695Y580992D01*
X664477Y578882D01*
X663846Y576528D01*
Y574092D01*
X664477Y571738D01*
X665695Y569628D01*
X667418Y567905D01*
X669528Y566687D01*
X671882Y566056D01*
X674318D01*
X676672Y566687D01*
X678782Y567905D01*
X680505Y569628D01*
X681723Y571738D01*
X682354Y574092D01*
Y576528D01*
X681723Y578882D01*
X680505Y580992D01*
X678782Y582715D01*
X676672Y583933D01*
X674318Y584564D01*
D02*
G37*
G36*
X1261482Y586564D02*
X1258518D01*
X1255656Y585797D01*
X1253090Y584315D01*
X1250995Y582220D01*
X1249513Y579654D01*
X1248746Y576792D01*
Y573828D01*
X1249513Y570966D01*
X1250995Y568400D01*
X1253090Y566305D01*
X1255656Y564823D01*
X1258518Y564056D01*
X1261482D01*
X1264344Y564823D01*
X1266910Y566305D01*
X1269005Y568400D01*
X1270487Y570966D01*
X1271254Y573828D01*
Y576792D01*
X1270487Y579654D01*
X1269005Y582220D01*
X1266910Y584315D01*
X1264344Y585797D01*
X1261482Y586564D01*
D02*
G37*
G36*
X1147182D02*
X1144218D01*
X1141356Y585797D01*
X1138790Y584315D01*
X1136695Y582220D01*
X1135213Y579654D01*
X1134446Y576792D01*
Y573828D01*
X1135213Y570966D01*
X1136695Y568400D01*
X1138790Y566305D01*
X1141356Y564823D01*
X1144218Y564056D01*
X1147182D01*
X1150044Y564823D01*
X1152610Y566305D01*
X1154705Y568400D01*
X1156187Y570966D01*
X1156954Y573828D01*
Y576792D01*
X1156187Y579654D01*
X1154705Y582220D01*
X1152610Y584315D01*
X1150044Y585797D01*
X1147182Y586564D01*
D02*
G37*
G36*
X826982D02*
X824018D01*
X821156Y585797D01*
X818590Y584315D01*
X816495Y582220D01*
X815013Y579654D01*
X814246Y576792D01*
Y573828D01*
X815013Y570966D01*
X816495Y568400D01*
X818590Y566305D01*
X821156Y564823D01*
X824018Y564056D01*
X826982D01*
X829844Y564823D01*
X832410Y566305D01*
X834505Y568400D01*
X835987Y570966D01*
X836754Y573828D01*
Y576792D01*
X835987Y579654D01*
X834505Y582220D01*
X832410Y584315D01*
X829844Y585797D01*
X826982Y586564D01*
D02*
G37*
G36*
X712682D02*
X709718D01*
X706856Y585797D01*
X704290Y584315D01*
X702195Y582220D01*
X700713Y579654D01*
X699946Y576792D01*
Y573828D01*
X700713Y570966D01*
X702195Y568400D01*
X704290Y566305D01*
X706856Y564823D01*
X709718Y564056D01*
X712682D01*
X715544Y564823D01*
X718110Y566305D01*
X720205Y568400D01*
X721687Y570966D01*
X722454Y573828D01*
Y576792D01*
X721687Y579654D01*
X720205Y582220D01*
X718110Y584315D01*
X715544Y585797D01*
X712682Y586564D01*
D02*
G37*
G36*
X939575Y571674D02*
X937485D01*
X935554Y570874D01*
X934076Y569396D01*
X933276Y567465D01*
Y565375D01*
X934076Y563444D01*
X935554Y561966D01*
X937485Y561166D01*
X939575D01*
X941506Y561966D01*
X942984Y563444D01*
X943784Y565375D01*
Y567465D01*
X942984Y569396D01*
X941506Y570874D01*
X939575Y571674D01*
D02*
G37*
G36*
X1013235Y565324D02*
X1011145D01*
X1009214Y564524D01*
X1007736Y563046D01*
X1006936Y561115D01*
Y559025D01*
X1007736Y557094D01*
X1009214Y555616D01*
X1011145Y554816D01*
X1013235D01*
X1015166Y555616D01*
X1016644Y557094D01*
X1017444Y559025D01*
Y561115D01*
X1016644Y563046D01*
X1015166Y564524D01*
X1013235Y565324D01*
D02*
G37*
G36*
X995455Y562784D02*
X993365D01*
X991434Y561984D01*
X989956Y560506D01*
X989156Y558575D01*
Y556485D01*
X989956Y554554D01*
X991434Y553076D01*
X993365Y552276D01*
X995455D01*
X997386Y553076D01*
X998864Y554554D01*
X999664Y556485D01*
Y558575D01*
X998864Y560506D01*
X997386Y561984D01*
X995455Y562784D01*
D02*
G37*
G36*
X971325Y557704D02*
X969235D01*
X967304Y556904D01*
X965826Y555426D01*
X965026Y553495D01*
Y551405D01*
X965826Y549474D01*
X967304Y547996D01*
X969235Y547196D01*
X971325D01*
X973256Y547996D01*
X974734Y549474D01*
X975534Y551405D01*
Y553495D01*
X974734Y555426D01*
X973256Y556904D01*
X971325Y557704D01*
D02*
G37*
G36*
X947680Y557181D02*
X945590D01*
X943659Y556381D01*
X942181Y554903D01*
X941381Y552972D01*
Y550882D01*
X942181Y548951D01*
X943659Y547473D01*
X945590Y546673D01*
X947680D01*
X949612Y547473D01*
X951089Y548951D01*
X951889Y550882D01*
Y552972D01*
X951089Y554903D01*
X949612Y556381D01*
X947680Y557181D01*
D02*
G37*
G36*
X1036597Y521082D02*
X1034507D01*
X1032576Y520282D01*
X1031098Y518805D01*
X1030298Y516873D01*
Y514783D01*
X1031098Y512852D01*
X1032576Y511374D01*
X1034507Y510574D01*
X1036597D01*
X1038528Y511374D01*
X1040006Y512852D01*
X1040806Y514783D01*
Y516873D01*
X1040006Y518805D01*
X1038528Y520282D01*
X1036597Y521082D01*
D02*
G37*
G36*
X1065305Y520874D02*
X1063215D01*
X1061284Y520074D01*
X1059806Y518596D01*
X1059006Y516665D01*
Y514575D01*
X1059806Y512644D01*
X1061284Y511166D01*
X1063215Y510366D01*
X1065305D01*
X1067236Y511166D01*
X1068714Y512644D01*
X1069514Y514575D01*
Y516665D01*
X1068714Y518596D01*
X1067236Y520074D01*
X1065305Y520874D01*
D02*
G37*
G36*
X1049302D02*
X1047212D01*
X1045281Y520074D01*
X1043803Y518596D01*
X1043003Y516665D01*
Y514575D01*
X1043803Y512644D01*
X1045281Y511166D01*
X1047212Y510366D01*
X1049302D01*
X1051233Y511166D01*
X1052711Y512644D01*
X1053511Y514575D01*
Y516665D01*
X1052711Y518596D01*
X1051233Y520074D01*
X1049302Y520874D01*
D02*
G37*
G36*
X901475Y519604D02*
X899385D01*
X897454Y518804D01*
X895976Y517326D01*
X895176Y515395D01*
Y513305D01*
X895976Y511374D01*
X897454Y509896D01*
X899385Y509096D01*
X901475D01*
X903406Y509896D01*
X904884Y511374D01*
X905684Y513305D01*
Y515395D01*
X904884Y517326D01*
X903406Y518804D01*
X901475Y519604D01*
D02*
G37*
G36*
X886235D02*
X884145D01*
X882214Y518804D01*
X880736Y517326D01*
X879936Y515395D01*
Y513305D01*
X880736Y511374D01*
X882214Y509896D01*
X884145Y509096D01*
X886235D01*
X888166Y509896D01*
X889644Y511374D01*
X890444Y513305D01*
Y515395D01*
X889644Y517326D01*
X888166Y518804D01*
X886235Y519604D01*
D02*
G37*
G36*
X872265D02*
X870175D01*
X868244Y518804D01*
X866766Y517326D01*
X865966Y515395D01*
Y513305D01*
X866766Y511374D01*
X868244Y509896D01*
X870175Y509096D01*
X872265D01*
X874196Y509896D01*
X875674Y511374D01*
X876474Y513305D01*
Y515395D01*
X875674Y517326D01*
X874196Y518804D01*
X872265Y519604D01*
D02*
G37*
G36*
X858295D02*
X856205D01*
X854274Y518804D01*
X852796Y517326D01*
X851996Y515395D01*
Y513305D01*
X852796Y511374D01*
X854274Y509896D01*
X856205Y509096D01*
X858295D01*
X860226Y509896D01*
X861704Y511374D01*
X862504Y513305D01*
Y515395D01*
X861704Y517326D01*
X860226Y518804D01*
X858295Y519604D01*
D02*
G37*
G36*
X646175Y544019D02*
X642629D01*
X639152Y543327D01*
X635876Y541970D01*
X632928Y540001D01*
X630420Y537493D01*
X628451Y534545D01*
X627094Y531269D01*
X626402Y527792D01*
Y524246D01*
X627094Y520769D01*
X628451Y517493D01*
X630420Y514545D01*
X632928Y512038D01*
X635876Y510068D01*
X639152Y508711D01*
X642629Y508019D01*
X646175D01*
X649652Y508711D01*
X652928Y510068D01*
X655876Y512038D01*
X658383Y514545D01*
X660353Y517493D01*
X661710Y520769D01*
X662402Y524246D01*
Y527792D01*
X661710Y531269D01*
X660353Y534545D01*
X658383Y537493D01*
X655876Y540001D01*
X652928Y541970D01*
X649652Y543327D01*
X646175Y544019D01*
D02*
G37*
G36*
X1065305Y508174D02*
X1063215D01*
X1061284Y507374D01*
X1059806Y505896D01*
X1059006Y503965D01*
Y501875D01*
X1059806Y499944D01*
X1061284Y498466D01*
X1063215Y497666D01*
X1065305D01*
X1067236Y498466D01*
X1068714Y499944D01*
X1069514Y501875D01*
Y503965D01*
X1068714Y505896D01*
X1067236Y507374D01*
X1065305Y508174D01*
D02*
G37*
G36*
X1049302D02*
X1047212D01*
X1045281Y507374D01*
X1043803Y505896D01*
X1043003Y503965D01*
Y501875D01*
X1043803Y499944D01*
X1045281Y498466D01*
X1047212Y497666D01*
X1049302D01*
X1051233Y498466D01*
X1052711Y499944D01*
X1053511Y501875D01*
Y503965D01*
X1052711Y505896D01*
X1051233Y507374D01*
X1049302Y508174D01*
D02*
G37*
G36*
X1035332D02*
X1033242D01*
X1031311Y507374D01*
X1029833Y505896D01*
X1029033Y503965D01*
Y501875D01*
X1029833Y499944D01*
X1031311Y498466D01*
X1033242Y497666D01*
X1035332D01*
X1037263Y498466D01*
X1038741Y499944D01*
X1039541Y501875D01*
Y503965D01*
X1038741Y505896D01*
X1037263Y507374D01*
X1035332Y508174D01*
D02*
G37*
G36*
X901514Y506957D02*
X899424D01*
X897493Y506157D01*
X896015Y504679D01*
X895215Y502748D01*
Y500658D01*
X896015Y498727D01*
X897493Y497249D01*
X899424Y496449D01*
X901514D01*
X903445Y497249D01*
X904923Y498727D01*
X905723Y500658D01*
Y502748D01*
X904923Y504679D01*
X903445Y506157D01*
X901514Y506957D01*
D02*
G37*
G36*
X886274D02*
X884184D01*
X882253Y506157D01*
X880775Y504679D01*
X879975Y502748D01*
Y500658D01*
X880775Y498727D01*
X882253Y497249D01*
X884184Y496449D01*
X886274D01*
X888205Y497249D01*
X889683Y498727D01*
X890483Y500658D01*
Y502748D01*
X889683Y504679D01*
X888205Y506157D01*
X886274Y506957D01*
D02*
G37*
G36*
X872304D02*
X870214D01*
X868283Y506157D01*
X866805Y504679D01*
X866005Y502748D01*
Y500658D01*
X866805Y498727D01*
X868283Y497249D01*
X870214Y496449D01*
X872304D01*
X874235Y497249D01*
X875713Y498727D01*
X876513Y500658D01*
Y502748D01*
X875713Y504679D01*
X874235Y506157D01*
X872304Y506957D01*
D02*
G37*
G36*
X858334D02*
X856244D01*
X854313Y506157D01*
X852835Y504679D01*
X852035Y502748D01*
Y500658D01*
X852835Y498727D01*
X854313Y497249D01*
X856244Y496449D01*
X858334D01*
X860265Y497249D01*
X861743Y498727D01*
X862543Y500658D01*
Y502748D01*
X861743Y504679D01*
X860265Y506157D01*
X858334Y506957D01*
D02*
G37*
G36*
X792165Y506364D02*
X790255D01*
X788410Y505870D01*
X786756Y504915D01*
X785405Y503564D01*
X784450Y501910D01*
X783956Y500065D01*
Y498155D01*
X784450Y496310D01*
X785405Y494656D01*
X786756Y493305D01*
X788410Y492350D01*
X790255Y491856D01*
X792165D01*
X794010Y492350D01*
X795664Y493305D01*
X797015Y494656D01*
X797970Y496310D01*
X798464Y498155D01*
Y500065D01*
X797970Y501910D01*
X797015Y503564D01*
X795664Y504915D01*
X794010Y505870D01*
X792165Y506364D01*
D02*
G37*
G36*
X1080545Y495474D02*
X1078455D01*
X1076524Y494674D01*
X1075046Y493196D01*
X1074246Y491265D01*
Y489175D01*
X1075046Y487244D01*
X1076524Y485766D01*
X1078455Y484966D01*
X1080545D01*
X1082476Y485766D01*
X1083954Y487244D01*
X1084754Y489175D01*
Y491265D01*
X1083954Y493196D01*
X1082476Y494674D01*
X1080545Y495474D01*
D02*
G37*
G36*
X1065305D02*
X1063215D01*
X1061284Y494674D01*
X1059806Y493196D01*
X1059006Y491265D01*
Y489175D01*
X1059806Y487244D01*
X1061284Y485766D01*
X1063215Y484966D01*
X1065305D01*
X1067236Y485766D01*
X1068714Y487244D01*
X1069514Y489175D01*
Y491265D01*
X1068714Y493196D01*
X1067236Y494674D01*
X1065305Y495474D01*
D02*
G37*
G36*
X1049302D02*
X1047212D01*
X1045281Y494674D01*
X1043803Y493196D01*
X1043003Y491265D01*
Y489175D01*
X1043803Y487244D01*
X1045281Y485766D01*
X1047212Y484966D01*
X1049302D01*
X1051233Y485766D01*
X1052711Y487244D01*
X1053511Y489175D01*
Y491265D01*
X1052711Y493196D01*
X1051233Y494674D01*
X1049302Y495474D01*
D02*
G37*
G36*
X1035332D02*
X1033242D01*
X1031311Y494674D01*
X1029833Y493196D01*
X1029033Y491265D01*
Y489175D01*
X1029833Y487244D01*
X1031311Y485766D01*
X1033242Y484966D01*
X1035332D01*
X1037263Y485766D01*
X1038741Y487244D01*
X1039541Y489175D01*
Y491265D01*
X1038741Y493196D01*
X1037263Y494674D01*
X1035332Y495474D01*
D02*
G37*
G36*
X901514Y494257D02*
X899424D01*
X897493Y493457D01*
X896015Y491979D01*
X895215Y490048D01*
Y487958D01*
X896015Y486027D01*
X897493Y484549D01*
X899424Y483749D01*
X901514D01*
X903445Y484549D01*
X904923Y486027D01*
X905723Y487958D01*
Y490048D01*
X904923Y491979D01*
X903445Y493457D01*
X901514Y494257D01*
D02*
G37*
G36*
X886274D02*
X884184D01*
X882253Y493457D01*
X880775Y491979D01*
X879975Y490048D01*
Y487958D01*
X880775Y486027D01*
X882253Y484549D01*
X884184Y483749D01*
X886274D01*
X888205Y484549D01*
X889683Y486027D01*
X890483Y487958D01*
Y490048D01*
X889683Y491979D01*
X888205Y493457D01*
X886274Y494257D01*
D02*
G37*
G36*
X872304D02*
X870214D01*
X868283Y493457D01*
X866805Y491979D01*
X866005Y490048D01*
Y487958D01*
X866805Y486027D01*
X868283Y484549D01*
X870214Y483749D01*
X872304D01*
X874235Y484549D01*
X875713Y486027D01*
X876513Y487958D01*
Y490048D01*
X875713Y491979D01*
X874235Y493457D01*
X872304Y494257D01*
D02*
G37*
G36*
X858334D02*
X856244D01*
X854313Y493457D01*
X852835Y491979D01*
X852035Y490048D01*
Y487958D01*
X852835Y486027D01*
X854313Y484549D01*
X856244Y483749D01*
X858334D01*
X860265Y484549D01*
X861743Y486027D01*
X862543Y487958D01*
Y490048D01*
X861743Y491979D01*
X860265Y493457D01*
X858334Y494257D01*
D02*
G37*
G36*
X756762Y491263D02*
X754852D01*
X753008Y490769D01*
X751353Y489814D01*
X750003Y488463D01*
X749048Y486809D01*
X748553Y484964D01*
Y483054D01*
X749048Y481209D01*
X750003Y479555D01*
X751353Y478204D01*
X753008Y477249D01*
X754852Y476755D01*
X756762D01*
X758607Y477249D01*
X760261Y478204D01*
X761612Y479555D01*
X762567Y481209D01*
X763061Y483054D01*
Y484964D01*
X762567Y486809D01*
X761612Y488463D01*
X760261Y489814D01*
X758607Y490769D01*
X756762Y491263D01*
D02*
G37*
G36*
X901514Y481557D02*
X899424D01*
X897493Y480757D01*
X896015Y479280D01*
X895215Y477348D01*
Y475258D01*
X896015Y473327D01*
X897493Y471849D01*
X899424Y471049D01*
X901514D01*
X903445Y471849D01*
X904923Y473327D01*
X905723Y475258D01*
Y477348D01*
X904923Y479280D01*
X903445Y480757D01*
X901514Y481557D01*
D02*
G37*
G36*
X886274D02*
X884184D01*
X882253Y480757D01*
X880775Y479280D01*
X879975Y477348D01*
Y475258D01*
X880775Y473327D01*
X882253Y471849D01*
X884184Y471049D01*
X886274D01*
X888205Y471849D01*
X889683Y473327D01*
X890483Y475258D01*
Y477348D01*
X889683Y479280D01*
X888205Y480757D01*
X886274Y481557D01*
D02*
G37*
G36*
X872304D02*
X870214D01*
X868283Y480757D01*
X866805Y479280D01*
X866005Y477348D01*
Y475258D01*
X866805Y473327D01*
X868283Y471849D01*
X870214Y471049D01*
X872304D01*
X874235Y471849D01*
X875713Y473327D01*
X876513Y475258D01*
Y477348D01*
X875713Y479280D01*
X874235Y480757D01*
X872304Y481557D01*
D02*
G37*
G36*
X858334D02*
X856244D01*
X854313Y480757D01*
X852835Y479280D01*
X852035Y477348D01*
Y475258D01*
X852835Y473327D01*
X854313Y471849D01*
X856244Y471049D01*
X858334D01*
X860265Y471849D01*
X861743Y473327D01*
X862543Y475258D01*
Y477348D01*
X861743Y479280D01*
X860265Y480757D01*
X858334Y481557D01*
D02*
G37*
G36*
X1080545Y481504D02*
X1078455D01*
X1076524Y480704D01*
X1075046Y479226D01*
X1074246Y477295D01*
Y475205D01*
X1075046Y473274D01*
X1076524Y471796D01*
X1078455Y470996D01*
X1080545D01*
X1082476Y471796D01*
X1083954Y473274D01*
X1084754Y475205D01*
Y477295D01*
X1083954Y479226D01*
X1082476Y480704D01*
X1080545Y481504D01*
D02*
G37*
G36*
X1065305D02*
X1063215D01*
X1061284Y480704D01*
X1059806Y479226D01*
X1059006Y477295D01*
Y475205D01*
X1059806Y473274D01*
X1061284Y471796D01*
X1063215Y470996D01*
X1065305D01*
X1067236Y471796D01*
X1068714Y473274D01*
X1069514Y475205D01*
Y477295D01*
X1068714Y479226D01*
X1067236Y480704D01*
X1065305Y481504D01*
D02*
G37*
G36*
X1049302D02*
X1047212D01*
X1045281Y480704D01*
X1043803Y479226D01*
X1043003Y477295D01*
Y475205D01*
X1043803Y473274D01*
X1045281Y471796D01*
X1047212Y470996D01*
X1049302D01*
X1051233Y471796D01*
X1052711Y473274D01*
X1053511Y475205D01*
Y477295D01*
X1052711Y479226D01*
X1051233Y480704D01*
X1049302Y481504D01*
D02*
G37*
G36*
X1035332D02*
X1033242D01*
X1031311Y480704D01*
X1029833Y479226D01*
X1029033Y477295D01*
Y475205D01*
X1029833Y473274D01*
X1031311Y471796D01*
X1033242Y470996D01*
X1035332D01*
X1037263Y471796D01*
X1038741Y473274D01*
X1039541Y475205D01*
Y477295D01*
X1038741Y479226D01*
X1037263Y480704D01*
X1035332Y481504D01*
D02*
G37*
G36*
X901514Y468857D02*
X899424D01*
X897493Y468058D01*
X896015Y466580D01*
X895215Y464648D01*
Y462558D01*
X896015Y460627D01*
X897493Y459149D01*
X899424Y458349D01*
X901514D01*
X903445Y459149D01*
X904923Y460627D01*
X905723Y462558D01*
Y464648D01*
X904923Y466580D01*
X903445Y468058D01*
X901514Y468857D01*
D02*
G37*
G36*
X886274D02*
X884184D01*
X882253Y468058D01*
X880775Y466580D01*
X879975Y464648D01*
Y462558D01*
X880775Y460627D01*
X882253Y459149D01*
X884184Y458349D01*
X886274D01*
X888205Y459149D01*
X889683Y460627D01*
X890483Y462558D01*
Y464648D01*
X889683Y466580D01*
X888205Y468058D01*
X886274Y468857D01*
D02*
G37*
G36*
X872304D02*
X870214D01*
X868283Y468058D01*
X866805Y466580D01*
X866005Y464648D01*
Y462558D01*
X866805Y460627D01*
X868283Y459149D01*
X870214Y458349D01*
X872304D01*
X874235Y459149D01*
X875713Y460627D01*
X876513Y462558D01*
Y464648D01*
X875713Y466580D01*
X874235Y468058D01*
X872304Y468857D01*
D02*
G37*
G36*
X858334D02*
X856244D01*
X854313Y468058D01*
X852835Y466580D01*
X852035Y464648D01*
Y462558D01*
X852835Y460627D01*
X854313Y459149D01*
X856244Y458349D01*
X858334D01*
X860265Y459149D01*
X861743Y460627D01*
X862543Y462558D01*
Y464648D01*
X861743Y466580D01*
X860265Y468058D01*
X858334Y468857D01*
D02*
G37*
G36*
X1080159Y466832D02*
X1078069D01*
X1076138Y466032D01*
X1074660Y464554D01*
X1073860Y462623D01*
Y460533D01*
X1074660Y458602D01*
X1076138Y457124D01*
X1078069Y456324D01*
X1080159D01*
X1082090Y457124D01*
X1083568Y458602D01*
X1084368Y460533D01*
Y462623D01*
X1083568Y464554D01*
X1082090Y466032D01*
X1080159Y466832D01*
D02*
G37*
G36*
X1064919D02*
X1062829D01*
X1060898Y466032D01*
X1059420Y464554D01*
X1058620Y462623D01*
Y460533D01*
X1059420Y458602D01*
X1060898Y457124D01*
X1062829Y456324D01*
X1064919D01*
X1066850Y457124D01*
X1068328Y458602D01*
X1069128Y460533D01*
Y462623D01*
X1068328Y464554D01*
X1066850Y466032D01*
X1064919Y466832D01*
D02*
G37*
G36*
X1048916D02*
X1046826D01*
X1044895Y466032D01*
X1043417Y464554D01*
X1042617Y462623D01*
Y460533D01*
X1043417Y458602D01*
X1044895Y457124D01*
X1046826Y456324D01*
X1048916D01*
X1050847Y457124D01*
X1052325Y458602D01*
X1053125Y460533D01*
Y462623D01*
X1052325Y464554D01*
X1050847Y466032D01*
X1048916Y466832D01*
D02*
G37*
G36*
X1034946D02*
X1032856D01*
X1030925Y466032D01*
X1029447Y464554D01*
X1028647Y462623D01*
Y460533D01*
X1029447Y458602D01*
X1030925Y457124D01*
X1032856Y456324D01*
X1034946D01*
X1036877Y457124D01*
X1038355Y458602D01*
X1039155Y460533D01*
Y462623D01*
X1038355Y464554D01*
X1036877Y466032D01*
X1034946Y466832D01*
D02*
G37*
G36*
X1179298Y449199D02*
X1177389D01*
X1175544Y448705D01*
X1173889Y447750D01*
X1172539Y446399D01*
X1171758Y445046D01*
X1170825D01*
X1168980Y444552D01*
X1167326Y443597D01*
X1165976Y442246D01*
X1165021Y440592D01*
X1164526Y438747D01*
Y436837D01*
X1165021Y434992D01*
X1165976Y433338D01*
X1167326Y431987D01*
X1168980Y431032D01*
X1170825Y430538D01*
X1172735D01*
X1174580Y431032D01*
X1176235Y431987D01*
X1177585Y433338D01*
X1178366Y434691D01*
X1179298D01*
X1181143Y435186D01*
X1182797Y436141D01*
X1184148Y437491D01*
X1185103Y439145D01*
X1185598Y440990D01*
Y442900D01*
X1185103Y444745D01*
X1184148Y446399D01*
X1182797Y447750D01*
X1181143Y448705D01*
X1179298Y449199D01*
D02*
G37*
G36*
X712155Y427624D02*
X710245D01*
X708400Y427130D01*
X706746Y426175D01*
X705395Y424824D01*
X704440Y423170D01*
X703946Y421325D01*
Y419415D01*
X704440Y417570D01*
X705395Y415916D01*
X706746Y414565D01*
X708400Y413610D01*
X710245Y413116D01*
X712155D01*
X714000Y413610D01*
X715654Y414565D01*
X717005Y415916D01*
X717960Y417570D01*
X718454Y419415D01*
Y421325D01*
X717960Y423170D01*
X717005Y424824D01*
X715654Y426175D01*
X714000Y427130D01*
X712155Y427624D01*
D02*
G37*
G36*
X651285Y416734D02*
X649195D01*
X647264Y415934D01*
X645786Y414456D01*
X644986Y412525D01*
Y410435D01*
X645786Y408504D01*
X647264Y407026D01*
X649195Y406226D01*
X651285D01*
X653216Y407026D01*
X654694Y408504D01*
X655494Y410435D01*
Y412525D01*
X654694Y414456D01*
X653216Y415934D01*
X651285Y416734D01*
D02*
G37*
G36*
X682945Y402224D02*
X681035D01*
X679190Y401730D01*
X677536Y400775D01*
X676185Y399424D01*
X675786Y398733D01*
X675014Y399505D01*
X673360Y400460D01*
X671515Y400954D01*
X669605D01*
X667760Y400460D01*
X666106Y399505D01*
X664755Y398154D01*
X663800Y396500D01*
X663306Y394655D01*
Y392745D01*
X663800Y390900D01*
X664750Y389255D01*
X663800Y387610D01*
X663306Y385765D01*
Y383855D01*
X663800Y382010D01*
X664750Y380365D01*
X663800Y378720D01*
X663306Y376875D01*
Y374965D01*
X663800Y373120D01*
X664755Y371466D01*
X666106Y370115D01*
X667760Y369160D01*
X669605Y368666D01*
X671515D01*
X673360Y369160D01*
X675014Y370115D01*
X676365Y371466D01*
X676764Y372157D01*
X677536Y371385D01*
X679190Y370430D01*
X679816Y370263D01*
Y369885D01*
X680310Y368040D01*
X681265Y366386D01*
X682616Y365035D01*
X684270Y364080D01*
X686115Y363586D01*
X688025D01*
X689870Y364080D01*
X691524Y365035D01*
X692150Y365661D01*
X692776Y365035D01*
X694430Y364080D01*
X696275Y363586D01*
X698185D01*
X700030Y364080D01*
X701684Y365035D01*
X703035Y366386D01*
X703990Y368040D01*
X704330Y369310D01*
X704590Y369160D01*
X706435Y368666D01*
X708345D01*
X710190Y369160D01*
X711844Y370115D01*
X713195Y371466D01*
X714150Y373120D01*
X714644Y374965D01*
Y376875D01*
X714150Y378720D01*
X713195Y380374D01*
X711844Y381725D01*
X710190Y382680D01*
X708345Y383174D01*
X706435D01*
X704590Y382680D01*
X702936Y381725D01*
X701585Y380374D01*
X700630Y378720D01*
X700290Y377449D01*
X700030Y377600D01*
X698185Y378094D01*
X696275D01*
X694430Y377600D01*
X692776Y376645D01*
X692150Y376019D01*
X691524Y376645D01*
X689870Y377600D01*
X689244Y377767D01*
Y378145D01*
X688750Y379990D01*
X687800Y381635D01*
X688750Y383280D01*
X689244Y385125D01*
Y387035D01*
X688750Y388880D01*
X687800Y390525D01*
X688750Y392170D01*
X689244Y394015D01*
Y395925D01*
X688750Y397770D01*
X687795Y399424D01*
X686444Y400775D01*
X684790Y401730D01*
X682945Y402224D01*
D02*
G37*
G36*
X1295076Y432710D02*
X1290644D01*
X1286297Y431845D01*
X1282202Y430149D01*
X1278517Y427687D01*
X1275383Y424553D01*
X1272921Y420868D01*
X1271225Y416773D01*
X1270360Y412426D01*
Y407994D01*
X1271225Y403647D01*
X1272921Y399552D01*
X1275383Y395867D01*
X1278517Y392733D01*
X1282202Y390271D01*
X1286297Y388575D01*
X1290644Y387710D01*
X1295076D01*
X1299423Y388575D01*
X1303518Y390271D01*
X1307203Y392733D01*
X1310337Y395867D01*
X1312799Y399552D01*
X1314495Y403647D01*
X1315360Y407994D01*
Y412426D01*
X1314495Y416773D01*
X1312799Y420868D01*
X1310337Y424553D01*
X1307203Y427687D01*
X1303518Y430149D01*
X1299423Y431845D01*
X1295076Y432710D01*
D02*
G37*
G36*
X1206430Y387154D02*
X1204339D01*
X1202408Y386354D01*
X1201393Y385339D01*
X1200561Y386170D01*
X1198630Y386970D01*
X1196540D01*
X1194609Y386170D01*
X1193915Y385476D01*
X1193037Y386354D01*
X1191106Y387154D01*
X1189016D01*
X1187085Y386354D01*
X1186252Y385522D01*
X1185696Y386078D01*
X1183765Y386878D01*
X1181674D01*
X1179743Y386078D01*
X1178265Y384600D01*
X1177466Y382669D01*
Y380579D01*
X1178265Y378648D01*
X1179743Y377170D01*
X1181674Y376370D01*
X1183765D01*
X1185696Y377170D01*
X1186528Y378002D01*
X1187085Y377445D01*
X1189016Y376646D01*
X1191106D01*
X1193037Y377445D01*
X1193731Y378140D01*
X1194609Y377262D01*
X1196540Y376462D01*
X1198630D01*
X1200561Y377262D01*
X1201577Y378277D01*
X1202408Y377445D01*
X1204339Y376646D01*
X1206430D01*
X1208361Y377445D01*
X1209839Y378923D01*
X1210638Y380855D01*
Y382945D01*
X1209839Y384876D01*
X1208361Y386354D01*
X1206430Y387154D01*
D02*
G37*
G36*
X695645Y412384D02*
X693735D01*
X691890Y411890D01*
X690236Y410935D01*
X688885Y409584D01*
X687930Y407930D01*
X687436Y406085D01*
Y404175D01*
X687930Y402330D01*
X688885Y400676D01*
X690236Y399325D01*
X691890Y398370D01*
X693735Y397876D01*
X695645D01*
X697490Y398370D01*
X699144Y399325D01*
X699916Y400097D01*
X700315Y399406D01*
X701666Y398055D01*
X703246Y397143D01*
X702936Y396965D01*
X701585Y395614D01*
X700630Y393960D01*
X700136Y392115D01*
Y390205D01*
X700630Y388360D01*
X701585Y386706D01*
X702936Y385355D01*
X704590Y384400D01*
X706435Y383906D01*
X708345D01*
X710190Y384400D01*
X711844Y385355D01*
X713195Y386706D01*
X714150Y388360D01*
X714644Y390205D01*
Y392115D01*
X714150Y393960D01*
X713195Y395614D01*
X711844Y396965D01*
X710264Y397877D01*
X710574Y398055D01*
X711925Y399406D01*
X712880Y401060D01*
X713374Y402905D01*
Y404815D01*
X712880Y406660D01*
X711925Y408314D01*
X710574Y409665D01*
X708920Y410620D01*
X707075Y411114D01*
X705165D01*
X703320Y410620D01*
X701666Y409665D01*
X700894Y408893D01*
X700495Y409584D01*
X699144Y410935D01*
X697490Y411890D01*
X695645Y412384D01*
D02*
G37*
G36*
X1062389Y408121D02*
X1059031D01*
X1055787Y407252D01*
X1052879Y405573D01*
X1050504Y403198D01*
X1048825Y400290D01*
X1047956Y397046D01*
Y393688D01*
X1048825Y390444D01*
X1050504Y387536D01*
X1052879Y385161D01*
X1055787Y383482D01*
X1059031Y382613D01*
X1062389D01*
X1065633Y383482D01*
X1068541Y385161D01*
X1070916Y387536D01*
X1072595Y390444D01*
X1073464Y393688D01*
Y397046D01*
X1072595Y400290D01*
X1070916Y403198D01*
X1068541Y405573D01*
X1065633Y407252D01*
X1062389Y408121D01*
D02*
G37*
G36*
X1011589D02*
X1008231D01*
X1004987Y407252D01*
X1002079Y405573D01*
X999704Y403198D01*
X998025Y400290D01*
X997156Y397046D01*
Y393688D01*
X998025Y390444D01*
X999704Y387536D01*
X1002079Y385161D01*
X1004987Y383482D01*
X1008231Y382613D01*
X1011589D01*
X1014833Y383482D01*
X1017741Y385161D01*
X1020116Y387536D01*
X1021795Y390444D01*
X1022664Y393688D01*
Y397046D01*
X1021795Y400290D01*
X1020116Y403198D01*
X1017741Y405573D01*
X1014833Y407252D01*
X1011589Y408121D01*
D02*
G37*
G36*
X960789D02*
X957431D01*
X954187Y407252D01*
X951279Y405573D01*
X948904Y403198D01*
X947225Y400290D01*
X946356Y397046D01*
Y393688D01*
X947225Y390444D01*
X948904Y387536D01*
X951279Y385161D01*
X954187Y383482D01*
X957431Y382613D01*
X960789D01*
X964033Y383482D01*
X966941Y385161D01*
X969316Y387536D01*
X970995Y390444D01*
X971864Y393688D01*
Y397046D01*
X970995Y400290D01*
X969316Y403198D01*
X966941Y405573D01*
X964033Y407252D01*
X960789Y408121D01*
D02*
G37*
G36*
X909989D02*
X906631D01*
X903387Y407252D01*
X900479Y405573D01*
X898104Y403198D01*
X896425Y400290D01*
X895556Y397046D01*
Y393688D01*
X896425Y390444D01*
X898104Y387536D01*
X900479Y385161D01*
X903387Y383482D01*
X906631Y382613D01*
X909989D01*
X913233Y383482D01*
X916141Y385161D01*
X918516Y387536D01*
X920195Y390444D01*
X921064Y393688D01*
Y397046D01*
X920195Y400290D01*
X918516Y403198D01*
X916141Y405573D01*
X913233Y407252D01*
X909989Y408121D01*
D02*
G37*
G36*
X1174525Y379904D02*
X1172435D01*
X1170504Y379104D01*
X1169026Y377626D01*
X1168400Y376115D01*
X1167774Y377626D01*
X1166296Y379104D01*
X1164365Y379904D01*
X1162275D01*
X1160344Y379104D01*
X1158866Y377626D01*
X1158240Y376115D01*
X1157614Y377626D01*
X1156136Y379104D01*
X1154205Y379904D01*
X1152115D01*
X1150184Y379104D01*
X1148706Y377626D01*
X1148080Y376115D01*
X1147454Y377626D01*
X1145976Y379104D01*
X1144045Y379904D01*
X1141955D01*
X1140024Y379104D01*
X1138546Y377626D01*
X1137746Y375695D01*
Y373605D01*
X1138546Y371674D01*
X1140024Y370196D01*
X1141955Y369396D01*
X1144045D01*
X1145976Y370196D01*
X1147454Y371674D01*
X1148080Y373185D01*
X1148706Y371674D01*
X1150184Y370196D01*
X1152115Y369396D01*
X1154205D01*
X1156136Y370196D01*
X1157614Y371674D01*
X1158240Y373185D01*
X1158866Y371674D01*
X1160344Y370196D01*
X1162275Y369396D01*
X1164365D01*
X1166296Y370196D01*
X1167774Y371674D01*
X1168400Y373185D01*
X1169026Y371674D01*
X1170504Y370196D01*
X1172435Y369396D01*
X1174525D01*
X1176456Y370196D01*
X1177934Y371674D01*
X1178734Y373605D01*
Y375695D01*
X1177934Y377626D01*
X1176456Y379104D01*
X1174525Y379904D01*
D02*
G37*
G36*
X802415Y384984D02*
X800325D01*
X798394Y384184D01*
X796916Y382706D01*
X796116Y380775D01*
Y378685D01*
X796916Y376754D01*
X798394Y375276D01*
X800325Y374476D01*
X802415D01*
X804346Y375276D01*
X805824Y376754D01*
X806624Y378685D01*
Y380775D01*
X805824Y382706D01*
X804346Y384184D01*
X802415Y384984D01*
D02*
G37*
G36*
X900227Y360876D02*
X898137D01*
X896206Y360076D01*
X894728Y358598D01*
X893928Y356667D01*
Y354577D01*
X894728Y352646D01*
X896206Y351168D01*
X898137Y350368D01*
X900227D01*
X902158Y351168D01*
X903636Y352646D01*
X904436Y354577D01*
Y356667D01*
X903636Y358598D01*
X902158Y360076D01*
X900227Y360876D01*
D02*
G37*
G36*
X811684Y360140D02*
X809594D01*
X807662Y359340D01*
X806184Y357862D01*
X805385Y355931D01*
Y353841D01*
X806184Y351910D01*
X807662Y350432D01*
X809594Y349632D01*
X811684D01*
X813615Y350432D01*
X815093Y351910D01*
X815893Y353841D01*
Y355931D01*
X815093Y357862D01*
X813615Y359340D01*
X811684Y360140D01*
D02*
G37*
G36*
X1174435Y319674D02*
X1172525D01*
X1170680Y319180D01*
X1169026Y318225D01*
X1167675Y316874D01*
X1166720Y315220D01*
X1166226Y313375D01*
Y311465D01*
X1166720Y309620D01*
X1167675Y307966D01*
X1169026Y306615D01*
X1170395Y305825D01*
X1170036Y304485D01*
Y302575D01*
X1170530Y300730D01*
X1171485Y299076D01*
X1172836Y297725D01*
X1174490Y296770D01*
X1176335Y296276D01*
X1178245D01*
X1180090Y296770D01*
X1181100Y297353D01*
X1182110Y296770D01*
X1183955Y296276D01*
X1185865D01*
X1187710Y296770D01*
X1189364Y297725D01*
X1190715Y299076D01*
X1191670Y300730D01*
X1192164Y302575D01*
Y304375D01*
X1193664Y305241D01*
X1194211Y305789D01*
X1194402Y305598D01*
X1196056Y304643D01*
X1197901Y304149D01*
X1199811D01*
X1201656Y304643D01*
X1203310Y305598D01*
X1204660Y306949D01*
X1205615Y308603D01*
X1206110Y310448D01*
Y312358D01*
X1205615Y314203D01*
X1204660Y315857D01*
X1203310Y317208D01*
X1201656Y318163D01*
X1199811Y318657D01*
X1197901D01*
X1196056Y318163D01*
X1194402Y317208D01*
X1193854Y316660D01*
X1193664Y316850D01*
X1192010Y317806D01*
X1190165Y318300D01*
X1188255D01*
X1186410Y317806D01*
X1185245Y317133D01*
X1183900Y317910D01*
X1182055Y318404D01*
X1180145D01*
X1178300Y317910D01*
X1178268Y317891D01*
X1177934Y318225D01*
X1176280Y319180D01*
X1174435Y319674D01*
D02*
G37*
G36*
X829634Y325672D02*
X806126D01*
Y302164D01*
X829634D01*
Y325672D01*
D02*
G37*
G36*
X1011589Y324221D02*
X1008231D01*
X1004987Y323352D01*
X1002079Y321673D01*
X999704Y319298D01*
X998025Y316390D01*
X997156Y313146D01*
Y309788D01*
X998025Y306544D01*
X999704Y303636D01*
X1002079Y301261D01*
X1004987Y299582D01*
X1008231Y298713D01*
X1011589D01*
X1014833Y299582D01*
X1017741Y301261D01*
X1020116Y303636D01*
X1021795Y306544D01*
X1022664Y309788D01*
Y313146D01*
X1021795Y316390D01*
X1020116Y319298D01*
X1017741Y321673D01*
X1014833Y323352D01*
X1011589Y324221D01*
D02*
G37*
G36*
X960789D02*
X957431D01*
X954187Y323352D01*
X951279Y321673D01*
X948904Y319298D01*
X947225Y316390D01*
X946356Y313146D01*
Y309788D01*
X947225Y306544D01*
X948904Y303636D01*
X951279Y301261D01*
X954187Y299582D01*
X957431Y298713D01*
X960789D01*
X964033Y299582D01*
X966941Y301261D01*
X969316Y303636D01*
X970995Y306544D01*
X971864Y309788D01*
Y313146D01*
X970995Y316390D01*
X969316Y319298D01*
X966941Y321673D01*
X964033Y323352D01*
X960789Y324221D01*
D02*
G37*
G36*
X909989D02*
X906631D01*
X903387Y323352D01*
X900479Y321673D01*
X898104Y319298D01*
X896425Y316390D01*
X895556Y313146D01*
Y309788D01*
X896425Y306544D01*
X898104Y303636D01*
X900479Y301261D01*
X903387Y299582D01*
X906631Y298713D01*
X909989D01*
X913233Y299582D01*
X916141Y301261D01*
X918516Y303636D01*
X920195Y306544D01*
X921064Y309788D01*
Y313146D01*
X920195Y316390D01*
X918516Y319298D01*
X916141Y321673D01*
X913233Y323352D01*
X909989Y324221D01*
D02*
G37*
G36*
X1308983Y297355D02*
X1306691D01*
X1305812Y297180D01*
X1303695Y296303D01*
X1302949Y295805D01*
X1301329Y294185D01*
X1301329Y294185D01*
X1301030Y293738D01*
X1300831Y293439D01*
Y293439D01*
X1299954Y291322D01*
X1299954Y291322D01*
X1299779Y290443D01*
Y289297D01*
Y288151D01*
X1299954Y287272D01*
X1299954Y287272D01*
X1300831Y285155D01*
Y285155D01*
X1301329Y284409D01*
X1302949Y282789D01*
X1302949Y282789D01*
X1303396Y282490D01*
X1303695Y282291D01*
X1303695D01*
X1305812Y281414D01*
X1305812Y281414D01*
X1306691Y281239D01*
X1308983D01*
X1309862Y281414D01*
X1309862Y281414D01*
X1311979Y282291D01*
X1311979D01*
X1312725Y282789D01*
X1314345Y284409D01*
X1314345Y284409D01*
X1314644Y284856D01*
X1314843Y285155D01*
Y285155D01*
X1315720Y287272D01*
X1315895Y288151D01*
Y289297D01*
Y290443D01*
X1315720Y291322D01*
X1314843Y293439D01*
X1314345Y294185D01*
X1312725Y295805D01*
X1312725Y295805D01*
X1312278Y296104D01*
X1311979Y296303D01*
X1311979D01*
X1309862Y297180D01*
X1308983Y297355D01*
D02*
G37*
%LPD*%
D44*
X1282500Y1080000D02*
D03*
X650750D02*
D03*
D45*
X1007500D02*
D03*
X925750D02*
D03*
D55*
X825500Y575310D02*
D03*
X711200D02*
D03*
X787400Y727710D02*
D03*
X673100D02*
D03*
Y575310D02*
D03*
X787400D02*
D03*
X711200Y727710D02*
D03*
X1145700D02*
D03*
X1221900Y575310D02*
D03*
X1107600D02*
D03*
X1221900Y727710D02*
D03*
X1107600D02*
D03*
X1145700Y575310D02*
D03*
X1260000D02*
D03*
D56*
X825500Y727710D02*
D03*
X1260000D02*
D03*
D57*
X817880Y313918D02*
D03*
D58*
X767080D02*
D03*
D60*
X908310Y395367D02*
D03*
X959110D02*
D03*
X1009910D02*
D03*
X1060710D02*
D03*
X1060710Y311467D02*
D03*
X1009910D02*
D03*
X959110D02*
D03*
X908310D02*
D03*
X1016000Y1252220D02*
D03*
X914400D02*
D03*
X965200D02*
D03*
D61*
X679910Y966500D02*
D03*
X1258970D02*
D03*
D62*
X1283970D02*
D03*
X654910D02*
D03*
D63*
X644402Y526019D02*
D03*
X1292860Y410210D02*
D03*
X1287650Y1268730D02*
D03*
X645160D02*
D03*
D64*
X783590Y488950D02*
D03*
X788670Y525780D02*
D03*
X755807Y484009D02*
D03*
X791210Y499110D02*
D03*
X1171780Y437792D02*
D03*
X1178344Y441945D02*
D03*
X1021448Y793578D02*
D03*
X1014730Y788670D02*
D03*
X899182Y355622D02*
D03*
X882650Y765810D02*
D03*
X801370Y379730D02*
D03*
X810639Y354886D02*
D03*
X1079114Y461578D02*
D03*
X1079500Y476250D02*
D03*
Y490220D02*
D03*
X650240Y411480D02*
D03*
X1035552Y515828D02*
D03*
X1034287Y502920D02*
D03*
X1033901Y461578D02*
D03*
X1064260Y476250D02*
D03*
Y515620D02*
D03*
X1047871Y461578D02*
D03*
X1048257Y476250D02*
D03*
X1034287D02*
D03*
X1064260Y490220D02*
D03*
Y502920D02*
D03*
X1034287Y490220D02*
D03*
X1048257Y515620D02*
D03*
X1063874Y461578D02*
D03*
X1048257Y490220D02*
D03*
Y502920D02*
D03*
X1012190Y560070D02*
D03*
X659130Y426720D02*
D03*
X647700Y429260D02*
D03*
X635000Y439420D02*
D03*
X654050Y435610D02*
D03*
X643890Y443230D02*
D03*
X654050Y447040D02*
D03*
X773430Y392430D02*
D03*
X782320D02*
D03*
X670560Y403860D02*
D03*
X764540Y392430D02*
D03*
X681990Y478790D02*
D03*
X731559Y461063D02*
D03*
Y468683D02*
D03*
X739179Y461063D02*
D03*
Y468683D02*
D03*
Y476303D02*
D03*
X731559D02*
D03*
X791210Y392430D02*
D03*
X887730Y581660D02*
D03*
X979170Y543560D02*
D03*
X887730Y592170D02*
D03*
X985520Y638810D02*
D03*
X899160Y678180D02*
D03*
X881380Y685800D02*
D03*
X919431Y792511D02*
D03*
X775256Y905325D02*
D03*
X756206D02*
D03*
Y915485D02*
D03*
X765810Y905510D02*
D03*
Y915670D02*
D03*
X775256Y915485D02*
D03*
X985520Y647700D02*
D03*
X961390Y875030D02*
D03*
X964184Y883084D02*
D03*
X970280Y872490D02*
D03*
X1100136Y281048D02*
D03*
X1075690Y280670D02*
D03*
X1124267Y281048D02*
D03*
X1111566Y293748D02*
D03*
X1122757Y305865D02*
D03*
X1089660Y293370D02*
D03*
X1110231Y319622D02*
D03*
X1121661Y332322D02*
D03*
X1175843Y279245D02*
D03*
X1148397Y281048D02*
D03*
X1224103Y279245D02*
D03*
X1199973D02*
D03*
X1211403Y291945D02*
D03*
X1135696Y293748D02*
D03*
X1134361Y319622D02*
D03*
X1198610Y405421D02*
D03*
X1218930D02*
D03*
X1208770D02*
D03*
X1187201Y449586D02*
D03*
Y458476D02*
D03*
X1195960Y458089D02*
D03*
Y449199D02*
D03*
X1238489Y290143D02*
D03*
X1249680Y302260D02*
D03*
X1251189Y277443D02*
D03*
X1262619Y290143D02*
D03*
X1262675Y321291D02*
D03*
X1233465D02*
D03*
X1242060Y331470D02*
D03*
X1248705Y321291D02*
D03*
X1257300Y331470D02*
D03*
X1271270D02*
D03*
X1299449Y277443D02*
D03*
X1275319D02*
D03*
X1273810Y302260D02*
D03*
X1275375Y321291D02*
D03*
X1275844Y341595D02*
D03*
X1286749Y290143D02*
D03*
X1283970Y331470D02*
D03*
X1297940Y302260D02*
D03*
X1233934Y341595D02*
D03*
X1235340Y361431D02*
D03*
X1241119Y351747D02*
D03*
X1242060Y372110D02*
D03*
X1249174Y341595D02*
D03*
X1256359Y351747D02*
D03*
X1263144Y341595D02*
D03*
X1270329Y351747D02*
D03*
X1283029D02*
D03*
X1264550Y361431D02*
D03*
X1250580D02*
D03*
X1257300Y372110D02*
D03*
X1277250Y361431D02*
D03*
X1271270Y372110D02*
D03*
X1283970D02*
D03*
X1004570Y585470D02*
D03*
Y670560D02*
D03*
X1004640Y595645D02*
D03*
X1035085Y578232D02*
D03*
X991866Y823964D02*
D03*
X1021338Y775128D02*
D03*
X1187491Y467192D02*
D03*
X1195070Y797560D02*
D03*
X1195960Y466979D02*
D03*
X1262380Y759460D02*
D03*
X1165860Y857250D02*
D03*
X1156414Y857435D02*
D03*
X1175464D02*
D03*
X1165860Y867410D02*
D03*
X1156414Y867595D02*
D03*
X1175464D02*
D03*
X1241790Y439711D02*
D03*
X1227820Y496861D02*
D03*
X1268460Y423201D02*
D03*
X806450Y798830D02*
D03*
X1136650Y953770D02*
D03*
X727710Y993140D02*
D03*
X1170386Y952466D02*
D03*
X1261110Y509270D02*
D03*
X1280160D02*
D03*
X1270000Y490220D02*
D03*
X1287780D02*
D03*
X1287685Y528982D02*
D03*
X1269905D02*
D03*
X1055807Y280817D02*
D03*
X1033857D02*
D03*
X857250Y514350D02*
D03*
X871220D02*
D03*
X885190D02*
D03*
X900430D02*
D03*
X1267460Y600710D02*
D03*
X1296670Y640080D02*
D03*
X906780Y624840D02*
D03*
X938530Y566420D02*
D03*
X1027430Y628650D02*
D03*
X1037590D02*
D03*
X1192530Y786130D02*
D03*
X1073150Y628650D02*
D03*
X916825Y812182D02*
D03*
X867410Y615950D02*
D03*
X1021292Y759623D02*
D03*
X839470Y770890D02*
D03*
X920387Y760651D02*
D03*
X1198856Y311403D02*
D03*
X1189210Y311046D02*
D03*
X1181100Y311150D02*
D03*
X1184910Y303530D02*
D03*
X1173480Y312420D02*
D03*
X1177290Y303530D02*
D03*
X711200Y420370D02*
D03*
X694690Y405130D02*
D03*
X706120Y403860D02*
D03*
X707390Y375920D02*
D03*
Y391160D02*
D03*
X697230Y370840D02*
D03*
X681990Y394970D02*
D03*
Y386080D02*
D03*
X670560Y393700D02*
D03*
X681990Y377190D02*
D03*
X687070Y370840D02*
D03*
X670560Y384810D02*
D03*
Y375920D02*
D03*
X792480Y863600D02*
D03*
X995680Y660400D02*
D03*
X970280Y552450D02*
D03*
X994410Y557530D02*
D03*
X926224Y788740D02*
D03*
X1112520Y825500D02*
D03*
X1104900Y819150D02*
D03*
X937351Y807364D02*
D03*
X1019810Y708660D02*
D03*
X971550Y702310D02*
D03*
X896620Y807720D02*
D03*
Y857250D02*
D03*
X1009650Y721360D02*
D03*
X964470Y708660D02*
D03*
X1118870Y831850D02*
D03*
X916489Y782081D02*
D03*
X1004570Y881380D02*
D03*
X1002030Y867410D02*
D03*
X949960Y632460D02*
D03*
X946635Y551927D02*
D03*
X938530Y608330D02*
D03*
X1250950Y928370D02*
D03*
X656590Y838200D02*
D03*
X1143000Y374650D02*
D03*
X1153160D02*
D03*
X1163320D02*
D03*
X1173480D02*
D03*
X1182719Y381624D02*
D03*
X1190061Y381900D02*
D03*
X1197585Y381716D02*
D03*
X1205384Y381900D02*
D03*
X1029930Y651550D02*
D03*
X1019810Y651510D02*
D03*
X932180Y881380D02*
D03*
X926815Y862795D02*
D03*
X906796Y780982D02*
D03*
X914782Y856382D02*
D03*
X897890Y588010D02*
D03*
X1109980Y839470D02*
D03*
X857289Y463603D02*
D03*
X871259D02*
D03*
X885229D02*
D03*
X900469D02*
D03*
X857289Y476303D02*
D03*
X871259D02*
D03*
X885229D02*
D03*
X900469D02*
D03*
X857289Y489003D02*
D03*
X871259D02*
D03*
X885229D02*
D03*
X900469D02*
D03*
Y501703D02*
D03*
X885229D02*
D03*
X871259D02*
D03*
X857289D02*
D03*
D65*
X911860Y595630D02*
D03*
Y646430D02*
D03*
X949554Y723864D02*
D03*
X963930Y828040D02*
D03*
X991870Y572770D02*
D03*
X991010Y773430D02*
D03*
Y795430D02*
D03*
X980010D02*
D03*
X969010Y784430D02*
D03*
Y795430D02*
D03*
X958010D02*
D03*
Y784430D02*
D03*
X947010Y795430D02*
D03*
Y784430D02*
D03*
X991010D02*
D03*
X980010Y773430D02*
D03*
Y762430D02*
D03*
Y784430D02*
D03*
X969010Y773430D02*
D03*
Y762430D02*
D03*
X991010Y751430D02*
D03*
Y762430D02*
D03*
X969010Y751430D02*
D03*
X980010D02*
D03*
X958010Y762430D02*
D03*
Y773430D02*
D03*
X947010Y751430D02*
D03*
Y773430D02*
D03*
Y762430D02*
D03*
X958010Y751430D02*
D03*
X928370Y723900D02*
D03*
X1012190Y814070D02*
D03*
X1084580Y819150D02*
D03*
X957580Y699770D02*
D03*
X923290Y695960D02*
D03*
M02*
