ISO-10303-21;
HEADER;
/* Generated by software containing ST-Developer
 * from STEP Tools, Inc. (www.steptools.com) 
 */

FILE_DESCRIPTION(
/* description */ ('Open CASCADE Model'),
/* implementation_level */ '2;1');

FILE_NAME(
/* name */ 'housing_bot.step',
/* time_stamp */ '2026-09-18T12:45:37+02:00',
/* author */ (''),
/* organization */ (''),
/* preprocessor_version */ 'ST-DEVELOPER v20.2',
/* originating_system */ 'Autodesk Translation Framework v15.15.0.0',
/* authorisation */ '');

FILE_SCHEMA (('AUTOMOTIVE_DESIGN { 1 0 10303 214 3 1 1 }'));
ENDSEC;

DATA;
#10=MECHANICAL_DESIGN_GEOMETRIC_PRESENTATION_REPRESENTATION('',(#13),#1351);
#11=SHAPE_REPRESENTATION_RELATIONSHIP('SRR','None',#1357,#12);
#12=ADVANCED_BREP_SHAPE_REPRESENTATION('',(#14),#1350);
#13=STYLED_ITEM('',(#1366),#14);
#14=MANIFOLD_SOLID_BREP('bottom',#783);
#15=PLANE('',#807);
#16=PLANE('',#810);
#17=PLANE('',#811);
#18=PLANE('',#815);
#19=PLANE('',#816);
#20=PLANE('',#817);
#21=PLANE('',#819);
#22=PLANE('',#820);
#23=PLANE('',#821);
#24=PLANE('',#822);
#25=PLANE('',#827);
#26=PLANE('',#828);
#27=PLANE('',#836);
#28=PLANE('',#838);
#29=PLANE('',#839);
#30=PLANE('',#840);
#31=PLANE('',#844);
#32=PLANE('',#846);
#33=PLANE('',#847);
#34=PLANE('',#848);
#35=PLANE('',#849);
#36=PLANE('',#850);
#37=PLANE('',#853);
#38=PLANE('',#854);
#39=LINE('',#1121,#119);
#40=LINE('',#1125,#120);
#41=LINE('',#1145,#121);
#42=LINE('',#1146,#122);
#43=LINE('',#1165,#123);
#44=LINE('',#1166,#124);
#45=LINE('',#1168,#125);
#46=LINE('',#1169,#126);
#47=LINE('',#1172,#127);
#48=LINE('',#1175,#128);
#49=LINE('',#1178,#129);
#50=LINE('',#1179,#130);
#51=LINE('',#1182,#131);
#52=LINE('',#1186,#132);
#53=LINE('',#1187,#133);
#54=LINE('',#1194,#134);
#55=LINE('',#1197,#135);
#56=LINE('',#1201,#136);
#57=LINE('',#1203,#137);
#58=LINE('',#1205,#138);
#59=LINE('',#1206,#139);
#60=LINE('',#1209,#140);
#61=LINE('',#1211,#141);
#62=LINE('',#1213,#142);
#63=LINE('',#1215,#143);
#64=LINE('',#1217,#144);
#65=LINE('',#1218,#145);
#66=LINE('',#1220,#146);
#67=LINE('',#1221,#147);
#68=LINE('',#1224,#148);
#69=LINE('',#1226,#149);
#70=LINE('',#1227,#150);
#71=LINE('',#1229,#151);
#72=LINE('',#1231,#152);
#73=LINE('',#1234,#153);
#74=LINE('',#1236,#154);
#75=LINE('',#1238,#155);
#76=LINE('',#1239,#156);
#77=LINE('',#1243,#157);
#78=LINE('',#1245,#158);
#79=LINE('',#1247,#159);
#80=LINE('',#1248,#160);
#81=LINE('',#1250,#161);
#82=LINE('',#1251,#162);
#83=LINE('',#1255,#163);
#84=LINE('',#1257,#164);
#85=LINE('',#1259,#165);
#86=LINE('',#1260,#166);
#87=LINE('',#1262,#167);
#88=LINE('',#1264,#168);
#89=LINE('',#1266,#169);
#90=LINE('',#1270,#170);
#91=LINE('',#1274,#171);
#92=LINE('',#1278,#172);
#93=LINE('',#1281,#173);
#94=LINE('',#1284,#174);
#95=LINE('',#1285,#175);
#96=LINE('',#1289,#176);
#97=LINE('',#1291,#177);
#98=LINE('',#1295,#178);
#99=LINE('',#1299,#179);
#100=LINE('',#1303,#180);
#101=LINE('',#1307,#181);
#102=LINE('',#1308,#182);
#103=LINE('',#1310,#183);
#104=LINE('',#1311,#184);
#105=LINE('',#1313,#185);
#106=LINE('',#1315,#186);
#107=LINE('',#1317,#187);
#108=LINE('',#1320,#188);
#109=LINE('',#1324,#189);
#110=LINE('',#1325,#190);
#111=LINE('',#1327,#191);
#112=LINE('',#1332,#192);
#113=LINE('',#1333,#193);
#114=LINE('',#1335,#194);
#115=LINE('',#1339,#195);
#116=LINE('',#1340,#196);
#117=LINE('',#1343,#197);
#118=LINE('',#1346,#198);
#119=VECTOR('',#875,10.);
#120=VECTOR('',#878,10.);
#121=VECTOR('',#889,10.);
#122=VECTOR('',#890,10.);
#123=VECTOR('',#899,10.);
#124=VECTOR('',#900,10.);
#125=VECTOR('',#903,10.);
#126=VECTOR('',#904,10.);
#127=VECTOR('',#907,10.);
#128=VECTOR('',#910,10.);
#129=VECTOR('',#913,10.);
#130=VECTOR('',#914,10.);
#131=VECTOR('',#917,10.);
#132=VECTOR('',#922,10.);
#133=VECTOR('',#923,10.);
#134=VECTOR('',#930,10.);
#135=VECTOR('',#933,10.);
#136=VECTOR('',#936,10.);
#137=VECTOR('',#937,10.);
#138=VECTOR('',#938,10.);
#139=VECTOR('',#939,10.);
#140=VECTOR('',#942,10.);
#141=VECTOR('',#943,10.);
#142=VECTOR('',#944,10.);
#143=VECTOR('',#945,10.);
#144=VECTOR('',#946,10.);
#145=VECTOR('',#947,10.);
#146=VECTOR('',#948,10.);
#147=VECTOR('',#949,10.);
#148=VECTOR('',#952,10.);
#149=VECTOR('',#953,10.);
#150=VECTOR('',#954,10.);
#151=VECTOR('',#955,10.);
#152=VECTOR('',#956,10.);
#153=VECTOR('',#959,10.);
#154=VECTOR('',#960,10.);
#155=VECTOR('',#961,10.);
#156=VECTOR('',#962,10.);
#157=VECTOR('',#965,10.);
#158=VECTOR('',#966,10.);
#159=VECTOR('',#967,10.);
#160=VECTOR('',#968,10.);
#161=VECTOR('',#971,10.);
#162=VECTOR('',#972,10.);
#163=VECTOR('',#975,10.);
#164=VECTOR('',#976,10.);
#165=VECTOR('',#977,10.);
#166=VECTOR('',#978,10.);
#167=VECTOR('',#981,10.);
#168=VECTOR('',#982,10.);
#169=VECTOR('',#983,10.);
#170=VECTOR('',#986,10.);
#171=VECTOR('',#989,10.);
#172=VECTOR('',#992,10.);
#173=VECTOR('',#995,10.);
#174=VECTOR('',#998,10.);
#175=VECTOR('',#999,10.);
#176=VECTOR('',#1004,10.);
#177=VECTOR('',#1007,10.);
#178=VECTOR('',#1010,10.);
#179=VECTOR('',#1013,10.);
#180=VECTOR('',#1016,10.);
#181=VECTOR('',#1019,10.);
#182=VECTOR('',#1020,10.);
#183=VECTOR('',#1023,10.);
#184=VECTOR('',#1024,10.);
#185=VECTOR('',#1027,10.);
#186=VECTOR('',#1030,10.);
#187=VECTOR('',#1033,10.);
#188=VECTOR('',#1038,10.);
#189=VECTOR('',#1045,10.);
#190=VECTOR('',#1046,10.);
#191=VECTOR('',#1049,10.);
#192=VECTOR('',#1056,10.);
#193=VECTOR('',#1057,10.);
#194=VECTOR('',#1060,10.);
#195=VECTOR('',#1065,10.);
#196=VECTOR('',#1066,10.);
#197=VECTOR('',#1069,10.);
#198=VECTOR('',#1074,10.);
#199=CYLINDRICAL_SURFACE('',#793,0.8);
#200=CYLINDRICAL_SURFACE('',#799,0.8);
#201=CYLINDRICAL_SURFACE('',#803,0.8);
#202=CYLINDRICAL_SURFACE('',#804,0.8);
#203=CYLINDRICAL_SURFACE('',#805,4.2067658134736);
#204=CYLINDRICAL_SURFACE('',#808,4.00000005960464);
#205=CYLINDRICAL_SURFACE('',#812,4.61256435335468);
#206=CYLINDRICAL_SURFACE('',#835,3.05550478044938);
#207=CYLINDRICAL_SURFACE('',#837,3.04923064526108);
#208=CYLINDRICAL_SURFACE('',#841,4.28462998053519);
#209=CYLINDRICAL_SURFACE('',#842,4.68316504821221);
#210=CYLINDRICAL_SURFACE('',#843,3.04018816305979);
#211=CYLINDRICAL_SURFACE('',#845,2.82160583515266);
#212=CYLINDRICAL_SURFACE('',#851,4.61256435335468);
#213=FACE_OUTER_BOUND('',#255,.T.);
#214=FACE_OUTER_BOUND('',#256,.T.);
#215=FACE_OUTER_BOUND('',#257,.T.);
#216=FACE_OUTER_BOUND('',#258,.T.);
#217=FACE_OUTER_BOUND('',#259,.T.);
#218=FACE_OUTER_BOUND('',#260,.T.);
#219=FACE_OUTER_BOUND('',#261,.T.);
#220=FACE_OUTER_BOUND('',#262,.T.);
#221=FACE_OUTER_BOUND('',#263,.T.);
#222=FACE_OUTER_BOUND('',#264,.T.);
#223=FACE_OUTER_BOUND('',#265,.T.);
#224=FACE_OUTER_BOUND('',#266,.T.);
#225=FACE_OUTER_BOUND('',#267,.T.);
#226=FACE_OUTER_BOUND('',#268,.T.);
#227=FACE_OUTER_BOUND('',#269,.T.);
#228=FACE_OUTER_BOUND('',#270,.T.);
#229=FACE_OUTER_BOUND('',#271,.T.);
#230=FACE_OUTER_BOUND('',#272,.T.);
#231=FACE_OUTER_BOUND('',#273,.T.);
#232=FACE_OUTER_BOUND('',#274,.T.);
#233=FACE_OUTER_BOUND('',#275,.T.);
#234=FACE_OUTER_BOUND('',#276,.T.);
#235=FACE_OUTER_BOUND('',#277,.T.);
#236=FACE_OUTER_BOUND('',#278,.T.);
#237=FACE_OUTER_BOUND('',#279,.T.);
#238=FACE_OUTER_BOUND('',#280,.T.);
#239=FACE_OUTER_BOUND('',#281,.T.);
#240=FACE_OUTER_BOUND('',#282,.T.);
#241=FACE_OUTER_BOUND('',#283,.T.);
#242=FACE_OUTER_BOUND('',#284,.T.);
#243=FACE_OUTER_BOUND('',#285,.T.);
#244=FACE_OUTER_BOUND('',#286,.T.);
#245=FACE_OUTER_BOUND('',#287,.T.);
#246=FACE_OUTER_BOUND('',#288,.T.);
#247=FACE_OUTER_BOUND('',#289,.T.);
#248=FACE_OUTER_BOUND('',#290,.T.);
#249=FACE_OUTER_BOUND('',#291,.T.);
#250=FACE_OUTER_BOUND('',#292,.T.);
#251=FACE_OUTER_BOUND('',#293,.T.);
#252=FACE_OUTER_BOUND('',#294,.T.);
#253=FACE_OUTER_BOUND('',#295,.T.);
#254=FACE_OUTER_BOUND('',#296,.T.);
#255=EDGE_LOOP('',(#513,#514,#515,#516));
#256=EDGE_LOOP('',(#517,#518,#519,#520));
#257=EDGE_LOOP('',(#521,#522,#523,#524));
#258=EDGE_LOOP('',(#525,#526,#527,#528));
#259=EDGE_LOOP('',(#529,#530,#531,#532));
#260=EDGE_LOOP('',(#533,#534,#535,#536));
#261=EDGE_LOOP('',(#537,#538,#539,#540));
#262=EDGE_LOOP('',(#541,#542,#543,#544));
#263=EDGE_LOOP('',(#545,#546,#547,#548));
#264=EDGE_LOOP('',(#549,#550,#551,#552));
#265=EDGE_LOOP('',(#553,#554,#555,#556));
#266=EDGE_LOOP('',(#557,#558,#559,#560));
#267=EDGE_LOOP('',(#561,#562,#563,#564,#565,#566,#567,#568));
#268=EDGE_LOOP('',(#569,#570,#571,#572));
#269=EDGE_LOOP('',(#573,#574,#575,#576));
#270=EDGE_LOOP('',(#577,#578,#579,#580,#581,#582,#583,#584,#585,#586));
#271=EDGE_LOOP('',(#587,#588,#589,#590,#591,#592,#593,#594,#595,#596,#597,
#598,#599,#600));
#272=EDGE_LOOP('',(#601,#602,#603,#604));
#273=EDGE_LOOP('',(#605,#606,#607,#608,#609,#610));
#274=EDGE_LOOP('',(#611,#612,#613,#614));
#275=EDGE_LOOP('',(#615,#616,#617,#618,#619,#620,#621,#622,#623,#624,#625,
#626,#627,#628,#629));
#276=EDGE_LOOP('',(#630,#631,#632,#633));
#277=EDGE_LOOP('',(#634,#635,#636,#637,#638,#639,#640,#641,#642,#643,#644,
#645,#646,#647,#648,#649,#650,#651,#652,#653,#654,#655,#656));
#278=EDGE_LOOP('',(#657,#658,#659,#660));
#279=EDGE_LOOP('',(#661,#662,#663,#664));
#280=EDGE_LOOP('',(#665,#666,#667,#668));
#281=EDGE_LOOP('',(#669,#670,#671,#672));
#282=EDGE_LOOP('',(#673,#674,#675,#676));
#283=EDGE_LOOP('',(#677,#678,#679,#680));
#284=EDGE_LOOP('',(#681,#682,#683,#684));
#285=EDGE_LOOP('',(#685,#686,#687,#688));
#286=EDGE_LOOP('',(#689,#690,#691,#692));
#287=EDGE_LOOP('',(#693,#694,#695,#696));
#288=EDGE_LOOP('',(#697,#698,#699,#700));
#289=EDGE_LOOP('',(#701,#702,#703,#704));
#290=EDGE_LOOP('',(#705,#706,#707,#708,#709,#710,#711,#712));
#291=EDGE_LOOP('',(#713,#714,#715,#716));
#292=EDGE_LOOP('',(#717,#718,#719,#720));
#293=EDGE_LOOP('',(#721,#722,#723,#724));
#294=EDGE_LOOP('',(#725,#726,#727,#728));
#295=EDGE_LOOP('',(#729,#730,#731,#732));
#296=EDGE_LOOP('',(#733,#734,#735,#736));
#297=B_SPLINE_CURVE_WITH_KNOTS('',3,(#1086,#1087,#1088,#1089,#1090,#1091,
#1092,#1093,#1094,#1095,#1096,#1097),.UNSPECIFIED.,.F.,.F.,(4,2,2,2,2,4),
(-0.000700273325772445,0.,0.031682655882418,0.0629513471970878,0.0941928429708904,
0.125421341509925),.UNSPECIFIED.);
#298=B_SPLINE_CURVE_WITH_KNOTS('',3,(#1106,#1107,#1108,#1109,#1110,#1111,
#1112,#1113,#1114,#1115,#1116,#1117),.UNSPECIFIED.,.F.,.F.,(4,2,2,2,2,4),
(-0.251431468759952,-0.250662650308416,-0.219075372951229,-0.187812445211839,
-0.156567574160063,-0.125331325154004),.UNSPECIFIED.);
#299=B_SPLINE_CURVE_WITH_KNOTS('',3,(#1126,#1127,#1128,#1129,#1130,#1131,
#1132,#1133,#1134,#1135,#1136,#1137),.UNSPECIFIED.,.F.,.F.,(4,2,2,2,2,4),
(-0.000618309539705492,0.,0.0318083528147257,0.0630868030535152,0.0943226920987192,
0.125538141273321),.UNSPECIFIED.);
#300=B_SPLINE_CURVE_WITH_KNOTS('',3,(#1152,#1153,#1154,#1155,#1156,#1157,
#1158,#1159,#1160,#1161,#1162,#1163),.UNSPECIFIED.,.F.,.F.,(4,2,2,2,2,4),
(-0.000681545114282367,0.,0.0316963186209217,0.0629640929410152,0.0942062151494463,
0.125436011319777),.UNSPECIFIED.);
#301=CIRCLE('',#786,4.28462998053519);
#302=CIRCLE('',#787,0.800000000000001);
#303=CIRCLE('',#788,3.48462998053519);
#304=CIRCLE('',#790,4.2067658134736);
#305=CIRCLE('',#791,0.800000000000005);
#306=CIRCLE('',#792,3.4067658134736);
#307=CIRCLE('',#794,0.800000000000001);
#308=CIRCLE('',#796,0.800000000000001);
#309=CIRCLE('',#797,3.20000005960464);
#310=CIRCLE('',#798,4.00000005960464);
#311=CIRCLE('',#801,4.68316504821221);
#312=CIRCLE('',#802,3.88316504821221);
#313=CIRCLE('',#806,4.2067658134736);
#314=CIRCLE('',#809,4.00000005960464);
#315=CIRCLE('',#813,4.61256435335468);
#316=CIRCLE('',#814,4.61256435335468);
#317=CIRCLE('',#818,4.61256435335468);
#318=CIRCLE('',#823,3.04923064526108);
#319=CIRCLE('',#824,3.05550478044938);
#320=CIRCLE('',#825,3.04018816305979);
#321=CIRCLE('',#826,2.82160583515266);
#322=CIRCLE('',#829,4.28462998053519);
#323=CIRCLE('',#830,4.68316504821221);
#324=CIRCLE('',#831,2.82160583515266);
#325=CIRCLE('',#832,3.04018816305979);
#326=CIRCLE('',#833,3.05550478044938);
#327=CIRCLE('',#834,3.04923064526108);
#328=CIRCLE('',#852,4.61256435335468);
#329=VERTEX_POINT('',#1079);
#330=VERTEX_POINT('',#1080);
#331=VERTEX_POINT('',#1082);
#332=VERTEX_POINT('',#1084);
#333=VERTEX_POINT('',#1099);
#334=VERTEX_POINT('',#1100);
#335=VERTEX_POINT('',#1102);
#336=VERTEX_POINT('',#1104);
#337=VERTEX_POINT('',#1119);
#338=VERTEX_POINT('',#1120);
#339=VERTEX_POINT('',#1122);
#340=VERTEX_POINT('',#1124);
#341=VERTEX_POINT('',#1139);
#342=VERTEX_POINT('',#1140);
#343=VERTEX_POINT('',#1148);
#344=VERTEX_POINT('',#1150);
#345=VERTEX_POINT('',#1171);
#346=VERTEX_POINT('',#1173);
#347=VERTEX_POINT('',#1177);
#348=VERTEX_POINT('',#1181);
#349=VERTEX_POINT('',#1185);
#350=VERTEX_POINT('',#1190);
#351=VERTEX_POINT('',#1191);
#352=VERTEX_POINT('',#1193);
#353=VERTEX_POINT('',#1195);
#354=VERTEX_POINT('',#1199);
#355=VERTEX_POINT('',#1200);
#356=VERTEX_POINT('',#1202);
#357=VERTEX_POINT('',#1204);
#358=VERTEX_POINT('',#1208);
#359=VERTEX_POINT('',#1210);
#360=VERTEX_POINT('',#1212);
#361=VERTEX_POINT('',#1214);
#362=VERTEX_POINT('',#1216);
#363=VERTEX_POINT('',#1219);
#364=VERTEX_POINT('',#1223);
#365=VERTEX_POINT('',#1225);
#366=VERTEX_POINT('',#1228);
#367=VERTEX_POINT('',#1230);
#368=VERTEX_POINT('',#1233);
#369=VERTEX_POINT('',#1235);
#370=VERTEX_POINT('',#1237);
#371=VERTEX_POINT('',#1241);
#372=VERTEX_POINT('',#1242);
#373=VERTEX_POINT('',#1244);
#374=VERTEX_POINT('',#1246);
#375=VERTEX_POINT('',#1253);
#376=VERTEX_POINT('',#1254);
#377=VERTEX_POINT('',#1256);
#378=VERTEX_POINT('',#1258);
#379=VERTEX_POINT('',#1263);
#380=VERTEX_POINT('',#1265);
#381=VERTEX_POINT('',#1267);
#382=VERTEX_POINT('',#1269);
#383=VERTEX_POINT('',#1271);
#384=VERTEX_POINT('',#1273);
#385=VERTEX_POINT('',#1275);
#386=VERTEX_POINT('',#1277);
#387=VERTEX_POINT('',#1279);
#388=VERTEX_POINT('',#1283);
#389=VERTEX_POINT('',#1287);
#390=VERTEX_POINT('',#1292);
#391=VERTEX_POINT('',#1294);
#392=VERTEX_POINT('',#1296);
#393=VERTEX_POINT('',#1298);
#394=VERTEX_POINT('',#1300);
#395=VERTEX_POINT('',#1302);
#396=VERTEX_POINT('',#1304);
#397=VERTEX_POINT('',#1306);
#398=VERTEX_POINT('',#1331);
#399=VERTEX_POINT('',#1338);
#400=VERTEX_POINT('',#1342);
#401=EDGE_CURVE('',#329,#330,#301,.T.);
#402=EDGE_CURVE('',#330,#331,#302,.T.);
#403=EDGE_CURVE('',#331,#332,#303,.T.);
#404=EDGE_CURVE('',#332,#329,#297,.T.);
#405=EDGE_CURVE('',#333,#334,#304,.T.);
#406=EDGE_CURVE('',#334,#335,#305,.T.);
#407=EDGE_CURVE('',#335,#336,#306,.T.);
#408=EDGE_CURVE('',#336,#333,#298,.T.);
#409=EDGE_CURVE('',#337,#338,#39,.T.);
#410=EDGE_CURVE('',#338,#339,#307,.T.);
#411=EDGE_CURVE('',#339,#340,#40,.T.);
#412=EDGE_CURVE('',#340,#337,#299,.T.);
#413=EDGE_CURVE('',#341,#342,#308,.T.);
#414=EDGE_CURVE('',#342,#339,#309,.T.);
#415=EDGE_CURVE('',#338,#341,#310,.T.);
#416=EDGE_CURVE('',#336,#342,#41,.T.);
#417=EDGE_CURVE('',#341,#333,#42,.T.);
#418=EDGE_CURVE('',#343,#337,#311,.T.);
#419=EDGE_CURVE('',#340,#344,#312,.T.);
#420=EDGE_CURVE('',#344,#343,#300,.T.);
#421=EDGE_CURVE('',#332,#335,#43,.T.);
#422=EDGE_CURVE('',#334,#329,#44,.T.);
#423=EDGE_CURVE('',#344,#331,#45,.T.);
#424=EDGE_CURVE('',#330,#343,#46,.T.);
#425=EDGE_CURVE('',#345,#333,#47,.T.);
#426=EDGE_CURVE('',#345,#346,#313,.T.);
#427=EDGE_CURVE('',#346,#334,#48,.T.);
#428=EDGE_CURVE('',#347,#341,#49,.T.);
#429=EDGE_CURVE('',#347,#345,#50,.T.);
#430=EDGE_CURVE('',#348,#338,#51,.T.);
#431=EDGE_CURVE('',#348,#347,#314,.T.);
#432=EDGE_CURVE('',#349,#337,#52,.T.);
#433=EDGE_CURVE('',#349,#348,#53,.T.);
#434=EDGE_CURVE('',#350,#351,#315,.T.);
#435=EDGE_CURVE('',#351,#352,#54,.T.);
#436=EDGE_CURVE('',#353,#352,#316,.T.);
#437=EDGE_CURVE('',#350,#353,#55,.F.);
#438=EDGE_CURVE('',#354,#355,#56,.T.);
#439=EDGE_CURVE('',#356,#355,#57,.T.);
#440=EDGE_CURVE('',#356,#357,#58,.T.);
#441=EDGE_CURVE('',#357,#354,#59,.T.);
#442=EDGE_CURVE('',#351,#358,#60,.T.);
#443=EDGE_CURVE('',#359,#358,#61,.F.);
#444=EDGE_CURVE('',#360,#359,#62,.T.);
#445=EDGE_CURVE('',#360,#361,#63,.F.);
#446=EDGE_CURVE('',#361,#362,#64,.T.);
#447=EDGE_CURVE('',#362,#356,#65,.F.);
#448=EDGE_CURVE('',#355,#363,#66,.T.);
#449=EDGE_CURVE('',#352,#363,#67,.F.);
#450=EDGE_CURVE('',#364,#330,#68,.T.);
#451=EDGE_CURVE('',#364,#365,#69,.T.);
#452=EDGE_CURVE('',#365,#362,#70,.T.);
#453=EDGE_CURVE('',#361,#366,#71,.T.);
#454=EDGE_CURVE('',#366,#367,#72,.T.);
#455=EDGE_CURVE('',#367,#358,#317,.T.);
#456=EDGE_CURVE('',#350,#368,#73,.T.);
#457=EDGE_CURVE('',#368,#369,#74,.T.);
#458=EDGE_CURVE('',#369,#370,#75,.T.);
#459=EDGE_CURVE('',#370,#343,#76,.T.);
#460=EDGE_CURVE('',#371,#372,#77,.T.);
#461=EDGE_CURVE('',#373,#371,#78,.T.);
#462=EDGE_CURVE('',#373,#374,#79,.T.);
#463=EDGE_CURVE('',#372,#374,#80,.T.);
#464=EDGE_CURVE('',#374,#365,#81,.T.);
#465=EDGE_CURVE('',#357,#373,#82,.T.);
#466=EDGE_CURVE('',#375,#376,#83,.T.);
#467=EDGE_CURVE('',#375,#377,#84,.T.);
#468=EDGE_CURVE('',#377,#378,#85,.T.);
#469=EDGE_CURVE('',#376,#378,#86,.T.);
#470=EDGE_CURVE('',#378,#354,#87,.T.);
#471=EDGE_CURVE('',#379,#371,#88,.T.);
#472=EDGE_CURVE('',#380,#379,#89,.T.);
#473=EDGE_CURVE('',#381,#380,#318,.T.);
#474=EDGE_CURVE('',#382,#381,#90,.T.);
#475=EDGE_CURVE('',#383,#382,#319,.T.);
#476=EDGE_CURVE('',#384,#383,#91,.T.);
#477=EDGE_CURVE('',#385,#384,#320,.T.);
#478=EDGE_CURVE('',#386,#385,#92,.T.);
#479=EDGE_CURVE('',#387,#386,#321,.T.);
#480=EDGE_CURVE('',#376,#387,#93,.T.);
#481=EDGE_CURVE('',#387,#388,#94,.T.);
#482=EDGE_CURVE('',#375,#388,#95,.T.);
#483=EDGE_CURVE('',#389,#364,#322,.T.);
#484=EDGE_CURVE('',#346,#389,#96,.T.);
#485=EDGE_CURVE('',#370,#349,#323,.T.);
#486=EDGE_CURVE('',#369,#377,#97,.T.);
#487=EDGE_CURVE('',#388,#390,#324,.T.);
#488=EDGE_CURVE('',#390,#391,#98,.T.);
#489=EDGE_CURVE('',#391,#392,#325,.T.);
#490=EDGE_CURVE('',#392,#393,#99,.T.);
#491=EDGE_CURVE('',#393,#394,#326,.T.);
#492=EDGE_CURVE('',#394,#395,#100,.T.);
#493=EDGE_CURVE('',#395,#396,#327,.T.);
#494=EDGE_CURVE('',#396,#397,#101,.T.);
#495=EDGE_CURVE('',#397,#372,#102,.T.);
#496=EDGE_CURVE('',#382,#394,#103,.F.);
#497=EDGE_CURVE('',#383,#393,#104,.F.);
#498=EDGE_CURVE('',#381,#395,#105,.T.);
#499=EDGE_CURVE('',#380,#396,#106,.T.);
#500=EDGE_CURVE('',#379,#397,#107,.F.);
#501=EDGE_CURVE('',#389,#329,#108,.T.);
#502=EDGE_CURVE('',#384,#392,#109,.T.);
#503=EDGE_CURVE('',#385,#391,#110,.F.);
#504=EDGE_CURVE('',#386,#390,#111,.F.);
#505=EDGE_CURVE('',#368,#398,#112,.T.);
#506=EDGE_CURVE('',#363,#398,#113,.T.);
#507=EDGE_CURVE('',#398,#353,#114,.T.);
#508=EDGE_CURVE('',#399,#360,#115,.T.);
#509=EDGE_CURVE('',#399,#366,#116,.T.);
#510=EDGE_CURVE('',#400,#367,#117,.F.);
#511=EDGE_CURVE('',#400,#359,#328,.T.);
#512=EDGE_CURVE('',#400,#399,#118,.T.);
#513=ORIENTED_EDGE('',*,*,#401,.T.);
#514=ORIENTED_EDGE('',*,*,#402,.T.);
#515=ORIENTED_EDGE('',*,*,#403,.T.);
#516=ORIENTED_EDGE('',*,*,#404,.T.);
#517=ORIENTED_EDGE('',*,*,#405,.T.);
#518=ORIENTED_EDGE('',*,*,#406,.T.);
#519=ORIENTED_EDGE('',*,*,#407,.T.);
#520=ORIENTED_EDGE('',*,*,#408,.T.);
#521=ORIENTED_EDGE('',*,*,#409,.T.);
#522=ORIENTED_EDGE('',*,*,#410,.T.);
#523=ORIENTED_EDGE('',*,*,#411,.T.);
#524=ORIENTED_EDGE('',*,*,#412,.T.);
#525=ORIENTED_EDGE('',*,*,#413,.T.);
#526=ORIENTED_EDGE('',*,*,#414,.T.);
#527=ORIENTED_EDGE('',*,*,#410,.F.);
#528=ORIENTED_EDGE('',*,*,#415,.T.);
#529=ORIENTED_EDGE('',*,*,#416,.T.);
#530=ORIENTED_EDGE('',*,*,#413,.F.);
#531=ORIENTED_EDGE('',*,*,#417,.T.);
#532=ORIENTED_EDGE('',*,*,#408,.F.);
#533=ORIENTED_EDGE('',*,*,#418,.T.);
#534=ORIENTED_EDGE('',*,*,#412,.F.);
#535=ORIENTED_EDGE('',*,*,#419,.T.);
#536=ORIENTED_EDGE('',*,*,#420,.T.);
#537=ORIENTED_EDGE('',*,*,#421,.T.);
#538=ORIENTED_EDGE('',*,*,#406,.F.);
#539=ORIENTED_EDGE('',*,*,#422,.T.);
#540=ORIENTED_EDGE('',*,*,#404,.F.);
#541=ORIENTED_EDGE('',*,*,#423,.T.);
#542=ORIENTED_EDGE('',*,*,#402,.F.);
#543=ORIENTED_EDGE('',*,*,#424,.T.);
#544=ORIENTED_EDGE('',*,*,#420,.F.);
#545=ORIENTED_EDGE('',*,*,#405,.F.);
#546=ORIENTED_EDGE('',*,*,#425,.F.);
#547=ORIENTED_EDGE('',*,*,#426,.T.);
#548=ORIENTED_EDGE('',*,*,#427,.T.);
#549=ORIENTED_EDGE('',*,*,#417,.F.);
#550=ORIENTED_EDGE('',*,*,#428,.F.);
#551=ORIENTED_EDGE('',*,*,#429,.T.);
#552=ORIENTED_EDGE('',*,*,#425,.T.);
#553=ORIENTED_EDGE('',*,*,#415,.F.);
#554=ORIENTED_EDGE('',*,*,#430,.F.);
#555=ORIENTED_EDGE('',*,*,#431,.T.);
#556=ORIENTED_EDGE('',*,*,#428,.T.);
#557=ORIENTED_EDGE('',*,*,#409,.F.);
#558=ORIENTED_EDGE('',*,*,#432,.F.);
#559=ORIENTED_EDGE('',*,*,#433,.T.);
#560=ORIENTED_EDGE('',*,*,#430,.T.);
#561=ORIENTED_EDGE('',*,*,#411,.F.);
#562=ORIENTED_EDGE('',*,*,#414,.F.);
#563=ORIENTED_EDGE('',*,*,#416,.F.);
#564=ORIENTED_EDGE('',*,*,#407,.F.);
#565=ORIENTED_EDGE('',*,*,#421,.F.);
#566=ORIENTED_EDGE('',*,*,#403,.F.);
#567=ORIENTED_EDGE('',*,*,#423,.F.);
#568=ORIENTED_EDGE('',*,*,#419,.F.);
#569=ORIENTED_EDGE('',*,*,#434,.T.);
#570=ORIENTED_EDGE('',*,*,#435,.T.);
#571=ORIENTED_EDGE('',*,*,#436,.F.);
#572=ORIENTED_EDGE('',*,*,#437,.F.);
#573=ORIENTED_EDGE('',*,*,#438,.T.);
#574=ORIENTED_EDGE('',*,*,#439,.F.);
#575=ORIENTED_EDGE('',*,*,#440,.T.);
#576=ORIENTED_EDGE('',*,*,#441,.T.);
#577=ORIENTED_EDGE('',*,*,#442,.T.);
#578=ORIENTED_EDGE('',*,*,#443,.F.);
#579=ORIENTED_EDGE('',*,*,#444,.F.);
#580=ORIENTED_EDGE('',*,*,#445,.T.);
#581=ORIENTED_EDGE('',*,*,#446,.T.);
#582=ORIENTED_EDGE('',*,*,#447,.T.);
#583=ORIENTED_EDGE('',*,*,#439,.T.);
#584=ORIENTED_EDGE('',*,*,#448,.T.);
#585=ORIENTED_EDGE('',*,*,#449,.F.);
#586=ORIENTED_EDGE('',*,*,#435,.F.);
#587=ORIENTED_EDGE('',*,*,#424,.F.);
#588=ORIENTED_EDGE('',*,*,#450,.F.);
#589=ORIENTED_EDGE('',*,*,#451,.T.);
#590=ORIENTED_EDGE('',*,*,#452,.T.);
#591=ORIENTED_EDGE('',*,*,#446,.F.);
#592=ORIENTED_EDGE('',*,*,#453,.T.);
#593=ORIENTED_EDGE('',*,*,#454,.T.);
#594=ORIENTED_EDGE('',*,*,#455,.T.);
#595=ORIENTED_EDGE('',*,*,#442,.F.);
#596=ORIENTED_EDGE('',*,*,#434,.F.);
#597=ORIENTED_EDGE('',*,*,#456,.T.);
#598=ORIENTED_EDGE('',*,*,#457,.T.);
#599=ORIENTED_EDGE('',*,*,#458,.T.);
#600=ORIENTED_EDGE('',*,*,#459,.T.);
#601=ORIENTED_EDGE('',*,*,#460,.F.);
#602=ORIENTED_EDGE('',*,*,#461,.F.);
#603=ORIENTED_EDGE('',*,*,#462,.T.);
#604=ORIENTED_EDGE('',*,*,#463,.F.);
#605=ORIENTED_EDGE('',*,*,#452,.F.);
#606=ORIENTED_EDGE('',*,*,#464,.F.);
#607=ORIENTED_EDGE('',*,*,#462,.F.);
#608=ORIENTED_EDGE('',*,*,#465,.F.);
#609=ORIENTED_EDGE('',*,*,#440,.F.);
#610=ORIENTED_EDGE('',*,*,#447,.F.);
#611=ORIENTED_EDGE('',*,*,#466,.F.);
#612=ORIENTED_EDGE('',*,*,#467,.T.);
#613=ORIENTED_EDGE('',*,*,#468,.T.);
#614=ORIENTED_EDGE('',*,*,#469,.F.);
#615=ORIENTED_EDGE('',*,*,#470,.T.);
#616=ORIENTED_EDGE('',*,*,#441,.F.);
#617=ORIENTED_EDGE('',*,*,#465,.T.);
#618=ORIENTED_EDGE('',*,*,#461,.T.);
#619=ORIENTED_EDGE('',*,*,#471,.F.);
#620=ORIENTED_EDGE('',*,*,#472,.F.);
#621=ORIENTED_EDGE('',*,*,#473,.F.);
#622=ORIENTED_EDGE('',*,*,#474,.F.);
#623=ORIENTED_EDGE('',*,*,#475,.F.);
#624=ORIENTED_EDGE('',*,*,#476,.F.);
#625=ORIENTED_EDGE('',*,*,#477,.F.);
#626=ORIENTED_EDGE('',*,*,#478,.F.);
#627=ORIENTED_EDGE('',*,*,#479,.F.);
#628=ORIENTED_EDGE('',*,*,#480,.F.);
#629=ORIENTED_EDGE('',*,*,#469,.T.);
#630=ORIENTED_EDGE('',*,*,#466,.T.);
#631=ORIENTED_EDGE('',*,*,#480,.T.);
#632=ORIENTED_EDGE('',*,*,#481,.T.);
#633=ORIENTED_EDGE('',*,*,#482,.F.);
#634=ORIENTED_EDGE('',*,*,#451,.F.);
#635=ORIENTED_EDGE('',*,*,#483,.F.);
#636=ORIENTED_EDGE('',*,*,#484,.F.);
#637=ORIENTED_EDGE('',*,*,#426,.F.);
#638=ORIENTED_EDGE('',*,*,#429,.F.);
#639=ORIENTED_EDGE('',*,*,#431,.F.);
#640=ORIENTED_EDGE('',*,*,#433,.F.);
#641=ORIENTED_EDGE('',*,*,#485,.F.);
#642=ORIENTED_EDGE('',*,*,#458,.F.);
#643=ORIENTED_EDGE('',*,*,#486,.T.);
#644=ORIENTED_EDGE('',*,*,#467,.F.);
#645=ORIENTED_EDGE('',*,*,#482,.T.);
#646=ORIENTED_EDGE('',*,*,#487,.T.);
#647=ORIENTED_EDGE('',*,*,#488,.T.);
#648=ORIENTED_EDGE('',*,*,#489,.T.);
#649=ORIENTED_EDGE('',*,*,#490,.T.);
#650=ORIENTED_EDGE('',*,*,#491,.T.);
#651=ORIENTED_EDGE('',*,*,#492,.T.);
#652=ORIENTED_EDGE('',*,*,#493,.T.);
#653=ORIENTED_EDGE('',*,*,#494,.T.);
#654=ORIENTED_EDGE('',*,*,#495,.T.);
#655=ORIENTED_EDGE('',*,*,#463,.T.);
#656=ORIENTED_EDGE('',*,*,#464,.T.);
#657=ORIENTED_EDGE('',*,*,#475,.T.);
#658=ORIENTED_EDGE('',*,*,#496,.T.);
#659=ORIENTED_EDGE('',*,*,#491,.F.);
#660=ORIENTED_EDGE('',*,*,#497,.F.);
#661=ORIENTED_EDGE('',*,*,#474,.T.);
#662=ORIENTED_EDGE('',*,*,#498,.T.);
#663=ORIENTED_EDGE('',*,*,#492,.F.);
#664=ORIENTED_EDGE('',*,*,#496,.F.);
#665=ORIENTED_EDGE('',*,*,#473,.T.);
#666=ORIENTED_EDGE('',*,*,#499,.T.);
#667=ORIENTED_EDGE('',*,*,#493,.F.);
#668=ORIENTED_EDGE('',*,*,#498,.F.);
#669=ORIENTED_EDGE('',*,*,#472,.T.);
#670=ORIENTED_EDGE('',*,*,#500,.T.);
#671=ORIENTED_EDGE('',*,*,#494,.F.);
#672=ORIENTED_EDGE('',*,*,#499,.F.);
#673=ORIENTED_EDGE('',*,*,#460,.T.);
#674=ORIENTED_EDGE('',*,*,#495,.F.);
#675=ORIENTED_EDGE('',*,*,#500,.F.);
#676=ORIENTED_EDGE('',*,*,#471,.T.);
#677=ORIENTED_EDGE('',*,*,#422,.F.);
#678=ORIENTED_EDGE('',*,*,#427,.F.);
#679=ORIENTED_EDGE('',*,*,#484,.T.);
#680=ORIENTED_EDGE('',*,*,#501,.T.);
#681=ORIENTED_EDGE('',*,*,#401,.F.);
#682=ORIENTED_EDGE('',*,*,#501,.F.);
#683=ORIENTED_EDGE('',*,*,#483,.T.);
#684=ORIENTED_EDGE('',*,*,#450,.T.);
#685=ORIENTED_EDGE('',*,*,#418,.F.);
#686=ORIENTED_EDGE('',*,*,#459,.F.);
#687=ORIENTED_EDGE('',*,*,#485,.T.);
#688=ORIENTED_EDGE('',*,*,#432,.T.);
#689=ORIENTED_EDGE('',*,*,#477,.T.);
#690=ORIENTED_EDGE('',*,*,#502,.T.);
#691=ORIENTED_EDGE('',*,*,#489,.F.);
#692=ORIENTED_EDGE('',*,*,#503,.F.);
#693=ORIENTED_EDGE('',*,*,#478,.T.);
#694=ORIENTED_EDGE('',*,*,#503,.T.);
#695=ORIENTED_EDGE('',*,*,#488,.F.);
#696=ORIENTED_EDGE('',*,*,#504,.F.);
#697=ORIENTED_EDGE('',*,*,#479,.T.);
#698=ORIENTED_EDGE('',*,*,#504,.T.);
#699=ORIENTED_EDGE('',*,*,#487,.F.);
#700=ORIENTED_EDGE('',*,*,#481,.F.);
#701=ORIENTED_EDGE('',*,*,#476,.T.);
#702=ORIENTED_EDGE('',*,*,#497,.T.);
#703=ORIENTED_EDGE('',*,*,#490,.F.);
#704=ORIENTED_EDGE('',*,*,#502,.F.);
#705=ORIENTED_EDGE('',*,*,#457,.F.);
#706=ORIENTED_EDGE('',*,*,#505,.T.);
#707=ORIENTED_EDGE('',*,*,#506,.F.);
#708=ORIENTED_EDGE('',*,*,#448,.F.);
#709=ORIENTED_EDGE('',*,*,#438,.F.);
#710=ORIENTED_EDGE('',*,*,#470,.F.);
#711=ORIENTED_EDGE('',*,*,#468,.F.);
#712=ORIENTED_EDGE('',*,*,#486,.F.);
#713=ORIENTED_EDGE('',*,*,#456,.F.);
#714=ORIENTED_EDGE('',*,*,#437,.T.);
#715=ORIENTED_EDGE('',*,*,#507,.F.);
#716=ORIENTED_EDGE('',*,*,#505,.F.);
#717=ORIENTED_EDGE('',*,*,#507,.T.);
#718=ORIENTED_EDGE('',*,*,#436,.T.);
#719=ORIENTED_EDGE('',*,*,#449,.T.);
#720=ORIENTED_EDGE('',*,*,#506,.T.);
#721=ORIENTED_EDGE('',*,*,#508,.F.);
#722=ORIENTED_EDGE('',*,*,#509,.T.);
#723=ORIENTED_EDGE('',*,*,#453,.F.);
#724=ORIENTED_EDGE('',*,*,#445,.F.);
#725=ORIENTED_EDGE('',*,*,#455,.F.);
#726=ORIENTED_EDGE('',*,*,#510,.F.);
#727=ORIENTED_EDGE('',*,*,#511,.T.);
#728=ORIENTED_EDGE('',*,*,#443,.T.);
#729=ORIENTED_EDGE('',*,*,#512,.F.);
#730=ORIENTED_EDGE('',*,*,#510,.T.);
#731=ORIENTED_EDGE('',*,*,#454,.F.);
#732=ORIENTED_EDGE('',*,*,#509,.F.);
#733=ORIENTED_EDGE('',*,*,#512,.T.);
#734=ORIENTED_EDGE('',*,*,#508,.T.);
#735=ORIENTED_EDGE('',*,*,#444,.T.);
#736=ORIENTED_EDGE('',*,*,#511,.F.);
#737=TOROIDAL_SURFACE('',#785,3.48462998053519,0.8);
#738=TOROIDAL_SURFACE('',#789,3.4067658134736,0.8);
#739=TOROIDAL_SURFACE('',#795,3.20000005960464,0.8);
#740=TOROIDAL_SURFACE('',#800,3.88316504821221,0.8);
#741=ADVANCED_FACE('',(#213),#737,.T.);
#742=ADVANCED_FACE('',(#214),#738,.T.);
#743=ADVANCED_FACE('',(#215),#199,.T.);
#744=ADVANCED_FACE('',(#216),#739,.T.);
#745=ADVANCED_FACE('',(#217),#200,.T.);
#746=ADVANCED_FACE('',(#218),#740,.T.);
#747=ADVANCED_FACE('',(#219),#201,.T.);
#748=ADVANCED_FACE('',(#220),#202,.T.);
#749=ADVANCED_FACE('',(#221),#203,.T.);
#750=ADVANCED_FACE('',(#222),#15,.T.);
#751=ADVANCED_FACE('',(#223),#204,.T.);
#752=ADVANCED_FACE('',(#224),#16,.T.);
#753=ADVANCED_FACE('',(#225),#17,.F.);
#754=ADVANCED_FACE('',(#226),#205,.F.);
#755=ADVANCED_FACE('',(#227),#18,.T.);
#756=ADVANCED_FACE('',(#228),#19,.T.);
#757=ADVANCED_FACE('',(#229),#20,.T.);
#758=ADVANCED_FACE('',(#230),#21,.F.);
#759=ADVANCED_FACE('',(#231),#22,.F.);
#760=ADVANCED_FACE('',(#232),#23,.F.);
#761=ADVANCED_FACE('',(#233),#24,.T.);
#762=ADVANCED_FACE('',(#234),#25,.T.);
#763=ADVANCED_FACE('',(#235),#26,.T.);
#764=ADVANCED_FACE('',(#236),#206,.T.);
#765=ADVANCED_FACE('',(#237),#27,.T.);
#766=ADVANCED_FACE('',(#238),#207,.T.);
#767=ADVANCED_FACE('',(#239),#28,.T.);
#768=ADVANCED_FACE('',(#240),#29,.T.);
#769=ADVANCED_FACE('',(#241),#30,.T.);
#770=ADVANCED_FACE('',(#242),#208,.T.);
#771=ADVANCED_FACE('',(#243),#209,.T.);
#772=ADVANCED_FACE('',(#244),#210,.T.);
#773=ADVANCED_FACE('',(#245),#31,.T.);
#774=ADVANCED_FACE('',(#246),#211,.T.);
#775=ADVANCED_FACE('',(#247),#32,.T.);
#776=ADVANCED_FACE('',(#248),#33,.T.);
#777=ADVANCED_FACE('',(#249),#34,.T.);
#778=ADVANCED_FACE('',(#250),#35,.F.);
#779=ADVANCED_FACE('',(#251),#36,.T.);
#780=ADVANCED_FACE('',(#252),#212,.F.);
#781=ADVANCED_FACE('',(#253),#37,.T.);
#782=ADVANCED_FACE('',(#254),#38,.T.);
#783=CLOSED_SHELL('',(#741,#742,#743,#744,#745,#746,#747,#748,#749,#750,
#751,#752,#753,#754,#755,#756,#757,#758,#759,#760,#761,#762,#763,#764,#765,
#766,#767,#768,#769,#770,#771,#772,#773,#774,#775,#776,#777,#778,#779,#780,
#781,#782));
#784=AXIS2_PLACEMENT_3D('',#1077,#855,#856);
#785=AXIS2_PLACEMENT_3D('',#1078,#857,#858);
#786=AXIS2_PLACEMENT_3D('',#1081,#859,#860);
#787=AXIS2_PLACEMENT_3D('',#1083,#861,#862);
#788=AXIS2_PLACEMENT_3D('',#1085,#863,#864);
#789=AXIS2_PLACEMENT_3D('',#1098,#865,#866);
#790=AXIS2_PLACEMENT_3D('',#1101,#867,#868);
#791=AXIS2_PLACEMENT_3D('',#1103,#869,#870);
#792=AXIS2_PLACEMENT_3D('',#1105,#871,#872);
#793=AXIS2_PLACEMENT_3D('',#1118,#873,#874);
#794=AXIS2_PLACEMENT_3D('',#1123,#876,#877);
#795=AXIS2_PLACEMENT_3D('',#1138,#879,#880);
#796=AXIS2_PLACEMENT_3D('',#1141,#881,#882);
#797=AXIS2_PLACEMENT_3D('',#1142,#883,#884);
#798=AXIS2_PLACEMENT_3D('',#1143,#885,#886);
#799=AXIS2_PLACEMENT_3D('',#1144,#887,#888);
#800=AXIS2_PLACEMENT_3D('',#1147,#891,#892);
#801=AXIS2_PLACEMENT_3D('',#1149,#893,#894);
#802=AXIS2_PLACEMENT_3D('',#1151,#895,#896);
#803=AXIS2_PLACEMENT_3D('',#1164,#897,#898);
#804=AXIS2_PLACEMENT_3D('',#1167,#901,#902);
#805=AXIS2_PLACEMENT_3D('',#1170,#905,#906);
#806=AXIS2_PLACEMENT_3D('',#1174,#908,#909);
#807=AXIS2_PLACEMENT_3D('',#1176,#911,#912);
#808=AXIS2_PLACEMENT_3D('',#1180,#915,#916);
#809=AXIS2_PLACEMENT_3D('',#1183,#918,#919);
#810=AXIS2_PLACEMENT_3D('',#1184,#920,#921);
#811=AXIS2_PLACEMENT_3D('',#1188,#924,#925);
#812=AXIS2_PLACEMENT_3D('',#1189,#926,#927);
#813=AXIS2_PLACEMENT_3D('',#1192,#928,#929);
#814=AXIS2_PLACEMENT_3D('',#1196,#931,#932);
#815=AXIS2_PLACEMENT_3D('',#1198,#934,#935);
#816=AXIS2_PLACEMENT_3D('',#1207,#940,#941);
#817=AXIS2_PLACEMENT_3D('',#1222,#950,#951);
#818=AXIS2_PLACEMENT_3D('',#1232,#957,#958);
#819=AXIS2_PLACEMENT_3D('',#1240,#963,#964);
#820=AXIS2_PLACEMENT_3D('',#1249,#969,#970);
#821=AXIS2_PLACEMENT_3D('',#1252,#973,#974);
#822=AXIS2_PLACEMENT_3D('',#1261,#979,#980);
#823=AXIS2_PLACEMENT_3D('',#1268,#984,#985);
#824=AXIS2_PLACEMENT_3D('',#1272,#987,#988);
#825=AXIS2_PLACEMENT_3D('',#1276,#990,#991);
#826=AXIS2_PLACEMENT_3D('',#1280,#993,#994);
#827=AXIS2_PLACEMENT_3D('',#1282,#996,#997);
#828=AXIS2_PLACEMENT_3D('',#1286,#1000,#1001);
#829=AXIS2_PLACEMENT_3D('',#1288,#1002,#1003);
#830=AXIS2_PLACEMENT_3D('',#1290,#1005,#1006);
#831=AXIS2_PLACEMENT_3D('',#1293,#1008,#1009);
#832=AXIS2_PLACEMENT_3D('',#1297,#1011,#1012);
#833=AXIS2_PLACEMENT_3D('',#1301,#1014,#1015);
#834=AXIS2_PLACEMENT_3D('',#1305,#1017,#1018);
#835=AXIS2_PLACEMENT_3D('',#1309,#1021,#1022);
#836=AXIS2_PLACEMENT_3D('',#1312,#1025,#1026);
#837=AXIS2_PLACEMENT_3D('',#1314,#1028,#1029);
#838=AXIS2_PLACEMENT_3D('',#1316,#1031,#1032);
#839=AXIS2_PLACEMENT_3D('',#1318,#1034,#1035);
#840=AXIS2_PLACEMENT_3D('',#1319,#1036,#1037);
#841=AXIS2_PLACEMENT_3D('',#1321,#1039,#1040);
#842=AXIS2_PLACEMENT_3D('',#1322,#1041,#1042);
#843=AXIS2_PLACEMENT_3D('',#1323,#1043,#1044);
#844=AXIS2_PLACEMENT_3D('',#1326,#1047,#1048);
#845=AXIS2_PLACEMENT_3D('',#1328,#1050,#1051);
#846=AXIS2_PLACEMENT_3D('',#1329,#1052,#1053);
#847=AXIS2_PLACEMENT_3D('',#1330,#1054,#1055);
#848=AXIS2_PLACEMENT_3D('',#1334,#1058,#1059);
#849=AXIS2_PLACEMENT_3D('',#1336,#1061,#1062);
#850=AXIS2_PLACEMENT_3D('',#1337,#1063,#1064);
#851=AXIS2_PLACEMENT_3D('',#1341,#1067,#1068);
#852=AXIS2_PLACEMENT_3D('',#1344,#1070,#1071);
#853=AXIS2_PLACEMENT_3D('',#1345,#1072,#1073);
#854=AXIS2_PLACEMENT_3D('',#1347,#1075,#1076);
#855=DIRECTION('axis',(0.,0.,1.));
#856=DIRECTION('refdir',(1.,0.,0.));
#857=DIRECTION('center_axis',(0.,0.,-1.));
#858=DIRECTION('ref_axis',(-1.,0.,0.));
#859=DIRECTION('center_axis',(0.,0.,-1.));
#860=DIRECTION('ref_axis',(-0.677688032678073,0.735349529383764,0.));
#861=DIRECTION('center_axis',(-1.,0.,0.));
#862=DIRECTION('ref_axis',(0.,1.,0.));
#863=DIRECTION('center_axis',(0.,0.,1.));
#864=DIRECTION('ref_axis',(-0.677688032678073,0.735349529383764,0.));
#865=DIRECTION('center_axis',(0.,0.,-1.));
#866=DIRECTION('ref_axis',(-1.,0.,0.));
#867=DIRECTION('center_axis',(0.,0.,-1.));
#868=DIRECTION('ref_axis',(-0.683221641260682,-0.730211057786076,0.));
#869=DIRECTION('center_axis',(5.55111512312575E-15,-1.,0.));
#870=DIRECTION('ref_axis',(-1.,-5.55111512312575E-15,0.));
#871=DIRECTION('center_axis',(0.,0.,1.));
#872=DIRECTION('ref_axis',(-0.683221641260682,-0.730211057786076,0.));
#873=DIRECTION('center_axis',(0.,-1.,0.));
#874=DIRECTION('ref_axis',(0.707106781186548,0.,-0.707106781186548));
#875=DIRECTION('',(0.,-1.,0.));
#876=DIRECTION('center_axis',(5.55111512312578E-15,1.,0.));
#877=DIRECTION('ref_axis',(1.,-5.55111512312578E-15,0.));
#878=DIRECTION('',(0.,1.,0.));
#879=DIRECTION('center_axis',(0.,0.,-1.));
#880=DIRECTION('ref_axis',(0.707123359973115,-0.707090202011265,0.));
#881=DIRECTION('center_axis',(1.,0.,0.));
#882=DIRECTION('ref_axis',(0.,-1.,0.));
#883=DIRECTION('center_axis',(0.,0.,1.));
#884=DIRECTION('ref_axis',(0.707120044246951,-0.707093517877367,0.));
#885=DIRECTION('center_axis',(0.,0.,-1.));
#886=DIRECTION('ref_axis',(0.70712004424695,-0.707093517877367,0.));
#887=DIRECTION('center_axis',(-1.,2.6736532290443E-16,0.));
#888=DIRECTION('ref_axis',(0.,-0.707106781186548,-0.707106781186548));
#889=DIRECTION('',(1.,-2.6736532290443E-16,0.));
#890=DIRECTION('',(-1.,2.6736532290443E-16,0.));
#891=DIRECTION('center_axis',(0.,0.,-1.));
#892=DIRECTION('ref_axis',(0.771397233711876,0.636353917110333,0.));
#893=DIRECTION('center_axis',(0.,0.,-1.));
#894=DIRECTION('ref_axis',(0.768196683004098,0.640213914423531,0.));
#895=DIRECTION('center_axis',(0.,0.,1.));
#896=DIRECTION('ref_axis',(0.768196683004098,0.640213914423531,0.));
#897=DIRECTION('center_axis',(0.,1.,0.));
#898=DIRECTION('ref_axis',(-0.707106781186548,0.,-0.707106781186548));
#899=DIRECTION('',(0.,-1.,0.));
#900=DIRECTION('',(0.,1.,0.));
#901=DIRECTION('center_axis',(1.,0.,0.));
#902=DIRECTION('ref_axis',(0.,0.707106781186548,-0.707106781186548));
#903=DIRECTION('',(-1.,0.,0.));
#904=DIRECTION('',(1.,0.,0.));
#905=DIRECTION('center_axis',(0.,0.,-1.));
#906=DIRECTION('ref_axis',(-1.,-4.22261879591885E-15,0.));
#907=DIRECTION('',(0.,0.,-1.));
#908=DIRECTION('center_axis',(0.,0.,-1.));
#909=DIRECTION('ref_axis',(-1.,-4.22261879591885E-15,0.));
#910=DIRECTION('',(0.,0.,-1.));
#911=DIRECTION('center_axis',(-2.6736532290443E-16,-1.,0.));
#912=DIRECTION('ref_axis',(-1.,2.6736532290443E-16,0.));
#913=DIRECTION('',(0.,0.,-1.));
#914=DIRECTION('',(-1.,2.6736532290443E-16,0.));
#915=DIRECTION('center_axis',(0.,0.,-1.));
#916=DIRECTION('ref_axis',(-2.22044601616309E-15,-1.,0.));
#917=DIRECTION('',(0.,0.,-1.));
#918=DIRECTION('center_axis',(0.,0.,-1.));
#919=DIRECTION('ref_axis',(-2.22044601616309E-15,-1.,0.));
#920=DIRECTION('center_axis',(1.,0.,0.));
#921=DIRECTION('ref_axis',(0.,-1.,0.));
#922=DIRECTION('',(0.,0.,-1.));
#923=DIRECTION('',(0.,-1.,0.));
#924=DIRECTION('center_axis',(0.,0.,1.));
#925=DIRECTION('ref_axis',(1.,0.,0.));
#926=DIRECTION('center_axis',(9.88098491916393E-12,-1.,2.0884727280901E-9));
#927=DIRECTION('ref_axis',(0.998864565651319,-8.96252917552915E-11,-0.0476401037593472));
#928=DIRECTION('center_axis',(-9.88171796485056E-12,1.,-2.08847274349121E-9));
#929=DIRECTION('ref_axis',(0.998864565651319,-8.96252917552915E-11,-0.0476401037593472));
#930=DIRECTION('',(-3.72064959077899E-7,-0.999999999999931,2.15624938692957E-18));
#931=DIRECTION('center_axis',(-9.88171796485056E-12,1.,-2.08847274349121E-9));
#932=DIRECTION('ref_axis',(0.998864565651319,-8.96252917552915E-11,-0.0476401037593472));
#933=DIRECTION('',(-9.88098491916393E-12,1.,-2.0884727280901E-9));
#934=DIRECTION('center_axis',(0.,-1.,0.));
#935=DIRECTION('ref_axis',(-1.,0.,0.));
#936=DIRECTION('',(0.,0.,1.));
#937=DIRECTION('',(1.,0.,0.));
#938=DIRECTION('',(0.,0.,-1.));
#939=DIRECTION('',(1.,0.,0.));
#940=DIRECTION('center_axis',(0.,0.,1.));
#941=DIRECTION('ref_axis',(1.,0.,0.));
#942=DIRECTION('',(-1.,0.,0.));
#943=DIRECTION('',(-3.71612783921463E-7,-0.999999999999931,-3.23437408039436E-18));
#944=DIRECTION('',(1.,9.88159550017065E-12,0.));
#945=DIRECTION('',(9.88086245448401E-12,-1.,0.));
#946=DIRECTION('',(-1.,0.,0.));
#947=DIRECTION('',(0.,1.,0.));
#948=DIRECTION('',(-9.88098491916393E-12,1.,0.));
#949=DIRECTION('',(-1.,-9.88171796485056E-12,0.));
#950=DIRECTION('center_axis',(0.,1.,0.));
#951=DIRECTION('ref_axis',(1.,0.,0.));
#952=DIRECTION('',(0.,0.,-1.));
#953=DIRECTION('',(1.,0.,0.));
#954=DIRECTION('',(0.,0.,1.));
#955=DIRECTION('',(-5.01699911501075E-25,-4.0966906691005E-9,1.));
#956=DIRECTION('',(0.999999991046749,1.5232510561754E-7,0.000133815092017489));
#957=DIRECTION('center_axis',(9.88159550017065E-12,-1.,-2.08847274349121E-9));
#958=DIRECTION('ref_axis',(-0.998864565651319,8.96254140809209E-11,-0.0476401037593472));
#959=DIRECTION('',(0.999999991046749,1.52325105740005E-7,-0.000133815092017489));
#960=DIRECTION('',(0.,-4.0966906691005E-9,-1.));
#961=DIRECTION('',(1.,0.,0.));
#962=DIRECTION('',(0.,0.,-1.));
#963=DIRECTION('center_axis',(0.,-1.,0.));
#964=DIRECTION('ref_axis',(0.,0.,-1.));
#965=DIRECTION('',(0.,0.,-1.));
#966=DIRECTION('',(-1.,0.,0.));
#967=DIRECTION('',(0.,0.,-1.));
#968=DIRECTION('',(1.,0.,0.));
#969=DIRECTION('center_axis',(1.,0.,0.));
#970=DIRECTION('ref_axis',(0.,0.,-1.));
#971=DIRECTION('',(0.,1.,0.));
#972=DIRECTION('',(0.,-1.,0.));
#973=DIRECTION('center_axis',(0.,-1.,0.));
#974=DIRECTION('ref_axis',(0.,0.,1.));
#975=DIRECTION('',(0.,0.,1.));
#976=DIRECTION('',(-1.,0.,0.));
#977=DIRECTION('',(0.,0.,1.));
#978=DIRECTION('',(-1.,0.,0.));
#979=DIRECTION('center_axis',(0.,0.,1.));
#980=DIRECTION('ref_axis',(-1.,0.,0.));
#981=DIRECTION('',(0.,1.,0.));
#982=DIRECTION('',(0.99999782452427,-0.00208589230964764,0.));
#983=DIRECTION('',(1.,-1.34749009391993E-14,0.));
#984=DIRECTION('center_axis',(0.,0.,-1.));
#985=DIRECTION('ref_axis',(0.0802853935508624,0.996771917532985,0.));
#986=DIRECTION('',(0.,1.,0.));
#987=DIRECTION('center_axis',(0.,0.,-1.));
#988=DIRECTION('ref_axis',(-0.999863831453791,0.0165020771584905,0.));
#989=DIRECTION('',(-1.,7.22162501260748E-14,0.));
#990=DIRECTION('center_axis',(0.,0.,-1.));
#991=DIRECTION('ref_axis',(-0.0402488896748133,-0.999189685134882,0.));
#992=DIRECTION('',(-7.21999991871251E-14,-1.,0.));
#993=DIRECTION('center_axis',(0.,0.,-1.));
#994=DIRECTION('ref_axis',(0.995160115021439,0.0982667058088127,0.));
#995=DIRECTION('',(0.99999782452427,-0.00208589230964764,0.));
#996=DIRECTION('center_axis',(0.00208589230964764,0.99999782452427,0.));
#997=DIRECTION('ref_axis',(0.99999782452427,-0.00208589230964764,0.));
#998=DIRECTION('',(0.,0.,-1.));
#999=DIRECTION('',(0.99999782452427,-0.00208589230964764,0.));
#1000=DIRECTION('center_axis',(0.,0.,1.));
#1001=DIRECTION('ref_axis',(1.,0.,0.));
#1002=DIRECTION('center_axis',(0.,0.,-1.));
#1003=DIRECTION('ref_axis',(0.,1.,0.));
#1004=DIRECTION('',(0.,1.,0.));
#1005=DIRECTION('center_axis',(0.,0.,-1.));
#1006=DIRECTION('ref_axis',(0.994799025193027,-0.101857250478316,0.));
#1007=DIRECTION('',(0.,-1.,0.));
#1008=DIRECTION('center_axis',(0.,0.,-1.));
#1009=DIRECTION('ref_axis',(0.995160115021439,0.0982667058088127,0.));
#1010=DIRECTION('',(-7.21999991871251E-14,-1.,0.));
#1011=DIRECTION('center_axis',(0.,0.,-1.));
#1012=DIRECTION('ref_axis',(-0.0402488896748133,-0.999189685134882,0.));
#1013=DIRECTION('',(-1.,7.22162501260748E-14,0.));
#1014=DIRECTION('center_axis',(0.,0.,-1.));
#1015=DIRECTION('ref_axis',(-0.999863831453791,0.0165020771584905,0.));
#1016=DIRECTION('',(0.,1.,0.));
#1017=DIRECTION('center_axis',(0.,0.,-1.));
#1018=DIRECTION('ref_axis',(0.0802853935508624,0.996771917532985,0.));
#1019=DIRECTION('',(1.,-1.34749009391993E-14,0.));
#1020=DIRECTION('',(0.99999782452427,-0.00208589230964764,0.));
#1021=DIRECTION('center_axis',(0.,0.,-1.));
#1022=DIRECTION('ref_axis',(-0.999863831453791,0.0165020771584905,0.));
#1023=DIRECTION('',(0.,0.,1.));
#1024=DIRECTION('',(0.,0.,1.));
#1025=DIRECTION('center_axis',(-1.,0.,0.));
#1026=DIRECTION('ref_axis',(0.,1.,0.));
#1027=DIRECTION('',(0.,0.,-1.));
#1028=DIRECTION('center_axis',(0.,0.,-1.));
#1029=DIRECTION('ref_axis',(0.0802853935508624,0.996771917532985,0.));
#1030=DIRECTION('',(0.,0.,-1.));
#1031=DIRECTION('center_axis',(1.34749009391993E-14,1.,0.));
#1032=DIRECTION('ref_axis',(1.,-1.34749009391993E-14,0.));
#1033=DIRECTION('',(0.,0.,1.));
#1034=DIRECTION('center_axis',(0.00208589230964764,0.99999782452427,0.));
#1035=DIRECTION('ref_axis',(0.99999782452427,-0.00208589230964764,0.));
#1036=DIRECTION('center_axis',(-1.,0.,0.));
#1037=DIRECTION('ref_axis',(0.,1.,0.));
#1038=DIRECTION('',(0.,0.,-1.));
#1039=DIRECTION('center_axis',(0.,0.,-1.));
#1040=DIRECTION('ref_axis',(0.,1.,0.));
#1041=DIRECTION('center_axis',(0.,0.,-1.));
#1042=DIRECTION('ref_axis',(0.994799025193027,-0.101857250478316,0.));
#1043=DIRECTION('center_axis',(0.,0.,-1.));
#1044=DIRECTION('ref_axis',(-0.0402488896748133,-0.999189685134882,0.));
#1045=DIRECTION('',(0.,0.,-1.));
#1046=DIRECTION('',(0.,0.,1.));
#1047=DIRECTION('center_axis',(1.,-7.21999991871251E-14,0.));
#1048=DIRECTION('ref_axis',(-7.21999991871251E-14,-1.,0.));
#1049=DIRECTION('',(0.,0.,1.));
#1050=DIRECTION('center_axis',(0.,0.,-1.));
#1051=DIRECTION('ref_axis',(0.995160115021439,0.0982667058088127,0.));
#1052=DIRECTION('center_axis',(-7.22162501260748E-14,-1.,0.));
#1053=DIRECTION('ref_axis',(-1.,7.22162501260748E-14,0.));
#1054=DIRECTION('center_axis',(1.,9.88098491916393E-12,-4.04793387198616E-20));
#1055=DIRECTION('ref_axis',(0.,4.0966906691005E-9,1.));
#1056=DIRECTION('',(9.88098491916393E-12,-1.,2.0884727280901E-9));
#1057=DIRECTION('',(0.,4.0966906691005E-9,1.));
#1058=DIRECTION('center_axis',(0.000133815092017172,2.08847403161641E-9,
0.999999991046761));
#1059=DIRECTION('ref_axis',(-0.999999991046749,-1.52325105740005E-7,0.000133815092017489));
#1060=DIRECTION('',(-0.999999991046749,-1.52325105740005E-7,0.000133815092017489));
#1061=DIRECTION('center_axis',(-9.88171796485056E-12,1.,-2.08847274349121E-9));
#1062=DIRECTION('ref_axis',(-1.,-9.88171796485056E-12,0.));
#1063=DIRECTION('center_axis',(-1.,-9.88086245448401E-12,-4.04793387198616E-20));
#1064=DIRECTION('ref_axis',(-5.01699911501075E-25,-4.0966906691005E-9,1.));
#1065=DIRECTION('',(5.01699911501075E-25,4.0966906691005E-9,-1.));
#1066=DIRECTION('',(-9.88086245448401E-12,1.,2.0884727280901E-9));
#1067=DIRECTION('center_axis',(-9.88086245448401E-12,1.,2.0884727280901E-9));
#1068=DIRECTION('ref_axis',(-0.998864565651319,8.96254140809209E-11,-0.0476401037593472));
#1069=DIRECTION('',(9.88086245448401E-12,-1.,-2.0884727280901E-9));
#1070=DIRECTION('center_axis',(9.88159550017065E-12,-1.,-2.08847274349121E-9));
#1071=DIRECTION('ref_axis',(-0.998864565651319,8.96254140809209E-11,-0.0476401037593472));
#1072=DIRECTION('center_axis',(-0.000133815092017172,-2.08847403160003E-9,
0.999999991046761));
#1073=DIRECTION('ref_axis',(0.999999991046749,1.5232510561754E-7,0.000133815092017489));
#1074=DIRECTION('',(-0.999999991046749,-1.5232510561754E-7,-0.000133815092017489));
#1075=DIRECTION('center_axis',(9.88159550017065E-12,-1.,-2.08847274349121E-9));
#1076=DIRECTION('ref_axis',(1.,9.88159550017065E-12,0.));
#1077=CARTESIAN_POINT('',(0.,0.,0.));
#1078=CARTESIAN_POINT('Origin',(-123.280514485775,40.1761641046496,-5.6));
#1079=CARTESIAN_POINT('',(-127.550898722022,40.5252665894825,-5.6));
#1080=CARTESIAN_POINT('',(-123.280514485775,44.4607940851848,-5.6));
#1081=CARTESIAN_POINT('Origin',(-123.280514485775,40.1761641046496,-5.6));
#1082=CARTESIAN_POINT('',(-123.280514485775,43.6607940851847,-6.4));
#1083=CARTESIAN_POINT('Origin',(-123.280514485775,43.6607940851847,-5.6));
#1084=CARTESIAN_POINT('',(-126.750898722022,40.4909328357114,-6.4));
#1085=CARTESIAN_POINT('Origin',(-123.280514485775,40.1761641046496,-6.4));
#1086=CARTESIAN_POINT('Ctrl Pts',(-126.750898722022,40.4909328357114,-6.4));
#1087=CARTESIAN_POINT('Ctrl Pts',(-126.753230579526,40.4910383704817,-6.4));
#1088=CARTESIAN_POINT('Ctrl Pts',(-126.755562428368,40.4911438517848,-6.39998980457609));
#1089=CARTESIAN_POINT('Ctrl Pts',(-126.863391253919,40.4960190474843,-6.39904687558002));
#1090=CARTESIAN_POINT('Ctrl Pts',(-126.967682759252,40.5006229684998,-6.37726444999896));
#1091=CARTESIAN_POINT('Ctrl Pts',(-127.160543634784,40.5089823557121,-6.29500885059169));
#1092=CARTESIAN_POINT('Ctrl Pts',(-127.247462833117,40.5126705972608,-6.23582846489918));
#1093=CARTESIAN_POINT('Ctrl Pts',(-127.39367966675,40.518804642889,-6.08751157800091));
#1094=CARTESIAN_POINT('Ctrl Pts',(-127.451602553135,40.5211946598558,-5.99981932249506));
#1095=CARTESIAN_POINT('Ctrl Pts',(-127.530583410569,40.5244403800854,-5.80718136344588));
#1096=CARTESIAN_POINT('Ctrl Pts',(-127.550898722022,40.5252665894826,-5.70409057176765));
#1097=CARTESIAN_POINT('Ctrl Pts',(-127.550898722022,40.5252665894826,-5.6));
#1098=CARTESIAN_POINT('Origin',(-123.344132908548,-37.046804522568,-5.6));
#1099=CARTESIAN_POINT('',(-123.064734760855,-41.2442817749751,-5.6));
#1100=CARTESIAN_POINT('',(-127.550898722022,-37.046804522568,-5.6));
#1101=CARTESIAN_POINT('Origin',(-123.344132908548,-37.046804522568,-5.6));
#1102=CARTESIAN_POINT('',(-126.750898722022,-37.046804522568,-6.4));
#1103=CARTESIAN_POINT('Origin',(-126.750898722022,-37.046804522568,-5.6));
#1104=CARTESIAN_POINT('',(-123.092733570386,-40.4442817749752,-6.4));
#1105=CARTESIAN_POINT('Origin',(-123.344132908548,-37.046804522568,-6.4));
#1106=CARTESIAN_POINT('Ctrl Pts',(-123.092733570386,-40.444281774976,-6.4));
#1107=CARTESIAN_POINT('Ctrl Pts',(-123.092638948713,-40.4468427557296,-6.4));
#1108=CARTESIAN_POINT('Ctrl Pts',(-123.092544380932,-40.4494037237676,-6.39998770258296));
#1109=CARTESIAN_POINT('Ctrl Pts',(-123.088566847946,-40.5571790375439,-6.39895263253141));
#1110=CARTESIAN_POINT('Ctrl Pts',(-123.084821122548,-40.6611755407734,-6.37719459412089));
#1111=CARTESIAN_POINT('Ctrl Pts',(-123.078011368638,-40.8537947707393,-6.29508789804544));
#1112=CARTESIAN_POINT('Ctrl Pts',(-123.07500393389,-40.9407268277446,-6.23592089590521));
#1113=CARTESIAN_POINT('Ctrl Pts',(-123.070002421759,-41.0869887725948,-6.08761486663859));
#1114=CARTESIAN_POINT('Ctrl Pts',(-123.068054095436,-41.1449356772853,-5.99991118355164));
#1115=CARTESIAN_POINT('Ctrl Pts',(-123.065408176251,-41.2239557913809,-5.80723727761426));
#1116=CARTESIAN_POINT('Ctrl Pts',(-123.064734760855,-41.2442817749752,-5.70411788231641));
#1117=CARTESIAN_POINT('Ctrl Pts',(-123.064734760855,-41.2442817749752,-5.6));
#1118=CARTESIAN_POINT('Origin',(-53.4254216284786,20.4594550295081,-5.6));
#1119=CARTESIAN_POINT('',(-52.6254216284786,39.3152981844447,-5.6));
#1120=CARTESIAN_POINT('',(-52.6254216284786,-37.2441316595618,-5.6));
#1121=CARTESIAN_POINT('',(-52.6254216284786,20.4594550295081,-5.6));
#1122=CARTESIAN_POINT('',(-53.4254216284786,-37.2441316595618,-6.4));
#1123=CARTESIAN_POINT('Origin',(-53.4254216284786,-37.2441316595618,-5.6));
#1124=CARTESIAN_POINT('',(-53.4254216284786,39.3580643915015,-6.4));
#1125=CARTESIAN_POINT('',(-53.4254216284786,20.4594550295081,-6.4));
#1126=CARTESIAN_POINT('Ctrl Pts',(-53.4254216284786,39.3580643915015,-6.4));
#1127=CARTESIAN_POINT('Ctrl Pts',(-53.423363831156,39.3579489694267,-6.4));
#1128=CARTESIAN_POINT('Ctrl Pts',(-53.421306038827,39.3578335936515,-6.39999206025658));
#1129=CARTESIAN_POINT('Ctrl Pts',(-53.3133897270516,39.3517853768638,-6.39915928156565));
#1130=CARTESIAN_POINT('Ctrl Pts',(-53.2087212740417,39.3460442249443,-6.3773383921166));
#1131=CARTESIAN_POINT('Ctrl Pts',(-53.0155577099377,39.3356241596275,-6.2948777346979));
#1132=CARTESIAN_POINT('Ctrl Pts',(-52.9286590941875,39.3310258259721,-6.23567444855543));
#1133=CARTESIAN_POINT('Ctrl Pts',(-52.7825169255246,39.3233727040601,-6.08733873411365));
#1134=CARTESIAN_POINT('Ctrl Pts',(-52.7246340894261,39.3203869430518,-5.99966532765907));
#1135=CARTESIAN_POINT('Ctrl Pts',(-52.6457190109299,39.3163314092499,-5.80708742334121));
#1136=CARTESIAN_POINT('Ctrl Pts',(-52.6254216284786,39.3152981844448,-5.70404470579532));
#1137=CARTESIAN_POINT('Ctrl Pts',(-52.6254216284786,39.3152981844448,-5.6));
#1138=CARTESIAN_POINT('Origin',(-56.6254216852687,-37.2442817153705,-5.6));
#1139=CARTESIAN_POINT('',(-56.6254216852687,-41.2442817749752,-5.6));
#1140=CARTESIAN_POINT('',(-56.6254216852687,-40.4442817749752,-6.4));
#1141=CARTESIAN_POINT('Origin',(-56.6254216852687,-40.4442817749752,-5.6));
#1142=CARTESIAN_POINT('Origin',(-56.6254216852687,-37.2442817153705,-6.4));
#1143=CARTESIAN_POINT('Origin',(-56.6254216852687,-37.2442817153705,-5.6));
#1144=CARTESIAN_POINT('Origin',(-73.3507016744013,-40.4442817749752,-5.6));
#1145=CARTESIAN_POINT('',(-73.3507016744013,-40.4442817749752,-6.4));
#1146=CARTESIAN_POINT('',(-73.3507016744013,-41.2442817749752,-5.6));
#1147=CARTESIAN_POINT('Origin',(-57.2842296532582,39.7923124997917,-5.6));
#1148=CARTESIAN_POINT('',(-56.9136698663918,44.4607940851848,-5.6));
#1149=CARTESIAN_POINT('Origin',(-57.2842296532582,39.7923124997917,-5.6));
#1150=CARTESIAN_POINT('',(-56.9468559507683,43.6607940851847,-6.4));
#1151=CARTESIAN_POINT('Origin',(-57.2842296532582,39.7923124997917,-6.4));
#1152=CARTESIAN_POINT('Ctrl Pts',(-56.9468559507683,43.6607940851847,-6.4));
#1153=CARTESIAN_POINT('Ctrl Pts',(-56.9467571683451,43.6630637536034,-6.4));
#1154=CARTESIAN_POINT('Ctrl Pts',(-56.9466584296701,43.6653334137046,-6.39999034113488));
#1155=CARTESIAN_POINT('Ctrl Pts',(-56.9419698949718,43.77315383286,-6.39907263231679));
#1156=CARTESIAN_POINT('Ctrl Pts',(-56.937528688322,43.87750105755,-6.37729289572878));
#1157=CARTESIAN_POINT('Ctrl Pts',(-56.9294531138367,44.0704146015075,-6.29502361726022));
#1158=CARTESIAN_POINT('Ctrl Pts',(-56.925883755539,44.1573367676406,-6.23584518805));
#1159=CARTESIAN_POINT('Ctrl Pts',(-56.9199413649172,44.3035621217725,-6.08752967938184));
#1160=CARTESIAN_POINT('Ctrl Pts',(-56.9176225589634,44.3614893143932,-5.99983521043331));
#1161=CARTESIAN_POINT('Ctrl Pts',(-56.9144724572101,44.4404769628975,-5.80719086992562));
#1162=CARTESIAN_POINT('Ctrl Pts',(-56.9136698663919,44.4607940851847,-5.70409522955957));
#1163=CARTESIAN_POINT('Ctrl Pts',(-56.9136698663919,44.4607940851847,-5.6));
#1164=CARTESIAN_POINT('Origin',(-126.750898722022,-17.7215963239982,-5.6));
#1165=CARTESIAN_POINT('',(-126.750898722022,-17.7215963239982,-6.4));
#1166=CARTESIAN_POINT('',(-127.550898722022,-17.7215963239982,-5.6));
#1167=CARTESIAN_POINT('Origin',(-106.678248074655,43.6607940851847,-5.6));
#1168=CARTESIAN_POINT('',(-106.678248074655,43.6607940851847,-6.4));
#1169=CARTESIAN_POINT('',(-106.678248074655,44.4607940851848,-5.6));
#1170=CARTESIAN_POINT('Origin',(-123.344132908548,-37.046804522568,13.6));
#1171=CARTESIAN_POINT('',(-123.064734760855,-41.2442817749751,-5.4));
#1172=CARTESIAN_POINT('',(-123.064734760855,-41.2442817749751,13.6));
#1173=CARTESIAN_POINT('',(-127.550898722022,-37.046804522568,-5.4));
#1174=CARTESIAN_POINT('Origin',(-123.344132908548,-37.046804522568,-5.4));
#1175=CARTESIAN_POINT('',(-127.550898722022,-37.046804522568,13.6));
#1176=CARTESIAN_POINT('Origin',(-56.6254216852687,-41.2442817749752,13.6));
#1177=CARTESIAN_POINT('',(-56.6254216852687,-41.2442817749752,-5.4));
#1178=CARTESIAN_POINT('',(-56.6254216852687,-41.2442817749752,13.6));
#1179=CARTESIAN_POINT('',(-73.3507016744013,-41.2442817749752,-5.4));
#1180=CARTESIAN_POINT('Origin',(-56.6254216852687,-37.2442817153705,13.6));
#1181=CARTESIAN_POINT('',(-52.6254216284786,-37.2441316595618,-5.4));
#1182=CARTESIAN_POINT('',(-52.6254216284786,-37.2441316595618,13.6));
#1183=CARTESIAN_POINT('Origin',(-56.6254216852687,-37.2442817153705,-5.4));
#1184=CARTESIAN_POINT('Origin',(-52.6254216284786,39.3152981844447,13.6));
#1185=CARTESIAN_POINT('',(-52.6254216284786,39.3152981844447,-5.4));
#1186=CARTESIAN_POINT('',(-52.6254216284786,39.3152981844447,13.6));
#1187=CARTESIAN_POINT('',(-52.6254216284786,20.4594550295081,-5.4));
#1188=CARTESIAN_POINT('Origin',(-90.0759816635339,1.60361187457158,-6.4));
#1189=CARTESIAN_POINT('Origin',(-79.3742428407266,44.4607940851848,6.5624916029649));
#1190=CARTESIAN_POINT('',(-74.7668030765452,44.4607940928095,6.34512386552704));
#1191=CARTESIAN_POINT('',(-79.3483367723835,44.4607940851318,1.95));
#1192=CARTESIAN_POINT('Origin',(-79.3742428407266,44.4607940947647,6.5624916029649));
#1193=CARTESIAN_POINT('',(-79.3483371444485,43.4607940851318,1.95));
#1194=CARTESIAN_POINT('',(-79.3483527180393,1.6036118877077,1.95));
#1195=CARTESIAN_POINT('',(-74.7668030765353,43.4607940928095,6.34512386761552));
#1196=CARTESIAN_POINT('Origin',(-79.3742428407167,43.4607940947647,6.56249160505337));
#1197=CARTESIAN_POINT('',(-74.7668030765452,44.4607940847763,6.34512386552704));
#1198=CARTESIAN_POINT('Origin',(-74.499999769032,43.4255947387906,14.1));
#1199=CARTESIAN_POINT('',(-74.699999769032,43.4255947387906,-3.9));
#1200=CARTESIAN_POINT('',(-74.699999769032,43.4255947387906,1.95));
#1201=CARTESIAN_POINT('',(-74.699999769032,43.4255947387906,14.1));
#1202=CARTESIAN_POINT('',(-105.067263520012,43.4255947387906,1.95));
#1203=CARTESIAN_POINT('',(-82.191815706777,43.4255947387906,1.95));
#1204=CARTESIAN_POINT('',(-105.067263520012,43.4255947387906,-3.9));
#1205=CARTESIAN_POINT('',(-105.067263520012,43.4255947387906,14.1));
#1206=CARTESIAN_POINT('',(-74.499999769032,43.4255947387906,-3.9));
#1207=CARTESIAN_POINT('Origin',(-89.8836316445221,43.9627977009461,1.95));
#1208=CARTESIAN_POINT('',(-100.418617910409,44.4607940851848,1.95));
#1209=CARTESIAN_POINT('',(-106.582073065149,44.4607940851848,1.95));
#1210=CARTESIAN_POINT('',(-100.418618282021,43.4607940852377,1.95));
#1211=CARTESIAN_POINT('',(-100.418633836685,1.60361187923987,1.95));
#1212=CARTESIAN_POINT('',(-105.066955285503,43.4607940853896,1.95));
#1213=CARTESIAN_POINT('',(-96.3131740254512,43.4607940852782,1.95));
#1214=CARTESIAN_POINT('',(-105.066955285513,44.4607940851848,1.95));
#1215=CARTESIAN_POINT('',(-105.066955285506,43.7117958929904,1.95));
#1216=CARTESIAN_POINT('',(-105.067263520012,44.4607940851848,1.95));
#1217=CARTESIAN_POINT('',(-106.582073065149,44.4607940851848,1.95));
#1218=CARTESIAN_POINT('',(-105.067263520012,43.6941962198684,1.95));
#1219=CARTESIAN_POINT('',(-74.6999997690221,43.4607940849799,1.95));
#1220=CARTESIAN_POINT('',(-74.6999997690295,44.2117958931404,1.95));
#1221=CARTESIAN_POINT('',(-83.4539351463285,43.4607940850913,1.95));
#1222=CARTESIAN_POINT('Origin',(-123.280514485775,44.4607940851848,13.6));
#1223=CARTESIAN_POINT('',(-123.280514485775,44.4607940851848,-5.4));
#1224=CARTESIAN_POINT('',(-123.280514485775,44.4607940851848,13.6));
#1225=CARTESIAN_POINT('',(-105.067263520012,44.4607940851848,-5.4));
#1226=CARTESIAN_POINT('',(-114.273889002894,44.4607940851848,-5.4));
#1227=CARTESIAN_POINT('',(-105.067263520012,44.4607940851848,13.85));
#1228=CARTESIAN_POINT('',(-105.066955285513,44.4607940673842,6.34511492832469));
#1229=CARTESIAN_POINT('',(-105.066955285513,44.4607940673842,6.34511492832469));
#1230=CARTESIAN_POINT('',(-105.000151978,44.46079407756,6.34512386761552));
#1231=CARTESIAN_POINT('',(-104.950096074888,44.4607940851848,6.34513056585086));
#1232=CARTESIAN_POINT('Origin',(-100.392712213818,44.4607940756048,6.56249160505337));
#1233=CARTESIAN_POINT('',(-74.699999769032,44.4607941029853,6.34511492623622));
#1234=CARTESIAN_POINT('',(-74.8168589796567,44.4607940851848,6.34513056376238));
#1235=CARTESIAN_POINT('',(-74.699999769032,44.4607940851848,-5.4));
#1236=CARTESIAN_POINT('',(-74.699999769032,44.4607941029853,6.34511492623622));
#1237=CARTESIAN_POINT('',(-56.9136698663918,44.4607940851848,-5.4));
#1238=CARTESIAN_POINT('',(-106.678248074655,44.4607940851848,-5.4));
#1239=CARTESIAN_POINT('',(-56.9136698663918,44.4607940851848,13.6));
#1240=CARTESIAN_POINT('Origin',(-105.267263520012,42.6260333417684,-3.9));
#1241=CARTESIAN_POINT('',(-105.267263520012,42.6260333417684,-3.9));
#1242=CARTESIAN_POINT('',(-105.267263520012,42.6260333417684,-5.4));
#1243=CARTESIAN_POINT('',(-105.267263520012,42.6260333417684,23.85));
#1244=CARTESIAN_POINT('',(-105.067263520012,42.6260333417684,-3.9));
#1245=CARTESIAN_POINT('',(-97.7085918467622,42.6260333417684,-3.9));
#1246=CARTESIAN_POINT('',(-105.067263520012,42.6260333417684,-5.4));
#1247=CARTESIAN_POINT('',(-105.067263520012,42.6260333417684,23.85));
#1248=CARTESIAN_POINT('',(-105.267263520012,42.6260333417684,-5.4));
#1249=CARTESIAN_POINT('Origin',(-105.067263520012,43.4255947387906,14.1));
#1250=CARTESIAN_POINT('',(-105.067263520012,22.5146033066811,-5.4));
#1251=CARTESIAN_POINT('',(-105.067263520012,22.3455106037072,-3.9));
#1252=CARTESIAN_POINT('Origin',(-74.499999769032,42.5618560033051,-5.4));
#1253=CARTESIAN_POINT('',(-74.499999769032,42.5618560033051,-5.4));
#1254=CARTESIAN_POINT('',(-74.499999769032,42.5618560033051,-3.9));
#1255=CARTESIAN_POINT('',(-74.499999769032,42.5618560033051,14.1));
#1256=CARTESIAN_POINT('',(-74.699999769032,42.5618560033051,-5.4));
#1257=CARTESIAN_POINT('',(-74.499999769032,42.5618560033051,-5.4));
#1258=CARTESIAN_POINT('',(-74.699999769032,42.5618560033051,-3.9));
#1259=CARTESIAN_POINT('',(-74.699999769032,42.5618560033051,14.1));
#1260=CARTESIAN_POINT('',(-82.3249599712721,42.5618560033051,-3.9));
#1261=CARTESIAN_POINT('Origin',(-90.1499201735123,1.26542646862382,-3.9));
#1262=CARTESIAN_POINT('',(-74.699999769032,22.8631102769043,-3.9));
#1263=CARTESIAN_POINT('',(-106.97269565478,42.6295906972819,-3.9));
#1264=CARTESIAN_POINT('',(-98.518308303969,42.6119557173596,-3.9));
#1265=CARTESIAN_POINT('',(-122.799906061799,42.6295906972821,-3.9));
#1266=CARTESIAN_POINT('',(-106.470828398472,42.6295906972819,-3.9));
#1267=CARTESIAN_POINT('',(-126.099999188632,39.6965855203819,-3.9));
#1268=CARTESIAN_POINT('Origin',(-123.052602384525,39.5908488364983,-3.9));
#1269=CARTESIAN_POINT('',(-126.099999188632,-37.0016756513283,-3.9));
#1270=CARTESIAN_POINT('',(-126.099999188632,-17.8672863521809,-3.9));
#1271=CARTESIAN_POINT('',(-122.807653360025,-40.0999990992248,-3.9));
#1272=CARTESIAN_POINT('Origin',(-123.044937705536,-37.0537217640624,-3.9));
#1273=CARTESIAN_POINT('',(-57.3659093238365,-40.0999990992295,-3.9));
#1274=CARTESIAN_POINT('',(-73.7599600867576,-40.0999990992283,-3.9));
#1275=CARTESIAN_POINT('',(-54.1999994635582,-37.0019583492229,-3.9));
#1276=CARTESIAN_POINT('Origin',(-57.2395860240994,-37.062436508804,-3.9));
#1277=CARTESIAN_POINT('',(-54.1999994635527,39.9982481687352,-3.9));
#1278=CARTESIAN_POINT('',(-54.199999463554,20.6368470993654,-3.9));
#1279=CARTESIAN_POINT('',(-57.2079178136233,42.5257865040682,-3.9));
#1280=CARTESIAN_POINT('Origin',(-57.0069810740126,39.7113444784365,-3.9));
#1281=CARTESIAN_POINT('',(-98.518308303969,42.6119557173596,-3.9));
#1282=CARTESIAN_POINT('Origin',(-106.972904243783,42.6295911323771,33.6));
#1283=CARTESIAN_POINT('',(-57.2079178136233,42.5257865040682,-5.4));
#1284=CARTESIAN_POINT('',(-57.2079178136232,42.5257865040682,33.6));
#1285=CARTESIAN_POINT('',(-98.4816919182325,42.611879339356,-5.4));
#1286=CARTESIAN_POINT('Origin',(-90.0759816635339,1.60361187457158,-5.4));
#1287=CARTESIAN_POINT('',(-127.550898722022,40.5252665894825,-5.4));
#1288=CARTESIAN_POINT('Origin',(-123.280514485775,40.1761641046496,-5.4));
#1289=CARTESIAN_POINT('',(-127.550898722022,-17.7215963239982,-5.4));
#1290=CARTESIAN_POINT('Origin',(-57.2842296532582,39.7923124997917,-5.4));
#1291=CARTESIAN_POINT('',(-74.699999769032,22.5146033066811,-5.4));
#1292=CARTESIAN_POINT('',(-54.1999994635527,39.9982481687352,-5.4));
#1293=CARTESIAN_POINT('Origin',(-57.0069810740126,39.7113444784365,-5.4));
#1294=CARTESIAN_POINT('',(-54.1999994635582,-37.0019583492229,-5.4));
#1295=CARTESIAN_POINT('',(-54.199999463554,20.8059398023393,-5.4));
#1296=CARTESIAN_POINT('',(-57.3659093238365,-40.0999990992295,-5.4));
#1297=CARTESIAN_POINT('Origin',(-57.2395860240994,-37.062436508804,-5.4));
#1298=CARTESIAN_POINT('',(-122.807653360025,-40.0999990992248,-5.4));
#1299=CARTESIAN_POINT('',(-73.7229908317685,-40.0999990992284,-5.4));
#1300=CARTESIAN_POINT('',(-126.099999188632,-37.0016756513283,-5.4));
#1301=CARTESIAN_POINT('Origin',(-123.044937705536,-37.0537217640624,-5.4));
#1302=CARTESIAN_POINT('',(-126.099999188632,39.6965855203819,-5.4));
#1303=CARTESIAN_POINT('',(-126.099999188632,-17.698193649207,-5.4));
#1304=CARTESIAN_POINT('',(-122.799906061799,42.6295906972821,-5.4));
#1305=CARTESIAN_POINT('Origin',(-123.052602384525,39.5908488364983,-5.4));
#1306=CARTESIAN_POINT('',(-106.97269565478,42.6295906972819,-5.4));
#1307=CARTESIAN_POINT('',(-106.433859143483,42.6295906972819,-5.4));
#1308=CARTESIAN_POINT('',(-98.4816919182325,42.611879339356,-5.4));
#1309=CARTESIAN_POINT('Origin',(-123.044937705536,-37.0537217640624,33.6));
#1310=CARTESIAN_POINT('',(-126.099999188632,-37.0016756513283,33.6));
#1311=CARTESIAN_POINT('',(-122.807653360025,-40.0999990992248,33.6));
#1312=CARTESIAN_POINT('Origin',(-126.099999188632,-36.9999991729856,33.6));
#1313=CARTESIAN_POINT('',(-126.099999188632,39.6965855203819,33.6));
#1314=CARTESIAN_POINT('Origin',(-123.052602384525,39.5908488364983,33.6));
#1315=CARTESIAN_POINT('',(-122.799906061799,42.6295906972821,33.6));
#1316=CARTESIAN_POINT('Origin',(-122.791736623433,42.6295906972821,33.6));
#1317=CARTESIAN_POINT('',(-106.97269565478,42.6295906972819,33.6));
#1318=CARTESIAN_POINT('Origin',(-106.972904243783,42.6295911323771,33.6));
#1319=CARTESIAN_POINT('Origin',(-127.550898722022,-37.046804522568,13.6));
#1320=CARTESIAN_POINT('',(-127.550898722022,40.5252665894825,13.6));
#1321=CARTESIAN_POINT('Origin',(-123.280514485775,40.1761641046496,13.6));
#1322=CARTESIAN_POINT('Origin',(-57.2842296532582,39.7923124997917,13.6));
#1323=CARTESIAN_POINT('Origin',(-57.2395860240994,-37.062436508804,33.6));
#1324=CARTESIAN_POINT('',(-57.3659093238363,-40.0999990992295,33.6));
#1325=CARTESIAN_POINT('',(-54.1999994635582,-37.0019583492223,33.6));
#1326=CARTESIAN_POINT('Origin',(-54.1999994635526,40.0082677301096,33.6));
#1327=CARTESIAN_POINT('',(-54.1999994635527,39.9982481687354,33.6));
#1328=CARTESIAN_POINT('Origin',(-57.0069810740126,39.7113444784365,33.6));
#1329=CARTESIAN_POINT('Origin',(-57.37,-40.0999990992295,33.6));
#1330=CARTESIAN_POINT('Origin',(-74.699999769032,44.4607940851848,2.));
#1331=CARTESIAN_POINT('',(-74.6999997690221,43.4607941029853,6.34511492832469));
#1332=CARTESIAN_POINT('',(-74.699999769032,44.4607941029853,6.34511492623622));
#1333=CARTESIAN_POINT('',(-74.6999997690221,43.4607941029853,6.34511492832469));
#1334=CARTESIAN_POINT('Origin',(-74.699999769032,44.4607941029853,6.34511492623622));
#1335=CARTESIAN_POINT('',(-74.8168589796469,43.4607940851848,6.34513056585086));
#1336=CARTESIAN_POINT('Origin',(-77.0242386481399,43.4607940897966,4.17256528396966));
#1337=CARTESIAN_POINT('Origin',(-105.066955285503,43.4607940851848,2.));
#1338=CARTESIAN_POINT('',(-105.066955285503,43.4607940673842,6.34511492623622));
#1339=CARTESIAN_POINT('',(-105.066955285503,43.4607940673842,6.34511492623622));
#1340=CARTESIAN_POINT('',(-105.066955285503,43.4607940673842,6.34511492623622));
#1341=CARTESIAN_POINT('Origin',(-100.392712213809,43.4607940851848,6.5624916029649));
#1342=CARTESIAN_POINT('',(-105.00015197799,43.46079407756,6.34512386552704));
#1343=CARTESIAN_POINT('',(-105.00015197799,43.4607940855932,6.34512386552704));
#1344=CARTESIAN_POINT('Origin',(-100.392712213809,43.4607940756048,6.5624916029649));
#1345=CARTESIAN_POINT('Origin',(-105.066955285503,43.4607940673842,6.34511492623622));
#1346=CARTESIAN_POINT('',(-104.950096074878,43.4607940851848,6.34513056376238));
#1347=CARTESIAN_POINT('Origin',(-102.742716406385,43.4607940805729,4.17256528188119));
#1348=UNCERTAINTY_MEASURE_WITH_UNIT(LENGTH_MEASURE(0.01),#1352,
'DISTANCE_ACCURACY_VALUE',
'Maximum model space distance between geometric entities at asserted c
onnectivities');
#1349=UNCERTAINTY_MEASURE_WITH_UNIT(LENGTH_MEASURE(0.01),#1352,
'DISTANCE_ACCURACY_VALUE',
'Maximum model space distance between geometric entities at asserted c
onnectivities');
#1350=(
GEOMETRIC_REPRESENTATION_CONTEXT(3)
GLOBAL_UNCERTAINTY_ASSIGNED_CONTEXT((#1348))
GLOBAL_UNIT_ASSIGNED_CONTEXT((#1352,#1353,#1354))
REPRESENTATION_CONTEXT('','3D')
);
#1351=(
GEOMETRIC_REPRESENTATION_CONTEXT(3)
GLOBAL_UNCERTAINTY_ASSIGNED_CONTEXT((#1349))
GLOBAL_UNIT_ASSIGNED_CONTEXT((#1352,#1353,#1354))
REPRESENTATION_CONTEXT('','3D')
);
#1352=(
LENGTH_UNIT()
NAMED_UNIT(*)
SI_UNIT(.MILLI.,.METRE.)
);
#1353=(
NAMED_UNIT(*)
PLANE_ANGLE_UNIT()
SI_UNIT($,.RADIAN.)
);
#1354=(
NAMED_UNIT(*)
SI_UNIT($,.STERADIAN.)
SOLID_ANGLE_UNIT()
);
#1355=SHAPE_DEFINITION_REPRESENTATION(#1356,#1357);
#1356=PRODUCT_DEFINITION_SHAPE('',$,#1359);
#1357=SHAPE_REPRESENTATION('',(#784),#1350);
#1358=PRODUCT_DEFINITION_CONTEXT('part definition',#1363,'design');
#1359=PRODUCT_DEFINITION('PCB','dc_cdi_rev_2_2_housing',#1360,#1358);
#1360=PRODUCT_DEFINITION_FORMATION('',$,#1365);
#1361=PRODUCT_RELATED_PRODUCT_CATEGORY('dc_cdi_rev_2_2_housing',
'dc_cdi_rev_2_2_housing',(#1365));
#1362=APPLICATION_PROTOCOL_DEFINITION('international standard',
'automotive_design',2009,#1363);
#1363=APPLICATION_CONTEXT(
'Core Data for Automotive Mechanical Design Process');
#1364=PRODUCT_CONTEXT('part definition',#1363,'mechanical');
#1365=PRODUCT('PCB','dc_cdi_rev_2_2_housing','Open CASCADE Model',(#1364));
#1366=PRESENTATION_STYLE_ASSIGNMENT((#1367));
#1367=SURFACE_STYLE_USAGE(.BOTH.,#1368);
#1368=SURFACE_SIDE_STYLE('',(#1369));
#1369=SURFACE_STYLE_FILL_AREA(#1370);
#1370=FILL_AREA_STYLE('Acciaio - Satinato',(#1371));
#1371=FILL_AREA_STYLE_COLOUR('Acciaio - Satinato',#1372);
#1372=COLOUR_RGB('Acciaio - Satinato',0.627450980392157,0.627450980392157,
0.627450980392157);
ENDSEC;
END-ISO-10303-21;
